<svg width="2000" height="2880" viewBox="0 0 2000 2880" fill="none" xmlns="http://www.w3.org/2000/svg">
<path fill-rule="evenodd" clip-rule="evenodd" d="M2000 1003.41C2000 1300.65 1891.9 1460.85 1762.6 1652.47L1762.08 1653.23C1760.02 1656.29 1757.96 1659.35 1755.88 1662.42C1643.45 1784.27 1597.02 1829.8 1567.06 1859.18C1519.93 1905.4 1513.52 1911.68 1355.04 2112.18C1213.57 2323.82 1124.33 2604.91 1056.75 2833.16C1050.44 2860.04 1026.97 2880 998.987 2880C971.049 2880 947.613 2860.1 941.251 2833.29C867.251 2594.1 756.11 2323.87 616.852 2112.18C546.711 2005.55 476.448 1933.97 401.652 1857.78L401.65 1857.78C345.7 1800.78 287.212 1741.19 224.341 1662.42C93.7684 1466 0 1305.78 0 1003.41C0 470.604 466.832 0 999.639 0C1532.45 0 2000 470.604 2000 1003.41ZM1002.07 1407.87C1196.46 1407.87 1354.04 1250.29 1354.04 1055.9C1354.04 861.515 1196.46 703.934 1002.07 703.934C807.684 703.934 650.103 861.515 650.103 1055.9C650.103 1250.29 807.684 1407.87 1002.07 1407.87Z" fill="white"/>
</svg>
