<svg width="11" height="17" viewBox="0 0 11 17" fill="none" xmlns="http://www.w3.org/2000/svg">
<path d="M0.49707 8.6543C0.50293 8.43164 0.546875 8.22949 0.628906 8.04785C0.710938 7.86035 0.839844 7.67871 1.01562 7.50293L7.66016 0.999023C7.92969 0.735352 8.25488 0.603516 8.63574 0.603516C8.89355 0.603516 9.12793 0.667969 9.33887 0.796875C9.55566 0.919922 9.72852 1.08691 9.85742 1.29785C9.98633 1.50879 10.0508 1.74316 10.0508 2.00098C10.0508 2.39355 9.89844 2.73633 9.59375 3.0293L3.80176 8.64551L9.59375 14.2705C9.89844 14.5752 10.0508 14.9209 10.0508 15.3076C10.0508 15.5654 9.98633 15.7998 9.85742 16.0107C9.72852 16.2217 9.55566 16.3887 9.33887 16.5117C9.12793 16.6406 8.89355 16.7051 8.63574 16.7051C8.25488 16.7051 7.92969 16.5703 7.66016 16.3008L1.01562 9.79688C0.833984 9.62109 0.702148 9.44238 0.620117 9.26074C0.538086 9.07324 0.49707 8.87109 0.49707 8.6543Z" fill="#2FA1A8"/>
</svg>
