<svg width="178" height="99" viewBox="0 0 178 99" fill="none" xmlns="http://www.w3.org/2000/svg">
<path d="M88.9046 94.6746C135.683 94.6746 173.604 74.4223 173.604 49.4398C173.604 24.4573 135.683 4.20496 88.9046 4.20496C42.1263 4.20496 4.20508 24.4573 4.20508 49.4398C4.20508 74.4223 42.1263 94.6746 88.9046 94.6746Z" fill="black"/>
<path d="M172.228 57.5835C170.878 54.7955 167.94 52.8456 164.517 53.1368C163.705 53.2074 162.929 53.3132 162.214 53.4721C157.459 54.5043 150.091 53.5603 145.751 51.3634C141.41 49.1577 134.043 48.2136 129.287 49.2547C124.532 50.287 117.165 49.343 112.824 47.1461C109.471 45.4433 104.301 44.4904 99.9334 44.6316L95.6367 59.4098C99.2541 61.8626 104.124 63.8301 107.874 64.1918C112.718 64.6594 119.45 67.8092 122.908 71.2325C126.367 74.6558 133.099 77.8055 137.942 78.2731C141.013 78.5643 144.851 79.9495 148.124 81.7846C160.397 75.3704 169.034 66.9887 172.237 57.5923L172.228 57.5835Z" fill="#44495C"/>
<path d="M13.3011 45.7345C14.1128 45.6639 14.8892 45.558 15.6038 45.3992C20.3593 44.367 27.7264 45.311 32.0673 47.5079C36.4081 49.7048 43.7752 50.6577 48.5308 49.6166C53.2863 48.5843 60.6534 49.5283 64.9942 51.7252C68.3469 53.428 73.5171 54.3809 77.8844 54.2397L82.1812 39.4614C78.5638 37.0087 73.6936 35.0412 69.9438 34.6795C65.1001 34.2118 58.3682 31.0621 54.9097 27.6388C51.4511 24.2155 44.7193 21.0658 39.8755 20.5982C36.8052 20.307 32.9672 18.9218 29.6939 17.0867C17.4213 23.5009 8.78375 31.8826 5.58105 41.279C6.93095 44.067 9.86897 46.0168 13.2922 45.7257L13.3011 45.7345Z" fill="#44495C"/>
<path d="M88.9044 39.4877C78.6169 39.4877 70.2793 43.9432 70.2793 49.431C70.2793 54.9189 78.6169 59.3744 88.9044 59.3744C99.1918 59.3744 107.529 54.9189 107.529 49.431C107.529 43.9432 99.1918 39.4877 88.9044 39.4877ZM88.9044 53.9307C84.2547 53.9307 80.4962 51.9191 80.4962 49.4399C80.4962 46.9606 84.2635 44.949 88.9044 44.949C93.5452 44.949 97.3126 46.9606 97.3126 49.4399C97.3126 51.9191 93.5452 53.9307 88.9044 53.9307Z" fill="white"/>
<path fill-rule="evenodd" clip-rule="evenodd" d="M30.9938 21.1631C16.2088 29.0593 8.41 39.2546 8.41 49.4398C8.41 59.6251 16.2088 69.8204 30.9938 77.7165C45.5996 85.5169 66.0667 90.4697 88.9045 90.4697C111.742 90.4697 132.209 85.5169 146.815 77.7165C161.6 69.8204 169.399 59.6251 169.399 49.4398C169.399 39.2546 161.6 29.0593 146.815 21.1631C132.209 13.3628 111.742 8.41 88.9045 8.41C66.0667 8.41 45.5996 13.3628 30.9938 21.1631ZM27.032 13.7448C43.0814 5.17339 64.964 0 88.9045 0C112.845 0 134.728 5.17339 150.777 13.7448C166.647 22.2204 177.809 34.6426 177.809 49.4398C177.809 64.2371 166.647 76.6592 150.777 85.1348C134.728 93.7063 112.845 98.8797 88.9045 98.8797C64.964 98.8797 43.0814 93.7063 27.032 85.1348C11.1618 76.6592 0 64.2371 0 49.4398C0 34.6426 11.1618 22.2204 27.032 13.7448Z" fill="#61647B"/>
</svg>
