<svg width="332" height="134" viewBox="0 0 332 134" fill="none" xmlns="http://www.w3.org/2000/svg">
<path fill-rule="evenodd" clip-rule="evenodd" d="M0.229953 98.0874C-0.828843 90.1948 1.47656 73.7156 13.3157 63.2528C13.3157 63.2528 2.20604 73.0659 13.304 63.2528C24.4019 53.4398 38.9692 53.0174 44.6975 53.2863C45.6881 53.3328 46.406 52.2027 45.9675 51.3133C43.9377 47.1966 42.9642 42.6047 43.2334 37.7635C44.0274 23.4956 56.5779 12.3153 71.8106 12.3153C74.1981 12.3153 76.6213 12.5859 79.0209 13.1269C79.9415 13.3285 80.857 13.5654 81.8188 13.8142L82.0496 13.8739C85.0434 14.6502 88.766 15.6147 93.9356 16.1146C96.347 16.3499 98.7173 16.4557 101.628 16.4557C103.281 16.4557 104.934 16.4204 106.686 16.3852C108.021 16.3616 109.397 16.3322 110.832 16.3205H111.262C119.282 16.3205 126.025 18.5826 131.386 23.0451C132.096 23.6358 133.22 23.2908 133.457 22.3985C134.954 16.7589 137.485 12.0354 141.015 8.31608C146.102 2.95239 153.03 0 160.523 0C161.2 0 161.888 0.023521 162.57 0.0705721C170.439 0.623411 177.349 4.40506 182.025 10.7156C186.259 16.4338 188.083 25.2899 187.45 33.5204C187.397 34.2039 188.658 34.6271 189.028 34.0496C190.951 31.041 193.136 28.4167 194.699 27.0067C199.833 22.3782 206.503 19.8257 213.484 19.8257C214.919 19.8257 216.372 19.9374 217.801 20.1492C225.876 21.3548 233.068 25.9951 237.527 32.8762C241.181 38.5155 242.794 45.2497 242.184 52.5356C242.073 53.8668 243.682 54.4436 244.115 53.1797C244.636 51.6585 245.031 50.0864 245.29 48.4791C246.131 43.2625 246.901 38.2222 247.577 33.4996C248.824 24.8306 252.235 18.0143 257.723 13.2446C262.551 9.04536 268.556 6.82813 275.084 6.82813C275.743 6.82813 276.413 6.85165 277.066 6.8987C284.812 7.44566 291.616 11.1685 296.216 17.3791C300.121 22.6558 302.029 29.3213 301.74 36.3005C301.701 37.2517 302.377 38.0945 303.316 38.2525C307.773 39.0027 312.173 40.5045 316.1 42.6508C324.416 47.1911 329.668 54.1075 330.891 62.1236C331.709 67.4697 331.274 72.3805 329.244 77.803C327.898 81.4024 325.175 84.59 322.422 87.4953C319.242 90.8443 315.112 93.1278 310.668 94.0764C310.002 94.2187 309.456 94.7012 309.236 95.3461C307.358 100.855 303.484 105.75 298.415 108.868C294.216 111.456 289.352 112.82 284.359 112.82C284.263 112.82 284.167 112.819 284.072 112.818C283.84 112.815 283.632 112.955 283.542 113.169C283.122 114.176 282.633 115.213 282.065 116.255C277.401 124.818 269.509 129.734 260.41 129.734C259.381 129.734 258.34 129.67 257.311 129.54C250.8 128.723 245.084 125.335 241.226 119.989C240.771 119.358 239.914 119.15 239.237 119.535C235.731 121.53 232.552 123.034 229.604 124.112C223.929 126.188 218.171 127.241 212.496 127.241C206.103 127.241 200.016 125.829 194.899 123.165C187.136 119.125 181.496 112.691 178.591 104.563C178.215 103.509 177.236 102.826 176.118 102.816C175.699 102.812 175.217 102.797 174.674 102.763C172.703 102.639 170.851 103.779 170.397 105.7C170.244 106.345 170.098 106.977 169.963 107.574C169.151 111.179 167.875 115.89 165.216 120.383C160.47 128.417 152.719 133.022 143.956 133.022C142.921 133.022 141.862 132.952 140.821 132.822C138.004 132.469 135.335 131.634 132.9 130.366C132.058 129.927 131.066 129.852 130.178 130.19C125.937 131.803 121.372 132.646 116.779 132.646C112.062 132.646 107.427 131.799 103.017 130.117C97.6847 128.084 92.9242 124.556 89.3782 120.045C88.9929 119.555 88.2979 119.425 87.7703 119.757C74.8111 127.907 61.0601 132.028 46.7036 132.034C39.9752 132.034 29.9535 130.899 20.3965 125.465C9.87514 119.483 1.85878 110.203 0.229953 98.0874Z" fill="url(#paint0_linear_1519_6177)"/>
<path fill-rule="evenodd" clip-rule="evenodd" d="M163.17 66.7939C167.446 63.3181 173.198 61.2832 179.232 62.4418L179.22 62.4477C188.489 64.2297 191.112 71.2284 190.283 75.7864C189.412 80.5796 183.496 88.1664 169.987 83.8848C163.864 81.9441 158.912 85.2728 156.542 90.6306C155.766 92.395 153.831 100.323 153.066 103.699C151.878 108.962 149.632 116.12 143.333 115.332C139.492 114.85 135.94 110.803 138.222 99.2349C140.563 87.3607 146.15 58.2602 150.196 30.1067C151.578 20.5085 156.336 17.2974 161.659 17.6738C168.216 18.1325 171.763 24.843 169.922 32.8533C166.723 46.7918 163.353 60.1893 161.865 65.9588C161.671 66.7175 162.559 67.2938 163.17 66.7939ZM111.162 75.7511C119.102 80.4267 127.477 86.5667 130.717 91.6187L130.706 91.6011C135.716 99.4114 133.705 108.933 126.148 112.826C120.872 115.55 114.75 115.573 109.604 113.615C104.458 111.656 99.5703 105.734 101.599 100.105C102.999 96.2296 105.881 94.7652 108.286 94.2418C109.88 93.8947 110.451 91.9128 109.316 90.7424C107.722 89.0957 105.493 87.0607 102.699 85.1611C102.176 84.8082 101.476 84.8847 101.047 85.3493C97.806 88.8839 94.2008 92.4597 90.2015 96.0473C71.7226 112.632 55.608 114.373 47.0273 114.373C35.6588 114.379 21.2262 109.721 17.7563 94.2182C16.88 90.2895 17.5152 83.5967 23.1612 83.1674C23.6258 83.1321 24.0786 83.1027 24.5256 83.1321C24.3962 82.7204 24.2962 82.291 24.2433 81.8499C23.7493 77.8507 26.5958 74.2161 30.5951 73.7221C32.8535 73.4456 34.9942 74.2337 36.5234 75.6923C37.3703 73.0751 39.1581 70.7638 42.5693 70.6932C47.5656 70.595 49.3827 74.395 51.2603 78.3216C53.0913 82.1509 54.9799 86.1005 59.9307 86.6726C72.8871 88.1664 92.9422 77.7272 103.087 55.0844C103.711 53.6964 102.564 52.1614 101.064 52.3967C95.5593 53.2612 84.1615 54.3198 72.5872 51.0087C65.6532 49.0267 60.8423 44.6275 61.1717 38.7463C61.454 33.6649 67.2529 28.5012 75.4749 30.3479C76.1928 30.5083 77.0228 30.7228 77.9728 30.9683L77.9731 30.9684L77.9736 30.9686C81.2726 31.8212 86.0189 33.0479 92.5481 33.6825C98.0733 34.2217 102.71 34.129 107.395 34.0353H107.396C108.69 34.0094 109.988 33.9834 111.309 33.9707C116.714 33.9178 119.749 35.3528 122.19 38.4228C124.819 41.7222 125.089 45.6038 122.284 52.7495C119.825 59.0072 115.779 66.8116 110.768 73.9338C110.345 74.5396 110.521 75.3747 111.162 75.7511ZM269.65 98.8762C270.856 94.0418 275.179 92.201 279.49 94.0124C283.53 95.7121 286.888 95.4415 289.5 93.8359C291.752 92.448 292.84 90.2778 293.111 88.7075C293.446 86.7608 292.905 84.6141 291.623 82.8204C290.088 80.6737 287.147 79.1563 284.142 79.1622C280.625 79.1681 277.461 80.7619 274.908 82.5028C274.267 82.938 273.456 82.2675 273.761 81.5559C276.037 76.3274 279.402 74.2984 282.724 72.9928C285.383 71.9518 290.364 72.1341 293.74 73.8044C294.369 74.1161 294.793 74.7101 294.993 75.3806C295.446 76.8744 296.639 78.6211 299.21 78.8329C301.809 79.0505 303.597 77.4743 304.362 76.4568C305.785 77.2096 308.22 77.1744 309.955 75.3394C311.237 73.9867 311.49 71.8166 310.666 69.9933C311.525 69.7699 312.272 69.2935 312.836 68.6054C313.672 67.5879 314.007 66.2235 313.783 64.7649C312.983 59.5071 304.532 55.449 297.51 55.3314C291.052 55.2255 285.147 56.9193 280.225 60.2775C279.625 60.6833 278.843 60.154 279.019 59.4483C280.889 51.9556 282.566 44.9804 284.018 38.6522C284.971 34.5 284.365 30.5655 282.366 27.866C280.86 25.831 278.713 24.6666 276.161 24.4842C272.785 24.2431 266.898 25.4311 265.375 35.9997C264.64 41.0988 263.852 46.2331 263.04 51.2792C261.011 63.8827 253.865 75.11 243.255 82.2087C239.174 84.9376 235.116 87.3901 231.416 89.2133C224.33 92.7067 218.854 93.9653 216.39 92.6656C214.026 91.4188 214.302 89.7485 215.037 87.1431L215.125 86.8372C217.29 79.0799 219.166 72.5987 220.824 66.8763C222.142 62.336 223.383 58.0485 224.541 53.9023C225.676 49.8383 225.135 45.6744 223.059 42.4691C221.324 39.7931 218.654 38.064 215.537 37.5994C210.285 36.8172 204.069 39.4873 202.375 49.3443C200.034 62.9653 196.97 78.4506 194.888 88.3958C193.606 94.5123 195.059 103.193 203.375 107.522C206.039 108.91 209.297 109.604 212.832 109.604C216.343 109.604 220.13 108.915 223.883 107.545C232.587 104.363 245.026 94.971 255.859 86.0903C256.347 85.6904 257.065 86.1197 256.941 86.7373C256.563 88.6274 256.137 90.6529 255.745 92.5121L255.745 92.5167C255.375 94.2714 255.037 95.8778 254.8 97.0824C253.659 102.87 254.018 107.098 255.871 109.662C256.847 111.015 258.223 111.838 259.846 112.038C260.158 112.08 260.458 112.097 260.752 112.097C266.692 112.097 268.451 104.305 269.127 101.282C269.171 101.085 269.228 100.823 269.29 100.54L269.294 100.524C269.419 99.9472 269.564 99.2833 269.662 98.8879L269.65 98.8762ZM44.9329 82.1095C45.1317 83.8265 44.1944 85.3577 42.8392 85.5296C41.4841 85.7014 40.2243 84.4488 40.0254 82.7319C39.8265 81.0149 40.7639 79.4836 42.1191 79.3118C43.4742 79.1399 44.734 80.3925 44.9329 82.1095ZM34.1406 88.4098C35.3912 87.8372 35.8679 86.0886 35.2054 84.504C34.5428 82.9195 32.9919 82.0991 31.7413 82.6716C30.4907 83.2441 30.0139 84.9928 30.6765 86.5774C31.339 88.1619 32.8899 88.9823 34.1406 88.4098ZM28.7052 91.3321C29.7757 92.65 29.8002 94.4682 28.76 95.3932C27.7198 96.3182 26.0088 95.9997 24.9384 94.6818C23.868 93.3639 23.8435 91.5456 24.8837 90.6206C25.9239 89.6956 27.6348 90.0142 28.7052 91.3321ZM46.4315 92.0707C47.1287 93.3137 47.2177 94.9565 46.5155 96.5718C45.8084 98.1872 44.31 99.7861 42.5347 101.007C40.7594 102.228 38.8011 103.017 37.1791 103C35.5571 102.984 34.2664 102.174 33.5691 100.931C32.8719 99.6875 32.7829 98.0448 33.4851 96.4294C34.1873 94.8141 35.6906 93.2152 37.4659 91.9941C39.2412 90.773 41.1995 89.9845 42.8215 90.0009C44.4435 90.0173 45.7342 90.8277 46.4315 92.0707Z" fill="white"/>
<defs>
<linearGradient id="paint0_linear_1519_6177" x1="165.64" y1="0" x2="165.64" y2="133.022" gradientUnits="userSpaceOnUse">
<stop offset="0.154179" stop-color="#8CA4FD"/>
<stop offset="0.851637" stop-color="#9D98E5"/>
</linearGradient>
</defs>
</svg>
