<svg width="17" height="15" viewBox="0 0 17 15" fill="none" xmlns="http://www.w3.org/2000/svg">
<path d="M2.93945 14.4058C2.22005 14.4058 1.66781 14.2132 1.28271 13.8281C0.901855 13.443 0.711426 12.8887 0.711426 12.165V2.67529C0.711426 1.95166 0.901855 1.3973 1.28271 1.01221C1.66781 0.627116 2.22005 0.43457 2.93945 0.43457H9.73779C10.4614 0.43457 11.0137 0.627116 11.3945 1.01221C11.7754 1.3973 11.9658 1.95166 11.9658 2.67529V5.39844H10.3281V2.85938C10.3281 2.60124 10.2646 2.40658 10.1377 2.27539C10.0107 2.13997 9.81185 2.07227 9.54102 2.07227H3.14258C2.87174 2.07227 2.67074 2.13997 2.53955 2.27539C2.4126 2.40658 2.34912 2.60124 2.34912 2.85938V11.981C2.34912 12.2391 2.4126 12.4338 2.53955 12.5649C2.67074 12.7004 2.87174 12.7681 3.14258 12.7681H9.54102C9.81185 12.7681 10.0107 12.7004 10.1377 12.5649C10.2646 12.4338 10.3281 12.2391 10.3281 11.981V9.46094H11.9658V12.165C11.9658 12.8887 11.7754 13.443 11.3945 13.8281C11.0137 14.2132 10.4614 14.4058 9.73779 14.4058H2.93945ZM7.35742 8.14697C7.16276 8.14697 6.99349 8.07715 6.84961 7.9375C6.70573 7.79362 6.63379 7.62012 6.63379 7.41699C6.63379 7.20964 6.70573 7.03613 6.84961 6.89648C6.99349 6.7526 7.16276 6.68066 7.35742 6.68066H13.5337L14.4668 6.74414L13.978 6.41406L13.1655 5.646C13.0216 5.51481 12.9497 5.354 12.9497 5.16357C12.9497 4.9943 13.0068 4.84619 13.1211 4.71924C13.2354 4.59229 13.3835 4.52881 13.5654 4.52881C13.7305 4.52881 13.8786 4.5944 14.0098 4.72559L16.0347 6.83301C16.1278 6.93034 16.1934 7.02767 16.2314 7.125C16.2695 7.22233 16.2886 7.31966 16.2886 7.41699C16.2886 7.51432 16.2695 7.61165 16.2314 7.70898C16.1934 7.80208 16.1278 7.8973 16.0347 7.99463L14.0098 10.1021C13.8786 10.2332 13.7305 10.2988 13.5654 10.2988C13.3835 10.2988 13.2354 10.2354 13.1211 10.1084C13.0068 9.97721 12.9497 9.82699 12.9497 9.65771C12.9497 9.47152 13.0216 9.31283 13.1655 9.18164L13.978 8.41992L14.4668 8.0835L13.5337 8.14697H7.35742Z" fill="#D168A8"/>
</svg>
