<svg width="46" height="59" viewBox="0 0 46 59" fill="none" xmlns="http://www.w3.org/2000/svg">
<rect x="1" y="14" width="44" height="44" fill="url(#paint0_linear_1671_6183)" stroke="#2CA6A9" stroke-width="2"/>
<rect x="6.5" y="19.5" width="33" height="33" fill="url(#paint1_linear_1671_6183)" stroke="white"/>
<circle cx="13" cy="10" r="1" fill="#5CA3E6"/>
<circle cx="1" cy="1" r="1" transform="matrix(1 0 0 -1 28 7)" fill="#5CA3E6"/>
<circle cx="15" cy="8" r="1" fill="#5CA3E6"/>
<circle cx="1" cy="1" r="1" transform="matrix(1 0 0 -1 30 9)" fill="#5CA3E6"/>
<circle cx="17" cy="6" r="1" fill="#5CA3E6"/>
<circle cx="17" cy="6" r="1" fill="#5CA3E6"/>
<circle cx="1" cy="1" r="1" transform="matrix(1 0 0 -1 32 11)" fill="#5CA3E6"/>
<path d="M23.0019 7.4272C22.9379 7.4272 22.861 7.40413 22.7713 7.358C22.6816 7.31187 22.5931 7.25933 22.506 7.20038C21.8012 6.73907 21.1848 6.2534 20.6569 5.74339C20.1315 5.23082 19.724 4.70415 19.4344 4.16338C19.1448 3.62005 19 3.07416 19 2.52571C19 2.1464 19.0602 1.80298 19.1807 1.49543C19.3037 1.18533 19.4716 0.918789 19.6843 0.695819C19.897 0.472849 20.1418 0.301137 20.4185 0.180682C20.6979 0.0602274 20.9952 0 21.3104 0C21.7025 0 22.0396 0.0986705 22.3215 0.296011C22.606 0.49079 22.8328 0.744514 23.0019 1.05718C23.1711 0.744514 23.3966 0.49079 23.6785 0.296011C23.963 0.0986705 24.3013 0 24.6934 0C25.0061 0 25.3021 0.0602274 25.5815 0.180682C25.8608 0.301137 26.1056 0.472849 26.3157 0.695819C26.5284 0.918789 26.695 1.18533 26.8155 1.49543C26.9385 1.80298 27 2.1464 27 2.52571C27 3.07416 26.8552 3.62005 26.5656 4.16338C26.276 4.70415 25.8685 5.23082 25.3431 5.74339C24.8177 6.2534 24.2026 6.73907 23.4978 7.20038C23.4107 7.25933 23.3223 7.31187 23.2326 7.358C23.1429 7.40413 23.066 7.4272 23.0019 7.4272Z" fill="#605DBF"/>
<defs>
<linearGradient id="paint0_linear_1671_6183" x1="23" y1="15" x2="23" y2="57" gradientUnits="userSpaceOnUse">
<stop stop-color="#55C4C4"/>
<stop offset="0.989583" stop-color="white"/>
</linearGradient>
<linearGradient id="paint1_linear_1671_6183" x1="23" y1="20" x2="23" y2="52" gradientUnits="userSpaceOnUse">
<stop stop-color="#D6EAEA"/>
<stop offset="1" stop-color="#B0EAEA"/>
</linearGradient>
</defs>
</svg>
