<svg width="174" height="49" viewBox="0 0 174 49" fill="none" xmlns="http://www.w3.org/2000/svg">
<path fill-rule="evenodd" clip-rule="evenodd" d="M24.4713 3C12.0607 3 2 13.2975 2 26C2 38.7025 12.0607 49 24.4713 49C29.1847 49 33.5593 47.5146 37.1724 44.9763C40.7856 47.5146 45.1601 49 49.8736 49C54.3766 49 58.5702 47.6443 62.0862 45.31C65.6022 47.6443 69.7958 49 74.2989 49C79.0123 49 83.3869 47.5146 87 44.9763C90.6131 47.5146 94.9877 49 99.7011 49C104.629 49 109.187 47.3764 112.891 44.6233C116.595 47.3764 121.152 49 126.08 49C130.377 49 134.391 47.7659 137.805 45.6253C141.218 47.7659 145.232 49 149.529 49C161.939 49 172 38.7025 172 26C172 13.2975 161.939 3 149.529 3C145.232 3 141.218 4.23405 137.805 6.37474C134.391 4.23405 130.377 3 126.08 3C121.152 3 116.595 4.62363 112.891 7.37675C109.187 4.62363 104.629 3 99.7011 3C94.9877 3 90.6131 4.48536 87 7.0237C83.3869 4.48536 79.0123 3 74.2989 3C69.7958 3 65.6022 4.35568 62.0862 6.69002C58.5702 4.35568 54.3766 3 49.8736 3C45.1601 3 40.7856 4.48536 37.1724 7.0237C33.5593 4.48536 29.1847 3 24.4713 3Z" fill="#2FA1A8"/>
<path fill-rule="evenodd" clip-rule="evenodd" d="M23 0C10.2975 0 0 10.2975 0 23C0 35.7025 10.2975 46 23 46C27.8244 46 32.3018 44.5146 36 41.9763C39.6982 44.5146 44.1756 46 49 46C53.609 46 57.9013 44.6443 61.5 42.31C65.0987 44.6443 69.391 46 74 46C78.8244 46 83.3018 44.5146 87 41.9763C90.6982 44.5146 95.1756 46 100 46C105.044 46 109.709 44.3764 113.5 41.6233C117.291 44.3764 121.956 46 127 46C131.397 46 135.507 44.7659 139 42.6253C142.493 44.7659 146.603 46 151 46C163.703 46 174 35.7025 174 23C174 10.2975 163.703 0 151 0C146.603 0 142.493 1.23405 139 3.37474C135.507 1.23405 131.397 0 127 0C121.956 0 117.291 1.62363 113.5 4.37675C109.709 1.62363 105.044 0 100 0C95.1756 0 90.6982 1.48536 87 4.0237C83.3018 1.48536 78.8244 0 74 0C69.391 0 65.0987 1.35568 61.5 3.69002C57.9013 1.35568 53.609 0 49 0C44.1756 0 39.6982 1.48536 36 4.0237C32.3018 1.48536 27.8244 0 23 0Z" fill="white"/>
<path fill-rule="evenodd" clip-rule="evenodd" d="M36 39.5505L37.1318 40.3274C40.5075 42.6443 44.5924 44 49 44C53.2111 44 57.1272 42.7626 60.4116 40.6321L61.5 39.9261L62.5884 40.6321C65.8728 42.7626 69.7888 44 74 44C78.4076 44 82.4925 42.6443 85.8682 40.3274L87 39.5505L88.1318 40.3274C91.5075 42.6443 95.5924 44 100 44C104.608 44 108.864 42.5183 112.325 40.0049L113.5 39.1516L114.675 40.0049C118.136 42.5183 122.392 44 127 44C131.018 44 134.767 42.8734 137.955 40.92L139 40.2796L140.045 40.92C143.233 42.8734 146.982 44 151 44C162.598 44 172 34.598 172 23C172 11.402 162.598 2 151 2C146.982 2 143.233 3.12656 140.045 5.08004L139 5.72035L137.955 5.08004C134.767 3.12656 131.018 2 127 2C122.392 2 118.136 3.4817 114.675 5.99508L113.5 6.84843L112.325 5.99508C108.864 3.4817 104.608 2 100 2C95.5924 2 91.5075 3.35566 88.1318 5.67265L87 6.4495L85.8682 5.67265C82.4925 3.35566 78.4076 2 74 2C69.7888 2 65.8728 3.23744 62.5884 5.36793L61.5 6.07394L60.4116 5.36793C57.1272 3.23744 53.2111 2 49 2C44.5924 2 40.5075 3.35566 37.1318 5.67265L36 6.4495L34.8682 5.67265C31.4925 3.35566 27.4076 2 23 2C11.402 2 2 11.402 2 23C2 34.598 11.402 44 23 44C27.4076 44 31.4925 42.6443 34.8682 40.3274L36 39.5505ZM36 4.0237C39.6982 1.48536 44.1756 0 49 0C53.609 0 57.9013 1.35568 61.5 3.69002C65.0987 1.35568 69.391 0 74 0C78.8244 0 83.3018 1.48536 87 4.0237C90.6982 1.48536 95.1756 0 100 0C105.044 0 109.709 1.62363 113.5 4.37675C117.291 1.62363 121.956 0 127 0C131.397 0 135.507 1.23405 139 3.37474C142.493 1.23405 146.603 0 151 0C163.703 0 174 10.2975 174 23C174 35.7025 163.703 46 151 46C146.603 46 142.493 44.7659 139 42.6253C135.507 44.7659 131.397 46 127 46C121.956 46 117.291 44.3764 113.5 41.6233C109.709 44.3764 105.044 46 100 46C95.1756 46 90.6982 44.5146 87 41.9763C83.3018 44.5146 78.8244 46 74 46C69.391 46 65.0987 44.6443 61.5 42.31C57.9013 44.6443 53.609 46 49 46C44.1756 46 39.6982 44.5146 36 41.9763C32.3018 44.5146 27.8244 46 23 46C10.2975 46 0 35.7025 0 23C0 10.2975 10.2975 0 23 0C27.8244 0 32.3018 1.48536 36 4.0237Z" fill="#2FA1A8"/>
<path fill-rule="evenodd" clip-rule="evenodd" d="M23 4C12.5066 4 4 12.5066 4 23C4 33.4934 12.5066 42 23 42C28.0289 42 32.6014 40.0463 36 36.8565C39.3986 40.0463 43.9711 42 49 42C53.7862 42 58.1591 40.2303 61.5 37.3094C64.8409 40.2303 69.2138 42 74 42C79.0288 42 83.6014 40.0463 87 36.8565C90.3986 40.0463 94.9712 42 100 42C105.28 42 110.057 39.8464 113.5 36.3697C116.943 39.8464 121.72 42 127 42C131.551 42 135.728 40.3999 139 37.7317C142.272 40.3999 146.449 42 151 42C161.493 42 170 33.4934 170 23C170 12.5066 161.493 4 151 4C146.449 4 142.272 5.60006 139 8.26832C135.728 5.60006 131.551 4 127 4C121.72 4 116.943 6.15359 113.5 9.63026C110.057 6.15359 105.28 4 100 4C94.9712 4 90.3986 5.95371 87 9.14351C83.6014 5.95371 79.0288 4 74 4C69.2138 4 64.8409 5.76975 61.5 8.69056C58.1591 5.76975 53.7862 4 49 4C43.9711 4 39.3986 5.95371 36 9.14351C32.6014 5.95371 28.0289 4 23 4Z" fill="url(#paint0_linear_1458_6626)"/>
<path d="M59.7639 25.2659H48.6039C48.4419 25.2659 48.3699 25.1759 48.3699 25.0319V23.4659C48.3699 23.3219 48.4419 23.2499 48.6039 23.2499H50.3859V18.9839H48.6939C48.5139 18.9839 48.4419 18.9119 48.4419 18.7679V17.2019C48.4419 17.0579 48.5139 16.9679 48.6939 16.9679H59.6739C59.8539 16.9679 59.9259 17.0579 59.9259 17.2019V18.7679C59.9259 18.9119 59.8539 18.9839 59.6739 18.9839H57.9639V23.2499H59.7639C59.9439 23.2499 60.0159 23.3219 60.0159 23.4659V25.0319C60.0159 25.1759 59.9439 25.2659 59.7639 25.2659ZM55.7139 18.9839H52.6539V23.2499H55.7139V18.9839ZM46.8039 27.9659H61.5639C61.7259 27.9659 61.7979 28.0559 61.7979 28.1999V29.7839C61.7979 29.9099 61.7259 29.9999 61.5639 29.9999H46.8039C46.6599 29.9999 46.5879 29.9099 46.5879 29.7839V28.1999C46.5879 28.0559 46.6599 27.9659 46.8039 27.9659Z" fill="white"/>
<path d="M71.0465 27.9659H77.2745C77.4365 27.9659 77.5085 28.0559 77.5085 28.1999V29.7839C77.5085 29.9099 77.4365 29.9999 77.2745 29.9999H62.5145C62.3705 29.9999 62.2985 29.9099 62.2985 29.7839V28.1999C62.2985 28.0559 62.3705 27.9659 62.5145 27.9659H68.7605V25.6439H64.7645C64.6025 25.6439 64.5485 25.5539 64.5485 25.4279V20.5679C64.5485 20.4239 64.6025 20.3159 64.7645 20.3159H72.9545V18.8579H64.7285C64.5845 18.8579 64.5125 18.7679 64.5125 18.6059V17.1299C64.5125 16.9859 64.5845 16.8959 64.7285 16.8959H75.0245C75.1865 16.8959 75.2585 16.9859 75.2585 17.1299V21.9539C75.2585 22.0799 75.1685 22.1879 75.0065 22.1879H66.8345V23.7359H75.3845C75.5465 23.7359 75.6365 23.8079 75.6365 23.9699V25.4279C75.6365 25.5539 75.5465 25.6439 75.3845 25.6439H71.0465V27.9659Z" fill="white"/>
<path d="M91.5811 23.5379H89.7631C89.6011 23.5379 89.5291 23.4479 89.5291 23.3039V15.9239C89.5291 15.7799 89.6011 15.6899 89.7631 15.6899H91.5811C91.7611 15.6899 91.8331 15.7799 91.8331 15.9239V23.3039C91.8331 23.4479 91.7611 23.5379 91.5811 23.5379ZM88.1431 21.2879L88.3591 22.6559C88.3771 22.7459 88.3231 22.8359 88.1971 22.8719C86.4691 23.2679 83.3551 23.4479 81.2851 23.4479H78.3151C78.1531 23.4479 78.0991 23.3579 78.0991 23.2319V21.7199C78.0991 21.5759 78.1531 21.5759 78.3151 21.5759H79.9531V18.3899H78.6751C78.5131 18.3899 78.4411 18.2999 78.4411 18.1559V16.7519C78.4411 16.6079 78.5131 16.5179 78.6751 16.5179H87.4231C87.6031 16.5179 87.6571 16.6079 87.6571 16.7519V18.1559C87.6571 18.2999 87.6031 18.3899 87.4231 18.3899H86.2711V21.3239C86.8471 21.2519 87.3871 21.1799 87.8731 21.0899C88.0351 21.0539 88.1071 21.1079 88.1431 21.2879ZM84.0571 21.4859V18.3899H82.1671V21.5579C82.7971 21.5399 83.4271 21.5219 84.0571 21.4859ZM83.7331 29.7299H92.0131C92.1751 29.7299 92.2651 29.8019 92.2651 29.9639V31.3499C92.2651 31.4939 92.1751 31.5659 92.0131 31.5659H81.6631C81.5191 31.5659 81.4471 31.4939 81.4471 31.3499V27.2639C81.4471 27.1379 81.5191 27.0299 81.6631 27.0299H89.5471V26.1479H81.6271C81.4831 26.1479 81.4111 26.0579 81.4111 25.8959V24.5639C81.4111 24.4199 81.4831 24.3299 81.6271 24.3299H91.5991C91.7611 24.3299 91.8331 24.4199 91.8331 24.5639V28.5959C91.8331 28.7399 91.7431 28.8299 91.5811 28.8299H83.7331V29.7299Z" fill="white"/>
<path d="M109.015 19.9019H106.261C106.099 19.9019 106.027 19.8299 106.027 19.6679V18.1739C106.027 18.0299 106.099 17.9399 106.261 17.9399H109.015V15.9239C109.015 15.7799 109.087 15.6899 109.249 15.6899H111.067C111.247 15.6899 111.319 15.7799 111.319 15.9239V23.2499C111.319 23.3759 111.247 23.4659 111.067 23.4659H109.249C109.087 23.4659 109.015 23.3759 109.015 23.2499V19.9019ZM102.643 20.6759C101.887 21.8639 100.627 22.9799 99.1688 23.7539C99.0248 23.8259 98.8808 23.8439 98.7908 23.7359L97.8368 22.3499C97.7468 22.2239 97.7108 22.0439 97.8548 21.9899C99.8168 20.9279 101.509 19.1999 101.509 17.6879V16.4819C101.509 16.3559 101.563 16.2659 101.725 16.2659H103.561C103.705 16.2659 103.777 16.3559 103.777 16.4819V17.6879C103.777 19.1819 105.091 20.6759 107.161 21.7199C107.305 21.7919 107.269 21.9359 107.179 22.0619L106.279 23.4299C106.207 23.5559 106.045 23.5379 105.901 23.4659C104.479 22.7459 103.381 21.7739 102.643 20.6759ZM103.201 29.7299H111.427C111.571 29.7299 111.661 29.8019 111.661 29.9639V31.3499C111.661 31.4939 111.571 31.5659 111.427 31.5659H101.149C101.005 31.5659 100.933 31.4939 100.933 31.3499V27.2279C100.933 27.1019 101.005 26.9939 101.149 26.9939H109.051V26.0759H101.113C100.969 26.0759 100.897 25.9859 100.897 25.8419V24.4919C100.897 24.3479 100.969 24.2579 101.113 24.2579H111.085C111.247 24.2579 111.319 24.3479 111.319 24.4919V28.5419C111.319 28.6859 111.229 28.7939 111.067 28.7939H103.201V29.7299Z" fill="white"/>
<path d="M122.061 19.2899H124.725V15.9239C124.725 15.7799 124.797 15.6899 124.959 15.6899H126.777C126.957 15.6899 127.029 15.7799 127.029 15.9239V24.4559C127.029 24.5999 126.957 24.6719 126.777 24.6719H124.959C124.797 24.6719 124.725 24.5999 124.725 24.4559V21.2159H122.061C121.899 21.2159 121.827 21.1439 121.827 20.9819V19.5239C121.827 19.3799 121.899 19.2899 122.061 19.2899ZM118.353 22.0439C117.507 23.1059 116.229 24.0239 114.717 24.7079C114.591 24.7799 114.411 24.7439 114.339 24.6359L113.547 23.2859C113.457 23.1419 113.457 22.9799 113.601 22.9079C115.707 21.9359 117.201 20.8019 117.201 19.2899V18.5519H114.249C114.087 18.5519 114.015 18.4799 114.015 18.3359V16.8239C114.015 16.6979 114.087 16.6079 114.249 16.6079H122.349C122.511 16.6079 122.583 16.6979 122.583 16.8239V18.3359C122.583 18.4799 122.511 18.5519 122.349 18.5519H119.487V19.2899C119.487 20.7119 120.693 21.5939 122.835 22.5299C122.979 22.5839 122.979 22.7459 122.907 22.8719L122.187 24.2579C122.115 24.3839 121.953 24.3659 121.809 24.3119C120.513 23.8079 119.235 23.0159 118.353 22.0439ZM121.683 25.1039C125.463 25.1039 127.191 26.4539 127.191 28.3979C127.191 30.3239 125.463 31.6919 121.683 31.6919C117.903 31.6919 116.175 30.3239 116.175 28.3979C116.175 26.4539 117.903 25.1039 121.683 25.1039ZM121.683 29.7659C123.933 29.7659 124.923 29.2079 124.923 28.3979C124.923 27.5879 123.933 27.0479 121.683 27.0479C119.433 27.0479 118.461 27.5879 118.461 28.3979C118.461 29.2079 119.433 29.7659 121.683 29.7659Z" fill="white"/>
<path fill-rule="evenodd" clip-rule="evenodd" d="M59.7639 25.2659C59.9439 25.2659 60.0159 25.1759 60.0159 25.0319V23.4659C60.0159 23.3219 59.9439 23.2499 59.7639 23.2499H57.9639V18.9839H59.6739C59.8539 18.9839 59.9259 18.9119 59.9259 18.7679V17.2019C59.9259 17.0579 59.8539 16.9679 59.6739 16.9679H48.6939C48.5139 16.9679 48.4419 17.0579 48.4419 17.2019V18.7679C48.4419 18.9119 48.5139 18.9839 48.6939 18.9839H50.3859V23.2499H48.6039C48.4419 23.2499 48.3699 23.3219 48.3699 23.4659V25.0319C48.3699 25.1759 48.4419 25.2659 48.6039 25.2659H59.7639ZM55.7139 23.2499V18.9839H52.6539V23.2499H55.7139ZM46.8039 27.9659C46.6599 27.9659 46.5879 28.0559 46.5879 28.1999V29.7839C46.5879 29.9099 46.6599 29.9999 46.8039 29.9999H61.5639C61.7259 29.9999 61.7979 29.9099 61.7979 29.7839V28.1999C61.7979 28.0559 61.7259 27.9659 61.5639 27.9659H46.8039ZM62.5145 27.9659C62.3705 27.9659 62.2985 28.0559 62.2985 28.1999V29.7839C62.2985 29.9099 62.3705 29.9999 62.5145 29.9999H77.2745C77.4365 29.9999 77.5085 29.9099 77.5085 29.7839V28.1999C77.5085 28.0904 77.4669 28.0122 77.3757 27.981C77.347 27.9711 77.3133 27.9659 77.2745 27.9659H71.0465V25.6439H75.3845C75.5465 25.6439 75.6365 25.5539 75.6365 25.4279V23.9699C75.6365 23.8079 75.5465 23.7359 75.3845 23.7359H66.8345V22.1879H75.0065C75.0406 22.1879 75.0716 22.1831 75.0991 22.1744C75.2024 22.1416 75.2585 22.0534 75.2585 21.9539V17.1299C75.2585 16.9859 75.1865 16.8959 75.0245 16.8959H64.7285C64.5845 16.8959 64.5125 16.9859 64.5125 17.1299V18.6059C64.5125 18.7679 64.5845 18.8579 64.7285 18.8579H72.9545V20.3159H64.7645C64.7519 20.3159 64.7399 20.3166 64.7285 20.3179C64.5944 20.333 64.5485 20.4352 64.5485 20.5679V25.4279C64.5485 25.5539 64.6025 25.6439 64.7645 25.6439H68.7605V27.9659H62.5145ZM62.1888 15.1287C62.2313 15.074 62.2764 15.0197 62.3243 14.9658C63.0545 14.1444 64.0075 13.8959 64.7285 13.8959H75.0245C75.4443 13.8959 76.0117 13.9792 76.5722 14.278C77.2909 13.6664 78.1147 13.5179 78.6751 13.5179H87.4231C87.4712 13.5179 87.5233 13.519 87.5788 13.5217C88.316 12.8499 89.1814 12.6899 89.7631 12.6899H91.5811C92.1336 12.6899 93.0944 12.8301 93.896 13.6316C94.6975 14.4332 94.8331 15.3895 94.8331 15.9239V21.4455C94.8967 21.1574 95.0072 20.8474 95.1893 20.5362C95.5151 19.9794 95.9795 19.5751 96.4852 19.3197C97.1853 18.9326 97.784 18.456 98.1728 18.0175C98.3912 17.7712 98.478 17.6146 98.5088 17.5513V16.4819C98.5088 16.0604 98.5894 15.1546 99.3066 14.3418C100.088 13.4563 101.095 13.2659 101.725 13.2659H103.561C104.278 13.2659 105.191 13.509 105.907 14.2706C106.038 14.4096 106.151 14.5535 106.247 14.6995C106.38 14.3662 106.583 14.0187 106.89 13.6931C107.661 12.8765 108.621 12.6899 109.249 12.6899H111.067C111.619 12.6899 112.58 12.8301 113.382 13.6316C113.406 13.6557 113.429 13.68 113.452 13.7043C113.742 13.6334 114.016 13.6079 114.249 13.6079H122.349C122.449 13.6079 122.556 13.6126 122.668 13.6234C123.427 12.8658 124.349 12.6899 124.959 12.6899H126.777C127.33 12.6899 128.291 12.8301 129.092 13.6316C129.894 14.4332 130.029 15.3895 130.029 15.9239V24.4559C130.029 24.8092 129.969 25.3799 129.666 25.9627C130.011 26.7068 130.191 27.5291 130.191 28.3979C130.191 30.4106 129.216 32.1705 127.48 33.2891C125.897 34.3086 123.866 34.6919 121.683 34.6919C119.501 34.6919 117.47 34.3086 115.887 33.2891C115.378 32.9611 114.934 32.578 114.562 32.1495C114.425 32.6943 114.133 33.2727 113.591 33.7542C112.826 34.4337 111.96 34.5659 111.427 34.5659H101.149C100.614 34.5659 99.6626 34.4303 98.8655 33.6333C98.0685 32.8362 97.9328 31.8844 97.9328 31.3499V27.2279C97.9328 27.0529 97.9472 26.8617 97.982 26.6614C97.4433 26.4915 96.9142 26.1702 96.4862 25.6565L96.3979 25.5505L95.3729 24.0614C95.1734 23.7752 94.9476 23.3572 94.8331 22.8319V23.3039C94.8331 23.4763 94.819 23.6926 94.773 23.9334C94.8187 24.1726 94.8331 24.3888 94.8331 24.5639V28.327C95.1751 28.9203 95.2651 29.5299 95.2651 29.9639V31.3499C95.2651 32.0766 95.0102 33.0674 94.1323 33.8067C93.3446 34.47 92.4786 34.5659 92.0131 34.5659H81.6631C81.1287 34.5659 80.1769 34.4303 79.3798 33.6333C79.0709 33.3244 78.8614 32.9922 78.7206 32.6702C78.1991 32.924 77.6776 32.9999 77.2745 32.9999H62.5145C62.3643 32.9999 62.2055 32.9893 62.0416 32.9654C61.8707 32.99 61.7095 32.9999 61.5639 32.9999H46.8039C46.0869 32.9999 45.174 32.7568 44.4573 31.9953C43.7694 31.2644 43.5879 30.401 43.5879 29.7839V28.1999C43.5879 27.6667 43.7201 26.8003 44.3997 26.0359C44.6994 25.6986 45.0368 25.4579 45.3802 25.2914C45.3728 25.1977 45.3699 25.1107 45.3699 25.0319V23.4659C45.3699 22.9305 45.5078 21.9309 46.37 21.1193C46.3834 21.1068 46.3967 21.0944 46.4101 21.0822C45.5732 20.2759 45.4419 19.287 45.4419 18.7679V17.2019C45.4419 16.6675 45.5775 15.7112 46.3791 14.9096C47.1806 14.1081 48.1415 13.9679 48.6939 13.9679H59.6739C60.2263 13.9679 61.1872 14.1081 61.9887 14.9096C62.0606 14.9815 62.1272 15.0547 62.1888 15.1287ZM92.0131 31.5659C92.1751 31.5659 92.2651 31.4939 92.2651 31.3499V29.9639C92.2651 29.8019 92.1751 29.7299 92.0131 29.7299H83.7331V28.8299H91.5811C91.7431 28.8299 91.8331 28.7399 91.8331 28.5959V24.5639C91.8331 24.4199 91.7611 24.3299 91.5991 24.3299H81.6271C81.4831 24.3299 81.4111 24.4199 81.4111 24.5639V25.8959C81.4111 26.0579 81.4831 26.1479 81.6271 26.1479H89.5471V27.0299H81.6631C81.6506 27.0299 81.6386 27.0308 81.6271 27.0323C81.5071 27.0489 81.4471 27.1489 81.4471 27.2639V31.3499C81.4471 31.4939 81.5191 31.5659 81.6631 31.5659H92.0131ZM89.5291 23.3039C89.5291 23.345 89.535 23.3817 89.5471 23.4132C89.5776 23.492 89.6474 23.5379 89.7631 23.5379H91.5811C91.5873 23.5379 91.5933 23.5378 91.5991 23.5376C91.766 23.5318 91.8331 23.443 91.8331 23.3039V15.9239C91.8331 15.7799 91.7611 15.6899 91.5811 15.6899H89.7631C89.6011 15.6899 89.5291 15.7799 89.5291 15.9239V23.3039ZM88.3591 22.6559L88.1431 21.2879C88.1071 21.1079 88.0351 21.0539 87.8731 21.0899C87.8463 21.0949 87.8193 21.0998 87.7921 21.1047C87.7606 21.1103 87.7289 21.1159 87.697 21.1214C87.6073 21.1369 87.516 21.1518 87.4231 21.1663C87.3037 21.185 87.1816 21.203 87.0571 21.2206C86.8855 21.2448 86.7093 21.2682 86.5291 21.2913C86.444 21.3022 86.358 21.3131 86.2711 21.3239V18.3899H87.4231C87.6031 18.3899 87.6571 18.2999 87.6571 18.1559V16.7519C87.6571 16.6079 87.6031 16.5179 87.4231 16.5179H78.6751C78.5131 16.5179 78.4411 16.6079 78.4411 16.7519V18.1559C78.4411 18.2999 78.5131 18.3899 78.6751 18.3899H79.9531V21.5759H78.3151C78.2946 21.5759 78.2757 21.5759 78.2585 21.5762C78.1403 21.5783 78.0991 21.5942 78.0991 21.7199V23.2319C78.0991 23.3579 78.1531 23.4479 78.3151 23.4479H81.2851C81.3963 23.4479 81.5104 23.4474 81.6271 23.4464C81.8185 23.4447 82.017 23.4416 82.2208 23.437C82.4152 23.4327 82.6146 23.427 82.8174 23.4201C82.8625 23.4185 82.9077 23.4169 82.9531 23.4152C83.0584 23.4113 83.1644 23.4071 83.2711 23.4025C83.5652 23.3898 83.8642 23.3744 84.164 23.3563C84.7576 23.3204 85.3544 23.2736 85.9224 23.2156C86.1186 23.1955 86.3115 23.1741 86.4996 23.1514C86.509 23.1502 86.5183 23.1491 86.5277 23.1479C86.5282 23.1479 86.5287 23.1478 86.5291 23.1478C86.71 23.1257 86.8864 23.1023 87.0571 23.0776C87.4772 23.017 87.8631 22.9485 88.1971 22.8719C88.1991 22.8714 88.201 22.8708 88.2028 22.8703C88.2253 22.8634 88.2454 22.8549 88.2631 22.8449C88.3416 22.8005 88.3736 22.7282 88.3591 22.6559ZM84.0571 18.3899H82.1671V21.5579C82.4291 21.5505 82.6912 21.543 82.9531 21.5342C83.0591 21.5306 83.1651 21.5269 83.2711 21.5228C83.5331 21.5128 83.7951 21.5009 84.0571 21.4859V18.3899ZM97.8368 22.3499L98.7908 23.7359C98.7976 23.744 98.8046 23.7514 98.8119 23.7581C98.9024 23.8409 99.0356 23.8206 99.1688 23.7539C99.6506 23.4982 100.111 23.2051 100.538 22.8844C100.587 22.8475 100.636 22.8103 100.684 22.7726C100.832 22.6581 100.975 22.5403 101.113 22.4196C101.474 22.1049 101.803 21.7709 102.092 21.4251C102.138 21.3697 102.184 21.314 102.228 21.2579C102.379 21.0667 102.518 20.8723 102.643 20.6759C102.776 20.8743 102.921 21.0685 103.078 21.2579C103.109 21.2955 103.14 21.3329 103.172 21.3701C103.333 21.5571 103.506 21.7391 103.689 21.9155C103.689 21.9154 103.689 21.9155 103.689 21.9155C103.719 21.9447 103.75 21.9739 103.781 22.0027C103.952 22.1621 104.133 22.3167 104.322 22.4657C104.478 22.588 104.64 22.7067 104.808 22.8214C104.935 22.9086 105.067 22.9935 105.201 23.0759C105.425 23.2129 105.658 23.3431 105.901 23.4659C105.942 23.4864 105.984 23.5025 106.026 23.5122C106.13 23.5365 106.227 23.5201 106.279 23.4299L107.179 22.0619C107.269 21.9359 107.305 21.7919 107.161 21.7199C107.06 21.6691 106.961 21.6171 106.864 21.5642C106.861 21.5625 106.857 21.5608 106.854 21.559C106.677 21.462 106.505 21.3615 106.34 21.2579C106.314 21.2412 106.287 21.2244 106.261 21.2076C106.177 21.1537 106.095 21.0991 106.015 21.0437C105.81 20.9023 105.617 20.756 105.437 20.6054C105.082 20.3076 104.776 19.9932 104.527 19.6679C104.483 19.6104 104.441 19.5525 104.401 19.4943C104.352 19.4235 104.305 19.3523 104.262 19.2807C104.061 18.9503 103.919 18.6114 103.842 18.2693C103.835 18.2375 103.829 18.2058 103.823 18.1739C103.792 18.0123 103.777 17.8501 103.777 17.6879V16.4819C103.777 16.3776 103.728 16.298 103.629 16.2737C103.608 16.2686 103.586 16.2659 103.561 16.2659H101.725C101.563 16.2659 101.509 16.3559 101.509 16.4819V17.6879C101.509 17.8771 101.482 18.0696 101.432 18.2638C101.348 18.5906 101.196 18.9222 100.991 19.2502C100.936 19.3379 100.877 19.4254 100.815 19.5125C100.475 19.9858 100.03 20.447 99.5183 20.8707C99.1109 21.2084 98.6617 21.5223 98.1916 21.7995C98.1763 21.8086 98.161 21.8176 98.1456 21.8265C98.0495 21.8826 97.9525 21.9371 97.8548 21.9899C97.7108 22.0439 97.7468 22.2239 97.8368 22.3499ZM106.261 17.9399C106.099 17.9399 106.027 18.0299 106.027 18.1739V19.6679C106.027 19.8299 106.099 19.9019 106.261 19.9019H109.015V23.2499C109.015 23.2568 109.015 23.2636 109.015 23.2703C109.018 23.3126 109.03 23.3502 109.051 23.3808C109.087 23.4337 109.152 23.4659 109.249 23.4659H111.067C111.073 23.4659 111.079 23.4658 111.085 23.4656C111.252 23.4598 111.319 23.3717 111.319 23.2499V15.9239C111.319 15.8262 111.286 15.7533 111.208 15.7166C111.171 15.6992 111.125 15.6899 111.067 15.6899H109.249C109.087 15.6899 109.015 15.7799 109.015 15.9239V17.9399H106.261ZM111.319 24.4919C111.319 24.3479 111.247 24.2579 111.085 24.2579H101.113C100.969 24.2579 100.897 24.3479 100.897 24.4919V25.8419C100.897 25.9859 100.969 26.0759 101.113 26.0759H109.051V26.9939H101.149C101.136 26.9939 101.124 26.9948 101.113 26.9963C100.993 27.0129 100.933 27.1129 100.933 27.2279V31.3499C100.933 31.4939 101.005 31.5659 101.149 31.5659H111.427C111.571 31.5659 111.661 31.4939 111.661 31.3499V29.9639C111.661 29.8019 111.571 29.7299 111.427 29.7299H103.201V28.7939H111.067C111.219 28.7939 111.307 28.699 111.318 28.5684C111.318 28.5676 111.318 28.5668 111.318 28.5659C111.319 28.5581 111.319 28.5501 111.319 28.5419V24.4919ZM114.339 24.6359C114.362 24.6704 114.396 24.6975 114.436 24.7161C114.45 24.7228 114.465 24.7285 114.481 24.7329C114.493 24.7364 114.505 24.7392 114.518 24.7412C114.585 24.752 114.657 24.7422 114.717 24.7079C115.319 24.436 115.883 24.1271 116.397 23.7869C116.443 23.7566 116.489 23.7261 116.534 23.6953C116.983 23.3882 117.392 23.0567 117.753 22.7049C117.786 22.6729 117.818 22.6408 117.85 22.6085C118.032 22.4254 118.2 22.2371 118.353 22.0439C118.461 22.1625 118.574 22.2783 118.693 22.3913C118.792 22.485 118.894 22.5768 118.999 22.6665C119.208 22.8452 119.431 23.0155 119.663 23.1767C119.79 23.265 119.92 23.3506 120.052 23.4332C120.116 23.4733 120.181 23.5128 120.246 23.5515C120.556 23.7357 120.878 23.9041 121.205 24.0549C121.281 24.0901 121.357 24.1243 121.434 24.1576C121.517 24.1936 121.6 24.2284 121.683 24.262C121.697 24.2677 121.711 24.2733 121.725 24.2789C121.753 24.29 121.781 24.301 121.809 24.3119C121.887 24.3409 121.969 24.3594 122.04 24.3511C122.101 24.3439 122.154 24.3165 122.187 24.2579L122.907 22.8719C122.979 22.7459 122.979 22.5839 122.835 22.5299C122.739 22.4878 122.644 22.4457 122.552 22.4037C122.544 22.4002 122.536 22.3968 122.529 22.3934C122.453 22.3589 122.378 22.3244 122.305 22.2899C122.298 22.2866 122.291 22.2832 122.284 22.2799C122.208 22.2442 122.134 22.2086 122.061 22.1729C122.016 22.1504 121.971 22.128 121.926 22.1055C121.858 22.0712 121.791 22.0368 121.725 22.0023C121.448 21.8564 121.195 21.709 120.967 21.5581C120.964 21.556 120.961 21.554 120.958 21.5519C120.682 21.3687 120.442 21.18 120.241 20.9819C120.155 20.8967 120.076 20.8098 120.004 20.7207C119.977 20.6868 119.95 20.6526 119.925 20.618C119.7 20.3106 119.559 19.9781 119.509 19.6079C119.505 19.5802 119.502 19.5522 119.499 19.5239C119.491 19.4476 119.487 19.3696 119.487 19.2899V18.5519H122.349C122.511 18.5519 122.583 18.4799 122.583 18.3359V16.8239C122.583 16.6979 122.511 16.6079 122.349 16.6079H114.249C114.087 16.6079 114.015 16.6979 114.015 16.8239V18.3359C114.015 18.4799 114.087 18.5519 114.249 18.5519H117.201V19.2899C117.201 19.3978 117.194 19.5038 117.179 19.6079C117.122 20.0076 116.957 20.38 116.704 20.7296C116.699 20.7356 116.695 20.7416 116.69 20.7476C116.483 21.0298 116.217 21.2971 115.903 21.5519C115.759 21.668 115.606 21.7815 115.444 21.8927C115.106 22.1238 114.728 22.3447 114.319 22.5573C114.167 22.6363 114.011 22.7142 113.85 22.791C113.85 22.7911 113.85 22.7913 113.849 22.7914C113.79 22.8197 113.731 22.8479 113.671 22.8759C113.648 22.8866 113.625 22.8973 113.601 22.9079C113.469 22.974 113.458 23.1158 113.527 23.2499C113.533 23.262 113.54 23.274 113.547 23.2859L114.339 24.6359ZM122.061 19.2899C121.899 19.2899 121.827 19.3799 121.827 19.5239V20.9819C121.827 20.9886 121.828 20.9952 121.828 21.0016C121.834 21.1498 121.906 21.2159 122.061 21.2159H124.725V24.4559C124.725 24.5999 124.797 24.6719 124.959 24.6719H126.777C126.957 24.6719 127.029 24.5999 127.029 24.4559V15.9239C127.029 15.7799 126.957 15.6899 126.777 15.6899H124.959C124.797 15.6899 124.725 15.7799 124.725 15.9239V19.2899H122.061ZM124.892 25.5603C124.738 25.5061 124.577 25.4564 124.408 25.4114C124.295 25.3815 124.179 25.3536 124.06 25.3278C123.43 25.1921 122.701 25.115 121.87 25.1051C121.843 25.1047 121.816 25.1045 121.79 25.1043C121.763 25.1041 121.737 25.104 121.711 25.104C121.702 25.104 121.693 25.1039 121.683 25.1039C121.626 25.1039 121.569 25.1043 121.512 25.1049C121.508 25.1049 121.505 25.105 121.501 25.105C121.437 25.1058 121.373 25.1069 121.309 25.1085C121.291 25.1089 121.273 25.1094 121.255 25.1099C120.536 25.1304 119.897 25.203 119.336 25.3217C118.858 25.4229 118.436 25.5576 118.07 25.7221C117.257 26.0873 116.714 26.5995 116.425 27.2188C116.258 27.5784 116.175 27.974 116.175 28.3979C116.175 30.3239 117.903 31.6919 121.683 31.6919C125.463 31.6919 127.191 30.3239 127.191 28.3979C127.191 28.14 127.161 27.8926 127.099 27.6573C127.031 27.3958 126.924 27.1494 126.777 26.9206C126.417 26.3569 125.816 25.8996 124.959 25.5848C124.937 25.5765 124.914 25.5684 124.892 25.5603ZM124.531 27.6449C124.244 27.4195 123.794 27.249 123.165 27.149C123.158 27.148 123.152 27.147 123.146 27.146C122.92 27.1109 122.672 27.0848 122.4 27.0684C122.177 27.0549 121.938 27.0479 121.683 27.0479C121.434 27.0479 121.2 27.0546 120.981 27.0676C120.909 27.0718 120.839 27.0767 120.771 27.0823C120.757 27.0834 120.744 27.0845 120.731 27.0856C120.713 27.0872 120.695 27.0888 120.677 27.0904C119.141 27.2325 118.461 27.7209 118.461 28.3979C118.461 29.1164 119.226 29.6367 120.969 29.745C121.191 29.7588 121.429 29.7659 121.683 29.7659C121.943 29.7659 122.185 29.7585 122.412 29.7442C124.149 29.634 124.923 29.1146 124.923 28.3979C124.923 28.1083 124.797 27.8532 124.531 27.6449Z" fill="#2FA1A8"/>
<defs>
<linearGradient id="paint0_linear_1458_6626" x1="87" y1="4" x2="87" y2="42" gradientUnits="userSpaceOnUse">
<stop stop-color="#D5EAEA"/>
<stop offset="0.385417" stop-color="#B6EAEA"/>
<stop offset="1" stop-color="#59C5C5"/>
</linearGradient>
</defs>
</svg>
