<svg width="66" height="27" viewBox="0 0 66 27" fill="none" xmlns="http://www.w3.org/2000/svg">
<rect x="1" y="1" width="63.8157" height="25" rx="12.5" fill="url(#paint0_linear_1721_6213)"/>
<path d="M19.034 7.72754H20.347C20.477 7.72754 20.529 7.79254 20.529 7.89654V13.7075C20.529 13.8115 20.477 13.8635 20.347 13.8635H19.034C18.917 13.8635 18.865 13.8115 18.865 13.7075V12.6805H17.591C17.474 12.6805 17.422 12.6155 17.422 12.5115L17.448 11.4325C17.448 11.3285 17.5 11.2635 17.617 11.2635H18.865V10.2365H17.617C17.5 10.2365 17.448 10.1715 17.448 10.0675L17.422 8.98854C17.422 8.87154 17.474 8.81954 17.591 8.81954H18.865V7.89654C18.865 7.79254 18.917 7.72754 19.034 7.72754ZM17.266 10.9385C17.266 12.5505 15.979 13.7335 14.133 13.7335C12.287 13.7335 11 12.5505 11 10.9385C11 9.32654 12.287 8.14354 14.133 8.14354C15.979 8.14354 17.266 9.32654 17.266 10.9385ZM12.625 10.9385C12.625 11.6925 13.262 12.3295 14.133 12.3295C15.004 12.3295 15.641 11.6925 15.641 10.9385C15.641 10.1715 15.004 9.53454 14.133 9.53454C13.262 9.53454 12.625 10.1715 12.625 10.9385ZM19.034 14.4485H20.36C20.477 14.4485 20.529 14.5005 20.529 14.6045V18.9855C20.529 19.0895 20.477 19.1545 20.36 19.1545H13.197C13.08 19.1545 13.028 19.0895 13.028 18.9855V14.6045C13.028 14.5005 13.08 14.4485 13.197 14.4485H14.51C14.627 14.4485 14.679 14.5005 14.679 14.6045V15.5145H18.865V14.6045C18.865 14.5005 18.917 14.4485 19.034 14.4485ZM14.679 16.8535V17.8025H18.865V16.8535H14.679Z" fill="white"/>
<path d="M31.7066 19.1545H30.3806C30.2636 19.1545 30.2116 19.1025 30.2116 18.9985V7.89654C30.2116 7.79254 30.2636 7.72754 30.3806 7.72754H31.7066C31.8366 7.72754 31.8886 7.79254 31.8886 7.89654V18.9985C31.8886 19.1025 31.8366 19.1545 31.7066 19.1545ZM23.3996 16.6975C23.2826 16.7495 23.2176 16.7365 23.1526 16.6455L22.5416 15.5665C22.4766 15.4625 22.5026 15.3845 22.6066 15.3325C25.4146 13.9675 26.5716 12.6415 26.5716 10.6785V10.4185H22.9316C22.8276 10.4185 22.7756 10.3665 22.7756 10.2625V9.11854C22.7756 9.01454 22.8276 8.94954 22.9316 8.94954H28.0796C28.2096 8.94954 28.2486 9.01454 28.2486 9.11854V10.6785C28.2486 13.1875 26.6886 15.0725 23.3996 16.6975Z" fill="white"/>
<path d="M41.7271 7.72754H43.0401C43.1701 7.72754 43.2221 7.79254 43.2221 7.89654V14.0455C43.2221 14.1495 43.1701 14.2015 43.0401 14.2015H41.7271C41.6101 14.2015 41.5581 14.1495 41.5581 14.0455V11.7835H39.6341C39.5171 11.7835 39.4651 11.7185 39.4651 11.6145V10.5615C39.4651 10.4445 39.5171 10.3925 39.6341 10.3925H41.5581V7.89654C41.5581 7.79254 41.6101 7.72754 41.7271 7.72754ZM36.9561 12.3815C36.3321 13.1225 35.4221 13.7465 34.3301 14.2405C34.2391 14.2925 34.1091 14.2665 34.0571 14.1885L33.4851 13.2135C33.4201 13.1095 33.4201 12.9925 33.5241 12.9405C35.0451 12.2125 36.1241 11.4845 36.1241 10.3925V9.85954H33.9921C33.8751 9.85954 33.8231 9.79454 33.8231 9.70354V8.61154C33.8231 8.52054 33.8751 8.45554 33.9921 8.45554H39.8421C39.9591 8.45554 40.0111 8.52054 40.0111 8.61154V9.70354C40.0111 9.79454 39.9591 9.85954 39.8421 9.85954H37.7751V10.3925C37.7751 11.4195 38.6461 12.0565 40.1931 12.7325C40.2971 12.7715 40.2971 12.8885 40.2451 12.9795L39.7251 13.9805C39.6731 14.0715 39.5561 14.0585 39.4521 14.0195C38.5161 13.6555 37.5931 13.0705 36.9561 12.3815ZM35.4481 14.7865H43.0531C43.1701 14.7865 43.2221 14.8385 43.2221 14.9425V19.1155C43.2221 19.2065 43.1701 19.2715 43.0531 19.2715H41.7401C41.6101 19.2715 41.5581 19.2065 41.5581 19.1155V16.2295H35.4481C35.3311 16.2295 35.2791 16.1645 35.2791 16.0605V14.9425C35.2791 14.8385 35.3311 14.7865 35.4481 14.7865Z" fill="white"/>
<path d="M54.3867 16.0605H53.0737C52.9567 16.0605 52.9047 16.0085 52.9047 15.9045V7.89654C52.9047 7.79254 52.9567 7.72754 53.0737 7.72754H54.3867C54.5167 7.72754 54.5687 7.79254 54.5687 7.89654V15.9045C54.5687 16.0085 54.5167 16.0605 54.3867 16.0605ZM48.2117 14.0455C46.3527 14.0455 45.0397 12.8365 45.0397 11.1205C45.0397 9.41754 46.3527 8.20854 48.2117 8.20854C50.0707 8.20854 51.3837 9.41754 51.3837 11.1205C51.3837 12.8365 50.0707 14.0455 48.2117 14.0455ZM48.2117 12.6415C49.1217 12.6415 49.7587 12.0305 49.7587 11.1205C49.7587 10.2105 49.1217 9.59954 48.2117 9.59954C47.3017 9.59954 46.6647 10.2105 46.6647 11.1205C46.6647 12.0305 47.3017 12.6415 48.2117 12.6415ZM54.6467 19.0375H47.1717C47.0547 19.0375 47.0027 18.9725 47.0027 18.8685V15.1635C47.0027 15.0725 47.0547 15.0075 47.1717 15.0075H48.4977C48.6147 15.0075 48.6667 15.0725 48.6667 15.1635V17.5685H54.6467C54.7637 17.5685 54.8157 17.6205 54.8157 17.7375V18.8685C54.8157 18.9725 54.7637 19.0375 54.6467 19.0375Z" fill="white"/>
<rect x="1" y="1" width="63.8157" height="25" rx="12.5" stroke="url(#paint1_linear_1721_6213)" stroke-width="2"/>
<defs>
<linearGradient id="paint0_linear_1721_6213" x1="32.9078" y1="0" x2="32.9078" y2="27" gradientUnits="userSpaceOnUse">
<stop stop-color="#98E9D1"/>
<stop offset="1" stop-color="#2FA1A8"/>
</linearGradient>
<linearGradient id="paint1_linear_1721_6213" x1="32.9078" y1="0" x2="32.9078" y2="27" gradientUnits="userSpaceOnUse">
<stop stop-color="#7DCCD1"/>
<stop offset="1" stop-color="white"/>
</linearGradient>
</defs>
</svg>
