<svg width="49" height="49" viewBox="0 0 49 49" fill="none" xmlns="http://www.w3.org/2000/svg">
<path d="M12.0208 36.0618C5.3819 29.4229 5.3819 18.6591 12.0208 12.0202V12.0202C18.6597 5.38129 29.4235 5.38129 36.0624 12.0202V12.0202C42.7014 18.6591 42.7014 29.4229 36.0624 36.0618V36.0618C29.4235 42.7007 18.6597 42.7007 12.0208 36.0618V36.0618Z" fill="url(#paint0_radial_1321_5233)"/>
<path d="M19.8076 31.6191C19.443 31.6191 19.1305 31.4863 18.8701 31.2207C18.6097 30.9551 18.4795 30.5879 18.4795 30.1191V18.6973C18.4795 18.2285 18.6097 17.8639 18.8701 17.6035C19.1305 17.3379 19.443 17.2051 19.8076 17.2051C19.9899 17.2051 20.167 17.2337 20.3389 17.291C20.516 17.3483 20.7139 17.4395 20.9326 17.5645L30.3076 23.002C30.667 23.2103 30.9352 23.4212 31.1123 23.6348C31.2946 23.8483 31.3857 24.1061 31.3857 24.4082C31.3857 24.7103 31.2946 24.9681 31.1123 25.1816C30.9352 25.3952 30.667 25.6061 30.3076 25.8145L20.9326 31.252C20.7139 31.377 20.516 31.4681 20.3389 31.5254C20.167 31.5879 19.9899 31.6191 19.8076 31.6191Z" fill="url(#paint1_linear_1321_5233)"/>
<defs>
<radialGradient id="paint0_radial_1321_5233" cx="0" cy="0" r="1" gradientUnits="userSpaceOnUse" gradientTransform="translate(21.0416 21.041) rotate(45) scale(28.2843)">
<stop offset="0.40625" stop-color="white"/>
<stop offset="0.651042" stop-color="#CACCDC"/>
<stop offset="0.838542" stop-color="#F4F6FF"/>
</radialGradient>
<linearGradient id="paint1_linear_1321_5233" x1="24.042" y1="16.041" x2="24.042" y2="32.041" gradientUnits="userSpaceOnUse">
<stop stop-color="#AFAFAF"/>
<stop offset="1" stop-color="#676767"/>
</linearGradient>
</defs>
</svg>
