<svg width="150" height="161" viewBox="0 0 150 161" fill="none" xmlns="http://www.w3.org/2000/svg">
<path d="M9.83975 113.4C9.81123 114.729 9.88538 116.063 10.0622 117.392C11.049 124.928 15.2473 132.725 21.8813 139.359C28.5096 145.988 36.313 150.186 43.8425 151.173C44.7209 151.287 45.6108 151.361 46.5007 151.39C47.6814 152.456 48.9877 153.432 50.408 154.299C56.5458 158.041 65.1762 160.1 74.7079 160.1C84.2397 160.1 92.8644 158.041 99.0078 154.299C100.428 153.432 101.734 152.462 102.915 151.39C103.805 151.361 104.695 151.293 105.573 151.173C113.109 150.186 120.906 145.988 127.535 139.359C134.163 132.731 138.361 124.928 139.354 117.392C139.53 116.063 139.605 114.729 139.576 113.4C140.534 112.481 141.43 111.483 142.246 110.416C146.872 104.387 149.422 95.9047 149.422 86.527C149.422 77.1493 146.872 68.6672 142.246 62.6378C141.43 61.5769 140.534 60.5786 139.576 59.6545C139.605 58.3255 139.53 56.9907 139.354 55.6616C138.367 48.1264 134.169 40.3287 127.535 33.7004C120.906 27.0721 113.103 22.8738 105.573 21.887C100.308 21.1968 93.5147 22.1095 88.2155 24.163C89.6644 15.3443 91.8205 4.54625 91.8434 4.43216L92.7275 0H56.6941L57.5782 4.43216C57.601 4.54625 59.7572 15.3443 61.2061 24.163C55.9069 22.1038 49.1132 21.1911 43.8482 21.887C36.313 22.8738 28.5153 27.0721 21.887 33.7004C15.2587 40.3287 11.0604 48.1321 10.0679 55.6616C9.89109 56.9907 9.81693 58.3255 9.84545 59.6545C8.88715 60.5729 7.99159 61.5712 7.17589 62.6378C2.54978 68.6729 0 77.1607 0 86.5327C0 95.9047 2.54978 104.393 7.17589 110.422C7.99159 111.483 8.88715 112.481 9.84545 113.405L9.83975 113.4Z" fill="#E7E1C3"/>
<path d="M121.415 86.6808C112.818 95.2771 98.8717 95.2771 90.2755 86.6808C81.6792 78.0789 67.7325 78.0789 59.1362 86.6808C50.54 95.2771 36.5932 95.2771 27.997 86.6808C21.3459 80.0297 11.5061 78.5295 3.40617 82.1631C3.29208 83.5036 3.22363 84.8726 3.22363 86.2644C3.22363 95.2371 5.65933 103.354 10.0858 109.121C10.8673 110.136 11.7229 111.095 12.6356 111.973C12.6127 113.245 12.6812 114.523 12.8466 115.795C13.7935 123.005 17.8093 130.466 24.1523 136.809C30.4954 143.152 37.9622 147.168 45.1666 148.115C46.0051 148.223 46.8551 148.292 47.7107 148.32C48.8401 149.341 50.0894 150.271 51.447 151.104C57.3223 154.681 65.5763 156.654 74.6973 156.654C83.8183 156.654 92.0723 154.681 97.9476 151.104C99.3052 150.277 100.56 149.347 101.684 148.32C102.534 148.292 103.384 148.223 104.228 148.115C111.438 147.168 118.899 143.152 125.242 136.809C131.585 130.466 135.601 122.999 136.548 115.795C136.713 114.523 136.788 113.245 136.759 111.973C137.677 111.095 138.533 110.136 139.309 109.121C143.735 103.354 146.171 95.2371 146.171 86.2644C146.171 84.8726 146.108 83.5093 145.988 82.1631C137.888 78.5295 128.049 80.0297 121.398 86.6808H121.415Z" fill="#BFB990"/>
<path d="M149.41 86.5326C149.41 77.1549 146.86 68.6728 142.234 62.6435C141.419 61.5825 140.523 60.5842 139.565 59.6602C139.593 58.3311 139.519 56.9963 139.342 55.6672C138.355 48.132 134.157 40.3343 127.523 33.706C120.895 27.0778 113.092 22.8795 105.562 21.8926C100.297 21.2024 93.5033 22.1151 88.2041 24.1686C89.6529 15.3499 91.8091 4.55186 91.832 4.43778L92.7161 0.00561523H56.6827L57.5668 4.43778C57.5896 4.55186 59.7458 15.3499 61.1947 24.1686C55.8955 22.1094 49.1018 21.1967 43.8368 21.8926C36.3015 22.8795 28.5039 27.0778 21.8756 33.706C15.2473 40.3343 11.049 48.1377 10.0565 55.6672C9.87968 56.9963 9.80552 58.3311 9.83404 59.6602C8.87574 60.5785 7.98018 61.5768 7.16448 62.6435C2.54978 68.6728 0 77.1606 0 86.5326C0 95.9047 2.54978 104.393 7.17589 110.422C7.99159 111.483 8.88715 112.481 9.84545 113.405C9.81693 114.734 9.89109 116.069 10.0679 117.398C11.0547 124.933 15.253 132.731 21.887 139.365C28.5153 145.993 36.3187 150.192 43.8482 151.178C44.7267 151.292 45.6165 151.367 46.5064 151.395C47.6871 152.462 48.9934 153.437 50.4137 154.304C56.5515 158.046 65.1819 160.105 74.7136 160.105C84.2454 160.105 92.8701 158.046 99.0135 154.304C100.434 153.437 101.74 152.468 102.921 151.395C103.811 151.367 104.701 151.298 105.579 151.178C113.114 150.192 120.912 145.993 127.54 139.365C134.169 132.737 138.367 124.933 139.359 117.398C139.536 116.069 139.61 114.734 139.582 113.405C140.54 112.487 141.436 111.489 142.251 110.422C146.878 104.393 149.427 95.9104 149.427 86.5326H149.41ZM136.353 105.904C135.48 107.039 134.488 108.072 133.404 108.967L131.893 110.216C128.601 112.704 124.625 113.839 124.625 113.839C127.78 113.93 130.512 113.354 132.126 112.909C132.189 114.073 132.149 115.253 131.995 116.423C131.231 122.258 127.689 128.704 122.287 134.106C116.885 139.508 110.439 143.044 104.604 143.814C103.588 143.945 102.556 144.002 101.523 143.968L99.8806 143.917C95.7621 143.689 92.1229 141.572 92.1229 141.572C94.3076 143.529 96.5094 144.972 97.9868 145.839C97.1426 146.609 96.19 147.322 95.1518 147.955C90.2291 150.956 82.7794 152.673 74.7136 152.673C66.6479 152.673 59.1925 150.956 54.2755 147.955C53.2373 147.322 52.2847 146.609 51.4405 145.839C52.9122 144.966 55.1197 143.529 57.3044 141.572C57.3044 141.572 53.6651 143.689 49.5467 143.917L47.9039 143.968C46.8771 144.002 45.839 143.945 44.8236 143.814C38.9882 143.05 32.5425 139.508 27.1406 134.106C21.7387 128.704 18.1964 122.258 17.432 116.423C17.278 115.248 17.2381 114.073 17.3008 112.909C18.9151 113.354 21.6474 113.924 24.8019 113.839C24.8019 113.839 20.826 112.704 17.5347 110.216L16.0231 108.967C14.9393 108.072 13.9468 107.039 13.074 105.904C9.49179 101.232 7.43258 94.1763 7.43258 86.5326C7.43258 78.889 9.48609 71.8329 13.074 67.1612C13.9468 66.026 14.9393 64.9936 16.0231 64.098L17.5347 62.8488C20.826 60.3618 24.8019 59.2266 24.8019 59.2266C21.6474 59.1354 18.9151 59.7115 17.3008 60.1564C17.2381 58.9928 17.278 57.812 17.432 56.6369C18.1964 50.8015 21.7387 44.3558 27.1406 38.9539C32.5425 33.552 38.9882 30.0154 44.8236 29.2454C49.1303 28.6806 55.2794 29.6161 59.4492 31.4643C61.6339 32.4397 64.3662 32.0575 66.4026 30.4946C68.2622 29.0685 69.1692 26.9409 68.8269 24.7904C67.9142 18.9892 66.5909 11.9046 65.7295 7.41537H83.7149C82.8535 11.9046 81.5302 18.9892 80.6175 24.7904C80.2809 26.9352 81.1879 29.0685 83.0418 30.4946C85.0782 32.0575 87.8048 32.4397 89.9952 31.4643C94.1593 29.6104 100.314 28.6806 104.621 29.2454C110.456 30.0097 116.902 33.552 122.304 38.9539C127.706 44.3558 131.248 50.8015 132.012 56.6369C132.166 57.812 132.206 58.9928 132.144 60.1564C130.529 59.7115 127.797 59.1411 124.643 59.2266C124.643 59.2266 128.618 60.3618 131.91 62.8488L133.421 64.098C134.505 64.9936 135.498 66.026 136.37 67.1612C139.958 71.8329 142.012 78.889 142.012 86.5326C142.012 94.1763 139.958 101.232 136.37 105.904H136.353Z" fill="#61647B"/>
<path d="M74.7077 103.217C86.134 103.217 95.3968 95.709 95.3968 86.447C95.3968 77.185 86.134 69.6766 74.7077 69.6766C63.2814 69.6766 54.0186 77.185 54.0186 86.447C54.0186 95.709 63.2814 103.217 74.7077 103.217Z" fill="#BFB990"/>
<path d="M93.2646 67.8855C88.359 63.7272 82.1927 61.8334 74.7088 61.8334C67.2249 61.8334 61.0586 63.7272 56.153 67.8855C51.2474 72.0439 48.1729 79.0258 48.1729 85.3689C48.1729 91.712 51.3045 96.4864 56.2101 100.645C56.5637 100.941 56.9231 101.221 57.2882 101.483C56.7634 103.976 56.4668 106.474 56.8832 108.283C57.3851 110.462 58.9196 111.654 60.4027 112.008C61.8801 112.361 63.791 112.008 65.2284 110.291C66.0498 109.315 66.7172 107.895 67.2705 106.309C67.2705 107.022 67.3276 107.689 67.4645 108.283C67.9664 110.462 69.5009 111.654 70.984 112.008C72.4613 112.361 74.3723 112.008 75.8097 110.291C76.6311 109.315 77.2985 107.895 77.8518 106.309C77.8518 107.022 77.9089 107.689 78.0458 108.283C78.5477 110.462 80.0822 111.654 81.5653 112.008C83.0426 112.361 84.9535 112.008 86.391 110.291C87.7315 108.693 88.6613 105.921 89.3629 103.143C90.7262 102.487 92.0096 101.666 93.2246 100.639C98.1303 96.4807 101.262 91.712 101.262 85.3632C101.262 79.0144 98.1873 72.0382 93.2817 67.8798L93.2646 67.8855ZM69.1985 87.2399C68.5768 89.8125 67.7269 92.4649 66.4035 93.9309C65.0858 95.3969 63.3004 95.6764 61.9029 95.3399C60.5053 95.0033 59.0451 93.9423 58.5374 92.0371C58.0297 90.1319 58.4746 87.3768 59.0964 84.8042C59.7182 82.2316 60.5681 79.5791 61.8915 78.1132C63.2091 76.6472 64.9945 76.3677 66.3921 76.7042C67.7839 77.0408 69.2499 78.1018 69.7576 80.007C70.2652 81.9122 69.8203 84.6673 69.1985 87.2399ZM72.9918 98.3859C72.8207 99.0932 72.5868 99.8176 72.2275 100.217C71.8681 100.616 71.3776 100.696 70.9954 100.605C70.6132 100.514 70.2139 100.223 70.0713 99.6979C69.9344 99.1731 70.0542 98.4201 70.2253 97.7185C70.3964 97.0169 70.6303 96.2868 70.9897 95.8875C71.349 95.4882 71.8396 95.4083 72.2218 95.4996C72.604 95.5908 73.0032 95.8818 73.1458 96.4065C73.2828 96.9313 73.163 97.6843 72.9918 98.3859ZM76.9334 98.3859C76.7623 99.0932 76.5284 99.8176 76.1691 100.217C75.8097 100.616 75.3192 100.696 74.937 100.605C74.5548 100.514 74.1555 100.223 74.0129 99.6979C73.8703 99.1731 73.9958 98.4201 74.1669 97.7185C74.338 97.0169 74.5719 96.2868 74.9313 95.8875C75.2906 95.4882 75.7812 95.4083 76.1634 95.4996C76.5456 95.5908 76.9449 95.8818 77.0875 96.4065C77.2244 96.9313 77.1046 97.6843 76.9334 98.3859ZM91.4449 87.2399C90.8232 89.8125 89.9733 92.4649 88.6499 93.9309C87.3322 95.3969 85.5468 95.6764 84.1493 95.3399C82.7517 95.0033 81.2915 93.9423 80.7838 92.0371C80.2761 90.1319 80.721 87.3768 81.3428 84.8042C81.9646 82.2316 82.8145 79.5791 84.1379 78.1132C85.4555 76.6472 87.2409 76.3677 88.6385 76.7042C90.036 77.0408 91.4963 78.1018 92.0039 80.007C92.5116 81.9122 92.0667 84.6673 91.4449 87.2399Z" fill="white"/>
</svg>
