<svg width="22" height="22" viewBox="0 0 22 22" fill="none" xmlns="http://www.w3.org/2000/svg">
<path d="M6.74219 19.0234C6.48698 19.0234 6.28385 18.9401 6.13281 18.7734C5.98698 18.6068 5.91406 18.3828 5.91406 18.1016V15.8516H5.69531C4.97135 15.8516 4.33073 15.6979 3.77344 15.3906C3.22135 15.0833 2.78646 14.6432 2.46875 14.0703C2.15625 13.4974 2 12.8151 2 12.0234V5.83594C2 5.04427 2.15365 4.36198 2.46094 3.78906C2.76823 3.21615 3.20573 2.77604 3.77344 2.46875C4.34635 2.15625 5.03125 2 5.82812 2H15.625C16.4219 2 17.1068 2.15625 17.6797 2.46875C18.2526 2.77604 18.6901 3.21615 18.9922 3.78906C19.2995 4.36198 19.4531 5.04427 19.4531 5.83594V12.0234C19.4531 12.8151 19.2995 13.4974 18.9922 14.0703C18.6901 14.6432 18.2526 15.0833 17.6797 15.3906C17.1068 15.6979 16.4219 15.8516 15.625 15.8516H10.7734L7.82031 18.4844C7.60156 18.6771 7.41146 18.8151 7.25 18.8984C7.09375 18.9818 6.92448 19.0234 6.74219 19.0234ZM6.83594 10.2344C7.20052 10.2344 7.50781 10.1068 7.75781 9.85156C8.01302 9.59635 8.14062 9.28906 8.14062 8.92969C8.14062 8.5651 8.01302 8.25521 7.75781 8C7.50781 7.74479 7.20052 7.61719 6.83594 7.61719C6.47135 7.61719 6.16146 7.74479 5.90625 8C5.65104 8.25521 5.52344 8.5651 5.52344 8.92969C5.52344 9.28906 5.65104 9.59635 5.90625 9.85156C6.16146 10.1068 6.47135 10.2344 6.83594 10.2344ZM10.7422 10.2344C11.1068 10.2344 11.4167 10.1068 11.6719 9.85156C11.9271 9.59635 12.0547 9.28906 12.0547 8.92969C12.0547 8.5651 11.9271 8.25521 11.6719 8C11.4167 7.74479 11.1068 7.61719 10.7422 7.61719C10.3828 7.61719 10.0729 7.74479 9.8125 8C9.55729 8.25521 9.42969 8.5651 9.42969 8.92969C9.42969 9.28906 9.55729 9.59635 9.8125 9.85156C10.0729 10.1068 10.3828 10.2344 10.7422 10.2344ZM14.6484 10.2344C15.013 10.2344 15.3229 10.1068 15.5781 9.85156C15.8333 9.59635 15.9609 9.28906 15.9609 8.92969C15.9609 8.5651 15.8333 8.25521 15.5781 8C15.3229 7.74479 15.013 7.61719 14.6484 7.61719C14.2839 7.61719 13.974 7.74479 13.7188 8C13.4688 8.25521 13.3438 8.5651 13.3438 8.92969C13.3438 9.28906 13.4688 9.59635 13.7188 9.85156C13.974 10.1068 14.2839 10.2344 14.6484 10.2344Z" fill="#77DEFF"/>
<path fill-rule="evenodd" clip-rule="evenodd" d="M4.63914 20.1036L4.62766 20.0904C4.08405 19.4692 3.91406 18.7325 3.91406 18.1016V17.6033C3.53341 17.4907 3.16343 17.3382 2.80772 17.142L2.80074 17.1382C1.90994 16.6423 1.2115 15.9271 0.719686 15.0402L0.712916 15.028C0.209385 14.1049 0 13.0789 0 12.0234V5.83594C0 4.78552 0.204768 3.76416 0.698454 2.84373C1.18866 1.9298 1.90575 1.2062 2.81856 0.711418C3.74277 0.20802 4.77099 0 5.82812 0H15.625C16.6809 0 17.7079 0.207523 18.6313 0.709614C19.5488 1.20328 20.2705 1.92826 20.758 2.84995C21.2493 3.76876 21.4531 4.78789 21.4531 5.83594V12.0234C21.4531 13.0715 21.2493 14.0906 20.758 15.0094C20.2694 15.9332 19.5456 16.6594 18.625 17.1531C17.7028 17.6477 16.6782 17.8516 15.625 17.8516H11.5355L9.1424 19.9851C8.86795 20.2269 8.54191 20.4805 8.1789 20.6697C7.72766 20.9077 7.23823 21.0234 6.74219 21.0234C6.0065 21.0234 5.23402 20.76 4.65084 20.1165L4.63914 20.1036ZM7.25 18.8984C7.41146 18.8151 7.60156 18.6771 7.82031 18.4844L10.7734 15.8516H15.625C16.4219 15.8516 17.1068 15.6979 17.6797 15.3906C18.2526 15.0833 18.6901 14.6432 18.9922 14.0703C19.2995 13.4974 19.4531 12.8151 19.4531 12.0234V5.83594C19.4531 5.04427 19.2995 4.36198 18.9922 3.78906C18.6901 3.21615 18.2526 2.77604 17.6797 2.46875C17.1068 2.15625 16.4219 2 15.625 2H5.82812C5.03125 2 4.34635 2.15625 3.77344 2.46875C3.20573 2.77604 2.76823 3.21615 2.46094 3.78906C2.15365 4.36198 2 5.04427 2 5.83594V12.0234C2 12.8151 2.15625 13.4974 2.46875 14.0703C2.78646 14.6432 3.22135 15.0833 3.77344 15.3906C4.33073 15.6979 4.97135 15.8516 5.69531 15.8516H5.91406V18.1016C5.91406 18.3828 5.98698 18.6068 6.13281 18.7734C6.28385 18.9401 6.48698 19.0234 6.74219 19.0234C6.92448 19.0234 7.09375 18.9818 7.25 18.8984ZM13.8828 9.99257C14.1035 10.1538 14.3587 10.2344 14.6484 10.2344C15.013 10.2344 15.3229 10.1068 15.5781 9.85156C15.8333 9.59635 15.9609 9.28906 15.9609 8.92969C15.9609 8.5651 15.8333 8.25521 15.5781 8C15.3229 7.74479 15.013 7.61719 14.6484 7.61719C14.3584 7.61719 14.1029 7.69797 13.8821 7.85953C13.8253 7.90102 13.7709 7.94785 13.7188 8C13.4688 8.25521 13.3438 8.5651 13.3438 8.92969C13.3438 9.28906 13.4688 9.59635 13.7188 9.85156C13.7711 9.90394 13.8258 9.95094 13.8828 9.99257ZM14.1646 9.41486C14.2092 9.45938 14.2858 9.5182 14.3928 9.56225C14.4999 9.60634 14.5926 9.61719 14.6484 9.61719C14.7043 9.61719 14.797 9.60634 14.9041 9.56225C15.0116 9.51798 15.0884 9.45881 15.133 9.41421L14.6541 8.93533L14.1646 9.41486ZM14.6638 8.92578L15.1475 9.39956C15.193 9.35311 15.2502 9.27641 15.2923 9.17198C15.3341 9.06833 15.3438 8.98033 15.3438 8.92969C15.3438 8.87269 15.3328 8.78106 15.2901 8.67609C15.2473 8.5709 15.1903 8.49571 15.1475 8.452L14.6638 8.92578ZM14.6541 8.91624L14.1646 8.43671C14.2092 8.39218 14.2858 8.33337 14.3928 8.28932C14.4999 8.24522 14.5926 8.23438 14.6484 8.23438C14.7043 8.23438 14.797 8.24522 14.9041 8.28932C15.0116 8.33358 15.0884 8.39275 15.133 8.43735L14.6541 8.91624ZM14.16 8.44128L14.6445 8.92578L14.16 9.41028C14.124 9.37344 14.0794 9.31638 14.0408 9.23983C14.05 9.13762 14.0547 9.03418 14.0547 8.92969C14.0547 8.82335 14.0499 8.71799 14.0404 8.61382C14.0798 8.5345 14.1252 8.4769 14.16 8.44128ZM7.60132 7.86247C7.3829 7.69895 7.12777 7.61719 6.83594 7.61719C6.47135 7.61719 6.16146 7.74479 5.90625 8C5.65104 8.25521 5.52344 8.5651 5.52344 8.92969C5.52344 9.28906 5.65104 9.59635 5.90625 9.85156C6.16146 10.1068 6.47135 10.2344 6.83594 10.2344C7.12745 10.2344 7.38233 10.1528 7.60059 9.98963C7.6553 9.94873 7.70771 9.90271 7.75781 9.85156C8.01302 9.59635 8.14062 9.28906 8.14062 8.92969C8.14062 8.5651 8.01302 8.25521 7.75781 8C7.70793 7.94908 7.65576 7.90323 7.60132 7.86247ZM9.97004 7.86559C9.91566 7.90557 9.86314 7.95037 9.8125 8C9.55729 8.25521 9.42969 8.5651 9.42969 8.92969C9.42969 9.28906 9.55729 9.59635 9.8125 9.85156C9.86337 9.90141 9.91613 9.9464 9.97077 9.98651C10.1959 10.1518 10.453 10.2344 10.7422 10.2344C11.0342 10.2344 11.2912 10.1525 11.513 9.98877C11.5681 9.94808 11.6211 9.90235 11.6719 9.85156C11.9271 9.59635 12.0547 9.28906 12.0547 8.92969C12.0547 8.5651 11.9271 8.25521 11.6719 8C11.6213 7.94943 11.5686 7.90387 11.5137 7.86332C11.2917 7.69924 11.0345 7.61719 10.7422 7.61719C10.4527 7.61719 10.1953 7.69999 9.97004 7.86559ZM11.3567 8.62724C11.3159 8.54096 11.2673 8.47888 11.2306 8.44128C11.2293 8.43994 11.228 8.43863 11.2267 8.43735L10.7383 8.92578L11.2267 9.41421C11.228 9.41293 11.2293 9.41162 11.2306 9.41028C11.2687 9.37134 11.3164 9.3098 11.3564 9.22654C11.348 9.12858 11.3438 9.02958 11.3438 8.92969C11.3438 8.828 11.3481 8.72712 11.3567 8.62724ZM10.7289 8.91643L11.2124 8.42314C11.1751 8.38661 11.1048 8.33177 11.0017 8.28932C10.8981 8.24663 10.8046 8.23438 10.7422 8.23438C10.6863 8.23438 10.5936 8.24522 10.4865 8.28932C10.3791 8.33358 10.3023 8.39275 10.2577 8.43735C10.2564 8.43863 10.2551 8.43994 10.2538 8.44128L10.7289 8.91643ZM10.2494 8.44582L10.7198 8.92578L10.2494 9.40575C10.2121 9.3666 10.1664 9.30655 10.1279 9.22637C10.1364 9.12854 10.1406 9.0296 10.1406 8.92969C10.1406 8.82798 10.1363 8.72716 10.1276 8.62742C10.1668 8.54444 10.2132 8.48382 10.2494 8.44582ZM10.2538 9.41028L10.7289 8.93513L11.2124 9.42843C11.1751 9.46495 11.1048 9.51979 11.0017 9.56225C10.8981 9.60493 10.8046 9.61719 10.7422 9.61719C10.6863 9.61719 10.5936 9.60634 10.4865 9.56225C10.3791 9.51798 10.3023 9.45881 10.2577 9.41421C10.2564 9.41293 10.2551 9.41162 10.2538 9.41028ZM7.44397 8.61382C7.43447 8.71799 7.42969 8.82335 7.42969 8.92969C7.42969 9.03418 7.43435 9.13762 7.4436 9.23983C7.40362 9.31915 7.35712 9.37755 7.32046 9.41421C7.31899 9.41569 7.31747 9.41719 7.31593 9.41869C7.27074 9.46272 7.19551 9.51945 7.09158 9.56225C6.98448 9.60634 6.89178 9.61719 6.83594 9.61719C6.78031 9.61719 6.68465 9.6064 6.57284 9.55997C6.47075 9.51758 6.39392 9.46153 6.3438 9.41401C6.34133 9.41167 6.33893 9.40936 6.33659 9.40706C6.3342 9.40457 6.33178 9.402 6.32932 9.39934C6.28691 9.35339 6.23525 9.2817 6.19557 9.18533C6.15147 9.07823 6.14062 8.98553 6.14062 8.92969C6.14062 8.8674 6.15284 8.77105 6.19784 8.66268C6.23787 8.56628 6.28904 8.49603 6.32933 8.45224C6.33183 8.44952 6.33429 8.44691 6.3367 8.44439C6.339 8.44213 6.34137 8.43985 6.3438 8.43755C6.39392 8.39004 6.47075 8.33399 6.57284 8.29159C6.68465 8.24516 6.78031 8.23438 6.83594 8.23438C6.89178 8.23438 6.98448 8.24522 7.09158 8.28932C7.19551 8.33211 7.27074 8.38884 7.31593 8.43287C7.31747 8.43438 7.31899 8.43587 7.32046 8.43735C7.35571 8.4726 7.40307 8.53151 7.44397 8.61382Z" fill="white"/>
</svg>
