<svg width="48" height="50" viewBox="0 0 48 50" fill="none" xmlns="http://www.w3.org/2000/svg">
<path d="M9 3C5.13401 3 2 6.13401 2 10V42C2 45.866 5.13401 49 9 49H39C42.866 49 46 45.866 46 42V10C46 6.13401 42.866 3 39 3H9Z" fill="#DCEDA2" stroke="#FF6F31" stroke-width="2"/>
<path d="M8 1C4.13401 1 1 4.13401 1 8V40C1 43.866 4.13401 47 8 47H40C43.866 47 47 43.866 47 40V8C47 4.13401 43.866 1 40 1H8Z" fill="white" stroke="#FF6F31" stroke-width="2"/>
<path d="M4 8C4 5.79086 5.79086 4 8 4H40C42.2091 4 44 5.79086 44 8V40C44 42.2091 42.2091 44 40 44H8C5.79086 44 4 42.2091 4 40V8Z" fill="url(#paint0_linear_911_4709)"/>
<path d="M18.6309 20.7038H20.9989V17.4878C20.9989 17.3598 21.0629 17.2798 21.2069 17.2798H22.8229C22.9829 17.2798 23.0469 17.3598 23.0469 17.4878V27.3438C23.0469 27.4718 22.9829 27.5358 22.8229 27.5358H21.2069C21.0629 27.5358 20.9989 27.4718 20.9989 27.3438V22.4638H18.6309C18.4869 22.4638 18.4229 22.3838 18.4229 22.2398V20.9278C18.4229 20.7838 18.4869 20.7038 18.6309 20.7038ZM15.3349 23.3118C14.5829 24.2558 13.4469 25.0718 12.1029 25.6798C11.9909 25.7438 11.8309 25.7118 11.7669 25.6158L11.0629 24.4158C10.9829 24.2878 10.9829 24.1438 11.1109 24.0798C12.9829 23.2158 14.3109 22.2078 14.3109 20.8638V19.9518H11.6869C11.5429 19.9518 11.4789 19.8718 11.4789 19.7598V18.3678C11.4789 18.2558 11.5429 18.1758 11.6869 18.1758H18.8869C19.0309 18.1758 19.0949 18.2558 19.0949 18.3678V19.7598C19.0949 19.8718 19.0309 19.9518 18.8869 19.9518H16.3429V20.8638C16.3429 22.1278 17.4149 22.9118 19.3189 23.7438C19.4469 23.7918 19.4469 23.9358 19.3829 24.0478L18.7429 25.2798C18.6789 25.3918 18.5349 25.3758 18.4069 25.3278C17.2549 24.8798 16.1189 24.1758 15.3349 23.3118ZM15.7829 29.3918H23.1429C23.2869 29.3918 23.3509 29.4558 23.3509 29.5998V30.9918C23.3509 31.1198 23.2869 31.1998 23.1429 31.1998H13.9429C13.7989 31.1998 13.7349 31.1198 13.7349 30.9918V26.5918C13.7349 26.4638 13.7989 26.3838 13.9429 26.3838H15.4949C15.6389 26.3838 15.7829 26.4638 15.7829 26.5918V29.3918Z" fill="white"/>
<path d="M26.4679 22.6718L25.9559 21.3598C25.9079 21.2638 25.9399 21.1358 26.0519 21.1038C28.6119 20.4638 30.4359 19.3438 30.4359 18.1758V17.6638C30.4359 17.5358 30.4999 17.4718 30.6279 17.4718H32.3079C32.4519 17.4718 32.5159 17.5358 32.5159 17.6638V18.1758C32.5159 19.3438 34.3399 20.4638 36.8839 21.1038C37.0119 21.1358 37.0439 21.2638 36.9959 21.3598L36.4679 22.6718C36.4199 22.7998 36.3399 22.8478 36.2119 22.8158C33.8759 22.2238 32.1159 21.2318 31.4759 20.3038C30.8359 21.2318 29.0599 22.2238 26.7399 22.8158C26.6119 22.8478 26.5159 22.7998 26.4679 22.6718ZM32.4999 23.7598H38.0359C38.1799 23.7598 38.2439 23.8398 38.2439 23.9678V25.2798C38.2439 25.4078 38.1799 25.4878 38.0359 25.4878H24.9159C24.7879 25.4878 24.7239 25.4078 24.7239 25.2798V23.9678C24.7239 23.8398 24.7879 23.7598 24.9159 23.7598H30.4519V22.2558C30.4519 22.1278 30.5159 22.0478 30.6439 22.0478H32.2759C32.4199 22.0478 32.4999 22.1278 32.4999 22.2558V23.7598ZM31.4599 26.1438C34.6759 26.1438 36.2439 27.2318 36.2439 28.9118C36.2439 30.5758 34.6759 31.6958 31.4599 31.6958C28.2599 31.6958 26.6919 30.5758 26.6919 28.9118C26.6919 27.2318 28.2599 26.1438 31.4599 26.1438ZM31.4599 30.0158C33.5239 30.0158 34.2119 29.5038 34.2119 28.9118C34.2119 28.3038 33.5239 27.8078 31.4599 27.8078C29.4119 27.8078 28.7079 28.3038 28.7079 28.9118C28.7079 29.5038 29.4119 30.0158 31.4599 30.0158Z" fill="white"/>
<path fill-rule="evenodd" clip-rule="evenodd" d="M20.999 22.4638H18.631C18.487 22.4638 18.423 22.3838 18.423 22.2398V20.9278C18.423 20.7838 18.487 20.7038 18.631 20.7038H20.999V17.4878C20.999 17.3598 21.063 17.2798 21.207 17.2798H22.823C22.983 17.2798 23.047 17.3598 23.047 17.4878V27.3438C23.047 27.3609 23.0459 27.3769 23.0435 27.3918C23.0282 27.4878 22.9616 27.5358 22.823 27.5358H21.207C21.0823 27.5358 21.0176 27.4878 21.0025 27.3918C21.0002 27.3769 20.999 27.3609 20.999 27.3438V22.4638ZM19.383 24.0478C19.447 23.9358 19.447 23.7918 19.319 23.7438C19.2332 23.7063 19.1491 23.6689 19.0667 23.6315C19.06 23.6285 19.0533 23.6254 19.0466 23.6224C19.0306 23.6152 19.0148 23.6079 18.999 23.6007C18.8722 23.5426 18.7495 23.4845 18.631 23.4264C18.5899 23.4062 18.5494 23.3861 18.5093 23.3659C17.804 23.0103 17.2583 22.6488 16.891 22.2398C16.8336 22.1758 16.7805 22.1107 16.7319 22.0443C16.7095 22.0137 16.6881 21.9829 16.6676 21.9518C16.6153 21.8724 16.5692 21.791 16.5294 21.7075C16.4867 21.6181 16.4512 21.5261 16.423 21.4313C16.37 21.2528 16.343 21.0643 16.343 20.8638V19.9518H18.887C18.932 19.9518 18.9692 19.944 18.999 19.9298C19.0648 19.8987 19.095 19.8368 19.095 19.7598V18.3678C19.095 18.2908 19.0648 18.2289 18.999 18.1977C18.9692 18.1836 18.932 18.1758 18.887 18.1758H11.687C11.543 18.1758 11.479 18.2558 11.479 18.3678V19.7598C11.479 19.8718 11.543 19.9518 11.687 19.9518H14.311V20.8638C14.311 21.1675 14.2432 21.4541 14.1166 21.7258C14.0809 21.8023 14.0406 21.8776 13.9958 21.9518C13.9567 22.0165 13.9142 22.0804 13.8685 22.1435C13.4415 22.7319 12.7303 23.2479 11.8441 23.718C11.6793 23.8055 11.5084 23.8913 11.3322 23.9758C11.2794 24.0011 11.2262 24.0262 11.1725 24.0513C11.152 24.0608 11.1316 24.0703 11.111 24.0798C10.983 24.1438 10.983 24.2878 11.063 24.4158L11.767 25.6158C11.7874 25.6464 11.8176 25.6705 11.8528 25.687C11.8714 25.6958 11.8914 25.7024 11.9122 25.7068C11.9167 25.7078 11.9212 25.7086 11.9258 25.7093C11.9854 25.719 12.0497 25.7103 12.103 25.6798C12.2451 25.6155 12.3848 25.5489 12.522 25.4801C13.0058 25.2375 13.458 24.9671 13.8698 24.6732C13.8943 24.6557 13.9188 24.638 13.943 24.6203C14.049 24.543 14.1522 24.4642 14.2524 24.3838C14.6332 24.0784 14.9714 23.7511 15.2582 23.4061C15.2843 23.3748 15.3099 23.3434 15.335 23.3118C15.3635 23.3431 15.3924 23.3742 15.4217 23.4052C15.8361 23.8417 16.3397 24.2353 16.8872 24.5731C17.206 24.7699 17.5398 24.9477 17.8795 25.104C18.0542 25.1844 18.2304 25.2591 18.407 25.3278C18.4756 25.3535 18.5487 25.37 18.6116 25.3626C18.6663 25.3562 18.7133 25.3318 18.743 25.2798L19.383 24.0478ZM18.999 27.3246C18.9066 27.3424 18.817 27.3537 18.7321 27.3594C18.3237 27.3866 17.9847 27.2975 17.783 27.2285V27.3918H18.9996C18.9992 27.3753 18.999 27.3593 18.999 27.3438V27.3246ZM15.783 26.5918C15.783 26.4638 15.639 26.3838 15.495 26.3838H13.943C13.799 26.3838 13.735 26.4638 13.735 26.5918V30.9918C13.735 31.1198 13.799 31.1998 13.943 31.1998H23.143C23.287 31.1998 23.351 31.1198 23.351 30.9918V29.5998C23.351 29.5524 23.3441 29.5136 23.3296 29.483C23.3002 29.4206 23.2396 29.3918 23.143 29.3918H15.783V26.5918ZM25.3422 31.1923C25.3097 31.5637 25.1759 32.0715 24.7551 32.517C24.2324 33.0704 23.5799 33.1998 23.143 33.1998H13.943C13.5062 33.1998 12.8536 33.0704 12.331 32.517C11.828 31.9844 11.735 31.3631 11.735 30.9918V27.7006C11.6673 27.6936 11.6012 27.6838 11.537 27.6713C11.085 27.5839 10.5 27.3208 10.1029 26.7252C10.0817 26.6933 10.0614 26.6608 10.042 26.6278L9.34595 25.4414C9.15404 25.1224 8.95863 24.628 9.01895 24.0248C9.0921 23.2933 9.52871 22.6349 10.2166 22.2909C10.2352 22.2816 10.254 22.2726 10.2729 22.2639C10.5697 22.1269 10.8326 21.9942 11.0636 21.8662C10.7488 21.7779 10.4129 21.61 10.1148 21.312C9.60682 20.804 9.47903 20.1877 9.47903 19.7598V18.3678C9.47903 17.9399 9.60682 17.3236 10.1148 16.8156C10.6267 16.3037 11.2502 16.1758 11.687 16.1758H18.887C19.034 16.1758 19.2021 16.1903 19.3801 16.229C19.4417 16.1388 19.5129 16.0495 19.595 15.9625C20.1176 15.4092 20.7702 15.2798 21.207 15.2798H22.823C23.2113 15.2798 23.8659 15.3782 24.4092 15.9216C24.9526 16.4649 25.047 17.1155 25.047 17.4878V19.3685C25.1866 19.2913 25.3386 19.2276 25.5026 19.1807C25.5239 19.1746 25.5454 19.1689 25.567 19.1635C26.7154 18.8764 27.5829 18.5072 28.1116 18.1625C28.2744 18.0563 28.3757 17.9738 28.436 17.9175V17.6638C28.436 17.2915 28.5305 16.6449 29.0698 16.1056C29.6092 15.5662 30.2557 15.4718 30.628 15.4718H32.308C32.6311 15.4718 33.2788 15.5382 33.8368 16.0634C34.4201 16.6124 34.516 17.2909 34.516 17.6638V17.9182C34.5763 17.9745 34.6775 18.0572 34.8404 18.1638C35.3678 18.5085 36.2317 18.8774 37.372 19.1642C38.0671 19.339 38.6282 19.8375 38.8787 20.5055C39.0609 20.9914 39.0537 21.4937 38.9144 21.9342C39.1645 22.0386 39.4188 22.1998 39.6481 22.4425C40.1511 22.9751 40.244 23.5965 40.244 23.9678V25.2798C40.244 25.6511 40.1511 26.2724 39.6481 26.805C39.1254 27.3584 38.4729 27.4878 38.036 27.4878H38.0099C38.1634 27.9305 38.244 28.4077 38.244 28.9118C38.244 30.4902 37.4461 31.8076 36.1053 32.6317C34.8691 33.3914 33.2529 33.6958 31.46 33.6958C29.6737 33.6958 28.061 33.3909 26.8269 32.6305C26.2077 32.249 25.7043 31.7619 25.3422 31.1923ZM38.036 25.4878C38.18 25.4878 38.244 25.4078 38.244 25.2798V23.9678C38.244 23.8775 38.2122 23.8111 38.1429 23.7798C38.1139 23.7667 38.0785 23.7598 38.036 23.7598H32.5V22.2558C32.5 22.2269 32.496 22.2005 32.488 22.1768C32.4607 22.0958 32.3875 22.0478 32.276 22.0478H30.644C30.5453 22.0478 30.4847 22.0954 30.4621 22.1759C30.4554 22.1997 30.452 22.2265 30.452 22.2558V23.7598H24.916C24.8692 23.7598 24.8309 23.7705 24.8012 23.7904C24.7497 23.8248 24.724 23.8867 24.724 23.9678V25.2798C24.724 25.4078 24.788 25.4878 24.916 25.4878H38.036ZM28.452 22.2721C28.4661 22.2667 28.4801 22.2612 28.4941 22.2558C28.8919 22.1003 29.2614 21.9337 29.5977 21.7598C29.7126 21.7004 29.8235 21.6402 29.9304 21.5792C30.1939 21.4291 30.4327 21.2747 30.644 21.1182C30.9551 20.8879 31.2065 20.6532 31.3892 20.4213C31.4201 20.382 31.4491 20.3428 31.476 20.3038C31.5029 20.3428 31.5318 20.3819 31.5626 20.4211C31.7393 20.6458 31.9796 20.8731 32.276 21.0964C32.4945 21.2611 32.7435 21.4236 33.0199 21.5814C33.1254 21.6416 33.2348 21.7011 33.348 21.7598C33.6836 21.9337 34.0528 22.1003 34.4511 22.2558C34.4673 22.2621 34.4837 22.2685 34.5 22.2748C34.8659 22.416 35.256 22.5478 35.6668 22.6675C35.8447 22.7193 36.0266 22.7688 36.212 22.8158C36.34 22.8478 36.42 22.7998 36.468 22.6718L36.996 21.3598C37.044 21.2638 37.012 21.1358 36.884 21.1038C36.8089 21.0849 36.7344 21.0656 36.6606 21.0458C36.6587 21.0453 36.6568 21.0448 36.6549 21.0443C36.4262 20.9831 36.2037 20.918 35.9884 20.8493C35.976 20.8454 35.9637 20.8414 35.9513 20.8374C35.6769 20.749 35.4143 20.6548 35.1653 20.5554C35.1652 20.5553 35.1654 20.5554 35.1653 20.5554C34.2218 20.1788 33.4728 19.7284 33.0154 19.2421C32.8385 19.054 32.7051 18.8606 32.6209 18.6639C32.552 18.5029 32.516 18.3398 32.516 18.1758V17.6638C32.516 17.5358 32.452 17.4718 32.308 17.4718H30.628C30.5 17.4718 30.436 17.5358 30.436 17.6638V18.1758C30.436 18.3398 30.4 18.503 30.3311 18.6639C30.2469 18.8605 30.1135 19.0539 29.9364 19.2419C29.4792 19.7273 28.7309 20.1768 27.786 20.5529C27.786 20.553 27.7861 20.5529 27.786 20.5529C27.5432 20.6496 27.2872 20.7415 27.02 20.8278C26.9984 20.8348 26.9767 20.8417 26.955 20.8486C26.7422 20.9162 26.5224 20.9803 26.2963 21.0407C26.2934 21.0414 26.2905 21.0422 26.2877 21.043C26.2098 21.0637 26.1313 21.084 26.052 21.1038C25.94 21.1358 25.908 21.2638 25.956 21.3598L26.468 22.6718C26.4833 22.7126 26.5035 22.7453 26.528 22.7698C26.5805 22.8223 26.6528 22.8376 26.74 22.8158C26.9222 22.7693 27.1011 22.7203 27.2763 22.6691C27.6897 22.5483 28.0829 22.415 28.452 22.2721ZM27.1834 27.4878C27.0164 27.6923 26.8921 27.917 26.8104 28.1598C26.7314 28.3943 26.692 28.6456 26.692 28.9118C26.692 29.174 26.731 29.4227 26.8091 29.6557C27.2267 30.901 28.7643 31.6958 31.46 31.6958C33.9996 31.6958 35.5115 30.9974 36.0352 29.8842C36.1747 29.5877 36.244 29.2618 36.244 28.9118C36.244 28.5454 36.1695 28.2072 36.0195 27.9023C35.9477 27.7563 35.8586 27.6179 35.7521 27.4878C35.0613 26.6432 33.6389 26.1438 31.46 26.1438C29.292 26.1438 27.8731 26.6432 27.1834 27.4878ZM34.4372 17.8311C34.4377 17.831 34.4417 17.836 34.4475 17.8462C34.4397 17.8363 34.4367 17.8312 34.4372 17.8311ZM28.5153 17.8302C28.5158 17.8303 28.5128 17.8354 28.5048 17.8455C28.5108 17.8352 28.5148 17.8301 28.5153 17.8302ZM30.193 27.8906C30.1966 27.89 30.2003 27.8895 30.2039 27.8889C30.5505 27.8366 30.9662 27.8078 31.46 27.8078C31.9578 27.8078 32.3756 27.8366 32.7229 27.889C32.7262 27.8894 32.7294 27.8899 32.7326 27.8904C33.6811 28.035 34.1015 28.3554 34.1926 28.7409C34.2057 28.7966 34.212 28.8537 34.212 28.9118C34.212 28.9697 34.2054 29.0268 34.1916 29.0828C34.0989 29.459 33.6796 29.7823 32.7386 29.9301C32.7352 29.9306 32.7318 29.9311 32.7283 29.9317C32.3799 29.9857 31.9604 30.0158 31.46 30.0158C30.9636 30.0158 30.5461 29.9857 30.1985 29.9317C30.1947 29.9311 30.1908 29.9305 30.187 29.9299C29.2248 29.7782 28.8019 29.4421 28.7222 29.0538C28.7126 29.0071 28.708 28.9597 28.708 28.9118C28.708 28.8625 28.7127 28.8139 28.7223 28.7663C28.8022 28.3697 29.2268 28.0384 30.193 27.8906Z" fill="#E75719"/>
<defs>
<linearGradient id="paint0_linear_911_4709" x1="4" y1="4" x2="44" y2="44" gradientUnits="userSpaceOnUse">
<stop stop-color="#FFD953"/>
<stop offset="1" stop-color="#FF9669"/>
</linearGradient>
</defs>
</svg>
