<svg width="194" height="139" viewBox="0 0 194 139" fill="none" xmlns="http://www.w3.org/2000/svg">
<path d="M25.9155 7.64007C26.7439 9.07495 25.8646 11.1336 23.9514 12.2381C22.0382 13.3427 19.8157 13.0749 18.9873 11.6401C18.1589 10.2052 19.0382 8.14656 20.9514 7.04199C22.8646 5.93742 25.0871 6.20519 25.9155 7.64007Z" fill="#61647B"/>
<path d="M167.987 7.64007C167.159 9.07495 168.038 11.1336 169.951 12.2381C171.865 13.3427 174.087 13.0749 174.916 11.6401C175.744 10.2052 174.865 8.14656 172.951 7.04199C171.038 5.93742 168.816 6.20519 167.987 7.64007Z" fill="#61647B"/>
<path d="M179.487 24.042C179.487 33.4308 171.876 41.042 162.487 41.042C153.098 41.042 145.487 33.4308 145.487 24.042C145.487 14.6532 153.098 7.04199 162.487 7.04199C171.876 7.04199 179.487 14.6532 179.487 24.042Z" fill="url(#paint0_linear_1941_25922)"/>
<path fill-rule="evenodd" clip-rule="evenodd" d="M173.094 34.6486C178.952 28.7907 178.952 19.2933 173.094 13.4354C167.236 7.57752 157.739 7.57752 151.881 13.4354C146.023 19.2933 146.023 28.7907 151.881 34.6486C157.739 40.5065 167.236 40.5065 173.094 34.6486ZM174.508 36.0628C181.147 29.4239 181.147 18.6601 174.508 12.0212C167.869 5.38226 157.106 5.38226 150.467 12.0212C143.828 18.6601 143.828 29.4239 150.467 36.0628C157.106 42.7017 167.869 42.7017 174.508 36.0628Z" fill="#61647B"/>
<path d="M31.4873 7.04199C40.8761 7.04199 48.4873 14.6531 48.4873 24.042C48.4873 33.4308 40.8761 41.042 31.4873 41.042C22.0985 41.042 14.4873 33.4308 14.4873 24.042C14.4873 14.6531 22.0985 7.04199 31.4873 7.04199Z" fill="url(#paint1_linear_1941_25922)"/>
<path fill-rule="evenodd" clip-rule="evenodd" d="M31.4873 39.042C39.7716 39.042 46.4873 32.3263 46.4873 24.042C46.4873 15.7577 39.7716 9.04199 31.4873 9.04199C23.203 9.04199 16.4873 15.7577 16.4873 24.042C16.4873 32.3263 23.203 39.042 31.4873 39.042ZM31.4873 41.042C40.8761 41.042 48.4873 33.4308 48.4873 24.042C48.4873 14.6532 40.8761 7.04199 31.4873 7.04199C22.0985 7.04199 14.4873 14.6532 14.4873 24.042C14.4873 33.4308 22.0985 41.042 31.4873 41.042Z" fill="#61647B"/>
<path fill-rule="evenodd" clip-rule="evenodd" d="M121.898 122.942C163.25 116.267 193.731 93.2897 193.731 65.9707C193.731 33.4253 150.472 7.04199 97.1091 7.04199C43.7464 7.04199 0.487305 33.4253 0.487305 65.9707C0.487305 98.5161 43.7464 124.899 97.1091 124.899C98.9184 124.899 100.716 124.869 102.501 124.809C112.282 132.056 127.239 137.994 146.681 138.042C140.747 136.458 129.866 130.734 121.898 122.942Z" fill="url(#paint2_radial_1941_25922)"/>
<path fill-rule="evenodd" clip-rule="evenodd" d="M117.403 121.517L121.56 120.846C141.962 117.552 159.564 110.253 172.014 100.524C184.467 90.7933 191.607 78.7785 191.607 65.9707C191.607 50.7198 181.463 36.5668 164.325 26.1148C147.225 15.6854 123.466 9.16555 97.1091 9.16555C70.7526 9.16555 46.9933 15.6854 29.8929 26.1148C12.7554 36.5668 2.61086 50.7198 2.61086 65.9707C2.61086 81.2216 12.7554 95.3746 29.8929 105.827C46.9933 116.256 70.7526 122.776 97.1091 122.776C98.8947 122.776 100.669 122.746 102.43 122.687L103.17 122.662L103.765 123.103C111.087 128.529 121.511 133.249 134.744 135.093C129.905 132.343 124.743 128.694 120.414 124.46L117.403 121.517ZM140.518 135.696C142.857 136.788 144.974 137.586 146.681 138.042C144.384 138.036 142.15 137.949 139.979 137.786C123.777 136.573 111.126 131.2 102.501 124.809C100.716 124.869 98.9184 124.899 97.1091 124.899C43.7464 124.899 0.487305 98.5161 0.487305 65.9707C0.487305 33.4253 43.7464 7.04199 97.1091 7.04199C150.472 7.04199 193.731 33.4253 193.731 65.9707C193.731 92.7107 164.528 115.291 124.513 122.496C123.646 122.652 122.775 122.8 121.898 122.942C122.534 123.564 123.189 124.173 123.858 124.767C129.16 129.478 135.376 133.296 140.518 135.696Z" fill="#61647B"/>
<path fill-rule="evenodd" clip-rule="evenodd" d="M97.4873 8.54199C97.7634 8.54199 97.9873 8.76585 97.9873 9.04199V14.042C97.9873 14.3181 97.7634 14.542 97.4873 14.542C97.2112 14.542 96.9873 14.3181 96.9873 14.042V9.04199C96.9873 8.76585 97.2112 8.54199 97.4873 8.54199Z" fill="#61647B"/>
<path fill-rule="evenodd" clip-rule="evenodd" d="M136.842 13.5573C137.11 13.6253 137.272 13.8974 137.204 14.1651L135.972 19.0109C135.904 19.2785 135.632 19.4403 135.364 19.3723C135.096 19.3042 134.935 19.0321 135.003 18.7645L136.235 13.9187C136.303 13.651 136.575 13.4892 136.842 13.5573Z" fill="#61647B"/>
<path fill-rule="evenodd" clip-rule="evenodd" d="M173.043 30.6606C173.253 30.8391 173.279 31.1546 173.101 31.3653L169.869 35.1803C169.691 35.391 169.375 35.4172 169.164 35.2387C168.954 35.0602 168.928 34.7447 169.106 34.534L172.338 30.7189C172.516 30.5082 172.832 30.4821 173.043 30.6606Z" fill="#61647B"/>
<path fill-rule="evenodd" clip-rule="evenodd" d="M136.842 118.342C137.11 118.274 137.272 118.001 137.204 117.734L135.972 112.888C135.904 112.62 135.632 112.459 135.364 112.527C135.096 112.595 134.935 112.867 135.003 113.134L136.235 117.98C136.303 118.248 136.575 118.41 136.842 118.342Z" fill="#61647B"/>
<path fill-rule="evenodd" clip-rule="evenodd" d="M173.043 101.238C173.253 101.06 173.279 100.744 173.101 100.534L169.869 96.7186C169.691 96.5079 169.375 96.4818 169.164 96.6603C168.954 96.8388 168.928 97.1543 169.106 97.365L172.338 101.18C172.516 101.391 172.832 101.417 173.043 101.238Z" fill="#61647B"/>
<path fill-rule="evenodd" clip-rule="evenodd" d="M58.364 13.5573C58.0964 13.6253 57.9346 13.8974 58.0027 14.1651L59.2347 19.0109C59.3028 19.2785 59.5749 19.4403 59.8425 19.3723C60.1101 19.3042 60.2719 19.0321 60.2039 18.7645L58.9718 13.9187C58.9038 13.651 58.6317 13.4892 58.364 13.5573Z" fill="#61647B"/>
<path fill-rule="evenodd" clip-rule="evenodd" d="M22.1644 30.6606C21.9537 30.8391 21.9276 31.1546 22.1061 31.3653L25.338 35.1803C25.5165 35.391 25.832 35.4172 26.0427 35.2387C26.2534 35.0602 26.2795 34.7447 26.101 34.534L22.8691 30.7189C22.6906 30.5082 22.3751 30.4821 22.1644 30.6606Z" fill="#61647B"/>
<path fill-rule="evenodd" clip-rule="evenodd" d="M97.7192 123.357C97.4431 123.357 97.2192 123.133 97.2192 122.857V117.857C97.2192 117.581 97.4431 117.357 97.7192 117.357C97.9954 117.357 98.2192 117.581 98.2192 117.857V122.857C98.2192 123.133 97.9954 123.357 97.7192 123.357Z" fill="#61647B"/>
<path fill-rule="evenodd" clip-rule="evenodd" d="M58.364 118.342C58.0964 118.274 57.9346 118.001 58.0027 117.734L59.2347 112.888C59.3028 112.62 59.5749 112.459 59.8425 112.527C60.1101 112.595 60.2719 112.867 60.2039 113.134L58.9718 117.98C58.9038 118.248 58.6317 118.41 58.364 118.342Z" fill="#61647B"/>
<path fill-rule="evenodd" clip-rule="evenodd" d="M22.1644 101.238C21.9537 101.06 21.9276 100.744 22.1061 100.534L25.338 96.7186C25.5165 96.5079 25.832 96.4818 26.0427 96.6603C26.2534 96.8388 26.2795 97.1543 26.101 97.365L22.8691 101.18C22.6906 101.391 22.3751 101.417 22.1644 101.238Z" fill="#61647B"/>
<path fill-rule="evenodd" clip-rule="evenodd" d="M191.987 66.042C191.987 66.3181 191.763 66.542 191.487 66.542L186.487 66.542C186.211 66.542 185.987 66.3181 185.987 66.042C185.987 65.7658 186.211 65.542 186.487 65.542L191.487 65.542C191.763 65.542 191.987 65.7658 191.987 66.042Z" fill="#61647B"/>
<path fill-rule="evenodd" clip-rule="evenodd" d="M7.9873 66.042C7.9873 66.3181 7.76345 66.542 7.4873 66.542L2.4873 66.542C2.21116 66.542 1.9873 66.3181 1.9873 66.042C1.9873 65.7658 2.21116 65.542 2.4873 65.542L7.4873 65.542C7.76345 65.542 7.9873 65.7658 7.9873 66.042Z" fill="#61647B"/>
<defs>
<linearGradient id="paint0_linear_1941_25922" x1="145" y1="8.5" x2="183" y2="39.5" gradientUnits="userSpaceOnUse">
<stop offset="0.197917" stop-color="#FFA6A6"/>
<stop offset="0.666667" stop-color="#FF6C4B"/>
</linearGradient>
<linearGradient id="paint1_linear_1941_25922" x1="14" y1="30" x2="48" y2="16.5" gradientUnits="userSpaceOnUse">
<stop offset="0.197917" stop-color="#FFA6A6"/>
<stop offset="0.666667" stop-color="#FF6C4B"/>
</linearGradient>
<radialGradient id="paint2_radial_1941_25922" cx="0" cy="0" r="1" gradientUnits="userSpaceOnUse" gradientTransform="translate(97.1091 35.71) rotate(90) scale(112.018 165.242)">
<stop offset="0.571032" stop-color="white"/>
<stop offset="0.711981" stop-color="#D4D6E2"/>
<stop offset="0.767739" stop-color="white"/>
<stop offset="0.823497" stop-color="#D4D6E2"/>
<stop offset="0.907134" stop-color="#8D8D8D"/>
</radialGradient>
</defs>
</svg>
