<svg width="174" height="49" viewBox="0 0 174 49" fill="none" xmlns="http://www.w3.org/2000/svg">
<path fill-rule="evenodd" clip-rule="evenodd" d="M24.4713 3C12.0607 3 2 13.2975 2 26C2 38.7025 12.0607 49 24.4713 49C29.1847 49 33.5593 47.5146 37.1724 44.9763C40.7856 47.5146 45.1601 49 49.8736 49C54.3766 49 58.5702 47.6443 62.0862 45.31C65.6022 47.6443 69.7958 49 74.2989 49C79.0123 49 83.3869 47.5146 87 44.9763C90.6131 47.5146 94.9877 49 99.7011 49C104.629 49 109.187 47.3764 112.891 44.6233C116.595 47.3764 121.152 49 126.08 49C130.377 49 134.391 47.7659 137.805 45.6253C141.218 47.7659 145.232 49 149.529 49C161.939 49 172 38.7025 172 26C172 13.2975 161.939 3 149.529 3C145.232 3 141.218 4.23405 137.805 6.37474C134.391 4.23405 130.377 3 126.08 3C121.152 3 116.595 4.62363 112.891 7.37675C109.187 4.62363 104.629 3 99.7011 3C94.9877 3 90.6131 4.48536 87 7.0237C83.3869 4.48536 79.0123 3 74.2989 3C69.7958 3 65.6022 4.35568 62.0862 6.69002C58.5702 4.35568 54.3766 3 49.8736 3C45.1601 3 40.7856 4.48536 37.1724 7.0237C33.5593 4.48536 29.1847 3 24.4713 3Z" fill="#55308F"/>
<path fill-rule="evenodd" clip-rule="evenodd" d="M23 0C10.2975 0 0 10.2975 0 23C0 35.7025 10.2975 46 23 46C27.8244 46 32.3018 44.5146 36 41.9763C39.6982 44.5146 44.1756 46 49 46C53.609 46 57.9013 44.6443 61.5 42.31C65.0987 44.6443 69.391 46 74 46C78.8244 46 83.3018 44.5146 87 41.9763C90.6982 44.5146 95.1756 46 100 46C105.044 46 109.709 44.3764 113.5 41.6233C117.291 44.3764 121.956 46 127 46C131.397 46 135.507 44.7659 139 42.6253C142.493 44.7659 146.603 46 151 46C163.703 46 174 35.7025 174 23C174 10.2975 163.703 0 151 0C146.603 0 142.493 1.23405 139 3.37474C135.507 1.23405 131.397 0 127 0C121.956 0 117.291 1.62363 113.5 4.37675C109.709 1.62363 105.044 0 100 0C95.1756 0 90.6982 1.48536 87 4.0237C83.3018 1.48536 78.8244 0 74 0C69.391 0 65.0987 1.35568 61.5 3.69002C57.9013 1.35568 53.609 0 49 0C44.1756 0 39.6982 1.48536 36 4.0237C32.3018 1.48536 27.8244 0 23 0Z" fill="white"/>
<path fill-rule="evenodd" clip-rule="evenodd" d="M36 39.5505L37.1318 40.3274C40.5075 42.6443 44.5924 44 49 44C53.2111 44 57.1272 42.7626 60.4116 40.6321L61.5 39.9261L62.5884 40.6321C65.8728 42.7626 69.7888 44 74 44C78.4076 44 82.4925 42.6443 85.8682 40.3274L87 39.5505L88.1318 40.3274C91.5075 42.6443 95.5924 44 100 44C104.608 44 108.864 42.5183 112.325 40.0049L113.5 39.1516L114.675 40.0049C118.136 42.5183 122.392 44 127 44C131.018 44 134.767 42.8734 137.955 40.92L139 40.2796L140.045 40.92C143.233 42.8734 146.982 44 151 44C162.598 44 172 34.598 172 23C172 11.402 162.598 2 151 2C146.982 2 143.233 3.12656 140.045 5.08004L139 5.72035L137.955 5.08004C134.767 3.12656 131.018 2 127 2C122.392 2 118.136 3.4817 114.675 5.99508L113.5 6.84843L112.325 5.99508C108.864 3.4817 104.608 2 100 2C95.5924 2 91.5075 3.35566 88.1318 5.67265L87 6.4495L85.8682 5.67265C82.4925 3.35566 78.4076 2 74 2C69.7888 2 65.8728 3.23744 62.5884 5.36793L61.5 6.07394L60.4116 5.36793C57.1272 3.23744 53.2111 2 49 2C44.5924 2 40.5075 3.35566 37.1318 5.67265L36 6.4495L34.8682 5.67265C31.4925 3.35566 27.4076 2 23 2C11.402 2 2 11.402 2 23C2 34.598 11.402 44 23 44C27.4076 44 31.4925 42.6443 34.8682 40.3274L36 39.5505ZM36 4.0237C39.6982 1.48536 44.1756 0 49 0C53.609 0 57.9013 1.35568 61.5 3.69002C65.0987 1.35568 69.391 0 74 0C78.8244 0 83.3018 1.48536 87 4.0237C90.6982 1.48536 95.1756 0 100 0C105.044 0 109.709 1.62363 113.5 4.37675C117.291 1.62363 121.956 0 127 0C131.397 0 135.507 1.23405 139 3.37474C142.493 1.23405 146.603 0 151 0C163.703 0 174 10.2975 174 23C174 35.7025 163.703 46 151 46C146.603 46 142.493 44.7659 139 42.6253C135.507 44.7659 131.397 46 127 46C121.956 46 117.291 44.3764 113.5 41.6233C109.709 44.3764 105.044 46 100 46C95.1756 46 90.6982 44.5146 87 41.9763C83.3018 44.5146 78.8244 46 74 46C69.391 46 65.0987 44.6443 61.5 42.31C57.9013 44.6443 53.609 46 49 46C44.1756 46 39.6982 44.5146 36 41.9763C32.3018 44.5146 27.8244 46 23 46C10.2975 46 0 35.7025 0 23C0 10.2975 10.2975 0 23 0C27.8244 0 32.3018 1.48536 36 4.0237Z" fill="#55308F"/>
<path fill-rule="evenodd" clip-rule="evenodd" d="M23 4C12.5066 4 4 12.5066 4 23C4 33.4934 12.5066 42 23 42C28.0289 42 32.6014 40.0463 36 36.8565C39.3986 40.0463 43.9711 42 49 42C53.7862 42 58.1591 40.2303 61.5 37.3094C64.8409 40.2303 69.2138 42 74 42C79.0288 42 83.6014 40.0463 87 36.8565C90.3986 40.0463 94.9712 42 100 42C105.28 42 110.057 39.8464 113.5 36.3697C116.943 39.8464 121.72 42 127 42C131.551 42 135.728 40.3999 139 37.7317C142.272 40.3999 146.449 42 151 42C161.493 42 170 33.4934 170 23C170 12.5066 161.493 4 151 4C146.449 4 142.272 5.60006 139 8.26832C135.728 5.60006 131.551 4 127 4C121.72 4 116.943 6.15359 113.5 9.63026C110.057 6.15359 105.28 4 100 4C94.9712 4 90.3986 5.95371 87 9.14351C83.6014 5.95371 79.0288 4 74 4C69.2138 4 64.8409 5.76975 61.5 8.69056C58.1591 5.76975 53.7862 4 49 4C43.9711 4 39.3986 5.95371 36 9.14351C32.6014 5.95371 28.0289 4 23 4Z" fill="url(#paint0_linear_1190_6511)"/>
<path d="M74.8484 19.1279H77.1344C77.3144 19.1279 77.3864 19.2179 77.3864 19.3799V20.9279C77.3864 21.0899 77.3144 21.1619 77.1344 21.1619H74.8484V24.4019C74.8484 24.5459 74.7764 24.6179 74.5964 24.6179H72.7604C72.6164 24.6179 72.5444 24.5459 72.5444 24.4019V15.9239C72.5444 15.7799 72.6164 15.6899 72.7604 15.6899H74.5964C74.7764 15.6899 74.8484 15.7799 74.8484 15.9239V19.1279ZM70.5824 16.7519V23.6819C70.5824 23.8079 70.5284 23.8979 70.3664 23.8979H62.7344C62.5544 23.8979 62.4824 23.8079 62.4824 23.6819V16.7519C62.4824 16.6079 62.5544 16.5179 62.7344 16.5179H64.5164C64.6784 16.5179 64.7504 16.6079 64.7504 16.7519V18.4619H68.3504V16.7519C68.3504 16.6079 68.4044 16.5179 68.5664 16.5179H70.3664C70.5284 16.5179 70.5824 16.6079 70.5824 16.7519ZM64.7504 20.3159V21.9719H68.3504V20.3159H64.7504ZM69.5924 25.0319C73.1564 25.0319 75.0104 26.4179 75.0104 28.3619C75.0104 30.2699 73.1564 31.6739 69.5924 31.6739C66.0104 31.6739 64.1564 30.2879 64.1564 28.3619C64.1564 26.4179 66.0104 25.0319 69.5924 25.0319ZM69.5924 29.7479C71.8424 29.7479 72.7244 29.1179 72.7244 28.3619C72.7244 27.6059 71.8424 26.9759 69.5924 26.9759C67.3424 26.9759 66.4424 27.6059 66.4424 28.3619C66.4424 29.1179 67.3424 29.7479 69.5924 29.7479Z" fill="white"/>
<path d="M90.0321 23.3039H96.2601C96.4221 23.3039 96.4941 23.4119 96.4941 23.5559V25.0139C96.4941 25.1399 96.4221 25.2299 96.2601 25.2299H81.5001C81.3561 25.2299 81.2841 25.1399 81.2841 25.0139V23.5559C81.2841 23.4119 81.3561 23.3039 81.5001 23.3039H87.7281V22.0079H83.7501C83.5881 22.0079 83.5341 21.9179 83.5341 21.7739V16.4639C83.5341 16.3379 83.5881 16.2479 83.7501 16.2479H93.9921C94.1541 16.2479 94.2261 16.3379 94.2261 16.4639V21.7739C94.2261 21.9179 94.1541 22.0079 93.9921 22.0079H90.0321V23.3039ZM91.9401 18.1379H85.8021V20.1179H91.9401V18.1379ZM83.4261 26.2559H94.2081C94.3701 26.2559 94.4241 26.3279 94.4241 26.4719V31.4759C94.4241 31.6019 94.3701 31.6919 94.2081 31.6919H92.3721C92.2101 31.6919 92.1381 31.6019 92.1381 31.4759V28.1639H83.4261C83.2641 28.1639 83.1921 28.0739 83.1921 27.9479V26.4719C83.1921 26.3279 83.2641 26.2559 83.4261 26.2559Z" fill="white"/>
<path d="M105.743 24.1679H111.971C112.133 24.1679 112.205 24.2579 112.205 24.4019V25.8059C112.205 25.9319 112.133 26.0219 111.971 26.0219H97.2107C97.0667 26.0219 96.9947 25.9319 96.9947 25.8059V24.4019C96.9947 24.2579 97.0667 24.1679 97.2107 24.1679H103.439V23.1239H99.5147C99.3527 23.1239 99.2807 23.0339 99.2807 22.8899V19.0019C99.2807 18.8759 99.3527 18.7679 99.5147 18.7679H107.633V17.9759H99.4787C99.3167 17.9759 99.2627 17.8859 99.2627 17.7239V16.3919C99.2627 16.2659 99.3167 16.1759 99.4787 16.1759H109.667C109.829 16.1759 109.901 16.2659 109.901 16.3919V20.2799C109.901 20.4059 109.811 20.5139 109.649 20.5139H101.549V21.3599H110.045C110.189 21.3599 110.279 21.4499 110.279 21.5939V22.8899C110.279 23.0339 110.189 23.1239 110.045 23.1239H105.743V24.1679ZM99.2267 26.8499H109.811C109.973 26.8499 110.045 26.9399 110.045 27.0839V31.4759C110.045 31.6019 109.973 31.6919 109.811 31.6919H107.993C107.831 31.6919 107.759 31.6019 107.759 31.4759V28.6679H99.2267C99.0648 28.6679 98.9927 28.5779 98.9927 28.4519V27.0839C98.9927 26.9399 99.0648 26.8499 99.2267 26.8499Z" fill="white"/>
<path fill-rule="evenodd" clip-rule="evenodd" d="M72.5444 24.4019C72.5444 24.5459 72.6164 24.6179 72.7604 24.6179H74.5964C74.7764 24.6179 74.8484 24.5459 74.8484 24.4019V21.1619H77.1344C77.3144 21.1619 77.3864 21.0899 77.3864 20.9279V19.3799C77.3864 19.2179 77.3144 19.1279 77.1344 19.1279H74.8484V15.9239C74.8484 15.7799 74.7764 15.6899 74.5964 15.6899H72.7604C72.6164 15.6899 72.5444 15.7799 72.5444 15.9239V24.4019ZM77.8484 16.2038V15.9239C77.8484 15.3895 77.7128 14.4332 76.9112 13.6316C76.1097 12.8301 75.1489 12.6899 74.5964 12.6899H72.7604C72.1131 12.6899 71.2788 12.8902 70.5866 13.5256C70.5088 13.5202 70.4351 13.5179 70.3664 13.5179H68.5664C68.0493 13.5179 67.2505 13.648 66.5442 14.2159C65.8438 13.6563 65.0574 13.5179 64.5164 13.5179H62.7344C62.182 13.5179 61.2211 13.6581 60.4196 14.4596C59.6181 15.2612 59.4824 16.2175 59.4824 16.7519V23.6819C59.4824 24.3083 59.6734 25.2555 60.4811 26.0182C60.7828 26.3032 61.1042 26.4992 61.417 26.6325C61.2468 27.1751 61.1564 27.7542 61.1564 28.3619C61.1564 30.4402 62.2214 32.1762 63.9061 33.2619C65.4744 34.2726 67.4721 34.6739 69.5924 34.6739C71.7134 34.6739 73.7067 34.2645 75.2703 33.2505C76.9415 32.1666 78.0104 30.436 78.0104 28.3619C78.0104 27.4826 77.8213 26.6632 77.4751 25.9277C77.7863 25.3384 77.8484 24.759 77.8484 24.4019V24.0884C77.985 24.0596 78.1317 24.0199 78.2841 23.9652V25.0139C78.2841 25.6311 78.4656 26.4944 79.1535 27.2253C79.4724 27.5641 79.8301 27.8003 80.1921 27.9581C80.1942 28.5787 80.3819 29.4794 81.1271 30.2245C81.8821 30.9796 82.7979 31.1639 83.4261 31.1639H89.1381V31.4759C89.1381 32.0968 89.3238 33.0033 90.0731 33.7525C90.8281 34.5076 91.7439 34.6919 92.3721 34.6919H94.2081C94.838 34.6919 95.8451 34.5016 96.6264 33.6161C97.3436 32.8033 97.4241 31.8975 97.4241 31.4759V31.1347C98.0573 31.5533 98.7314 31.6679 99.2267 31.6679H104.765C104.801 32.2744 105.018 33.0773 105.694 33.7525C106.449 34.5076 107.365 34.6919 107.993 34.6919H109.811C110.439 34.6919 111.355 34.5076 112.11 33.7525C112.859 33.0033 113.045 32.0968 113.045 31.4759V28.845C113.455 28.7057 113.884 28.4688 114.27 28.0825C115.019 27.3333 115.205 26.4268 115.205 25.8059V24.4019C115.205 23.869 115.071 22.9565 114.33 22.1711C113.999 21.821 113.634 21.5867 113.275 21.4332C113.253 21.0045 113.145 20.5243 112.901 20.0629V16.3919C112.901 15.7711 112.715 14.8646 111.966 14.1154C111.211 13.3603 110.295 13.1759 109.667 13.1759H99.4787C98.8488 13.1759 97.8418 13.3663 97.0605 14.2518C96.9253 14.405 96.8128 14.5615 96.7191 14.7174C96.6026 14.5361 96.4615 14.3577 96.2912 14.1874C95.5361 13.4323 94.6203 13.2479 93.9921 13.2479H83.7501C83.1202 13.2479 82.1132 13.4383 81.3319 14.3238C80.6147 15.1366 80.5341 16.0424 80.5341 16.4639V20.4512C80.4846 20.4666 80.4354 20.4833 80.3864 20.5012V19.3799C80.3864 18.9201 80.2917 17.9595 79.5058 17.13C78.9743 16.5689 78.3626 16.3136 77.8484 16.2038ZM81.5001 23.3039C81.3561 23.3039 81.2841 23.4119 81.2841 23.5559V25.0139C81.2841 25.1399 81.3561 25.2299 81.5001 25.2299H96.2601C96.4221 25.2299 96.4941 25.1399 96.4941 25.0139V23.5559C96.4941 23.4267 96.4361 23.3265 96.3071 23.3073C96.2924 23.3051 96.2767 23.3039 96.2601 23.3039H90.0321V22.0079H93.9921C94.1541 22.0079 94.2261 21.9179 94.2261 21.7739V16.4639C94.2261 16.3379 94.1541 16.2479 93.9921 16.2479H83.7501C83.5881 16.2479 83.5341 16.3379 83.5341 16.4639V21.7739C83.5341 21.9179 83.5881 22.0079 83.7501 22.0079H87.7281V23.3039H81.5001ZM91.9401 20.1179V18.1379H85.8021V20.1179H91.9401ZM97.2107 24.1679C97.0667 24.1679 96.9947 24.2579 96.9947 24.4019V25.8059C96.9947 25.9319 97.0667 26.0219 97.2107 26.0219H111.971C112.133 26.0219 112.205 25.9319 112.205 25.8059V24.4019C112.205 24.2579 112.133 24.1679 111.971 24.1679H105.743V23.1239H110.045C110.137 23.1239 110.208 23.0868 110.246 23.0219C110.267 22.9859 110.279 22.9414 110.279 22.8899V21.5939C110.279 21.4499 110.189 21.3599 110.045 21.3599H101.549V20.5139H109.649C109.811 20.5139 109.901 20.4059 109.901 20.2799V16.3919C109.901 16.2659 109.829 16.1759 109.667 16.1759H99.4787C99.3167 16.1759 99.2627 16.2659 99.2627 16.3919V17.7239C99.2627 17.8859 99.3167 17.9759 99.4787 17.9759H107.633V18.7679H99.5147C99.5022 18.7679 99.4902 18.7686 99.4787 18.7698C99.342 18.7848 99.2807 18.8857 99.2807 19.0019V22.8899C99.2807 22.9414 99.2899 22.9859 99.3091 23.0219C99.3379 23.0759 99.3892 23.1108 99.4657 23.1209C99.481 23.1229 99.4974 23.1239 99.5147 23.1239H103.439V24.1679H97.2107ZM110.045 27.0839C110.045 26.9399 109.973 26.8499 109.811 26.8499H99.2267C99.0647 26.8499 98.9927 26.9399 98.9927 27.0839V28.4519C98.9927 28.5779 99.0647 28.6679 99.2267 28.6679H107.759V31.4759C107.759 31.6019 107.831 31.6919 107.993 31.6919H109.811C109.973 31.6919 110.045 31.6019 110.045 31.4759V27.0839ZM94.4241 26.4719C94.4241 26.3958 94.409 26.3398 94.3709 26.3039C94.3369 26.2719 94.2845 26.2559 94.2081 26.2559H83.4261C83.3498 26.2559 83.2934 26.2719 83.2551 26.3039C83.2122 26.3398 83.1921 26.3958 83.1921 26.4719V27.9479C83.1921 28.0739 83.2641 28.1639 83.4261 28.1639H92.1381V31.4759C92.1381 31.6019 92.2101 31.6919 92.3721 31.6919H94.2081C94.3701 31.6919 94.4241 31.6019 94.4241 31.4759V26.4719ZM64.577 26.8979C64.2975 27.3319 64.1564 27.8257 64.1564 28.3619C64.1564 30.2879 66.0104 31.6739 69.5924 31.6739C73.1564 31.6739 75.0104 30.2699 75.0104 28.3619C75.0104 28.0984 74.9764 27.8452 74.9086 27.6042C74.8395 27.3585 74.7353 27.1256 74.5964 26.9076C74.2563 26.3739 73.7082 25.9301 72.9576 25.6084C72.8934 25.5809 72.8276 25.5542 72.7604 25.5285C72.1029 25.2769 71.3038 25.1127 70.3664 25.055C70.1219 25.04 69.868 25.0322 69.6047 25.0319C69.6006 25.0319 69.5965 25.0319 69.5924 25.0319C66.9985 25.0319 65.3108 25.7587 64.577 26.8979ZM68.9345 26.9958C67.1652 27.1082 66.4424 27.6845 66.4424 28.3619C66.4424 29.0394 67.1652 29.6157 68.9345 29.7281C69.1396 29.7411 69.3587 29.7479 69.5924 29.7479C69.8212 29.7479 70.0358 29.7414 70.2368 29.7289C72.0127 29.6185 72.7244 29.0411 72.7244 28.3619C72.7244 28.0775 72.5995 27.8108 72.3239 27.5889C72.037 27.3579 71.5868 27.1754 70.9441 27.0715C70.7301 27.0369 70.4946 27.011 70.2368 26.9949C70.0358 26.9825 69.8212 26.9759 69.5924 26.9759C69.3587 26.9759 69.1396 26.9827 68.9345 26.9958ZM70.5824 16.7519C70.5824 16.6079 70.5284 16.5179 70.3664 16.5179H68.5664C68.4044 16.5179 68.3504 16.6079 68.3504 16.7519V18.4619H64.7504V16.7519C64.7504 16.6079 64.6784 16.5179 64.5164 16.5179H62.7344C62.5544 16.5179 62.4824 16.6079 62.4824 16.7519V23.6819C62.4824 23.8079 62.5544 23.8979 62.7344 23.8979H70.3664C70.5284 23.8979 70.5824 23.8079 70.5824 23.6819V16.7519ZM68.3504 20.3159H64.7504V21.9719H68.3504V20.3159Z" fill="#55308F"/>
<defs>
<linearGradient id="paint0_linear_1190_6511" x1="87" y1="4" x2="87" y2="42" gradientUnits="userSpaceOnUse">
<stop stop-color="#E3CDFF"/>
<stop offset="0.385417" stop-color="#BD9DE7"/>
<stop offset="1" stop-color="#7A48BA"/>
</linearGradient>
</defs>
</svg>
