<svg width="52" height="62" viewBox="0 0 52 62" fill="none" xmlns="http://www.w3.org/2000/svg">
<circle cx="26" cy="24" r="24" fill="url(#paint0_radial_912_6597)"/>
<path d="M19.2969 24.3594C19.2969 24.0312 19.4115 23.7526 19.6406 23.5234C19.875 23.2891 20.1562 23.1719 20.4844 23.1719H24.8203V18.8438C24.8203 18.5156 24.9349 18.237 25.1641 18.0078C25.3932 17.7734 25.6719 17.6562 26 17.6562C26.3281 17.6562 26.6068 17.7734 26.8359 18.0078C27.0703 18.237 27.1875 18.5156 27.1875 18.8438V23.1719H31.5234C31.8464 23.1719 32.1224 23.2891 32.3516 23.5234C32.5859 23.7526 32.7031 24.0312 32.7031 24.3594C32.7031 24.6875 32.5859 24.9688 32.3516 25.2031C32.1224 25.4323 31.8464 25.5469 31.5234 25.5469H27.1875V29.8828C27.1875 30.2057 27.0703 30.4818 26.8359 30.7109C26.6068 30.9453 26.3281 31.0625 26 31.0625C25.6719 31.0625 25.3932 30.9453 25.1641 30.7109C24.9349 30.4818 24.8203 30.2057 24.8203 29.8828V25.5469H20.4844C20.1562 25.5469 19.875 25.4323 19.6406 25.2031C19.4115 24.9688 19.2969 24.6875 19.2969 24.3594Z" fill="url(#paint1_linear_912_6597)"/>
<rect x="1" y="42" width="50" height="19" rx="9.5" fill="url(#paint2_linear_912_6597)" stroke="url(#paint3_linear_912_6597)" stroke-width="2"/>
<path d="M8.44213 52.272L8.07913 51.414C8.05713 51.337 8.06813 51.249 8.15613 51.227C10.0481 50.721 11.3681 49.929 11.3901 49.093H8.39813C8.31013 49.093 8.26613 49.049 8.26613 48.961V48.015C8.26613 47.938 8.31013 47.872 8.39813 47.872H11.3901V46.805C11.3901 46.717 11.4341 46.673 11.5221 46.673H12.6661C12.7651 46.673 12.8091 46.717 12.8091 46.805V47.872H15.7901C15.8891 47.872 15.9331 47.938 15.9331 48.015V48.961C15.9331 49.049 15.8891 49.093 15.7901 49.093H12.8091C12.8311 49.929 14.1401 50.721 16.0321 51.227C16.1201 51.249 16.1421 51.337 16.1091 51.414L15.7461 52.272C15.7131 52.36 15.6581 52.393 15.5701 52.371C14.0521 51.986 12.6881 51.348 12.0941 50.721C11.5001 51.348 10.1361 51.986 8.61813 52.371C8.54113 52.393 8.48613 52.36 8.44213 52.272ZM12.8091 53.757H16.6041C16.7031 53.757 16.7471 53.812 16.7471 53.9V54.868C16.7471 54.945 16.7031 55 16.6041 55H7.58413C7.49613 55 7.45213 54.945 7.45213 54.868V53.9C7.45213 53.812 7.49613 53.757 7.58413 53.757H11.4011V52.228C11.4011 52.151 11.4451 52.096 11.5331 52.096H12.6551C12.7651 52.096 12.8091 52.151 12.8091 52.228V53.757ZM24.6101 46.255H25.7211C25.8201 46.255 25.8531 46.31 25.8531 46.398V55.792C25.8531 55.88 25.8201 55.924 25.7211 55.924H24.6101C24.5221 55.924 24.4781 55.88 24.4781 55.792V50.952H23.5871V55.495C23.5871 55.583 23.5431 55.638 23.4551 55.638H22.3661C22.2671 55.638 22.2231 55.583 22.2231 55.495V46.607C22.2231 46.519 22.2671 46.464 22.3661 46.464H23.4551C23.5431 46.464 23.5871 46.519 23.5871 46.607V49.709H24.4781V46.398C24.4781 46.31 24.5221 46.255 24.6101 46.255ZM21.6181 52.305L21.7501 53.24C21.7611 53.317 21.7391 53.35 21.6291 53.372C20.9581 53.548 19.7701 53.647 18.9011 53.647H17.4711C17.3721 53.647 17.3281 53.592 17.3281 53.515V47.476C17.3281 47.399 17.3721 47.344 17.4711 47.344H21.0901C21.1781 47.344 21.2221 47.399 21.2221 47.476V48.422C21.2221 48.51 21.1781 48.554 21.0901 48.554H18.7031V52.415H19.0551C19.7371 52.415 20.7491 52.327 21.4421 52.184C21.5411 52.162 21.6071 52.206 21.6181 52.305ZM34.629 49.984H36.026C36.136 49.984 36.18 50.039 36.18 50.127V51.095C36.18 51.172 36.136 51.227 36.026 51.227H34.629V55.792C34.629 55.88 34.585 55.924 34.475 55.924H33.353C33.265 55.924 33.221 55.88 33.221 55.792V46.398C33.221 46.31 33.265 46.255 33.353 46.255H34.475C34.585 46.255 34.629 46.31 34.629 46.398V49.984ZM30.328 47.817H32.385C32.484 47.817 32.528 47.872 32.528 47.96V48.895C32.528 48.983 32.484 49.038 32.385 49.038H26.852C26.753 49.038 26.72 48.983 26.72 48.895V47.96C26.72 47.872 26.753 47.817 26.852 47.817H28.92V46.684C28.92 46.607 28.964 46.552 29.074 46.552H30.185C30.284 46.552 30.328 46.607 30.328 46.684V47.817ZM29.635 49.599C31.186 49.599 32.176 50.501 32.176 51.964C32.176 53.416 31.186 54.307 29.635 54.307C28.095 54.307 27.116 53.416 27.116 51.964C27.116 50.501 28.095 49.599 29.635 49.599ZM29.646 53.152C30.372 53.152 30.801 52.646 30.801 51.964C30.801 51.26 30.372 50.754 29.646 50.754C28.92 50.754 28.491 51.26 28.491 51.964C28.491 52.646 28.92 53.152 29.646 53.152ZM44.5599 55.924H43.4379C43.3389 55.924 43.2949 55.88 43.2949 55.792V46.398C43.2949 46.31 43.3389 46.255 43.4379 46.255H44.5599C44.6699 46.255 44.7139 46.31 44.7139 46.398V55.792C44.7139 55.88 44.6699 55.924 44.5599 55.924ZM37.5309 53.845C37.4319 53.889 37.3769 53.878 37.3219 53.801L36.8049 52.888C36.7499 52.8 36.7719 52.734 36.8599 52.69C39.2359 51.535 40.2149 50.413 40.2149 48.752V48.532H37.1349C37.0469 48.532 37.0029 48.488 37.0029 48.4V47.432C37.0029 47.344 37.0469 47.289 37.1349 47.289H41.4909C41.6009 47.289 41.6339 47.344 41.6339 47.432V48.752C41.6339 50.875 40.3139 52.47 37.5309 53.845Z" fill="white"/>
<defs>
<radialGradient id="paint0_radial_912_6597" cx="0" cy="0" r="1" gradientUnits="userSpaceOnUse" gradientTransform="translate(26 24) rotate(90) scale(24)">
<stop offset="0.520833" stop-color="white"/>
<stop offset="0.822917" stop-color="#F8EFEF"/>
<stop offset="1" stop-color="#DFD0D0"/>
</radialGradient>
<linearGradient id="paint1_linear_912_6597" x1="26" y1="16" x2="26" y2="32" gradientUnits="userSpaceOnUse">
<stop stop-color="#F2A2A2"/>
<stop offset="1" stop-color="#C45151"/>
</linearGradient>
<linearGradient id="paint2_linear_912_6597" x1="26" y1="43" x2="26" y2="60" gradientUnits="userSpaceOnUse">
<stop stop-color="#F89E9E"/>
<stop offset="1" stop-color="#DA4F4F"/>
</linearGradient>
<linearGradient id="paint3_linear_912_6597" x1="26" y1="43" x2="26" y2="60" gradientUnits="userSpaceOnUse">
<stop stop-color="white"/>
<stop offset="0.0001" stop-color="white" stop-opacity="0.989583"/>
<stop offset="1" stop-color="white" stop-opacity="0"/>
</linearGradient>
</defs>
</svg>
