<svg width="360" height="330" viewBox="0 0 360 330" fill="none" xmlns="http://www.w3.org/2000/svg">
<path d="M0 5.99999C0 2.68629 2.68629 0 6 0H354C357.314 0 360 2.68629 360 6V324C360 327.314 357.314 330 354 330H5.99999C2.68629 330 0 327.314 0 324V5.99999Z" fill="url(#paint0_radial_1610_1718)"/>
<g opacity="0.5">
<mask id="mask0_1610_1718" style="mask-type:alpha" maskUnits="userSpaceOnUse" x="0" y="0" width="360" height="330">
<path d="M0 5.99999C0 2.68629 2.68629 0 6 0H354C357.314 0 360 2.68629 360 6V324C360 327.314 357.314 330 354 330H5.99999C2.68629 330 0 327.314 0 324V5.99999Z" fill="white"/>
</mask>
<g mask="url(#mask0_1610_1718)">
<path d="M273.25 40.368C247.362 52.8586 205.388 52.8586 179.5 40.368C153.612 27.8773 111.638 27.8773 85.75 40.368C59.8616 52.8586 17.8884 52.8586 -8 40.368V288.632C17.8884 301.123 59.8616 301.123 85.75 288.632C111.638 276.141 153.612 276.141 179.5 288.632C205.388 301.123 247.362 301.123 273.25 288.632C299.138 276.141 341.112 276.141 367 288.632V40.368C341.112 27.8773 299.138 27.8773 273.25 40.368Z" fill="url(#paint1_linear_1610_1718)"/>
</g>
</g>
<path opacity="0.84" d="M187.896 75.3996C188.155 76.0694 187.756 76.8059 187.06 76.9538C185.828 77.2165 184.539 77.7354 183.453 78.2153C180.146 79.6734 177.637 82.2552 175.619 86.1032C173.602 89.951 172.734 93.9485 173.396 97.5341C174.059 101.119 176.251 104.292 179.28 105.915C182.309 107.537 186.384 106.855 189.691 105.397C192.998 103.938 195.537 101.704 197.554 97.856C199.572 94.0082 199.932 91.5581 199.883 88.5457C199.86 87.0472 199.07 84.0633 198.8 83.2876C197.565 79.7445 187.413 53.4502 182.545 40.9285C182.347 40.4186 181.777 40.1645 181.272 40.3596L176.178 42.3272C175.671 42.5227 175.421 43.0954 175.618 43.6062L187.896 75.3994L187.896 75.3996Z" fill="white"/>
<path d="M331.614 202.98C331.721 202.557 332.177 202.332 332.574 202.503C333.277 202.806 334.098 203.001 334.805 203.145C336.956 203.584 339.106 203.186 341.458 201.988C343.809 200.791 345.643 199.115 346.575 197.105C347.506 195.096 347.534 192.753 346.603 190.886C345.672 189.017 343.413 187.924 341.262 187.485C339.111 187.046 337.068 187.261 334.717 188.459C332.365 189.657 331.326 190.745 330.292 192.255C329.778 193.005 329.121 194.761 328.982 195.241C328.349 197.43 324.143 214.026 322.156 221.94C322.075 222.262 322.269 222.588 322.587 222.669L325.803 223.484C326.123 223.565 326.448 223.369 326.53 223.047L331.614 202.98L331.614 202.98Z" fill="#A2A8BF"/>
<path opacity="0.84" d="M342.637 266.785L318.599 239.759C318.007 239.093 316.915 239.339 316.66 240.195L307.289 271.694C307.088 272.368 306.335 272.7 305.704 272.397C304.584 271.86 303.268 271.489 302.132 271.208C298.676 270.353 295.169 270.847 291.284 272.616C287.399 274.385 284.321 276.96 282.684 280.135C281.048 283.309 280.852 287.082 282.24 290.157C283.628 293.231 287.217 295.148 290.673 296.004C294.128 296.86 297.451 296.652 301.335 294.883C305.22 293.114 306.973 291.433 308.744 289.07C309.625 287.896 310.802 285.111 311.057 284.348C312.51 280.001 315.38 270.232 317.395 263.287C317.645 262.426 318.741 262.177 319.335 262.844L332.236 277.349C332.643 277.806 332.784 278.441 332.609 279.029L327.77 295.294C327.57 295.968 326.817 296.299 326.185 295.996C325.066 295.459 323.749 295.088 322.614 294.808C319.158 293.952 315.651 294.446 311.766 296.215C307.881 297.985 304.803 300.56 303.166 303.734C301.529 306.909 301.334 310.682 302.722 313.756C304.11 316.83 307.699 318.748 311.155 319.603C314.611 320.459 317.932 320.252 321.817 318.483C325.702 316.713 327.454 315.032 329.226 312.67C330.107 311.495 331.284 308.71 331.539 307.947C333.12 303.217 339.234 282.472 343.155 269.097C343.393 268.287 343.197 267.414 342.638 266.785L342.637 266.785Z" fill="white"/>
<path d="M37.7445 309.724L59.7031 310.407C60.2439 310.424 60.5918 309.84 60.3206 309.37L50.3397 292.082C50.1261 291.713 50.2944 291.242 50.6919 291.09C51.3959 290.82 52.1094 290.395 52.7076 290.011C54.5279 288.844 55.7745 287.09 56.6167 284.638C57.4586 282.186 57.6081 279.753 56.8913 277.705C56.1746 275.658 54.5919 273.996 52.6562 273.324C50.7204 272.653 48.3762 273.435 46.5557 274.602C44.7354 275.769 43.4395 277.321 42.5976 279.773C41.7557 282.225 41.7656 283.701 42.0678 285.468C42.2179 286.348 42.955 288.029 43.1851 288.461C44.4957 290.916 47.6058 296.262 49.8278 300.051C50.1033 300.521 49.7557 301.108 49.2129 301.092L37.4278 300.725C37.0565 300.714 36.7175 300.51 36.5313 300.188L31.3777 291.262C31.1642 290.892 31.3324 290.421 31.7299 290.269C32.434 290 33.1475 289.574 33.7454 289.19C35.5656 288.023 36.8122 286.27 37.6544 283.817C38.4963 281.365 38.6459 278.932 37.9291 276.885C37.2122 274.837 35.6296 273.175 33.694 272.504C31.7585 271.832 29.414 272.614 27.5934 273.782C25.7729 274.949 24.4772 276.5 23.6353 278.953C22.7934 281.405 22.8033 282.88 23.1056 284.648C23.2557 285.527 23.9928 287.209 24.2229 287.64C25.649 290.313 32.2461 301.672 36.5082 308.987C36.7661 309.43 37.2333 309.709 37.7442 309.725L37.7445 309.724Z" fill="#A2A8BF"/>
<path opacity="0.84" d="M76.6124 112.112C79.641 102.02 64.614 86.5679 59.8564 81.9968C59.2208 81.3862 58.1594 81.6465 57.9112 82.4734L48.3518 114.328C48.1486 115.005 47.372 115.331 46.7174 115.02C45.5568 114.466 44.1928 114.078 43.0172 113.782C39.4394 112.882 35.8157 113.343 31.8085 115.086C27.8019 116.829 24.6341 119.394 22.9603 122.579C21.2866 125.764 21.1064 129.568 22.5597 132.684C24.013 135.801 27.7348 137.774 31.3132 138.674C34.8916 139.574 38.3251 139.4 42.3317 137.657C46.3383 135.914 48.1405 134.236 49.9584 131.872C50.863 130.696 52.0631 127.9 52.3223 127.133C54.2987 121.286 58.8441 105.67 60.4384 100.162C60.6912 99.2895 61.8333 99.0523 62.4512 99.7423C74.2048 112.864 65.4725 120.903 61.0726 123.8C60.644 124.083 60.9391 124.742 61.4462 124.635C65.6628 123.745 73.9752 120.902 76.6131 112.111" fill="white"/>
<path d="M44.9517 38.3385C42.2824 32.5217 29.2301 31.5072 25.2264 31.3323C24.6916 31.3091 24.3121 31.8537 24.5308 32.3303L32.9559 50.6904C33.1351 51.0808 32.9119 51.5412 32.4883 51.6617C31.7372 51.8752 30.9593 52.2454 30.3046 52.5824C28.3121 53.6079 26.845 55.2723 25.7174 57.6751C24.5902 60.0778 24.1752 62.5185 24.6903 64.6425C25.2052 66.7661 26.6499 68.5731 28.563 69.4107C30.4762 70.2482 32.9649 69.6542 34.9577 68.6285C36.9505 67.6029 38.4463 66.1458 39.5735 63.7431C40.7007 61.3404 40.8492 59.8523 40.7292 58.0448C40.6698 57.1458 40.0946 55.389 39.905 54.9352C38.4597 51.4763 34.2653 42.5323 32.7818 39.3811C32.5468 38.8818 32.9724 38.3153 33.531 38.3819C44.1561 39.648 43.4009 46.8177 42.5573 49.9042C42.4752 50.205 42.8745 50.3873 43.0628 50.1351C44.6281 48.0371 47.2768 43.4046 44.9519 38.338" fill="#A2A8BF"/>
<path d="M260.944 115.383H235.09L233.449 85H126.603L124.963 115.383H99.1084L78 218.177V245.462H282.052V218.177L260.944 115.383Z" fill="#A6D8D5"/>
<path fill-rule="evenodd" clip-rule="evenodd" d="M122.618 80.7937H237.435L239.075 111.177H264.374L286.259 217.75V249.668H73.7939V217.75L95.6783 111.177H120.978L122.618 80.7937ZM130.589 89.2062L128.948 119.589H102.539L82.2065 218.604V241.255H277.846V218.604L257.514 119.589H231.105L229.464 89.2062H130.589Z" fill="#61647B"/>
<path d="M180.023 204.556C221.668 204.556 255.427 185.407 255.427 161.785C255.427 138.164 221.668 119.015 180.023 119.015C138.379 119.015 104.619 138.164 104.619 161.785C104.619 185.407 138.379 204.556 180.023 204.556Z" fill="#9CA6AA"/>
<path fill-rule="evenodd" clip-rule="evenodd" d="M128.78 135.2C115.751 142.591 108.826 152.151 108.826 161.785C108.826 171.419 115.751 180.98 128.78 188.37C141.684 195.689 159.792 200.35 180.023 200.35C200.254 200.35 218.363 195.689 231.267 188.37C244.296 180.98 251.221 171.419 251.221 161.785C251.221 152.151 244.296 142.591 231.267 135.2C218.363 127.881 200.254 123.221 180.023 123.221C159.792 123.221 141.684 127.881 128.78 135.2ZM124.629 127.883C139.016 119.723 158.61 114.808 180.023 114.808C201.437 114.808 221.031 119.723 235.417 127.883C249.68 135.973 259.634 147.798 259.634 161.785C259.634 175.773 249.68 187.598 235.417 195.687C221.031 203.848 201.437 208.762 180.023 208.762C158.61 208.762 139.016 203.848 124.629 195.687C110.367 187.598 100.413 175.773 100.413 161.785C100.413 147.798 110.367 135.973 124.629 127.883Z" fill="#61647B"/>
<path d="M99.2635 196.003C103.007 196.003 106.043 194.384 106.043 192.386C106.043 190.388 103.007 188.769 99.2635 188.769C95.5195 188.769 92.4844 190.388 92.4844 192.386C92.4844 194.384 95.5195 196.003 99.2635 196.003Z" fill="#61647B"/>
<path d="M98.1553 208.783C102.836 208.783 106.631 206.755 106.631 204.254C106.631 201.753 102.836 199.726 98.1553 199.726C93.4743 199.726 89.6797 201.753 89.6797 204.254C89.6797 206.755 93.4743 208.783 98.1553 208.783Z" fill="#6AA29E"/>
<path fill-rule="evenodd" clip-rule="evenodd" d="M282.052 222.383H78V213.971H282.052V222.383Z" fill="#61647B"/>
<path fill-rule="evenodd" clip-rule="evenodd" d="M139.698 93.4336H219.638L219.831 99.0209H139.506L139.698 93.4336Z" fill="#6AA29E"/>
<defs>
<radialGradient id="paint0_radial_1610_1718" cx="0" cy="0" r="1" gradientUnits="userSpaceOnUse" gradientTransform="translate(180 165) rotate(90) scale(182.5 199.091)">
<stop offset="0.739583" stop-color="#FFFDED"/>
<stop offset="1" stop-color="#CDB5DF"/>
</radialGradient>
<linearGradient id="paint1_linear_1610_1718" x1="-34.5" y1="298" x2="404" y2="298" gradientUnits="userSpaceOnUse">
<stop offset="0.0001" stop-color="#C2E1CF"/>
<stop offset="0.171802" stop-color="#B5BFFB"/>
<stop offset="0.378098" stop-color="#C2E1CF"/>
<stop offset="0.591005" stop-color="#B5BFFB"/>
<stop offset="0.806558" stop-color="#C2E1CF"/>
<stop offset="1" stop-color="#B5BFFB"/>
</linearGradient>
</defs>
</svg>
