<svg width="48" height="48" viewBox="0 0 48 48" fill="none" xmlns="http://www.w3.org/2000/svg">
<g clip-path="url(#clip0_848_13561)">
<path d="M0 16.1C0 10.4051 0 7.55764 1.12587 5.39026C2.07462 3.56382 3.56382 2.07462 5.39026 1.12587C7.55764 0 10.4051 0 16.1 0H31.9C37.5949 0 40.4424 0 42.6097 1.12587C44.4362 2.07462 45.9254 3.56382 46.8741 5.39026C48 7.55764 48 10.4051 48 16.1V31.9C48 37.5949 48 40.4424 46.8741 42.6097C45.9254 44.4362 44.4362 45.9254 42.6097 46.8741C40.4424 48 37.5949 48 31.9 48H16.1C10.4051 48 7.55764 48 5.39026 46.8741C3.56382 45.9254 2.07462 44.4362 1.12587 42.6097C0 40.4424 0 37.5949 0 31.9V16.1Z" fill="url(#paint0_linear_848_13561)"/>
<path fill-rule="evenodd" clip-rule="evenodd" d="M44.1235 27.5335C43.9554 30.5392 41.4468 32.8772 38.437 32.8356H24.7684C24.1423 32.829 23.637 32.3213 23.6337 31.696V16.9784C23.6141 16.4617 23.9137 15.9858 24.3888 15.78C24.3888 15.78 25.646 14.9082 28.2941 14.9082C29.9121 14.9066 31.4999 15.3425 32.8901 16.1711C35.0827 17.4609 36.6345 19.6111 37.1692 22.0976C37.6411 21.9645 38.1292 21.8984 38.619 21.9C40.1047 21.8911 41.5292 22.4853 42.5676 23.5482C43.606 24.6102 44.1676 26.0486 44.1243 27.5335H44.1235ZM21.9276 17.909C22.3398 22.9009 22.6394 27.4535 21.9276 32.429C21.9031 32.6535 21.7129 32.8241 21.4868 32.8241C21.2598 32.8241 21.0705 32.6535 21.0452 32.429C20.3815 27.496 20.6705 22.8576 21.0452 17.909C21.0264 17.74 21.1064 17.5743 21.2509 17.4845C21.3945 17.3947 21.5774 17.3947 21.7227 17.4845C21.8664 17.5743 21.9464 17.74 21.9276 17.909ZM19.1619 32.4339C19.1276 32.6617 18.9317 32.829 18.7023 32.829C18.4721 32.829 18.2762 32.6617 18.2419 32.4339C17.7472 28.1776 17.7472 23.878 18.2419 19.6217C18.2672 19.3849 18.4672 19.2054 18.7047 19.2054C18.9423 19.2054 19.1415 19.3849 19.1676 19.6217C19.717 23.8747 19.7145 28.1809 19.1619 32.4339V32.4339ZM16.3905 19.1882C16.8394 23.7621 17.0435 27.86 16.3856 32.4233C16.3856 32.6682 16.1864 32.8674 15.9415 32.8674C15.6966 32.8674 15.4974 32.6682 15.4974 32.4233C14.8607 27.9188 15.0745 23.7033 15.4974 19.1882C15.5219 18.9596 15.7145 18.7882 15.9439 18.7882C16.1733 18.7882 16.366 18.9596 16.3905 19.1882ZM13.6149 32.4396C13.5888 32.6698 13.3945 32.8445 13.1619 32.8445C12.9301 32.8445 12.7349 32.6698 12.7105 32.4396C12.1994 28.4682 12.1994 24.4478 12.7105 20.4772C12.7105 20.2233 12.9162 20.0176 13.1701 20.0176C13.4239 20.0176 13.6305 20.2233 13.6305 20.4772C14.1733 24.4462 14.1676 28.4715 13.6141 32.4396H13.6149ZM10.8427 23.4682C11.5439 26.5702 11.228 29.3098 10.8166 32.4715C10.7831 32.6821 10.6011 32.8372 10.388 32.8372C10.1758 32.8372 9.99373 32.6821 9.96026 32.4715C9.58556 29.3531 9.27536 26.549 9.93332 23.4674C9.93332 23.2168 10.1374 23.0127 10.388 23.0127C10.6394 23.0127 10.8427 23.2168 10.8427 23.4682V23.4682ZM8.07699 22.9972C8.71944 26.1751 8.51046 28.8658 8.06066 32.0543C8.0076 32.5254 7.20025 32.5302 7.15699 32.0543C6.75046 28.9139 6.55781 26.1425 7.14066 22.9972C7.16679 22.758 7.36923 22.5768 7.60923 22.5768C7.85005 22.5768 8.05168 22.758 8.07699 22.9972ZM5.28515 24.5376C5.95862 26.6453 5.72842 28.358 5.25821 30.5188C5.23372 30.7409 5.04597 30.909 4.82229 30.909C4.59862 30.909 4.41087 30.7409 4.38556 30.5188C3.97903 28.4005 3.81413 26.6511 4.34883 24.5376C4.37332 24.2984 4.57577 24.1172 4.81658 24.1172C5.0574 24.1172 5.25903 24.2984 5.28434 24.5376H5.28515Z" fill="white"/>
</g>
<defs>
<linearGradient id="paint0_linear_848_13561" x1="24" y1="0" x2="24" y2="48" gradientUnits="userSpaceOnUse">
<stop stop-color="#FF7700"/>
<stop offset="1" stop-color="#FF3200"/>
</linearGradient>
<clipPath id="clip0_848_13561">
<rect width="48" height="48" fill="white"/>
</clipPath>
</defs>
</svg>
