<svg width="48" height="48" viewBox="0 0 48 48" fill="none" xmlns="http://www.w3.org/2000/svg">
<g clip-path="url(#clip0_714_14499)">
<path fill-rule="evenodd" clip-rule="evenodd" d="M1.12587 5.39026C0 7.55764 0 10.4051 0 16.1V31.9C0 37.5949 0 40.4424 1.12587 42.6097C2.07462 44.4362 3.56382 45.9254 5.39026 46.8741C7.55764 48 10.4051 48 16.1 48H31.9C37.5949 48 40.4424 48 42.6097 46.8741C44.4362 45.9254 45.9254 44.4362 46.8741 42.6097C48 40.4424 48 37.5949 48 31.9V16.1C48 10.4051 48 7.55764 46.8741 5.39026C45.9254 3.56382 44.4362 2.07462 42.6097 1.12587C40.4424 0 37.5949 0 31.9 0H16.1C10.4051 0 7.55764 0 5.39026 1.12587C3.56382 2.07462 2.07462 3.56382 1.12587 5.39026ZM28.2974 11.748C29.5105 10.2917 30.1082 8.41986 29.9635 6.53001C28.1101 6.72467 26.3981 7.61046 25.1686 9.01088C24.5675 9.69502 24.107 10.4909 23.8137 11.3531C23.5203 12.2153 23.3998 13.1269 23.4589 14.0357C24.3859 14.0452 25.303 13.8443 26.1411 13.448C26.9792 13.0517 27.7165 12.4705 28.2974 11.748ZM32.3808 23.841C32.3969 22.5933 32.7283 21.37 33.3442 20.2848C33.9601 19.1996 34.8405 18.2878 35.9035 17.6343C35.2282 16.6699 34.3374 15.8762 33.3017 15.3163C32.266 14.7564 31.1141 14.4457 29.9373 14.4089C28.4019 14.2477 26.8951 14.8457 25.6636 15.3345C24.8819 15.6447 24.2111 15.911 23.7144 15.911C23.1493 15.911 22.4593 15.6338 21.6861 15.3232C20.6751 14.9171 19.522 14.454 18.3202 14.4787C16.9484 14.523 15.6115 14.9219 14.4397 15.6365C13.268 16.3512 12.3013 17.3571 11.6339 18.5564C8.7429 23.5618 10.8993 30.9181 13.6687 34.9641C15.0542 36.9453 16.6736 39.1583 18.7925 39.0798C19.7536 39.04 20.4357 38.7529 21.1401 38.4565C21.9553 38.1134 22.8005 37.7577 24.1431 37.7577C25.409 37.7577 26.218 38.1023 26.9944 38.433L26.9944 38.433C27.7387 38.7501 28.453 39.0544 29.5111 39.0299C31.736 38.9938 33.1378 37.0399 34.4748 35.04C35.4704 33.6283 36.2364 32.0681 36.7446 30.4171C35.452 29.8704 34.3489 28.9553 33.5729 27.7859C32.7969 26.6165 32.3823 25.2445 32.3808 23.841Z" fill="black"/>
<path d="M29.9636 6.53003C30.1084 8.41987 29.5107 10.2917 28.2976 11.748C27.7167 12.4705 26.9794 13.0518 26.1413 13.448C25.3032 13.8443 24.3861 14.0452 23.4591 14.0357C23.4 13.1269 23.5205 12.2153 23.8139 11.3531C24.1072 10.491 24.5676 9.69504 25.1688 9.0109C26.3983 7.61047 28.1103 6.72469 29.9636 6.53003Z" fill="white"/>
<path d="M33.3444 20.2848C32.7285 21.37 32.3971 22.5933 32.381 23.841C32.3825 25.2445 32.7971 26.6165 33.5731 27.7859C34.3491 28.9553 35.4522 29.8704 36.7448 30.4172C36.2366 32.0681 35.4705 33.6283 34.475 35.04C33.138 37.04 31.7362 38.9939 29.5113 39.03C28.4532 39.0544 27.7389 38.7501 26.9946 38.433C26.2182 38.1023 25.4092 37.7577 24.1433 37.7577C22.8007 37.7577 21.9555 38.1134 21.1403 38.4565C20.4359 38.753 19.7538 39.04 18.7926 39.0799C16.6738 39.1583 15.0544 36.9453 13.6688 34.9641C10.8995 30.9181 8.74308 23.5618 11.6341 18.5565C12.3015 17.3572 13.2681 16.3512 14.4399 15.6366C15.6117 14.9219 16.9486 14.523 18.3204 14.4787C19.5221 14.454 20.6753 14.9172 21.6863 15.3233C22.4595 15.6338 23.1495 15.911 23.7146 15.911C24.2113 15.911 24.8821 15.6448 25.6638 15.3345C26.8953 14.8458 28.402 14.2477 29.9375 14.4089C31.1143 14.4457 32.2662 14.7564 33.3019 15.3163C34.3376 15.8762 35.2284 16.6699 35.9037 17.6343C34.8407 18.2878 33.9603 19.1996 33.3444 20.2848Z" fill="white"/>
</g>
<defs>
<clipPath id="clip0_714_14499">
<rect width="48" height="48" fill="white"/>
</clipPath>
</defs>
</svg>
