<svg width="346" height="60" viewBox="0 0 346 60" fill="none" xmlns="http://www.w3.org/2000/svg">
<rect x="1" y="1" width="344" height="58" rx="29" fill="url(#paint0_linear_1321_5316)" stroke="url(#paint1_linear_1321_5316)" stroke-width="2"/>
<path d="M170.591 25.226H172.877C173.057 25.226 173.129 25.298 173.129 25.46V27.026C173.129 27.17 173.057 27.26 172.877 27.26H170.591V32.444C170.591 32.588 170.519 32.66 170.339 32.66H168.503C168.359 32.66 168.287 32.588 168.287 32.444V20.924C168.287 20.78 168.359 20.69 168.503 20.69H170.339C170.519 20.69 170.591 20.78 170.591 20.924V25.226ZM167.369 30.32C165.389 30.698 163.175 30.86 160.385 30.86H157.505C157.343 30.86 157.271 30.77 157.271 30.626V29.168C157.271 29.042 157.343 28.952 157.505 28.952H159.935C160.403 28.952 160.871 28.952 161.321 28.934V27.62C159.377 27.26 158.315 25.964 158.315 24.434C158.315 22.652 159.791 21.176 162.419 21.176C165.065 21.176 166.559 22.652 166.559 24.434C166.559 25.946 165.515 27.224 163.625 27.602V28.844C164.903 28.754 166.073 28.628 167.153 28.448C167.315 28.412 167.405 28.52 167.423 28.664L167.603 30.068C167.603 30.212 167.531 30.284 167.369 30.32ZM160.565 24.434C160.565 25.244 161.177 25.91 162.419 25.91C163.679 25.91 164.309 25.244 164.309 24.434C164.309 23.642 163.679 22.976 162.419 22.976C161.177 22.976 160.565 23.642 160.565 24.434ZM162.419 34.406H170.951C171.113 34.406 171.185 34.496 171.185 34.658V36.224C171.185 36.368 171.113 36.458 170.951 36.458H160.367C160.205 36.458 160.133 36.368 160.133 36.224V31.976C160.133 31.832 160.205 31.76 160.367 31.76H162.203C162.365 31.76 162.419 31.832 162.419 31.976V34.406ZM184.61 32.966H188.228C188.39 32.966 188.462 33.056 188.462 33.2V34.784C188.462 34.91 188.39 35 188.228 35H173.468C173.324 35 173.252 34.91 173.252 34.784V33.2C173.252 33.056 173.324 32.966 173.468 32.966H177.086V30.644H175.664C175.52 30.644 175.448 30.554 175.448 30.428V25.568C175.448 25.424 175.52 25.316 175.664 25.316H183.962V23.858H175.628C175.484 23.858 175.412 23.768 175.412 23.606V22.13C175.412 21.986 175.484 21.896 175.628 21.896H186.032C186.194 21.896 186.266 21.986 186.266 22.13V26.954C186.266 27.08 186.176 27.188 186.014 27.188H177.734V28.736H186.392C186.554 28.736 186.644 28.808 186.644 28.97V30.428C186.644 30.554 186.554 30.644 186.392 30.644H184.61V32.966ZM182.324 30.644H179.39V32.966H182.324V30.644Z" fill="#60A3AF"/>
<defs>
<linearGradient id="paint0_linear_1321_5316" x1="173" y1="2" x2="173" y2="59.6154" gradientUnits="userSpaceOnUse">
<stop stop-color="white"/>
<stop offset="0.275531" stop-color="#CFE7E9"/>
<stop offset="0.529509" stop-color="#A5CAE1"/>
<stop offset="0.770833" stop-color="#A1B9E4"/>
<stop offset="1" stop-color="#C7CEDF"/>
</linearGradient>
<linearGradient id="paint1_linear_1321_5316" x1="2" y1="2" x2="345.068" y2="50.4365" gradientUnits="userSpaceOnUse">
<stop stop-color="#86A0C6"/>
<stop offset="1" stop-color="#AECED0"/>
</linearGradient>
</defs>
</svg>
