<svg width="360" height="330" viewBox="0 0 360 330" fill="none" xmlns="http://www.w3.org/2000/svg">
<path d="M0 5.99999C0 2.68629 2.68629 0 6 0H354C357.314 0 360 2.68629 360 6V324C360 327.314 357.314 330 354 330H5.99999C2.68629 330 0 327.314 0 324V5.99999Z" fill="url(#paint0_radial_1610_1717)"/>
<g filter="url(#filter0_d_1610_1717)">
<path fill-rule="evenodd" clip-rule="evenodd" d="M156.432 47.926C155.828 47.9752 155.299 48.0187 154.847 48.056C153.624 48.1566 152.951 48.212 152.818 48.212C152.35 48.264 152.038 48.342 151.908 48.498C151.778 48.654 151.752 48.94 151.804 49.382C151.908 50.11 151.96 50.89 151.986 51.748C151.986 52.606 151.986 53.308 151.96 53.854C151.934 54.426 151.882 55.232 151.804 56.272C151.7 57.338 151.648 58.066 151.648 58.482V59.99L143.874 60.9C143.914 59.2055 143.956 57.5221 144 55.8511C144.02 55.0956 144.04 54.3427 144.06 53.5924C144.068 53.2909 144.076 52.9898 144.084 52.6891C144.129 51.0004 144.172 49.3255 144.212 47.666L138.934 48.056C138.933 48.0432 138.932 48.0304 138.932 48.0177C138.83 46.6388 138.804 45.9231 138.804 45.82C138.768 45.218 138.744 44.4369 138.715 43.4855C138.711 43.3471 138.707 43.2051 138.702 43.0595C138.694 42.7795 138.685 42.4863 138.674 42.18C138.622 40.62 138.596 39.528 138.596 38.904C138.544 37.968 138.986 37.5 139.922 37.5C140.068 37.5073 140.243 37.5167 140.445 37.5275C140.963 37.5552 141.662 37.5926 142.522 37.63C143.718 37.708 144.628 37.76 145.252 37.76C145.98 37.786 147.15 37.786 148.788 37.786C150.426 37.786 151.622 37.786 152.35 37.812C153.182 37.838 154.352 37.968 155.912 38.202C156.302 38.254 156.562 38.384 156.692 38.54C156.822 38.696 156.874 38.982 156.874 39.398C156.874 39.71 156.848 40.152 156.796 40.724C156.779 40.9147 156.762 41.088 156.746 41.2421C156.715 41.5502 156.692 41.7813 156.692 41.92C156.666 42.076 156.64 42.83 156.64 44.208C156.614 45.352 156.614 45.976 156.614 46.028C156.614 46.0581 156.603 46.1693 156.583 46.3631C156.55 46.6721 156.496 47.191 156.432 47.926ZM156.625 33.253C157.627 33.394 159.289 33.8456 160.533 35.3391C160.703 35.5428 160.85 35.7486 160.976 35.952C162.159 34.2321 163.967 33.3698 165.789 33.2626C165.815 33.2611 165.842 33.2598 165.868 33.2586C168.237 33.1568 170.297 33.0305 172.058 32.8818C172.087 32.8793 172.117 32.8771 172.146 32.8751C173.474 32.7865 175.095 32.9142 176.638 33.7311C176.676 33.751 176.713 33.7713 176.75 33.7921C178.194 34.6041 179.131 35.8245 179.715 37.0182C180.166 35.2459 181.57 33.8211 183.415 33.3869L183.427 33.384L183.481 33.3713C183.53 33.3596 183.605 33.3414 183.707 33.3168C183.91 33.2675 184.217 33.1923 184.621 33.0913C184.713 33.0685 184.805 33.0453 184.896 33.0223C185.181 32.9508 185.459 32.8811 185.676 32.8296C185.823 32.7948 186.011 32.7518 186.202 32.7155C186.3 32.6969 186.434 32.6732 186.589 32.6528C186.701 32.638 186.908 32.6134 187.167 32.6061C190.709 32.478 193.214 32.4195 194.528 32.4493C194.552 32.4498 194.575 32.4506 194.599 32.4514C197.326 32.5524 199.977 33.1704 202.309 34.5443C202.468 34.6383 202.622 34.741 202.77 34.852C203.006 35.0292 203.481 35.3882 203.956 35.8625C204.025 35.9317 204.092 36.003 204.157 36.0762C204.184 36.1064 204.214 36.1395 204.26 36.1894L204.276 36.207C204.315 36.2496 204.374 36.3138 204.429 36.3755C204.495 36.4489 204.589 36.5554 204.69 36.6795C204.788 36.7984 204.921 36.9683 205.061 37.1773C205.065 37.1824 205.071 37.1915 205.081 37.2054L205.099 37.2301C205.126 37.2687 205.172 37.3319 205.213 37.391C205.331 37.559 205.491 37.7918 205.666 38.0775C205.688 38.1132 205.711 38.1497 205.733 38.1864C205.806 38.3038 205.879 38.4228 205.938 38.5193C205.978 38.5862 206.026 38.6667 206.075 38.7502C206.078 38.7569 206.083 38.764 206.087 38.7715C206.58 39.5399 207.01 40.3503 207.353 41.1976C207.6 39.4314 208.157 37.7133 209.122 36.1249C209.133 36.1072 209.144 36.0896 209.155 36.072C209.787 35.0609 210.744 34.0128 212.142 33.3395C213.576 32.6493 215.059 32.5528 216.37 32.7841C216.421 32.7932 216.473 32.8031 216.524 32.8138C216.578 32.82 216.675 32.8292 216.825 32.8392C217.155 32.861 217.619 32.8786 218.251 32.891C218.425 32.8944 218.6 32.907 218.773 32.9286C219.634 33.0362 220.308 33.2866 220.831 33.5479C221.311 33.7882 221.75 34.1045 222.13 34.4845C223.477 35.8309 223.725 37.4573 223.725 38.436C223.725 38.4198 223.725 38.4236 223.726 38.4499C223.727 38.5055 223.732 38.6618 223.745 38.9429C223.763 39.3195 223.793 39.8678 223.843 40.588C223.861 40.8581 223.858 41.1292 223.833 41.3987C223.793 41.8191 223.757 42.2056 223.724 42.5586C223.658 43.2595 223.605 43.8287 223.564 44.2707C223.533 44.6037 223.511 44.849 223.497 45.0162C223.49 45.0993 223.486 45.1484 223.484 45.1725C223.487 45.1295 223.491 45.0404 223.491 44.936C223.491 45.2504 223.339 47.6728 223.091 51.5958C223.037 52.4495 222.979 53.1025 222.935 53.4644C222.88 53.9234 222.776 54.3429 222.637 54.7251C223.469 56.2864 223.457 57.9075 223.402 58.7366L223.4 58.7603C223.333 59.6942 223.205 60.6385 223.059 61.514C223.037 61.6453 223.01 61.7756 222.977 61.9047C222.7 63.0129 222.133 63.764 221.986 63.9574C221.98 63.9652 221.975 63.9721 221.971 63.978C221.829 64.1673 221.674 64.3463 221.506 64.5136C221.337 64.683 221.029 64.9742 220.608 65.2553C220.374 65.4112 219.635 65.8933 218.547 66.069C218.022 66.1631 217.058 66.3 215.783 66.4594C215.258 66.5251 214.731 66.5063 214.222 66.4088C214.033 66.4017 213.837 66.3903 213.643 66.3722C213.412 66.3505 213.07 66.3094 212.686 66.2176C212.354 66.1385 211.65 65.9454 210.907 65.4503C209.694 64.6412 209.135 63.5434 208.939 63.1352C208.679 62.5932 208.508 62.0528 208.389 61.6176L208.377 61.5745C208.206 60.9238 208.097 60.3831 208.021 59.928C207.822 58.7367 207.971 57.6617 208.164 56.8428C208.169 56.8203 208.174 56.7978 208.18 56.7753C208.241 56.5311 208.318 56.2716 208.415 56.0028C207.737 55.0482 207.447 54.0162 207.356 53.1554C207.355 53.1425 207.354 53.1295 207.352 53.1166C207.351 53.106 207.35 53.0953 207.349 53.0847C207.252 52.0104 207.171 51.052 207.113 50.2472C206.975 50.5177 206.827 50.7812 206.672 51.0375C205.711 52.623 204.286 54.0383 202.328 54.8051C201.093 55.3138 199.876 55.7375 198.676 56.0766C198.803 57.6717 198.904 58.8809 198.979 59.7325C198.981 59.7603 198.983 59.788 198.985 59.8158C199.016 60.2387 199.038 60.9847 198.826 61.8332C198.598 62.7463 198.008 64.0889 196.59 65.0343L193.816 60.874C193.972 60.77 194.024 60.536 193.998 60.172C193.92 59.288 193.816 58.04 193.686 56.402C193.601 55.3276 193.538 54.4546 193.49 53.7902C193.465 53.4417 193.444 53.1506 193.426 52.918C193.374 52.606 193.426 52.372 193.53 52.216C193.634 52.06 193.816 51.982 194.128 51.93C196.104 51.67 198.21 51.098 200.472 50.162C201.226 49.876 201.876 49.304 202.396 48.446C202.916 47.588 203.202 46.756 203.254 45.924C203.306 44.416 202.812 42.882 201.798 41.348C201.753 41.2577 201.649 41.0889 201.486 40.8245C201.461 40.7846 201.435 40.7424 201.408 40.698C201.266 40.4675 201.136 40.2854 201.035 40.1434C200.988 40.0771 200.947 40.0196 200.914 39.97C200.84 39.8584 200.725 39.7336 200.59 39.5859C200.536 39.5271 200.479 39.4647 200.42 39.398C200.212 39.19 199.978 39.008 199.77 38.852C198.314 37.994 196.52 37.526 194.414 37.448C193.27 37.422 190.904 37.474 187.316 37.604C187.181 37.604 186.791 37.7019 186.146 37.8638C186.048 37.8884 185.944 37.9145 185.834 37.942C185.002 38.15 184.56 38.254 184.56 38.254C184.56 38.265 184.559 38.3147 184.557 38.4035C184.549 38.7332 184.529 39.6022 184.508 41.036L184.507 41.074C184.455 42.6597 184.378 45.0133 184.326 48.16C184.302 49.6218 184.278 50.9179 184.254 52.0484C184.236 52.9104 184.218 53.676 184.199 54.3454C184.196 54.457 184.193 54.5659 184.19 54.6721C184.184 54.9064 184.177 55.1277 184.17 55.336C184.166 55.479 184.161 55.6356 184.155 55.8059C184.151 55.9359 184.146 56.074 184.141 56.2201C184.14 56.2565 184.138 56.2934 184.137 56.3308C184.121 56.7616 184.101 57.2587 184.075 57.8233C184.072 57.8788 184.07 57.935 184.067 57.9918C184.067 57.9918 184.067 57.9918 184.067 57.9918C184.061 58.1229 184.055 58.2575 184.048 58.3956C184.045 58.4557 184.042 58.5164 184.039 58.5779C184.035 58.657 184.031 58.7372 184.027 58.8186C184.023 58.8969 184.019 58.9762 184.015 59.0566C184.012 59.1243 184.008 59.1928 184.005 59.262C183.999 59.3644 183.994 59.4684 183.988 59.574C183.988 59.6851 183.95 59.834 183.907 60.0047C183.899 60.0339 183.892 60.0637 183.884 60.094C183.88 60.1118 183.876 60.1291 183.872 60.146C183.869 60.161 183.865 60.1756 183.862 60.1898C183.852 60.2302 183.843 60.2678 183.834 60.303C183.803 60.4262 183.78 60.5187 183.78 60.588C183.754 60.692 183.78 60.744 183.832 60.796C184.169 60.8126 184.492 60.8283 184.8 60.8431C185.308 60.8674 185.778 60.8894 186.21 60.909C186.622 60.9277 186.999 60.9442 187.342 60.9585C187.529 60.9663 187.705 60.9735 187.871 60.98C188.208 60.9932 188.503 61.0038 188.757 61.0118C188.758 61.0118 188.759 61.0119 188.761 61.0119C188.761 61.0119 188.762 61.012 188.762 61.012C188.778 61.0125 188.793 61.0129 188.808 61.0134C189.169 61.0245 189.443 61.03 189.63 61.03C190.618 61.082 191.788 61.082 193.14 61.056C193.452 61.056 193.66 60.978 193.816 60.874L196.59 65.0343C195.584 65.7046 194.423 66.0444 193.203 66.0557C191.878 66.0809 190.62 66.084 189.491 66.0294C188.562 66.0211 186.544 65.9354 183.586 65.79C182.832 65.7529 182.103 65.546 181.45 65.1922C181.383 65.1953 181.33 65.1965 181.296 65.1971C181.263 65.1977 181.235 65.1979 181.219 65.198L181.189 65.198H181.186C180.757 65.198 180.073 65.198 179.139 65.1697C178.846 65.1608 178.595 65.1527 178.38 65.1457C177.892 65.13 177.585 65.12 177.367 65.12C176.717 65.12 176.146 65.1381 175.632 65.1716C174.82 65.2774 173.419 65.299 172.029 64.4777C170.991 63.8887 170.365 63.0623 170.021 62.4535C169.911 62.2594 169.819 62.0691 169.742 61.8883C169.634 62.1547 169.351 62.7908 168.843 63.4255C168.64 63.6788 168.297 64.0705 167.802 64.4418C167.426 64.7242 166.435 65.3972 164.986 65.4764C163.365 65.5833 161.765 65.6381 160.163 65.64C158.793 65.671 156.735 65.2246 155.411 63.2828C154.62 64.1872 153.504 64.807 152.23 64.9561L144.456 65.8661C143.018 66.0344 141.578 65.5714 140.508 64.5968C139.438 63.6221 138.842 62.2315 138.876 60.7844C138.932 58.3374 138.998 55.8678 139.062 53.4367C139.066 53.3091 139.069 53.1816 139.072 53.0542C136.417 53.1296 134.146 51.1018 133.948 48.4254C133.862 47.2614 133.82 46.4468 133.808 46.027C133.77 45.3572 133.743 44.4916 133.715 43.5435C133.703 43.1557 133.691 42.7542 133.677 42.3466C133.628 40.8636 133.599 39.7339 133.597 39.0103C133.558 37.7954 133.8 35.957 135.254 34.4179C136.779 32.803 138.709 32.5 139.922 32.5C140.006 32.5 140.089 32.5021 140.172 32.5063C140.341 32.5147 140.53 32.5248 140.743 32.5362C141.256 32.5637 141.906 32.5985 142.74 32.6347C142.776 32.6363 142.812 32.6383 142.848 32.6406C144.082 32.7211 144.822 32.76 145.252 32.76C145.312 32.76 145.371 32.7611 145.431 32.7632C146.046 32.7852 147.099 32.786 148.788 32.786L148.918 32.786C150.439 32.786 151.699 32.786 152.518 32.8148C153.645 32.8509 155.038 33.0154 156.625 33.253ZM159.505 60.406C159.609 60.588 159.817 60.666 160.077 60.64C160.914 60.64 161.752 60.6245 162.593 60.5935C162.833 60.5847 163.074 60.5746 163.315 60.5632C163.66 60.5469 164.005 60.5281 164.351 60.5067C164.359 60.5062 164.367 60.5058 164.374 60.5053C164.484 60.4985 164.595 60.4914 164.705 60.484C164.757 60.484 164.835 60.432 164.939 60.302C165.043 60.172 165.095 60.042 165.147 59.912C165.198 59.7084 165.254 59.4744 165.318 59.21C165.45 58.6638 165.613 57.9878 165.823 57.182C165.945 56.7128 166.052 56.2956 166.145 55.9288C166.29 55.3608 166.404 54.9138 166.499 54.582C166.538 54.4434 166.589 54.3198 166.652 54.2114C166.753 54.0351 166.884 53.8986 167.045 53.802C167.305 53.646 167.643 53.62 168.007 53.698C168.209 53.7519 168.418 53.7989 168.631 53.8316C168.828 53.8619 169.029 53.88 169.229 53.88C169.52 53.9215 170.49 53.9797 172.141 54.0676C172.557 54.0898 173.016 54.1138 173.519 54.14C173.531 54.2261 173.543 54.3057 173.554 54.3789C173.584 54.5841 173.609 54.7385 173.626 54.842C173.641 54.9356 173.649 54.9876 173.649 54.998C173.545 56.246 173.753 57.832 174.273 59.704C174.325 59.938 174.403 60.094 174.533 60.146C174.637 60.224 174.819 60.25 175.079 60.198C175.372 60.1763 175.675 60.1591 175.988 60.1464C175.993 60.1462 175.998 60.1461 176.003 60.1459C176.09 60.1424 176.178 60.1393 176.267 60.1365C176.619 60.1255 176.985 60.12 177.367 60.12C177.495 60.12 177.645 60.1225 177.816 60.1266C178.009 60.1313 178.228 60.1381 178.473 60.146C178.53 60.1478 178.587 60.1497 178.647 60.1516C178.695 60.1532 178.744 60.1548 178.795 60.1564C178.796 60.1564 178.797 60.1565 178.798 60.1565C178.953 60.1615 179.118 60.1668 179.291 60.172C179.428 60.1762 179.56 60.1797 179.686 60.1826C179.686 60.1826 179.686 60.1826 179.686 60.1826C179.766 60.1845 179.844 60.1862 179.92 60.1876C180.138 60.1918 180.337 60.1943 180.516 60.1958C180.543 60.196 180.57 60.1962 180.596 60.1964C180.667 60.1969 180.735 60.1972 180.8 60.1975C180.945 60.198 181.075 60.198 181.189 60.198C181.241 60.198 181.267 60.198 181.267 60.146C181.267 60.1299 181.257 60.1039 181.243 60.068C181.235 60.0458 181.225 60.0198 181.215 59.99C181.208 59.9756 181.2 59.9592 181.193 59.9413C181.192 59.9377 181.19 59.934 181.189 59.9303C181.172 59.886 181.154 59.834 181.137 59.782C181.103 59.7316 181.081 59.6813 181.055 59.6239C181.047 59.6079 181.04 59.5913 181.032 59.574C181.024 59.5574 181.016 59.5401 181.007 59.522C180.994 59.4954 180.982 59.4705 180.972 59.4469C180.967 59.4351 180.963 59.4236 180.959 59.4124C180.952 59.3938 180.946 59.3758 180.942 59.3584C180.933 59.3251 180.929 59.2936 180.929 59.262C180.799 58.794 180.617 58.092 180.409 57.208C180.175 56.324 180.019 55.726 179.967 55.44L178.407 49.408C178.005 47.8823 177.693 46.6942 177.471 45.8471C177.453 45.7783 177.435 45.7118 177.419 45.6475C177.306 45.2176 177.219 44.8883 177.159 44.6604C177.124 44.5267 177.098 44.4279 177.081 44.364C176.943 43.9269 176.793 43.4697 176.629 42.9907C176.538 42.7237 176.443 42.4499 176.343 42.1691C176.338 42.1541 176.333 42.1392 176.327 42.1242C176.035 41.3035 175.707 40.423 175.339 39.476C175.079 38.826 174.715 38.384 174.299 38.15C173.857 37.916 173.259 37.812 172.479 37.864C170.633 38.02 168.501 38.15 166.083 38.254C165.641 38.28 165.303 38.462 165.069 38.826C164.445 39.762 163.951 40.932 163.613 42.388C163.483 42.882 163.275 43.61 162.989 44.546C162.703 45.508 162.521 46.21 162.417 46.652C162.105 47.9 161.507 50.448 160.649 54.244C160.572 54.5842 160.496 54.9235 160.419 55.262C160.391 55.3879 160.362 55.5138 160.334 55.6395C160.332 55.6461 160.331 55.6528 160.329 55.6595C160.245 56.0335 160.161 56.4068 160.077 56.7795C159.987 57.1782 159.898 57.5761 159.81 57.9737C159.68 58.5597 159.552 59.1449 159.427 59.73C159.349 60.016 159.375 60.25 159.505 60.406ZM168.113 49.3833C168.162 49.428 168.222 49.4628 168.293 49.488C168.387 49.5215 168.5 49.538 168.631 49.538H172.141C172.401 49.538 172.557 49.486 172.661 49.382C172.681 49.3614 172.699 49.3377 172.714 49.3109C172.718 49.3033 172.722 49.2953 172.726 49.2871C172.75 49.2335 172.765 49.1692 172.771 49.094C172.777 49.0188 172.775 48.9328 172.765 48.836C172.691 48.2052 172.625 47.6548 172.568 47.1844C172.542 46.969 172.518 46.7703 172.496 46.5883C172.472 46.3889 172.45 46.2095 172.431 46.0501C172.421 45.9743 172.413 45.9029 172.405 45.8362C172.395 45.7571 172.386 45.6845 172.378 45.6181C172.349 45.3777 172.33 45.2199 172.323 45.144C172.319 45.1371 172.315 45.1298 172.311 45.122C172.283 45.0713 172.238 45.0037 172.193 44.936C172.175 44.9186 172.158 44.9025 172.141 44.8879C172.081 44.8374 172.025 44.806 171.985 44.806C171.979 44.806 171.972 44.806 171.965 44.806C171.812 44.8058 171.582 44.8031 171.276 44.7995C171.125 44.7977 170.956 44.7957 170.768 44.7937C170.538 44.7912 170.281 44.7887 169.996 44.7865C169.595 44.7835 169.139 44.781 168.631 44.7803C168.521 44.7801 168.408 44.78 168.293 44.78C168.27 45.0517 168.248 45.3095 168.227 45.5536C168.17 46.2277 168.123 46.7971 168.085 47.2631C168.079 47.3359 168.073 47.4062 168.067 47.4739C168.099 47.3908 168.134 47.3055 168.174 47.2186L168.293 47.159V47.536L168.049 47.6989C168.048 47.709 168.047 47.7191 168.046 47.7291C168.046 47.7293 168.046 47.7289 168.046 47.7291C168.045 47.7452 168.043 47.7618 168.042 47.7776C168.008 48.195 167.983 48.4903 167.968 48.6654C167.962 48.7298 167.958 48.778 167.955 48.81C167.932 49.0241 167.963 49.1893 168.046 49.3079C168.066 49.3356 168.088 49.3607 168.113 49.3833ZM170.411 44.9603C170.405 44.9571 170.398 44.9539 170.391 44.9508C170.387 44.953 170.382 44.9552 170.377 44.9574L170.411 44.9603ZM191.658 45.9789C191.658 46.0534 191.658 46.1305 191.658 46.21L191.744 46.1672L191.658 46.392H194.232H194.239C194.468 46.2532 194.666 46.0886 194.83 45.924C194.883 45.8711 194.941 45.8081 195.004 45.7349C195.02 45.7167 195.036 45.6978 195.052 45.6782C195.189 45.5151 195.348 45.3079 195.529 45.0568C195.58 44.9854 195.633 44.9105 195.688 44.832C195.796 44.6933 195.858 44.5547 195.869 44.416C195.877 44.3207 195.86 44.2253 195.818 44.13C195.714 43.922 195.48 43.792 195.168 43.766C194.885 43.7489 194.591 43.7402 194.284 43.74C194.233 43.74 194.181 43.7402 194.129 43.7406C193.846 43.7431 193.552 43.7526 193.248 43.7691C193.072 43.7786 192.893 43.7905 192.711 43.8046C192.709 43.8048 192.707 43.805 192.705 43.8051M192.368 44.5281L191.848 45.8947L191.658 45.9789M192.642 43.8101C192.592 43.8141 192.541 43.8183 192.491 43.8227C192.413 43.8294 192.335 43.8365 192.256 43.844M193.162 44.9729L193.138 45.2983L193.162 44.9729ZM193.162 44.9729L193.138 45.2983L193.162 44.9729ZM194.05 46.496C194.114 46.4642 194.175 46.4302 194.235 46.3945L194.05 46.496ZM212.271 51.9839C212.101 50.0623 212.017 48.801 212.017 48.238C212.017 47.692 212.043 46.886 212.095 45.82C212.109 45.5413 212.123 45.2813 212.136 45.04C212.171 44.3807 212.199 43.8607 212.199 43.48C212.199 41.634 212.589 40.048 213.395 38.722C213.915 37.89 214.617 37.552 215.501 37.708C215.943 37.812 216.827 37.864 218.153 37.89C218.361 37.916 218.491 37.968 218.595 38.02C218.673 38.098 218.725 38.228 218.725 38.436C218.725 38.592 218.751 39.424 218.855 40.932C218.816 41.3477 218.78 41.7316 218.747 42.0836C218.581 43.8452 218.491 44.806 218.491 44.936C218.491 45.04 218.361 47.172 218.101 51.28C218.095 51.369 218.09 51.4548 218.084 51.5372C218.038 52.225 217.994 52.6803 217.971 52.866C217.945 53.1 217.789 53.308 217.477 53.516C217.165 53.724 216.879 53.802 216.567 53.776C216.361 53.7674 216.098 53.7503 215.78 53.7247C215.724 53.7202 215.667 53.7155 215.607 53.7104C215.484 53.6999 215.353 53.6883 215.215 53.6755C214.947 53.6508 214.652 53.6217 214.331 53.5883C214.179 53.5726 214.022 53.5559 213.858 53.5382C213.644 53.5151 213.42 53.4904 213.187 53.464C212.667 53.412 212.381 53.126 212.329 52.632C212.308 52.4082 212.289 52.1922 212.271 51.9839ZM212.945 58.4682C212.918 58.7043 212.921 58.9149 212.953 59.106C213.005 59.418 213.083 59.808 213.213 60.302C213.369 60.874 213.525 61.186 213.681 61.29C213.784 61.3587 214 61.3934 214.331 61.409C214.5 61.417 214.699 61.42 214.929 61.42H215.163V61.498C215.18 61.4958 215.197 61.4937 215.215 61.4915C215.299 61.4809 215.382 61.4705 215.462 61.4603C215.57 61.4465 215.674 61.4331 215.775 61.42C215.941 61.3985 216.097 61.3779 216.242 61.3583C216.533 61.3192 216.784 61.284 216.994 61.2533C217.097 61.2383 217.191 61.2244 217.274 61.2115C217.496 61.1776 217.65 61.1514 217.737 61.134C217.789 61.134 217.867 61.082 217.971 60.978C218.049 60.874 218.101 60.796 218.127 60.692C218.249 59.9601 218.348 59.2282 218.403 58.5393C218.406 58.494 218.41 58.4489 218.413 58.404C218.433 58.1001 218.426 57.8317 218.388 57.5988C218.328 57.234 218.193 56.9564 217.971 56.766C217.901 56.7058 217.823 56.6544 217.737 56.6114C217.491 56.4884 217.18 56.4352 216.799 56.4476C216.69 56.4511 216.575 56.4601 216.454 56.4744C216.417 56.4788 216.379 56.4837 216.341 56.4891C216.304 56.4943 216.267 56.4999 216.229 56.506C216.207 56.5108 216.185 56.5154 216.161 56.5197C216.038 56.5427 215.89 56.5596 215.717 56.5702C215.601 56.5774 215.473 56.5818 215.334 56.5833C215.295 56.5838 215.255 56.584 215.215 56.584C215.197 56.584 215.18 56.5841 215.163 56.5841C215.079 56.5845 215.001 56.5858 214.929 56.5876C214.783 56.5913 214.661 56.5971 214.561 56.6019C214.557 56.602 214.554 56.6022 214.551 56.6023C214.46 56.6066 214.387 56.61 214.331 56.61C213.993 56.662 213.759 56.74 213.629 56.87C213.317 57.182 213.135 57.572 213.031 57.988C212.99 58.1593 212.962 58.3188 212.945 58.4682ZM223.484 45.1725C223.484 45.173 223.484 45.1735 223.484 45.174C223.483 45.1923 223.483 45.2004 223.483 45.2C223.483 45.1996 223.483 45.1897 223.484 45.1725ZM193.184 44.6659L193.201 44.416L193.184 44.6659Z" fill="url(#paint1_linear_1610_1717)"/>
</g>
<path d="M144.213 47.666L138.935 48.056C138.831 46.652 138.805 45.924 138.805 45.82C138.753 44.962 138.727 43.74 138.675 42.18C138.623 40.62 138.597 39.528 138.597 38.904C138.545 37.968 138.987 37.5 139.923 37.5C140.443 37.526 141.327 37.578 142.523 37.63C143.719 37.708 144.629 37.76 145.253 37.76C145.981 37.786 147.151 37.786 148.789 37.786C150.427 37.786 151.623 37.786 152.351 37.812C153.183 37.838 154.353 37.968 155.913 38.202C156.303 38.254 156.563 38.384 156.693 38.54C156.823 38.696 156.875 38.982 156.875 39.398C156.875 39.71 156.849 40.152 156.797 40.724C156.745 41.296 156.693 41.712 156.693 41.92C156.667 42.076 156.641 42.83 156.641 44.208C156.615 45.352 156.615 45.976 156.615 46.028C156.615 46.106 156.537 46.73 156.433 47.926C154.197 48.108 153.001 48.212 152.819 48.212C152.351 48.264 152.039 48.342 151.909 48.498C151.779 48.654 151.753 48.94 151.805 49.382C151.909 50.11 151.961 50.89 151.987 51.748C151.987 52.606 151.987 53.308 151.961 53.854C151.935 54.426 151.883 55.232 151.805 56.272C151.701 57.338 151.649 58.066 151.649 58.482V59.99L143.875 60.9C143.979 56.402 144.109 51.982 144.213 47.666Z" fill="url(#paint2_linear_1610_1717)"/>
<path d="M181.189 60.198C180.773 60.198 180.149 60.198 179.291 60.172C178.433 60.146 177.783 60.12 177.367 60.12C176.535 60.12 175.781 60.146 175.079 60.198C174.819 60.25 174.637 60.224 174.533 60.146C174.403 60.094 174.325 59.938 174.273 59.704C173.753 57.832 173.545 56.246 173.649 54.998C173.649 54.972 173.597 54.686 173.519 54.14C171.023 54.01 169.593 53.932 169.229 53.88C168.813 53.88 168.397 53.802 168.007 53.698C167.643 53.62 167.305 53.646 167.045 53.802C166.785 53.958 166.603 54.218 166.499 54.582C166.343 55.128 166.135 55.986 165.823 57.182C165.511 58.378 165.303 59.288 165.147 59.912C165.095 60.042 165.043 60.172 164.939 60.302C164.835 60.432 164.757 60.484 164.705 60.484C163.145 60.588 161.611 60.64 160.077 60.64C159.817 60.666 159.609 60.588 159.505 60.406C159.375 60.25 159.349 60.016 159.427 59.73C159.817 57.91 160.233 56.09 160.649 54.244C161.507 50.448 162.105 47.9 162.417 46.652C162.521 46.21 162.703 45.508 162.989 44.546C163.275 43.61 163.483 42.882 163.613 42.388C163.951 40.932 164.445 39.762 165.069 38.826C165.303 38.462 165.641 38.28 166.083 38.254C168.501 38.15 170.633 38.02 172.479 37.864C173.259 37.812 173.857 37.916 174.299 38.15C174.715 38.384 175.079 38.826 175.339 39.476C176.067 41.348 176.639 42.96 177.081 44.364C177.185 44.754 177.627 46.444 178.407 49.408L179.967 55.44C180.019 55.726 180.175 56.324 180.409 57.208C180.617 58.092 180.799 58.794 180.929 59.262C180.929 59.34 180.955 59.418 181.007 59.522C181.059 59.626 181.085 59.704 181.137 59.782C181.163 59.86 181.189 59.938 181.215 59.99C181.241 60.068 181.267 60.12 181.267 60.146C181.267 60.198 181.241 60.198 181.189 60.198ZM168.293 44.78C168.085 47.224 167.981 48.55 167.955 48.81C167.903 49.304 168.137 49.538 168.631 49.538C170.555 49.538 171.725 49.538 172.141 49.538C172.401 49.538 172.557 49.486 172.661 49.382C172.765 49.278 172.791 49.096 172.765 48.836C172.505 46.626 172.349 45.404 172.323 45.144C172.297 45.092 172.245 45.014 172.193 44.936C172.115 44.858 172.037 44.806 171.985 44.806C171.517 44.806 170.269 44.78 168.293 44.78Z" fill="url(#paint3_linear_1610_1717)"/>
<path d="M184.561 38.254C184.561 38.254 185.003 38.15 185.835 37.942C186.667 37.734 187.161 37.604 187.317 37.604C190.905 37.474 193.271 37.422 194.415 37.448C196.521 37.526 198.315 37.994 199.771 38.852C199.979 39.008 200.213 39.19 200.421 39.398C200.629 39.632 200.811 39.814 200.915 39.97C201.019 40.126 201.201 40.36 201.409 40.698C201.617 41.036 201.747 41.244 201.799 41.348C202.813 42.882 203.307 44.416 203.255 45.924C203.203 46.756 202.917 47.588 202.397 48.446C201.877 49.304 201.227 49.876 200.473 50.162C198.211 51.098 196.105 51.67 194.129 51.93C193.817 51.982 193.635 52.06 193.531 52.216C193.427 52.372 193.375 52.606 193.427 52.918C193.479 53.594 193.557 54.764 193.687 56.402C193.817 58.04 193.921 59.288 193.999 60.172C194.025 60.536 193.973 60.77 193.817 60.874C193.661 60.978 193.453 61.056 193.141 61.056C191.789 61.082 190.619 61.082 189.631 61.03C188.929 61.03 187.005 60.952 183.833 60.796C183.781 60.744 183.755 60.692 183.781 60.588C183.781 60.484 183.833 60.328 183.885 60.094C183.937 59.886 183.989 59.704 183.989 59.574C184.093 57.624 184.145 56.22 184.171 55.336C184.223 53.724 184.275 51.332 184.327 48.16C184.379 44.988 184.457 42.622 184.509 41.036C184.535 39.216 184.561 38.306 184.561 38.254ZM191.659 46.392C192.205 46.6 192.673 46.704 193.037 46.73C193.401 46.756 193.739 46.678 194.051 46.496C194.363 46.34 194.623 46.132 194.831 45.924C195.039 45.716 195.325 45.352 195.689 44.832C195.871 44.598 195.923 44.364 195.819 44.13C195.715 43.922 195.481 43.792 195.169 43.766C194.311 43.714 193.349 43.74 192.257 43.844C192.153 43.844 192.023 43.922 191.893 44.052C191.763 44.182 191.685 44.312 191.685 44.416C191.659 44.572 191.659 45.248 191.659 46.392Z" fill="url(#paint4_linear_1610_1717)"/>
<path d="M218.855 40.932C218.621 43.428 218.491 44.78 218.491 44.936C218.491 45.04 218.361 47.172 218.101 51.28C218.049 52.112 217.997 52.658 217.971 52.866C217.945 53.1 217.789 53.308 217.477 53.516C217.165 53.724 216.879 53.802 216.567 53.776C215.943 53.75 214.799 53.646 213.187 53.464C212.667 53.412 212.381 53.126 212.329 52.632C212.121 50.344 212.017 48.862 212.017 48.238C212.017 47.692 212.043 46.886 212.095 45.82C212.147 44.78 212.199 44 212.199 43.48C212.199 41.634 212.589 40.048 213.395 38.722C213.915 37.89 214.617 37.552 215.501 37.708C215.943 37.812 216.827 37.864 218.153 37.89C218.361 37.916 218.491 37.968 218.595 38.02C218.673 38.098 218.725 38.228 218.725 38.436C218.725 38.592 218.751 39.424 218.855 40.932ZM215.163 61.42H214.929C214.253 61.42 213.837 61.394 213.681 61.29C213.525 61.186 213.369 60.874 213.213 60.302C213.083 59.808 213.005 59.418 212.953 59.106C212.901 58.794 212.927 58.43 213.031 57.988C213.135 57.572 213.317 57.182 213.629 56.87C213.759 56.74 213.993 56.662 214.331 56.61C214.487 56.61 214.773 56.584 215.215 56.584C215.657 56.584 215.995 56.558 216.229 56.506C217.035 56.376 217.607 56.454 217.971 56.766C218.335 57.078 218.465 57.624 218.413 58.404C218.361 59.132 218.257 59.912 218.127 60.692C218.101 60.796 218.049 60.874 217.971 60.978C217.867 61.082 217.789 61.134 217.737 61.134C217.477 61.186 216.619 61.316 215.163 61.498V61.42Z" fill="url(#paint5_linear_1610_1717)"/>
<path d="M260.944 115.383H235.09L233.449 85H126.603L124.963 115.383H99.1084L78 218.177V245.462H282.052V218.177L260.944 115.383Z" fill="#A6D8D5"/>
<path fill-rule="evenodd" clip-rule="evenodd" d="M122.618 80.7937H237.435L239.075 111.177H264.374L286.259 217.75V249.668H73.7939V217.75L95.6783 111.177H120.978L122.618 80.7937ZM130.589 89.2062L128.948 119.589H102.539L82.2065 218.604V241.255H277.846V218.604L257.514 119.589H231.105L229.464 89.2062H130.589Z" fill="#61647B"/>
<path d="M180.023 204.556C221.668 204.556 255.427 185.407 255.427 161.785C255.427 138.164 221.668 119.015 180.023 119.015C138.379 119.015 104.619 138.164 104.619 161.785C104.619 185.407 138.379 204.556 180.023 204.556Z" fill="#9CA6AA"/>
<path fill-rule="evenodd" clip-rule="evenodd" d="M128.78 135.2C115.751 142.591 108.826 152.151 108.826 161.785C108.826 171.419 115.751 180.98 128.78 188.37C141.684 195.689 159.792 200.35 180.023 200.35C200.254 200.35 218.363 195.689 231.267 188.37C244.296 180.98 251.221 171.419 251.221 161.785C251.221 152.151 244.296 142.591 231.267 135.2C218.363 127.881 200.254 123.221 180.023 123.221C159.792 123.221 141.684 127.881 128.78 135.2ZM124.629 127.883C139.016 119.723 158.61 114.808 180.023 114.808C201.437 114.808 221.031 119.723 235.417 127.883C249.68 135.973 259.634 147.798 259.634 161.785C259.634 175.773 249.68 187.598 235.417 195.687C221.031 203.848 201.437 208.762 180.023 208.762C158.61 208.762 139.016 203.848 124.629 195.687C110.367 187.598 100.413 175.773 100.413 161.785C100.413 147.798 110.367 135.973 124.629 127.883Z" fill="#61647B"/>
<path d="M99.2635 196.003C103.007 196.003 106.043 194.384 106.043 192.386C106.043 190.388 103.007 188.769 99.2635 188.769C95.5195 188.769 92.4844 190.388 92.4844 192.386C92.4844 194.384 95.5195 196.003 99.2635 196.003Z" fill="#61647B"/>
<path d="M98.1553 208.783C102.836 208.783 106.631 206.755 106.631 204.254C106.631 201.753 102.836 199.726 98.1553 199.726C93.4743 199.726 89.6797 201.753 89.6797 204.254C89.6797 206.755 93.4743 208.783 98.1553 208.783Z" fill="#6AA29E"/>
<path fill-rule="evenodd" clip-rule="evenodd" d="M282.052 222.383H78V213.971H282.052V222.383Z" fill="#61647B"/>
<path fill-rule="evenodd" clip-rule="evenodd" d="M139.698 93.4336H219.638L219.831 99.0209H139.506L139.698 93.4336Z" fill="#6AA29E"/>
<defs>
<filter id="filter0_d_1610_1717" x="123.593" y="22.4417" width="110.262" height="54.0564" filterUnits="userSpaceOnUse" color-interpolation-filters="sRGB">
<feFlood flood-opacity="0" result="BackgroundImageFix"/>
<feColorMatrix in="SourceAlpha" type="matrix" values="0 0 0 0 0 0 0 0 0 0 0 0 0 0 0 0 0 0 127 0" result="hardAlpha"/>
<feOffset/>
<feGaussianBlur stdDeviation="5"/>
<feComposite in2="hardAlpha" operator="out"/>
<feColorMatrix type="matrix" values="0 0 0 0 0.466667 0 0 0 0 0.333333 0 0 0 0 1 0 0 0 0.3 0"/>
<feBlend mode="normal" in2="BackgroundImageFix" result="effect1_dropShadow_1610_1717"/>
<feBlend mode="normal" in="SourceGraphic" in2="effect1_dropShadow_1610_1717" result="shape"/>
</filter>
<radialGradient id="paint0_radial_1610_1717" cx="0" cy="0" r="1" gradientUnits="userSpaceOnUse" gradientTransform="translate(180 165) rotate(90) scale(182.5 199.091)">
<stop offset="0.739583" stop-color="#FFFDED"/>
<stop offset="1" stop-color="#D3C8DC"/>
</radialGradient>
<linearGradient id="paint1_linear_1610_1717" x1="180" y1="35" x2="180" y2="61" gradientUnits="userSpaceOnUse">
<stop stop-color="#7B2BFF"/>
<stop offset="1" stop-color="#A394FF"/>
</linearGradient>
<linearGradient id="paint2_linear_1610_1717" x1="180" y1="35" x2="180" y2="61" gradientUnits="userSpaceOnUse">
<stop stop-color="#B5BCFF"/>
<stop offset="0.449799" stop-color="white"/>
</linearGradient>
<linearGradient id="paint3_linear_1610_1717" x1="180" y1="35" x2="180" y2="61" gradientUnits="userSpaceOnUse">
<stop stop-color="#B5BCFF"/>
<stop offset="0.449799" stop-color="white"/>
</linearGradient>
<linearGradient id="paint4_linear_1610_1717" x1="180" y1="35" x2="180" y2="61" gradientUnits="userSpaceOnUse">
<stop stop-color="#B5BCFF"/>
<stop offset="0.449799" stop-color="white"/>
</linearGradient>
<linearGradient id="paint5_linear_1610_1717" x1="180" y1="35" x2="180" y2="61" gradientUnits="userSpaceOnUse">
<stop stop-color="#B5BCFF"/>
<stop offset="0.449799" stop-color="white"/>
</linearGradient>
</defs>
</svg>
