<svg width="194" height="131" viewBox="0 0 194 131" fill="none" xmlns="http://www.w3.org/2000/svg">
<path fill-rule="evenodd" clip-rule="evenodd" d="M121.411 115.9C162.763 109.225 193.244 86.2477 193.244 58.9287C193.244 26.3833 149.985 0 96.6218 0C43.2591 0 0 26.3833 0 58.9287C0 91.4741 43.2591 117.857 96.6218 117.857C98.4311 117.857 100.229 117.827 102.014 117.767C111.794 125.014 126.752 130.952 146.193 131C140.26 129.416 129.379 123.692 121.411 115.9Z" fill="url(#paint0_radial_1273_5378)"/>
<path fill-rule="evenodd" clip-rule="evenodd" d="M116.916 114.475L121.073 113.804C141.474 110.51 159.077 103.211 171.527 93.4825C183.98 83.7513 191.12 71.7365 191.12 58.9287C191.12 43.6778 180.976 29.5248 163.838 19.0728C146.738 8.6434 122.978 2.12356 96.6218 2.12356C70.2653 2.12356 46.506 8.6434 29.4056 19.0728C12.2681 29.5248 2.12356 43.6778 2.12356 58.9287C2.12356 74.1796 12.2681 88.3326 29.4056 98.7846C46.506 109.214 70.2653 115.734 96.6218 115.734C98.4074 115.734 100.181 115.704 101.942 115.645L102.683 115.62L103.278 116.061C110.6 121.487 121.023 126.207 134.257 128.051C129.418 125.301 124.256 121.652 119.926 117.418L116.916 114.475ZM140.031 128.654C142.37 129.746 144.486 130.544 146.193 131C143.897 130.994 141.662 130.907 139.492 130.744C123.29 129.531 110.639 124.158 102.014 117.767C100.229 117.827 98.4311 117.857 96.6218 117.857C43.2591 117.857 0 91.4741 0 58.9287C0 26.3833 43.2591 0 96.6218 0C149.985 0 193.244 26.3833 193.244 58.9287C193.244 85.6688 164.041 108.249 124.025 115.454C123.159 115.61 122.287 115.759 121.411 115.9C122.047 116.522 122.702 117.131 123.371 117.725C128.673 122.436 134.889 126.254 140.031 128.654Z" fill="#61647B"/>
<path d="M28.8471 49.3052H34.0371C34.1721 49.3052 34.2321 49.3802 34.2321 49.5002V50.8202C34.2321 50.9252 34.1721 51.0002 34.0371 51.0002H21.7371C21.6171 51.0002 21.5571 50.9252 21.5571 50.8202V49.5002C21.5571 49.3802 21.6171 49.3052 21.7371 49.3052H26.9421V46.6952H23.5371C23.4171 46.6952 23.3571 46.6202 23.3571 46.5002V40.3352C23.3571 40.2152 23.4171 40.1402 23.5521 40.1402H32.1771C32.3121 40.1402 32.3721 40.2152 32.3721 40.3352V41.6402C32.3721 41.7602 32.3121 41.8202 32.1771 41.8202H25.2621V45.0152H32.3271C32.4621 45.0152 32.5071 45.0752 32.5071 45.1952V46.5002C32.5071 46.6202 32.4621 46.6952 32.3271 46.6952H28.8471V49.3052Z" fill="#4A4D66"/>
<path d="M44.9693 45.4502H47.1293C47.2643 45.4502 47.3243 45.5252 47.3243 45.6602V46.9652C47.3243 47.0852 47.2643 47.1602 47.1293 47.1602H41.9243V52.0802C41.9243 52.2002 41.8493 52.2602 41.7143 52.2602H40.1843C40.0643 52.2602 40.0043 52.2002 40.0043 52.0802V47.1602H34.8293C34.7093 47.1602 34.6493 47.0852 34.6493 46.9652V45.6602C34.6493 45.5252 34.7093 45.4502 34.8293 45.4502H43.1693C43.4543 44.1302 43.5893 42.7502 43.5593 41.8652L43.5443 41.4002H36.6293C36.5093 41.4002 36.4493 41.3252 36.4493 41.2052V39.9002C36.4493 39.7802 36.5093 39.7052 36.6293 39.7052H45.2393C45.3743 39.7052 45.4343 39.7802 45.4343 39.9002V41.4902C45.4343 42.5852 45.2693 44.0552 44.9693 45.4502Z" fill="#4A4D66"/>
<path d="M58.0465 39.0752H59.5615C59.6965 39.0752 59.7415 39.1502 59.7415 39.2702V52.0802C59.7415 52.2002 59.6965 52.2602 59.5615 52.2602H58.0465C57.9265 52.2602 57.8665 52.2002 57.8665 52.0802V39.2702C57.8665 39.1502 57.9265 39.0752 58.0465 39.0752ZM55.1215 39.3602H56.6065C56.7415 39.3602 56.8015 39.4352 56.8015 39.5552V51.6752C56.8015 51.7952 56.7415 51.8702 56.6065 51.8702H55.1215C55.0015 51.8702 54.9415 51.7952 54.9415 51.6752V45.4202H53.8015C53.6365 47.8652 52.5265 49.2152 50.7565 49.2152C48.8515 49.2152 47.7115 47.6252 47.7115 44.7752C47.7115 41.9252 48.8515 40.3502 50.7565 40.3502C52.4215 40.3502 53.5015 41.5352 53.7565 43.7102H54.9415V39.5552C54.9415 39.4352 55.0015 39.3602 55.1215 39.3602ZM50.7565 47.5202C51.5965 47.5202 51.9565 46.6202 51.9565 44.7752C51.9565 42.9302 51.5965 42.0452 50.7565 42.0452C49.9315 42.0452 49.5865 42.9302 49.5865 44.7752C49.5865 46.6202 49.9315 47.5202 50.7565 47.5202Z" fill="#4A4D66"/>
<path d="M76.6546 42.1352H74.8546V43.4102H76.6546C76.7896 43.4102 76.8496 43.4852 76.8496 43.6202V44.8802C76.8496 45.0002 76.7896 45.0602 76.6546 45.0602H74.8546V46.2602C74.8546 46.3802 74.7946 46.4552 74.6446 46.4552H73.1146C72.9946 46.4552 72.9346 46.3802 72.9346 46.2602V39.2702C72.9346 39.1502 72.9946 39.0752 73.1146 39.0752H74.6446C74.7946 39.0752 74.8546 39.1502 74.8546 39.2702V40.4552H76.6546C76.7896 40.4552 76.8496 40.5302 76.8496 40.6652V41.9252C76.8496 42.0602 76.7896 42.1352 76.6546 42.1352ZM71.7796 45.1502C70.6096 45.4502 68.8846 45.6152 67.3846 45.6152H64.8946C64.7596 45.6152 64.6996 45.5402 64.6996 45.4202V39.8852C64.6996 39.7652 64.7596 39.6902 64.8796 39.6902H66.4096C66.5446 39.6902 66.6046 39.7652 66.6046 39.8852V43.9502H67.6846C68.8096 43.9502 70.3246 43.8452 71.5246 43.5752C71.6446 43.5452 71.7346 43.6052 71.7646 43.7402L71.9446 44.9102C71.9746 45.0302 71.9296 45.1052 71.7796 45.1502ZM70.4746 46.8152C73.4446 46.8152 74.9896 47.9852 74.9896 49.6052C74.9896 51.1952 73.4446 52.3952 70.4746 52.3952C67.4896 52.3952 65.9446 51.2102 65.9446 49.6052C65.9446 47.9852 67.4896 46.8152 70.4746 46.8152ZM70.4746 50.7902C72.3496 50.7902 73.0846 50.2352 73.0846 49.6052C73.0846 48.9752 72.3496 48.4202 70.4746 48.4202C68.5996 48.4202 67.8496 48.9752 67.8496 49.6052C67.8496 50.2352 68.5996 50.7902 70.4746 50.7902Z" fill="#1DCF90"/>
<path d="M89.7468 42.1352H87.9468V43.4102H89.7468C89.8818 43.4102 89.9418 43.4852 89.9418 43.6202V44.8802C89.9418 45.0002 89.8818 45.0602 89.7468 45.0602H87.9468V46.2602C87.9468 46.3802 87.8868 46.4552 87.7368 46.4552H86.2068C86.0868 46.4552 86.0268 46.3802 86.0268 46.2602V39.2702C86.0268 39.1502 86.0868 39.0752 86.2068 39.0752H87.7368C87.8868 39.0752 87.9468 39.1502 87.9468 39.2702V40.4552H89.7468C89.8818 40.4552 89.9418 40.5302 89.9418 40.6652V41.9252C89.9418 42.0602 89.8818 42.1352 89.7468 42.1352ZM84.8718 45.1502C83.7018 45.4502 81.9768 45.6152 80.4768 45.6152H77.9868C77.8518 45.6152 77.7918 45.5402 77.7918 45.4202V39.8852C77.7918 39.7652 77.8518 39.6902 77.9718 39.6902H79.5018C79.6368 39.6902 79.6968 39.7652 79.6968 39.8852V43.9502H80.7768C81.9018 43.9502 83.4168 43.8452 84.6168 43.5752C84.7368 43.5452 84.8268 43.6052 84.8568 43.7402L85.0368 44.9102C85.0668 45.0302 85.0218 45.1052 84.8718 45.1502ZM83.5668 46.8152C86.5368 46.8152 88.0818 47.9852 88.0818 49.6052C88.0818 51.1952 86.5368 52.3952 83.5668 52.3952C80.5818 52.3952 79.0368 51.2102 79.0368 49.6052C79.0368 47.9852 80.5818 46.8152 83.5668 46.8152ZM83.5668 50.7902C85.4418 50.7902 86.1768 50.2352 86.1768 49.6052C86.1768 48.9752 85.4418 48.4202 83.5668 48.4202C81.6918 48.4202 80.9418 48.9752 80.9418 49.6052C80.9418 50.2352 81.6918 50.7902 83.5668 50.7902Z" fill="#1DCF90"/>
<path d="M97.904 42.0452H99.764V39.2702C99.764 39.1502 99.824 39.0752 99.959 39.0752H101.474C101.624 39.0752 101.684 39.1502 101.684 39.2702V48.4352C101.684 48.5552 101.624 48.6302 101.474 48.6302H99.959C99.824 48.6302 99.764 48.5552 99.764 48.4352V43.6652H97.904C97.769 43.6652 97.709 43.6052 97.709 43.4702V42.2402C97.709 42.1202 97.769 42.0452 97.904 42.0452ZM98.399 44.5352L98.564 45.7502C98.579 45.8102 98.549 45.8852 98.444 45.9152C97.004 46.2452 94.409 46.4102 92.684 46.4102H90.344C90.224 46.4102 90.164 46.3352 90.164 46.2152V44.9702C90.164 44.8502 90.224 44.7752 90.344 44.7752H91.559V41.4602H90.644C90.509 41.4602 90.449 41.4002 90.449 41.2802V40.0202C90.449 39.9152 90.509 39.8402 90.644 39.8402H97.799C97.934 39.8402 97.994 39.9152 97.994 40.0202V41.2802C97.994 41.4002 97.934 41.4602 97.799 41.4602H96.809V44.5502C97.304 44.5052 97.769 44.4302 98.174 44.3552C98.294 44.3402 98.369 44.3702 98.399 44.5352ZM94.964 44.7002V41.4602H93.404V44.7602C93.929 44.7452 94.454 44.7302 94.964 44.7002ZM94.874 50.4302H101.774C101.909 50.4302 101.969 50.4902 101.969 50.6252V51.9302C101.969 52.0502 101.909 52.1252 101.774 52.1252H93.149C93.014 52.1252 92.954 52.0502 92.954 51.9302V47.7302C92.954 47.6102 93.014 47.5502 93.149 47.5502H94.679C94.814 47.5502 94.874 47.6102 94.874 47.7302V50.4302Z" fill="#1DCF90"/>
<path d="M113.051 39.0752H114.566C114.716 39.0752 114.776 39.1502 114.776 39.2702V52.0802C114.776 52.2002 114.716 52.2602 114.566 52.2602H113.051C112.916 52.2602 112.856 52.2002 112.856 52.0802V39.2702C112.856 39.1502 112.916 39.0752 113.051 39.0752ZM111.641 48.1202C111.761 48.2102 111.746 48.3302 111.656 48.4202L110.756 49.4702C110.666 49.5602 110.561 49.5602 110.441 49.4702C109.181 48.4502 108.176 47.3252 107.666 46.3052C107.111 47.4152 106.061 48.6752 104.756 49.6952C104.636 49.7702 104.516 49.7702 104.441 49.6952L103.526 48.6452C103.436 48.5552 103.436 48.4052 103.541 48.3302C105.236 46.9652 106.511 45.2852 106.646 43.0502H103.991C103.841 43.0502 103.781 42.9752 103.781 42.8702V41.5352C103.781 41.4302 103.841 41.3552 103.991 41.3552H106.661V39.6602C106.661 39.5552 106.721 39.4802 106.871 39.4802H108.386C108.506 39.4802 108.566 39.5552 108.566 39.6602V41.3552H111.086C111.236 41.3552 111.281 41.4302 111.281 41.5352V42.8702C111.281 42.9752 111.236 43.0502 111.086 43.0502H108.581C108.731 45.2252 110.111 46.9052 111.641 48.1202Z" fill="#1DCF90"/>
<path d="M127.178 44.4902H118.493C118.358 44.4902 118.298 44.4152 118.298 44.3102V41.4002C118.298 41.2802 118.358 41.1902 118.493 41.1902H125.168V40.6802H118.463C118.328 40.6802 118.268 40.6052 118.268 40.4702V39.4502C118.268 39.3302 118.328 39.2702 118.463 39.2702H126.878C126.998 39.2702 127.058 39.3302 127.058 39.4502V42.3602C127.058 42.4802 126.983 42.5552 126.863 42.5552H120.188V43.1102H127.178C127.298 43.1102 127.373 43.1852 127.373 43.3052V44.3102C127.373 44.4152 127.298 44.4902 127.178 44.4902ZM128.828 46.5602H116.528C116.408 46.5602 116.348 46.5002 116.348 46.3802V45.3002C116.348 45.1802 116.408 45.1052 116.528 45.1052H128.828C128.963 45.1052 129.023 45.1802 129.023 45.3002V46.3802C129.023 46.5002 128.963 46.5602 128.828 46.5602ZM127.403 52.4852H118.343C118.223 52.4852 118.163 52.4102 118.163 52.2902V49.3502C118.163 49.2302 118.223 49.1402 118.343 49.1402H125.318V48.6302H118.313C118.193 48.6302 118.133 48.5552 118.133 48.4202V47.4302C118.133 47.3102 118.193 47.2352 118.313 47.2352H127.013C127.148 47.2352 127.208 47.3102 127.208 47.4302V50.3102C127.208 50.4302 127.133 50.5052 126.998 50.5052H120.053V51.0752H127.403C127.538 51.0752 127.613 51.1502 127.613 51.2702V52.2902C127.613 52.4102 127.538 52.4852 127.403 52.4852Z" fill="#4A4D66"/>
<path d="M143.461 41.4452H145.366C145.516 41.4452 145.576 41.5052 145.576 41.6402V42.9302C145.576 43.0652 145.516 43.1402 145.366 43.1402H143.461V45.1952C143.461 45.3152 143.401 45.3902 143.251 45.3902H141.721C141.601 45.3902 141.541 45.3152 141.541 45.1952V39.2702C141.541 39.1502 141.601 39.0752 141.721 39.0752H143.251C143.401 39.0752 143.461 39.1502 143.461 39.2702V41.4452ZM140.386 44.7302C139.261 44.9702 137.656 45.0902 135.991 45.0902H133.501C133.366 45.0902 133.306 45.0302 133.306 44.9102V39.8102C133.306 39.6902 133.366 39.6302 133.486 39.6302H134.986C135.121 39.6302 135.181 39.6902 135.181 39.8102V43.4852H136.291C137.431 43.4852 138.871 43.3652 140.131 43.1402C140.251 43.1102 140.341 43.1702 140.371 43.3052L140.551 44.5052C140.566 44.6252 140.536 44.7002 140.386 44.7302ZM136.696 50.7452H143.761C143.881 50.7452 143.956 50.8202 143.956 50.9402V52.1252C143.956 52.2452 143.881 52.3052 143.761 52.3052H134.986C134.851 52.3052 134.806 52.2452 134.806 52.1252V48.6002C134.806 48.4802 134.851 48.3902 134.986 48.3902H141.556V47.5802H134.956C134.836 47.5802 134.776 47.5202 134.776 47.3852V46.2302C134.776 46.1252 134.836 46.0502 134.956 46.0502H143.266C143.401 46.0502 143.461 46.1252 143.461 46.2302V49.7402C143.461 49.8452 143.386 49.9202 143.251 49.9202H136.696V50.7452Z" fill="#4A4D66"/>
<path d="M156.989 52.2602H155.474C155.339 52.2602 155.279 52.2002 155.279 52.0802V39.2702C155.279 39.1502 155.339 39.0752 155.474 39.0752H156.989C157.139 39.0752 157.199 39.1502 157.199 39.2702V52.0802C157.199 52.2002 157.139 52.2602 156.989 52.2602ZM149.249 49.2302H146.654C146.519 49.2302 146.474 49.1552 146.474 49.0352V44.1602C146.474 44.0402 146.519 43.9652 146.654 43.9652H151.259V41.8502H146.624C146.504 41.8502 146.444 41.7902 146.444 41.6552V40.4552C146.444 40.3502 146.504 40.2752 146.624 40.2752H152.969C153.089 40.2752 153.149 40.3502 153.149 40.4552V45.2702C153.149 45.3902 153.074 45.4652 152.954 45.4652H148.364V47.6402H149.534C150.689 47.6402 152.354 47.5202 153.674 47.2202C153.794 47.2052 153.884 47.2502 153.914 47.4002L154.109 48.5852C154.124 48.6902 154.094 48.7352 153.959 48.7652C152.624 49.0502 151.049 49.2302 149.249 49.2302Z" fill="#4A4D66"/>
<path d="M166.076 45.3452V46.1552C166.076 46.2752 166.031 46.3502 165.896 46.3502H159.686C159.551 46.3502 159.491 46.2752 159.491 46.1552V40.1852C159.491 40.0502 159.551 39.9902 159.686 39.9902H165.896C166.031 39.9902 166.076 40.0502 166.076 40.1852V40.8602H168.371V39.2702C168.371 39.1502 168.431 39.0752 168.566 39.0752H170.081C170.231 39.0752 170.291 39.1502 170.291 39.2702V48.5102C170.291 48.6302 170.231 48.6902 170.081 48.6902H168.566C168.431 48.6902 168.371 48.6302 168.371 48.5102V45.3452H166.076ZM161.366 44.7302H164.231V41.6102H161.366V44.7302ZM168.371 43.7102V42.4952H166.076V43.7102H168.371ZM163.616 50.4302H170.381C170.516 50.4302 170.576 50.4902 170.576 50.6252V51.9302C170.576 52.0502 170.516 52.1252 170.381 52.1252H161.906C161.756 52.1252 161.711 52.0502 161.711 51.9302V47.7302C161.711 47.6102 161.756 47.5502 161.906 47.5502H163.361C163.496 47.5502 163.616 47.6102 163.616 47.7302V50.4302Z" fill="#4A4D66"/>
<path d="M29.3757 65.8502C28.6857 66.7352 27.6057 67.5602 26.3457 68.1902C26.2257 68.2352 26.0907 68.2202 26.0307 68.1302L25.2807 66.9752C25.2057 66.8552 25.2057 66.7352 25.3257 66.6752C27.0807 65.7752 28.3857 64.6652 28.3857 63.4052V63.1652H25.8057C25.6557 63.1652 25.5957 63.0902 25.5957 62.9702V61.6802C25.5957 61.5602 25.6557 61.4852 25.8057 61.4852H28.3857V60.2402C28.3857 60.1202 28.4457 60.0452 28.5807 60.0452H30.1257C30.2457 60.0452 30.3057 60.1202 30.3057 60.2402V61.4852H32.8257C32.9757 61.4852 33.0207 61.5602 33.0207 61.6802V62.9702C33.0207 63.0902 32.9757 63.1652 32.8257 63.1652H30.3057V63.4052C30.3057 64.6052 31.3407 65.4602 33.1707 66.3602C33.2907 66.4202 33.2907 66.5252 33.2307 66.6452L32.5557 67.8152C32.4957 67.9052 32.3457 67.9052 32.2407 67.8602C31.1457 67.3652 30.0807 66.6602 29.3757 65.8502ZM36.3057 69.7502H34.7907C34.6557 69.7502 34.5957 69.6752 34.5957 69.5702V60.2702C34.5957 60.1502 34.6557 60.0752 34.7907 60.0752H36.3057C36.4557 60.0752 36.5157 60.1502 36.5157 60.2702V69.5702C36.5157 69.6752 36.4557 69.7502 36.3057 69.7502ZM29.7057 71.4302H36.6057C36.7407 71.4302 36.8007 71.4902 36.8007 71.6252V72.9302C36.8007 73.0502 36.7407 73.1252 36.6057 73.1252H27.9807C27.8457 73.1252 27.7857 73.0502 27.7857 72.9302V68.8802C27.7857 68.7602 27.8457 68.6852 27.9807 68.6852H29.5107C29.6457 68.6852 29.7057 68.7602 29.7057 68.8802V71.4302Z" fill="#4A4D66"/>
<path d="M48.4079 66.4502H50.5679C50.7029 66.4502 50.7629 66.5252 50.7629 66.6602V67.9652C50.7629 68.0852 50.7029 68.1602 50.5679 68.1602H45.3629V73.0802C45.3629 73.2002 45.2879 73.2602 45.1529 73.2602H43.6229C43.5029 73.2602 43.4429 73.2002 43.4429 73.0802V68.1602H38.2679C38.1479 68.1602 38.0879 68.0852 38.0879 67.9652V66.6602C38.0879 66.5252 38.1479 66.4502 38.2679 66.4502H46.6079C46.8929 65.1302 47.0279 63.7502 46.9979 62.8652L46.9829 62.4002H40.0679C39.9479 62.4002 39.8879 62.3252 39.8879 62.2052V60.9002C39.8879 60.7802 39.9479 60.7052 40.0679 60.7052H48.6779C48.8129 60.7052 48.8729 60.7802 48.8729 60.9002V62.4902C48.8729 63.5852 48.7079 65.0552 48.4079 66.4502Z" fill="#4A4D66"/>
<path d="M62.0101 65.4902H53.3251C53.1901 65.4902 53.1301 65.4152 53.1301 65.3102V62.4002C53.1301 62.2802 53.1901 62.1902 53.3251 62.1902H60.0001V61.6802H53.2951C53.1601 61.6802 53.1001 61.6052 53.1001 61.4702V60.4502C53.1001 60.3302 53.1601 60.2702 53.2951 60.2702H61.7101C61.8301 60.2702 61.8901 60.3302 61.8901 60.4502V63.3602C61.8901 63.4802 61.8151 63.5552 61.6951 63.5552H55.0201V64.1102H62.0101C62.1301 64.1102 62.2051 64.1852 62.2051 64.3052V65.3102C62.2051 65.4152 62.1301 65.4902 62.0101 65.4902ZM63.6601 67.5602H51.3601C51.2401 67.5602 51.1801 67.5002 51.1801 67.3802V66.3002C51.1801 66.1802 51.2401 66.1052 51.3601 66.1052H63.6601C63.7951 66.1052 63.8551 66.1802 63.8551 66.3002V67.3802C63.8551 67.5002 63.7951 67.5602 63.6601 67.5602ZM62.2351 73.4852H53.1751C53.0551 73.4852 52.9951 73.4102 52.9951 73.2902V70.3502C52.9951 70.2302 53.0551 70.1402 53.1751 70.1402H60.1501V69.6302H53.1451C53.0251 69.6302 52.9651 69.5552 52.9651 69.4202V68.4302C52.9651 68.3102 53.0251 68.2352 53.1451 68.2352H61.8451C61.9801 68.2352 62.0401 68.3102 62.0401 68.4302V71.3102C62.0401 71.4302 61.9651 71.5052 61.8301 71.5052H54.8851V72.0752H62.2351C62.3701 72.0752 62.4451 72.1502 62.4451 72.2702V73.2902C62.4451 73.4102 62.3701 73.4852 62.2351 73.4852Z" fill="#4A4D66"/>
<path d="M77.9482 60.0752H79.3882C79.5082 60.0752 79.5682 60.1502 79.5682 60.2702V73.0802C79.5682 73.2002 79.5082 73.2602 79.3882 73.2602H77.9482C77.8132 73.2602 77.7532 73.2002 77.7532 73.0802V66.4202H76.6882V72.6752C76.6882 72.7952 76.6282 72.8702 76.5082 72.8702H75.0832C74.9632 72.8702 74.9032 72.7952 74.9032 72.6752V60.5552C74.9032 60.4352 74.9632 60.3602 75.0832 60.3602H76.5082C76.6282 60.3602 76.6882 60.4352 76.6882 60.5552V64.7102H77.7532V60.2702C77.7532 60.1502 77.8132 60.0752 77.9482 60.0752ZM67.8082 61.6052H70.5232C70.6732 61.6052 70.7332 61.6802 70.7332 61.7852V63.3602C70.7332 65.5202 70.1482 67.5302 68.7532 69.6302C68.6782 69.7352 68.5432 69.7352 68.4232 69.6602L67.2982 68.9252C67.1782 68.8502 67.2232 68.7452 67.3132 68.6102C68.4232 67.0352 68.9482 65.1602 68.9482 63.5102V63.2552H67.8082C67.6732 63.2552 67.6132 63.1802 67.6132 63.0752V61.7852C67.6132 61.6802 67.6732 61.6052 67.8082 61.6052ZM71.3482 61.6052H73.9582C74.0932 61.6052 74.1532 61.6802 74.1532 61.7852V63.3602C74.1532 65.5202 73.8232 67.7252 72.4882 70.3202C72.4132 70.4252 72.2632 70.4252 72.1582 70.3652L70.8832 69.6752C70.7632 69.6152 70.8082 69.5102 70.8982 69.3752C71.9782 67.2902 72.3382 65.3102 72.3382 63.5102V63.2552H71.3482C71.2132 63.2552 71.1532 63.1802 71.1532 63.0752V61.7852C71.1532 61.6802 71.2132 61.6052 71.3482 61.6052Z" fill="#4A4D66"/>
<path d="M86.8253 64.9502C84.0653 64.9502 82.5654 64.0352 82.5654 62.5802C82.5654 61.1252 84.0653 60.2402 86.8253 60.2402C89.6003 60.2402 91.0854 61.1252 91.0854 62.5802C91.0854 64.0352 89.6003 64.9502 86.8253 64.9502ZM86.8253 61.7552C85.1753 61.7552 84.4704 62.1002 84.4704 62.5802C84.4704 63.0452 85.1753 63.4052 86.8253 63.4052C88.5053 63.4052 89.1954 63.0452 89.1954 62.5802C89.1954 62.1002 88.5053 61.7552 86.8253 61.7552ZM80.6904 65.4452H92.9903C93.1254 65.4452 93.1853 65.5352 93.1853 65.6552V66.8102C93.1853 66.9302 93.1254 67.0052 92.9903 67.0052H87.8003V67.8752H91.2204C91.3554 67.8752 91.4154 67.9502 91.4154 68.0702V71.1302C91.4154 71.2502 91.3404 71.3252 91.2054 71.3252H84.1854V71.8802H91.6104C91.7454 71.8802 91.8054 71.9552 91.8054 72.0902V73.2152C91.8054 73.3202 91.7454 73.3952 91.6104 73.3952H82.4604C82.3404 73.3952 82.2804 73.3202 82.2804 73.2152V70.0502C82.2804 69.9452 82.3404 69.8552 82.4604 69.8552H89.5254V69.3602H82.4304C82.3104 69.3602 82.2504 69.3002 82.2504 69.1652V68.0702C82.2504 67.9502 82.3104 67.8752 82.4304 67.8752H85.8953V67.0052H80.6904C80.5704 67.0052 80.5104 66.9302 80.5104 66.8102V65.6552C80.5104 65.5352 80.5704 65.4452 80.6904 65.4452Z" fill="#4A4D66"/>
<path d="M98.2184 66.2552L97.7234 64.9802C97.6784 64.8902 97.7084 64.7702 97.8284 64.7402C100.423 64.0802 102.118 62.7902 102.118 61.6352V60.6152C102.118 60.4952 102.178 60.4202 102.298 60.4202H103.858C103.993 60.4202 104.053 60.4952 104.053 60.6152V61.6352C104.053 62.7902 105.748 64.0802 108.343 64.7402C108.448 64.7702 108.478 64.8902 108.433 64.9802L107.953 66.2552C107.893 66.3752 107.818 66.4202 107.698 66.3902C105.628 65.8502 103.903 64.8752 103.078 64.0052C102.268 64.8752 100.543 65.8502 98.4584 66.3902C98.3384 66.4202 98.2784 66.3752 98.2184 66.2552ZM96.9284 67.5302H109.228C109.363 67.5302 109.423 67.6052 109.423 67.7402V69.0452C109.423 69.1652 109.363 69.2402 109.228 69.2402H104.038V73.0802C104.038 73.2002 103.963 73.2602 103.828 73.2602H102.313C102.193 73.2602 102.133 73.2002 102.133 73.0802V69.2402H96.9284C96.8084 69.2402 96.7484 69.1652 96.7484 69.0452V67.7402C96.7484 67.6052 96.8084 67.5302 96.9284 67.5302Z" fill="#4A4D66"/>
<path d="M124.297 67.3802H122.782C122.647 67.3802 122.587 67.3052 122.587 67.1852V60.2702C122.587 60.1502 122.647 60.0752 122.782 60.0752H124.297C124.447 60.0752 124.507 60.1502 124.507 60.2702V67.1852C124.507 67.3052 124.447 67.3802 124.297 67.3802ZM117.202 67.0052C115.057 67.0052 113.512 65.6852 113.512 63.7802C113.512 61.8902 115.057 60.5552 117.202 60.5552C119.347 60.5552 120.892 61.8902 120.892 63.7802C120.892 65.6852 119.347 67.0052 117.202 67.0052ZM117.202 62.1602C116.197 62.1602 115.387 62.8202 115.387 63.7802C115.387 64.7252 116.197 65.3852 117.202 65.3852C118.207 65.3852 119.017 64.7252 119.017 63.7802C119.017 62.8202 118.207 62.1602 117.202 62.1602ZM125.422 71.8952C125.542 71.9702 125.527 72.1052 125.437 72.1802L124.597 73.2602C124.507 73.3502 124.387 73.3352 124.267 73.2602C123.322 72.5702 122.632 71.7902 122.242 70.9802C121.807 71.7902 121.057 72.6152 120.007 73.3352C119.902 73.4252 119.797 73.4252 119.677 73.3502C118.642 72.6302 117.907 71.7902 117.502 71.0402C117.127 71.7902 116.512 72.5252 115.462 73.3352C115.327 73.4402 115.237 73.4252 115.147 73.3352L114.232 72.3002C114.157 72.2102 114.157 72.0752 114.247 72.0002C115.747 70.9352 116.557 69.8252 116.557 68.5802V68.2202C116.557 68.1152 116.617 68.0402 116.737 68.0402H118.222C118.357 68.0402 118.417 68.1152 118.417 68.2202V68.5802C118.417 69.6602 118.972 70.4852 119.842 71.2802C120.712 70.5302 121.297 69.6602 121.297 68.5802V68.1902C121.297 68.0702 121.357 67.9952 121.477 67.9952H122.947C123.082 67.9952 123.142 68.0702 123.142 68.1902V68.5802C123.142 69.7502 124.027 70.8902 125.422 71.8952Z" fill="#4A4D66"/>
<path d="M136.954 64.7102H138.859C139.009 64.7102 139.069 64.7852 139.069 64.9202V66.2252C139.069 66.3452 139.009 66.4202 138.859 66.4202H136.954V73.1102C136.954 73.2302 136.894 73.2902 136.744 73.2902H135.214C135.094 73.2902 135.034 73.2302 135.034 73.1102V60.3002C135.034 60.1802 135.094 60.1052 135.214 60.1052H136.744C136.894 60.1052 136.954 60.1802 136.954 60.3002V64.7102ZM134.254 68.8352C134.374 68.9252 134.359 69.0452 134.269 69.1352L133.369 70.1852C133.279 70.2752 133.159 70.2752 133.039 70.1852C131.779 69.1802 130.789 68.0402 130.279 67.0202C129.724 68.1302 128.659 69.3902 127.354 70.3952C127.249 70.4852 127.129 70.4852 127.039 70.3952L126.139 69.3452C126.049 69.2702 126.049 69.1202 126.154 69.0452C127.954 67.6052 129.274 65.8052 129.274 63.3752V63.1502H126.709C126.559 63.1502 126.514 63.0752 126.514 62.9552V61.6352C126.514 61.5152 126.559 61.4402 126.709 61.4402H133.579C133.729 61.4402 133.774 61.5152 133.774 61.6352V62.9552C133.774 63.0752 133.729 63.1502 133.579 63.1502H131.179V63.3752C131.179 65.7302 132.634 67.5302 134.254 68.8352Z" fill="#4A4D66"/>
<path d="M151.846 64.6352H150.046V66.6152H151.846C151.981 66.6152 152.041 66.6902 152.041 66.8102V68.1002C152.041 68.2202 151.981 68.2802 151.846 68.2802H150.046V73.0802C150.046 73.2002 149.986 73.2602 149.836 73.2602H148.306C148.186 73.2602 148.126 73.2002 148.126 73.0802V60.2702C148.126 60.1502 148.186 60.0752 148.306 60.0752H149.836C149.986 60.0752 150.046 60.1502 150.046 60.2702V62.9702H151.846C151.981 62.9702 152.041 63.0452 152.041 63.1802V64.4402C152.041 64.5752 151.981 64.6352 151.846 64.6352ZM146.971 68.0702L147.181 69.3602C147.196 69.4802 147.151 69.5252 147.016 69.5552C145.696 69.8402 144.106 70.0202 142.306 70.0202H140.086C139.951 70.0202 139.891 69.9452 139.891 69.8252V61.4552C139.891 61.3502 139.951 61.2752 140.071 61.2752H141.616C141.751 61.2752 141.796 61.3502 141.796 61.4552V68.3102H142.591C143.746 68.3102 145.411 68.1902 146.731 67.8902C146.851 67.8602 146.956 67.9352 146.971 68.0702Z" fill="#4A4D66"/>
<path d="M157.149 64.9952C156.459 64.9952 155.934 64.5002 155.934 63.8102C155.934 63.1202 156.459 62.6252 157.149 62.6252C157.839 62.6252 158.364 63.1202 158.364 63.8102C158.364 64.5002 157.839 64.9952 157.149 64.9952ZM157.149 70.7252C156.459 70.7252 155.934 70.2302 155.934 69.5402C155.934 68.8502 156.459 68.3552 157.149 68.3552C157.839 68.3552 158.364 68.8502 158.364 69.5402C158.364 70.2302 157.839 70.7252 157.149 70.7252Z" fill="#4A4D66"/>
<path d="M163.547 72.2102C161.582 72.2102 160.157 71.1002 159.632 69.3002C159.602 69.1652 159.662 69.0902 159.782 69.0602L161.297 68.6552C161.417 68.6252 161.492 68.6702 161.537 68.7902C161.852 69.6452 162.482 70.2302 163.547 70.2302C164.702 70.2302 165.437 69.6002 165.437 68.6402C165.437 67.6802 164.642 67.1552 163.427 67.1552H162.962C162.842 67.1552 162.767 67.0802 162.767 66.9602V65.6252C162.767 65.5052 162.842 65.4302 162.962 65.4302H163.427C164.447 65.4302 165.152 64.9052 165.152 64.1402C165.152 63.3452 164.462 62.7602 163.502 62.7602C162.557 62.7602 161.942 63.3452 161.627 64.2002C161.582 64.3202 161.507 64.3652 161.387 64.3352L159.872 63.9302C159.752 63.9002 159.692 63.8252 159.722 63.6902C160.247 61.8902 161.657 60.7802 163.547 60.7802C165.677 60.7802 167.252 62.0402 167.252 63.7652C167.252 64.8452 166.607 65.7452 165.527 66.2402C166.772 66.6602 167.537 67.5902 167.537 68.9252C167.537 70.8902 165.917 72.2102 163.547 72.2102Z" fill="#4A4D66"/>
<defs>
<radialGradient id="paint0_radial_1273_5378" cx="0" cy="0" r="1" gradientUnits="userSpaceOnUse" gradientTransform="translate(96.6218 28.668) rotate(90) scale(112.018 165.242)">
<stop offset="0.571032" stop-color="white"/>
<stop offset="0.711981" stop-color="#D0D6FF"/>
<stop offset="0.767739" stop-color="white"/>
<stop offset="0.823497" stop-color="#D2D7FF"/>
<stop offset="0.907134" stop-color="#8D9AFF"/>
</radialGradient>
</defs>
</svg>
