<svg width="360" height="330" viewBox="0 0 360 330" fill="none" xmlns="http://www.w3.org/2000/svg">
<rect width="360" height="330" rx="6" fill="url(#paint0_radial_1195_5296)"/>
<g opacity="0.5">
<mask id="mask0_1195_5296" style="mask-type:alpha" maskUnits="userSpaceOnUse" x="0" y="0" width="360" height="330">
<rect width="360" height="330" rx="6" fill="white"/>
</mask>
<g mask="url(#mask0_1195_5296)">
<path d="M363.98 262.5C362.36 271.4 356.7 288.97 337.31 288.97C334.1 288.97 325.59 290.37 322.14 291.16C312.81 293.29 303.15 292.28 293.99 289.52C284.61 286.69 276.41 282.77 276.41 274.07C276.41 259.17 317.28 256.89 349.47 257.41C355.69 257.51 361.13 254.12 363.98 249.07V196C343.06 196.68 307.84 200.22 307.84 216.31C307.84 230.94 342.32 225.19 342.32 239.81C342.32 254.43 228.51 249.53 229.12 275.71C229.73 301.89 282.29 295.95 282.29 306.15C282.29 316.35 222 309.8 222 321.98C222 325.17 222.72 328.53 223.77 331.76H291.64C289.69 325.92 289.35 320.23 293.86 317.72C304.82 311.63 321.27 312.41 321.27 303.89C321.27 303.54 321.25 303.2 321.2 302.86C320.74 299.59 322.77 296.42 325.97 295.61C329.75 294.65 335.06 294.45 343.94 293.82C353.68 293.13 354.83 292.85 361.64 289.54C362.55 289.1 363.33 288.48 363.99 287.76V262.5H363.98Z" fill="url(#paint1_linear_1195_5296)"/>
<path d="M334.129 92.9145C334.129 87.4375 362.513 88.8208 362.513 75.1846C362.513 59.9486 295.777 68.823 294.777 60.118C293.823 51.8836 357.751 51.4319 375 37.9933V34.0784C366.829 35.5371 352.591 36.4688 352.591 31.4058C352.591 22.4844 367.348 24.7618 375 21.9762V10.6644C371.119 7.73768 366.376 5.27206 368.145 2.43942C368.886 1.24426 371.48 0.209071 375 -0.675541V-2.88707L372.434 -2.95295C372.434 -2.95295 291.182 9.11166 291.182 16.6967C291.182 30.6341 330.655 25.3264 330.655 32.6198C330.655 50.5943 244.948 47.6582 244.948 19.0212C244.948 12.7819 261.02 3.83222 262.178 -3H180C180 19.0212 248.63 8.99909 238.5 34.0784C225 67.5 294.656 59.4028 294.656 78.4314C294.656 84.3413 276.444 91.8041 276.444 99.9444C276.444 105.92 290.691 108.969 299.668 108.969C326.023 108.969 341.419 115.905 341.419 127.556C341.419 148.062 269.029 167.307 265.5 167.307C261.971 167.307 247.912 215 247.912 215L258 210.897C258 210.897 249.366 166.733 309.404 162.121C337.186 159.985 359.567 154.226 375 146.979V105.44C356.575 100.34 334.129 98.0058 334.129 92.9239V92.9145Z" fill="url(#paint2_linear_1195_5296)"/>
<path d="M51.0056 143.852C51.0056 160.959 7.0875 145.416 5.26529 169.895C2.98984 200.489 141.672 208 141.672 208C74.6388 200.479 35.7249 182.311 36.5666 168.731C37.3991 155.198 86.793 157.125 86.793 130.012C86.793 111.397 30.4063 119.215 30.4063 100.842C30.4063 66.897 147 80.9049 147 57.4312C147 33.9575 56.0282 41.4873 56.0282 32.7754C56.0282 12.1405 126.401 27.014 126.401 12.066C126.401 4.24765 117.743 -1.00183 107.365 -6H96.0613C98.5773 -2.57481 100.067 0.803845 100.067 4.00565C100.067 17.5761 22.2849 4.48034 22.2849 28.6708C22.2849 31.5189 23.4597 33.7155 25.4114 35.4839C29.7773 39.4303 27.9273 46.6902 22.2757 48.2911C13.7844 50.6925 2.6476 49.9572 2.6476 44.838C2.6476 38.0435 18.0578 40.3425 18.0578 28.5498C18.0485 19.6331 -4.77999 2.88874 -16 -4.79932V18.6372C-6.9167 19.6424 8.99296 22.8907 8.99296 30.0762C8.99296 39.8212 -13.4193 34.8789 -13.4193 47.1835C-13.4193 58.3433 27.9551 53.5872 37.4176 46.4203C42.3015 42.7159 53.1145 43.7583 55.5472 44.3354C66.166 46.8485 68.0252 55.6535 65.4537 60.7726C58.9789 73.6543 7.1615 73.0121 -15.9908 86.9083V116.255C5.57979 126.298 51.0148 127.443 51.0148 143.852H51.0056Z" fill="url(#paint3_linear_1195_5296)"/>
<path d="M116.41 318.397C93.0392 303.68 52.3324 305.566 49.6955 293.111C47.0586 280.657 74.8217 275.15 74.8217 256.873C74.8217 235.253 29.5493 213 -3.61576 213C-3.74384 213 -3.87192 213 -4 213V250.996C19.9509 250.204 62.7521 248.711 62.7521 265.849C62.7521 276.569 20.3502 278.651 20.3502 292.425C20.3502 296.091 22.5577 300.987 30.8829 304.238C33.5123 305.264 33.8212 308.847 31.3876 310.28C26.1515 313.358 22.5125 317.152 23.7481 321.52C26.1062 329.848 20.5386 333.499 16.6359 335H56.0543C51.7674 330.58 45.1901 321.248 53.8242 311.796C56.8303 308.507 61.7802 308.228 66.2253 308.455C86.7181 309.488 92.6625 325.05 94.3652 335H133C130.469 330.036 125.602 324.19 116.402 318.397H116.41Z" fill="url(#paint4_linear_1195_5296)"/>
</g>
</g>
<defs>
<radialGradient id="paint0_radial_1195_5296" cx="0" cy="0" r="1" gradientUnits="userSpaceOnUse" gradientTransform="translate(180 165) rotate(90) scale(182.5 199.091)">
<stop offset="0.739583" stop-color="#F4F1CF"/>
<stop offset="1" stop-color="#A9CCCF"/>
</radialGradient>
<linearGradient id="paint1_linear_1195_5296" x1="292.995" y1="196" x2="292.995" y2="331.76" gradientUnits="userSpaceOnUse">
<stop offset="0.0885417" stop-color="white"/>
<stop offset="0.755208" stop-color="#719D95"/>
</linearGradient>
<linearGradient id="paint2_linear_1195_5296" x1="277.5" y1="-3" x2="277.5" y2="215" gradientUnits="userSpaceOnUse">
<stop offset="0.130208" stop-color="#719D95"/>
<stop offset="0.447917" stop-color="white"/>
</linearGradient>
<linearGradient id="paint3_linear_1195_5296" x1="65.5" y1="-6" x2="65.5" y2="208" gradientUnits="userSpaceOnUse">
<stop stop-color="#719D95"/>
<stop offset="0.635417" stop-color="white"/>
</linearGradient>
<linearGradient id="paint4_linear_1195_5296" x1="64.5" y1="204" x2="64.5" y2="335" gradientUnits="userSpaceOnUse">
<stop offset="0.484375" stop-color="white"/>
<stop offset="0.84375" stop-color="#719D95"/>
</linearGradient>
</defs>
</svg>
