<svg width="390" height="522" viewBox="0 0 390 522" fill="none" xmlns="http://www.w3.org/2000/svg">
<mask id="mask0_949_9329" style="mask-type:alpha" maskUnits="userSpaceOnUse" x="0" y="0" width="390" height="522">
<path d="M0 0H390V522H0V0Z" fill="white"/>
</mask>
<g mask="url(#mask0_949_9329)">
<path d="M188.4 9.66472C185.937 4.37926 180.635 1 174.804 1H16C7.71573 1 1 7.71572 1 16V523H389V58.9231C389 50.6388 382.284 43.9231 374 43.9231H215.196C208.588 43.9231 202.578 40.0932 199.787 34.1031L188.4 9.66472Z" fill="url(#paint0_linear_949_9329)" stroke="#46977A" stroke-width="2"/>
<path d="M181.922 13.7753C180.445 10.6041 177.263 8.57658 173.765 8.57646L17.5003 8.57111C12.5296 8.57094 8.5 12.6004 8.5 17.5711V522L381.5 522.006V60.5C381.5 55.5294 377.471 51.5 372.5 51.5L213.52 51.4997C204.968 51.4997 197.191 46.5435 193.579 38.7915L181.922 13.7753Z" fill="url(#paint1_linear_949_9329)"/>
<path d="M8.49997 524L6.5 524V522V17.5711C6.5 11.4958 11.4251 6.5709 17.5004 6.57111L173.765 6.57646C178.041 6.5766 181.929 9.0547 183.735 12.9306L195.391 37.9468C198.675 44.9941 205.745 49.4997 213.52 49.4997L372.5 49.5C378.575 49.5 383.5 54.4249 383.5 60.5V522.006V524.006L381.5 524.006L8.49997 524Z" stroke="#F1FFB9" stroke-opacity="0.5" stroke-width="4"/>
<path d="M53.8643 26.4014C53.8643 25.9229 53.944 25.4876 54.1035 25.0957C54.2676 24.6992 54.4886 24.3848 54.7666 24.1523C55.0446 23.9199 55.3545 23.8037 55.6963 23.8037C56.0381 23.8037 56.348 23.9199 56.626 24.1523C56.9085 24.3848 57.1296 24.6992 57.2891 25.0957C57.4531 25.4876 57.5352 25.9229 57.5352 26.4014C57.5352 26.8844 57.4531 27.3219 57.2891 27.7139C57.1296 28.1058 56.9085 28.418 56.626 28.6504C56.348 28.8828 56.0381 28.999 55.6963 28.999C55.3545 28.999 55.0446 28.8828 54.7666 28.6504C54.4886 28.418 54.2676 28.1058 54.1035 27.7139C53.944 27.3219 53.8643 26.8844 53.8643 26.4014ZM57.3369 22.252C57.3369 21.7643 57.4189 21.3245 57.583 20.9326C57.7471 20.5407 57.9681 20.2285 58.2461 19.9961C58.5241 19.7637 58.834 19.6475 59.1758 19.6475C59.5176 19.6475 59.8275 19.7637 60.1055 19.9961C60.3835 20.2285 60.6045 20.5407 60.7686 20.9326C60.9326 21.3245 61.0146 21.7643 61.0146 22.252C61.0146 22.7305 60.9326 23.1657 60.7686 23.5576C60.6045 23.9495 60.3835 24.2617 60.1055 24.4941C59.8275 24.7266 59.5176 24.8428 59.1758 24.8428C58.834 24.8428 58.5241 24.7266 58.2461 24.4941C57.9681 24.2617 57.7471 23.9495 57.583 23.5576C57.4189 23.1657 57.3369 22.7305 57.3369 22.252ZM61.9854 22.252C61.9854 21.7643 62.0651 21.3245 62.2246 20.9326C62.3887 20.5407 62.6097 20.2285 62.8877 19.9961C63.1702 19.7637 63.4824 19.6475 63.8242 19.6475C64.166 19.6475 64.4759 19.7637 64.7539 19.9961C65.0319 20.2285 65.2529 20.5407 65.417 20.9326C65.5811 21.3245 65.6631 21.7643 65.6631 22.252C65.6631 22.7305 65.5811 23.1657 65.417 23.5576C65.2529 23.9495 65.0319 24.2617 64.7539 24.4941C64.4759 24.7266 64.166 24.8428 63.8242 24.8428C63.4824 24.8428 63.1702 24.7266 62.8877 24.4941C62.6097 24.2617 62.3887 23.9495 62.2246 23.5576C62.0651 23.1657 61.9854 22.7305 61.9854 22.252ZM65.4648 26.4014C65.4648 25.9229 65.5469 25.4876 65.7109 25.0957C65.875 24.6992 66.096 24.3848 66.374 24.1523C66.652 23.9199 66.9619 23.8037 67.3037 23.8037C67.6455 23.8037 67.9554 23.9199 68.2334 24.1523C68.5114 24.3848 68.7301 24.6992 68.8896 25.0957C69.0537 25.4876 69.1357 25.9229 69.1357 26.4014C69.1357 26.8844 69.0537 27.3219 68.8896 27.7139C68.7301 28.1058 68.5114 28.418 68.2334 28.6504C67.9554 28.8828 67.6455 28.999 67.3037 28.999C66.9619 28.999 66.652 28.8828 66.374 28.6504C66.096 28.418 65.875 28.1058 65.7109 27.7139C65.5469 27.3219 65.4648 26.8844 65.4648 26.4014ZM56.1133 31.8701C56.1133 31.4554 56.1839 31.0999 56.3252 30.8037C56.471 30.5029 56.6533 30.2432 56.8721 30.0244C57.0954 29.8057 57.321 29.6029 57.5488 29.416C57.7402 29.2611 57.9225 29.1084 58.0957 28.958C58.2689 28.8031 58.417 28.6322 58.54 28.4453C58.6357 28.2995 58.7269 28.1468 58.8135 27.9873C58.9001 27.8232 58.9844 27.6523 59.0664 27.4746C59.235 27.1191 59.4105 26.7796 59.5928 26.4561C59.7751 26.1279 60.012 25.8613 60.3037 25.6562C60.5954 25.4466 60.9941 25.3418 61.5 25.3418C62.0059 25.3418 62.4046 25.4466 62.6963 25.6562C62.988 25.8613 63.2249 26.1279 63.4072 26.4561C63.5895 26.7796 63.765 27.1214 63.9336 27.4814C64.0156 27.6592 64.0999 27.8278 64.1865 27.9873C64.2731 28.1468 64.3643 28.3018 64.46 28.4521C64.583 28.639 64.7311 28.8076 64.9043 28.958C65.0775 29.1084 65.2598 29.2611 65.4512 29.416C65.6745 29.6029 65.8978 29.8057 66.1211 30.0244C66.3444 30.2432 66.5267 30.5029 66.668 30.8037C66.8138 31.0999 66.8867 31.4554 66.8867 31.8701C66.8867 32.3805 66.7819 32.8294 66.5723 33.2168C66.3626 33.6087 66.0687 33.9141 65.6904 34.1328C65.3167 34.3561 64.8815 34.4678 64.3848 34.4678C64.0293 34.4678 63.7126 34.4268 63.4346 34.3447C63.1611 34.2673 62.9059 34.1875 62.6689 34.1055C62.4775 34.0417 62.2884 33.9847 62.1016 33.9346C61.9193 33.8844 61.7188 33.8594 61.5 33.8594C61.2812 33.8594 61.0785 33.8844 60.8916 33.9346C60.7093 33.9847 60.5225 34.0417 60.3311 34.1055C60.0895 34.1875 59.832 34.2673 59.5586 34.3447C59.2852 34.4268 58.9684 34.4678 58.6084 34.4678C58.1162 34.4678 57.681 34.3561 57.3027 34.1328C56.929 33.9141 56.6374 33.6087 56.4277 33.2168C56.2181 32.8294 56.1133 32.3805 56.1133 31.8701Z" fill="#62CDAF"/>
<path d="M91.3135 22.544H89.3935V23.904H91.3135C91.4575 23.904 91.5215 23.984 91.5215 24.128V25.472C91.5215 25.6 91.4575 25.664 91.3135 25.664H89.3935V26.944C89.3935 27.072 89.3295 27.152 89.1695 27.152H87.5375C87.4095 27.152 87.3455 27.072 87.3455 26.944V19.488C87.3455 19.36 87.4095 19.28 87.5375 19.28H89.1695C89.3295 19.28 89.3935 19.36 89.3935 19.488V20.752H91.3135C91.4575 20.752 91.5215 20.832 91.5215 20.976V22.32C91.5215 22.464 91.4575 22.544 91.3135 22.544ZM86.1135 25.76C84.8655 26.08 83.0255 26.256 81.4255 26.256H78.7695C78.6255 26.256 78.5615 26.176 78.5615 26.048V20.144C78.5615 20.016 78.6255 19.936 78.7535 19.936H80.3855C80.5295 19.936 80.5935 20.016 80.5935 20.144V24.48H81.7455C82.9455 24.48 84.5615 24.368 85.8415 24.08C85.9695 24.048 86.0655 24.112 86.0975 24.256L86.2895 25.504C86.3215 25.632 86.2735 25.712 86.1135 25.76ZM84.7215 27.536C87.8895 27.536 89.5375 28.784 89.5375 30.512C89.5375 32.208 87.8895 33.488 84.7215 33.488C81.5375 33.488 79.8895 32.224 79.8895 30.512C79.8895 28.784 81.5375 27.536 84.7215 27.536ZM84.7215 31.776C86.7215 31.776 87.5055 31.184 87.5055 30.512C87.5055 29.84 86.7215 29.248 84.7215 29.248C82.7215 29.248 81.9215 29.84 81.9215 30.512C81.9215 31.184 82.7215 31.776 84.7215 31.776Z" fill="white"/>
<path d="M105.279 22.544H103.359V23.904H105.279C105.423 23.904 105.487 23.984 105.487 24.128V25.472C105.487 25.6 105.423 25.664 105.279 25.664H103.359V26.944C103.359 27.072 103.295 27.152 103.135 27.152H101.503C101.375 27.152 101.311 27.072 101.311 26.944V19.488C101.311 19.36 101.375 19.28 101.503 19.28H103.135C103.295 19.28 103.359 19.36 103.359 19.488V20.752H105.279C105.423 20.752 105.487 20.832 105.487 20.976V22.32C105.487 22.464 105.423 22.544 105.279 22.544ZM100.079 25.76C98.8305 26.08 96.9905 26.256 95.3905 26.256H92.7345C92.5905 26.256 92.5265 26.176 92.5265 26.048V20.144C92.5265 20.016 92.5905 19.936 92.7185 19.936H94.3505C94.4945 19.936 94.5585 20.016 94.5585 20.144V24.48H95.7105C96.9105 24.48 98.5265 24.368 99.8065 24.08C99.9345 24.048 100.031 24.112 100.063 24.256L100.255 25.504C100.287 25.632 100.239 25.712 100.079 25.76ZM98.6865 27.536C101.855 27.536 103.503 28.784 103.503 30.512C103.503 32.208 101.855 33.488 98.6865 33.488C95.5025 33.488 93.8545 32.224 93.8545 30.512C93.8545 28.784 95.5025 27.536 98.6865 27.536ZM98.6865 31.776C100.687 31.776 101.471 31.184 101.471 30.512C101.471 29.84 100.687 29.248 98.6865 29.248C96.6865 29.248 95.8865 29.84 95.8865 30.512C95.8865 31.184 96.6865 31.776 98.6865 31.776Z" fill="white"/>
<path d="M113.98 22.448H115.964V19.488C115.964 19.36 116.028 19.28 116.172 19.28H117.788C117.948 19.28 118.012 19.36 118.012 19.488V29.264C118.012 29.392 117.948 29.472 117.788 29.472H116.172C116.028 29.472 115.964 29.392 115.964 29.264V24.176H113.98C113.836 24.176 113.772 24.112 113.772 23.968V22.656C113.772 22.528 113.836 22.448 113.98 22.448ZM114.508 25.104L114.684 26.4C114.7 26.464 114.668 26.544 114.556 26.576C113.02 26.928 110.252 27.104 108.412 27.104H105.916C105.788 27.104 105.724 27.024 105.724 26.896V25.568C105.724 25.44 105.788 25.36 105.916 25.36H107.212V21.824H106.236C106.092 21.824 106.028 21.76 106.028 21.632V20.288C106.028 20.176 106.092 20.096 106.236 20.096H113.868C114.012 20.096 114.076 20.176 114.076 20.288V21.632C114.076 21.76 114.012 21.824 113.868 21.824H112.812V25.12C113.34 25.072 113.836 24.992 114.268 24.912C114.396 24.896 114.476 24.928 114.508 25.104ZM110.844 25.28V21.824H109.18V25.344C109.74 25.328 110.3 25.312 110.844 25.28ZM110.748 31.392H118.108C118.252 31.392 118.316 31.456 118.316 31.6V32.992C118.316 33.12 118.252 33.2 118.108 33.2H108.908C108.764 33.2 108.7 33.12 108.7 32.992V28.512C108.7 28.384 108.764 28.32 108.908 28.32H110.54C110.684 28.32 110.748 28.384 110.748 28.512V31.392Z" fill="white"/>
<path d="M130.137 19.28H131.753C131.913 19.28 131.977 19.36 131.977 19.488V33.152C131.977 33.28 131.913 33.344 131.753 33.344H130.137C129.993 33.344 129.929 33.28 129.929 33.152V19.488C129.929 19.36 129.993 19.28 130.137 19.28ZM128.633 28.928C128.761 29.024 128.745 29.152 128.649 29.248L127.689 30.368C127.593 30.464 127.481 30.464 127.353 30.368C126.009 29.28 124.937 28.08 124.393 26.992C123.801 28.176 122.681 29.52 121.289 30.608C121.161 30.688 121.033 30.688 120.953 30.608L119.977 29.488C119.881 29.392 119.881 29.232 119.993 29.152C121.801 27.696 123.161 25.904 123.305 23.52H120.473C120.313 23.52 120.249 23.44 120.249 23.328V21.904C120.249 21.792 120.313 21.712 120.473 21.712H123.321V19.904C123.321 19.792 123.385 19.712 123.545 19.712H125.161C125.289 19.712 125.353 19.792 125.353 19.904V21.712H128.041C128.201 21.712 128.249 21.792 128.249 21.904V23.328C128.249 23.44 128.201 23.52 128.041 23.52H125.369C125.529 25.84 127.001 27.632 128.633 28.928Z" fill="white"/>
<path fill-rule="evenodd" clip-rule="evenodd" d="M89.3935 20.752H91.3135C91.4575 20.752 91.5215 20.832 91.5215 20.976V22.32C91.5215 22.464 91.4575 22.544 91.3135 22.544H89.3935V23.904H91.3135C91.4575 23.904 91.5215 23.984 91.5215 24.128V25.472C91.5215 25.6 91.4575 25.664 91.3135 25.664H89.3935V26.944C89.3935 27.072 89.3295 27.152 89.1695 27.152H87.5375C87.4095 27.152 87.3455 27.072 87.3455 26.944V19.488C87.3455 19.36 87.4095 19.28 87.5375 19.28H89.1695C89.3295 19.28 89.3935 19.36 89.3935 19.488V20.752ZM91.1912 18.5467C91.0952 18.3367 90.9559 18.122 90.7557 17.9218C90.2124 17.3785 89.5578 17.28 89.1695 17.28H87.5375C87.0409 17.28 86.3935 17.4506 85.8987 18.0073C85.4377 18.526 85.3455 19.1165 85.3455 19.488V22.1414C84.5288 22.3195 83.5137 22.422 82.5935 22.4613V20.144C82.5935 19.7727 82.5006 19.1514 81.9975 18.6188C81.4749 18.0654 80.8224 17.936 80.3855 17.936H78.7535C78.2569 17.936 77.6095 18.1066 77.1147 18.6633C76.6537 19.1819 76.5615 19.7725 76.5615 20.144V26.048C76.5615 26.4193 76.6545 27.0407 77.1575 27.5733C77.5844 28.0252 78.0979 28.1944 78.5098 28.2412C78.1098 28.9074 77.8895 29.6756 77.8895 30.512C77.8895 32.1061 78.6968 33.4521 80.0165 34.3156C81.2644 35.1322 82.9012 35.488 84.7215 35.488C86.5403 35.488 88.1731 35.1257 89.4174 34.3065C90.7276 33.4438 91.5375 32.1012 91.5375 30.512C91.5375 29.6966 91.3282 28.946 90.9473 28.2916C91.0945 28.0989 91.1949 27.8997 91.2626 27.7091C91.6583 28.0601 92.1071 28.1994 92.4748 28.2412C92.0748 28.9074 91.8545 29.6756 91.8545 30.512C91.8545 32.1061 92.6618 33.4521 93.9815 34.3156C95.2294 35.1322 96.8662 35.488 98.6865 35.488C100.505 35.488 102.138 35.1257 103.382 34.3065C104.693 33.4438 105.503 32.1012 105.503 30.512C105.503 29.9776 105.413 29.4711 105.243 29.0013C105.479 29.0749 105.71 29.104 105.916 29.104H106.7V32.992C106.7 33.3633 106.792 33.9847 107.295 34.5173C107.818 35.0706 108.471 35.2 108.908 35.2H118.108C118.544 35.2 119.197 35.0706 119.72 34.5173C120.223 33.9847 120.316 33.3633 120.316 32.992V32.5344C121.113 32.8365 121.923 32.5701 122.349 32.304L122.437 32.2484L122.52 32.1838C123.215 31.6404 123.862 31.0333 124.433 30.3965C124.943 30.9338 125.506 31.4468 126.094 31.9225L126.123 31.9458L126.153 31.968C126.419 32.1679 126.893 32.44 127.533 32.44C127.671 32.44 127.803 32.4274 127.929 32.4044V33.152C127.929 33.525 128.024 34.2034 128.608 34.7524C129.166 35.2776 129.813 35.344 130.137 35.344H131.753C132.037 35.344 132.683 35.298 133.253 34.7908C133.878 34.2353 133.977 33.5271 133.977 33.152V19.488C133.977 19.1157 133.882 18.4652 133.339 17.9218C132.795 17.3785 132.141 17.28 131.753 17.28H130.137C129.7 17.28 129.047 17.4094 128.525 17.9628C128.021 18.4954 127.929 19.1167 127.929 19.488V19.712H127.344C127.31 19.3122 127.161 18.8201 126.761 18.3953C126.275 17.8791 125.655 17.712 125.161 17.712H123.545C123.154 17.712 122.53 17.8105 121.999 18.312C121.528 18.7569 121.365 19.2954 121.329 19.712H120.473C120.341 19.712 120.183 19.7232 120.012 19.7571V19.488C120.012 19.1157 119.917 18.4652 119.374 17.9218C118.83 17.3785 118.176 17.28 117.788 17.28H116.172C115.735 17.28 115.082 17.4094 114.56 17.9628C114.499 18.0265 114.445 18.0915 114.396 18.1572C114.205 18.1125 114.024 18.096 113.868 18.096H106.236C105.914 18.096 105.491 18.1654 105.086 18.4065C104.995 18.2422 104.877 18.0776 104.721 17.9218C104.177 17.3785 103.523 17.28 103.135 17.28H101.503C101.006 17.28 100.359 17.4506 99.8637 18.0073C99.4027 18.526 99.3105 19.1165 99.3105 19.488V22.1414C98.4938 22.3195 97.4787 22.422 96.5585 22.4613V20.144C96.5585 19.7727 96.4656 19.1514 95.9625 18.6188C95.4399 18.0654 94.7874 17.936 94.3505 17.936H92.7185C92.2584 17.936 91.6689 18.0825 91.1912 18.5467ZM94.5585 20.144C94.5585 20.016 94.4945 19.936 94.3505 19.936H92.7185C92.5905 19.936 92.5265 20.016 92.5265 20.144V26.048C92.5265 26.0994 92.5368 26.1431 92.5585 26.1769C92.5908 26.2274 92.6484 26.256 92.7345 26.256H95.3905C95.4962 26.256 95.603 26.2553 95.7105 26.2537C96.6962 26.2397 97.7498 26.162 98.6865 26.0276C98.8633 26.0023 99.0359 25.9749 99.2031 25.9455C99.2392 25.9392 99.275 25.9328 99.3105 25.9263C99.584 25.8762 99.8419 25.8207 100.079 25.76C100.117 25.7484 100.149 25.735 100.175 25.7194C100.188 25.7116 100.2 25.7032 100.21 25.6943C100.231 25.6762 100.245 25.6557 100.254 25.6327C100.267 25.5965 100.267 25.5539 100.255 25.504L100.063 24.256C100.031 24.112 99.9345 24.048 99.8065 24.08C99.7569 24.0912 99.7067 24.1021 99.6561 24.1127C99.6337 24.1175 99.6112 24.1221 99.5885 24.1268C99.4972 24.1454 99.4044 24.1632 99.3105 24.1802C99.1483 24.2096 98.9827 24.2365 98.8148 24.2612C98.0678 24.3709 97.2775 24.4349 96.5585 24.4629C96.261 24.4746 95.9756 24.48 95.7105 24.48H94.5585V20.144ZM101.311 26.944C101.311 27.072 101.375 27.152 101.503 27.152H103.135C103.295 27.152 103.359 27.072 103.359 26.944V25.664H105.279C105.38 25.664 105.442 25.632 105.47 25.568C105.481 25.5415 105.487 25.5095 105.487 25.472V24.128C105.487 23.984 105.423 23.904 105.279 23.904H103.359V22.544H105.279C105.423 22.544 105.487 22.464 105.487 22.32V20.976C105.487 20.832 105.423 20.752 105.279 20.752H103.359V19.488C103.359 19.36 103.295 19.28 103.135 19.28H101.503C101.375 19.28 101.311 19.36 101.311 19.488V26.944ZM106.236 20.096C106.092 20.096 106.028 20.176 106.028 20.288V21.632C106.028 21.76 106.092 21.824 106.236 21.824H107.212V25.36H105.916C105.824 25.36 105.765 25.4013 105.739 25.472C105.729 25.4997 105.724 25.532 105.724 25.568V26.896C105.724 27.024 105.788 27.104 105.916 27.104H108.412C108.57 27.104 108.736 27.1027 108.908 27.1001C109.007 27.0986 109.109 27.0966 109.212 27.0942C109.218 27.094 109.224 27.0939 109.23 27.0938C109.646 27.0838 110.089 27.0666 110.54 27.0422C110.63 27.0373 110.721 27.0321 110.812 27.0266C110.856 27.024 110.901 27.0212 110.946 27.0183C111.328 26.9941 111.713 26.9647 112.088 26.9302C112.308 26.9098 112.526 26.8878 112.738 26.8639C112.738 26.8639 112.738 26.8639 112.738 26.8639C112.773 26.8599 112.809 26.8559 112.844 26.8518C112.864 26.8494 112.885 26.847 112.906 26.8445C112.926 26.842 112.947 26.8396 112.968 26.8371C113.183 26.811 113.392 26.7829 113.592 26.753C113.72 26.7339 113.844 26.714 113.964 26.6933C114.146 26.6619 114.318 26.6286 114.478 26.5935C114.504 26.5877 114.53 26.5819 114.556 26.576C114.562 26.5741 114.568 26.5721 114.575 26.5699C114.671 26.5346 114.699 26.4603 114.684 26.4L114.508 25.104C114.476 24.928 114.396 24.896 114.268 24.912C114.238 24.9175 114.208 24.923 114.178 24.9284C114.149 24.9337 114.119 24.939 114.089 24.9443C114.053 24.9507 114.016 24.9571 113.98 24.9634C113.974 24.9644 113.969 24.9653 113.964 24.9662C113.746 25.0033 113.516 25.0388 113.276 25.0692C113.135 25.0871 112.99 25.1033 112.844 25.1171C112.833 25.1181 112.822 25.1191 112.812 25.12V21.824H113.868C113.905 21.824 113.937 21.8197 113.964 21.8112C113.969 21.8094 113.974 21.8074 113.98 21.8053C114.045 21.7778 114.076 21.7201 114.076 21.632V20.288C114.076 20.205 114.04 20.1396 113.964 20.1113C113.937 20.1014 113.905 20.096 113.868 20.096H106.236ZM109.212 25.3431C109.201 25.3434 109.19 25.3437 109.18 25.344V21.824H110.844V25.28C110.833 25.2807 110.822 25.2813 110.812 25.2819C110.288 25.3121 109.75 25.3277 109.212 25.3431ZM115.964 22.448H113.98C113.935 22.448 113.897 22.4558 113.868 22.4705C113.802 22.5027 113.772 22.568 113.772 22.656V23.968C113.772 24.112 113.836 24.176 113.98 24.176H115.964V29.264C115.964 29.315 115.974 29.3583 115.995 29.392C116.027 29.443 116.085 29.472 116.172 29.472H117.788C117.839 29.472 117.881 29.4637 117.913 29.4482C117.942 29.4347 117.963 29.4157 117.979 29.392C118.001 29.3583 118.012 29.315 118.012 29.264V19.488C118.012 19.36 117.948 19.28 117.788 19.28H116.172C116.028 19.28 115.964 19.36 115.964 19.488V22.448ZM119.993 29.152C119.952 29.1811 119.926 29.2207 119.914 29.264C119.893 29.3399 119.915 29.4269 119.977 29.488L120.953 30.608C120.986 30.6414 121.028 30.6608 121.074 30.6664C121.113 30.671 121.156 30.6659 121.2 30.6509C121.229 30.641 121.259 30.6267 121.289 30.608C121.382 30.5352 121.474 30.4613 121.564 30.3863C122.156 29.8966 122.693 29.3633 123.153 28.8211C123.663 28.2201 124.079 27.6081 124.372 27.0326C124.379 27.019 124.386 27.0055 124.393 26.992C124.393 26.9927 124.393 26.9935 124.394 26.9942C124.682 27.5712 125.12 28.1796 125.667 28.7861C126.068 29.2299 126.527 29.6726 127.031 30.1012C127.136 30.1908 127.244 30.2798 127.353 30.368C127.385 30.3921 127.416 30.4102 127.446 30.4222C127.465 30.4296 127.483 30.4347 127.5 30.4375C127.569 30.4482 127.631 30.4251 127.689 30.368L128.649 29.248C128.745 29.152 128.761 29.024 128.633 28.928C128.609 28.9096 128.586 28.8911 128.563 28.8726C128.545 28.8577 128.526 28.8427 128.508 28.8277C128.405 28.744 128.303 28.6583 128.202 28.5706C128.11 28.4907 128.019 28.4091 127.929 28.3258C127.238 27.6874 126.612 26.9509 126.15 26.1134C126.044 25.921 125.946 25.7232 125.859 25.52C125.811 25.4099 125.766 25.2982 125.725 25.1849C125.555 24.7206 125.437 24.2298 125.385 23.712C125.378 23.6484 125.373 23.5844 125.369 23.52H128.041C128.201 23.52 128.249 23.44 128.249 23.328V21.904C128.249 21.792 128.201 21.712 128.041 21.712H125.353V19.904C125.353 19.792 125.289 19.712 125.161 19.712H123.545C123.385 19.712 123.321 19.792 123.321 19.904V21.712H120.473C120.313 21.712 120.249 21.792 120.249 21.904V23.328C120.249 23.44 120.313 23.52 120.473 23.52H123.305C123.301 23.5845 123.296 23.6485 123.29 23.712C123.233 24.3569 123.086 24.9578 122.864 25.52C122.808 25.6645 122.746 25.8064 122.68 25.9459C122.655 25.997 122.63 26.0477 122.605 26.0981C122.08 27.1336 121.3 28.0314 120.379 28.8296C120.335 28.8673 120.291 28.9048 120.247 28.942C120.195 28.9862 120.142 29.03 120.089 29.0735C120.063 29.0947 120.037 29.1157 120.012 29.1367C120.005 29.1418 119.999 29.1469 119.993 29.152ZM120.012 26.3835C120.254 26.1018 120.464 25.8147 120.64 25.52H120.473C120.341 25.52 120.183 25.5089 120.012 25.475V26.3835ZM129.929 33.152C129.929 33.28 129.993 33.344 130.137 33.344H131.753C131.913 33.344 131.977 33.28 131.977 33.152V19.488C131.977 19.36 131.913 19.28 131.753 19.28H130.137C129.993 19.28 129.929 19.36 129.929 19.488V33.152ZM121.272 30.6895C121.264 30.6963 121.255 30.703 121.247 30.7097L121.231 30.723C121.245 30.7119 121.258 30.7008 121.272 30.6895ZM118.248 31.427C118.214 31.4033 118.168 31.392 118.108 31.392H110.748V28.512C110.748 28.384 110.684 28.32 110.54 28.32H108.908C108.764 28.32 108.7 28.384 108.7 28.512V32.992C108.7 33.0548 108.715 33.106 108.748 33.1419C108.781 33.1792 108.834 33.2 108.908 33.2H118.108C118.252 33.2 118.316 33.12 118.316 32.992V31.6C118.316 31.5164 118.294 31.4598 118.248 31.427ZM112.748 28.8745V29.392H113.967C113.965 29.3468 113.964 29.3039 113.964 29.264V28.7193C113.58 28.7781 113.17 28.8298 112.748 28.8745ZM99.3933 27.558C99.1668 27.5435 98.9312 27.536 98.6865 27.536C97.2886 27.536 96.1868 27.7766 95.3905 28.1927C95.351 28.2134 95.3121 28.2345 95.2741 28.256C94.7139 28.573 94.3174 28.9823 94.0883 29.4583C93.9328 29.7814 93.8545 30.1353 93.8545 30.512C93.8545 30.8725 93.9276 31.2132 94.0727 31.5263C94.6167 32.7003 96.173 33.488 98.6865 33.488C101.214 33.488 102.774 32.6731 103.302 31.4822C103.435 31.1805 103.503 30.8548 103.503 30.512C103.503 30.1385 103.426 29.7874 103.273 29.4665C103.221 29.3581 103.161 29.2532 103.092 29.152C102.76 28.6638 102.229 28.2626 101.503 27.9821C101.213 27.8702 100.892 27.7775 100.541 27.7061C100.189 27.6346 99.8063 27.5845 99.3933 27.558ZM85.3455 25.9263C85.619 25.8762 85.8769 25.8207 86.1135 25.76C86.1522 25.7484 86.1843 25.735 86.2104 25.7194C86.2235 25.7116 86.235 25.7032 86.2451 25.6943C86.2656 25.6762 86.2799 25.6557 86.2886 25.6327C86.3023 25.5965 86.302 25.5539 86.2895 25.504L86.0975 24.256C86.0655 24.112 85.9695 24.048 85.8415 24.08C85.7919 24.0912 85.7417 24.1021 85.6911 24.1127C85.6687 24.1175 85.6462 24.1221 85.6235 24.1268C85.5322 24.1454 85.4394 24.1632 85.3455 24.1802C85.1833 24.2096 85.0177 24.2365 84.8498 24.2612C84.1028 24.3709 83.3125 24.4349 82.5935 24.4629C82.296 24.4746 82.0106 24.48 81.7455 24.48H80.5935V20.144C80.5935 20.016 80.5295 19.936 80.3855 19.936H78.7535C78.6255 19.936 78.5615 20.016 78.5615 20.144V26.048C78.5615 26.0994 78.5718 26.1431 78.5935 26.1769C78.6258 26.2274 78.6834 26.256 78.7695 26.256H81.4255C81.5312 26.256 81.638 26.2553 81.7455 26.2537C82.7312 26.2397 83.7848 26.162 84.7215 26.0276C84.8983 26.0023 85.0709 25.9749 85.2381 25.9455C85.2742 25.9392 85.31 25.9328 85.3455 25.9263ZM85.4283 27.558C85.2018 27.5435 84.9662 27.536 84.7215 27.536C83.3236 27.536 82.2218 27.7766 81.4255 28.1927C81.386 28.2134 81.3471 28.2345 81.3091 28.256C80.7489 28.5731 80.3524 28.9823 80.1233 29.4583C79.9678 29.7814 79.8895 30.1353 79.8895 30.512C79.8895 30.8725 79.9626 31.2131 80.1077 31.5263C80.6516 32.7003 82.208 33.488 84.7215 33.488C87.2493 33.488 88.8093 32.6731 89.3367 31.4822C89.4702 31.1805 89.5375 30.8548 89.5375 30.512C89.5375 30.1385 89.4605 29.7874 89.3078 29.4665C89.2562 29.3581 89.196 29.2532 89.1273 29.152C88.7953 28.6638 88.2636 28.2626 87.5375 27.9821C87.2478 27.8702 86.9271 27.7775 86.5759 27.7061C86.224 27.6346 85.8413 27.5845 85.4283 27.558ZM81.9581 30.2701C82.1351 29.7041 82.9661 29.248 84.7215 29.248C86.4777 29.248 87.2963 29.7045 87.4698 30.2707C87.4939 30.3494 87.5055 30.4301 87.5055 30.512C87.5055 30.5855 87.4962 30.6579 87.4769 30.7288C87.3197 31.3063 86.503 31.776 84.7215 31.776C82.9531 31.776 82.1229 31.3132 81.9543 30.7414C81.9322 30.6666 81.9215 30.5898 81.9215 30.512C81.9215 30.4299 81.9335 30.3489 81.9581 30.2701ZM95.9231 30.2701C96.1001 29.7041 96.9311 29.248 98.6865 29.248C100.443 29.248 101.261 29.7045 101.435 30.2707C101.459 30.3494 101.471 30.4301 101.471 30.512C101.471 30.5855 101.461 30.6579 101.442 30.7288C101.285 31.3063 100.468 31.776 98.6865 31.776C96.9181 31.776 96.0879 31.3132 95.9193 30.7414C95.8972 30.6666 95.8865 30.5898 95.8865 30.512C95.8865 30.4299 95.8985 30.3489 95.9231 30.2701Z" fill="#62CDAF"/>
</g>
<mask id="mask1_949_9329" style="mask-type:alpha" maskUnits="userSpaceOnUse" x="0" y="0" width="390" height="522">
<path d="M0 0H390V522H0V0Z" fill="white"/>
</mask>
<g mask="url(#mask1_949_9329)">
<path d="M201.6 9.66472C204.063 4.37926 209.365 1 215.196 1H374C382.284 1 389 7.71572 389 16V523H1V58.9231C1 50.6388 7.71573 43.9231 16 43.9231H174.804C181.412 43.9231 187.422 40.0932 190.213 34.1031L201.6 9.66472Z" fill="url(#paint2_linear_949_9329)" stroke="#46977A" stroke-width="2"/>
<path d="M208.078 13.7753C209.555 10.6041 212.737 8.57658 216.235 8.57646L372.5 8.57111C377.47 8.57094 381.5 12.6004 381.5 17.5711V522L8.5 522.006V60.5C8.5 55.5294 12.5294 51.5 17.5 51.5L176.48 51.4997C185.032 51.4997 192.809 46.5435 196.421 38.7915L208.078 13.7753Z" fill="url(#paint3_linear_949_9329)"/>
<path d="M381.5 524L383.5 524V522V17.5711C383.5 11.4958 378.575 6.5709 372.5 6.57111L216.235 6.57646C211.959 6.5766 208.071 9.0547 206.265 12.9306L194.609 37.9468C191.325 44.9941 184.255 49.4997 176.48 49.4997L17.5 49.5C11.4249 49.5 6.5 54.4249 6.5 60.5V522.006V524.006L8.50003 524.006L381.5 524Z" stroke="#F1FFB9" stroke-opacity="0.5" stroke-width="4"/>
<path d="M293.896 27.3619H291.736V28.8919H293.896C294.058 28.8919 294.13 28.9819 294.13 29.1439V30.6559C294.13 30.7999 294.058 30.8719 293.896 30.8719H291.736V32.3119C291.736 32.4559 291.664 32.5459 291.484 32.5459H289.648C289.504 32.5459 289.432 32.4559 289.432 32.3119V23.9239C289.432 23.7799 289.504 23.6899 289.648 23.6899H291.484C291.664 23.6899 291.736 23.7799 291.736 23.9239V25.3459H293.896C294.058 25.3459 294.13 25.4359 294.13 25.5979V27.1099C294.13 27.2719 294.058 27.3619 293.896 27.3619ZM288.046 30.9799C286.642 31.3399 284.572 31.5379 282.772 31.5379H279.784C279.622 31.5379 279.55 31.4479 279.55 31.3039V24.6619C279.55 24.5179 279.622 24.4279 279.766 24.4279H281.602C281.764 24.4279 281.836 24.5179 281.836 24.6619V29.5399H283.132C284.482 29.5399 286.3 29.4139 287.74 29.0899C287.884 29.0539 287.992 29.1259 288.028 29.2879L288.244 30.6919C288.28 30.8359 288.226 30.9259 288.046 30.9799ZM286.48 32.9779C290.044 32.9779 291.898 34.3819 291.898 36.3259C291.898 38.2339 290.044 39.6739 286.48 39.6739C282.898 39.6739 281.044 38.2519 281.044 36.3259C281.044 34.3819 282.898 32.9779 286.48 32.9779ZM286.48 37.7479C288.73 37.7479 289.612 37.0819 289.612 36.3259C289.612 35.5699 288.73 34.9039 286.48 34.9039C284.23 34.9039 283.33 35.5699 283.33 36.3259C283.33 37.0819 284.23 37.7479 286.48 37.7479Z" fill="white"/>
<path d="M296.196 32.9419L295.512 31.5019C295.458 31.3759 295.494 31.2679 295.638 31.2139C298.662 30.1699 300.84 28.1539 300.84 26.3899V25.0219C300.84 24.8779 300.912 24.8059 301.056 24.8059H302.928C303.09 24.8059 303.162 24.8779 303.162 25.0219V26.3899C303.162 28.1539 305.322 30.1699 308.346 31.2139C308.49 31.2679 308.526 31.3759 308.472 31.5019L307.806 32.9419C307.752 33.0679 307.644 33.1219 307.5 33.0859C304.98 32.3119 302.946 30.8359 301.992 29.4679C301.038 30.8359 299.004 32.3119 296.484 33.0859C296.34 33.1219 296.25 33.0679 296.196 32.9419ZM303.162 35.9659H309.372C309.534 35.9659 309.606 36.0559 309.606 36.1999V37.7839C309.606 37.9099 309.534 37.9999 309.372 37.9999H294.612C294.468 37.9999 294.396 37.9099 294.396 37.7839V36.1999C294.396 36.0559 294.468 35.9659 294.612 35.9659H300.858V32.7979C300.858 32.6539 300.93 32.5819 301.074 32.5819H302.91C303.09 32.5819 303.162 32.6539 303.162 32.7979V35.9659Z" fill="white"/>
<path d="M323.679 39.5119H321.861C321.699 39.5119 321.627 39.4399 321.627 39.2959V23.9239C321.627 23.7799 321.699 23.6899 321.861 23.6899H323.679C323.859 23.6899 323.931 23.7799 323.931 23.9239V39.2959C323.931 39.4399 323.859 39.5119 323.679 39.5119ZM314.391 35.8759H311.277C311.115 35.8759 311.061 35.7859 311.061 35.6419V29.7919C311.061 29.6479 311.115 29.5579 311.277 29.5579H316.803V27.0199H311.241C311.097 27.0199 311.025 26.9479 311.025 26.7859V25.3459C311.025 25.2199 311.097 25.1299 311.241 25.1299H318.855C318.999 25.1299 319.071 25.2199 319.071 25.3459V31.1239C319.071 31.2679 318.981 31.3579 318.837 31.3579H313.329V33.9679H314.733C316.119 33.9679 318.117 33.8239 319.701 33.4639C319.845 33.4459 319.953 33.4999 319.989 33.6799L320.223 35.1019C320.241 35.2279 320.205 35.2819 320.043 35.3179C318.441 35.6599 316.551 35.8759 314.391 35.8759Z" fill="white"/>
<path fill-rule="evenodd" clip-rule="evenodd" d="M291.736 25.3459H293.896C294.058 25.3459 294.13 25.4359 294.13 25.5979V27.1099C294.13 27.2719 294.058 27.3619 293.896 27.3619H291.736V28.8919H293.896C294.058 28.8919 294.13 28.9819 294.13 29.1439V30.6559C294.13 30.7999 294.058 30.8719 293.896 30.8719H291.736V32.3119C291.736 32.4559 291.664 32.5459 291.484 32.5459H289.648C289.505 32.5459 289.433 32.4577 289.432 32.3163C289.432 32.3148 289.432 32.3134 289.432 32.3119V23.9239C289.432 23.7799 289.504 23.6899 289.648 23.6899H291.484C291.664 23.6899 291.736 23.7799 291.736 23.9239V25.3459ZM294.354 22.378C294.219 22.1257 294.039 21.8717 293.799 21.6316C292.997 20.8301 292.036 20.6899 291.484 20.6899H289.648C288.927 20.6899 287.974 20.9384 287.244 21.7599C286.564 22.5243 286.432 23.3907 286.432 23.9239V26.2879C285.929 26.3703 285.381 26.4316 284.836 26.4731V24.6619C284.836 24.129 284.702 23.2165 283.961 22.4311C283.189 21.6145 282.23 21.4279 281.602 21.4279H279.766C279.045 21.4279 278.092 21.6764 277.362 22.4978C276.682 23.2623 276.55 24.1287 276.55 24.6619V31.3039C276.55 31.8369 276.683 32.7494 277.425 33.5348C277.739 33.8673 278.084 34.0953 278.426 34.2488C278.177 34.8899 278.044 35.587 278.044 36.3259C278.044 38.396 279.1 40.1361 280.776 41.2326C282.344 42.2587 284.346 42.6739 286.48 42.6739C288.614 42.6739 290.612 42.2504 292.175 41.2211C292.471 41.0262 292.748 40.811 293.003 40.5772C293.548 40.8878 294.125 40.9999 294.612 40.9999H309.372C310.001 40.9999 310.916 40.8156 311.671 40.0605C312.046 39.6865 312.279 39.2733 312.419 38.8759H314.391C315.913 38.8759 317.327 38.7778 318.627 38.604V39.2959C318.627 39.8313 318.765 40.831 319.627 41.6425C320.451 42.4182 321.403 42.5119 321.861 42.5119H323.679C324.075 42.5119 325.023 42.4488 325.866 41.7002C326.79 40.8788 326.931 39.8345 326.931 39.2959V23.9239C326.931 23.3895 326.795 22.4332 325.994 21.6316C325.192 20.8301 324.231 20.6899 323.679 20.6899H321.861C321.233 20.6899 320.273 20.8765 319.502 21.6931C319.364 21.8398 319.246 21.9909 319.147 22.1432C319.047 22.1341 318.949 22.1299 318.855 22.1299H311.241C310.524 22.1299 309.611 22.373 308.894 23.1346C308.207 23.8655 308.025 24.7288 308.025 25.3459V26.7859C308.025 27.0432 308.055 27.4565 308.218 27.9156C307.564 27.5897 307.038 27.2238 306.665 26.8766C306.312 26.5474 306.196 26.3374 306.162 26.2692V25.0219C306.162 24.4865 306.025 23.4869 305.162 22.6753C304.338 21.8996 303.386 21.8059 302.928 21.8059H301.056C300.522 21.8059 299.57 21.9416 298.773 22.7386C297.976 23.5357 297.84 24.4875 297.84 25.0219V26.2645C297.806 26.3341 297.688 26.5438 297.334 26.8717C297.27 26.9307 297.202 26.9904 297.13 27.0502V25.5979C297.13 25.1362 297.035 24.2217 296.309 23.4108C295.697 22.7263 294.951 22.4611 294.354 22.378ZM295.883 31.1268C295.802 31.1566 295.72 31.1856 295.638 31.2139C295.494 31.2679 295.458 31.3759 295.512 31.5019L296.196 32.9419C296.2 32.9503 296.204 32.9583 296.208 32.9659C296.226 33.0018 296.247 33.0307 296.273 33.0521C296.293 33.069 296.316 33.0813 296.341 33.0886C296.382 33.1003 296.429 33.0998 296.484 33.0859C296.609 33.0476 296.733 33.0076 296.855 32.9659C297.203 32.8475 297.54 32.7158 297.866 32.5734C298.019 32.5065 298.169 32.4372 298.317 32.3657C298.844 32.1103 299.336 31.8273 299.785 31.5274C300.268 31.2036 300.702 30.86 301.074 30.5103C301.227 30.3675 301.369 30.2236 301.5 30.0797C301.652 29.9135 301.789 29.7471 301.911 29.5819C301.939 29.5439 301.966 29.5059 301.992 29.4679C302.019 29.5059 302.046 29.5439 302.074 29.5819C302.198 29.7497 302.338 29.9186 302.492 30.0874C302.621 30.2288 302.761 30.37 302.91 30.5103C303.283 30.86 303.716 31.2036 304.2 31.5274C304.649 31.8273 305.14 32.1103 305.668 32.3657C305.827 32.4429 305.99 32.5176 306.156 32.5895C306.47 32.7258 306.795 32.8519 307.13 32.9659C307.252 33.0076 307.376 33.0476 307.5 33.0859C307.553 33.0991 307.601 33.1002 307.643 33.0903C307.666 33.0847 307.688 33.0757 307.708 33.0633C307.743 33.0412 307.773 33.0084 307.795 32.9659C307.799 32.9583 307.803 32.9503 307.806 32.9419L308.472 31.5019C308.526 31.3759 308.49 31.2679 308.346 31.2139C308.264 31.1856 308.183 31.1566 308.102 31.1268C308.088 31.1218 308.075 31.1167 308.061 31.1116C308.041 31.104 308.02 31.0963 308 31.0886C307.436 30.8755 306.906 30.6287 306.417 30.3567C305.295 29.7318 304.396 28.974 303.83 28.1865C303.757 28.0852 303.69 27.9835 303.628 27.8815C303.407 27.5153 303.26 27.1457 303.197 26.7827C303.174 26.6507 303.162 26.5197 303.162 26.3899V25.0219C303.162 24.8779 303.09 24.8059 302.928 24.8059H301.056C300.912 24.8059 300.84 24.8779 300.84 25.0219V26.3899C300.84 26.5202 300.829 26.6519 300.805 26.7844C300.742 27.1459 300.594 27.5139 300.373 27.8785C300.309 27.9836 300.239 28.0884 300.164 28.1927C299.594 28.9773 298.693 29.7321 297.573 30.3551C297.429 30.4353 297.281 30.5132 297.13 30.5888C297.085 30.6114 297.039 30.6338 296.993 30.6559C296.671 30.8117 296.334 30.9566 295.985 31.0886C295.951 31.1015 295.917 31.1142 295.883 31.1268ZM303.162 35.9659V32.7979C303.162 32.7536 303.156 32.7161 303.141 32.6854C303.108 32.6164 303.035 32.5819 302.91 32.5819H301.074C300.964 32.5819 300.895 32.6246 300.87 32.7098C300.862 32.7353 300.858 32.7647 300.858 32.7979V35.9659H294.612C294.468 35.9659 294.396 36.0559 294.396 36.1999V37.7839C294.396 37.9099 294.468 37.9999 294.612 37.9999H309.372C309.534 37.9999 309.606 37.9099 309.606 37.7839V36.1999C309.606 36.0559 309.534 35.9659 309.372 35.9659H303.162ZM291.596 35.062C291.561 34.9962 291.524 34.9317 291.484 34.8683C291.123 34.2994 290.528 33.8308 289.705 33.5024C289.686 33.4948 289.667 33.4873 289.648 33.4798C289.362 33.3696 289.05 33.2759 288.712 33.2004C288.678 33.1928 288.644 33.1854 288.609 33.1782C287.991 33.0489 287.287 32.9791 286.499 32.978C286.492 32.9779 286.486 32.9779 286.48 32.9779C284.907 32.9779 283.668 33.2486 282.772 33.7167C282.333 33.9459 281.977 34.2226 281.704 34.5379C281.266 35.0455 281.044 35.6534 281.044 36.3259C281.044 38.2519 282.898 39.6739 286.48 39.6739C288.972 39.6739 290.628 38.97 291.398 37.8944C291.424 37.858 291.45 37.8212 291.474 37.7839C291.755 37.3477 291.898 36.8548 291.898 36.3259C291.898 36.2837 291.897 36.2417 291.895 36.1999C291.885 35.9688 291.849 35.7458 291.786 35.5323C291.738 35.3698 291.674 35.2127 291.596 35.062ZM289.173 35.511C288.889 35.2902 288.457 35.1128 287.853 35.0081C287.644 34.9717 287.413 34.9441 287.162 34.9265C286.95 34.9117 286.723 34.9039 286.48 34.9039C286.232 34.9039 286.001 34.912 285.785 34.9274C284.043 35.0517 283.33 35.6532 283.33 36.3259C283.33 36.9987 284.043 37.6002 285.785 37.7245C286.001 37.7399 286.232 37.7479 286.48 37.7479C286.723 37.7479 286.95 37.7402 287.162 37.7254C288.91 37.603 289.612 37.0003 289.612 36.3259C289.612 36.0287 289.475 35.7454 289.173 35.511ZM286.432 31.2878C286.448 31.2856 286.464 31.2833 286.48 31.281C287.052 31.199 287.585 31.0982 288.046 30.9799C288.089 30.9669 288.125 30.9517 288.155 30.9342C288.169 30.9254 288.182 30.916 288.194 30.906C288.253 30.8534 288.267 30.7836 288.244 30.6919L288.028 29.2879C287.992 29.1259 287.884 29.0539 287.74 29.0899C287.684 29.1025 287.628 29.1148 287.571 29.1267C287.545 29.1321 287.52 29.1373 287.495 29.1425C287.154 29.212 286.797 29.2711 286.432 29.321C286.157 29.3584 285.879 29.3906 285.601 29.4178C285.344 29.4429 285.088 29.4638 284.836 29.4808C284.231 29.5216 283.647 29.5399 283.132 29.5399H281.836V24.6619C281.836 24.5179 281.764 24.4279 281.602 24.4279H279.766C279.622 24.4279 279.55 24.5179 279.55 24.6619V31.3039C279.55 31.4479 279.622 31.5379 279.784 31.5379H282.772C282.891 31.5379 283.011 31.5371 283.132 31.5354C283.852 31.5251 284.605 31.4846 285.333 31.4161C285.34 31.4153 285.348 31.4146 285.356 31.4138C285.549 31.3955 285.74 31.3752 285.928 31.3529C286.099 31.3328 286.267 31.3111 286.432 31.2878ZM311.061 35.6419C311.061 35.7859 311.115 35.8759 311.277 35.8759H314.391C314.506 35.8759 314.62 35.8753 314.733 35.8741C315.839 35.8623 316.872 35.7937 317.83 35.6807C318.102 35.6486 318.368 35.613 318.627 35.5741C319.082 35.5058 319.519 35.4275 319.936 35.3406C319.972 35.3331 320.007 35.3256 320.043 35.3179C320.072 35.3116 320.096 35.3046 320.118 35.2968C320.216 35.2606 320.238 35.2056 320.223 35.1019L319.989 33.6799C319.953 33.4999 319.845 33.4459 319.701 33.4639C319.684 33.4678 319.667 33.4717 319.65 33.4755C319.645 33.4766 319.639 33.4778 319.634 33.4789C319.378 33.5359 319.11 33.5873 318.837 33.6335C318.767 33.6452 318.697 33.6566 318.627 33.6677C318.279 33.7225 317.923 33.7691 317.567 33.808C317.149 33.8538 316.732 33.889 316.329 33.9145C315.753 33.9511 315.207 33.9679 314.733 33.9679H313.329V31.3579H318.837C318.981 31.3579 319.071 31.2679 319.071 31.1239V25.3459C319.071 25.2199 318.999 25.1299 318.855 25.1299H311.241C311.097 25.1299 311.025 25.2199 311.025 25.3459V26.7859C311.025 26.9479 311.097 27.0199 311.241 27.0199H316.803V29.5579H311.277C311.264 29.5579 311.252 29.5585 311.241 29.5596C311.107 29.5723 311.061 29.6586 311.061 29.7907C311.061 29.7911 311.061 29.7915 311.061 29.7919V35.6419ZM321.627 39.2959C321.627 39.4399 321.699 39.5119 321.861 39.5119H323.679C323.859 39.5119 323.931 39.4399 323.931 39.2959V23.9239C323.931 23.7799 323.859 23.6899 323.679 23.6899H321.861C321.768 23.6899 321.705 23.7195 321.668 23.7719C321.64 23.8109 321.627 23.8625 321.627 23.9239V39.2959Z" fill="#46977A"/>
<path d="M257.016 41.3359C256.76 41.3359 256.557 41.2526 256.406 41.0859C256.26 40.9193 256.188 40.6953 256.188 40.4141V38.1641H255.969C255.245 38.1641 254.604 38.0104 254.047 37.7031C253.495 37.3958 253.06 36.9557 252.742 36.3828C252.43 35.8099 252.273 35.1276 252.273 34.3359V28.1484C252.273 27.3568 252.427 26.6745 252.734 26.1016C253.042 25.5286 253.479 25.0885 254.047 24.7812C254.62 24.4688 255.305 24.3125 256.102 24.3125H265.898C266.695 24.3125 267.38 24.4688 267.953 24.7812C268.526 25.0885 268.964 25.5286 269.266 26.1016C269.573 26.6745 269.727 27.3568 269.727 28.1484V34.3359C269.727 35.1276 269.573 35.8099 269.266 36.3828C268.964 36.9557 268.526 37.3958 267.953 37.7031C267.38 38.0104 266.695 38.1641 265.898 38.1641H261.047L258.094 40.7969C257.875 40.9896 257.685 41.1276 257.523 41.2109C257.367 41.2943 257.198 41.3359 257.016 41.3359ZM257.109 32.5469C257.474 32.5469 257.781 32.4193 258.031 32.1641C258.286 31.9089 258.414 31.6016 258.414 31.2422C258.414 30.8776 258.286 30.5677 258.031 30.3125C257.781 30.0573 257.474 29.9297 257.109 29.9297C256.745 29.9297 256.435 30.0573 256.18 30.3125C255.924 30.5677 255.797 30.8776 255.797 31.2422C255.797 31.6016 255.924 31.9089 256.18 32.1641C256.435 32.4193 256.745 32.5469 257.109 32.5469ZM261.016 32.5469C261.38 32.5469 261.69 32.4193 261.945 32.1641C262.201 31.9089 262.328 31.6016 262.328 31.2422C262.328 30.8776 262.201 30.5677 261.945 30.3125C261.69 30.0573 261.38 29.9297 261.016 29.9297C260.656 29.9297 260.346 30.0573 260.086 30.3125C259.831 30.5677 259.703 30.8776 259.703 31.2422C259.703 31.6016 259.831 31.9089 260.086 32.1641C260.346 32.4193 260.656 32.5469 261.016 32.5469ZM264.922 32.5469C265.286 32.5469 265.596 32.4193 265.852 32.1641C266.107 31.9089 266.234 31.6016 266.234 31.2422C266.234 30.8776 266.107 30.5677 265.852 30.3125C265.596 30.0573 265.286 29.9297 264.922 29.9297C264.557 29.9297 264.247 30.0573 263.992 30.3125C263.742 30.5677 263.617 30.8776 263.617 31.2422C263.617 31.6016 263.742 31.9089 263.992 32.1641C264.247 32.4193 264.557 32.5469 264.922 32.5469Z" fill="#46977A"/>
</g>
<defs>
<linearGradient id="paint0_linear_949_9329" x1="5.81145e-05" y1="-3.06538e-05" x2="390" y2="420" gradientUnits="userSpaceOnUse">
<stop stop-color="white"/>
<stop offset="0.176441" stop-color="#69CFA8"/>
<stop offset="0.94519" stop-color="#D6DD86"/>
</linearGradient>
<linearGradient id="paint1_linear_949_9329" x1="195" y1="8.5708" x2="195" y2="420" gradientUnits="userSpaceOnUse">
<stop stop-color="#FFF9D8"/>
<stop offset="0.11261" stop-color="#BEF199"/>
<stop offset="1" stop-color="#65CEA8"/>
</linearGradient>
<linearGradient id="paint2_linear_949_9329" x1="-2.2386e-05" y1="-7.98361e-07" x2="390" y2="420" gradientUnits="userSpaceOnUse">
<stop stop-color="white"/>
<stop offset="0.307292" stop-color="#69CFA8"/>
<stop offset="0.94519" stop-color="#D6DD86"/>
</linearGradient>
<linearGradient id="paint3_linear_949_9329" x1="195" y1="8.5708" x2="195" y2="420" gradientUnits="userSpaceOnUse">
<stop stop-color="#FFF9D8"/>
<stop offset="0.11261" stop-color="#BEF199"/>
<stop offset="1" stop-color="#65CEA8"/>
</linearGradient>
</defs>
</svg>
