<svg width="175" height="16" viewBox="0 0 175 16" fill="none" xmlns="http://www.w3.org/2000/svg">
<path d="M7.28407 15H5.10407C4.94407 15 4.84407 14.9 4.84407 14.74V2.86H0.304066C0.144066 2.86 0.0640656 2.76 0.0640656 2.6V0.58C0.0640656 0.419999 0.144066 0.319999 0.304066 0.319999H12.0641C12.2241 0.319999 12.3241 0.419999 12.3241 0.58V2.6C12.3241 2.76 12.2241 2.86 12.0641 2.86H7.54407V14.74C7.54407 14.9 7.44407 15 7.28407 15ZM20.4403 15.28C16.1603 15.28 13.0403 12.26 13.0403 7.66C13.0403 3.06 16.1603 0.0399995 20.4403 0.0399995C24.7203 0.0399995 27.8403 3.06 27.8403 7.66C27.8403 12.26 24.7203 15.28 20.4403 15.28ZM20.4403 12.64C23.2603 12.64 25.0403 10.56 25.0403 7.66C25.0403 4.76 23.2603 2.68 20.4403 2.68C17.6203 2.68 15.8403 4.76 15.8403 7.66C15.8403 10.56 17.6203 12.64 20.4403 12.64ZM35.9963 15.28C33.1163 15.28 30.0563 13.68 30.0563 9.02V0.58C30.0563 0.419999 30.1563 0.319999 30.3163 0.319999H32.4963C32.6563 0.319999 32.7563 0.419999 32.7563 0.58V8.54C32.7563 11.42 34.1563 12.64 35.9963 12.64C37.8163 12.64 39.2563 11.42 39.2563 8.54V0.58C39.2563 0.419999 39.3563 0.319999 39.5163 0.319999H41.6963C41.8563 0.319999 41.9563 0.419999 41.9563 0.58V9.02C41.9563 13.68 38.8763 15.28 35.9963 15.28ZM51.3433 15.28C47.0433 15.28 44.1833 12.28 44.1833 7.66C44.1833 3.04 47.1833 0.0399995 51.3833 0.0399995C54.4633 0.0399995 56.6833 1.48 57.6633 3.98C57.7233 4.14 57.6633 4.28 57.5033 4.32L55.3633 4.92C55.2233 4.96 55.1033 4.9 55.0433 4.76C54.3433 3.42 53.0833 2.68 51.4233 2.68C48.6233 2.68 46.9833 4.66 46.9833 7.66C46.9833 10.68 48.6433 12.64 51.4233 12.64C53.3033 12.64 54.7033 11.76 55.3633 9.92C55.4233 9.76 55.5233 9.7 55.6833 9.74L57.8033 10.34C57.9633 10.38 58.0233 10.48 57.9833 10.6C57.2033 13.36 54.9233 15.28 51.3433 15.28ZM62.8408 15H60.6608C60.5008 15 60.4008 14.9 60.4008 14.74V0.58C60.4008 0.419999 60.5008 0.319999 60.6608 0.319999H62.8408C63.0008 0.319999 63.1008 0.419999 63.1008 0.58V6.2H69.9008V0.58C69.9008 0.419999 70.0008 0.319999 70.1608 0.319999H72.3408C72.5008 0.319999 72.6008 0.419999 72.6008 0.58V14.74C72.6008 14.9 72.5008 15 72.3408 15H70.1608C70.0008 15 69.9008 14.9 69.9008 14.74V8.74H63.1008V14.74C63.1008 14.9 63.0008 15 62.8408 15ZM86.0059 15H83.8259C83.6659 15 83.5659 14.9 83.5659 14.74V2.86H79.0259C78.8659 2.86 78.7859 2.76 78.7859 2.6V0.58C78.7859 0.419999 78.8659 0.319999 79.0259 0.319999H90.7859C90.9459 0.319999 91.0459 0.419999 91.0459 0.58V2.6C91.0459 2.76 90.9459 2.86 90.7859 2.86H86.2659V14.74C86.2659 14.9 86.1659 15 86.0059 15ZM99.1622 15.28C94.8822 15.28 91.7622 12.26 91.7622 7.66C91.7622 3.06 94.8822 0.0399995 99.1622 0.0399995C103.442 0.0399995 106.562 3.06 106.562 7.66C106.562 12.26 103.442 15.28 99.1622 15.28ZM99.1622 12.64C101.982 12.64 103.762 10.56 103.762 7.66C103.762 4.76 101.982 2.68 99.1622 2.68C96.3422 2.68 94.5622 4.76 94.5622 7.66C94.5622 10.56 96.3422 12.64 99.1622 12.64ZM117.748 15.28C115.008 15.28 113.088 13.94 112.308 11.4C112.248 11.24 112.328 11.12 112.488 11.08L114.568 10.58C114.728 10.54 114.828 10.6 114.888 10.76C115.408 12.04 116.248 12.64 117.748 12.64C119.168 12.64 120.128 12.18 120.128 11.08C120.128 10.02 119.228 9.44 117.728 8.9L116.428 8.44C114.088 7.64 112.668 6.26 112.668 4.16C112.668 1.76 114.808 0.0399995 117.588 0.0399995C120.048 0.0399995 121.888 1.18 122.628 3.62C122.688 3.78 122.608 3.9 122.448 3.94L120.248 4.5C120.088 4.54 119.988 4.48 119.928 4.32C119.448 3.12 118.688 2.68 117.588 2.68C116.308 2.68 115.468 3.22 115.468 4.08C115.468 5 116.228 5.6 117.948 6.18L118.988 6.52C121.648 7.4 122.928 8.66 122.928 11.08C122.928 13.52 120.808 15.28 117.748 15.28ZM131.026 15H128.846C128.686 15 128.586 14.9 128.586 14.74V2.86H124.046C123.886 2.86 123.806 2.76 123.806 2.6V0.58C123.806 0.419999 123.886 0.319999 124.046 0.319999H135.806C135.966 0.319999 136.066 0.419999 136.066 0.58V2.6C136.066 2.76 135.966 2.86 135.806 2.86H131.286V14.74C131.286 14.9 131.186 15 131.026 15ZM137.376 15H134.896C134.716 15 134.616 14.88 134.696 14.7L140.556 0.519999C140.616 0.38 140.716 0.319999 140.856 0.319999H142.716C142.856 0.319999 142.956 0.38 143.016 0.519999L148.876 14.7C148.956 14.88 148.856 15 148.676 15H146.156C146.016 15 145.916 14.94 145.856 14.8L144.816 12.06H138.716L137.676 14.8C137.616 14.94 137.516 15 137.376 15ZM141.756 4L139.656 9.56H143.856L141.756 4ZM153.155 15H150.975C150.815 15 150.715 14.9 150.715 14.74V0.58C150.715 0.419999 150.815 0.319999 150.975 0.319999H155.415C159.475 0.319999 161.235 2.12 161.235 5.44C161.235 7.24 160.555 8.76 159.095 9.68L161.835 14.68C161.935 14.86 161.855 15 161.655 15H159.195C159.055 15 158.955 14.94 158.895 14.82L156.535 10.5C156.175 10.54 155.815 10.56 155.415 10.56H153.415V14.74C153.415 14.9 153.315 15 153.155 15ZM153.415 2.82V8.06H155.315C157.435 8.06 158.435 7.28 158.435 5.44C158.435 3.6 157.435 2.82 155.315 2.82H153.415ZM169.899 15H167.719C167.559 15 167.459 14.9 167.459 14.74V2.86H162.919C162.759 2.86 162.679 2.76 162.679 2.6V0.58C162.679 0.419999 162.759 0.319999 162.919 0.319999H174.679C174.839 0.319999 174.939 0.419999 174.939 0.58V2.6C174.939 2.76 174.839 2.86 174.679 2.86H170.159V14.74C170.159 14.9 170.059 15 169.899 15Z" fill="#D595FF"/>
</svg>
