<svg width="42" height="45" viewBox="0 0 42 45" fill="none" xmlns="http://www.w3.org/2000/svg">
<rect x="2" y="4" width="38" height="40" rx="7" fill="#534E8E" stroke="#534E8E" stroke-width="2"/>
<path d="M34 1H8C4.13401 1 1 4.13401 1 8V34C1 37.866 4.13401 41 8 41H34C37.866 41 41 37.866 41 34V8C41 4.13401 37.866 1 34 1Z" fill="#99B6F6" stroke="#534E8E" stroke-width="2"/>
<path d="M4 8C4 5.79086 5.79086 4 8 4H34C36.2091 4 38 5.79086 38 8V34C38 36.2091 36.2091 38 34 38H8C5.79086 38 4 36.2091 4 34V8Z" fill="url(#paint0_linear_1274_5404)"/>
<path d="M20.4893 29.0303C20.2197 29.0303 19.9678 28.9746 19.7334 28.8633C19.499 28.752 19.2529 28.5732 18.9951 28.3271L11.999 21.8145C11.8174 21.6445 11.6826 21.457 11.5947 21.252C11.5127 21.041 11.4717 20.8418 11.4717 20.6543C11.4717 20.4609 11.5127 20.2617 11.5947 20.0566C11.6768 19.8516 11.8086 19.667 11.9902 19.5029L18.9951 13.0166C19.2822 12.7471 19.5342 12.5566 19.751 12.4453C19.9736 12.334 20.2168 12.2783 20.4805 12.2783C20.8965 12.2783 21.2422 12.4219 21.5176 12.709C21.793 12.9902 21.9307 13.333 21.9307 13.7373V16.5938H22.0889C23.5127 16.5938 24.7607 16.8164 25.833 17.2617C26.9053 17.707 27.7988 18.3574 28.5137 19.2129C29.2344 20.0625 29.7734 21.0967 30.1309 22.3154C30.4941 23.5342 30.6758 24.917 30.6758 26.4639C30.6758 27.2842 30.5527 27.8994 30.3066 28.3096C30.0605 28.7256 29.7266 28.9336 29.3047 28.9336C29.0059 28.9336 28.7363 28.8604 28.4961 28.7139C28.2559 28.5732 28.0332 28.3154 27.8281 27.9404C27.4473 27.2373 26.9961 26.6514 26.4746 26.1826C25.9531 25.708 25.335 25.3535 24.6201 25.1191C23.9053 24.8848 23.0615 24.7676 22.0889 24.7676H21.9307V27.5977C21.9307 28.0078 21.793 28.3477 21.5176 28.6172C21.2422 28.8926 20.8994 29.0303 20.4893 29.0303Z" fill="#534E8E"/>
<defs>
<linearGradient id="paint0_linear_1274_5404" x1="4" y1="4" x2="38" y2="38" gradientUnits="userSpaceOnUse">
<stop stop-color="#FBFFED"/>
<stop offset="1" stop-color="#DEE8FF"/>
</linearGradient>
</defs>
</svg>
