<svg width="346" height="60" viewBox="0 0 346 60" fill="none" xmlns="http://www.w3.org/2000/svg">
<rect x="1" y="1" width="344" height="58" rx="29" fill="url(#paint0_linear_1519_6178)" stroke="url(#paint1_linear_1519_6178)" stroke-width="2"/>
<path d="M153.585 20.69H155.403C155.583 20.69 155.655 20.78 155.655 20.924V36.296C155.655 36.44 155.583 36.512 155.403 36.512H153.585C153.423 36.512 153.351 36.44 153.351 36.296V20.924C153.351 20.78 153.423 20.69 153.585 20.69ZM151.893 30.932C152.037 31.04 152.019 31.202 151.911 31.31L150.831 32.57C150.723 32.66 150.597 32.66 150.453 32.57C148.941 31.364 147.735 29.978 147.123 28.754C146.457 30.068 145.215 31.562 143.631 32.822C143.487 32.93 143.343 32.93 143.253 32.822L142.155 31.562C142.047 31.454 142.047 31.292 142.173 31.202C144.333 29.474 145.917 27.314 145.917 24.308V22.346C145.917 22.22 145.989 22.13 146.151 22.13H147.987C148.131 22.13 148.203 22.22 148.203 22.346V24.308C148.203 27.224 149.985 29.42 151.893 30.932ZM170.591 24.128H172.877C173.057 24.128 173.129 24.218 173.129 24.38V25.928C173.129 26.09 173.057 26.162 172.877 26.162H170.591V29.402C170.591 29.546 170.519 29.618 170.339 29.618H168.503C168.359 29.618 168.287 29.546 168.287 29.402V20.924C168.287 20.78 168.359 20.69 168.503 20.69H170.339C170.519 20.69 170.591 20.78 170.591 20.924V24.128ZM162.527 26.846C161.717 27.89 160.439 28.88 158.909 29.636C158.765 29.708 158.585 29.672 158.531 29.582L157.631 28.214C157.541 28.07 157.541 27.908 157.667 27.854C159.773 26.774 161.357 25.55 161.357 24.02V23.642H158.333C158.153 23.642 158.099 23.552 158.099 23.426V21.914C158.099 21.788 158.153 21.698 158.333 21.698H166.595C166.757 21.698 166.829 21.788 166.829 21.914V23.426C166.829 23.552 166.757 23.642 166.595 23.642H163.661V24.02C163.661 25.46 164.903 26.486 167.099 27.548C167.225 27.62 167.225 27.764 167.171 27.89L166.343 29.276C166.289 29.402 166.109 29.402 165.965 29.33C164.651 28.754 163.409 27.836 162.527 26.846ZM160.223 30.428H170.357C170.519 30.428 170.591 30.5 170.591 30.644V36.458C170.591 36.584 170.519 36.674 170.357 36.674H168.521C168.359 36.674 168.287 36.584 168.287 36.458V32.426H160.223C160.061 32.426 159.989 32.336 159.989 32.192V30.644C159.989 30.5 160.061 30.428 160.223 30.428ZM186.302 26.792H188.588C188.768 26.792 188.84 26.882 188.84 27.026V28.61C188.84 28.736 188.768 28.826 188.588 28.826H186.302V36.296C186.302 36.44 186.23 36.512 186.05 36.512H184.214C184.07 36.512 183.998 36.44 183.998 36.296V20.924C183.998 20.78 184.07 20.69 184.214 20.69H186.05C186.23 20.69 186.302 20.78 186.302 20.924V26.792ZM179.264 23.246H182.63C182.792 23.246 182.864 23.336 182.864 23.48V25.01C182.864 25.154 182.792 25.244 182.63 25.244H173.576C173.414 25.244 173.36 25.154 173.36 25.01V23.48C173.36 23.336 173.414 23.246 173.576 23.246H176.96V21.392C176.96 21.266 177.032 21.176 177.212 21.176H179.03C179.192 21.176 179.264 21.266 179.264 21.392V23.246ZM178.13 26.162C180.668 26.162 182.288 27.638 182.288 30.032C182.288 32.408 180.668 33.866 178.13 33.866C175.61 33.866 174.008 32.408 174.008 30.032C174.008 27.638 175.61 26.162 178.13 26.162ZM178.148 31.976C179.336 31.976 180.038 31.148 180.038 30.032C180.038 28.88 179.336 28.052 178.148 28.052C176.96 28.052 176.258 28.88 176.258 30.032C176.258 31.148 176.96 31.976 178.148 31.976ZM202.553 36.512H200.717C200.555 36.512 200.483 36.44 200.483 36.296V20.924C200.483 20.78 200.555 20.69 200.717 20.69H202.553C202.733 20.69 202.805 20.78 202.805 20.924V36.296C202.805 36.44 202.733 36.512 202.553 36.512ZM191.051 33.11C190.889 33.182 190.799 33.164 190.709 33.038L189.863 31.544C189.773 31.4 189.809 31.292 189.953 31.22C193.841 29.33 195.443 27.494 195.443 24.776V24.416H190.403C190.259 24.416 190.187 24.344 190.187 24.2V22.616C190.187 22.472 190.259 22.382 190.403 22.382H197.531C197.711 22.382 197.765 22.472 197.765 22.616V24.776C197.765 28.25 195.605 30.86 191.051 33.11Z" fill="white"/>
<defs>
<linearGradient id="paint0_linear_1519_6178" x1="173" y1="2" x2="173" y2="59.6154" gradientUnits="userSpaceOnUse">
<stop stop-color="#FDDAED"/>
<stop offset="0.275531" stop-color="#F787A1"/>
<stop offset="0.529509" stop-color="#F046AC"/>
<stop offset="0.770833" stop-color="#D33D97"/>
<stop offset="1" stop-color="#F096D7"/>
</linearGradient>
<linearGradient id="paint1_linear_1519_6178" x1="2" y1="2" x2="345.068" y2="50.4365" gradientUnits="userSpaceOnUse">
<stop stop-color="#F268BB"/>
<stop offset="1" stop-color="#EDBBD9"/>
</linearGradient>
</defs>
</svg>
