<svg width="390" height="844" viewBox="0 0 390 844" fill="none" xmlns="http://www.w3.org/2000/svg">
<g clip-path="url(#clip0_1198_5510)">
<rect width="390" height="844" fill="url(#paint0_linear_1198_5510)"/>
<g filter="url(#filter0_f_1198_5510)">
<path d="M396 848L396 593.91C374.401 579.781 347.792 572 320.238 572C287.297 572 255.704 583.121 232.41 602.918C221.47 612.216 212.781 623.069 206.643 634.867C185.97 622.9 160.041 616.284 133.154 616.284C102.262 616.284 72.6359 625.018 50.7922 640.565C40.988 647.544 33.112 655.638 27.4086 664.428C26.052 662.152 24.327 659.915 22.2414 657.734C16.3879 651.611 7.80825 646.048 -3.00763 641.362C-3.98863 640.937 -4.98628 640.52 -6.00003 640.111L-6.00005 848L396 848Z" fill="url(#paint1_linear_1198_5510)"/>
</g>
<g filter="url(#filter1_f_1198_5510)">
<path d="M357.829 97.2273C359.55 95.5147 359.707 92 360.545 92C361.384 92 361.541 95.5147 363.262 97.2273C364.218 98.1787 365.375 98.7573 366.129 99.0123C366.92 99.2796 368.091 99.5223 368.091 99.9048C368.091 100.287 366.92 100.53 366.129 100.797C365.375 101.052 364.218 101.631 363.262 102.582C361.541 104.295 361.384 107.81 360.545 107.81C359.707 107.81 359.55 104.295 357.829 102.582C356.873 101.631 355.716 101.052 354.962 100.797C354.171 100.53 353 100.287 353 99.9048C353 99.5223 354.171 99.2796 354.962 99.0123C355.716 98.7573 356.873 98.1787 357.829 97.2273Z" fill="#AAEBDF"/>
</g>
<g filter="url(#filter2_f_1198_5510)">
<path d="M349.88 109.306C350.906 108.223 351 106 351.5 106C352 106 352.094 108.223 353.12 109.306C353.69 109.908 354.38 110.274 354.83 110.435C355.302 110.605 356 110.758 356 111C356 111.242 355.302 111.395 354.83 111.565C354.38 111.726 353.69 112.092 353.12 112.694C352.094 113.777 352 116 351.5 116C351 116 350.906 113.777 349.88 112.694C349.31 112.092 348.62 111.726 348.17 111.565C347.698 111.395 347 111.242 347 111C347 110.758 347.698 110.605 348.17 110.435C348.62 110.274 349.31 109.908 349.88 109.306Z" fill="#AAEBDF"/>
</g>
<g filter="url(#filter3_f_1198_5510)">
<path d="M47.16 95.9597C48.6422 94.3347 48.7778 91 49.5 91C50.2222 91 50.3578 94.3347 51.84 95.9597C52.6633 96.8623 53.66 97.4113 54.31 97.6532C54.9913 97.9068 56 98.1371 56 98.5C56 98.8629 54.9913 99.0932 54.31 99.3468C53.66 99.5887 52.6633 100.138 51.84 101.04C50.3578 102.665 50.2222 106 49.5 106C48.7778 106 48.6422 102.665 47.16 101.04C46.3367 100.138 45.34 99.5887 44.69 99.3468C44.0087 99.0932 43 98.8629 43 98.5C43 98.1371 44.0087 97.9068 44.69 97.6532C45.34 97.4113 46.3367 96.8623 47.16 95.9597Z" fill="#AAEBDF"/>
</g>
<g filter="url(#filter4_f_1198_5510)">
<path d="M332.88 105.306C333.906 104.223 334 102 334.5 102C335 102 335.094 104.223 336.12 105.306C336.69 105.908 337.38 106.274 337.83 106.435C338.302 106.605 339 106.758 339 107C339 107.242 338.302 107.395 337.83 107.565C337.38 107.726 336.69 108.092 336.12 108.694C335.094 109.777 335 112 334.5 112C334 112 333.906 109.777 332.88 108.694C332.31 108.092 331.62 107.726 331.17 107.565C330.698 107.395 330 107.242 330 107C330 106.758 330.698 106.605 331.17 106.435C331.62 106.274 332.31 105.908 332.88 105.306Z" fill="#FAFFDD"/>
</g>
<g filter="url(#filter5_f_1198_5510)">
<path d="M226.88 103.306C227.906 102.223 228 100 228.5 100C229 100 229.094 102.223 230.12 103.306C230.69 103.908 231.38 104.274 231.83 104.435C232.302 104.605 233 104.758 233 105C233 105.242 232.302 105.395 231.83 105.565C231.38 105.726 230.69 106.092 230.12 106.694C229.094 107.777 229 110 228.5 110C228 110 227.906 107.777 226.88 106.694C226.31 106.092 225.62 105.726 225.17 105.565C224.698 105.395 224 105.242 224 105C224 104.758 224.698 104.605 225.17 104.435C225.62 104.274 226.31 103.908 226.88 103.306Z" fill="#AAEBDF"/>
</g>
<g filter="url(#filter6_f_1198_5510)">
<path d="M236.88 109.306C237.906 108.223 238 106 238.5 106C239 106 239.094 108.223 240.12 109.306C240.69 109.908 241.38 110.274 241.83 110.435C242.302 110.605 243 110.758 243 111C243 111.242 242.302 111.395 241.83 111.565C241.38 111.726 240.69 112.092 240.12 112.694C239.094 113.777 239 116 238.5 116C238 116 237.906 113.777 236.88 112.694C236.31 112.092 235.62 111.726 235.17 111.565C234.698 111.395 234 111.242 234 111C234 110.758 234.698 110.605 235.17 110.435C235.62 110.274 236.31 109.908 236.88 109.306Z" fill="#AAEBDF"/>
</g>
<g filter="url(#filter7_f_1198_5510)">
<path d="M56.88 86.3065C57.9061 85.2231 58 83 58.5 83C59 83 59.0939 85.2231 60.12 86.3065C60.69 86.9082 61.38 87.2742 61.83 87.4355C62.3017 87.6046 63 87.7581 63 88C63 88.2419 62.3017 88.3954 61.83 88.5645C61.38 88.7258 60.69 89.0918 60.12 89.6935C59.0939 90.7769 59 93 58.5 93C58 93 57.9061 90.7769 56.88 89.6935C56.31 89.0918 55.62 88.7258 55.17 88.5645C54.6983 88.3954 54 88.2419 54 88C54 87.7581 54.6983 87.6046 55.17 87.4355C55.62 87.2742 56.31 86.9082 56.88 86.3065Z" fill="#AAEBDF"/>
</g>
<g filter="url(#filter8_f_1198_5510)">
<path d="M26.1599 119.426C26.394 119.093 26.9066 119.164 27.0409 119.548L27.7631 121.614L29.8548 122.258C30.2437 122.378 30.3343 122.888 30.0104 123.134L28.2687 124.459L28.3025 126.648C28.3088 127.055 27.8522 127.298 27.5177 127.066L25.719 125.819L23.6483 126.528C23.2632 126.659 22.8904 126.3 23.0076 125.911L23.6377 123.815L22.3241 122.064C22.0798 121.739 22.306 121.273 22.7129 121.264L24.901 121.216L26.1599 119.426Z" fill="#B3D1FF"/>
</g>
<g filter="url(#filter9_f_1198_5510)">
<path d="M375.16 114.426C375.394 114.093 375.907 114.164 376.041 114.548L376.763 116.614L378.855 117.258C379.244 117.378 379.334 117.888 379.01 118.134L377.269 119.459L377.302 121.648C377.309 122.055 376.852 122.298 376.518 122.066L374.719 120.819L372.648 121.528C372.263 121.659 371.89 121.3 372.008 120.911L372.638 118.815L371.324 117.064C371.08 116.739 371.306 116.273 371.713 116.264L373.901 116.216L375.16 114.426Z" fill="#B3D1FF"/>
</g>
<g filter="url(#filter10_f_1198_5510)">
<path d="M144.16 102.426C144.394 102.093 144.907 102.164 145.041 102.548L145.763 104.614L147.855 105.258C148.244 105.378 148.334 105.888 148.01 106.134L146.269 107.459L146.302 109.648C146.309 110.055 145.852 110.298 145.518 110.066L143.719 108.819L141.648 109.528C141.263 109.659 140.89 109.3 141.008 108.911L141.638 106.815L140.324 105.064C140.08 104.739 140.306 104.273 140.713 104.264L142.901 104.216L144.16 102.426Z" fill="#B3D1FF"/>
</g>
<g filter="url(#filter11_f_1198_5510)">
<path d="M82.129 96.7693C82.1573 96.3633 82.6329 96.1594 82.9465 96.4188L84.6328 97.8139L86.7562 97.284C87.1511 97.1854 87.492 97.5747 87.3422 97.9531L86.5364 99.988L87.6967 101.844C87.9124 102.189 87.6475 102.633 87.2413 102.608L85.057 102.47L83.6507 104.147C83.3891 104.459 82.8845 104.344 82.7833 103.95L82.2391 101.83L80.2097 101.011C79.8323 100.859 79.7853 100.343 80.129 100.125L81.9769 98.9526L82.129 96.7693Z" fill="#FAFFDD"/>
</g>
<g filter="url(#filter12_f_1198_5510)">
<path d="M132.204 105.596C132.334 105.21 132.846 105.134 133.084 105.465L134.36 107.242L136.548 107.27C136.955 107.275 137.186 107.738 136.945 108.066L135.649 109.829L136.299 111.919C136.42 112.307 136.051 112.67 135.665 112.542L133.587 111.854L131.801 113.118C131.468 113.353 131.01 113.114 131.012 112.707L131.024 110.519L129.27 109.211C128.943 108.967 129.029 108.457 129.417 108.333L131.502 107.669L132.204 105.596Z" fill="#FAFFDD"/>
</g>
<g filter="url(#filter13_f_1198_5510)">
<path d="M288.129 79.7693C288.157 79.3633 288.633 79.1594 288.947 79.4188L290.633 80.8139L292.756 80.284C293.151 80.1854 293.492 80.5747 293.342 80.9531L292.536 82.988L293.697 84.8437C293.912 85.1888 293.647 85.6334 293.241 85.6078L291.057 85.4703L289.651 87.1472C289.389 87.459 288.884 87.3444 288.783 86.9502L288.239 84.8304L286.21 84.011C285.832 83.8587 285.785 83.3433 286.129 83.1252L287.977 81.9526L288.129 79.7693Z" fill="#FAFFDD"/>
</g>
<g filter="url(#filter14_f_1198_5510)">
<path d="M23.9976 102.269C23.9762 101.863 24.4235 101.603 24.7664 101.822L26.6098 103.002L28.653 102.217C29.033 102.071 29.4187 102.416 29.316 102.81L28.7638 104.928L30.1412 106.629C30.3974 106.945 30.1885 107.418 29.7822 107.442L27.5974 107.572L26.4055 109.407C26.1838 109.749 25.669 109.696 25.5206 109.317L24.7225 107.279L22.6085 106.713C22.2154 106.608 22.1061 106.102 22.4206 105.844L24.1122 104.455L23.9976 102.269Z" fill="#FAFFDD"/>
</g>
<g filter="url(#filter15_f_1198_5510)">
<path d="M381.998 125.269C381.976 124.863 382.424 124.603 382.766 124.822L384.61 126.002L386.653 125.217C387.033 125.071 387.419 125.416 387.316 125.81L386.764 127.928L388.141 129.629C388.397 129.945 388.188 130.418 387.782 130.442L385.597 130.572L384.406 132.407C384.184 132.749 383.669 132.696 383.521 132.317L382.723 130.279L380.609 129.713C380.215 129.608 380.106 129.102 380.421 128.844L382.112 127.455L381.998 125.269Z" fill="#FAFFDD"/>
</g>
<g filter="url(#filter16_f_1198_5510)">
<path d="M12.1991 131.229C12.2766 130.83 12.7736 130.685 13.0532 130.981L14.5571 132.571L16.7293 132.304C17.1332 132.254 17.4242 132.682 17.2294 133.039L16.1819 134.961L17.1076 136.944C17.2797 137.313 16.9626 137.722 16.5625 137.647L14.4113 137.244L12.8112 138.738C12.5136 139.015 12.0267 138.84 11.9742 138.437L11.6922 136.266L9.77763 135.206C9.42159 135.009 9.43773 134.491 9.80537 134.317L11.7823 133.378L12.1991 131.229Z" fill="white"/>
</g>
<g filter="url(#filter17_f_1198_5510)">
<path d="M274.663 126.811C274.897 126.478 275.41 126.549 275.544 126.934L276.905 130.828L280.848 132.042C281.237 132.161 281.327 132.671 281.003 132.917L277.721 135.415L277.784 139.54C277.791 139.947 277.334 140.19 276.999 139.958L273.609 137.608L269.706 138.943C269.321 139.075 268.949 138.716 269.066 138.326L270.253 134.376L267.777 131.077C267.533 130.751 267.759 130.286 268.166 130.277L272.29 130.185L274.663 126.811Z" fill="white"/>
</g>
<g filter="url(#filter18_f_1198_5510)">
<path d="M44.2757 677.005C44.6165 675.311 46.7313 674.711 47.9107 675.975L57.9012 686.683L72.4476 684.991C74.1648 684.791 75.3884 686.617 74.5507 688.13L67.4546 700.94L73.5584 714.252C74.279 715.823 72.9204 717.551 71.2233 717.222L56.8472 714.432L46.0731 724.35C44.8013 725.521 42.738 724.763 42.5268 723.047L40.738 708.512L27.9754 701.331C26.4688 700.483 26.5523 698.286 28.1188 697.555L41.3894 691.363L44.2757 677.005Z" fill="url(#paint2_linear_1198_5510)"/>
</g>
<g filter="url(#filter19_f_1198_5510)">
<path d="M73.2048 650.08C73.63 649.518 74.5124 649.673 74.7214 650.345L76.2904 655.395L81.2865 657.127C81.9521 657.358 82.0778 658.245 81.5026 658.652L77.1849 661.704L77.0812 666.991C77.0674 667.696 76.2628 668.089 75.6982 667.668L71.4607 664.505L66.4006 666.04C65.7264 666.245 65.1034 665.601 65.3297 664.934L67.0285 659.926L64.0048 655.588C63.602 655.01 64.0216 654.219 64.726 654.228L70.0134 654.296L73.2048 650.08Z" fill="url(#paint3_linear_1198_5510)"/>
</g>
<g filter="url(#filter20_f_1198_5510)">
<path d="M361.122 536.569C361.903 535.537 363.525 535.82 363.909 537.057L365.492 542.153L370.534 543.901C371.758 544.325 371.989 545.955 370.932 546.703L366.574 549.784L366.47 555.119C366.444 556.414 364.965 557.137 363.928 556.363L359.651 553.17L354.545 554.72C353.306 555.096 352.161 553.913 352.577 552.687L354.291 547.633L351.24 543.255C350.499 542.193 351.27 540.738 352.565 540.755L357.901 540.824L361.122 536.569Z" fill="url(#paint4_linear_1198_5510)"/>
</g>
<g filter="url(#filter21_f_1198_5510)">
<path d="M332.954 617.826C333.125 617.033 334.122 616.766 334.667 617.367L342.211 625.68L353.378 624.539C354.185 624.456 354.748 625.321 354.345 626.026L348.769 635.769L353.305 646.037C353.633 646.779 352.984 647.581 352.19 647.416L341.201 645.124L332.837 652.611C332.233 653.152 331.269 652.783 331.181 651.976L329.965 640.817L320.26 635.176C319.558 634.768 319.611 633.738 320.351 633.405L330.589 628.8L332.954 617.826Z" fill="url(#paint5_linear_1198_5510)"/>
</g>
<g filter="url(#filter22_f_1198_5510)">
<path d="M355.216 774.36C356.919 772.724 359.758 773.7 360.096 776.037L362.475 792.487L377.131 800.33C379.213 801.444 379.162 804.446 377.044 805.489L362.134 812.836L359.204 829.198C358.788 831.522 355.917 832.402 354.271 830.71L342.676 818.799L326.209 821.069C323.871 821.391 322.147 818.933 323.247 816.844L330.991 802.136L323.745 787.177C322.715 785.052 324.521 782.653 326.847 783.054L343.228 785.875L355.216 774.36Z" fill="url(#paint6_linear_1198_5510)"/>
</g>
<g opacity="0.6" filter="url(#filter23_f_1198_5510)">
<path d="M27.32 583.258C30.2844 580.225 30.5556 574 32 574C33.4444 574 33.7156 580.225 36.68 583.258C38.3267 584.943 40.32 585.968 41.62 586.419C42.9827 586.893 45 587.323 45 588C45 588.677 42.9827 589.107 41.62 589.581C40.32 590.032 38.3267 591.057 36.68 592.742C33.7156 595.775 33.4444 602 32 602C30.5556 602 30.2844 595.775 27.32 592.742C25.6733 591.057 23.68 590.032 22.38 589.581C21.0173 589.107 19 588.677 19 588C19 587.323 21.0173 586.893 22.38 586.419C23.68 585.968 25.6733 584.943 27.32 583.258Z" fill="#B7EEE4"/>
</g>
<g opacity="0.5" filter="url(#filter24_f_1198_5510)">
<path d="M325.32 711.258C328.284 708.225 328.556 702 330 702C331.444 702 331.716 708.225 334.68 711.258C336.327 712.943 338.32 713.968 339.62 714.419C340.983 714.893 343 715.323 343 716C343 716.677 340.983 717.107 339.62 717.581C338.32 718.032 336.327 719.057 334.68 720.742C331.716 723.775 331.444 730 330 730C328.556 730 328.284 723.775 325.32 720.742C323.673 719.057 321.68 718.032 320.38 717.581C319.017 717.107 317 716.677 317 716C317 715.323 319.017 714.893 320.38 714.419C321.68 713.968 323.673 712.943 325.32 711.258Z" fill="#92DADA"/>
</g>
<g filter="url(#filter25_f_1198_5510)">
<path d="M13.16 783.629C14.6422 782.112 14.7778 779 15.5 779C16.2222 779 16.3578 782.112 17.84 783.629C18.6633 784.471 19.66 784.984 20.31 785.21C20.9913 785.446 22 785.661 22 786C22 786.339 20.9913 786.554 20.31 786.79C19.66 787.016 18.6633 787.529 17.84 788.371C16.3578 789.888 16.2222 793 15.5 793C14.7778 793 14.6422 789.888 13.16 788.371C12.3367 787.529 11.34 787.016 10.69 786.79C10.0087 786.554 9 786.339 9 786C9 785.661 10.0087 785.446 10.69 785.21C11.34 784.984 12.3367 784.471 13.16 783.629Z" fill="#D9FBF5"/>
</g>
<g filter="url(#filter26_f_1198_5510)">
<path d="M26.68 813.597C29.4164 810.78 29.6667 805 31 805C32.3333 805 32.5836 810.78 35.32 813.597C36.84 815.161 38.68 816.113 39.88 816.532C41.1379 816.972 43 817.371 43 818C43 818.629 41.1379 819.028 39.88 819.468C38.68 819.887 36.84 820.839 35.32 822.403C32.5836 825.22 32.3333 831 31 831C29.6667 831 29.4164 825.22 26.68 822.403C25.16 820.839 23.32 819.887 22.12 819.468C20.8621 819.028 19 818.629 19 818C19 817.371 20.8621 816.972 22.12 816.532C23.32 816.113 25.16 815.161 26.68 813.597Z" fill="#D9FBF5"/>
</g>
<g opacity="0.5" filter="url(#filter27_f_1198_5510)">
<path d="M53.0282 605.2C53.3277 604.925 53.8134 605.104 53.863 605.508L54.3656 609.602L57.9599 611.626C58.3145 611.826 58.2947 612.343 57.9258 612.515L54.1872 614.258L53.3729 618.302C53.2926 618.701 52.7946 618.842 52.5171 618.544L49.7039 615.527L45.6063 616.002C45.202 616.049 44.9141 615.619 45.1114 615.263L47.1114 611.655L45.3933 607.905C45.2238 607.535 45.5438 607.128 45.9433 607.206L49.9925 607.993L53.0282 605.2Z" fill="#93DBDB"/>
</g>
<g filter="url(#filter28_f_1198_5510)">
<path d="M270.829 719.327C270.889 718.925 271.379 718.759 271.671 719.042L274.635 721.91L278.703 721.226C279.105 721.158 279.414 721.573 279.235 721.939L277.423 725.644L279.331 729.302C279.519 729.662 279.22 730.085 278.817 730.028L274.733 729.449L271.845 732.394C271.56 732.684 271.065 732.531 270.995 732.13L270.283 728.067L266.59 726.229C266.226 726.048 266.219 725.531 266.579 725.34L270.223 723.408L270.829 719.327Z" fill="white"/>
</g>
<g filter="url(#filter29_f_1198_5510)">
<path d="M340.829 517.327C340.889 516.925 341.379 516.759 341.671 517.042L344.635 519.91L348.703 519.226C349.105 519.158 349.414 519.573 349.235 519.939L347.423 523.644L349.331 527.302C349.519 527.662 349.22 528.085 348.817 528.028L344.733 527.449L341.845 530.394C341.56 530.684 341.065 530.531 340.995 530.13L340.283 526.067L336.59 524.229C336.226 524.048 336.219 523.531 336.579 523.34L340.223 521.408L340.829 517.327Z" fill="#CFF4EE"/>
</g>
<g filter="url(#filter30_f_1198_5510)">
<path d="M358.97 684.666C359.118 684.287 359.633 684.233 359.855 684.574L362.108 688.03L366.226 688.266C366.633 688.289 366.842 688.762 366.587 689.079L363.997 692.289L365.045 696.279C365.148 696.673 364.763 697.018 364.383 696.873L360.529 695.402L357.059 697.632C356.716 697.852 356.269 697.592 356.289 697.186L356.498 693.066L353.304 690.454C352.989 690.197 353.098 689.691 353.491 689.585L357.473 688.51L358.97 684.666Z" fill="white"/>
</g>
</g>
<defs>
<filter id="filter0_f_1198_5510" x="-26" y="552" width="442" height="316" filterUnits="userSpaceOnUse" color-interpolation-filters="sRGB">
<feFlood flood-opacity="0" result="BackgroundImageFix"/>
<feBlend mode="normal" in="SourceGraphic" in2="BackgroundImageFix" result="shape"/>
<feGaussianBlur stdDeviation="10" result="effect1_foregroundBlur_1198_5510"/>
</filter>
<filter id="filter1_f_1198_5510" x="352" y="91" width="17.0908" height="17.8086" filterUnits="userSpaceOnUse" color-interpolation-filters="sRGB">
<feFlood flood-opacity="0" result="BackgroundImageFix"/>
<feBlend mode="normal" in="SourceGraphic" in2="BackgroundImageFix" result="shape"/>
<feGaussianBlur stdDeviation="0.5" result="effect1_foregroundBlur_1198_5510"/>
</filter>
<filter id="filter2_f_1198_5510" x="346" y="105" width="11" height="12" filterUnits="userSpaceOnUse" color-interpolation-filters="sRGB">
<feFlood flood-opacity="0" result="BackgroundImageFix"/>
<feBlend mode="normal" in="SourceGraphic" in2="BackgroundImageFix" result="shape"/>
<feGaussianBlur stdDeviation="0.5" result="effect1_foregroundBlur_1198_5510"/>
</filter>
<filter id="filter3_f_1198_5510" x="42" y="90" width="15" height="17" filterUnits="userSpaceOnUse" color-interpolation-filters="sRGB">
<feFlood flood-opacity="0" result="BackgroundImageFix"/>
<feBlend mode="normal" in="SourceGraphic" in2="BackgroundImageFix" result="shape"/>
<feGaussianBlur stdDeviation="0.5" result="effect1_foregroundBlur_1198_5510"/>
</filter>
<filter id="filter4_f_1198_5510" x="329" y="101" width="11" height="12" filterUnits="userSpaceOnUse" color-interpolation-filters="sRGB">
<feFlood flood-opacity="0" result="BackgroundImageFix"/>
<feBlend mode="normal" in="SourceGraphic" in2="BackgroundImageFix" result="shape"/>
<feGaussianBlur stdDeviation="0.5" result="effect1_foregroundBlur_1198_5510"/>
</filter>
<filter id="filter5_f_1198_5510" x="223" y="99" width="11" height="12" filterUnits="userSpaceOnUse" color-interpolation-filters="sRGB">
<feFlood flood-opacity="0" result="BackgroundImageFix"/>
<feBlend mode="normal" in="SourceGraphic" in2="BackgroundImageFix" result="shape"/>
<feGaussianBlur stdDeviation="0.5" result="effect1_foregroundBlur_1198_5510"/>
</filter>
<filter id="filter6_f_1198_5510" x="233" y="105" width="11" height="12" filterUnits="userSpaceOnUse" color-interpolation-filters="sRGB">
<feFlood flood-opacity="0" result="BackgroundImageFix"/>
<feBlend mode="normal" in="SourceGraphic" in2="BackgroundImageFix" result="shape"/>
<feGaussianBlur stdDeviation="0.5" result="effect1_foregroundBlur_1198_5510"/>
</filter>
<filter id="filter7_f_1198_5510" x="53" y="82" width="11" height="12" filterUnits="userSpaceOnUse" color-interpolation-filters="sRGB">
<feFlood flood-opacity="0" result="BackgroundImageFix"/>
<feBlend mode="normal" in="SourceGraphic" in2="BackgroundImageFix" result="shape"/>
<feGaussianBlur stdDeviation="0.5" result="effect1_foregroundBlur_1198_5510"/>
</filter>
<filter id="filter8_f_1198_5510" x="21.2231" y="118.213" width="9.98486" height="9.94336" filterUnits="userSpaceOnUse" color-interpolation-filters="sRGB">
<feFlood flood-opacity="0" result="BackgroundImageFix"/>
<feBlend mode="normal" in="SourceGraphic" in2="BackgroundImageFix" result="shape"/>
<feGaussianBlur stdDeviation="0.5" result="effect1_foregroundBlur_1198_5510"/>
</filter>
<filter id="filter9_f_1198_5510" x="370.223" y="113.213" width="9.98486" height="9.94336" filterUnits="userSpaceOnUse" color-interpolation-filters="sRGB">
<feFlood flood-opacity="0" result="BackgroundImageFix"/>
<feBlend mode="normal" in="SourceGraphic" in2="BackgroundImageFix" result="shape"/>
<feGaussianBlur stdDeviation="0.5" result="effect1_foregroundBlur_1198_5510"/>
</filter>
<filter id="filter10_f_1198_5510" x="139.223" y="101.213" width="9.98486" height="9.94336" filterUnits="userSpaceOnUse" color-interpolation-filters="sRGB">
<feFlood flood-opacity="0" result="BackgroundImageFix"/>
<feBlend mode="normal" in="SourceGraphic" in2="BackgroundImageFix" result="shape"/>
<feGaussianBlur stdDeviation="0.5" result="effect1_foregroundBlur_1198_5510"/>
</filter>
<filter id="filter11_f_1198_5510" x="78.897" y="95.3027" width="9.87695" height="10.0234" filterUnits="userSpaceOnUse" color-interpolation-filters="sRGB">
<feFlood flood-opacity="0" result="BackgroundImageFix"/>
<feBlend mode="normal" in="SourceGraphic" in2="BackgroundImageFix" result="shape"/>
<feGaussianBlur stdDeviation="0.5" result="effect1_foregroundBlur_1198_5510"/>
</filter>
<filter id="filter12_f_1198_5510" x="128.068" y="104.256" width="9.97461" height="9.95508" filterUnits="userSpaceOnUse" color-interpolation-filters="sRGB">
<feFlood flood-opacity="0" result="BackgroundImageFix"/>
<feBlend mode="normal" in="SourceGraphic" in2="BackgroundImageFix" result="shape"/>
<feGaussianBlur stdDeviation="0.5" result="effect1_foregroundBlur_1198_5510"/>
</filter>
<filter id="filter13_f_1198_5510" x="284.897" y="78.3027" width="9.87695" height="10.0234" filterUnits="userSpaceOnUse" color-interpolation-filters="sRGB">
<feFlood flood-opacity="0" result="BackgroundImageFix"/>
<feBlend mode="normal" in="SourceGraphic" in2="BackgroundImageFix" result="shape"/>
<feGaussianBlur stdDeviation="0.5" result="effect1_foregroundBlur_1198_5510"/>
</filter>
<filter id="filter14_f_1198_5510" x="21.2378" y="100.742" width="10.0156" height="9.89258" filterUnits="userSpaceOnUse" color-interpolation-filters="sRGB">
<feFlood flood-opacity="0" result="BackgroundImageFix"/>
<feBlend mode="normal" in="SourceGraphic" in2="BackgroundImageFix" result="shape"/>
<feGaussianBlur stdDeviation="0.5" result="effect1_foregroundBlur_1198_5510"/>
</filter>
<filter id="filter15_f_1198_5510" x="379.238" y="123.742" width="10.0156" height="9.89258" filterUnits="userSpaceOnUse" color-interpolation-filters="sRGB">
<feFlood flood-opacity="0" result="BackgroundImageFix"/>
<feBlend mode="normal" in="SourceGraphic" in2="BackgroundImageFix" result="shape"/>
<feGaussianBlur stdDeviation="0.5" result="effect1_foregroundBlur_1198_5510"/>
</filter>
<filter id="filter16_f_1198_5510" x="8.52002" y="129.824" width="9.77148" height="10.0488" filterUnits="userSpaceOnUse" color-interpolation-filters="sRGB">
<feFlood flood-opacity="0" result="BackgroundImageFix"/>
<feBlend mode="normal" in="SourceGraphic" in2="BackgroundImageFix" result="shape"/>
<feGaussianBlur stdDeviation="0.5" result="effect1_foregroundBlur_1198_5510"/>
</filter>
<filter id="filter17_f_1198_5510" x="265.676" y="124.598" width="17.5244" height="17.4512" filterUnits="userSpaceOnUse" color-interpolation-filters="sRGB">
<feFlood flood-opacity="0" result="BackgroundImageFix"/>
<feBlend mode="normal" in="SourceGraphic" in2="BackgroundImageFix" result="shape"/>
<feGaussianBlur stdDeviation="1" result="effect1_foregroundBlur_1198_5510"/>
</filter>
<filter id="filter18_f_1198_5510" x="25.2607" y="673.666" width="51.1924" height="52.8799" filterUnits="userSpaceOnUse" color-interpolation-filters="sRGB">
<feFlood flood-opacity="0" result="BackgroundImageFix"/>
<feBlend mode="normal" in="SourceGraphic" in2="BackgroundImageFix" result="shape"/>
<feGaussianBlur stdDeviation="0.816166" result="effect1_foregroundBlur_1198_5510"/>
</filter>
<filter id="filter19_f_1198_5510" x="62.2153" y="648.104" width="21.2857" height="21.3701" filterUnits="userSpaceOnUse" color-interpolation-filters="sRGB">
<feFlood flood-opacity="0" result="BackgroundImageFix"/>
<feBlend mode="normal" in="SourceGraphic" in2="BackgroundImageFix" result="shape"/>
<feGaussianBlur stdDeviation="0.816166" result="effect1_foregroundBlur_1198_5510"/>
</filter>
<filter id="filter20_f_1198_5510" x="347.951" y="532.938" width="26.6533" height="26.7441" filterUnits="userSpaceOnUse" color-interpolation-filters="sRGB">
<feFlood flood-opacity="0" result="BackgroundImageFix"/>
<feBlend mode="normal" in="SourceGraphic" in2="BackgroundImageFix" result="shape"/>
<feGaussianBlur stdDeviation="1.5" result="effect1_foregroundBlur_1198_5510"/>
</filter>
<filter id="filter21_f_1198_5510" x="315.764" y="613.039" width="42.7144" height="43.8281" filterUnits="userSpaceOnUse" color-interpolation-filters="sRGB">
<feFlood flood-opacity="0" result="BackgroundImageFix"/>
<feBlend mode="normal" in="SourceGraphic" in2="BackgroundImageFix" result="shape"/>
<feGaussianBlur stdDeviation="2" result="effect1_foregroundBlur_1198_5510"/>
</filter>
<filter id="filter22_f_1198_5510" x="318.907" y="769.549" width="63.7559" height="66.041" filterUnits="userSpaceOnUse" color-interpolation-filters="sRGB">
<feFlood flood-opacity="0" result="BackgroundImageFix"/>
<feBlend mode="normal" in="SourceGraphic" in2="BackgroundImageFix" result="shape"/>
<feGaussianBlur stdDeviation="2" result="effect1_foregroundBlur_1198_5510"/>
</filter>
<filter id="filter23_f_1198_5510" x="16" y="571" width="32" height="34" filterUnits="userSpaceOnUse" color-interpolation-filters="sRGB">
<feFlood flood-opacity="0" result="BackgroundImageFix"/>
<feBlend mode="normal" in="SourceGraphic" in2="BackgroundImageFix" result="shape"/>
<feGaussianBlur stdDeviation="1.5" result="effect1_foregroundBlur_1198_5510"/>
</filter>
<filter id="filter24_f_1198_5510" x="314" y="699" width="32" height="34" filterUnits="userSpaceOnUse" color-interpolation-filters="sRGB">
<feFlood flood-opacity="0" result="BackgroundImageFix"/>
<feBlend mode="normal" in="SourceGraphic" in2="BackgroundImageFix" result="shape"/>
<feGaussianBlur stdDeviation="1.5" result="effect1_foregroundBlur_1198_5510"/>
</filter>
<filter id="filter25_f_1198_5510" x="6" y="776" width="19" height="20" filterUnits="userSpaceOnUse" color-interpolation-filters="sRGB">
<feFlood flood-opacity="0" result="BackgroundImageFix"/>
<feBlend mode="normal" in="SourceGraphic" in2="BackgroundImageFix" result="shape"/>
<feGaussianBlur stdDeviation="1.5" result="effect1_foregroundBlur_1198_5510"/>
</filter>
<filter id="filter26_f_1198_5510" x="16" y="802" width="30" height="32" filterUnits="userSpaceOnUse" color-interpolation-filters="sRGB">
<feFlood flood-opacity="0" result="BackgroundImageFix"/>
<feBlend mode="normal" in="SourceGraphic" in2="BackgroundImageFix" result="shape"/>
<feGaussianBlur stdDeviation="1.5" result="effect1_foregroundBlur_1198_5510"/>
</filter>
<filter id="filter27_f_1198_5510" x="43.0479" y="603.068" width="17.1665" height="17.6348" filterUnits="userSpaceOnUse" color-interpolation-filters="sRGB">
<feFlood flood-opacity="0" result="BackgroundImageFix"/>
<feBlend mode="normal" in="SourceGraphic" in2="BackgroundImageFix" result="shape"/>
<feGaussianBlur stdDeviation="1" result="effect1_foregroundBlur_1198_5510"/>
</filter>
<filter id="filter28_f_1198_5510" x="264.313" y="716.9" width="17.0757" height="17.6445" filterUnits="userSpaceOnUse" color-interpolation-filters="sRGB">
<feFlood flood-opacity="0" result="BackgroundImageFix"/>
<feBlend mode="normal" in="SourceGraphic" in2="BackgroundImageFix" result="shape"/>
<feGaussianBlur stdDeviation="1" result="effect1_foregroundBlur_1198_5510"/>
</filter>
<filter id="filter29_f_1198_5510" x="334.313" y="514.9" width="17.0757" height="17.6445" filterUnits="userSpaceOnUse" color-interpolation-filters="sRGB">
<feFlood flood-opacity="0" result="BackgroundImageFix"/>
<feBlend mode="normal" in="SourceGraphic" in2="BackgroundImageFix" result="shape"/>
<feGaussianBlur stdDeviation="1" result="effect1_foregroundBlur_1198_5510"/>
</filter>
<filter id="filter30_f_1198_5510" x="351.121" y="682.348" width="17.5776" height="17.3652" filterUnits="userSpaceOnUse" color-interpolation-filters="sRGB">
<feFlood flood-opacity="0" result="BackgroundImageFix"/>
<feBlend mode="normal" in="SourceGraphic" in2="BackgroundImageFix" result="shape"/>
<feGaussianBlur stdDeviation="1" result="effect1_foregroundBlur_1198_5510"/>
</filter>
<linearGradient id="paint0_linear_1198_5510" x1="195" y1="0" x2="195" y2="853" gradientUnits="userSpaceOnUse">
<stop stop-color="#C2F4F4"/>
<stop offset="0.822917" stop-color="#FBFDFF"/>
<stop offset="1" stop-color="#62C8C8"/>
</linearGradient>
<linearGradient id="paint1_linear_1198_5510" x1="195" y1="848" x2="195" y2="572" gradientUnits="userSpaceOnUse">
<stop stop-color="#E6FFFF" stop-opacity="0"/>
<stop offset="1" stop-color="#BDE3E3"/>
</linearGradient>
<linearGradient id="paint2_linear_1198_5510" x1="45.0905" y1="672.953" x2="59.1566" y2="722.58" gradientUnits="userSpaceOnUse">
<stop offset="0.442708" stop-color="white"/>
<stop offset="1" stop-color="white" stop-opacity="0"/>
</linearGradient>
<linearGradient id="paint3_linear_1198_5510" x1="74.2215" y1="648.737" x2="70.9184" y2="667.602" gradientUnits="userSpaceOnUse">
<stop offset="0.203125" stop-color="white"/>
<stop offset="1" stop-color="white" stop-opacity="0.65"/>
</linearGradient>
<linearGradient id="paint4_linear_1198_5510" x1="362.99" y1="534.1" x2="358.995" y2="556.917" gradientUnits="userSpaceOnUse">
<stop stop-color="#93DADA"/>
<stop offset="1" stop-color="#93DADA" stop-opacity="0"/>
</linearGradient>
<linearGradient id="paint5_linear_1198_5510" x1="333.363" y1="615.93" x2="342.74" y2="650.859" gradientUnits="userSpaceOnUse">
<stop offset="0.203125" stop-color="#8DD8D8" stop-opacity="0.79"/>
<stop offset="1" stop-color="#8DD8D8" stop-opacity="0"/>
</linearGradient>
<linearGradient id="paint6_linear_1198_5510" x1="359.288" y1="770.449" x2="339.413" y2="828.297" gradientUnits="userSpaceOnUse">
<stop offset="0.255208" stop-color="white"/>
<stop offset="1" stop-color="white" stop-opacity="0.03"/>
</linearGradient>
<clipPath id="clip0_1198_5510">
<rect width="390" height="844" fill="white"/>
</clipPath>
</defs>
</svg>
