<svg width="390" height="844" viewBox="0 0 390 844" fill="none" xmlns="http://www.w3.org/2000/svg">
<g clip-path="url(#clip0_1185_5344)">
<rect width="390" height="844" fill="url(#paint0_linear_1185_5344)"/>
<path opacity="0.7" fill-rule="evenodd" clip-rule="evenodd" d="M390 242.989V209.048L0 599.048V632.989L390 242.989ZM0 666.93V700.871L390 310.871V276.93L0 666.93ZM0 768.753V734.812L390 344.812V378.753L0 768.753ZM0 802.694V836.636L390 446.636V412.694L0 802.694ZM60.5177 844H26.5768L390 480.577V514.518L60.5177 844ZM94.4588 844H128.4L390 582.4V548.459L94.4588 844ZM196.282 844H162.341L390 616.341V650.282L196.282 844ZM230.223 844H264.165L390 718.165V684.223L230.223 844ZM332.047 844H298.106L390 752.106V786.047L332.047 844ZM365.988 844H390V819.988L365.988 844ZM390 141.165V175.107L0 565.107V531.165L390 141.165ZM390 107.224V73.2831L0 463.283V497.224L390 107.224ZM390 5.40074V39.3419L0 429.342V395.401L390 5.40074ZM361.46 0H327.518L0 327.518V361.46L361.46 0ZM259.637 0H293.577L0 293.577V259.637L259.637 0ZM225.695 0H191.754L0 191.754V225.695L225.695 0ZM123.872 0H157.813L0 157.813V123.872L123.872 0ZM89.9308 0H55.9896L0 55.9896V89.9308L89.9308 0ZM0 0H22.0485L0 22.0485V0Z" fill="#FFEFF9"/>
</g>
<defs>
<linearGradient id="paint0_linear_1185_5344" x1="195" y1="0" x2="195" y2="853" gradientUnits="userSpaceOnUse">
<stop stop-color="#FFDDEB"/>
<stop offset="0.822917" stop-color="#FFE8F2"/>
<stop offset="1" stop-color="#FFC9E0"/>
</linearGradient>
<clipPath id="clip0_1185_5344">
<rect width="390" height="844" fill="white"/>
</clipPath>
</defs>
</svg>
