<svg width="304" height="164" viewBox="0 0 304 164" fill="none" xmlns="http://www.w3.org/2000/svg">
<rect x="1" y="1" width="302" height="162" rx="29" fill="url(#paint0_linear_1675_6191)" stroke="url(#paint1_linear_1675_6191)" stroke-width="2"/>
<path d="M74.901 44.738H77.06C77.23 44.738 77.298 44.823 77.298 44.976V46.455C77.298 46.591 77.23 46.676 77.06 46.676H74.901V54.224C74.901 54.36 74.833 54.428 74.663 54.428H72.929C72.793 54.428 72.725 54.36 72.725 54.224V39.706C72.725 39.57 72.793 39.485 72.929 39.485H74.663C74.833 39.485 74.901 39.57 74.901 39.706V44.738ZM67.064 40.76C69.631 40.76 71.382 42.545 71.382 45.911C71.382 49.294 69.631 51.079 67.064 51.079C64.48 51.079 62.729 49.294 62.729 45.911C62.729 42.545 64.48 40.76 67.064 40.76ZM67.064 49.141C68.407 49.141 69.223 48.07 69.223 45.911C69.223 43.769 68.407 42.681 67.064 42.681C65.721 42.681 64.888 43.769 64.888 45.911C64.888 48.07 65.721 49.141 67.064 49.141ZM88.5148 39.485H90.2318C90.4018 39.485 90.4698 39.57 90.4698 39.706V47.713C90.4698 47.849 90.4018 47.917 90.2318 47.917H88.5148C88.3618 47.917 88.2938 47.849 88.2938 47.713V39.706C88.2938 39.57 88.3618 39.485 88.5148 39.485ZM82.3778 45.316C81.6128 46.285 80.3888 47.22 78.9438 47.934C78.8078 48.002 78.6548 47.968 78.5868 47.883L77.7368 46.591C77.6518 46.455 77.6518 46.302 77.7878 46.251C79.7598 45.231 81.2558 44.075 81.2558 42.63V42.273H78.3998C78.2468 42.273 78.1788 42.188 78.1788 42.069V40.641C78.1788 40.522 78.2468 40.437 78.3998 40.437H86.2028C86.3728 40.437 86.4408 40.522 86.4408 40.641V42.069C86.4408 42.188 86.3728 42.273 86.2028 42.273H83.4318V42.63C83.4318 43.99 84.6048 44.959 86.6788 45.962C86.8148 46.03 86.8148 46.166 86.7468 46.285L85.9818 47.594C85.9138 47.713 85.7438 47.713 85.6248 47.645C84.3668 47.101 83.1938 46.234 82.3778 45.316ZM80.3038 48.682H90.2488C90.4018 48.682 90.4698 48.75 90.4698 48.886V54.377C90.4698 54.496 90.4018 54.581 90.2488 54.581H88.5318C88.3618 54.581 88.2938 54.496 88.2938 54.377V50.569H80.3038C80.1508 50.569 80.0828 50.484 80.0828 50.348V48.886C80.0828 48.75 80.1508 48.682 80.3038 48.682ZM97.347 48.784L96.786 47.458C96.752 47.339 96.769 47.203 96.905 47.169C99.829 46.387 101.869 45.163 101.903 43.871H97.279C97.143 43.871 97.075 43.803 97.075 43.667V42.205C97.075 42.086 97.143 41.984 97.279 41.984H101.903V40.335C101.903 40.199 101.971 40.131 102.107 40.131H103.875C104.028 40.131 104.096 40.199 104.096 40.335V41.984H108.703C108.856 41.984 108.924 42.086 108.924 42.205V43.667C108.924 43.803 108.856 43.871 108.703 43.871H104.096C104.13 45.163 106.153 46.387 109.077 47.169C109.213 47.203 109.247 47.339 109.196 47.458L108.635 48.784C108.584 48.92 108.499 48.971 108.363 48.937C106.017 48.342 103.909 47.356 102.991 46.387C102.073 47.356 99.965 48.342 97.619 48.937C97.5 48.971 97.415 48.92 97.347 48.784ZM104.096 51.079H109.961C110.114 51.079 110.182 51.164 110.182 51.3V52.796C110.182 52.915 110.114 53 109.961 53H96.021C95.885 53 95.817 52.915 95.817 52.796V51.3C95.817 51.164 95.885 51.079 96.021 51.079H101.92V48.716C101.92 48.597 101.988 48.512 102.124 48.512H103.858C104.028 48.512 104.096 48.597 104.096 48.716V51.079ZM122.334 39.485H124.051C124.204 39.485 124.255 39.57 124.255 39.706V54.224C124.255 54.36 124.204 54.428 124.051 54.428H122.334C122.198 54.428 122.13 54.36 122.13 54.224V46.744H120.753V53.765C120.753 53.901 120.685 53.986 120.549 53.986H118.866C118.713 53.986 118.645 53.901 118.645 53.765V40.029C118.645 39.893 118.713 39.808 118.866 39.808H120.549C120.685 39.808 120.753 39.893 120.753 40.029V44.823H122.13V39.706C122.13 39.57 122.198 39.485 122.334 39.485ZM117.71 48.835L117.914 50.28C117.931 50.399 117.897 50.45 117.727 50.484C116.69 50.756 114.854 50.909 113.511 50.909H111.301C111.148 50.909 111.08 50.824 111.08 50.705V41.372C111.08 41.253 111.148 41.168 111.301 41.168H116.894C117.03 41.168 117.098 41.253 117.098 41.372V42.834C117.098 42.97 117.03 43.038 116.894 43.038H113.205V49.005H113.749C114.803 49.005 116.367 48.869 117.438 48.648C117.591 48.614 117.693 48.682 117.71 48.835ZM134.639 41.219V42.63C134.639 42.766 134.588 42.851 134.435 42.851H125.884C125.731 42.851 125.663 42.766 125.663 42.63V41.219C125.663 41.083 125.731 40.998 125.884 40.998H129.046V39.621C129.046 39.468 129.114 39.4 129.267 39.4H131.035C131.188 39.4 131.256 39.485 131.256 39.621V40.998H134.435C134.588 40.998 134.639 41.083 134.639 41.219ZM137.818 43.803H139.977C140.147 43.803 140.215 43.871 140.215 44.024V45.486C140.215 45.639 140.147 45.724 139.977 45.724H137.818V50.195C137.818 50.331 137.75 50.399 137.58 50.399H135.846C135.71 50.399 135.642 50.331 135.642 50.195V39.706C135.642 39.57 135.727 39.485 135.863 39.485H137.58C137.75 39.485 137.818 39.57 137.818 39.706V43.803ZM133.925 46.285C133.925 48.155 132.395 49.26 130.151 49.26C127.924 49.26 126.411 48.155 126.411 46.285C126.411 44.432 127.924 43.327 130.151 43.327C132.395 43.327 133.925 44.432 133.925 46.285ZM128.502 46.285C128.502 47.033 129.114 47.543 130.168 47.543C131.222 47.543 131.817 47.033 131.817 46.285C131.817 45.554 131.222 45.044 130.168 45.044C129.114 45.044 128.502 45.554 128.502 46.285ZM130.44 52.439H138.158C138.311 52.439 138.379 52.524 138.379 52.677V54.139C138.379 54.275 138.311 54.36 138.158 54.36H128.485C128.332 54.36 128.264 54.275 128.264 54.139V50.212C128.264 50.076 128.332 49.991 128.485 49.991H130.219C130.372 49.991 130.44 50.076 130.44 50.212V52.439ZM148.86 46.03C148.078 47.033 146.854 47.968 145.426 48.682C145.29 48.733 145.137 48.716 145.069 48.614L144.219 47.305C144.134 47.169 144.134 47.033 144.27 46.965C146.259 45.945 147.738 44.687 147.738 43.259V42.987H144.814C144.644 42.987 144.576 42.902 144.576 42.766V41.304C144.576 41.168 144.644 41.083 144.814 41.083H147.738V39.672C147.738 39.536 147.806 39.451 147.959 39.451H149.71C149.846 39.451 149.914 39.536 149.914 39.672V41.083H152.77C152.94 41.083 152.991 41.168 152.991 41.304V42.766C152.991 42.902 152.94 42.987 152.77 42.987H149.914V43.259C149.914 44.619 151.087 45.588 153.161 46.608C153.297 46.676 153.297 46.795 153.229 46.931L152.464 48.257C152.396 48.359 152.226 48.359 152.107 48.308C150.866 47.747 149.659 46.948 148.86 46.03ZM156.714 50.45H154.997C154.844 50.45 154.776 50.365 154.776 50.246V39.706C154.776 39.57 154.844 39.485 154.997 39.485H156.714C156.884 39.485 156.952 39.57 156.952 39.706V50.246C156.952 50.365 156.884 50.45 156.714 50.45ZM149.234 52.354H157.054C157.207 52.354 157.275 52.422 157.275 52.575V54.054C157.275 54.19 157.207 54.275 157.054 54.275H147.279C147.126 54.275 147.058 54.19 147.058 54.054V49.464C147.058 49.328 147.126 49.243 147.279 49.243H149.013C149.166 49.243 149.234 49.328 149.234 49.464V52.354ZM170.43 46.71H172.878C173.031 46.71 173.099 46.795 173.099 46.948V48.427C173.099 48.563 173.031 48.648 172.878 48.648H166.979V54.224C166.979 54.36 166.894 54.428 166.741 54.428H165.007C164.871 54.428 164.803 54.36 164.803 54.224V48.648H158.938C158.802 48.648 158.734 48.563 158.734 48.427V46.948C158.734 46.795 158.802 46.71 158.938 46.71H168.39C168.713 45.214 168.866 43.65 168.832 42.647L168.815 42.12H160.978C160.842 42.12 160.774 42.035 160.774 41.899V40.42C160.774 40.284 160.842 40.199 160.978 40.199H170.736C170.889 40.199 170.957 40.284 170.957 40.42V42.222C170.957 43.463 170.77 45.129 170.43 46.71ZM185.896 44.738H188.055C188.225 44.738 188.293 44.823 188.293 44.976V46.455C188.293 46.591 188.225 46.676 188.055 46.676H185.896V54.224C185.896 54.36 185.828 54.428 185.658 54.428H183.924C183.788 54.428 183.72 54.36 183.72 54.224V39.706C183.72 39.57 183.788 39.485 183.924 39.485H185.658C185.828 39.485 185.896 39.57 185.896 39.706V44.738ZM174.693 41.083H181.34C181.493 41.083 181.561 41.168 181.561 41.304V43.344C181.561 46.625 179.521 49.09 175.22 51.215C175.067 51.283 174.965 51.266 174.897 51.147L174.098 49.736C174.013 49.6 174.047 49.498 174.183 49.43C177.838 47.645 179.368 45.911 179.368 43.344V43.004H174.693C174.54 43.004 174.489 42.936 174.489 42.8V41.304C174.489 41.168 174.54 41.083 174.693 41.083ZM202.855 44.432H200.866C200.509 46.183 198.894 47.339 196.752 47.339C194.321 47.339 192.57 45.843 192.57 43.684C192.57 41.542 194.321 40.029 196.752 40.029C198.741 40.029 200.271 41.032 200.764 42.579H202.855V39.706C202.855 39.57 202.923 39.485 203.076 39.485H204.793C204.963 39.485 205.031 39.57 205.031 39.706V47.39C205.031 47.509 204.963 47.594 204.793 47.594H203.076C202.923 47.594 202.855 47.509 202.855 47.39V44.432ZM194.695 43.684C194.695 44.755 195.613 45.503 196.752 45.503C197.891 45.503 198.809 44.755 198.809 43.684C198.809 42.596 197.891 41.848 196.752 41.848C195.613 41.848 194.695 42.596 194.695 43.684ZM197.449 48.274H199.115C199.268 48.274 199.336 48.342 199.336 48.478V54.207C199.336 54.343 199.268 54.428 199.115 54.428H194.219C194.066 54.428 193.998 54.343 193.998 54.207V48.478C193.998 48.342 194.066 48.274 194.219 48.274H195.851C196.004 48.274 196.072 48.342 196.072 48.478V49.668H197.245V48.478C197.245 48.342 197.313 48.274 197.449 48.274ZM206.068 53.017C206.204 53.102 206.17 53.221 206.085 53.34L205.133 54.496C205.048 54.615 204.895 54.598 204.759 54.496C203.841 53.748 203.195 52.966 202.77 52.133C202.362 52.983 201.648 53.816 200.73 54.547C200.594 54.666 200.458 54.649 200.356 54.547L199.438 53.476C199.336 53.374 199.336 53.204 199.438 53.136C201.104 51.946 201.665 50.314 201.665 48.835V48.478C201.665 48.342 201.733 48.274 201.886 48.274H203.535C203.688 48.274 203.756 48.342 203.756 48.478V48.835C203.756 50.314 204.453 51.946 206.068 53.017ZM196.072 51.419V52.66H197.245V51.419H196.072ZM217.913 39.485H219.63C219.8 39.485 219.868 39.57 219.868 39.706V54.224C219.868 54.36 219.8 54.428 219.63 54.428H217.913C217.76 54.428 217.692 54.36 217.692 54.224V46.829H215.737C215.448 49.617 213.799 51.079 211.538 51.079C209.039 51.079 207.305 49.294 207.305 45.911C207.305 42.545 209.039 40.76 211.538 40.76C213.799 40.76 215.431 42.188 215.737 44.908H217.692V39.706C217.692 39.57 217.76 39.485 217.913 39.485ZM211.538 49.141C212.796 49.141 213.629 48.07 213.629 45.911C213.629 43.769 212.796 42.681 211.538 42.681C210.28 42.681 209.447 43.769 209.447 45.911C209.447 48.07 210.28 49.141 211.538 49.141ZM232.632 51.079H235.794C235.947 51.079 236.015 51.164 236.015 51.3V52.796C236.015 52.915 235.947 53 235.794 53H221.854C221.718 53 221.65 52.915 221.65 52.796V51.3C221.65 51.164 221.718 51.079 221.854 51.079H225.033V47.543C224.03 46.88 223.401 45.86 223.401 44.483C223.401 41.746 225.883 40.454 228.824 40.454C231.765 40.454 234.264 41.746 234.264 44.483C234.264 45.86 233.635 46.863 232.632 47.526V51.079ZM228.824 42.358C226.954 42.358 225.56 43.004 225.56 44.483C225.56 45.945 226.954 46.608 228.824 46.608C230.711 46.608 232.088 45.928 232.088 44.483C232.088 43.004 230.711 42.358 228.824 42.358ZM227.192 48.359V51.079H230.456V48.376C229.946 48.461 229.385 48.512 228.824 48.512C228.263 48.512 227.702 48.461 227.192 48.359ZM238.46 53.34C237.678 53.34 237.083 52.779 237.083 51.997C237.083 51.215 237.678 50.654 238.46 50.654C239.242 50.654 239.837 51.215 239.837 51.997C239.837 52.779 239.242 53.34 238.46 53.34ZM76.0838 70.03C75.3018 71.033 74.0778 71.968 72.6498 72.682C72.5138 72.733 72.3608 72.716 72.2928 72.614L71.4428 71.305C71.3578 71.169 71.3578 71.033 71.4938 70.965C73.4828 69.945 74.9618 68.687 74.9618 67.259V66.987H72.0378C71.8678 66.987 71.7998 66.902 71.7998 66.766V65.304C71.7998 65.168 71.8678 65.083 72.0378 65.083H74.9618V63.672C74.9618 63.536 75.0298 63.451 75.1828 63.451H76.9338C77.0698 63.451 77.1378 63.536 77.1378 63.672V65.083H79.9938C80.1638 65.083 80.2148 65.168 80.2148 65.304V66.766C80.2148 66.902 80.1638 66.987 79.9938 66.987H77.1378V67.259C77.1378 68.619 78.3108 69.588 80.3848 70.608C80.5208 70.676 80.5208 70.795 80.4528 70.931L79.6878 72.257C79.6198 72.359 79.4498 72.359 79.3308 72.308C78.0898 71.747 76.8828 70.948 76.0838 70.03ZM83.9378 74.45H82.2208C82.0678 74.45 81.9998 74.365 81.9998 74.246V63.706C81.9998 63.57 82.0678 63.485 82.2208 63.485H83.9378C84.1078 63.485 84.1758 63.57 84.1758 63.706V74.246C84.1758 74.365 84.1078 74.45 83.9378 74.45ZM76.4578 76.354H84.2778C84.4308 76.354 84.4988 76.422 84.4988 76.575V78.054C84.4988 78.19 84.4308 78.275 84.2778 78.275H74.5028C74.3498 78.275 74.2818 78.19 74.2818 78.054V73.464C74.2818 73.328 74.3498 73.243 74.5028 73.243H76.2368C76.3898 73.243 76.4578 73.328 76.4578 73.464V76.354ZM97.6536 70.71H100.102C100.255 70.71 100.323 70.795 100.323 70.948V72.427C100.323 72.563 100.255 72.648 100.102 72.648H94.2026V78.224C94.2026 78.36 94.1176 78.428 93.9646 78.428H92.2306C92.0946 78.428 92.0266 78.36 92.0266 78.224V72.648H86.1616C86.0256 72.648 85.9576 72.563 85.9576 72.427V70.948C85.9576 70.795 86.0256 70.71 86.1616 70.71H95.6136C95.9366 69.214 96.0896 67.65 96.0556 66.647L96.0386 66.12H88.2016C88.0656 66.12 87.9976 66.035 87.9976 65.899V64.42C87.9976 64.284 88.0656 64.199 88.2016 64.199H97.9596C98.1126 64.199 98.1806 64.284 98.1806 64.42V66.222C98.1806 67.463 97.9936 69.129 97.6536 70.71ZM113.069 69.622H103.226C103.073 69.622 103.005 69.537 103.005 69.418V66.12C103.005 65.984 103.073 65.882 103.226 65.882H110.791V65.304H103.192C103.039 65.304 102.971 65.219 102.971 65.066V63.91C102.971 63.774 103.039 63.706 103.192 63.706H112.729C112.865 63.706 112.933 63.774 112.933 63.91V67.208C112.933 67.344 112.848 67.429 112.712 67.429H105.147V68.058H113.069C113.205 68.058 113.29 68.143 113.29 68.279V69.418C113.29 69.537 113.205 69.622 113.069 69.622ZM114.939 71.968H100.999C100.863 71.968 100.795 71.9 100.795 71.764V70.54C100.795 70.404 100.863 70.319 100.999 70.319H114.939C115.092 70.319 115.16 70.404 115.16 70.54V71.764C115.16 71.9 115.092 71.968 114.939 71.968ZM113.324 78.683H103.056C102.92 78.683 102.852 78.598 102.852 78.462V75.13C102.852 74.994 102.92 74.892 103.056 74.892H110.961V74.314H103.022C102.886 74.314 102.818 74.229 102.818 74.076V72.954C102.818 72.818 102.886 72.733 103.022 72.733H112.882C113.035 72.733 113.103 72.818 113.103 72.954V76.218C113.103 76.354 113.018 76.439 112.865 76.439H104.994V77.085H113.324C113.477 77.085 113.562 77.17 113.562 77.306V78.462C113.562 78.598 113.477 78.683 113.324 78.683ZM120.729 72.784L120.168 71.458C120.134 71.339 120.151 71.203 120.287 71.169C123.211 70.387 125.251 69.163 125.285 67.871H120.661C120.525 67.871 120.457 67.803 120.457 67.667V66.205C120.457 66.086 120.525 65.984 120.661 65.984H125.285V64.335C125.285 64.199 125.353 64.131 125.489 64.131H127.257C127.41 64.131 127.478 64.199 127.478 64.335V65.984H132.085C132.238 65.984 132.306 66.086 132.306 66.205V67.667C132.306 67.803 132.238 67.871 132.085 67.871H127.478C127.512 69.163 129.535 70.387 132.459 71.169C132.595 71.203 132.629 71.339 132.578 71.458L132.017 72.784C131.966 72.92 131.881 72.971 131.745 72.937C129.399 72.342 127.291 71.356 126.373 70.387C125.455 71.356 123.347 72.342 121.001 72.937C120.882 72.971 120.797 72.92 120.729 72.784ZM127.478 75.079H133.343C133.496 75.079 133.564 75.164 133.564 75.3V76.796C133.564 76.915 133.496 77 133.343 77H119.403C119.267 77 119.199 76.915 119.199 76.796V75.3C119.199 75.164 119.267 75.079 119.403 75.079H125.302V72.716C125.302 72.597 125.37 72.512 125.506 72.512H127.24C127.41 72.512 127.478 72.597 127.478 72.716V75.079ZM145.715 63.485H147.432C147.585 63.485 147.636 63.57 147.636 63.706V78.224C147.636 78.36 147.585 78.428 147.432 78.428H145.715C145.579 78.428 145.511 78.36 145.511 78.224V70.744H144.134V77.765C144.134 77.901 144.066 77.986 143.93 77.986H142.247C142.094 77.986 142.026 77.901 142.026 77.765V64.029C142.026 63.893 142.094 63.808 142.247 63.808H143.93C144.066 63.808 144.134 63.893 144.134 64.029V68.823H145.511V63.706C145.511 63.57 145.579 63.485 145.715 63.485ZM141.091 72.835L141.295 74.28C141.312 74.399 141.278 74.45 141.108 74.484C140.071 74.756 138.235 74.909 136.892 74.909H134.682C134.529 74.909 134.461 74.824 134.461 74.705V65.372C134.461 65.253 134.529 65.168 134.682 65.168H140.275C140.411 65.168 140.479 65.253 140.479 65.372V66.834C140.479 66.97 140.411 67.038 140.275 67.038H136.586V73.005H137.13C138.184 73.005 139.748 72.869 140.819 72.648C140.972 72.614 141.074 72.682 141.091 72.835ZM161.199 69.248H163.358C163.528 69.248 163.596 69.333 163.596 69.469V70.965C163.596 71.084 163.528 71.169 163.358 71.169H161.199V78.224C161.199 78.36 161.131 78.428 160.961 78.428H159.227C159.091 78.428 159.023 78.36 159.023 78.224V63.706C159.023 63.57 159.091 63.485 159.227 63.485H160.961C161.131 63.485 161.199 63.57 161.199 63.706V69.248ZM154.552 65.899H157.731C157.884 65.899 157.952 65.984 157.952 66.12V67.565C157.952 67.701 157.884 67.786 157.731 67.786H149.18C149.027 67.786 148.976 67.701 148.976 67.565V66.12C148.976 65.984 149.027 65.899 149.18 65.899H152.376V64.148C152.376 64.029 152.444 63.944 152.614 63.944H154.331C154.484 63.944 154.552 64.029 154.552 64.148V65.899ZM153.481 68.653C155.878 68.653 157.408 70.047 157.408 72.308C157.408 74.552 155.878 75.929 153.481 75.929C151.101 75.929 149.588 74.552 149.588 72.308C149.588 70.047 151.101 68.653 153.481 68.653ZM153.498 74.144C154.62 74.144 155.283 73.362 155.283 72.308C155.283 71.22 154.62 70.438 153.498 70.438C152.376 70.438 151.713 71.22 151.713 72.308C151.713 73.362 152.376 74.144 153.498 74.144ZM174.813 63.485H176.53C176.7 63.485 176.768 63.57 176.768 63.706V78.224C176.768 78.36 176.7 78.428 176.53 78.428H174.813C174.66 78.428 174.592 78.36 174.592 78.224V63.706C174.592 63.57 174.66 63.485 174.813 63.485ZM173.215 73.158C173.351 73.26 173.334 73.413 173.232 73.515L172.212 74.705C172.11 74.79 171.991 74.79 171.855 74.705C170.427 73.566 169.288 72.257 168.71 71.101C168.081 72.342 166.908 73.753 165.412 74.943C165.276 75.045 165.14 75.045 165.055 74.943L164.018 73.753C163.916 73.651 163.916 73.498 164.035 73.413C166.075 71.781 167.571 69.741 167.571 66.902V65.049C167.571 64.93 167.639 64.845 167.792 64.845H169.526C169.662 64.845 169.73 64.93 169.73 65.049V66.902C169.73 69.656 171.413 71.73 173.215 73.158ZM191.946 71.798H190.229C190.093 71.798 190.025 71.713 190.025 71.577V63.706C190.025 63.57 190.093 63.485 190.229 63.485H191.946C192.099 63.485 192.15 63.57 192.15 63.706V71.577C192.15 71.713 192.099 71.798 191.946 71.798ZM186.455 69.163H183.939C183.106 70.285 181.661 71.288 179.366 72.053C179.213 72.104 179.094 72.07 179.06 71.934L178.482 70.523C178.431 70.37 178.499 70.268 178.652 70.234C182.375 69.078 182.732 66.987 182.732 66.392V66.324H179.23C179.077 66.324 179.026 66.239 179.026 66.12V64.641C179.026 64.522 179.077 64.437 179.23 64.437H184.704C184.857 64.437 184.908 64.522 184.925 64.641V66.171C184.925 66.562 184.891 66.953 184.806 67.327H186.455V63.859C186.455 63.74 186.523 63.655 186.676 63.655H188.359C188.495 63.655 188.563 63.74 188.563 63.859V71.577C188.563 71.713 188.495 71.798 188.359 71.798H186.676C186.523 71.798 186.455 71.713 186.455 71.577V69.163ZM192.864 76.932C192.983 77.034 192.949 77.153 192.881 77.255L191.912 78.428C191.827 78.53 191.691 78.513 191.555 78.428C190.501 77.663 189.651 76.694 189.158 75.793C188.665 76.694 187.73 77.697 186.54 78.513C186.421 78.615 186.302 78.615 186.166 78.53C184.976 77.714 184.092 76.745 183.599 75.844C183.157 76.711 182.426 77.595 181.219 78.513C181.083 78.632 180.964 78.615 180.862 78.513L179.842 77.408C179.74 77.306 179.74 77.153 179.859 77.068C181.542 75.878 182.528 74.484 182.528 73.073V72.716C182.528 72.597 182.596 72.512 182.749 72.512H184.415C184.568 72.512 184.636 72.597 184.636 72.716V73.073C184.636 74.314 185.316 75.266 186.353 76.184C187.339 75.317 188.087 74.297 188.087 73.09V72.665C188.087 72.529 188.155 72.444 188.308 72.444H189.974C190.11 72.444 190.178 72.529 190.178 72.665V73.09C190.178 74.399 191.283 75.793 192.864 76.932ZM204.489 63.485H206.206C206.376 63.485 206.444 63.57 206.444 63.706V78.224C206.444 78.36 206.376 78.428 206.206 78.428H204.489C204.336 78.428 204.268 78.36 204.268 78.224V70.829H202.313C202.024 73.617 200.375 75.079 198.114 75.079C195.615 75.079 193.881 73.294 193.881 69.911C193.881 66.545 195.615 64.76 198.114 64.76C200.375 64.76 202.007 66.188 202.313 68.908H204.268V63.706C204.268 63.57 204.336 63.485 204.489 63.485ZM198.114 73.141C199.372 73.141 200.205 72.07 200.205 69.911C200.205 67.769 199.372 66.681 198.114 66.681C196.856 66.681 196.023 67.769 196.023 69.911C196.023 72.07 196.856 73.141 198.114 73.141ZM219.207 75.079H222.369C222.522 75.079 222.59 75.164 222.59 75.3V76.796C222.59 76.915 222.522 77 222.369 77H208.429C208.293 77 208.225 76.915 208.225 76.796V75.3C208.225 75.164 208.293 75.079 208.429 75.079H211.608V71.543C210.605 70.88 209.976 69.86 209.976 68.483C209.976 65.746 212.458 64.454 215.399 64.454C218.34 64.454 220.839 65.746 220.839 68.483C220.839 69.86 220.21 70.863 219.207 71.526V75.079ZM215.399 66.358C213.529 66.358 212.135 67.004 212.135 68.483C212.135 69.945 213.529 70.608 215.399 70.608C217.286 70.608 218.663 69.928 218.663 68.483C218.663 67.004 217.286 66.358 215.399 66.358ZM213.767 72.359V75.079H217.031V72.376C216.521 72.461 215.96 72.512 215.399 72.512C214.838 72.512 214.277 72.461 213.767 72.359ZM227.823 73.889H226.174C226.038 73.889 225.953 73.821 225.953 73.668L225.885 70.302C225.885 70.166 225.97 70.081 226.106 70.081H226.718C228.401 70.081 229.132 69.282 229.132 68.041C229.132 66.885 228.469 66.239 227.347 66.239C226.395 66.239 225.766 66.749 225.392 67.582C225.324 67.701 225.222 67.752 225.103 67.718L223.318 67.259C223.182 67.225 223.114 67.123 223.165 66.987C223.828 65.117 225.409 63.995 227.517 63.995C229.863 63.995 231.512 65.44 231.512 67.82C231.512 69.894 230.305 71.577 228.078 71.951L228.044 73.668C228.044 73.821 227.959 73.889 227.823 73.889ZM226.99 77.493C226.225 77.493 225.63 76.966 225.63 76.184C225.63 75.402 226.225 74.892 226.99 74.892C227.755 74.892 228.35 75.402 228.35 76.184C228.35 76.966 227.755 77.493 226.99 77.493Z" fill="#5951AA"/>
<defs>
<linearGradient id="paint0_linear_1675_6191" x1="152" y1="2" x2="152" y2="166" gradientUnits="userSpaceOnUse">
<stop stop-color="#E0E0FF"/>
<stop offset="0.146483" stop-color="#FEFEFF"/>
<stop offset="0.537477" stop-color="#FEFEFF"/>
<stop offset="0.836962" stop-color="#BFBEE8"/>
<stop offset="0.950656" stop-color="#A7A7DF"/>
<stop offset="1" stop-color="white"/>
</linearGradient>
<linearGradient id="paint1_linear_1675_6191" x1="2" y1="2" x2="302" y2="162" gradientUnits="userSpaceOnUse">
<stop stop-color="#7C70D8"/>
<stop offset="1" stop-color="#ECECFF"/>
</linearGradient>
</defs>
</svg>
