<svg width="42" height="45" viewBox="0 0 42 45" fill="none" xmlns="http://www.w3.org/2000/svg">
<rect x="2" y="4" width="38" height="40" rx="7" fill="#534E8E" stroke="#534E8E" stroke-width="2"/>
<rect x="1" y="1" width="40" height="40" rx="7" fill="#99B6F6" stroke="#534E8E" stroke-width="2"/>
<path d="M4 8C4 5.79086 5.79086 4 8 4H34C36.2091 4 38 5.79086 38 8V34C38 36.2091 36.2091 38 34 38H8C5.79086 38 4 36.2091 4 34V8Z" fill="url(#paint0_linear_1274_5413)"/>
<path d="M20.499 24.0908C20.0654 24.0908 19.7197 23.9619 19.4619 23.7041C19.2041 23.4404 19.0752 23.1006 19.0752 22.6846C19.0752 22.626 19.0752 22.5703 19.0752 22.5176C19.0752 22.4648 19.0752 22.4121 19.0752 22.3594C19.0752 21.9023 19.1631 21.4951 19.3389 21.1377C19.5146 20.7744 19.7607 20.4434 20.0771 20.1445C20.3936 19.8398 20.7627 19.5527 21.1846 19.2832C21.6299 19.002 21.9932 18.7412 22.2744 18.501C22.5615 18.2607 22.7725 18.0059 22.9072 17.7363C23.042 17.4609 23.1094 17.1387 23.1094 16.7695C23.1094 16.3887 23.0068 16.0547 22.8018 15.7676C22.5967 15.4746 22.3213 15.249 21.9756 15.0908C21.6299 14.9326 21.2402 14.8535 20.8066 14.8535C20.4434 14.8535 20.1123 14.9092 19.8135 15.0205C19.5146 15.1318 19.2539 15.3135 19.0312 15.5654C18.8145 15.8115 18.6387 16.1338 18.5039 16.5322C18.3809 16.8193 18.1963 17.0449 17.9502 17.209C17.7041 17.3672 17.4199 17.4463 17.0977 17.4463C16.6758 17.4463 16.3418 17.3232 16.0957 17.0771C15.8555 16.8311 15.7354 16.5088 15.7354 16.1104C15.7354 15.9053 15.7617 15.6973 15.8145 15.4863C15.8672 15.2754 15.9463 15.0645 16.0518 14.8535C16.3037 14.3438 16.667 13.9043 17.1416 13.5352C17.6221 13.1602 18.1846 12.873 18.8291 12.6738C19.4736 12.4688 20.1797 12.3662 20.9473 12.3662C21.9785 12.3662 22.8926 12.542 23.6895 12.8936C24.4922 13.2393 25.1221 13.7402 25.5791 14.3965C26.0361 15.0469 26.2646 15.8262 26.2646 16.7344C26.2646 17.5664 26.0537 18.2871 25.6318 18.8965C25.2158 19.5 24.6064 20.0508 23.8037 20.5488C23.3174 20.8535 22.9395 21.1172 22.6699 21.3398C22.4062 21.5625 22.2129 21.7852 22.0898 22.0078C21.9727 22.2246 21.8965 22.4883 21.8613 22.7988C21.8555 22.8281 21.8496 22.8633 21.8438 22.9043C21.8438 22.9395 21.8408 22.9746 21.835 23.0098C21.7764 23.3496 21.6328 23.6162 21.4043 23.8096C21.1758 23.9971 20.874 24.0908 20.499 24.0908ZM20.5342 29.1357C20.2061 29.1357 19.9072 29.0596 19.6377 28.9072C19.374 28.7549 19.1602 28.5469 18.9961 28.2832C18.8379 28.0254 18.7588 27.7383 18.7588 27.4219C18.7588 27.1055 18.8379 26.8184 18.9961 26.5605C19.1602 26.3027 19.374 26.0977 19.6377 25.9453C19.9072 25.793 20.2061 25.7168 20.5342 25.7168C20.8623 25.7168 21.1611 25.793 21.4307 25.9453C21.7002 26.0977 21.9141 26.3027 22.0723 26.5605C22.2363 26.8184 22.3184 27.1055 22.3184 27.4219C22.3184 27.7383 22.2363 28.0254 22.0723 28.2832C21.9141 28.5469 21.7002 28.7549 21.4307 28.9072C21.1611 29.0596 20.8623 29.1357 20.5342 29.1357Z" fill="#534E8E"/>
<defs>
<linearGradient id="paint0_linear_1274_5413" x1="4" y1="4" x2="38" y2="38" gradientUnits="userSpaceOnUse">
<stop stop-color="#FBFFED"/>
<stop offset="1" stop-color="#DEE8FF"/>
</linearGradient>
</defs>
</svg>
