<svg width="346" height="60" viewBox="0 0 346 60" fill="none" xmlns="http://www.w3.org/2000/svg">
<rect x="1" y="1" width="344" height="58" rx="29" fill="url(#paint0_linear_1321_5313)" stroke="url(#paint1_linear_1321_5313)" stroke-width="2"/>
<path d="M169.295 16.69H171.113C171.293 16.69 171.365 16.78 171.365 16.924V32.296C171.365 32.44 171.293 32.512 171.113 32.512H169.295C169.133 32.512 169.061 32.44 169.061 32.296V23.944H166.307C166.145 23.944 166.073 23.872 166.073 23.71V22.144C166.073 22 166.145 21.91 166.307 21.91H169.061V16.924C169.061 16.78 169.133 16.69 169.295 16.69ZM167.387 27.292C167.531 27.382 167.513 27.544 167.405 27.652L166.307 28.912C166.217 29.02 166.073 29.02 165.929 28.912C164.453 27.706 163.337 26.338 162.743 25.078C162.095 26.41 160.889 27.94 159.341 29.164C159.197 29.272 159.053 29.272 158.963 29.164L157.865 27.904C157.757 27.796 157.757 27.634 157.883 27.544C160.043 25.816 161.555 23.656 161.555 20.74V20.344H158.549C158.387 20.344 158.315 20.254 158.315 20.11V18.526C158.315 18.382 158.387 18.292 158.549 18.292H166.631C166.793 18.292 166.865 18.382 166.865 18.526V20.11C166.865 20.254 166.793 20.344 166.631 20.344H163.823V20.74C163.823 23.566 165.407 25.726 167.387 27.292ZM186.302 20.038H188.588C188.768 20.038 188.84 20.128 188.84 20.29V21.838C188.84 22 188.768 22.09 188.588 22.09H186.302V25.456C186.302 25.6 186.23 25.672 186.05 25.672H184.214C184.07 25.672 183.998 25.6 183.998 25.456V16.924C183.998 16.78 184.07 16.69 184.214 16.69H186.05C186.23 16.69 186.302 16.78 186.302 16.924V20.038ZM178.256 22.774C177.428 23.836 176.15 24.862 174.62 25.636C174.476 25.708 174.296 25.672 174.242 25.582L173.342 24.214C173.252 24.07 173.252 23.908 173.378 23.854C175.502 22.774 177.068 21.46 177.068 19.948V19.552H174.044C173.864 19.552 173.81 19.48 173.81 19.336V17.824C173.81 17.698 173.864 17.608 174.044 17.608H182.306C182.468 17.608 182.54 17.698 182.54 17.824V19.336C182.54 19.48 182.468 19.552 182.306 19.552H179.372V19.948C179.372 21.37 180.614 22.396 182.81 23.458C182.936 23.53 182.936 23.674 182.882 23.818L182.054 25.186C182 25.312 181.82 25.312 181.676 25.24C180.362 24.664 179.12 23.746 178.256 22.774ZM181.046 26.104C184.664 26.104 186.464 27.418 186.464 29.398C186.464 31.36 184.664 32.692 181.046 32.692C177.41 32.692 175.61 31.36 175.61 29.398C175.61 27.418 177.41 26.104 181.046 26.104ZM181.046 30.766C183.332 30.766 184.178 30.19 184.178 29.398C184.178 28.606 183.332 28.048 181.046 28.048C178.742 28.048 177.896 28.606 177.896 29.398C177.896 30.19 178.742 30.766 181.046 30.766Z" fill="#60A3AF"/>
<defs>
<linearGradient id="paint0_linear_1321_5313" x1="173" y1="2" x2="173" y2="59.6154" gradientUnits="userSpaceOnUse">
<stop stop-color="white"/>
<stop offset="0.275531" stop-color="#CFE7E9"/>
<stop offset="0.529509" stop-color="#A5CAE1"/>
<stop offset="0.770833" stop-color="#A1B9E4"/>
<stop offset="1" stop-color="#C7CEDF"/>
</linearGradient>
<linearGradient id="paint1_linear_1321_5313" x1="2" y1="2" x2="345.068" y2="50.4365" gradientUnits="userSpaceOnUse">
<stop stop-color="#86A0C6"/>
<stop offset="1" stop-color="#AECED0"/>
</linearGradient>
</defs>
</svg>
