<svg width="306" height="146" viewBox="0 0 306 146" fill="none" xmlns="http://www.w3.org/2000/svg">
<path d="M70.38 119.304C67.436 119.304 65.412 118.844 64.308 117.74C63.204 116.636 62.652 114.612 62.468 111.576C62.008 103.02 61.824 97.132 61.824 93.912C61.824 89.404 62.1 75.144 62.744 51.224C62.744 50.58 62.836 49.844 63.02 49.108C63.112 48.372 63.204 47.728 63.388 47.176C63.48 46.624 63.664 45.98 63.94 45.06C64.124 44.14 64.308 43.496 64.492 42.944C64.676 42.208 65.044 41.656 65.688 41.472C65.872 41.472 66.516 41.288 67.528 41.012C68.54 40.736 69.276 40.552 69.644 40.46C70.012 40.368 70.564 40.276 71.484 40.092C72.312 39.908 72.956 39.908 73.508 39.908C74.06 39.908 74.704 40 75.44 40.184C76.176 40.368 76.82 40.552 77.556 40.828C79.304 41.748 80.316 43.404 80.5 45.796C80.5 46.9 80.592 50.58 80.684 56.928C80.684 63.276 80.868 67.232 81.052 68.796C81.236 69.9 81.88 71.096 82.984 72.292C83.536 72.936 84.088 73.58 84.732 74.224C85.376 74.96 86.112 75.696 86.94 76.432C87.676 77.26 88.32 77.904 88.872 78.272C89.608 79.008 90.068 79.836 90.436 80.664C90.804 81.584 90.896 82.596 90.804 83.7C90.712 84.804 90.62 85.632 90.528 86.184C90.344 86.736 90.16 87.748 89.792 89.036C89.24 91.244 87.308 92.44 83.996 92.44C82.248 92.44 81.144 92.716 80.776 93.176C80.316 93.728 80.132 94.924 80.224 96.948C80.224 98.328 80.224 100.812 80.316 104.308C80.408 107.804 80.5 110.196 80.5 111.392C80.5 113.876 79.856 115.532 78.384 116.36C74.704 118.384 72.036 119.396 70.38 119.304ZM14.352 49.568C23.184 50.212 28.06 50.58 28.98 50.58C33.028 50.948 36.156 51.224 38.364 51.408C39.56 51.592 40.664 52.328 41.584 53.616C42.504 54.904 42.964 56.284 42.78 57.664C42.596 59.228 41.952 62.172 40.664 66.588C40.296 67.508 39.836 68.796 39.284 70.636C38.64 72.476 38.18 73.948 37.996 74.868C37.536 76.34 37.444 77.444 37.812 78.364C37.996 79.1 38.732 79.652 40.02 79.928C41.676 80.388 45.356 81.216 50.876 82.412C52.624 82.78 53.176 83.884 52.624 85.724C52.44 86.276 51.98 87.84 51.336 90.232C50.6 92.624 50.048 94.464 49.588 95.66C48.208 98.972 46.184 100.444 43.424 100.26C43.056 100.26 42.872 100.352 42.78 100.352C42.044 100.72 41.308 100.904 40.664 100.904C39.928 100.904 39.376 100.904 39.008 100.812C38.548 100.72 37.996 100.444 37.352 99.892C36.616 99.34 36.248 98.972 36.064 98.788C35.88 98.604 35.42 98.052 34.684 97.224C32.844 95.384 31.832 94.28 31.556 93.912C30.82 93.36 30.084 93.084 29.348 93.084C28.52 93.084 27.784 93.452 27.14 94.096C25.76 95.476 24.564 96.948 23.552 98.512C23.184 98.972 21.712 101.456 19.044 105.964C18.032 107.62 16.56 108.632 14.536 109.184C12.512 109.736 10.488 109.736 8.464 109.092C6.44 108.54 5.06 107.436 4.232 105.872C2.944 103.664 2.484 100.628 2.852 96.764C2.944 95.66 3.68 94.556 4.968 93.636C6.44 92.532 8.556 91.06 11.408 89.128C14.168 87.196 16.284 85.724 17.572 84.712C19.596 83.24 21.252 81.768 22.54 80.296C23.828 78.824 24.656 76.984 25.208 74.868C25.576 73.212 25.3 71.924 24.472 70.912C23.552 69.992 22.264 69.532 20.516 69.624C14.996 70.084 10.58 68.888 7.452 66.128C6.348 65.208 5.704 64.012 5.704 62.632C5.52 61.344 5.612 58.492 5.98 54.168C5.98 53.892 6.072 53.524 6.44 53.156C6.716 52.788 6.9 52.42 6.992 52.144C7.084 51.868 6.992 51.408 6.716 50.856L7.36 50.396C7.636 50.212 7.912 50.12 8.096 50.028C8.28 49.936 8.556 49.844 8.74 49.844C9.108 49.844 11.04 49.752 14.352 49.752V49.568ZM173.144 52.42C176.272 52.42 178.112 52.512 178.572 52.512C178.848 52.512 179.216 52.696 179.584 53.064C179.952 53.432 180.136 53.708 180.228 53.892C180.32 58.86 180.32 62.54 180.136 64.84C179.952 65.76 179.676 66.404 179.124 66.956C178.572 67.508 178.02 67.968 177.56 68.152C177.008 68.336 176.272 68.612 175.352 68.796C174.892 68.98 174.156 69.164 173.144 69.348C172.04 69.624 171.212 69.9 170.476 70.084C169.74 70.268 169.004 70.544 168.36 70.82C167.992 71.004 167.624 71.556 167.348 72.292C167.072 73.028 166.98 73.764 166.98 74.316C166.98 76.8 167.256 80.94 167.808 86.644C167.9 88.208 168.636 89.036 170.016 89.128C170.936 89.312 172.408 89.496 174.34 89.772C176.272 90.14 177.744 90.324 178.756 90.324C180.78 90.6 181.7 91.612 181.516 93.452C181.516 93.728 181.424 94.464 181.332 95.752C181.24 97.04 181.148 97.96 181.148 98.512C181.056 99.064 180.872 99.708 180.688 100.628C180.504 101.548 180.228 102.284 180.044 102.928C179.768 103.48 179.4 103.848 178.848 104.216C178.296 104.584 177.56 105.044 176.548 105.412C175.536 105.872 174.892 106.148 174.708 106.24C174.34 106.424 173.88 106.608 173.236 106.608C172.592 106.7 172.224 106.792 172.04 106.792C169.832 107.528 168.912 109.092 169.096 111.484C169.28 114.704 169.004 116.82 168.452 117.832C167.9 118.936 166.336 119.948 163.76 120.868C162.932 121.236 162.104 121.512 161.184 121.696C160.264 121.88 159.16 122.156 157.688 122.34C156.216 122.524 155.388 122.708 155.02 122.708C153.548 122.984 152.812 122.248 152.628 120.5C152.536 119.948 152.26 117.464 151.708 113.048C151.156 108.632 150.788 105.32 150.604 102.928C149.96 94.004 149.5 84.988 149.316 75.972C149.224 73.764 149.316 67.232 149.592 56.56C149.592 53.984 149.776 50.672 150.052 46.624C150.052 45.796 150.328 45.06 150.696 44.324C151.064 43.68 151.616 42.944 152.352 42.208C152.996 41.472 153.456 40.828 153.732 40.46C153.732 40.46 154.1 40.368 154.744 40.368C159.804 40.276 162.472 40.184 162.84 40.184C164.036 40 164.864 40.092 165.324 40.46C165.692 40.828 165.968 41.656 165.968 42.944C166.06 45.612 166.06 48.004 166.06 50.212C165.968 51.04 166.06 51.592 166.428 51.96C166.704 52.328 167.256 52.42 167.992 52.328H173.144V52.42ZM112.792 91.52C117.392 91.98 120.796 92.164 123.004 92.164C123.832 92.256 124.752 92.348 125.856 92.348C126.96 92.44 127.696 92.532 128.248 92.532C128.8 92.532 129.444 92.532 130.364 92.44C131.284 92.348 132.296 92.164 133.4 91.888C135.608 91.428 138 92.072 140.576 93.912C140.852 94.188 141.128 94.556 141.312 95.108C141.496 95.66 141.588 96.212 141.496 96.58C141.312 97.96 141.036 99.064 140.852 99.892C140.668 100.812 140.484 101.364 140.392 101.732C140.208 102.1 139.84 102.836 139.288 104.032C138.736 105.228 138.276 106.148 137.908 106.884C136.528 109.828 134.32 111.484 131.284 111.668C129.076 111.852 126.224 112.22 122.82 112.772C119.324 113.324 116.84 113.6 115.184 113.692C113.528 113.876 110.768 113.876 106.72 113.692C104.236 113.508 101.844 113.14 99.452 112.496C97.428 112.036 96.324 110.564 96.232 108.172C96.14 106.792 96.048 104.86 95.956 102.468C95.772 100.076 95.68 97.776 95.588 95.752C95.496 93.728 95.496 91.796 95.496 89.956C95.312 80.94 95.312 72.016 95.496 63C95.496 61.068 95.864 58.86 96.784 56.376C97.336 54.812 98.072 53.708 98.992 53.156C99.912 52.604 101.384 52.236 103.408 52.052C104.328 51.96 105.8 51.96 108.008 52.052C108.192 52.052 108.468 52.236 108.836 52.42C109.204 52.604 109.48 52.788 109.572 52.788C110.308 53.156 110.768 53.248 111.044 53.248C112.056 53.248 112.792 53.432 113.252 53.8C113.62 54.168 113.988 54.996 114.264 56.1C114.632 57.48 114.816 58.952 114.816 60.608C114.816 62.264 114.724 63.644 114.632 64.84C114.448 66.036 114.264 67.508 113.988 69.348C113.712 71.188 113.528 72.568 113.528 73.58C113.344 75.052 113.16 78.18 113.068 82.964C112.884 87.748 112.792 90.6 112.792 91.52Z" fill="#FED978"/>
<path d="M70.38 119.304L70.6019 115.31L70.491 115.304H70.38V119.304ZM64.308 117.74L61.4796 120.568L61.4796 120.568L64.308 117.74ZM62.468 111.576L58.4738 111.791L58.4745 111.804L58.4753 111.818L62.468 111.576ZM62.744 51.224L66.7426 51.3317L66.744 51.2778V51.224H62.744ZM63.02 49.108L66.9006 50.0781L66.9592 49.8438L66.9891 49.6042L63.02 49.108ZM63.388 47.176L67.1827 48.4409L67.282 48.1432L67.3336 47.8336L63.388 47.176ZM63.94 45.06L67.7713 46.2094L67.8254 46.0291L67.8623 45.8445L63.94 45.06ZM64.492 42.944L68.2867 44.2089L68.3353 44.0632L68.3726 43.9141L64.492 42.944ZM65.688 41.472V37.472H65.1278L64.5891 37.6259L65.688 41.472ZM67.528 41.012L68.5805 44.8711L68.5805 44.8711L67.528 41.012ZM69.644 40.46L68.6739 36.5794L68.6738 36.5794L69.644 40.46ZM71.484 40.092L72.2685 44.0143L72.3102 44.006L72.3517 43.9967L71.484 40.092ZM75.44 40.184L74.4698 44.0646L74.4699 44.0646L75.44 40.184ZM77.556 40.828L79.419 37.2883L79.1962 37.1711L78.9605 37.0827L77.556 40.828ZM80.5 45.796H84.5V45.6424L84.4882 45.4892L80.5 45.796ZM80.684 56.928H84.684V56.899L84.6836 56.87L80.684 56.928ZM81.052 68.796L77.0794 69.2634L77.0906 69.3588L77.1064 69.4536L81.052 68.796ZM82.984 72.292L86.021 69.6888L85.9731 69.633L85.9232 69.5789L82.984 72.292ZM84.732 74.224L87.7423 71.59L87.6546 71.4897L87.5604 71.3956L84.732 74.224ZM86.94 76.432L89.9296 73.7745L89.7733 73.5987L89.5975 73.4424L86.94 76.432ZM88.872 78.272L91.7004 75.4436L91.4204 75.1635L91.0908 74.9438L88.872 78.272ZM90.436 80.664L94.1499 79.1784L94.1219 79.1084L94.0912 79.0394L90.436 80.664ZM90.528 86.184L94.3227 87.4489L94.422 87.1512L94.4736 86.8416L90.528 86.184ZM89.792 89.036L85.9459 87.9371L85.9276 88.0012L85.9114 88.0659L89.792 89.036ZM80.776 93.176L83.8489 95.7367L83.8745 95.706L83.8995 95.6748L80.776 93.176ZM80.224 96.948H84.224V96.8571L84.2199 96.7664L80.224 96.948ZM80.316 104.308L84.3146 104.203L80.316 104.308ZM78.384 116.36L80.3117 119.865L80.3284 119.856L80.3451 119.846L78.384 116.36ZM14.352 49.568L14.6429 45.5786L10.352 45.2657V49.568H14.352ZM28.98 50.58L29.3421 46.5964L29.1614 46.58H28.98V50.58ZM38.364 51.408L38.9722 47.4545L38.8348 47.4334L38.6962 47.4218L38.364 51.408ZM41.584 53.616L44.8389 51.291L44.8389 51.291L41.584 53.616ZM42.78 57.664L38.8151 57.1353L38.811 57.166L38.8074 57.1966L42.78 57.664ZM40.664 66.588L44.3779 68.0736L44.4498 67.8938L44.504 67.708L40.664 66.588ZM39.284 70.636L43.0594 71.9574L43.0893 71.872L43.1153 71.7854L39.284 70.636ZM37.996 74.868L41.8139 76.0611L41.8769 75.8595L41.9183 75.6525L37.996 74.868ZM37.812 78.364L41.6926 77.3939L41.6267 77.1305L41.5259 76.8784L37.812 78.364ZM40.02 79.928L41.0906 76.0739L40.9752 76.0419L40.8581 76.0168L40.02 79.928ZM50.876 82.412L50.029 86.3213L50.0405 86.3238L50.052 86.3262L50.876 82.412ZM52.624 85.724L56.4187 86.9889L56.4379 86.9314L56.4553 86.8734L52.624 85.724ZM51.336 90.232L55.1591 91.4083L55.18 91.3405L55.1985 91.2719L51.336 90.232ZM49.588 95.66L53.2803 97.1985L53.3016 97.1475L53.3214 97.0959L49.588 95.66ZM43.424 100.26L43.6901 96.2689L43.5572 96.26H43.424V100.26ZM42.78 100.352V96.352H41.8357L40.9911 96.7743L42.78 100.352ZM39.008 100.812L39.9781 96.9314L39.8858 96.9083L39.7925 96.8897L39.008 100.812ZM37.352 99.892L39.9552 96.855L39.8562 96.7702L39.752 96.692L37.352 99.892ZM36.064 98.788L38.8924 95.9596L38.8924 95.9596L36.064 98.788ZM34.684 97.224L37.6736 94.5665L37.5955 94.4787L37.5124 94.3956L34.684 97.224ZM31.556 93.912L34.756 91.512L34.4131 91.0549L33.956 90.712L31.556 93.912ZM27.14 94.096L29.9684 96.9244L29.9684 96.9244L27.14 94.096ZM23.552 98.512L26.6755 101.011L26.8011 100.854L26.9103 100.685L23.552 98.512ZM19.044 105.964L22.4571 108.05L22.4719 108.026L22.4863 108.001L19.044 105.964ZM8.464 109.092L9.67681 105.28L9.59714 105.255L9.51647 105.233L8.464 109.092ZM4.232 105.872L7.76715 104L7.72861 103.928L7.68711 103.857L4.232 105.872ZM2.852 96.764L6.83398 97.1432L6.83622 97.1197L6.83818 97.0962L2.852 96.764ZM4.968 93.636L7.29295 96.8909L7.33079 96.8639L7.368 96.836L4.968 93.636ZM11.408 89.128L13.6514 92.4397L13.6768 92.4225L13.7018 92.4049L11.408 89.128ZM17.572 84.712L15.2193 81.4771L15.1592 81.5208L15.1007 81.5667L17.572 84.712ZM25.208 74.868L29.0785 75.8777L29.0969 75.807L29.1128 75.7357L25.208 74.868ZM24.472 70.912L27.5678 68.379L27.4415 68.2246L27.3004 68.0836L24.472 70.912ZM20.516 69.624L20.3058 65.6295L20.2447 65.6327L20.1838 65.6378L20.516 69.624ZM7.452 66.128L10.0985 63.1286L10.0561 63.0913L10.0127 63.0551L7.452 66.128ZM5.704 62.632H9.704V62.3477L9.6638 62.0663L5.704 62.632ZM5.98 54.168L9.96559 54.5072L9.98 54.3379V54.168H5.98ZM6.44 53.156L9.26843 55.9844L9.46943 55.7834L9.63999 55.556L6.44 53.156ZM6.716 50.856L4.39105 47.6011L1.60972 49.5877L3.13829 52.6449L6.716 50.856ZM7.36 50.396L5.14117 47.0678L5.08752 47.1036L5.03505 47.1411L7.36 50.396ZM8.096 50.028L9.88483 53.6057L9.88484 53.6057L8.096 50.028ZM14.352 49.752V53.752H18.352V49.752H14.352ZM70.38 115.304C69.0834 115.304 68.1994 115.199 67.6241 115.055C67.0501 114.912 67.0118 114.787 67.1364 114.912L61.4796 120.568C63.8272 122.916 67.3766 123.304 70.38 123.304V115.304ZM67.1364 114.912C67.215 114.99 67.0664 114.89 66.8825 114.261C66.6993 113.634 66.5432 112.695 66.4607 111.334L58.4753 111.818C58.662 114.898 59.229 118.318 61.4796 120.568L67.1364 114.912ZM66.4622 111.361C66.0033 102.826 65.824 97.023 65.824 93.912H57.824C57.824 97.241 58.0127 103.214 58.4738 111.791L66.4622 111.361ZM65.824 93.912C65.824 89.4688 66.0981 75.2672 66.7426 51.3317L58.7455 51.1163C58.1019 75.0208 57.824 89.3392 57.824 93.912H65.824ZM66.744 51.224C66.744 50.9376 66.7881 50.528 66.9006 50.0781L59.1394 48.1379C58.8839 49.16 58.744 50.2223 58.744 51.224H66.744ZM66.9891 49.6042C67.0864 48.8255 67.1422 48.5626 67.1827 48.4409L59.5933 45.9111C59.2658 46.8934 59.1376 47.9185 59.0509 48.6118L66.9891 49.6042ZM67.3336 47.8336C67.3768 47.5745 67.4815 47.1755 67.7713 46.2094L60.1087 43.9106C59.8465 44.7845 59.5833 45.6735 59.4424 46.5184L67.3336 47.8336ZM67.8623 45.8445C68.0127 45.0924 68.1534 44.6088 68.2867 44.2089L60.6973 41.6791C60.4626 42.3832 60.2353 43.1876 60.0177 44.2755L67.8623 45.8445ZM68.3726 43.9141C68.3719 43.9169 68.3588 43.9695 68.3198 44.057C68.2806 44.1451 68.2078 44.2848 68.0826 44.4468C67.8014 44.8108 67.3534 45.1562 66.7869 45.3181L64.5891 37.6259C61.9784 38.3718 60.961 40.5755 60.6114 41.9739L68.3726 43.9141ZM65.688 45.472C65.9991 45.472 66.2527 45.4371 66.3708 45.4194C66.5134 45.3981 66.6411 45.3729 66.7376 45.3525C66.9293 45.3121 67.1279 45.2625 67.3014 45.2175C67.6443 45.1286 68.1068 45.0002 68.5805 44.8711L66.4755 37.1529C65.9372 37.2998 65.5717 37.4014 65.2937 37.4735C65.2299 37.49 65.1803 37.5025 65.1421 37.5117C65.1234 37.5163 65.1091 37.5196 65.0988 37.522C65.0883 37.5244 65.0837 37.5254 65.084 37.5253C65.0841 37.5253 65.0923 37.5236 65.1073 37.5208C65.1218 37.5181 65.1489 37.5132 65.1859 37.5077C65.2217 37.5023 65.2797 37.4944 65.3539 37.4874C65.4244 37.4808 65.541 37.472 65.688 37.472V45.472ZM68.5805 44.8711C69.5516 44.6062 70.2555 44.4302 70.6142 44.3406L68.6738 36.5794C68.2965 36.6738 67.5284 36.8658 66.4755 37.1529L68.5805 44.8711ZM70.6141 44.3406C70.865 44.2779 71.1405 44.2399 72.2685 44.0143L70.6995 36.1697C69.9875 36.3121 69.159 36.4581 68.6739 36.5794L70.6141 44.3406ZM72.3517 43.9967C72.722 43.9145 72.9907 43.908 73.508 43.908V35.908C72.9213 35.908 71.902 35.9015 70.6163 36.1873L72.3517 43.9967ZM73.508 43.908C73.6369 43.908 73.942 43.9326 74.4698 44.0646L76.4102 36.3034C75.466 36.0674 74.4831 35.908 73.508 35.908V43.908ZM74.4699 44.0646C75.1175 44.2265 75.605 44.3684 76.1515 44.5733L78.9605 37.0827C78.0351 36.7356 77.2345 36.5095 76.4101 36.3034L74.4699 44.0646ZM75.693 44.3677C76.0003 44.5294 76.4123 44.8097 76.5118 46.1028L84.4882 45.4892C84.2197 41.9983 82.6077 38.9666 79.419 37.2883L75.693 44.3677ZM76.5 45.796C76.5 46.9323 76.5937 50.7271 76.6844 56.986L84.6836 56.87C84.5903 50.4329 84.5 46.8677 84.5 45.796H76.5ZM76.684 56.928C76.684 63.2801 76.8654 67.444 77.0794 69.2634L85.0246 68.3286C84.8706 67.02 84.684 63.2719 84.684 56.928H76.684ZM77.1064 69.4536C77.458 71.5629 78.6028 73.443 80.0448 75.0051L85.9232 69.5789C85.1572 68.749 85.014 68.2371 84.9976 68.1384L77.1064 69.4536ZM79.947 74.8952C80.4876 75.5259 81.1349 76.2837 81.9036 77.0524L87.5604 71.3956C87.0411 70.8763 86.5844 70.3461 86.021 69.6888L79.947 74.8952ZM81.7217 76.858C82.4891 77.735 83.3457 78.5889 84.2825 79.4216L89.5975 73.4424C88.8783 72.8031 88.2629 72.185 87.7423 71.59L81.7217 76.858ZM83.9504 79.0895C84.6947 79.9268 85.6333 80.9203 86.6532 81.6002L91.0908 74.9438C91.0984 74.9489 91.0715 74.9313 91.0073 74.8776C90.9443 74.825 90.8597 74.7495 90.7515 74.6451C90.5311 74.4325 90.261 74.1473 89.9296 73.7745L83.9504 79.0895ZM86.0436 81.1004C86.2936 81.3505 86.5128 81.6857 86.7808 82.2886L94.0912 79.0394C93.6232 77.9863 92.9224 76.6655 91.7004 75.4436L86.0436 81.1004ZM86.7221 82.1496C86.7926 82.3259 86.8756 82.6741 86.8178 83.3678L94.7902 84.0322C94.9164 82.5179 94.8154 80.8421 94.1499 79.1784L86.7221 82.1496ZM86.8178 83.3678C86.7279 84.4464 86.6466 85.1416 86.5824 85.5264L94.4736 86.8416C94.5934 86.1224 94.6961 85.1616 94.7902 84.0322L86.8178 83.3678ZM86.7333 84.9191C86.5712 85.4054 86.4318 86.0128 86.3378 86.4075C86.2237 86.8865 86.1034 87.3861 85.9459 87.9371L93.6381 90.1349C93.8487 89.3979 94.0043 88.7475 94.1202 88.2605C94.1808 88.006 94.2244 87.8221 94.2643 87.6651C94.3054 87.5029 94.3232 87.4475 94.3227 87.4489L86.7333 84.9191ZM85.9114 88.0659C85.888 88.1598 85.8714 88.1641 85.8957 88.1311C85.9214 88.0961 85.9346 88.0982 85.8831 88.1288C85.7456 88.2106 85.2229 88.44 83.996 88.44V96.44C86.0811 96.44 88.1804 96.0714 89.9749 95.0032C91.8853 93.8661 93.1463 92.1113 93.6726 90.0061L85.9114 88.0659ZM83.996 88.44C82.9451 88.44 81.9007 88.5199 80.957 88.7407C80.1891 88.9205 78.7038 89.3632 77.6525 90.6772L83.8995 95.6748C83.5167 96.1532 83.12 96.3739 82.9661 96.4503C82.798 96.5337 82.7153 96.5454 82.78 96.5303C82.8349 96.5174 82.9623 96.4932 83.1781 96.4731C83.3903 96.4533 83.6615 96.44 83.996 96.44V88.44ZM77.7031 90.6153C76.7799 91.7231 76.4698 93.0216 76.3362 93.9238C76.191 94.9041 76.1766 95.9953 76.2281 97.1296L84.2199 96.7664C84.1794 95.8767 84.211 95.3579 84.2498 95.0962C84.268 94.9737 84.277 94.9842 84.2419 95.0806C84.2073 95.1757 84.1009 95.4343 83.8489 95.7367L77.7031 90.6153ZM76.224 96.948C76.224 98.3398 76.224 100.865 76.3174 104.413L84.3146 104.203C84.224 100.759 84.224 98.3162 84.224 96.948H76.224ZM76.3174 104.413C76.4121 108.011 76.5 110.265 76.5 111.392H84.5C84.5 110.127 84.4039 107.597 84.3146 104.203L76.3174 104.413ZM76.5 111.392C76.5 112.33 76.3722 112.789 76.3017 112.959C76.2732 113.027 76.2667 113.018 76.3046 112.974C76.3456 112.926 76.3933 112.89 76.423 112.874L80.3451 119.846C83.7151 117.951 84.5 114.398 84.5 111.392H76.5ZM76.4563 112.855C74.7077 113.817 73.3113 114.475 72.2327 114.875C71.6979 115.073 71.2885 115.19 70.9893 115.253C70.6814 115.318 70.5686 115.308 70.6019 115.31L70.1581 123.298C71.8033 123.389 73.4974 122.938 75.0133 122.376C76.6027 121.787 78.3803 120.927 80.3117 119.865L76.4563 112.855ZM14.0611 53.5574C22.722 54.1889 27.8662 54.58 28.98 54.58V46.58C28.9821 46.58 28.9562 46.5799 28.8901 46.5778C28.8277 46.5758 28.745 46.5724 28.6391 46.5674C28.4267 46.5573 28.1469 46.5417 27.7938 46.52C27.0884 46.4766 26.1316 46.4115 24.9153 46.3255C22.483 46.1534 19.0654 45.9011 14.6429 45.5786L14.0611 53.5574ZM28.6179 54.5636C32.6691 54.9319 35.8088 55.2089 38.0318 55.3942L38.6962 47.4218C36.5032 47.2391 33.3869 46.9641 29.3421 46.5964L28.6179 54.5636ZM37.7558 55.3615C37.7273 55.3571 37.7462 55.3498 37.8263 55.4044C37.9164 55.4657 38.0971 55.6161 38.3291 55.941L44.8389 51.291C43.456 49.3549 41.4834 47.8409 38.9722 47.4545L37.7558 55.3615ZM38.3291 55.9409C38.8443 56.6623 38.8279 57.0395 38.8151 57.1353L46.7449 58.1927C47.1001 55.5285 46.1637 53.1457 44.8389 51.291L38.3291 55.9409ZM38.8074 57.1966C38.664 58.4158 38.0988 61.0972 36.824 65.468L44.504 67.708C45.8052 63.2468 46.528 60.0402 46.7526 58.1314L38.8074 57.1966ZM36.9501 65.1024C36.5306 66.1513 36.0325 67.5538 35.4527 69.4866L43.1153 71.7854C43.6395 70.0382 44.0614 68.8647 44.3779 68.0736L36.9501 65.1024ZM35.5086 69.3146C34.8684 71.1437 34.319 72.8569 34.0737 74.0835L41.9183 75.6525C42.041 75.039 42.4116 73.8083 43.0594 71.9574L35.5086 69.3146ZM34.1781 73.6749C33.6332 75.4186 33.2099 77.6291 34.0981 79.8496L41.5259 76.8784C41.6011 77.0663 41.58 77.1675 41.5863 77.0626C41.5945 76.9258 41.6391 76.6205 41.8139 76.0611L34.1781 73.6749ZM33.9314 79.3341C34.6804 82.3301 37.395 83.4563 39.1819 83.8392L40.8581 76.0168C40.5593 75.9528 40.6197 75.9146 40.8365 76.0704C41.1021 76.2613 41.5176 76.6941 41.6926 77.3939L33.9314 79.3341ZM38.9494 83.7821C40.7433 84.2804 44.5583 85.136 50.029 86.3213L51.723 78.5027C46.1537 77.296 42.6087 76.4956 41.0906 76.0739L38.9494 83.7821ZM50.052 86.3262C50.2685 86.3718 49.5341 86.2648 49.0648 85.3637C48.6577 84.582 48.9354 84.0989 48.7927 84.5746L56.4553 86.8734C56.8646 85.5091 57.1423 83.554 56.1602 81.6683C55.1159 79.6632 53.2315 78.8202 51.7 78.4978L50.052 86.3262ZM48.8293 84.4591C48.6043 85.134 48.1177 86.7994 47.4735 89.1921L55.1985 91.2719C55.8423 88.8806 56.2757 87.418 56.4187 86.9889L48.8293 84.4591ZM47.5129 89.0557C46.7466 91.5461 46.2506 93.1945 45.8546 94.2241L53.3214 97.0959C53.8454 95.7335 54.4534 93.7019 55.1591 91.4083L47.5129 89.0557ZM45.8957 94.1215C45.3772 95.3659 44.8975 95.8677 44.6409 96.058C44.464 96.1892 44.2327 96.305 43.6901 96.2689L43.1579 104.251C45.3753 104.399 47.536 103.871 49.4061 102.484C51.1965 101.156 52.4188 99.2661 53.2803 97.1985L45.8957 94.1215ZM43.424 96.26C43.163 96.26 42.9201 96.2765 42.6949 96.304C42.4691 96.3317 42.2787 96.3684 42.1308 96.4013C42.0596 96.4171 42.0006 96.4315 41.9646 96.4404C41.9075 96.4546 41.9341 96.4481 41.9342 96.4481C41.9435 96.4458 42.0253 96.4259 42.1377 96.4065C42.2442 96.3881 42.4775 96.352 42.78 96.352V104.352C43.1055 104.352 43.3647 104.313 43.5002 104.29C43.6418 104.265 43.7559 104.238 43.8012 104.227C43.8281 104.221 43.8516 104.215 43.8641 104.212C43.8825 104.207 43.8819 104.207 43.8898 104.205C43.8973 104.203 43.8857 104.206 43.8662 104.211C43.8218 104.221 43.7521 104.234 43.6672 104.245C43.5829 104.255 43.501 104.26 43.424 104.26V96.26ZM40.9911 96.7743C40.8593 96.8402 40.7551 96.8756 40.688 96.8929C40.6185 96.9108 40.6103 96.904 40.664 96.904V104.904C42.0376 104.904 43.3835 104.522 44.5689 103.93L40.9911 96.7743ZM40.664 96.904C40.4758 96.904 40.322 96.904 40.1822 96.9027C40.0432 96.9015 39.9416 96.8992 39.8645 96.896C39.786 96.8927 39.7586 96.8895 39.7657 96.8903C39.7699 96.8907 39.8502 96.8995 39.9781 96.9314L38.0379 104.693C39.0058 104.935 40.1775 104.904 40.664 104.904V96.904ZM39.7925 96.8897C40.0144 96.9341 40.1374 96.9983 40.1541 97.0073C40.1699 97.0159 40.1025 96.9813 39.9552 96.855L34.7488 102.929C35.7165 103.758 36.8764 104.465 38.2235 104.734L39.7925 96.8897ZM39.752 96.692C39.4707 96.4811 39.2808 96.3211 39.1585 96.2124C39.0403 96.1074 38.9681 96.0352 38.8924 95.9596L33.2356 101.616C33.5034 101.884 34.0169 102.391 34.952 103.092L39.752 96.692ZM38.8924 95.9596C38.9367 96.0038 38.9409 96.0117 38.8639 95.925C38.8 95.8532 38.7161 95.757 38.5994 95.6228C38.373 95.3625 38.0589 95 37.6736 94.5665L31.6944 99.8815C32.0451 100.276 32.329 100.604 32.5626 100.872C32.6759 101.003 32.7875 101.131 32.8846 101.24C32.9686 101.334 33.0993 101.48 33.2356 101.616L38.8924 95.9596ZM37.5124 94.3956C36.6137 93.4968 35.9321 92.7927 35.4517 92.2802C34.9225 91.7158 34.7446 91.4967 34.756 91.512L28.356 96.312C28.8359 96.9519 30.0679 98.2647 31.8556 100.052L37.5124 94.3956ZM33.956 90.712C32.7033 89.7725 31.146 89.084 29.348 89.084V97.084C29.2804 97.084 29.2177 97.0775 29.1628 97.0672C29.1085 97.057 29.0695 97.0445 29.0475 97.0363C29.0049 97.0203 29.0418 97.0264 29.156 97.112L33.956 90.712ZM29.348 89.084C27.2103 89.084 25.5092 90.0699 24.3116 91.2676L29.9684 96.9244C30.0241 96.8687 29.9972 96.912 29.8727 96.9703C29.7341 97.0353 29.5475 97.084 29.348 97.084V89.084ZM24.3116 91.2676C22.7418 92.8373 21.3659 94.5275 20.1937 96.339L26.9103 100.685C27.7621 99.3685 28.7782 98.1147 29.9684 96.9244L24.3116 91.2676ZM20.4285 96.0132C20.0324 96.5084 19.3977 97.5534 18.7333 98.6574C17.9764 99.915 16.9326 101.678 15.6017 103.927L22.4863 108.001C23.8234 105.742 24.8496 104.009 25.5877 102.783C26.4183 101.403 26.7036 100.976 26.6755 101.011L20.4285 96.0132ZM15.6309 103.878C15.2327 104.53 14.686 104.997 13.4835 105.325L15.5885 113.043C18.434 112.267 20.8313 110.71 22.4571 108.05L15.6309 103.878ZM13.4835 105.325C12.1514 105.688 10.9163 105.675 9.67681 105.28L7.25118 112.904C10.0597 113.797 12.8726 113.784 15.5885 113.043L13.4835 105.325ZM9.51647 105.233C8.45269 104.943 8.02838 104.494 7.76715 104L0.696847 107.744C2.09162 110.378 4.42731 112.137 7.41153 112.951L9.51647 105.233ZM7.68711 103.857C6.98863 102.659 6.50663 100.58 6.83398 97.1432L-1.12998 96.3848C-1.53864 100.676 -1.10063 104.669 0.776884 107.887L7.68711 103.857ZM6.83818 97.0962C6.81881 97.3287 6.7416 97.4213 6.77856 97.3664C6.82027 97.3045 6.96188 97.1274 7.29295 96.8909L2.64305 90.3811C0.792724 91.7027 -0.910522 93.7479 -1.13418 96.4318L6.83818 97.0962ZM7.368 96.836C8.75629 95.7948 10.8025 94.3695 13.6514 92.4397L9.16461 85.8163C6.30946 87.7505 4.12371 89.2692 2.568 90.436L7.368 96.836ZM13.7018 92.4049C16.4016 90.5151 18.6436 88.957 20.0433 87.8573L15.1007 81.5667C13.9244 82.491 11.9344 83.8769 9.11415 85.8511L13.7018 92.4049ZM19.9247 87.9469C22.1263 86.3458 24.0206 84.6783 25.5503 82.93L19.5297 77.662C18.4834 78.8577 17.0657 80.1342 15.2193 81.4771L19.9247 87.9469ZM25.5503 82.93C27.3753 80.8443 28.4276 78.3728 29.0785 75.8777L21.3375 73.8583C20.8844 75.5952 20.2807 76.8037 19.5297 77.662L25.5503 82.93ZM29.1128 75.7357C29.6893 73.1412 29.3266 70.5287 27.5678 68.379L21.3762 73.4449C21.3868 73.458 21.3811 73.4533 21.3716 73.4334C21.362 73.413 21.3598 73.4004 21.361 73.4064C21.3631 73.4176 21.3945 73.5896 21.3033 74.0003L29.1128 75.7357ZM27.3004 68.0836C25.4035 66.1867 22.9128 65.4923 20.3058 65.6295L20.7262 73.6185C21.2033 73.5934 21.4479 73.6527 21.5396 73.6832C21.6115 73.7072 21.6267 73.7236 21.6436 73.7404L27.3004 68.0836ZM20.1838 65.6378C15.3941 66.037 12.1758 64.9616 10.0985 63.1286L4.80551 69.1273C8.98422 72.8144 14.5979 74.131 20.8482 73.6102L20.1838 65.6378ZM10.0127 63.0551C9.8211 62.8954 9.74996 62.7796 9.72762 62.7357C9.71084 62.7028 9.704 62.6804 9.704 62.632H1.704C1.704 65.3889 3.03191 67.6514 4.89126 69.2009L10.0127 63.0551ZM9.6638 62.0663C9.55649 61.3152 9.58807 58.943 9.96559 54.5072L1.99441 53.8288C1.63592 58.041 1.48351 61.3728 1.7442 63.1977L9.6638 62.0663ZM9.98 54.168C9.98 54.4809 9.92631 54.831 9.78591 55.1821C9.64364 55.5377 9.44779 55.8051 9.26843 55.9844L3.61157 50.3276C2.44439 51.4948 1.98 52.9026 1.98 54.168H9.98ZM9.63999 55.556C10.1497 54.8765 10.5465 54.1295 10.7867 53.4089L3.19726 50.8791C3.2157 50.8238 3.23103 50.7867 3.23959 50.767C3.24853 50.7465 3.25422 50.7357 3.25559 50.7331C3.25737 50.7298 3.25183 50.7402 3.24001 50.756L9.63999 55.556ZM10.7867 53.4089C11.1464 52.3298 11.0266 51.3513 10.9062 50.7795C10.7723 50.1433 10.5414 49.5625 10.2937 49.0671L3.13829 52.6449C3.16661 52.7015 3.11974 52.6267 3.0778 52.4275C3.05587 52.3234 3.0265 52.1435 3.0265 51.9039C3.0265 51.6693 3.05473 51.3067 3.19726 50.8791L10.7867 53.4089ZM9.04095 54.1109L9.68495 53.6509L5.03505 47.1411L4.39105 47.6011L9.04095 54.1109ZM9.57883 53.7242C9.46488 53.8001 9.38701 53.8329 9.41771 53.819C9.425 53.8156 9.43656 53.8105 9.45715 53.8015C9.46752 53.797 9.47861 53.7921 9.4928 53.786C9.50571 53.7804 9.52336 53.7727 9.54051 53.7652C9.57449 53.7504 9.62387 53.7288 9.67806 53.7042C9.73249 53.6794 9.80421 53.646 9.88483 53.6057L6.30717 46.4503C6.36463 46.4215 6.39882 46.4077 6.34386 46.4316C6.31608 46.4438 6.208 46.4903 6.10729 46.536C5.88499 46.6371 5.53112 46.8078 5.14117 47.0678L9.57883 53.7242ZM9.88484 53.6057C9.76381 53.6662 9.66418 53.7038 9.56738 53.7328C9.51306 53.7491 9.42693 53.7725 9.31227 53.7936C9.20821 53.8128 9.00701 53.844 8.74 53.844V45.844C7.6497 45.844 6.71757 46.2451 6.30716 46.4503L9.88484 53.6057ZM8.74 53.844C8.9814 53.844 9.73219 53.8165 10.5395 53.7968C11.4557 53.7745 12.7337 53.752 14.352 53.752V45.752C12.6583 45.752 11.3143 45.7755 10.3445 45.7992C9.86026 45.811 9.47064 45.8228 9.18521 45.8315C9.04013 45.8359 8.93 45.8392 8.84452 45.8415C8.74743 45.844 8.72617 45.844 8.74 45.844V53.844ZM18.352 49.752V49.568H10.352V49.752H18.352ZM173.144 52.42H169.144V56.42H173.144V52.42ZM179.584 53.064L176.756 55.8924L176.756 55.8924L179.584 53.064ZM180.228 53.892L184.227 53.8179L184.211 52.9128L183.806 52.1031L180.228 53.892ZM180.136 64.84L184.058 65.6245L184.104 65.3936L184.123 65.159L180.136 64.84ZM179.124 66.956L176.296 64.1276L176.296 64.1276L179.124 66.956ZM177.56 68.152L178.825 71.9467L178.936 71.9096L179.046 71.8659L177.56 68.152ZM175.352 68.796L174.568 64.8737L174.207 64.9457L173.866 65.0821L175.352 68.796ZM173.144 69.348L172.428 65.4125L172.3 65.4358L172.174 65.4674L173.144 69.348ZM170.476 70.084L171.446 73.9646L171.446 73.9646L170.476 70.084ZM168.36 70.82L166.784 67.1434L166.676 67.1897L166.571 67.2423L168.36 70.82ZM167.348 72.292L171.093 73.6965L171.093 73.6965L167.348 72.292ZM167.808 86.644L171.801 86.4091L171.797 86.3338L171.789 86.2587L167.808 86.644ZM170.016 89.128L170.8 85.2057L170.544 85.1543L170.282 85.1369L170.016 89.128ZM174.34 89.772L175.088 85.8426L174.997 85.8253L174.906 85.8122L174.34 89.772ZM178.756 90.324L179.296 86.3607L179.027 86.324H178.756V90.324ZM181.516 93.452L177.536 93.054L177.516 93.2525V93.452H181.516ZM181.332 95.752L185.322 96.037L185.322 96.037L181.332 95.752ZM181.148 98.512L185.094 99.1696L185.148 98.843V98.512H181.148ZM180.688 100.628L176.766 99.8435L176.766 99.8435L180.688 100.628ZM180.044 102.928L183.622 104.717L183.788 104.384L183.89 104.027L180.044 102.928ZM178.848 104.216L181.067 107.544L181.067 107.544L178.848 104.216ZM176.548 105.412L175.181 101.653L175.035 101.706L174.893 101.771L176.548 105.412ZM174.708 106.24L176.497 109.818L176.497 109.818L174.708 106.24ZM173.236 106.608V102.608H172.952L172.67 102.648L173.236 106.608ZM172.04 106.792V102.792H171.391L170.775 102.997L172.04 106.792ZM169.096 111.484L173.089 111.256L173.087 111.216L173.084 111.177L169.096 111.484ZM168.452 117.832L164.94 115.917L164.906 115.979L164.874 116.043L168.452 117.832ZM163.76 120.868L162.415 117.101L162.273 117.152L162.135 117.213L163.76 120.868ZM161.184 121.696L161.968 125.618L161.968 125.618L161.184 121.696ZM157.688 122.34L158.184 126.309L158.184 126.309L157.688 122.34ZM155.02 122.708V118.708H154.648L154.283 118.777L155.02 122.708ZM152.628 120.5L156.606 120.081L156.593 119.961L156.574 119.842L152.628 120.5ZM151.708 113.048L155.677 112.552L155.677 112.552L151.708 113.048ZM150.604 102.928L146.614 103.216L146.615 103.225L146.616 103.235L150.604 102.928ZM149.316 75.972L153.315 75.8904L153.314 75.8479L153.313 75.8055L149.316 75.972ZM149.592 56.56L153.591 56.6634L153.592 56.6117V56.56H149.592ZM150.052 46.624L154.043 46.8961L154.052 46.7602V46.624H150.052ZM150.696 44.324L147.223 42.3394L147.168 42.4358L147.118 42.5352L150.696 44.324ZM152.352 42.208L155.18 45.0364L155.275 44.9423L155.362 44.842L152.352 42.208ZM153.732 40.46L152.762 36.5794L151.384 36.9239L150.532 38.06L153.732 40.46ZM154.744 40.368V44.368H154.78L154.817 44.3673L154.744 40.368ZM162.84 40.184V44.184H163.146L163.448 44.1375L162.84 40.184ZM165.324 40.46L168.152 37.6316L167.996 37.4749L167.823 37.3365L165.324 40.46ZM165.968 42.944H161.968V43.0129L161.97 43.0819L165.968 42.944ZM166.06 50.212L170.036 50.6537L170.06 50.4335V50.212H166.06ZM166.428 51.96L169.628 49.56L169.457 49.3326L169.256 49.1316L166.428 51.96ZM167.992 52.328V48.328H167.743L167.496 48.3589L167.992 52.328ZM173.144 52.328H177.144V48.328H173.144V52.328ZM112.792 91.52H108.792V95.1399L112.394 95.5001L112.792 91.52ZM123.004 92.164L123.446 88.1885L123.226 88.164H123.004V92.164ZM125.856 92.348L126.188 88.3618L126.022 88.348H125.856V92.348ZM133.4 91.888L132.584 87.9721L132.507 87.9882L132.43 88.0074L133.4 91.888ZM140.576 93.912L143.404 91.0836L143.17 90.8495L142.901 90.6571L140.576 93.912ZM141.312 95.108L137.517 96.3729L137.517 96.3729L141.312 95.108ZM141.496 96.58L137.615 95.6099L137.561 95.8282L137.531 96.0513L141.496 96.58ZM140.852 99.892L136.947 99.0243L136.938 99.0658L136.93 99.1075L140.852 99.892ZM140.392 101.732L143.97 103.521L144.166 103.128L144.273 102.702L140.392 101.732ZM139.288 104.032L142.92 105.708L142.92 105.708L139.288 104.032ZM137.908 106.884L134.33 105.095L134.308 105.14L134.286 105.186L137.908 106.884ZM131.284 111.668L131.042 107.675L130.997 107.678L130.952 107.682L131.284 111.668ZM122.82 112.772L123.444 116.723L123.452 116.722L123.46 116.72L122.82 112.772ZM115.184 113.692L114.962 109.698L114.852 109.704L114.742 109.716L115.184 113.692ZM106.72 113.692L106.425 117.681L106.481 117.685L106.538 117.688L106.72 113.692ZM99.452 112.496L100.492 108.634L100.416 108.613L100.338 108.595L99.452 112.496ZM96.232 108.172L100.229 108.018L100.227 107.962L100.223 107.906L96.232 108.172ZM95.956 102.468L99.953 102.314L99.9501 102.238L99.9442 102.161L95.956 102.468ZM95.588 95.752L99.5839 95.5704L99.5839 95.5704L95.588 95.752ZM95.496 89.956H99.496V89.9152L99.4952 89.8744L95.496 89.956ZM95.496 63L99.4952 63.0816L99.496 63.0408V63H95.496ZM96.784 56.376L100.535 57.7653L100.546 57.7363L100.556 57.7073L96.784 56.376ZM98.992 53.156L96.934 49.726L96.934 49.726L98.992 53.156ZM103.408 52.052L103.77 56.0356L103.788 56.0339L103.806 56.0321L103.408 52.052ZM108.008 52.052L107.841 56.0485L107.925 56.052H108.008V52.052ZM108.836 52.42L107.047 55.9977L107.047 55.9977L108.836 52.42ZM109.572 52.788L111.361 49.2103L110.516 48.788H109.572V52.788ZM113.252 53.8L116.08 50.9716L115.924 50.8149L115.751 50.6765L113.252 53.8ZM114.264 56.1L110.383 57.0701L110.391 57.1005L110.399 57.1306L114.264 56.1ZM114.632 64.84L118.585 65.4482L118.609 65.2982L118.62 65.1468L114.632 64.84ZM113.988 69.348L117.944 69.9414L117.944 69.9414L113.988 69.348ZM113.528 73.58L117.497 74.0761L117.528 73.829V73.58H113.528ZM113.068 82.964L117.065 83.1177L117.067 83.0793L117.067 83.0409L113.068 82.964ZM173.144 56.42C174.668 56.42 175.875 56.4424 176.757 56.4647C177.542 56.4846 178.279 56.512 178.572 56.512V48.512C178.574 48.512 178.564 48.512 178.538 48.5115C178.512 48.5111 178.479 48.5104 178.435 48.5093C178.346 48.5071 178.234 48.5038 178.09 48.4994C177.807 48.4909 177.426 48.4791 176.96 48.4673C176.025 48.4436 174.748 48.42 173.144 48.42V56.42ZM178.572 56.512C177.86 56.512 177.369 56.2903 177.161 56.1794C176.925 56.0532 176.797 55.9341 176.756 55.8924L182.412 50.2356C181.737 49.5604 180.404 48.512 178.572 48.512V56.512ZM176.756 55.8924C176.823 55.9597 176.833 55.9786 176.81 55.947C176.786 55.9152 176.723 55.8269 176.65 55.6809L183.806 52.1031C183.478 51.4482 183.008 50.8308 182.412 50.2356L176.756 55.8924ZM176.229 53.9661C176.321 58.9652 176.314 62.4493 176.149 64.521L184.123 65.159C184.326 62.6307 184.319 58.7548 184.227 53.8179L176.229 53.9661ZM176.214 64.0555C176.187 64.1872 176.166 64.2693 176.151 64.3165C176.137 64.3619 176.133 64.3666 176.143 64.3445C176.155 64.3201 176.176 64.2795 176.209 64.2322C176.242 64.1847 176.274 64.1491 176.296 64.1276L181.952 69.7844C183.259 68.4778 183.785 66.9926 184.058 65.6245L176.214 64.0555ZM176.296 64.1276C176.089 64.3344 175.937 64.4677 175.842 64.542C175.797 64.577 175.788 64.5812 175.811 64.5666C175.831 64.5542 175.921 64.4994 176.074 64.4381L179.046 71.8659C180.337 71.3493 181.391 70.346 181.952 69.7844L176.296 64.1276ZM176.295 64.3573C175.605 64.5874 175.177 64.7518 174.568 64.8737L176.136 72.7183C177.367 72.4722 178.411 72.0846 178.825 71.9467L176.295 64.3573ZM173.866 65.0821C173.868 65.0816 173.759 65.1229 173.485 65.1914C173.225 65.2565 172.877 65.331 172.428 65.4125L173.86 73.2835C174.917 73.0912 175.984 72.8512 176.838 72.5099L173.866 65.0821ZM172.174 65.4674C171.547 65.6241 171.006 65.7792 170.56 65.9082C170.088 66.0448 169.784 66.1338 169.506 66.2034L171.446 73.9646C171.904 73.8502 172.382 73.7092 172.784 73.5928C173.212 73.4688 173.637 73.3479 174.114 73.2286L172.174 65.4674ZM169.506 66.2034C168.488 66.4579 167.538 66.8206 166.784 67.1434L169.936 74.4966C170.47 74.2674 170.992 74.0781 171.446 73.9646L169.506 66.2034ZM166.571 67.2423C165.518 67.7688 164.866 68.5803 164.515 69.0957C164.119 69.6752 163.823 70.2998 163.603 70.8875L171.093 73.6965C171.149 73.5482 171.175 73.5288 171.124 73.6023C171.097 73.6425 171.023 73.7448 170.891 73.8751C170.764 74.0002 170.522 74.2113 170.149 74.3977L166.571 67.2423ZM163.603 70.8875C163.132 72.142 162.98 73.3646 162.98 74.316H170.98C170.98 74.2553 170.986 74.1533 171.006 74.0306C171.026 73.9088 171.057 73.7943 171.093 73.6965L163.603 70.8875ZM162.98 74.316C162.98 77.0092 163.274 81.3159 163.827 87.0293L171.789 86.2587C171.238 80.5641 170.98 76.5908 170.98 74.316H162.98ZM163.815 86.8789C163.892 88.1947 164.27 89.7804 165.439 91.0955C166.669 92.4783 168.287 93.0216 169.75 93.1191L170.282 85.1369C170.307 85.1385 170.466 85.1523 170.697 85.2527C170.942 85.3595 171.201 85.5353 171.419 85.7805C171.852 86.2676 171.816 86.6573 171.801 86.4091L163.815 86.8789ZM169.232 93.0503C170.297 93.2634 171.989 93.4767 173.774 93.7318L174.906 85.8122C172.827 85.5153 171.575 85.3606 170.8 85.2057L169.232 93.0503ZM173.592 93.7014C175.586 94.0812 177.357 94.324 178.756 94.324V86.324C178.131 86.324 176.958 86.1988 175.088 85.8426L173.592 93.7014ZM178.216 94.2873C178.741 94.3589 178.401 94.4384 177.974 93.959C177.755 93.7121 177.629 93.4399 177.573 93.2216C177.523 93.027 177.546 92.949 177.536 93.054L185.496 93.85C185.661 92.2017 185.379 90.2472 183.954 88.644C182.607 87.1296 180.795 86.5651 179.296 86.3607L178.216 94.2873ZM177.516 93.452C177.516 93.3495 177.522 93.3096 177.513 93.4331C177.505 93.5313 177.493 93.6617 177.475 93.8604C177.44 94.2432 177.391 94.7818 177.342 95.467L185.322 96.037C185.365 95.4342 185.408 94.9608 185.442 94.5846C185.459 94.4038 185.475 94.218 185.488 94.0603C185.498 93.9279 185.516 93.6925 185.516 93.452H177.516ZM177.342 95.467C177.266 96.5265 177.148 97.7707 177.148 98.512H185.148C185.148 98.1493 185.214 97.5535 185.322 96.037L177.342 95.467ZM177.202 97.8544C177.181 97.9817 177.143 98.1537 177.057 98.5231C176.979 98.8601 176.872 99.3115 176.766 99.8435L184.61 101.412C184.688 101.025 184.766 100.694 184.848 100.341C184.923 100.02 185.023 99.5943 185.094 99.1696L177.202 97.8544ZM176.766 99.8435C176.709 100.128 176.633 100.406 176.538 100.721C176.488 100.886 176.44 101.039 176.38 101.228C176.325 101.404 176.259 101.614 176.198 101.829L183.89 104.027C183.964 103.77 184.387 102.528 184.61 101.412L176.766 99.8435ZM176.466 101.139C176.478 101.116 176.5 101.076 176.534 101.027C176.568 100.978 176.606 100.932 176.641 100.895C176.712 100.82 176.737 100.816 176.629 100.888L181.067 107.544C182.034 106.899 182.957 106.047 183.622 104.717L176.466 101.139ZM176.629 100.888C176.187 101.183 175.757 101.443 175.181 101.653L177.915 109.171C179.363 108.645 180.405 107.985 181.067 107.544L176.629 100.888ZM174.893 101.771C174.403 101.993 174.003 102.171 173.693 102.309C173.541 102.376 173.401 102.439 173.287 102.49C173.192 102.533 173.047 102.598 172.919 102.662L176.497 109.818C176.461 109.836 176.466 109.832 176.574 109.783C176.665 109.742 176.783 109.69 176.942 109.619C177.253 109.481 177.681 109.291 178.203 109.053L174.893 101.771ZM172.919 102.662C172.856 102.694 172.893 102.671 172.977 102.647C173.019 102.635 173.066 102.624 173.115 102.617C173.164 102.61 173.205 102.608 173.236 102.608V110.608C174.731 110.608 175.824 110.154 176.497 109.818L172.919 102.662ZM172.67 102.648C172.271 102.705 171.951 102.763 171.77 102.795C171.667 102.814 171.645 102.817 171.648 102.816C171.655 102.815 171.691 102.81 171.747 102.805C171.8 102.8 171.904 102.792 172.04 102.792V110.792C172.375 110.792 172.656 110.754 172.78 110.736C172.924 110.715 173.069 110.69 173.161 110.674C173.371 110.637 173.557 110.603 173.802 110.568L172.67 102.648ZM170.775 102.997C169.004 103.588 167.354 104.657 166.268 106.415C165.207 108.133 164.973 110.043 165.108 111.791L173.084 111.177C173.035 110.533 173.169 110.465 173.074 110.619C173.055 110.649 173.034 110.677 173.012 110.7C172.991 110.723 172.978 110.732 172.981 110.73C172.987 110.726 173.074 110.664 173.305 110.587L170.775 102.997ZM165.103 111.712C165.186 113.175 165.158 114.277 165.073 115.054C164.98 115.909 164.849 116.085 164.94 115.917L171.964 119.747C172.607 118.567 172.89 117.179 173.027 115.918C173.172 114.579 173.19 113.013 173.089 111.256L165.103 111.712ZM164.874 116.043C165.041 115.71 165.157 115.76 164.692 116.061C164.259 116.341 163.534 116.701 162.415 117.101L165.105 124.635C166.562 124.115 167.907 123.509 169.038 122.777C170.137 122.066 171.311 121.058 172.03 119.621L164.874 116.043ZM162.135 117.213C161.548 117.474 161.001 117.653 160.4 117.774L161.968 125.618C163.207 125.371 164.316 124.998 165.385 124.523L162.135 117.213ZM160.4 117.774C159.288 117.996 158.471 118.211 157.192 118.371L158.184 126.309C159.849 126.101 161.24 125.764 161.968 125.618L160.4 117.774ZM157.192 118.371C156.384 118.472 155.751 118.573 155.316 118.642C155.087 118.678 154.954 118.699 154.861 118.711C154.74 118.727 154.836 118.708 155.02 118.708V126.708C155.388 126.708 155.725 126.666 155.909 126.642C156.121 126.614 156.356 126.577 156.564 126.544C157.003 126.475 157.52 126.392 158.184 126.309L157.192 118.371ZM154.283 118.777C154.284 118.776 154.336 118.766 154.431 118.765C154.526 118.763 154.674 118.77 154.859 118.808C155.266 118.892 155.711 119.1 156.082 119.45C156.428 119.775 156.569 120.088 156.612 120.202C156.651 120.305 156.628 120.29 156.606 120.081L148.65 120.919C148.777 122.122 149.161 123.922 150.6 125.276C152.247 126.827 154.283 126.916 155.757 126.639L154.283 118.777ZM156.574 119.842C156.574 119.845 156.572 119.832 156.567 119.798C156.562 119.766 156.556 119.724 156.549 119.668C156.534 119.557 156.515 119.412 156.492 119.228C156.446 118.859 156.387 118.368 156.312 117.745C156.162 116.503 155.954 114.77 155.677 112.552L147.739 113.544C148.271 117.801 148.573 120.501 148.682 121.158L156.574 119.842ZM155.677 112.552C155.126 108.145 154.768 104.913 154.592 102.621L146.616 103.235C146.808 105.727 147.186 109.119 147.739 113.544L155.677 112.552ZM154.594 102.64C153.954 93.7718 153.498 84.8257 153.315 75.8904L145.317 76.0536C145.502 85.1503 145.966 94.2362 146.614 103.216L154.594 102.64ZM153.313 75.8055C153.228 73.7666 153.313 67.4017 153.591 56.6634L145.593 56.4566C145.319 67.0623 145.22 73.7614 145.319 76.1385L153.313 75.8055ZM153.592 56.56C153.592 54.1358 153.767 50.9474 154.043 46.8961L146.061 46.3519C145.785 50.3966 145.592 53.8322 145.592 56.56H153.592ZM154.052 46.624C154.052 46.7136 154.01 46.6396 154.274 46.1128L147.118 42.5352C146.646 43.4804 146.052 44.8784 146.052 46.624H154.052ZM154.169 46.3086C154.344 46.003 154.67 45.5465 155.18 45.0364L149.524 39.3796C148.562 40.3415 147.784 41.357 147.223 42.3394L154.169 46.3086ZM155.362 44.842C156.132 43.9627 156.705 43.1629 156.932 42.86L150.532 38.06C150.207 38.4931 149.86 38.9813 149.342 39.574L155.362 44.842ZM153.732 40.46C154.702 44.3406 154.701 44.3408 154.701 44.341C154.7 44.341 154.7 44.3412 154.699 44.3413C154.698 44.3416 154.697 44.3419 154.696 44.3421C154.694 44.3426 154.692 44.3431 154.69 44.3436C154.686 44.3446 154.682 44.3456 154.678 44.3465C154.67 44.3484 154.663 44.3501 154.656 44.3518C154.642 44.3552 154.629 44.3582 154.617 44.3608C154.593 44.3661 154.574 44.3699 154.56 44.3727C154.531 44.3783 154.52 44.3796 154.525 44.3789C154.536 44.3774 154.612 44.368 154.744 44.368V36.368C154.232 36.368 153.802 36.4046 153.468 36.4491C153.301 36.4713 153.158 36.4957 153.039 36.5185C152.98 36.5299 152.928 36.541 152.881 36.5513C152.858 36.5564 152.837 36.5614 152.817 36.5661C152.807 36.5685 152.797 36.5707 152.788 36.573C152.783 36.5741 152.779 36.5752 152.775 36.5762C152.772 36.5768 152.77 36.5773 152.768 36.5778C152.767 36.5781 152.766 36.5784 152.765 36.5786C152.764 36.5788 152.764 36.579 152.763 36.579C152.763 36.5792 152.762 36.5794 153.732 40.46ZM154.817 44.3673C157.359 44.3211 159.301 44.2749 160.654 44.2402C161.329 44.2229 161.861 44.2084 162.237 44.1984C162.427 44.1934 162.575 44.1896 162.685 44.1871C162.81 44.1842 162.847 44.184 162.84 44.184V36.184C162.44 36.184 159.587 36.2793 154.671 36.3687L154.817 44.3673ZM163.448 44.1375C163.841 44.0771 163.97 44.0965 163.916 44.0905C163.875 44.086 163.383 44.0299 162.825 43.5835L167.823 37.3365C166.805 36.5221 165.669 36.236 164.8 36.1395C163.918 36.0415 163.035 36.1069 162.232 36.2305L163.448 44.1375ZM162.496 43.2884C162.241 43.0335 162.099 42.7995 162.03 42.6655C161.958 42.5272 161.933 42.4389 161.93 42.4276C161.926 42.4127 161.968 42.5678 161.968 42.944H169.968C169.968 42.0322 169.872 41.1293 169.638 40.2864C169.418 39.494 168.998 38.4773 168.152 37.6316L162.496 43.2884ZM161.97 43.0819C162.06 45.672 162.06 47.9996 162.06 50.212H170.06C170.06 48.0084 170.06 45.552 169.966 42.8061L161.97 43.0819ZM162.084 49.7702C161.963 50.8658 161.874 53.0626 163.6 54.7884L169.256 49.1316C169.717 49.5925 169.922 50.1166 169.994 50.474C170.05 50.7548 170.012 50.8683 170.036 50.6537L162.084 49.7702ZM163.228 54.36C164.943 56.6466 167.652 56.4016 168.488 56.2971L167.496 48.3589C167.364 48.3754 167.54 48.3323 167.887 48.4078C168.284 48.4941 169.039 48.7746 169.628 49.56L163.228 54.36ZM167.992 56.328H173.144V48.328H167.992V56.328ZM169.144 52.328V52.42H177.144V52.328H169.144ZM112.394 95.5001C117.062 95.9669 120.611 96.164 123.004 96.164V88.164C120.981 88.164 117.722 87.9931 113.19 87.5399L112.394 95.5001ZM122.562 96.1395C123.428 96.2357 124.525 96.348 125.856 96.348V88.348C124.979 88.348 124.236 88.2763 123.446 88.1885L122.562 96.1395ZM125.524 96.3342C126.354 96.4033 127.476 96.532 128.248 96.532V88.532C127.916 88.532 127.566 88.4767 126.188 88.3618L125.524 96.3342ZM128.248 96.532C128.83 96.532 129.637 96.5327 130.762 96.4201L129.966 88.4599C129.251 88.5313 128.77 88.532 128.248 88.532V96.532ZM130.762 96.4201C131.913 96.3051 133.119 96.0813 134.37 95.7686L132.43 88.0074C131.473 88.2467 130.655 88.3909 129.966 88.4599L130.762 96.4201ZM134.216 95.8039C134.99 95.6426 136.256 95.7418 138.251 97.1669L142.901 90.6571C139.744 88.4022 136.226 87.2134 132.584 87.9721L134.216 95.8039ZM137.748 96.7404C137.725 96.7176 137.674 96.6621 137.62 96.5795C137.566 96.4951 137.533 96.4203 137.517 96.3729L145.107 93.8431C144.692 92.5989 144.036 91.7148 143.404 91.0836L137.748 96.7404ZM137.517 96.3729C137.551 96.4742 137.551 96.5031 137.544 96.4535C137.54 96.425 137.531 96.3444 137.532 96.2211C137.534 96.1032 137.546 95.8872 137.615 95.6099L145.377 97.5501C145.762 96.0087 145.332 94.5204 145.107 93.8431L137.517 96.3729ZM137.531 96.0513C137.376 97.2144 137.153 98.0996 136.947 99.0243L144.757 100.76C144.919 100.028 145.248 98.7056 145.461 97.1087L137.531 96.0513ZM136.93 99.1075C136.859 99.4626 136.789 99.7433 136.725 99.9791C136.692 100.104 136.661 100.212 136.625 100.338C136.594 100.45 136.55 100.606 136.511 100.762L144.273 102.702C144.278 102.679 144.573 101.685 144.774 100.676L136.93 99.1075ZM136.814 99.9432C136.621 100.33 136.232 101.107 135.656 102.356L142.92 105.708C143.448 104.565 143.795 103.87 143.97 103.521L136.814 99.9432ZM135.656 102.356C135.132 103.491 134.696 104.363 134.33 105.095L141.486 108.673C141.856 107.933 142.34 106.965 142.92 105.708L135.656 102.356ZM134.286 105.186C133.437 106.998 132.414 107.592 131.042 107.675L131.526 115.661C136.226 115.376 139.619 112.658 141.53 108.582L134.286 105.186ZM130.952 107.682C128.605 107.877 125.643 108.262 122.18 108.824L123.46 116.72C126.805 116.178 129.547 115.827 131.616 115.654L130.952 107.682ZM122.196 108.821C118.765 109.363 116.429 109.617 114.962 109.698L115.406 117.686C117.251 117.583 119.883 117.285 123.444 116.723L122.196 108.821ZM114.742 109.716C113.43 109.862 110.952 109.88 106.902 109.696L106.538 117.688C110.584 117.872 113.626 117.89 115.626 117.668L114.742 109.716ZM107.015 109.703C104.739 109.534 102.601 109.201 100.492 108.634L98.4121 116.358C101.087 117.079 103.733 117.482 106.425 117.681L107.015 109.703ZM100.338 108.595C100.207 108.566 100.177 108.539 100.206 108.557C100.241 108.579 100.288 108.619 100.324 108.667C100.396 108.764 100.253 108.652 100.229 108.018L92.235 108.326C92.3026 110.084 92.7578 111.904 93.9114 113.45C95.1011 115.045 96.7651 115.987 98.5655 116.397L100.338 108.595ZM100.223 107.906C100.135 106.583 100.045 104.696 99.953 102.314L91.959 102.622C92.0514 105.024 92.1451 107.001 92.2409 108.438L100.223 107.906ZM99.9442 102.161C99.7662 99.8473 99.6772 97.624 99.5839 95.5704L91.5921 95.9336C91.6828 97.928 91.7778 100.305 91.9678 102.775L99.9442 102.161ZM99.5839 95.5704C99.4966 93.6508 99.496 91.8068 99.496 89.956H91.496C91.496 91.7852 91.4954 93.8052 91.5921 95.9336L99.5839 95.5704ZM99.4952 89.8744C99.3123 80.9128 99.3123 72.0432 99.4952 63.0816L91.4968 62.9184C91.3117 71.9888 91.3117 80.9672 91.4968 90.0376L99.4952 89.8744ZM99.496 63C99.496 61.5845 99.7643 59.8461 100.535 57.7653L93.033 54.9867C91.9637 57.8739 91.496 60.5515 91.496 63H99.496ZM100.556 57.7073C100.75 57.1584 100.931 56.822 101.056 56.6377C101.18 56.4557 101.198 56.4973 101.05 56.586L96.934 49.726C94.8444 50.9798 93.6899 53.1242 93.012 55.0447L100.556 57.7073ZM101.05 56.586C101.048 56.5871 101.098 56.5573 101.221 56.5099C101.344 56.4629 101.518 56.406 101.756 56.3466C102.238 56.226 102.899 56.1148 103.77 56.0356L103.046 48.0684C100.866 48.2666 98.6501 48.6964 96.934 49.726L101.05 56.586ZM103.806 56.0321C104.416 55.9712 105.635 55.9566 107.841 56.0485L108.175 48.0555C105.965 47.9634 104.24 47.9488 103.01 48.0718L103.806 56.0321ZM108.008 56.052C107.702 56.052 107.448 56.0143 107.266 55.9762C107.082 55.938 106.937 55.8925 106.842 55.8591C106.745 55.8252 106.673 55.7946 106.633 55.7769C106.592 55.7588 106.567 55.7462 106.564 55.7447C106.561 55.7431 106.567 55.7462 106.591 55.7587C106.616 55.772 106.642 55.7861 106.688 55.8108C106.77 55.8543 106.9 55.924 107.047 55.9977L110.625 48.8423C110.588 48.824 110.546 48.8017 110.466 48.759C110.406 48.7269 110.273 48.6549 110.142 48.5893C110.014 48.5251 109.776 48.4103 109.485 48.3082C109.212 48.2128 108.683 48.052 108.008 48.052V56.052ZM107.047 55.9977C107.146 56.0471 107.182 56.07 107.392 56.1846C107.459 56.221 107.629 56.3141 107.824 56.4018C107.923 56.4469 108.101 56.5234 108.325 56.5941C108.505 56.6511 108.968 56.788 109.572 56.788V48.788C109.888 48.788 110.145 48.8261 110.316 48.8594C110.492 48.8936 110.635 48.9342 110.734 48.9654C110.923 49.0253 111.061 49.0859 111.116 49.1109C111.222 49.1584 111.283 49.194 111.223 49.1614C111.18 49.138 110.894 48.9769 110.625 48.8423L107.047 55.9977ZM107.783 56.3657C108.824 56.8863 109.917 57.248 111.044 57.248V49.248C111.347 49.248 111.537 49.2977 111.579 49.3099C111.622 49.3222 111.556 49.3077 111.361 49.2103L107.783 56.3657ZM111.044 57.248C111.324 57.248 111.419 57.2752 111.385 57.2666C111.349 57.2577 111.082 57.1865 110.753 56.9235L115.751 50.6765C114.228 49.4583 112.374 49.248 111.044 49.248V57.248ZM110.424 56.6284C110.325 56.5294 110.255 56.4444 110.21 56.3865C110.166 56.3278 110.137 56.284 110.123 56.2613C110.098 56.2195 110.104 56.2228 110.133 56.2886C110.193 56.4241 110.286 56.6822 110.383 57.0701L118.145 55.1299C117.966 54.4138 117.737 53.7059 117.452 53.0594C117.196 52.4794 116.772 51.6634 116.08 50.9716L110.424 56.6284ZM110.399 57.1306C110.667 58.1349 110.816 59.2565 110.816 60.608H118.816C118.816 58.6475 118.597 56.8251 118.129 55.0693L110.399 57.1306ZM110.816 60.608C110.816 62.1123 110.733 63.374 110.644 64.5332L118.62 65.1468C118.715 63.914 118.816 62.4157 118.816 60.608H110.816ZM110.679 64.2318C110.521 65.2586 110.262 67.223 110.032 68.7546L117.944 69.9414C118.266 67.793 118.375 66.8134 118.585 65.4482L110.679 64.2318ZM110.032 68.7546C109.767 70.5244 109.528 72.2133 109.528 73.58H117.528C117.528 72.9226 117.657 71.8516 117.944 69.9414L110.032 68.7546ZM109.559 73.0839C109.347 74.782 109.161 78.0927 109.069 82.8871L117.067 83.0409C117.159 78.2673 117.341 75.322 117.497 74.0761L109.559 73.0839ZM109.071 82.8103C108.889 87.5525 108.792 90.5028 108.792 91.52H116.792C116.792 90.6972 116.879 87.9435 117.065 83.1177L109.071 82.8103Z" fill="#564141"/>
<path d="M241.334 57.744C239.929 63.7284 236.198 67.7641 230.077 69.8345C229.5 70.0111 229.12 70.4394 228.798 71.1481C228.525 71.6714 228.231 72.5203 227.793 73.6617C227.338 74.865 226.982 75.6973 226.71 76.2205C226.048 77.6998 224.782 78.2218 223.018 77.8817C220.388 77.3096 218.439 76.9197 217.202 76.5884C215.579 76.2196 214.684 75.8475 214.503 75.534C214.322 75.2204 214.526 74.2147 215.08 72.6406C215.229 72.0842 215.444 71.2805 215.681 70.1512C215.917 69.0219 216.132 68.2183 216.343 67.6785C216.84 65.8239 217.506 64.0808 218.312 62.3091C218.49 61.8929 218.915 61.543 219.666 61.2141C222.371 60.0176 224.153 59.3024 225.028 59.0067C226.306 58.6866 227.408 57.7892 228.316 56.3762C229.225 54.9633 229.651 53.6198 229.702 52.4408C229.688 50.5155 229.125 48.9071 228.121 47.7103C227.054 46.497 225.872 45.7164 224.496 45.4138C223.737 45.2768 223.057 45.0946 222.455 44.8672C221.837 44.7015 221.157 44.5193 220.382 44.4442C219.607 44.369 218.923 44.4507 218.267 44.6725C216.91 45.0378 216.184 45.7707 216.15 46.8879C216.116 47.0116 216.124 47.4774 216.066 48.1906C216.007 48.9037 215.998 49.4314 216.039 49.7736C215.959 50.8124 215.518 51.2242 214.619 51.1159C214.355 51.1115 213.378 51.0484 211.767 50.8816C210.076 50.76 208.852 50.6308 208.032 50.4773C207.459 50.39 206.998 50.1338 206.726 49.6635C206.438 49.2551 206.307 48.7561 206.332 48.1666C206.442 46.2744 206.513 44.7697 206.671 43.6857C206.829 42.6016 207.115 41.2869 207.608 39.6961C208.022 38.1507 208.65 36.7951 209.493 35.6294C211.26 32.9889 213.835 31.2935 217.138 30.5883C221.142 29.7398 224.712 29.7688 227.77 30.7206C230.395 31.5565 232.419 32.165 233.869 32.6862C234.594 32.9467 235.163 33.2979 235.653 33.6942C235.743 33.851 236.155 34.2926 236.798 34.8623C237.44 35.432 237.852 35.8736 238.066 36.0635C238.264 36.3152 238.613 36.7402 239.132 37.2768C239.651 37.8134 239.984 38.3002 240.227 38.6303C240.454 39.0222 240.725 39.4925 240.98 40.0247C241.235 40.5568 241.49 41.0889 241.605 41.6497C242.212 44.3301 242.505 47.1916 242.485 50.234C242.41 51.009 242.335 51.784 242.243 52.6207C242.089 53.4409 241.903 54.3848 241.7 55.3905C241.48 56.458 241.343 57.2164 241.334 57.744ZM212.992 81.4233C213.29 80.3106 213.517 79.709 213.831 79.5279C214.066 79.3922 214.779 79.4508 215.987 79.6418C216.358 79.7412 216.931 79.8285 217.829 79.9368C218.666 80.0285 219.301 80.1323 219.75 80.1864C220.863 80.4846 221.835 80.8114 222.729 81.1835C222.898 81.295 223.112 81.4849 223.294 81.7985C223.475 82.112 223.548 82.3306 223.515 82.4542C223.125 84.4037 222.695 86.0111 222.207 87.3379C222.124 87.647 221.856 87.9064 221.526 88.1493C221.134 88.3756 220.837 88.4948 220.589 88.4285C218.124 88.2318 215.894 87.8993 214.023 87.4642C213.327 87.3438 212.82 87.0093 212.548 86.539C212.215 86.0521 212.179 85.446 212.377 84.7042C212.411 84.5806 212.569 83.4965 212.992 81.4233Z" fill="#FED978"/>
<path d="M241.334 57.744L245.228 58.6581L245.326 58.2404L245.333 57.8113L241.334 57.744ZM230.077 69.8345L231.247 73.6596L231.303 73.6424L231.359 73.6236L230.077 69.8345ZM228.798 71.1481L232.345 72.9969L232.394 72.902L232.438 72.8045L228.798 71.1481ZM227.793 73.6617L224.059 72.2276L224.055 72.2374L224.051 72.2471L227.793 73.6617ZM226.71 76.2205L223.162 74.3718L223.107 74.4782L223.058 74.5878L226.71 76.2205ZM223.018 77.8817L222.168 81.7902L222.214 81.8003L222.26 81.8093L223.018 77.8817ZM217.202 76.5884L218.238 72.7247L218.163 72.7048L218.088 72.6878L217.202 76.5884ZM214.503 75.534L217.967 73.534L217.967 73.5339L214.503 75.534ZM215.08 72.6406L218.853 73.9691L218.904 73.8242L218.944 73.6758L215.08 72.6406ZM215.681 70.1512L219.596 70.9706L219.596 70.9706L215.681 70.1512ZM216.343 67.6785L220.069 69.1341L220.15 68.9277L220.207 68.7137L216.343 67.6785ZM218.312 62.3091L221.953 63.9654L221.972 63.9231L221.99 63.8804L218.312 62.3091ZM219.666 61.2141L221.271 64.8779L221.283 64.8724L219.666 61.2141ZM225.028 59.0067L224.056 55.1264L223.899 55.1657L223.746 55.2176L225.028 59.0067ZM228.316 56.3762L231.681 58.5398L231.681 58.5398L228.316 56.3762ZM229.702 52.4408L233.698 52.6133L233.703 52.5124L233.702 52.4113L229.702 52.4408ZM228.121 47.7103L231.184 45.1387L231.155 45.1039L231.125 45.0698L228.121 47.7103ZM224.496 45.4138L225.354 41.5071L225.281 41.4909L225.206 41.4775L224.496 45.4138ZM222.455 44.8672L223.87 41.1256L223.683 41.0551L223.491 41.0035L222.455 44.8672ZM220.382 44.4442L220.768 40.4628L220.768 40.4628L220.382 44.4442ZM218.267 44.6725L219.307 48.535L219.429 48.5021L219.549 48.4616L218.267 44.6725ZM216.15 46.8879L220.013 47.9232L220.133 47.4748L220.148 47.0107L216.15 46.8879ZM216.039 49.7736L220.027 50.0791L220.057 49.6887L220.011 49.2999L216.039 49.7736ZM214.619 51.1159L215.098 47.1446L214.893 47.1199L214.686 47.1165L214.619 51.1159ZM211.767 50.8816L212.178 46.9029L212.116 46.8964L212.054 46.8919L211.767 50.8816ZM208.032 50.4773L208.768 46.5455L208.701 46.5331L208.634 46.5229L208.032 50.4773ZM206.726 49.6635L210.19 47.6635L210.099 47.5064L209.995 47.3581L206.726 49.6635ZM206.332 48.1666L202.339 47.9356L202.337 47.9648L202.336 47.9941L206.332 48.1666ZM207.608 39.6961L211.429 40.8791L211.452 40.8057L211.472 40.7314L207.608 39.6961ZM209.493 35.6294L212.735 37.9723L212.777 37.9142L212.817 37.8546L209.493 35.6294ZM217.138 30.5883L216.309 26.6752L216.303 26.6765L217.138 30.5883ZM227.77 30.7206L228.984 26.9092L228.971 26.9052L228.959 26.9014L227.77 30.7206ZM233.869 32.6862L232.517 36.4505L232.517 36.4505L233.869 32.6862ZM235.653 33.6942L239.117 31.6942L238.746 31.051L238.168 30.584L235.653 33.6942ZM236.798 34.8623L234.144 37.8551L234.144 37.8551L236.798 34.8623ZM238.066 36.0635L241.212 33.5937L240.99 33.31L240.72 33.0707L238.066 36.0635ZM239.132 37.2768L236.257 40.0572L236.257 40.0573L239.132 37.2768ZM240.227 38.6303L243.691 36.6303L243.581 36.4385L243.449 36.26L240.227 38.6303ZM240.98 40.0247L244.587 38.2962L244.587 38.2962L240.98 40.0247ZM241.605 41.6497L237.686 42.4516L237.694 42.4925L237.703 42.5331L241.605 41.6497ZM242.485 50.234L246.466 50.62L246.484 50.4407L246.485 50.2605L242.485 50.234ZM242.243 52.6207L246.175 53.3566L246.203 53.2074L246.219 53.0565L242.243 52.6207ZM241.7 55.3905L245.617 56.1971L245.619 56.1899L245.62 56.1827L241.7 55.3905ZM212.992 81.4233L209.128 80.3881L209.097 80.505L209.072 80.6237L212.992 81.4233ZM213.831 79.5279L215.831 82.9921L215.831 82.992L213.831 79.5279ZM215.987 79.6418L217.022 75.7781L216.819 75.7238L216.612 75.691L215.987 79.6418ZM217.829 79.9368L217.351 83.908L217.372 83.9106L217.393 83.9129L217.829 79.9368ZM219.75 80.1864L220.785 76.3227L220.511 76.2491L220.228 76.2151L219.75 80.1864ZM222.729 81.1835L224.933 77.8455L224.617 77.6364L224.266 77.4905L222.729 81.1835ZM223.294 81.7985L226.758 79.7985L226.758 79.7985L223.294 81.7985ZM223.515 82.4542L219.652 81.4189L219.618 81.5435L219.593 81.6698L223.515 82.4542ZM222.207 87.3379L218.453 85.9571L218.39 86.1274L218.343 86.3027L222.207 87.3379ZM221.526 88.1493L223.526 91.6134L223.717 91.5026L223.896 91.3713L221.526 88.1493ZM220.589 88.4285L221.625 84.5648L221.272 84.4702L220.908 84.4412L220.589 88.4285ZM214.023 87.4642L214.929 83.5681L214.817 83.5422L214.704 83.5226L214.023 87.4642ZM212.548 86.539L216.013 84.539L215.936 84.4059L215.849 84.2792L212.548 86.539ZM237.44 56.83C236.366 61.4028 233.673 64.3955 228.795 66.0455L231.359 73.6236C238.722 71.1326 243.492 66.054 245.228 58.6581L237.44 56.83ZM228.907 66.0094C226.784 66.6588 225.716 68.2615 225.157 69.4917L232.438 72.8045C232.491 72.6893 232.444 72.8345 232.238 73.0508C231.99 73.3114 231.641 73.5391 231.247 73.6596L228.907 66.0094ZM225.25 69.2993C224.837 70.0918 224.395 71.3514 224.059 72.2276L231.527 75.0958C231.642 74.7962 231.747 74.5174 231.84 74.27C231.935 74.0172 232.015 73.805 232.089 73.6141C232.162 73.4233 232.22 73.2791 232.268 73.1668C232.291 73.112 232.31 73.071 232.323 73.041C232.33 73.0263 232.336 73.0154 232.339 73.0078C232.343 73.0002 232.345 72.9967 232.345 72.9969L225.25 69.2993ZM224.051 72.2471C223.609 73.4168 223.321 74.0673 223.162 74.3718L230.257 78.0693C230.643 77.3273 231.067 76.3131 231.534 75.0763L224.051 72.2471ZM223.058 74.5878C223.051 74.6028 223.087 74.5174 223.203 74.3956C223.325 74.2672 223.486 74.1515 223.665 74.0726C224.016 73.918 224.142 74.0248 223.775 73.954L222.26 81.8093C223.658 82.0787 225.299 82.0946 226.889 81.3942C228.558 80.6594 229.693 79.347 230.361 77.8532L223.058 74.5878ZM223.868 73.9731C221.107 73.3723 219.352 73.0232 218.238 72.7247L216.167 80.4521C217.526 80.8163 219.67 81.2469 222.168 81.7902L223.868 73.9731ZM218.088 72.6878C217.745 72.6097 217.463 72.5367 217.239 72.4714C217.01 72.405 216.866 72.3536 216.788 72.3227C216.694 72.2856 216.758 72.3021 216.904 72.3937C216.981 72.4421 217.125 72.5395 217.297 72.6958C217.462 72.8458 217.728 73.1191 217.967 73.534L211.039 77.5339C211.567 78.4481 212.306 78.9525 212.643 79.1646C213.057 79.4256 213.48 79.617 213.836 79.7582C214.554 80.0432 215.405 80.2821 216.316 80.4891L218.088 72.6878ZM217.967 73.5339C218.247 74.0177 218.35 74.4486 218.393 74.6894C218.437 74.9425 218.44 75.1338 218.439 75.2263C218.436 75.4014 218.415 75.4609 218.438 75.3444C218.482 75.1232 218.603 74.6795 218.853 73.9691L211.307 71.312C211.003 72.1758 210.744 73.0221 210.594 73.7756C210.519 74.1465 210.446 74.6146 210.44 75.1156C210.434 75.491 210.444 76.503 211.039 77.534L217.967 73.5339ZM218.944 73.6758C219.098 73.1011 219.336 72.2113 219.596 70.9706L211.765 69.3319C211.552 70.3498 211.36 71.0673 211.216 71.6053L218.944 73.6758ZM219.596 70.9706C219.822 69.8899 219.984 69.3527 220.069 69.1341L212.617 66.2228C212.281 67.0838 212.012 68.154 211.765 69.3319L219.596 70.9706ZM220.207 68.7137C220.633 67.1223 221.214 65.5904 221.953 63.9654L214.671 60.6527C213.798 62.5713 213.047 64.5255 212.48 66.6432L220.207 68.7137ZM221.99 63.8804C221.773 64.3889 221.467 64.6948 221.296 64.8335C221.148 64.9538 221.096 64.9544 221.271 64.8779L218.06 57.5503C217.02 58.0063 215.42 58.8957 214.634 60.7378L221.99 63.8804ZM221.283 64.8724C223.978 63.6807 225.619 63.0293 226.309 62.7957L223.746 55.2176C222.688 55.5756 220.765 56.3545 218.048 57.5557L221.283 64.8724ZM225.999 62.8869C228.547 62.2491 230.403 60.5273 231.681 58.5398L224.952 54.2127C224.413 55.0511 224.065 55.1242 224.056 55.1264L225.999 62.8869ZM231.681 58.5398C232.9 56.644 233.612 54.6235 233.698 52.6133L225.706 52.2684C225.691 52.6161 225.55 53.2826 224.952 54.2127L231.681 58.5398ZM233.702 52.4113C233.682 49.712 232.881 47.1594 231.184 45.1387L225.057 50.2819C225.37 50.6547 225.694 51.319 225.702 52.4703L233.702 52.4113ZM231.125 45.0698C229.639 43.3781 227.751 42.0338 225.354 41.5071L223.637 49.3205C223.994 49.399 224.47 49.6159 225.116 50.3508L231.125 45.0698ZM225.206 41.4775C224.642 41.3756 224.204 41.2519 223.87 41.1256L221.041 48.6087C221.91 48.9373 222.832 49.178 223.785 49.3501L225.206 41.4775ZM223.491 41.0035C222.895 40.8438 221.916 40.5741 220.768 40.4628L219.996 48.4255C220.399 48.4645 220.78 48.5593 221.42 48.7309L223.491 41.0035ZM220.768 40.4628C219.455 40.3355 218.2 40.4725 216.985 40.8834L219.549 48.4616C219.646 48.4289 219.76 48.4026 219.996 48.4255L220.768 40.4628ZM217.227 40.81C216.113 41.11 214.853 41.6638 213.834 42.7213C212.738 43.857 212.197 45.2884 212.151 46.7651L220.148 47.0107C220.143 47.1562 220.112 47.3754 220.01 47.6283C219.905 47.8855 219.755 48.1055 219.591 48.2753C219.282 48.5956 219.064 48.6003 219.307 48.535L217.227 40.81ZM212.286 45.8527C212.208 46.1432 212.178 46.3853 212.167 46.4798C212.152 46.6005 212.144 46.7064 212.14 46.7751C212.131 46.9062 212.125 47.0537 212.121 47.1457C212.111 47.363 212.101 47.5904 212.079 47.8632L220.052 48.518C220.088 48.0776 220.104 47.7155 220.113 47.4907C220.116 47.4329 220.118 47.3923 220.119 47.3577C220.121 47.3226 220.122 47.3106 220.122 47.3116C220.122 47.3131 220.121 47.3229 220.12 47.3389C220.118 47.3544 220.116 47.3828 220.111 47.4206C220.107 47.4569 220.099 47.5161 220.086 47.5905C220.074 47.6609 220.052 47.7784 220.013 47.9232L212.286 45.8527ZM212.079 47.8632C212.017 48.6223 211.976 49.4847 212.067 50.2473L220.011 49.2999C220.02 49.376 220.012 49.3557 220.014 49.1885C220.017 49.0357 220.028 48.8162 220.052 48.518L212.079 47.8632ZM212.051 49.4681C212.051 49.4681 212.051 49.4598 212.053 49.4442C212.055 49.4287 212.059 49.4041 212.065 49.3717C212.078 49.3086 212.102 49.2031 212.151 49.0682C212.251 48.794 212.465 48.3673 212.893 47.9638C213.864 47.0487 214.929 47.1243 215.098 47.1446L214.141 55.0872C215.208 55.2157 216.943 55.1396 218.379 53.7861C219.688 52.5527 219.959 50.9734 220.027 50.0791L212.051 49.4681ZM214.686 47.1165C214.687 47.1165 214.484 47.1086 214.008 47.0717C213.567 47.0374 212.954 46.9832 212.178 46.9029L211.355 54.8604C212.969 55.0275 214.098 55.1077 214.552 55.1153L214.686 47.1165ZM212.054 46.8919C210.38 46.7715 209.349 46.6543 208.768 46.5455L207.296 54.409C208.355 54.6072 209.773 54.7485 211.48 54.8713L212.054 46.8919ZM208.634 46.5229C208.759 46.5418 209.023 46.6016 209.337 46.7922C209.673 46.9954 209.977 47.295 210.19 47.6635L203.262 51.6635C204.294 53.4509 205.994 54.213 207.43 54.4317L208.634 46.5229ZM209.995 47.3581C210.135 47.5564 210.228 47.7681 210.28 47.9649C210.33 48.1547 210.331 48.2892 210.328 48.339L202.336 47.9941C202.279 49.3019 202.572 50.7131 203.457 51.969L209.995 47.3581ZM210.325 48.3976C210.442 46.3818 210.504 45.1241 210.63 44.2624L202.713 43.1089C202.523 44.4154 202.441 46.167 202.339 47.9356L210.325 48.3976ZM210.63 44.2624C210.755 43.4046 210.991 42.2929 211.429 40.8791L203.787 38.5131C203.24 40.2808 202.904 41.7987 202.713 43.1089L210.63 44.2624ZM211.472 40.7314C211.774 39.6033 212.208 38.7016 212.735 37.9723L206.251 33.2865C205.093 34.8885 204.27 36.698 203.744 38.6609L211.472 40.7314ZM212.817 37.8546C213.965 36.1389 215.614 35.0038 217.973 34.5002L216.303 26.6765C212.056 27.5832 208.555 29.8389 206.169 33.4042L212.817 37.8546ZM217.967 34.5014C221.504 33.7519 224.349 33.8451 226.581 34.5399L228.959 26.9014C225.075 25.6924 220.78 25.7276 216.309 26.6752L217.967 34.5014ZM226.556 34.532C229.289 35.4022 231.158 35.9623 232.517 36.4505L235.222 28.9218C233.679 28.3676 231.501 27.7108 228.984 26.9092L226.556 34.532ZM232.517 36.4505C232.651 36.4987 232.757 36.5503 232.848 36.6027C232.94 36.6557 233.033 36.7201 233.138 36.8044L238.168 30.584C237.38 29.9462 236.425 29.354 235.222 28.9218L232.517 36.4505ZM232.189 35.6942C232.516 36.2605 232.985 36.7406 233.143 36.9038C233.421 37.1917 233.761 37.5156 234.144 37.8551L239.452 31.8695C239.192 31.6393 239.005 31.4575 238.894 31.3429C238.837 31.2843 238.819 31.2628 238.83 31.2753C238.836 31.2818 238.862 31.3127 238.9 31.3637C238.92 31.3901 238.948 31.429 238.982 31.4787C239.015 31.5266 239.063 31.6 239.117 31.6942L232.189 35.6942ZM234.144 37.8551C234.398 38.0804 234.61 38.284 234.796 38.4652C234.843 38.5114 234.888 38.5556 234.934 38.6006C234.978 38.6439 235.026 38.6914 235.071 38.7357C235.15 38.8132 235.278 38.9375 235.412 39.0563L240.72 33.0707C240.747 33.0945 240.743 33.0924 240.664 33.0158C240.631 32.9832 240.594 32.9468 240.546 32.8997C240.5 32.8544 240.447 32.8019 240.389 32.7453C240.154 32.5159 239.84 32.2138 239.452 31.8695L234.144 37.8551ZM234.92 38.5333C235.187 38.8746 235.627 39.4062 236.257 40.0572L242.008 34.4964C241.6 34.0742 241.34 33.7558 241.212 33.5937L234.92 38.5333ZM236.257 40.0573C236.544 40.3549 236.697 40.5817 237.005 41.0006L243.449 36.26C243.272 36.0188 242.758 35.2718 242.008 34.4963L236.257 40.0573ZM236.763 40.6303C236.994 41.0303 237.193 41.3773 237.373 41.7531L244.587 38.2962C244.257 37.6078 243.913 37.0142 243.691 36.6303L236.763 40.6303ZM237.373 41.7531C237.509 42.0382 237.584 42.1964 237.641 42.3368C237.693 42.4652 237.694 42.4914 237.686 42.4516L245.523 40.8478C245.293 39.7203 244.8 38.7412 244.587 38.2962L237.373 41.7531ZM237.703 42.5331C238.236 44.8851 238.503 47.439 238.485 50.2076L246.485 50.2605C246.507 46.9442 246.187 43.7751 245.506 40.7663L237.703 42.5331ZM238.504 49.848C238.428 50.6257 238.355 51.3767 238.267 52.185L246.219 53.0565C246.314 52.1912 246.391 51.3923 246.466 50.62L238.504 49.848ZM238.311 51.8848C238.163 52.6776 237.981 53.6 237.779 54.5982L245.62 56.1827C245.825 55.1696 246.016 54.2043 246.175 53.3566L238.311 51.8848ZM237.782 54.5839C237.581 55.5609 237.351 56.7042 237.335 57.6768L245.333 57.8113C245.333 57.8278 245.336 57.7232 245.387 57.4074C245.435 57.1071 245.51 56.72 245.617 56.1971L237.782 54.5839ZM216.855 82.4586C216.922 82.2114 216.975 82.0269 217.019 81.8883C217.064 81.745 217.086 81.6925 217.084 81.6975C217.081 81.7031 217.066 81.7379 217.037 81.7932C217.008 81.8478 216.956 81.9388 216.877 82.0511C216.728 82.2625 216.401 82.6628 215.831 82.9921L211.831 76.0638C210.476 76.8459 209.916 78.1127 209.727 78.555C209.474 79.1479 209.282 79.8129 209.128 80.3881L216.855 82.4586ZM215.831 82.992C215.444 83.2156 215.103 83.3189 214.906 83.3681C214.698 83.4196 214.537 83.4382 214.453 83.4457C214.295 83.4599 214.224 83.4503 214.304 83.4551C214.368 83.4589 214.485 83.4693 214.674 83.4931C214.859 83.5163 215.086 83.5491 215.362 83.5927L216.612 75.691C215.983 75.5916 215.345 75.5033 214.784 75.4695C214.505 75.4528 214.137 75.4421 213.741 75.4775C213.434 75.5049 212.648 75.5919 211.831 76.0639L215.831 82.992ZM214.951 83.5055C215.639 83.6897 216.487 83.804 217.351 83.908L218.308 75.9655C217.878 75.9137 217.566 75.8716 217.335 75.8351C217.094 75.797 217.013 75.7758 217.022 75.7781L214.951 83.5055ZM217.393 83.9129C218.353 84.0181 218.457 84.0595 219.272 84.1577L220.228 76.2151C220.145 76.2051 218.978 76.0388 218.265 75.9606L217.393 83.9129ZM218.715 84.0501C219.682 84.3094 220.485 84.5819 221.193 84.8765L224.266 77.4905C223.186 77.041 222.043 76.6597 220.785 76.3227L218.715 84.0501ZM220.525 84.5216C220.238 84.3318 219.994 84.0834 219.829 83.7985L226.758 79.7985C226.231 78.8865 225.559 78.2583 224.933 77.8455L220.525 84.5216ZM219.829 83.7984C219.853 83.8401 219.777 83.7185 219.696 83.4794C219.653 83.3539 219.585 83.1241 219.548 82.8174C219.513 82.5194 219.491 82.0176 219.652 81.4189L227.379 83.4895C227.707 82.2663 227.387 81.2518 227.274 80.9158C227.119 80.458 226.915 80.0703 226.758 79.7985L219.829 83.7984ZM219.593 81.6698C219.229 83.4911 218.847 84.8847 218.453 85.9571L225.961 88.7188C226.543 87.1374 227.022 85.3164 227.438 83.2386L219.593 81.6698ZM218.343 86.3027C218.51 85.679 218.816 85.284 218.966 85.1146C219.112 84.9505 219.212 84.8857 219.155 84.9272L223.896 91.3713C224.281 91.0881 225.602 90.1233 226.07 88.3732L218.343 86.3027ZM219.526 84.6852C219.402 84.7567 219.52 84.6741 219.773 84.5923C220.048 84.5037 220.745 84.329 221.625 84.5648L219.554 92.2922C220.681 92.5942 221.65 92.3931 222.233 92.2049C222.794 92.0235 223.258 91.7681 223.526 91.6134L219.526 84.6852ZM220.908 84.4412C218.597 84.2568 216.569 83.9495 214.929 83.5681L213.117 91.3602C215.22 91.8492 217.651 92.2068 220.271 92.4158L220.908 84.4412ZM214.704 83.5226C214.918 83.5595 215.57 83.7727 216.013 84.539L209.084 88.539C210.07 90.2459 211.736 91.1281 213.342 91.4058L214.704 83.5226ZM215.849 84.2792C216.105 84.6535 216.222 85.0543 216.249 85.3786C216.273 85.6628 216.223 85.8063 216.241 85.7395L208.514 83.6689C208.153 85.0158 208.001 86.977 209.248 88.7988L215.849 84.2792ZM216.241 85.7395C216.295 85.5373 216.33 85.3383 216.331 85.3315C216.343 85.2634 216.357 85.1839 216.37 85.1098C216.397 84.9514 216.431 84.7528 216.477 84.4915C216.569 83.9746 216.707 83.2201 216.911 82.223L209.072 80.6237C208.853 81.6997 208.701 82.5238 208.599 83.0982C208.549 83.3826 208.511 83.6077 208.486 83.752C208.473 83.8294 208.465 83.8711 208.461 83.894C208.446 83.9782 208.468 83.8402 208.514 83.6689L216.241 85.7395Z" fill="#564141"/>
<path d="M276.462 77.1559C272.891 82.1888 270.95 84.9109 270.758 85.2435C270.63 85.4652 267.729 89.8501 262.119 98.2873C260.984 99.997 260.201 101.097 259.89 101.508C259.546 101.975 258.958 102.227 258.037 102.286C257.116 102.345 256.41 102.16 255.777 101.72C254.478 100.897 252.168 99.2671 248.955 96.8951C247.911 96.1442 247.653 95.1826 248.15 94.0655C250.523 88.932 252.125 85.6448 252.893 84.3145C253.565 83.1506 254.613 81.4644 256.036 79.256C257.426 77.1029 258.497 75.5042 259.137 74.3957C261.409 70.4604 264.193 67.5595 267.543 65.7248C269.675 64.5911 271.588 64.7346 273.28 66.1552C274.095 66.9209 275.915 68.1197 278.71 69.8072C279.121 70.1186 279.334 70.3894 279.492 70.6283C279.562 70.8906 279.513 71.2317 279.257 71.6751C279.065 72.0076 278.096 73.8133 276.462 77.1559ZM243.376 116.287L242.877 115.999C241.436 115.167 240.581 114.6 240.376 114.186C240.172 113.773 240.223 112.915 240.595 111.504C240.926 110.291 241.239 109.364 241.513 108.634C241.786 107.905 242.289 107.161 243.055 106.347C243.789 105.588 244.657 104.981 245.706 104.7C246.143 104.583 246.738 104.704 247.522 105.01C247.855 105.202 248.496 105.498 249.439 106.042C250.381 106.586 251.133 106.947 251.696 107.124C253.574 107.839 254.698 108.709 255.09 109.822C255.482 110.935 255.087 112.259 254.016 113.858C253.009 115.346 251.827 116.881 250.59 118.383C250.407 118.573 250.2 118.675 249.906 118.801C249.556 118.895 249.326 118.91 249.215 118.846C248.597 118.637 246.608 117.858 243.28 116.454L243.376 116.287Z" fill="#FED978"/>
<path d="M276.462 77.1559L279.724 79.4706L279.913 79.2052L280.056 78.9129L276.462 77.1559ZM262.119 98.2873L258.788 96.0725L258.786 96.0752L262.119 98.2873ZM259.89 101.508L256.7 99.0941L256.684 99.1159L256.668 99.138L259.89 101.508ZM258.037 102.286L257.779 98.2942L257.779 98.2942L258.037 102.286ZM255.777 101.72L258.057 98.4342L257.989 98.3868L257.919 98.3424L255.777 101.72ZM248.955 96.8951L251.331 93.6772L251.311 93.6621L251.29 93.6472L248.955 96.8951ZM248.15 94.0655L244.519 92.3873L244.507 92.4131L244.496 92.4391L248.15 94.0655ZM256.036 79.256L252.676 77.0855L252.673 77.0896L256.036 79.256ZM267.543 65.7248L265.665 62.1928L265.643 62.2045L265.621 62.2164L267.543 65.7248ZM273.28 66.1552L276.021 63.2412L275.938 63.1639L275.852 63.0913L273.28 66.1552ZM278.71 69.8072L281.124 66.6179L280.957 66.4913L280.777 66.3829L278.71 69.8072ZM279.492 70.6283L283.356 69.593L283.188 68.966L282.83 68.4243L279.492 70.6283ZM243.376 116.287L246.84 118.287L248.84 114.823L245.376 112.823L243.376 116.287ZM240.376 114.186L243.962 112.413L243.962 112.413L240.376 114.186ZM240.595 111.504L236.736 110.451L236.731 110.469L236.727 110.486L240.595 111.504ZM241.513 108.634L245.258 110.038L245.258 110.038L241.513 108.634ZM243.055 106.347L240.179 103.567L240.16 103.587L240.141 103.607L243.055 106.347ZM245.706 104.7L246.741 108.564L246.741 108.564L245.706 104.7ZM247.522 105.01L249.522 101.545L249.257 101.393L248.972 101.282L247.522 105.01ZM251.696 107.124L253.119 103.386L253.009 103.344L252.897 103.308L251.696 107.124ZM255.09 109.822L258.863 108.494L258.863 108.494L255.09 109.822ZM254.016 113.858L257.329 116.1L257.334 116.092L257.339 116.084L254.016 113.858ZM250.59 118.383L253.466 121.164L253.577 121.049L253.678 120.926L250.59 118.383ZM249.906 118.801L250.941 122.665L251.216 122.591L251.477 122.48L249.906 118.801ZM249.215 118.846L251.215 115.382L250.872 115.184L250.497 115.057L249.215 118.846ZM243.28 116.454L239.816 114.454L237.55 118.378L241.725 120.139L243.28 116.454ZM273.2 74.8413C271.418 77.3531 270.035 79.2982 269.077 80.6526C268.218 81.8682 267.511 82.8677 267.294 83.2435L274.222 87.2435C274.197 87.2867 274.557 86.7589 275.609 85.272C276.562 83.924 277.936 81.9917 279.724 79.4706L273.2 74.8413ZM267.294 83.2435C267.311 83.2135 266.675 84.1876 265.159 86.4762C263.719 88.6517 261.592 91.8548 258.788 96.0725L265.45 100.502C270.978 92.1884 274.01 87.6109 274.222 87.2435L267.294 83.2435ZM258.786 96.0752C257.67 97.7574 256.939 98.7789 256.7 99.0941L263.079 103.923C263.463 103.415 264.298 102.237 265.451 100.5L258.786 96.0752ZM256.668 99.138C256.97 98.7264 257.344 98.4828 257.626 98.3639C257.862 98.2647 257.958 98.2827 257.779 98.2942L258.294 106.278C259.734 106.185 261.753 105.726 263.112 103.879L256.668 99.138ZM257.779 98.2942C257.653 98.3024 257.674 98.2856 257.781 98.3127C257.833 98.3258 257.889 98.3452 257.944 98.3706C257.998 98.3957 258.037 98.4197 258.057 98.4342L253.496 105.006C254.974 106.032 256.605 106.387 258.294 106.278L257.779 98.2942ZM257.919 98.3424C256.753 97.6027 254.544 96.0493 251.331 93.6772L246.579 100.113C249.792 102.485 252.204 104.191 253.634 105.098L257.919 98.3424ZM251.29 93.6472C251.295 93.6505 251.652 93.9178 251.826 94.538C252.003 95.1699 251.837 95.6201 251.805 95.6919L244.496 92.4391C243.967 93.6279 243.68 95.1175 244.123 96.6972C244.563 98.2653 245.572 99.3888 246.621 100.143L251.29 93.6472ZM251.781 95.7436C254.176 90.5628 255.699 87.4556 256.357 86.3145L249.429 82.3145C248.552 83.8339 246.87 87.3013 244.519 92.3873L251.781 95.7436ZM256.357 86.3145C256.979 85.2374 257.984 83.6172 259.398 81.4224L252.673 77.0896C251.241 79.3116 250.151 81.0638 249.429 82.3145L256.357 86.3145ZM259.395 81.4265C260.714 79.3854 261.895 77.6196 262.601 76.3957L255.673 72.3957C255.1 73.3888 254.139 74.8205 252.676 77.0855L259.395 81.4265ZM262.601 76.3957C264.589 72.9535 266.886 70.6448 269.464 69.2331L265.621 62.2164C261.499 64.4741 258.23 67.9674 255.673 72.3957L262.601 76.3957ZM269.42 69.2567C269.991 68.9535 270.249 68.9688 270.277 68.9709C270.299 68.9726 270.327 68.9767 270.378 68.9987C270.433 69.0229 270.545 69.0815 270.709 69.219L275.852 63.0913C274.465 61.9273 272.79 61.137 270.876 60.9934C268.992 60.8521 267.227 61.3625 265.665 62.1928L269.42 69.2567ZM270.54 69.0691C271.727 70.185 273.954 71.6081 276.642 73.2314L280.777 66.3829C277.876 64.6313 276.462 63.6567 276.021 63.2412L270.54 69.0691ZM276.295 72.9964C276.317 73.0125 276.289 72.9941 276.24 72.9396C276.217 72.9142 276.196 72.8885 276.178 72.8653C276.161 72.8427 276.152 72.8289 276.154 72.8322L282.83 68.4243C282.466 67.8731 281.955 67.247 281.124 66.6179L276.295 72.9964ZM275.628 71.6636C275.327 70.5397 275.741 69.7656 275.793 69.6751L282.721 73.6751C283.285 72.6977 283.797 71.2414 283.356 69.593L275.628 71.6636ZM275.793 69.6751C275.528 70.1342 274.509 72.0441 272.869 75.399L280.056 78.9129C280.861 77.2659 281.498 76.0051 281.954 75.1223C282.183 74.6807 282.364 74.3361 282.497 74.0867C282.564 73.9619 282.617 73.8636 282.657 73.7905C282.677 73.7541 282.693 73.7257 282.704 73.7048C282.717 73.6827 282.722 73.6739 282.721 73.6751L275.793 69.6751ZM245.376 112.823L244.877 112.535L240.877 119.463L241.376 119.751L245.376 112.823ZM244.877 112.535C244.536 112.339 244.25 112.169 244.009 112.02C243.766 111.87 243.595 111.757 243.478 111.674C243.351 111.584 243.345 111.569 243.4 111.622C243.432 111.652 243.505 111.724 243.597 111.837C243.686 111.948 243.827 112.141 243.962 112.413L236.791 115.959C237.142 116.669 237.615 117.161 237.901 117.432C238.22 117.734 238.555 117.99 238.848 118.198C239.43 118.611 240.141 119.039 240.877 119.463L244.877 112.535ZM243.962 112.413C244.072 112.636 244.138 112.833 244.178 112.985C244.219 113.137 244.237 113.26 244.247 113.342C244.264 113.498 244.254 113.571 244.258 113.523C244.261 113.482 244.272 113.38 244.306 113.202C244.339 113.028 244.389 112.803 244.463 112.522L236.727 110.486C236.509 111.311 236.341 112.137 236.281 112.915C236.231 113.575 236.205 114.774 236.791 115.959L243.962 112.413ZM244.454 112.557C244.751 111.469 245.026 110.658 245.258 110.038L237.767 107.231C237.453 108.069 237.101 109.113 236.736 110.451L244.454 112.557ZM245.258 110.038C245.281 109.976 245.415 109.676 245.969 109.087L240.141 103.607C239.163 104.647 238.29 105.834 237.767 107.231L245.258 110.038ZM245.93 109.128C246.316 108.729 246.58 108.607 246.741 108.564L244.67 100.836C242.733 101.355 241.261 102.448 240.179 103.567L245.93 109.128ZM246.741 108.564C246.463 108.638 246.231 108.656 246.073 108.656C245.916 108.656 245.813 108.64 245.779 108.634C245.728 108.625 245.806 108.634 246.072 108.738L248.972 101.282C248.153 100.963 246.467 100.355 244.67 100.836L246.741 108.564ZM245.522 108.474C245.687 108.569 245.856 108.658 245.983 108.724C246.051 108.759 246.124 108.797 246.192 108.832C246.263 108.869 246.333 108.905 246.407 108.943C246.698 109.094 247.037 109.275 247.439 109.506L251.439 102.578C250.898 102.266 250.445 102.026 250.096 101.844C250.01 101.8 249.93 101.758 249.86 101.722C249.788 101.685 249.729 101.655 249.676 101.627C249.623 101.6 249.585 101.579 249.556 101.564C249.527 101.548 249.518 101.543 249.522 101.545L245.522 108.474ZM247.439 109.506C248.46 110.096 249.512 110.63 250.495 110.939L252.897 103.308C252.755 103.264 252.302 103.076 251.439 102.578L247.439 109.506ZM250.273 110.862C250.985 111.133 251.333 111.354 251.471 111.462C251.581 111.549 251.425 111.458 251.317 111.151L258.863 108.494C257.863 105.655 255.289 104.212 253.119 103.386L250.273 110.862ZM251.317 111.151C251.259 110.986 251.238 110.833 251.238 110.715C251.237 110.605 251.254 110.561 251.244 110.601C251.232 110.643 251.197 110.752 251.106 110.934C251.016 111.115 250.884 111.347 250.693 111.632L257.339 116.084C258.577 114.236 259.914 111.478 258.863 108.494L251.317 111.151ZM250.703 111.616C249.789 112.967 248.69 114.398 247.502 115.841L253.678 120.926C254.965 119.363 256.229 117.724 257.329 116.1L250.703 111.616ZM247.715 115.603C247.914 115.396 248.119 115.252 248.274 115.161C248.391 115.093 248.459 115.069 248.334 115.123L251.477 122.48C251.818 122.334 252.681 121.975 253.466 121.164L247.715 115.603ZM248.87 114.937C248.824 114.95 248.961 114.907 249.213 114.891C249.345 114.882 249.585 114.876 249.891 114.92C250.188 114.963 250.678 115.072 251.215 115.382L247.215 122.31C248.312 122.943 249.374 122.897 249.728 122.874C250.21 122.843 250.638 122.746 250.941 122.665L248.87 114.937ZM250.497 115.057C250.039 114.902 248.182 114.181 244.835 112.768L241.725 120.139C245.033 121.535 247.154 122.371 247.933 122.635L250.497 115.057ZM246.744 118.454L246.84 118.287L239.912 114.287L239.816 114.454L246.744 118.454Z" fill="#564141"/>
</svg>
