<svg width="56" height="27" viewBox="0 0 56 27" fill="none" xmlns="http://www.w3.org/2000/svg">
<rect x="1" y="1" width="53.7951" height="25" rx="12.5" fill="url(#paint0_linear_1721_6214)"/>
<path d="M19.606 7.78613H20.919C21.049 7.78613 21.101 7.85113 21.101 7.95513V19.0571C21.101 19.1611 21.049 19.2131 20.919 19.2131H19.606C19.489 19.2131 19.437 19.1611 19.437 19.0571V7.95513C19.437 7.85113 19.489 7.78613 19.606 7.78613ZM18.761 13.0251L18.904 14.0911C18.917 14.1951 18.852 14.2341 18.735 14.2601C17.773 14.4551 16.759 14.5591 15.589 14.6111V18.7581C15.589 18.8621 15.537 18.9141 15.42 18.9141H14.107C14.003 18.9141 13.951 18.8621 13.951 18.7581V14.6501H13.743H11.169C11.052 14.6501 11 14.5851 11 14.4941V13.4021C11 13.2981 11.052 13.2461 11.169 13.2461H13.418C14.224 13.2461 14.965 13.2331 15.654 13.1941C15.927 12.1021 16.07 10.6851 16.07 9.94413V9.72313H12.092C11.975 9.72313 11.923 9.65813 11.923 9.55413V8.47513C11.923 8.37113 11.975 8.30613 12.092 8.30613H17.578C17.695 8.30613 17.747 8.37113 17.747 8.47513L17.721 9.67113C17.695 10.6591 17.552 12.0241 17.331 13.0641C17.76 13.0121 18.163 12.9471 18.566 12.8821C18.696 12.8561 18.748 12.9341 18.761 13.0251Z" fill="white"/>
<path d="M30.9526 7.78613H32.2656C32.3956 7.78613 32.4476 7.85113 32.4476 7.95513V19.0571C32.4476 19.1611 32.3956 19.2131 32.2656 19.2131H30.9526C30.8356 19.2131 30.7836 19.1611 30.7836 19.0571V14.9491H29.5356C29.4186 14.9491 29.3666 14.8841 29.3666 14.7801L29.3926 13.7011C29.3926 13.5971 29.4316 13.5321 29.5616 13.5321H30.7836V11.5301H29.5616C29.4316 11.5301 29.3926 11.4651 29.3926 11.3611L29.3666 10.2821C29.3666 10.1651 29.4186 10.1131 29.5356 10.1131H30.7836V7.95513C30.7836 7.85113 30.8356 7.78613 30.9526 7.78613ZM26.0126 8.76113C27.8586 8.76113 29.1976 10.1521 29.1976 12.7261C29.1976 15.3131 27.8586 16.7041 26.0126 16.7041C24.1666 16.7041 22.8406 15.3131 22.8406 12.7261C22.8406 10.1521 24.1666 8.76113 26.0126 8.76113ZM26.0126 15.2221C26.9226 15.2221 27.5466 14.3771 27.5466 12.7261C27.5466 11.0881 26.9226 10.2301 26.0126 10.2301C25.1156 10.2301 24.4786 11.0881 24.4786 12.7261C24.4786 14.3771 25.1156 15.2221 26.0126 15.2221Z" fill="white"/>
<path d="M39.2961 12.6091C36.6961 12.6091 35.5391 11.5821 35.5391 10.2951C35.5391 9.00813 36.6961 7.99413 39.2961 7.99413C41.9091 7.99413 43.0531 9.00813 43.0531 10.2951C43.0531 11.5821 41.9091 12.6091 39.2961 12.6091ZM39.2961 9.33313C37.7101 9.33313 37.1901 9.77513 37.1901 10.2951C37.1901 10.8021 37.7101 11.2571 39.2961 11.2571C40.8951 11.2571 41.4021 10.8021 41.4021 10.2951C41.4021 9.77513 40.8951 9.33313 39.2961 9.33313ZM33.9661 13.3631H44.6261C44.7431 13.3631 44.7951 13.4411 44.7951 13.5451V14.5851C44.7951 14.6891 44.7431 14.7541 44.6261 14.7541H40.2451V16.6521C40.2451 16.7431 40.1801 16.8081 40.0761 16.8081H38.7501C38.6331 16.8081 38.5811 16.7431 38.5811 16.6521V14.7541H33.9661C33.8621 14.7541 33.8101 14.6891 33.8101 14.5851V13.5451C33.8101 13.4411 33.8621 13.3631 33.9661 13.3631ZM37.0211 17.7961H43.3391C43.4691 17.7961 43.5211 17.8611 43.5211 17.9651V19.0051C43.5211 19.1091 43.4691 19.1741 43.3391 19.1741H35.5521C35.4351 19.1741 35.3831 19.1091 35.3831 19.0051V15.7551C35.3831 15.6511 35.4351 15.5861 35.5521 15.5861H36.8651C36.9821 15.5861 37.0211 15.6511 37.0211 15.7551V17.7961Z" fill="white"/>
<rect x="1" y="1" width="53.7951" height="25" rx="12.5" stroke="url(#paint1_linear_1721_6214)" stroke-width="2"/>
<defs>
<linearGradient id="paint0_linear_1721_6214" x1="27.8976" y1="0" x2="27.8976" y2="27" gradientUnits="userSpaceOnUse">
<stop stop-color="#98E9D1"/>
<stop offset="1" stop-color="#2FA1A8"/>
</linearGradient>
<linearGradient id="paint1_linear_1721_6214" x1="27.8976" y1="0" x2="27.8976" y2="27" gradientUnits="userSpaceOnUse">
<stop stop-color="#7DCCD1"/>
<stop offset="1" stop-color="white"/>
</linearGradient>
</defs>
</svg>
