<svg width="360" height="330" viewBox="0 0 360 330" fill="none" xmlns="http://www.w3.org/2000/svg">
<rect width="360" height="330" rx="6" fill="url(#paint0_radial_1195_5305)"/>
<mask id="mask0_1195_5305" style="mask-type:alpha" maskUnits="userSpaceOnUse" x="0" y="0" width="360" height="330">
<rect width="360" height="330" rx="6" fill="white"/>
</mask>
<g mask="url(#mask0_1195_5305)">
<path fill-rule="evenodd" clip-rule="evenodd" d="M192.304 -55.8182C192.304 -49.0903 186.85 -43.6364 180.122 -43.6364C173.394 -43.6364 167.94 -49.0903 167.94 -55.8182C167.94 -62.546 173.394 -68 180.122 -68C186.85 -68 192.304 -62.546 192.304 -55.8182ZM126.092 -36.5237C132.59 -38.265 136.447 -44.9447 134.705 -51.4433C132.964 -57.9419 126.284 -61.7985 119.786 -60.0572C113.287 -58.3159 109.431 -51.6362 111.172 -45.1376C112.913 -38.639 119.593 -34.7824 126.092 -36.5237ZM134.179 -6.33925C138.982 -7.62629 141.833 -12.5635 140.546 -17.3668C139.259 -22.1701 134.322 -25.0206 129.518 -23.7335C124.715 -22.4465 121.864 -17.5093 123.152 -12.706C124.439 -7.9027 129.376 -5.05221 134.179 -6.33925ZM145.628 9.78456C146.612 13.4577 144.432 17.2332 140.759 18.2174C137.086 19.2016 133.311 17.0218 132.326 13.3487C131.342 9.67558 133.522 5.90008 137.195 4.91587C140.868 3.93166 144.644 6.11145 145.628 9.78456ZM145.694 36.6347C148.237 35.9533 149.746 33.3395 149.065 30.7966C148.384 28.2536 145.77 26.7446 143.227 27.4259C140.684 28.1073 139.175 30.7211 139.856 33.264C140.538 35.807 143.152 37.3161 145.694 36.6347ZM151.505 46.0438C151.96 47.7391 150.954 49.4817 149.258 49.9359C147.563 50.3901 145.821 49.3841 145.366 47.6888C144.912 45.9935 145.918 44.251 147.613 43.7967C149.309 43.3425 151.051 44.3485 151.505 46.0438ZM152.274 61.1917C153.404 60.8889 154.075 59.7272 153.772 58.597C153.469 57.4668 152.307 56.7961 151.177 57.0989C150.047 57.4017 149.376 58.5634 149.679 59.6936C149.982 60.8238 151.144 61.4945 152.274 61.1917ZM225.538 381.684C223.797 375.185 227.654 368.506 234.152 366.764C240.651 365.023 247.331 368.88 249.072 375.378C250.813 381.877 246.957 388.556 240.458 390.298C233.959 392.039 227.28 388.182 225.538 381.684ZM226.065 336.58C221.261 337.867 218.411 342.804 219.698 347.607C220.985 352.411 225.922 355.261 230.726 353.974C235.529 352.687 238.379 347.75 237.092 342.947C235.805 338.143 230.868 335.293 226.065 336.58ZM214.616 320.456C213.632 316.783 215.811 313.007 219.485 312.023C223.158 311.039 226.933 313.219 227.917 316.892C228.902 320.565 226.722 324.34 223.049 325.325C219.376 326.309 215.6 324.129 214.616 320.456ZM214.549 293.606C212.006 294.287 210.497 296.901 211.179 299.444C211.86 301.987 214.474 303.496 217.017 302.815C219.56 302.133 221.069 299.519 220.387 296.977C219.706 294.434 217.092 292.924 214.549 293.606ZM208.738 284.197C208.284 282.501 209.29 280.759 210.985 280.305C212.681 279.85 214.423 280.856 214.878 282.552C215.332 284.247 214.326 285.99 212.63 286.444C210.935 286.898 209.193 285.892 208.738 284.197ZM207.97 269.049C206.84 269.352 206.169 270.513 206.472 271.644C206.775 272.774 207.936 273.444 209.067 273.142C210.197 272.839 210.868 271.677 210.565 270.547C210.262 269.417 209.1 268.746 207.97 269.049ZM396.685 119.704C390.186 121.445 383.507 117.589 381.765 111.09C380.024 104.591 383.881 97.9118 390.379 96.1705C396.878 94.4292 403.558 98.2857 405.299 104.784C407.04 111.283 403.184 117.963 396.685 119.704ZM351.581 119.178C352.868 123.981 357.805 126.831 362.609 125.544C367.412 124.257 370.262 119.32 368.975 114.517C367.688 109.713 362.751 106.863 357.948 108.15C353.144 109.437 350.294 114.374 351.581 119.178ZM335.457 130.626C331.784 131.611 328.009 129.431 327.024 125.758C326.04 122.085 328.22 118.309 331.893 117.325C335.566 116.341 339.342 118.521 340.326 122.194C341.31 125.867 339.13 129.642 335.457 130.626ZM308.607 130.693C309.288 133.236 311.902 134.745 314.445 134.064C316.988 133.382 318.497 130.768 317.816 128.226C317.134 125.683 314.521 124.174 311.978 124.855C309.435 125.536 307.926 128.15 308.607 130.693ZM299.198 136.504C297.503 136.958 295.76 135.952 295.306 134.257C294.852 132.562 295.858 130.819 297.553 130.365C299.248 129.911 300.991 130.917 301.445 132.612C301.899 134.307 300.893 136.05 299.198 136.504ZM284.05 137.272C284.353 138.403 285.515 139.073 286.645 138.77C287.775 138.468 288.446 137.306 288.143 136.176C287.84 135.046 286.678 134.375 285.548 134.678C284.418 134.98 283.747 136.142 284.05 137.272ZM-36.4422 210.537C-29.9436 208.796 -23.2638 212.652 -21.5225 219.151C-19.7813 225.649 -23.6378 232.329 -30.1364 234.07C-36.635 235.812 -43.3147 231.955 -45.056 225.457C-46.7973 218.958 -42.9407 212.278 -36.4422 210.537ZM8.66193 211.063C7.37489 206.26 2.43769 203.409 -2.36562 204.697C-7.16892 205.984 -10.0194 210.921 -8.73237 215.724C-7.44533 220.527 -2.50813 223.378 2.29517 222.091C7.09848 220.804 9.94897 215.867 8.66193 211.063ZM24.7857 199.614C28.4589 198.63 32.2344 200.81 33.2186 204.483C34.2028 208.156 32.023 211.932 28.3499 212.916C24.6768 213.9 20.9013 211.72 19.917 208.047C18.9328 204.374 21.1126 200.599 24.7857 199.614ZM51.6359 199.548C50.9545 197.005 48.3407 195.496 45.7977 196.177C43.2548 196.859 41.7457 199.472 42.4271 202.015C43.1085 204.558 45.7223 206.067 48.2652 205.386C50.8081 204.705 52.3172 202.091 51.6359 199.548ZM61.045 193.737C62.7403 193.283 64.4828 194.289 64.9371 195.984C65.3913 197.679 64.3853 199.422 62.69 199.876C60.9947 200.33 59.2522 199.324 58.7979 197.629C58.3437 195.934 59.3497 194.191 61.045 193.737ZM76.1929 192.969C75.89 191.838 74.7283 191.168 73.5982 191.47C72.468 191.773 71.7973 192.935 72.1001 194.065C72.4029 195.195 73.5646 195.866 74.6948 195.563C75.825 195.26 76.4957 194.099 76.1929 192.969ZM180.121 -12.3872C185.094 -12.3872 189.125 -16.4184 189.125 -21.3912C189.125 -26.3639 185.094 -30.3951 180.121 -30.3951C175.149 -30.3951 171.117 -26.3639 171.117 -21.3912C171.117 -16.4184 175.149 -12.3872 180.121 -12.3872ZM187.007 6.1504C187.007 9.95309 183.924 13.0358 180.122 13.0358C176.319 13.0358 173.236 9.95309 173.236 6.1504C173.236 2.34771 176.319 -0.734978 180.122 -0.734978C183.924 -0.734978 187.007 2.34771 187.007 6.1504ZM180.122 32.1028C182.755 32.1028 184.889 29.9687 184.889 27.336C184.889 24.7034 182.755 22.5692 180.122 22.5692C177.489 22.5692 175.355 24.7034 175.355 27.336C175.355 29.9687 177.489 32.1028 180.122 32.1028ZM183.3 42.6954C183.3 44.4505 181.877 45.8732 180.122 45.8732C178.367 45.8732 176.944 44.4505 176.944 42.6954C176.944 40.9403 178.367 39.5175 180.122 39.5175C181.877 39.5175 183.3 40.9403 183.3 42.6954ZM180.121 57.5259C181.291 57.5259 182.24 56.5774 182.24 55.4074C182.24 54.2373 181.291 53.2888 180.121 53.2888C178.951 53.2888 178.003 54.2373 178.003 55.4074C178.003 56.5774 178.951 57.5259 180.121 57.5259ZM167.94 386.06C167.94 379.332 173.394 373.878 180.122 373.878C186.85 373.878 192.304 379.332 192.304 386.06C192.304 392.788 186.85 398.242 180.122 398.242C173.394 398.242 167.94 392.788 167.94 386.06ZM180.122 342.629C175.149 342.629 171.118 346.66 171.118 351.633C171.118 356.606 175.149 360.637 180.122 360.637C185.095 360.637 189.126 356.606 189.126 351.633C189.126 346.66 185.095 342.629 180.122 342.629ZM173.237 324.091C173.237 320.289 176.319 317.206 180.122 317.206C183.925 317.206 187.007 320.289 187.007 324.091C187.007 327.894 183.925 330.977 180.122 330.977C176.319 330.977 173.237 327.894 173.237 324.091ZM180.122 298.139C177.489 298.139 175.355 300.273 175.355 302.906C175.355 305.538 177.489 307.672 180.122 307.672C182.754 307.672 184.888 305.538 184.888 302.906C184.888 300.273 182.754 298.139 180.122 298.139ZM176.944 287.546C176.944 285.791 178.367 284.368 180.122 284.368C181.877 284.368 183.3 285.791 183.3 287.546C183.3 289.301 181.877 290.724 180.122 290.724C178.367 290.724 176.944 289.301 176.944 287.546ZM180.122 272.716C178.952 272.716 178.004 273.664 178.004 274.834C178.004 276.004 178.952 276.953 180.122 276.953C181.292 276.953 182.241 276.004 182.241 274.834C182.241 273.664 181.292 272.716 180.122 272.716ZM249.072 -45.1375C247.33 -38.6389 240.65 -34.7823 234.152 -36.5236C227.653 -38.2649 223.797 -44.9446 225.538 -51.4432C227.279 -57.9418 233.959 -61.7984 240.458 -60.0571C246.956 -58.3158 250.813 -51.636 249.072 -45.1375ZM226.064 -6.33935C230.867 -5.05231 235.804 -7.9028 237.091 -12.7061C238.378 -17.5094 235.528 -22.4466 230.724 -23.7337C225.921 -25.0207 220.984 -22.1702 219.697 -17.3669C218.41 -12.5636 221.26 -7.62639 226.064 -6.33935ZM227.917 13.3487C226.933 17.0219 223.157 19.2016 219.484 18.2174C215.811 17.2332 213.631 13.4577 214.615 9.78461C215.599 6.1115 219.375 3.93171 223.048 4.91592C226.721 5.90012 228.901 9.67563 227.917 13.3487ZM214.549 36.6349C217.092 37.3162 219.706 35.8072 220.387 33.2642C221.069 30.7213 219.56 28.1075 217.017 27.4261C214.474 26.7448 211.86 28.2538 211.179 30.7968C210.497 33.3397 212.006 35.9535 214.549 36.6349ZM214.877 47.6889C214.423 49.3842 212.68 50.3903 210.985 49.936C209.29 49.4818 208.284 47.7392 208.738 46.044C209.192 44.3487 210.935 43.3426 212.63 43.7969C214.325 44.2511 215.331 45.9937 214.877 47.6889ZM207.969 61.1916C209.099 61.4944 210.261 60.8237 210.563 59.6935C210.866 58.5633 210.196 57.4016 209.065 57.0988C207.935 56.796 206.773 57.4667 206.471 58.5968C206.168 59.727 206.839 60.8887 207.969 61.1916ZM111.172 375.378C112.913 368.88 119.593 365.023 126.091 366.764C132.59 368.506 136.446 375.185 134.705 381.684C132.964 388.183 126.284 392.039 119.785 390.298C113.287 388.557 109.43 381.877 111.172 375.378ZM134.179 336.58C129.376 335.293 124.439 338.144 123.152 342.947C121.865 347.75 124.715 352.687 129.519 353.974C134.322 355.261 139.259 352.411 140.546 347.608C141.833 342.804 138.983 337.867 134.179 336.58ZM132.326 316.892C133.311 313.219 137.086 311.039 140.759 312.023C144.432 313.008 146.612 316.783 145.628 320.456C144.644 324.129 140.868 326.309 137.195 325.325C133.522 324.341 131.342 320.565 132.326 316.892ZM145.694 293.606C143.151 292.925 140.537 294.434 139.856 296.977C139.174 299.519 140.683 302.133 143.226 302.815C145.769 303.496 148.383 301.987 149.064 299.444C149.746 296.901 148.237 294.287 145.694 293.606ZM145.366 282.552C145.82 280.857 147.563 279.85 149.258 280.305C150.953 280.759 151.959 282.502 151.505 284.197C151.051 285.892 149.308 286.898 147.613 286.444C145.918 285.99 144.912 284.247 145.366 282.552ZM152.274 269.049C151.144 268.746 149.982 269.417 149.68 270.547C149.377 271.677 150.048 272.839 151.178 273.142C152.308 273.445 153.47 272.774 153.772 271.644C154.075 270.514 153.405 269.352 152.274 269.049ZM401.06 177.302C394.332 177.302 388.878 171.848 388.878 165.12C388.878 158.392 394.332 152.938 401.06 152.938C407.788 152.938 413.242 158.392 413.242 165.12C413.242 171.848 407.788 177.302 401.06 177.302ZM357.629 165.12C357.629 170.093 361.66 174.124 366.633 174.124C371.606 174.124 375.637 170.093 375.637 165.12C375.637 160.147 371.606 156.116 366.633 156.116C361.66 156.116 357.629 160.147 357.629 165.12ZM339.091 172.006C335.289 172.006 332.206 168.923 332.206 165.12C332.206 161.317 335.289 158.235 339.091 158.235C342.894 158.235 345.977 161.317 345.977 165.12C345.977 168.923 342.894 172.006 339.091 172.006ZM313.139 165.12C313.139 167.753 315.273 169.887 317.906 169.887C320.538 169.887 322.672 167.753 322.672 165.12C322.672 162.488 320.538 160.354 317.906 160.354C315.273 160.354 313.139 162.488 313.139 165.12ZM302.546 168.298C300.791 168.298 299.368 166.875 299.368 165.12C299.368 163.365 300.791 161.942 302.546 161.942C304.301 161.942 305.724 163.365 305.724 165.12C305.724 166.875 304.301 168.298 302.546 168.298ZM287.716 165.12C287.716 166.29 288.664 167.238 289.834 167.238C291.004 167.238 291.953 166.29 291.953 165.12C291.953 163.95 291.004 163.001 289.834 163.001C288.664 163.001 287.716 163.95 287.716 165.12ZM-40.8182 152.938C-34.0903 152.938 -28.6364 158.392 -28.6364 165.12C-28.6364 171.848 -34.0904 177.302 -40.8182 177.302C-47.546 177.302 -53 171.848 -53 165.12C-53 158.392 -47.546 152.938 -40.8182 152.938ZM2.61279 165.121C2.61279 160.148 -1.41842 156.117 -6.39116 156.117C-11.3639 156.117 -15.3951 160.148 -15.3951 165.121C-15.3951 170.093 -11.3639 174.125 -6.39116 174.125C-1.41842 174.125 2.61279 170.093 2.61279 165.121ZM21.1504 158.235C24.9531 158.235 28.0358 161.318 28.0358 165.12C28.0358 168.923 24.9531 172.006 21.1504 172.006C17.3477 172.006 14.265 168.923 14.265 165.12C14.265 161.318 17.3477 158.235 21.1504 158.235ZM47.1028 165.12C47.1028 162.487 44.9687 160.353 42.336 160.353C39.7034 160.353 37.5692 162.487 37.5692 165.12C37.5692 167.753 39.7034 169.887 42.336 169.887C44.9687 169.887 47.1028 167.753 47.1028 165.12ZM57.6954 161.942C59.4505 161.942 60.8732 163.365 60.8732 165.12C60.8732 166.875 59.4505 168.298 57.6954 168.298C55.9403 168.298 54.5175 166.875 54.5175 165.12C54.5175 163.365 55.9403 161.942 57.6954 161.942ZM72.5259 165.121C72.5259 163.951 71.5774 163.002 70.4074 163.002C69.2373 163.002 68.2888 163.951 68.2888 165.121C68.2888 166.291 69.2373 167.239 70.4074 167.239C71.5774 167.239 72.5259 166.291 72.5259 165.121ZM390.379 234.07C383.881 232.329 380.024 225.649 381.765 219.15C383.507 212.652 390.186 208.795 396.685 210.537C403.184 212.278 407.04 218.958 405.299 225.456C403.558 231.955 396.878 235.811 390.379 234.07ZM351.581 211.062C350.294 215.865 353.145 220.803 357.948 222.09C362.751 223.377 367.688 220.526 368.975 215.723C370.262 210.92 367.412 205.982 362.609 204.695C357.805 203.408 352.868 206.259 351.581 211.062ZM331.893 212.915C328.22 211.931 326.04 208.156 327.024 204.482C328.008 200.809 331.784 198.63 335.457 199.614C339.13 200.598 341.31 204.373 340.326 208.047C339.342 211.72 335.566 213.9 331.893 212.915ZM308.607 199.548C307.925 202.091 309.435 204.705 311.977 205.386C314.52 206.067 317.134 204.558 317.816 202.015C318.497 199.472 316.988 196.859 314.445 196.177C311.902 195.496 309.288 197.005 308.607 199.548ZM297.553 199.876C295.858 199.421 294.851 197.679 295.306 195.984C295.76 194.288 297.502 193.282 299.198 193.737C300.893 194.191 301.899 195.933 301.445 197.629C300.991 199.324 299.248 200.33 297.553 199.876ZM284.05 192.967C283.747 194.097 284.418 195.259 285.548 195.562C286.678 195.865 287.84 195.194 288.143 194.064C288.446 192.934 287.775 191.772 286.645 191.469C285.515 191.166 284.353 191.837 284.05 192.967ZM-30.1365 96.1701C-23.6379 97.9114 -19.7814 104.591 -21.5227 111.09C-23.2639 117.588 -29.9437 121.445 -36.4423 119.704C-42.9409 117.962 -46.7974 111.283 -45.0561 104.784C-43.3148 98.2853 -36.6351 94.4288 -30.1365 96.1701ZM8.66161 119.178C9.94865 114.375 7.09816 109.437 2.29485 108.15C-2.50845 106.863 -7.44565 109.714 -8.73269 114.517C-10.0197 119.32 -7.16924 124.258 -2.36594 125.545C2.43736 126.832 7.37457 123.981 8.66161 119.178ZM28.3497 117.325C32.0228 118.309 34.2026 122.085 33.2184 125.758C32.2342 129.431 28.4587 131.611 24.7856 130.626C21.1124 129.642 18.9327 125.867 19.9169 122.194C20.9011 118.52 24.6766 116.341 28.3497 117.325ZM51.6358 130.692C52.3172 128.149 50.8081 125.536 48.2652 124.854C45.7223 124.173 43.1085 125.682 42.4271 128.225C41.7457 130.768 43.2548 133.382 45.7977 134.063C48.3406 134.744 50.9545 133.235 51.6358 130.692ZM62.6899 130.364C64.3852 130.819 65.3912 132.561 64.937 134.256C64.4827 135.952 62.7402 136.958 61.0449 136.504C59.3496 136.049 58.3436 134.307 58.7978 132.611C59.2521 130.916 60.9946 129.91 62.6899 130.364ZM76.1925 137.273C76.4953 136.143 75.8246 134.981 74.6945 134.678C73.5643 134.375 72.4026 135.046 72.0997 136.176C71.7969 137.306 72.4676 138.468 73.5978 138.771C74.728 139.074 75.8897 138.403 76.1925 137.273ZM301.141 -20.1278C297.777 -14.3013 290.327 -12.305 284.5 -15.6689C278.674 -19.0329 276.678 -26.4831 280.041 -32.3096C283.405 -38.1361 290.856 -40.1324 296.682 -36.7685C302.509 -33.4045 304.505 -25.9543 301.141 -20.1278ZM268.875 11.3934C273.182 13.8798 278.689 12.4043 281.175 8.09775C283.661 3.79122 282.186 -1.71551 277.879 -4.20189C273.573 -6.68826 268.066 -5.21273 265.58 -0.906212C263.093 3.40031 264.569 8.90704 268.875 11.3934ZM265.57 30.8903C263.668 34.1835 259.457 35.3119 256.164 33.4105C252.871 31.5092 251.743 27.2981 253.644 24.0049C255.545 20.7117 259.756 19.5833 263.049 21.4847C266.343 23.386 267.471 27.5971 265.57 30.8903ZM246.631 49.9232C248.911 51.2395 251.826 50.4584 253.142 48.1784C254.459 45.8985 253.678 42.9832 251.398 41.6669C249.118 40.3506 246.202 41.1317 244.886 43.4116C243.57 45.6916 244.351 48.6069 246.631 49.9232ZM244.087 60.6855C243.209 62.2054 241.266 62.7262 239.746 61.8487C238.226 60.9711 237.705 59.0276 238.582 57.5076C239.46 55.9877 241.403 55.4669 242.923 56.3444C244.443 57.222 244.964 59.1655 244.087 60.6855ZM233.919 71.94C234.932 72.525 236.228 72.1778 236.813 71.1645C237.398 70.1512 237.051 68.8555 236.037 68.2705C235.024 67.6855 233.728 68.0326 233.143 69.0459C232.558 70.0592 232.905 71.3549 233.919 71.94ZM59.1024 350.368C62.4663 344.542 69.9166 342.545 75.7431 345.909C81.5695 349.273 83.5658 356.723 80.2019 362.55C76.838 368.376 69.3877 370.373 63.5613 367.009C57.7348 363.645 55.7385 356.195 59.1024 350.368ZM91.368 318.847C87.0615 316.36 81.5547 317.836 79.0684 322.142C76.582 326.449 78.0575 331.956 82.364 334.442C86.6706 336.928 92.1773 335.453 94.6637 331.146C97.1501 326.84 95.6745 321.333 91.368 318.847ZM94.6736 299.35C96.575 296.057 100.786 294.928 104.079 296.83C107.372 298.731 108.501 302.942 106.599 306.235C104.698 309.529 100.487 310.657 97.1939 308.756C93.9007 306.854 92.7723 302.643 94.6736 299.35ZM113.613 280.317C111.333 279.001 108.417 279.782 107.101 282.062C105.785 284.342 106.566 287.257 108.846 288.573C111.126 289.89 114.041 289.109 115.357 286.829C116.674 284.549 115.892 281.633 113.613 280.317ZM116.157 269.555C117.034 268.035 118.978 267.514 120.498 268.392C122.018 269.269 122.539 271.213 121.661 272.733C120.783 274.253 118.84 274.773 117.32 273.896C115.8 273.018 115.279 271.075 116.157 269.555ZM126.325 258.3C125.311 257.715 124.016 258.062 123.431 259.076C122.846 260.089 123.193 261.385 124.206 261.97C125.219 262.555 126.515 262.208 127.1 261.194C127.685 260.181 127.338 258.885 126.325 258.3ZM32.5081 0.278732C37.2654 5.03603 37.2654 12.7491 32.5081 17.5064C27.7508 22.2637 20.0377 22.2637 15.2804 17.5064C10.5231 12.7491 10.5231 5.03603 15.2804 0.278732C20.0377 -4.47857 27.7508 -4.47857 32.5081 0.278732ZM54.6043 39.6032C58.1205 36.0869 58.1205 30.3859 54.6043 26.8697C51.088 23.3534 45.387 23.3534 41.8707 26.8697C38.3545 30.3859 38.3545 36.0869 41.8707 39.6032C45.387 43.1195 51.088 43.1195 54.6043 39.6032ZM72.5812 47.8424C75.2701 50.5313 75.2701 54.8909 72.5812 57.5798C69.8923 60.2687 65.5327 60.2687 62.8438 57.5798C60.1549 54.8909 60.1549 50.5313 62.8438 47.8424C65.5327 45.1535 69.8923 45.1535 72.5812 47.8424ZM86.0639 71.062C87.9254 69.2005 87.9254 66.1823 86.0639 64.3207C84.2023 62.4592 81.1841 62.4592 79.3226 64.3207C77.461 66.1823 77.461 69.2005 79.3226 71.062C81.1841 72.9236 84.2023 72.9236 86.0639 71.062ZM95.8009 76.3051C97.042 77.5461 97.042 79.5582 95.8009 80.7992C94.5599 82.0403 92.5478 82.0403 91.3068 80.7992C90.0657 79.5582 90.0657 77.5461 91.3068 76.3051C92.5478 75.064 94.5599 75.064 95.8009 76.3051ZM104.04 89.0393C104.868 88.212 104.868 86.8705 104.04 86.0432C103.213 85.2158 101.872 85.2158 101.044 86.0432C100.217 86.8705 100.217 88.212 101.044 89.0393C101.872 89.8667 103.213 89.8667 104.04 89.0393ZM327.735 329.961C322.978 325.204 322.978 317.491 327.735 312.734C332.493 307.976 340.206 307.976 344.963 312.734C349.72 317.491 349.72 325.204 344.963 329.961C340.206 334.719 332.493 334.719 327.735 329.961ZM305.639 290.637C302.123 294.153 302.123 299.854 305.639 303.37C309.155 306.887 314.856 306.887 318.373 303.37C321.889 299.854 321.889 294.153 318.373 290.637C314.856 287.121 309.155 287.121 305.639 290.637ZM287.662 282.398C284.973 279.709 284.973 275.349 287.662 272.66C290.351 269.971 294.711 269.971 297.4 272.66C300.089 275.349 300.089 279.709 297.4 282.398C294.711 285.087 290.351 285.087 287.662 282.398ZM274.18 259.178C272.318 261.04 272.318 264.058 274.18 265.919C276.041 267.781 279.059 267.781 280.921 265.919C282.782 264.058 282.782 261.04 280.921 259.178C279.059 257.317 276.041 257.317 274.18 259.178ZM264.442 253.935C263.201 252.694 263.201 250.682 264.442 249.441C265.684 248.2 267.696 248.2 268.937 249.441C270.178 250.682 270.178 252.694 268.937 253.935C267.696 255.176 265.684 255.176 264.442 253.935ZM256.203 241.201C255.376 242.028 255.376 243.37 256.203 244.197C257.03 245.024 258.372 245.024 259.199 244.197C260.027 243.37 260.027 242.028 259.199 241.201C258.372 240.373 257.03 240.373 256.203 241.201ZM80.2017 -32.3088C83.5656 -26.4823 81.5693 -19.0321 75.7428 -15.6681C69.9164 -12.3042 62.4661 -14.3005 59.1022 -20.127C55.7382 -25.9535 57.7345 -33.4038 63.561 -36.7677C69.3875 -40.1316 76.8378 -38.1353 80.2017 -32.3088ZM91.3671 11.3946C95.6736 8.90825 97.1491 3.40152 94.6627 -0.905006C92.1764 -5.21153 86.6696 -6.68705 82.3631 -4.20068C78.0566 -1.7143 76.5811 3.79243 79.0674 8.09895C81.5538 12.4055 87.0605 13.881 91.3671 11.3946ZM106.599 24.0058C108.5 27.2991 107.372 31.5101 104.079 33.4114C100.786 35.3128 96.5745 34.1844 94.6732 30.8912C92.7719 27.598 93.9002 23.387 97.1934 21.4856C100.487 19.5843 104.698 20.7126 106.599 24.0058ZM113.613 49.9238C115.892 48.6075 116.674 45.6922 115.357 43.4123C114.041 41.1323 111.126 40.3512 108.846 41.6675C106.566 42.9838 105.785 45.8991 107.101 48.1791C108.417 50.459 111.333 51.2402 113.613 49.9238ZM121.661 57.5084C122.538 59.0283 122.018 60.9719 120.498 61.8494C118.978 62.727 117.034 62.2062 116.157 60.6862C115.279 59.1663 115.8 57.2227 117.32 56.3452C118.84 55.4677 120.783 55.9884 121.661 57.5084ZM126.324 71.9412C127.337 71.3562 127.684 70.0605 127.099 69.0472C126.514 68.0339 125.218 67.6867 124.205 68.2717C123.192 68.8568 122.845 70.1525 123.43 71.1658C124.015 72.1791 125.31 72.5263 126.324 71.9412ZM280.041 362.551C276.677 356.724 278.674 349.274 284.5 345.91C290.327 342.546 297.777 344.542 301.141 350.369C304.505 356.195 302.508 363.646 296.682 367.01C290.855 370.373 283.405 368.377 280.041 362.551ZM268.876 318.847C264.569 321.334 263.094 326.84 265.58 331.147C268.067 335.453 273.573 336.929 277.88 334.443C282.186 331.956 283.662 326.449 281.175 322.143C278.689 317.836 273.182 316.361 268.876 318.847ZM253.644 306.236C251.743 302.943 252.871 298.732 256.164 296.83C259.457 294.929 263.668 296.057 265.57 299.351C267.471 302.644 266.343 306.855 263.049 308.756C259.756 310.658 255.545 309.529 253.644 306.236ZM246.63 280.318C244.35 281.634 243.569 284.55 244.886 286.83C246.202 289.109 249.117 289.891 251.397 288.574C253.677 287.258 254.458 284.343 253.142 282.063C251.826 279.783 248.91 279.002 246.63 280.318ZM238.582 272.733C237.704 271.214 238.225 269.27 239.745 268.392C241.265 267.515 243.209 268.036 244.086 269.556C244.964 271.076 244.443 273.019 242.923 273.897C241.403 274.774 239.46 274.253 238.582 272.733ZM233.919 258.301C232.906 258.886 232.559 260.181 233.144 261.195C233.729 262.208 235.025 262.555 236.038 261.97C237.051 261.385 237.398 260.089 236.813 259.076C236.228 258.063 234.933 257.716 233.919 258.301ZM344.963 17.5066C340.206 22.2639 332.493 22.2639 327.735 17.5066C322.978 12.7493 322.978 5.03618 327.735 0.278885C332.493 -4.47841 340.206 -4.47841 344.963 0.278885C349.72 5.03618 349.72 12.7493 344.963 17.5066ZM305.639 39.6028C309.155 43.119 314.856 43.119 318.372 39.6028C321.888 36.0865 321.888 30.3855 318.372 26.8693C314.856 23.353 309.155 23.353 305.639 26.8693C302.122 30.3855 302.122 36.0865 305.639 39.6028ZM297.399 57.5797C294.71 60.2686 290.351 60.2686 287.662 57.5797C284.973 54.8908 284.973 50.5313 287.662 47.8424C290.351 45.1535 294.71 45.1535 297.399 47.8424C300.088 50.5313 300.088 54.8908 297.399 57.5797ZM274.18 71.0624C276.041 72.9239 279.059 72.9239 280.921 71.0624C282.783 69.2008 282.783 66.1827 280.921 64.3211C279.059 62.4596 276.041 62.4596 274.18 64.3211C272.318 66.1827 272.318 69.2008 274.18 71.0624ZM268.937 80.7995C267.696 82.0405 265.684 82.0405 264.443 80.7995C263.201 79.5584 263.201 77.5463 264.443 76.3053C265.684 75.0642 267.696 75.0642 268.937 76.3053C270.178 77.5463 270.178 79.5584 268.937 80.7995ZM256.202 89.0388C257.03 89.8662 258.371 89.8662 259.199 89.0388C260.026 88.2115 260.026 86.87 259.199 86.0427C258.371 85.2153 257.03 85.2153 256.202 86.0427C255.375 86.87 255.375 88.2115 256.202 89.0388ZM15.2803 312.734C20.0376 307.977 27.7507 307.977 32.508 312.734C37.2653 317.491 37.2653 325.204 32.508 329.962C27.7507 334.719 20.0376 334.719 15.2803 329.962C10.523 325.204 10.523 317.491 15.2803 312.734ZM54.6048 290.638C51.0885 287.121 45.3875 287.121 41.8713 290.638C38.355 294.154 38.355 299.855 41.8713 303.371C45.3875 306.887 51.0885 306.887 54.6048 303.371C58.121 299.855 58.121 294.154 54.6048 290.638ZM62.844 272.661C65.5329 269.972 69.8924 269.972 72.5814 272.661C75.2702 275.35 75.2702 279.709 72.5813 282.398C69.8924 285.087 65.5329 285.087 62.844 282.398C60.1551 279.709 60.1551 275.35 62.844 272.661ZM86.0636 259.178C84.202 257.317 81.1839 257.317 79.3223 259.178C77.4608 261.04 77.4608 264.058 79.3223 265.919C81.1839 267.781 84.202 267.781 86.0636 265.919C87.9251 264.058 87.9251 261.04 86.0636 259.178ZM91.3066 249.441C92.5477 248.2 94.5598 248.2 95.8008 249.441C97.0419 250.682 97.0419 252.694 95.8008 253.935C94.5598 255.176 92.5477 255.176 91.3066 253.935C90.0656 252.694 90.0656 250.682 91.3066 249.441ZM104.041 241.202C103.214 240.374 101.872 240.374 101.045 241.202C100.217 242.029 100.217 243.37 101.045 244.198C101.872 245.025 103.214 245.025 104.041 244.198C104.868 243.37 104.868 242.029 104.041 241.202ZM377.552 65.2002C371.725 68.5641 364.275 66.5678 360.911 60.7413C357.547 54.9149 359.543 47.4646 365.37 44.1007C371.196 40.7368 378.646 42.7331 382.01 48.5595C385.374 54.386 383.378 61.8363 377.552 65.2002ZM333.848 76.3656C336.334 80.6721 341.841 82.1476 346.148 79.6612C350.454 77.1749 351.93 71.6681 349.443 67.3616C346.957 63.0551 341.45 61.5796 337.144 64.0659C332.837 66.5523 331.362 72.0591 333.848 76.3656ZM321.237 91.5975C317.944 93.4989 313.733 92.3705 311.831 89.0773C309.93 85.7841 311.058 81.5731 314.352 79.6717C317.645 77.7704 321.856 78.8987 323.757 82.1919C325.658 85.4852 324.53 89.6962 321.237 91.5975ZM295.319 98.6111C296.635 100.891 299.551 101.672 301.83 100.356C304.11 99.0395 304.892 96.1242 303.575 93.8443C302.259 91.5644 299.344 90.7832 297.064 92.0995C294.784 93.4158 294.003 96.3312 295.319 98.6111ZM287.734 106.659C286.214 107.537 284.271 107.016 283.393 105.496C282.516 103.976 283.037 102.033 284.556 101.155C286.076 100.278 288.02 100.798 288.898 102.318C289.775 103.838 289.254 105.782 287.734 106.659ZM273.301 111.322C273.887 112.335 275.182 112.683 276.196 112.098C277.209 111.513 277.556 110.217 276.971 109.204C276.386 108.19 275.09 107.843 274.077 108.428C273.064 109.013 272.716 110.309 273.301 111.322ZM-17.3079 265.04C-11.4815 261.676 -4.03119 263.672 -0.667274 269.499C2.69664 275.325 0.700344 282.775 -5.12613 286.139C-10.9526 289.503 -18.4029 287.507 -21.7668 281.68C-25.1307 275.854 -23.1344 268.404 -17.3079 265.04ZM26.3955 253.874C23.9091 249.568 18.4024 248.092 14.0959 250.579C9.78934 253.065 8.31382 258.572 10.8002 262.878C13.2866 267.185 18.7933 268.66 23.0998 266.174C27.4063 263.688 28.8819 258.181 26.3955 253.874ZM39.0067 238.642C42.2999 236.741 46.511 237.869 48.4123 241.163C50.3136 244.456 49.1853 248.667 45.8921 250.568C42.5989 252.47 38.3878 251.341 36.4865 248.048C34.5851 244.755 35.7135 240.544 39.0067 238.642ZM64.9247 231.629C63.6084 229.349 60.6931 228.568 58.4131 229.884C56.1332 231.2 55.3521 234.116 56.6684 236.396C57.9847 238.676 60.9 239.457 63.1799 238.14C65.4599 236.824 66.241 233.909 64.9247 231.629ZM72.5092 223.581C74.0292 222.703 75.9727 223.224 76.8503 224.744C77.7278 226.264 77.2071 228.207 75.6871 229.085C74.1672 229.962 72.2236 229.442 71.3461 227.922C70.4685 226.402 70.9893 224.458 72.5092 223.581ZM86.9421 218.918C86.3571 217.905 85.0614 217.557 84.0481 218.142C83.0348 218.727 82.6876 220.023 83.2726 221.036C83.8576 222.05 85.1533 222.397 86.1666 221.812C87.1799 221.227 87.5271 219.931 86.9421 218.918ZM365.37 286.139C359.543 282.776 357.547 275.325 360.911 269.499C364.275 263.672 371.725 261.676 377.551 265.04C383.378 268.404 385.374 275.854 382.01 281.681C378.646 287.507 371.196 289.503 365.37 286.139ZM333.848 253.874C331.362 258.18 332.837 263.687 337.144 266.173C341.451 268.66 346.957 267.184 349.444 262.878C351.93 258.571 350.454 253.065 346.148 250.578C341.841 248.092 336.335 249.567 333.848 253.874ZM314.351 250.568C311.058 248.667 309.93 244.456 311.831 241.163C313.733 237.869 317.944 236.741 321.237 238.642C324.53 240.544 325.658 244.755 323.757 248.048C321.856 251.341 317.645 252.47 314.351 250.568ZM295.319 231.629C294.002 233.909 294.783 236.825 297.063 238.141C299.343 239.457 302.259 238.676 303.575 236.396C304.891 234.116 304.11 231.201 301.83 229.885C299.55 228.568 296.635 229.349 295.319 231.629ZM284.556 229.085C283.036 228.208 282.516 226.264 283.393 224.744C284.271 223.224 286.214 222.703 287.734 223.581C289.254 224.458 289.775 226.402 288.897 227.922C288.02 229.442 286.076 229.963 284.556 229.085ZM273.302 218.917C272.717 219.931 273.064 221.226 274.077 221.811C275.091 222.396 276.386 222.049 276.971 221.036C277.556 220.023 277.209 218.727 276.196 218.142C275.182 217.557 273.887 217.904 273.302 218.917ZM-5.1263 44.1009C0.700169 47.4648 2.69646 54.9151 -0.667454 60.7415C-4.03137 66.568 -11.4817 68.5643 -17.3081 65.2004C-23.1346 61.8365 -25.1309 54.3862 -21.767 48.5597C-18.4031 42.7333 -10.9528 40.737 -5.1263 44.1009ZM26.3949 76.3665C28.8813 72.06 27.4058 66.5532 23.0992 64.0669C18.7927 61.5805 13.286 63.056 10.7996 67.3625C8.31323 71.6691 9.78875 77.1758 14.0953 79.6622C18.4018 82.1485 23.9085 80.673 26.3949 76.3665ZM45.8918 79.6721C49.185 81.5735 50.3133 85.7845 48.412 89.0777C46.5107 92.371 42.2996 93.4993 39.0064 91.5979C35.7132 89.6966 34.5848 85.4856 36.4862 82.1924C38.3875 78.8991 42.5985 77.7708 45.8918 79.6721ZM64.9247 98.611C66.241 96.3311 65.4598 93.4158 63.1799 92.0994C60.9 90.7831 57.9847 91.5643 56.6684 93.8442C55.352 96.1241 56.1332 99.0395 58.4131 100.356C60.693 101.672 63.6084 100.891 64.9247 98.611ZM75.687 101.155C77.2069 102.033 77.7277 103.976 76.8502 105.496C75.9726 107.016 74.0291 107.537 72.5091 106.66C70.9892 105.782 70.4684 103.838 71.3459 102.318C72.2235 100.799 74.167 100.278 75.687 101.155ZM86.9414 111.323C87.5265 110.31 87.1793 109.014 86.166 108.429C85.1527 107.844 83.857 108.191 83.272 109.205C82.6869 110.218 83.0341 111.514 84.0474 112.099C85.0607 112.684 86.3564 112.336 86.9414 111.323Z" fill="url(#paint1_radial_1195_5305)"/>
</g>
<defs>
<radialGradient id="paint0_radial_1195_5305" cx="0" cy="0" r="1" gradientUnits="userSpaceOnUse" gradientTransform="translate(180 165) rotate(90) scale(182.5 199.091)">
<stop offset="0.739583" stop-color="#FFFCEC"/>
<stop offset="1" stop-color="#FFBCC8"/>
</radialGradient>
<radialGradient id="paint1_radial_1195_5305" cx="0" cy="0" r="1" gradientUnits="userSpaceOnUse" gradientTransform="translate(180.381 139.408) rotate(90) scale(342.224)">
<stop stop-color="#FFB7C5"/>
<stop offset="0.625" stop-color="white"/>
</radialGradient>
</defs>
</svg>
