<svg width="46" height="59" viewBox="0 0 46 59" fill="none" xmlns="http://www.w3.org/2000/svg">
<rect x="1" y="14" width="44" height="44" fill="url(#paint0_linear_1321_5277)" stroke="#2CA6A9" stroke-width="2"/>
<rect x="6.5" y="19.5" width="33" height="33" fill="url(#paint1_linear_1321_5277)" stroke="white"/>
<mask id="mask0_1321_5277" style="mask-type:alpha" maskUnits="userSpaceOnUse" x="8" y="24" width="29" height="24">
<path d="M13.0112 45.356C15.4479 47.0614 18.6799 47.8899 22.8914 47.8899C27.1029 47.8899 30.3349 47.0604 32.7716 45.356C35.3397 43.5584 36.9996 40.4784 36.9996 37.5091C36.9996 35.484 36.528 33.671 35.1204 31.8156L34.7832 26.6702C34.715 25.9389 34.2868 25.2956 33.6404 24.9481C32.9929 24.6006 32.2204 24.6006 31.5729 24.9481L27.3283 27.6031C26.0614 27.3176 24.5152 27.2318 22.8914 27.2318C21.2676 27.2318 19.7214 27.3176 18.4545 27.6031L14.2099 24.9481C13.5625 24.6017 12.7899 24.6017 12.1425 24.9481C11.495 25.2956 11.0679 25.9389 10.9996 26.6702L10.6624 31.8156C9.25482 33.671 8.7832 35.484 8.7832 37.5091C8.7832 40.4784 10.4421 43.5584 13.0112 45.356Z" fill="#D9D9D9"/>
</mask>
<g mask="url(#mask0_1321_5277)">
<path d="M13.0112 45.356C15.4479 47.0614 18.6799 47.8899 22.8914 47.8899C27.1029 47.8899 30.3349 47.0604 32.7716 45.356C35.3397 43.5584 36.9996 40.4784 36.9996 37.5091C36.9996 35.484 36.528 33.671 35.1204 31.8156L34.7832 26.6702C34.715 25.9389 34.2868 25.2956 33.6404 24.9481C32.9929 24.6006 32.2204 24.6006 31.5729 24.9481L27.3283 27.6031C26.0614 27.3176 24.5152 27.2318 22.8914 27.2318C21.2676 27.2318 19.7214 27.3176 18.4545 27.6031L14.2099 24.9481C13.5625 24.6017 12.7899 24.6017 12.1425 24.9481C11.495 25.2956 11.0679 25.9389 10.9996 26.6702L10.6624 31.8156C9.25482 33.671 8.7832 35.484 8.7832 37.5091C8.7832 40.4784 10.4421 43.5584 13.0112 45.356Z" fill="url(#paint2_radial_1321_5277)"/>
<g filter="url(#filter0_f_1321_5277)">
<path d="M27.6146 40.9556C25.725 38.4755 24.8966 37.3047 22.6254 37.3047C20.3542 37.3047 19.5257 38.4755 17.6351 40.9556C16.6081 42.3032 14.2345 43.928 12.5166 44.2135C12.6914 44.3552 12.8703 44.4917 13.0554 44.621C15.4921 46.3265 18.7242 47.1549 22.9356 47.1549C27.1471 47.1549 30.3791 46.3254 32.8158 44.621C32.9824 44.5051 33.1447 44.3831 33.303 44.2559C31.5851 44.3086 28.7616 42.4594 27.6156 40.9556H27.6146Z" fill="white"/>
</g>
<path d="M22.5807 40.1555C23.0896 40.1555 23.5022 39.743 23.5022 39.234C23.5022 38.7251 23.0896 38.3125 22.5807 38.3125C22.0718 38.3125 21.6592 38.7251 21.6592 39.234C21.6592 39.743 22.0718 40.1555 22.5807 40.1555Z" fill="#786565"/>
<path d="M25.0024 40.7988C25.0024 40.7988 24.7242 41.4587 23.8368 41.4959C23.0042 41.53 22.6298 40.9788 22.5864 40.9095C22.5843 40.9064 22.5802 40.9064 22.5781 40.9095C22.5347 40.9788 22.1603 41.53 21.3277 41.4959C20.4393 41.4597 20.1621 40.7988 20.1621 40.7988" stroke="#786565" stroke-width="1.03425" stroke-miterlimit="10" stroke-linecap="round"/>
<path d="M19.7191 36.9621C19.8898 36.2547 19.8877 35.5741 19.7481 35.0498C19.6085 34.5254 19.1813 34.3341 18.7976 34.242C18.4139 34.15 17.9475 34.1251 17.5844 34.5285C17.2214 34.9319 16.9101 35.5369 16.7394 36.2443C16.5688 36.9518 16.5709 37.6323 16.7105 38.1567C16.7105 38.1587 16.7115 38.1608 16.7126 38.1629C16.787 38.438 17.0477 38.621 17.3321 38.621H18.6001C18.8121 38.621 19.0138 38.5197 19.1317 38.3428C19.382 37.9695 19.5909 37.4947 19.7191 36.9621Z" fill="#786565"/>
<path d="M29.0453 36.9641C29.216 36.2566 29.2139 35.5761 29.0743 35.0517C28.9346 34.5274 28.5075 34.336 28.1238 34.244C27.7401 34.1519 27.2736 34.1271 26.9106 34.5305C26.5476 34.9338 26.2363 35.5389 26.0656 36.2463C25.895 36.9537 25.897 37.6342 26.0367 38.1586C26.0367 38.1607 26.0377 38.1627 26.0387 38.1648C26.1132 38.4399 26.3738 38.623 26.6582 38.623H27.9262C28.1383 38.623 28.3399 38.5216 28.4578 38.3448C28.7081 37.9714 28.9171 37.4967 29.0453 36.9641Z" fill="#786565"/>
<g filter="url(#filter1_f_1321_5277)">
<path d="M19.1398 30.3062C19.5446 31.9465 19.5036 32.5461 20.1912 32.5461H20.1942C20.8818 32.5461 20.8408 31.4519 21.2456 29.8115C21.2816 29.6671 21.3216 29.5295 21.3655 29.397C21.3925 29.3158 21.4195 29.2367 21.4485 29.1605C21.5185 28.9775 21.7863 28.9923 21.8363 29.1823C21.8443 29.212 21.8513 29.2416 21.8593 29.2713C21.9162 29.5018 21.9642 29.7225 22.0072 29.9292C22.0212 29.9985 22.0352 30.0668 22.0482 30.133C22.0652 30.2211 22.0822 30.3072 22.0981 30.3913C22.1381 30.6 22.1741 30.791 22.2111 30.9641C22.2261 31.0334 22.2411 31.0996 22.2561 31.162C22.386 31.6972 22.5459 32.0059 22.9117 32.0059H22.9147C23.3015 32.0059 23.4574 31.6596 23.5923 31.065C23.6073 30.9987 23.6223 30.9295 23.6363 30.8573C23.6433 30.8216 23.6513 30.784 23.6583 30.7464C23.6733 30.6713 23.6883 30.5931 23.7033 30.513C23.7183 30.4328 23.7342 30.3487 23.7512 30.2627C23.8092 29.9619 23.8762 29.6295 23.9651 29.2703C23.9721 29.2407 23.9801 29.211 23.9881 29.1813C24.0381 28.9913 24.3059 28.9765 24.3759 29.1595C24.4049 29.2347 24.4319 29.3129 24.4578 29.393C24.5018 29.5266 24.5428 29.6651 24.5788 29.8105C24.9836 31.4509 24.9426 32.5451 25.6302 32.5451H25.6332C26.3208 32.5451 26.2798 31.9455 26.6846 30.3052C27.0894 28.6649 30.0987 28.2582 30.0987 28.2582L29.679 27.3866L27.83 27.534C26.4198 27.2877 24.8097 27.168 22.9107 27.168C21.0117 27.168 19.4016 27.2877 17.9914 27.534L16.1424 27.3866L15.7227 28.2582C15.7227 28.2582 18.733 28.6649 19.1368 30.3052L19.1398 30.3062Z" fill="#EEBB37"/>
</g>
<g filter="url(#filter2_f_1321_5277)">
<path d="M35.9237 33.6832L35.0658 33.5801C35.0658 33.5801 34.6511 34.8413 34.0642 34.9239C32.5434 35.137 31.5521 34.898 31.4714 35.5005V35.5034C31.3898 36.1059 32.3821 36.2084 33.8151 36.769C33.9915 36.8387 34.1579 36.9144 34.3122 36.9941C34.4927 37.0877 34.4393 37.3545 34.2366 37.3744H34.2305C32.7017 37.5228 31.7185 37.3495 31.6378 37.951V37.9539C31.5561 38.5564 32.5485 38.6589 33.9815 39.2195L33.9895 39.2225C34.1781 39.2962 34.1549 39.568 33.9563 39.6089C33.7878 39.6437 33.6083 39.6706 33.4208 39.6895C31.892 39.8369 30.9087 39.6636 30.8281 40.266V40.269C30.7464 40.8714 31.5481 41.0268 32.0624 41.5346C33.4208 42.8759 32.9497 43.0949 32.9497 43.0949H34.0652C35.5909 41.3932 36.5106 39.1777 36.5106 37.0229C36.5106 35.8908 36.3069 34.7507 35.9247 33.6842L35.9237 33.6832Z" fill="#EEBB37"/>
</g>
<g filter="url(#filter3_f_1321_5277)">
<path d="M9.89756 33.6832L10.7555 33.5801C10.7555 33.5801 11.1702 34.8413 11.7571 34.9239C13.2779 35.137 14.2692 34.898 14.3498 35.5005V35.5034C14.4315 36.1059 13.4392 36.2084 12.0062 36.769C11.8297 36.8387 11.6633 36.9144 11.5091 36.9941C11.3285 37.0877 11.382 37.3545 11.5847 37.3744H11.5907C13.1195 37.5228 14.1028 37.3495 14.1835 37.951V37.9539C14.2651 38.5564 13.2728 38.6589 11.8398 39.2195L11.8318 39.2225C11.6432 39.2962 11.6664 39.568 11.865 39.6089C12.0334 39.6437 12.213 39.6706 12.4005 39.6895C13.9293 39.8369 14.9126 39.6636 14.9932 40.266V40.269C15.0749 40.8714 14.2732 41.0268 13.7589 41.5346C12.4005 42.8759 12.8716 43.0949 12.8716 43.0949H11.7561C10.2303 41.3932 9.31064 39.1777 9.31064 37.0229C9.31064 35.8908 9.51435 34.7507 9.89655 33.6842L9.89756 33.6832Z" fill="#EEBB37"/>
</g>
</g>
<path d="M35.1204 31.8156L34.7832 26.6702C34.715 25.9389 34.2868 25.2956 33.6404 24.9481C32.9929 24.6006 32.2204 24.6006 31.5729 24.9481L27.3283 27.6031C26.0614 27.3176 24.5152 27.2318 22.8914 27.2318C21.2676 27.2318 19.7214 27.3176 18.4545 27.6031L14.2099 24.9481C13.5625 24.6017 12.7899 24.6017 12.1425 24.9481C11.495 25.2956 11.0679 25.9389 10.9996 26.6702L10.6624 31.8156C9.25482 33.671 8.7832 35.484 8.7832 37.5091C8.7832 40.4784 10.4421 43.5584 13.0112 45.356C15.4479 47.0614 18.6799 47.8899 22.8914 47.8899C27.1029 47.8899 30.3349 47.0604 32.7716 45.356C35.3397 43.5584 36.9996 40.4784 36.9996 37.5091C36.9996 35.484 36.528 33.671 35.1204 31.8156ZM32.0011 44.2545C29.7981 45.7966 26.8185 46.5454 22.8914 46.5454C18.9644 46.5454 15.9847 45.7955 13.7817 44.2545C11.5622 42.701 10.1277 40.0534 10.1277 37.5091C10.1277 35.694 10.7079 33.8354 11.7205 32.4123C11.7205 32.4123 11.797 32.3006 11.8249 32.2655C12.0504 31.9738 12.5272 31.3946 13.2967 30.7937C13.2967 30.7937 12.4786 30.9737 11.8797 31.3274L12.3379 26.7974C12.3648 26.5119 12.5251 26.2699 12.7785 26.1344C13.0288 26 13.3153 25.9989 13.5656 26.1292L17.6395 28.5049C17.262 28.7314 16.7325 28.9383 16.2857 29.3851C16.2857 29.3851 17.4026 29.0355 18.9064 28.8297C20.5561 28.6042 21.2325 28.5763 22.8904 28.5763C24.5483 28.5763 25.2247 28.6032 26.8743 28.8297C28.3781 29.0355 29.4951 29.3851 29.4951 29.3851C29.0483 28.9383 28.5188 28.7314 28.1413 28.5049L32.2152 26.1292C32.4665 25.9979 32.753 26 33.0023 26.1344C33.2556 26.2699 33.416 26.5119 33.4428 26.7974L33.901 31.3274C33.3022 30.9747 32.4841 30.7937 32.4841 30.7937C33.2536 31.3946 33.7304 31.9748 33.9558 32.2655C33.9838 32.3006 34.0603 32.4123 34.0603 32.4123C35.0718 33.8365 35.653 35.694 35.653 37.5091C35.653 40.0534 34.2185 42.701 31.999 44.2545H32.0011Z" fill="#786565"/>
<circle cx="13" cy="10" r="1" fill="#5CA3E6"/>
<circle cx="1" cy="1" r="1" transform="matrix(1 0 0 -1 28 7)" fill="#5CA3E6"/>
<circle cx="15" cy="8" r="1" fill="#5CA3E6"/>
<circle cx="1" cy="1" r="1" transform="matrix(1 0 0 -1 30 9)" fill="#5CA3E6"/>
<circle cx="17" cy="6" r="1" fill="#5CA3E6"/>
<circle cx="17" cy="6" r="1" fill="#5CA3E6"/>
<circle cx="1" cy="1" r="1" transform="matrix(1 0 0 -1 32 11)" fill="#5CA3E6"/>
<path d="M23.0019 7.4272C22.9379 7.4272 22.861 7.40413 22.7713 7.358C22.6816 7.31187 22.5931 7.25933 22.506 7.20038C21.8012 6.73907 21.1848 6.2534 20.6569 5.74339C20.1315 5.23082 19.724 4.70415 19.4344 4.16338C19.1448 3.62005 19 3.07416 19 2.52571C19 2.1464 19.0602 1.80298 19.1807 1.49543C19.3037 1.18533 19.4716 0.918789 19.6843 0.695819C19.897 0.472849 20.1418 0.301137 20.4185 0.180682C20.6979 0.0602274 20.9952 0 21.3104 0C21.7025 0 22.0396 0.0986705 22.3215 0.296011C22.606 0.49079 22.8328 0.744514 23.0019 1.05718C23.1711 0.744514 23.3966 0.49079 23.6785 0.296011C23.963 0.0986705 24.3013 0 24.6934 0C25.0061 0 25.3021 0.0602274 25.5815 0.180682C25.8608 0.301137 26.1056 0.472849 26.3157 0.695819C26.5284 0.918789 26.695 1.18533 26.8155 1.49543C26.9385 1.80298 27 2.1464 27 2.52571C27 3.07416 26.8552 3.62005 26.5656 4.16338C26.276 4.70415 25.8685 5.23082 25.3431 5.74339C24.8177 6.2534 24.2026 6.73907 23.4978 7.20038C23.4107 7.25933 23.3223 7.31187 23.2326 7.358C23.1429 7.40413 23.066 7.4272 23.0019 7.4272Z" fill="#605DBF"/>
<defs>
<filter id="filter0_f_1321_5277" x="10.9652" y="35.7533" width="23.8889" height="12.9524" filterUnits="userSpaceOnUse" color-interpolation-filters="sRGB">
<feFlood flood-opacity="0" result="BackgroundImageFix"/>
<feBlend mode="normal" in="SourceGraphic" in2="BackgroundImageFix" result="shape"/>
<feGaussianBlur stdDeviation="0.775688" result="effect1_foregroundBlur_1321_5277"/>
</filter>
<filter id="filter1_f_1321_5277" x="14.585" y="26.0303" width="16.6513" height="7.65426" filterUnits="userSpaceOnUse" color-interpolation-filters="sRGB">
<feFlood flood-opacity="0" result="BackgroundImageFix"/>
<feBlend mode="normal" in="SourceGraphic" in2="BackgroundImageFix" result="shape"/>
<feGaussianBlur stdDeviation="0.568838" result="effect1_foregroundBlur_1321_5277"/>
</filter>
<filter id="filter2_f_1321_5277" x="29.6846" y="32.4424" width="7.96383" height="11.791" filterUnits="userSpaceOnUse" color-interpolation-filters="sRGB">
<feFlood flood-opacity="0" result="BackgroundImageFix"/>
<feBlend mode="normal" in="SourceGraphic" in2="BackgroundImageFix" result="shape"/>
<feGaussianBlur stdDeviation="0.568838" result="effect1_foregroundBlur_1321_5277"/>
</filter>
<filter id="filter3_f_1321_5277" x="8.17287" y="32.4424" width="7.96383" height="11.791" filterUnits="userSpaceOnUse" color-interpolation-filters="sRGB">
<feFlood flood-opacity="0" result="BackgroundImageFix"/>
<feBlend mode="normal" in="SourceGraphic" in2="BackgroundImageFix" result="shape"/>
<feGaussianBlur stdDeviation="0.568838" result="effect1_foregroundBlur_1321_5277"/>
</filter>
<linearGradient id="paint0_linear_1321_5277" x1="23" y1="15" x2="23" y2="57" gradientUnits="userSpaceOnUse">
<stop stop-color="#55C4C4"/>
<stop offset="0.989583" stop-color="white"/>
</linearGradient>
<linearGradient id="paint1_linear_1321_5277" x1="23" y1="20" x2="23" y2="52" gradientUnits="userSpaceOnUse">
<stop stop-color="#D6EAEA"/>
<stop offset="1" stop-color="#B0EAEA"/>
</linearGradient>
<radialGradient id="paint2_radial_1321_5277" cx="0" cy="0" r="1" gradientUnits="userSpaceOnUse" gradientTransform="translate(22.8914 36.2887) rotate(90.1435) scale(13.2199 16.0767)">
<stop offset="0.729929" stop-color="#FFDA7A"/>
<stop offset="0.888746" stop-color="#F0BE3D"/>
</radialGradient>
</defs>
</svg>
