<svg width="48" height="48" viewBox="0 0 48 48" fill="none" xmlns="http://www.w3.org/2000/svg">
<g clip-path="url(#clip0_848_13555)">
<path d="M0.0273438 16.1C0.0273438 10.4051 0.0273438 7.55764 1.15321 5.39026C2.10196 3.56382 3.59117 2.07462 5.4176 1.12587C7.58498 0 10.4324 0 16.1273 0H31.9273C37.6223 0 40.4697 0 42.6371 1.12587C44.4635 2.07462 45.9527 3.56382 46.9015 5.39026C48.0273 7.55764 48.0273 10.4051 48.0273 16.1V31.9C48.0273 37.5949 48.0273 40.4424 46.9015 42.6097C45.9527 44.4362 44.4635 45.9254 42.6371 46.8741C40.4697 48 37.6223 48 31.9273 48H16.1273C10.4324 48 7.58498 48 5.4176 46.8741C3.59117 45.9254 2.10196 44.4362 1.15321 42.6097C0.0273438 40.4424 0.0273438 37.5949 0.0273438 31.9V16.1Z" fill="url(#paint0_radial_848_13555)"/>
<path d="M0.0273438 16.1C0.0273438 10.4051 0.0273438 7.55764 1.15321 5.39026C2.10196 3.56382 3.59117 2.07462 5.4176 1.12587C7.58498 0 10.4324 0 16.1273 0H31.9273C37.6223 0 40.4697 0 42.6371 1.12587C44.4635 2.07462 45.9527 3.56382 46.9015 5.39026C48.0273 7.55764 48.0273 10.4051 48.0273 16.1V31.9C48.0273 37.5949 48.0273 40.4424 46.9015 42.6097C45.9527 44.4362 44.4635 45.9254 42.6371 46.8741C40.4697 48 37.6223 48 31.9273 48H16.1273C10.4324 48 7.58498 48 5.4176 46.8741C3.59117 45.9254 2.10196 44.4362 1.15321 42.6097C0.0273438 40.4424 0.0273438 37.5949 0.0273438 31.9V16.1Z" fill="url(#paint1_radial_848_13555)"/>
<path d="M24.0006 6.54492C19.2604 6.54492 18.6655 6.56565 16.8038 6.65038C14.9456 6.73547 13.6773 7.02965 12.5675 7.46129C11.4196 7.9071 10.4458 8.50347 9.47562 9.47401C8.50474 10.4442 7.9084 11.418 7.46114 12.5656C7.02842 13.6758 6.73389 14.9446 6.65025 16.802C6.56698 18.6638 6.54517 19.2591 6.54517 23.9995C6.54517 28.7398 6.56626 29.3329 6.65062 31.1947C6.73607 33.0529 7.03024 34.3213 7.4615 35.4311C7.90767 36.5791 8.50402 37.5529 9.47453 38.5231C10.4443 39.494 11.4181 40.0918 12.5653 40.5376C13.6759 40.9693 14.9445 41.2635 16.8023 41.3486C18.6641 41.4333 19.2586 41.454 23.9985 41.454C28.739 41.454 29.3321 41.4333 31.1939 41.3486C33.052 41.2635 34.3218 40.9693 35.4323 40.5376C36.5799 40.0918 37.5522 39.494 38.522 38.5231C39.4929 37.5529 40.0892 36.5791 40.5365 35.4315C40.9656 34.3213 41.2601 33.0526 41.3474 31.1951C41.431 29.3333 41.4528 28.7398 41.4528 23.9995C41.4528 19.2591 41.431 18.6642 41.3474 16.8024C41.2601 14.9442 40.9656 13.6758 40.5365 12.566C40.0892 11.418 39.4929 10.4442 38.522 9.47401C37.5511 8.5031 36.5803 7.90674 35.4312 7.46129C34.3185 7.02965 33.0495 6.73547 31.1913 6.65038C29.3296 6.56565 28.7369 6.54492 23.9952 6.54492H24.0006ZM22.4349 9.69038C22.8996 9.68965 23.4181 9.69038 24.0006 9.69038C28.6609 9.69038 29.2132 9.7071 31.0535 9.79074C32.7553 9.86856 33.6789 10.1529 34.2941 10.3918C35.1087 10.7082 35.6894 11.0864 36.2999 11.6973C36.9108 12.3082 37.289 12.89 37.606 13.7046C37.8449 14.3191 38.1297 15.2427 38.2071 16.9446C38.2907 18.7846 38.3089 19.3373 38.3089 23.9955C38.3089 28.6536 38.2907 29.2064 38.2071 31.0464C38.1293 32.7482 37.8449 33.6718 37.606 34.2864C37.2897 35.1009 36.9108 35.6809 36.2999 36.2915C35.689 36.9024 35.109 37.2806 34.2941 37.5969C33.6796 37.8369 32.7553 38.1206 31.0535 38.1984C29.2136 38.282 28.6609 38.3002 24.0006 38.3002C19.3401 38.3002 18.7877 38.282 16.9478 38.1984C15.246 38.1198 14.3224 37.8355 13.7068 37.5966C12.8922 37.2802 12.3104 36.902 11.6996 36.2911C11.0887 35.6802 10.7105 35.0998 10.3934 34.2849C10.1545 33.6704 9.86979 32.7467 9.79234 31.0449C9.70871 29.2049 9.69198 28.6522 9.69198 23.9911C9.69198 19.33 9.70871 18.7802 9.79234 16.9402C9.87016 15.2384 10.1545 14.3147 10.3934 13.6995C10.7098 12.8849 11.0887 12.3031 11.6996 11.6922C12.3104 11.0813 12.8922 10.7031 13.7068 10.386C14.322 10.146 15.246 9.86238 16.9478 9.78419C18.5579 9.71147 19.1819 9.68965 22.4349 9.68601V9.69038ZM33.3174 12.5886C32.1611 12.5886 31.223 13.5256 31.223 14.6824C31.223 15.8387 32.1611 16.7769 33.3174 16.7769C34.4738 16.7769 35.4119 15.8387 35.4119 14.6824C35.4119 13.526 34.4738 12.5878 33.3174 12.5878V12.5886ZM24.0006 15.0358C19.0506 15.0358 15.0373 19.0493 15.0373 23.9995C15.0373 28.9496 19.0506 32.9613 24.0006 32.9613C28.9507 32.9613 32.9625 28.9496 32.9625 23.9995C32.9625 19.0493 28.9503 15.0358 24.0003 15.0358H24.0006ZM24.0006 18.1813C27.2136 18.1813 29.8186 20.786 29.8186 23.9995C29.8186 27.2126 27.2136 29.8176 24.0006 29.8176C20.7873 29.8176 18.1826 27.2126 18.1826 23.9995C18.1826 20.786 20.7873 18.1813 24.0006 18.1813V18.1813Z" fill="white"/>
</g>
<defs>
<radialGradient id="paint0_radial_848_13555" cx="0" cy="0" r="1" gradientUnits="userSpaceOnUse" gradientTransform="translate(12.7774 51.697) rotate(-90) scale(47.5715 44.2453)">
<stop stop-color="#FFDD55"/>
<stop offset="0.1" stop-color="#FFDD55"/>
<stop offset="0.5" stop-color="#FF543E"/>
<stop offset="1" stop-color="#C837AB"/>
</radialGradient>
<radialGradient id="paint1_radial_848_13555" cx="0" cy="0" r="1" gradientUnits="userSpaceOnUse" gradientTransform="translate(-8.01291 3.45784) rotate(78.6806) scale(21.2647 87.6539)">
<stop stop-color="#3771C8"/>
<stop offset="0.128" stop-color="#3771C8"/>
<stop offset="1" stop-color="#6600FF" stop-opacity="0"/>
</radialGradient>
<clipPath id="clip0_848_13555">
<rect width="48" height="48" fill="white"/>
</clipPath>
</defs>
</svg>
