<svg width="56" height="27" viewBox="0 0 56 27" fill="none" xmlns="http://www.w3.org/2000/svg">
<rect x="1" y="1" width="53.5298" height="25" rx="12.5" fill="url(#paint0_linear_1721_6211)"/>
<path d="M19.0677 7.76031H20.3807C20.5107 7.76031 20.5627 7.82531 20.5627 7.92931V14.0523C20.5627 14.1563 20.5107 14.2083 20.3807 14.2083H19.0677C18.9507 14.2083 18.8987 14.1563 18.8987 14.0523V13.4023H16.7407C16.6107 13.4023 16.5717 13.3373 16.5717 13.2333V12.1543C16.5717 12.0373 16.6107 11.9853 16.7407 11.9853H18.8987V11.0363H17.2347C17.1177 11.0363 17.0657 10.9713 17.0657 10.8543V9.78831C17.0657 9.67131 17.1177 9.60631 17.2347 9.60631H18.8987V7.92931C18.8987 7.82531 18.9507 7.76031 19.0677 7.76031ZM16.6237 8.70931V9.99631C16.6237 11.9463 14.8427 13.5973 11.5927 14.3253C11.4757 14.3513 11.3847 14.3383 11.3457 14.2343L11.0077 13.1553C10.9817 13.0383 11.0207 12.9473 11.1377 12.9343C13.9457 12.2973 14.9467 11.0493 14.9467 10.0483V9.99631H11.5147C11.3977 9.99631 11.3457 9.93131 11.3457 9.82731V8.70931C11.3457 8.60531 11.3977 8.55331 11.5147 8.55331H16.4547C16.5847 8.55331 16.6237 8.60531 16.6237 8.70931ZM12.7887 14.7933H20.3937C20.5107 14.7933 20.5627 14.8453 20.5627 14.9493V19.1483C20.5627 19.2393 20.5107 19.3043 20.3937 19.3043H19.0807C18.9507 19.3043 18.8987 19.2393 18.8987 19.1483V16.2363H12.7887C12.6717 16.2363 12.6197 16.1713 12.6197 16.0673V14.9493C12.6197 14.8453 12.6717 14.7933 12.7887 14.7933Z" fill="#1E8E95"/>
<path d="M30.2453 12.4143H28.6463C28.5293 12.4143 28.4773 12.3493 28.4773 12.2453V11.2053C28.4773 11.0883 28.5293 11.0363 28.6463 11.0363H30.2453V10.2433H28.6463C28.5293 10.2433 28.4773 10.1783 28.4773 10.0743V9.03431C28.4773 8.91731 28.5293 8.86531 28.6463 8.86531H30.2453V7.92931C30.2453 7.82531 30.2973 7.76031 30.4143 7.76031H31.7273C31.8573 7.76031 31.9093 7.82531 31.9093 7.92931V13.3113C31.9093 13.4153 31.8573 13.4803 31.7273 13.4803H30.4143C30.2973 13.4803 30.2453 13.4153 30.2453 13.3113V12.4143ZM28.1913 13.1683C27.2163 13.3243 25.8123 13.4153 24.3823 13.4153H22.7053C22.6013 13.4153 22.5493 13.3503 22.5493 13.2593V10.3473C22.5493 10.2433 22.6013 10.1653 22.7053 10.1653H26.0723V9.51531H22.6793C22.5753 9.51531 22.5233 9.45031 22.5233 9.33331V8.39731C22.5233 8.29331 22.5753 8.24131 22.6793 8.24131H27.5543C27.6583 8.24131 27.7103 8.29331 27.7103 8.39731V11.2313C27.7103 11.3353 27.6453 11.4003 27.5413 11.4003H24.1873V12.1413H24.6293C25.6303 12.1413 26.8913 12.0503 27.9703 11.8943C28.0873 11.8683 28.1653 11.9203 28.1913 12.0373L28.3213 12.9603C28.3343 13.0643 28.3083 13.1423 28.1913 13.1683ZM26.0463 17.9263H32.0393C32.1563 17.9263 32.2213 17.9783 32.2213 18.0953V19.0703C32.2213 19.1743 32.1563 19.2263 32.0393 19.2263H24.5643C24.4603 19.2263 24.4083 19.1743 24.4083 19.0703V16.1583C24.4083 16.0673 24.4603 15.9893 24.5643 15.9893H30.2713V15.3393H24.5383C24.4343 15.3393 24.3823 15.2743 24.3823 15.1573V14.2083C24.3823 14.1173 24.4343 14.0523 24.5383 14.0523H31.7403C31.8573 14.0523 31.9093 14.1173 31.9093 14.2083V17.0813C31.9093 17.1853 31.8443 17.2633 31.7273 17.2633H26.0463V17.9263Z" fill="#1E8E95"/>
<path d="M40.2658 9.08631V10.1653C40.2658 10.2693 40.2268 10.3343 40.1098 10.3343H33.5708C33.4538 10.3343 33.4018 10.2693 33.4018 10.1653V9.08631C33.4018 8.98231 33.4538 8.91731 33.5708 8.91731H35.9888V7.86431C35.9888 7.74731 36.0408 7.69531 36.1578 7.69531H37.5098C37.6268 7.69531 37.6788 7.76031 37.6788 7.86431V8.91731H40.1098C40.2268 8.91731 40.2658 8.98231 40.2658 9.08631ZM42.6968 11.0623H44.3478C44.4778 11.0623 44.5298 11.1143 44.5298 11.2313V12.3493C44.5298 12.4663 44.4778 12.5313 44.3478 12.5313H42.6968V15.9503C42.6968 16.0543 42.6448 16.1063 42.5148 16.1063H41.1888C41.0848 16.1063 41.0328 16.0543 41.0328 15.9503V7.92931C41.0328 7.82531 41.0978 7.76031 41.2018 7.76031H42.5148C42.6448 7.76031 42.6968 7.82531 42.6968 7.92931V11.0623ZM39.7198 12.9603C39.7198 14.3903 38.5498 15.2353 36.8338 15.2353C35.1308 15.2353 33.9738 14.3903 33.9738 12.9603C33.9738 11.5433 35.1308 10.6983 36.8338 10.6983C38.5498 10.6983 39.7198 11.5433 39.7198 12.9603ZM35.5728 12.9603C35.5728 13.5323 36.0408 13.9223 36.8468 13.9223C37.6528 13.9223 38.1078 13.5323 38.1078 12.9603C38.1078 12.4013 37.6528 12.0113 36.8468 12.0113C36.0408 12.0113 35.5728 12.4013 35.5728 12.9603ZM37.0548 17.6663H42.9568C43.0738 17.6663 43.1258 17.7313 43.1258 17.8483V18.9663C43.1258 19.0703 43.0738 19.1353 42.9568 19.1353H35.5598C35.4428 19.1353 35.3908 19.0703 35.3908 18.9663V15.9633C35.3908 15.8593 35.4428 15.7943 35.5598 15.7943H36.8858C37.0028 15.7943 37.0548 15.8593 37.0548 15.9633V17.6663Z" fill="#1E8E95"/>
<rect x="1" y="1" width="53.5298" height="25" rx="12.5" stroke="url(#paint1_linear_1721_6211)" stroke-width="2"/>
<defs>
<linearGradient id="paint0_linear_1721_6211" x1="27.7649" y1="0" x2="27.7649" y2="27" gradientUnits="userSpaceOnUse">
<stop offset="0.135417" stop-color="#E8FFF8"/>
<stop offset="1" stop-color="#9ED1D2"/>
</linearGradient>
<linearGradient id="paint1_linear_1721_6211" x1="27.7649" y1="0" x2="27.7649" y2="27" gradientUnits="userSpaceOnUse">
<stop stop-color="white"/>
<stop offset="1" stop-color="#7DCCD1"/>
</linearGradient>
</defs>
</svg>
