<svg width="390" height="522" viewBox="0 0 390 522" fill="none" xmlns="http://www.w3.org/2000/svg">
<mask id="mask0_949_9863" style="mask-type:alpha" maskUnits="userSpaceOnUse" x="0" y="0" width="390" height="522">
<path d="M0 0H390V522H0V0Z" fill="white"/>
</mask>
<g mask="url(#mask0_949_9863)">
<path d="M201.6 9.66472C204.063 4.37926 209.365 1 215.196 1H374C382.284 1 389 7.71572 389 16V523H1V58.9231C1 50.6388 7.71573 43.9231 16 43.9231H174.804C181.412 43.9231 187.422 40.0932 190.213 34.1031L201.6 9.66472Z" fill="url(#paint0_linear_949_9863)" stroke="#46977A" stroke-width="2"/>
<path d="M208.078 13.7753C209.555 10.6041 212.737 8.57658 216.235 8.57646L372.5 8.57111C377.47 8.57094 381.5 12.6004 381.5 17.5711V522L8.5 522.006V60.5C8.5 55.5294 12.5294 51.5 17.5 51.5L176.48 51.4997C185.032 51.4997 192.809 46.5435 196.421 38.7915L208.078 13.7753Z" fill="url(#paint1_linear_949_9863)"/>
<path d="M381.5 524L383.5 524V522V17.5711C383.5 11.4958 378.575 6.5709 372.5 6.57111L216.235 6.57646C211.959 6.5766 208.071 9.0547 206.265 12.9306L194.609 37.9468C191.325 44.9941 184.255 49.4997 176.48 49.4997L17.5 49.5C11.4249 49.5 6.5 54.4249 6.5 60.5V522.006V524.006L8.50003 524.006L381.5 524Z" stroke="#F1FFB9" stroke-opacity="0.5" stroke-width="4"/>
<path d="M261.014 34.9189C260.79 34.9189 260.613 34.846 260.48 34.7002C260.353 34.5544 260.289 34.3584 260.289 34.1123V32.1436H260.098C259.464 32.1436 258.904 32.0091 258.416 31.7402C257.933 31.4714 257.552 31.0863 257.274 30.585C257.001 30.0837 256.864 29.4867 256.864 28.7939V23.3799C256.864 22.6872 256.999 22.0902 257.268 21.5889C257.536 21.0876 257.919 20.7025 258.416 20.4336C258.917 20.1602 259.517 20.0234 260.214 20.0234H268.786C269.483 20.0234 270.083 20.1602 270.584 20.4336C271.085 20.7025 271.468 21.0876 271.732 21.5889C272.001 22.0902 272.136 22.6872 272.136 23.3799V28.7939C272.136 29.4867 272.001 30.0837 271.732 30.585C271.468 31.0863 271.085 31.4714 270.584 31.7402C270.083 32.0091 269.483 32.1436 268.786 32.1436H264.541L261.957 34.4473C261.766 34.6159 261.599 34.7367 261.458 34.8096C261.321 34.8825 261.173 34.9189 261.014 34.9189ZM261.096 27.2285C261.415 27.2285 261.684 27.1169 261.902 26.8936C262.126 26.6702 262.237 26.4014 262.237 26.0869C262.237 25.7679 262.126 25.4967 261.902 25.2734C261.684 25.0501 261.415 24.9385 261.096 24.9385C260.777 24.9385 260.506 25.0501 260.282 25.2734C260.059 25.4967 259.947 25.7679 259.947 26.0869C259.947 26.4014 260.059 26.6702 260.282 26.8936C260.506 27.1169 260.777 27.2285 261.096 27.2285ZM264.514 27.2285C264.833 27.2285 265.104 27.1169 265.327 26.8936C265.55 26.6702 265.662 26.4014 265.662 26.0869C265.662 25.7679 265.55 25.4967 265.327 25.2734C265.104 25.0501 264.833 24.9385 264.514 24.9385C264.199 24.9385 263.928 25.0501 263.7 25.2734C263.477 25.4967 263.365 25.7679 263.365 26.0869C263.365 26.4014 263.477 26.6702 263.7 26.8936C263.928 27.1169 264.199 27.2285 264.514 27.2285ZM267.932 27.2285C268.251 27.2285 268.522 27.1169 268.745 26.8936C268.968 26.6702 269.08 26.4014 269.08 26.0869C269.08 25.7679 268.968 25.4967 268.745 25.2734C268.522 25.0501 268.251 24.9385 267.932 24.9385C267.613 24.9385 267.341 25.0501 267.118 25.2734C266.899 25.4967 266.79 25.7679 266.79 26.0869C266.79 26.4014 266.899 26.6702 267.118 26.8936C267.341 27.1169 267.613 27.2285 267.932 27.2285Z" fill="#62CDAF"/>
<path d="M294.297 22.544H292.377V23.904H294.297C294.441 23.904 294.505 23.984 294.505 24.128V25.472C294.505 25.6 294.441 25.664 294.297 25.664H292.377V26.944C292.377 27.072 292.313 27.152 292.153 27.152H290.521C290.393 27.152 290.329 27.072 290.329 26.944V19.488C290.329 19.36 290.393 19.28 290.521 19.28H292.153C292.313 19.28 292.377 19.36 292.377 19.488V20.752H294.297C294.441 20.752 294.505 20.832 294.505 20.976V22.32C294.505 22.464 294.441 22.544 294.297 22.544ZM289.097 25.76C287.849 26.08 286.009 26.256 284.409 26.256H281.753C281.609 26.256 281.545 26.176 281.545 26.048V20.144C281.545 20.016 281.609 19.936 281.737 19.936H283.369C283.513 19.936 283.577 20.016 283.577 20.144V24.48H284.729C285.929 24.48 287.545 24.368 288.825 24.08C288.953 24.048 289.049 24.112 289.081 24.256L289.273 25.504C289.305 25.632 289.257 25.712 289.097 25.76ZM287.705 27.536C290.873 27.536 292.521 28.784 292.521 30.512C292.521 32.208 290.873 33.488 287.705 33.488C284.521 33.488 282.873 32.224 282.873 30.512C282.873 28.784 284.521 27.536 287.705 27.536ZM287.705 31.776C289.705 31.776 290.489 31.184 290.489 30.512C290.489 29.84 289.705 29.248 287.705 29.248C285.705 29.248 284.905 29.84 284.905 30.512C284.905 31.184 285.705 31.776 287.705 31.776Z" fill="white"/>
<path d="M296.342 27.504L295.734 26.224C295.686 26.112 295.718 26.016 295.846 25.968C298.534 25.04 300.47 23.248 300.47 21.68V20.464C300.47 20.336 300.534 20.272 300.662 20.272H302.326C302.47 20.272 302.534 20.336 302.534 20.464V21.68C302.534 23.248 304.454 25.04 307.142 25.968C307.27 26.016 307.302 26.112 307.254 26.224L306.662 27.504C306.614 27.616 306.518 27.664 306.39 27.632C304.15 26.944 302.342 25.632 301.494 24.416C300.646 25.632 298.838 26.944 296.598 27.632C296.47 27.664 296.39 27.616 296.342 27.504ZM302.534 30.192H308.054C308.198 30.192 308.262 30.272 308.262 30.4V31.808C308.262 31.92 308.198 32 308.054 32H294.934C294.806 32 294.742 31.92 294.742 31.808V30.4C294.742 30.272 294.806 30.192 294.934 30.192H300.486V27.376C300.486 27.248 300.55 27.184 300.678 27.184H302.31C302.47 27.184 302.534 27.248 302.534 27.376V30.192Z" fill="white"/>
<path d="M320.771 33.344H319.155C319.011 33.344 318.947 33.28 318.947 33.152V19.488C318.947 19.36 319.011 19.28 319.155 19.28H320.771C320.931 19.28 320.995 19.36 320.995 19.488V33.152C320.995 33.28 320.931 33.344 320.771 33.344ZM312.515 30.112H309.747C309.603 30.112 309.555 30.032 309.555 29.904V24.704C309.555 24.576 309.603 24.496 309.747 24.496H314.659V22.24H309.715C309.587 22.24 309.523 22.176 309.523 22.032V20.752C309.523 20.64 309.587 20.56 309.715 20.56H316.483C316.611 20.56 316.675 20.64 316.675 20.752V25.888C316.675 26.016 316.595 26.096 316.467 26.096H311.571V28.416H312.819C314.051 28.416 315.827 28.288 317.235 27.968C317.363 27.952 317.459 28 317.491 28.16L317.699 29.424C317.715 29.536 317.683 29.584 317.539 29.616C316.115 29.92 314.435 30.112 312.515 30.112Z" fill="white"/>
<path fill-rule="evenodd" clip-rule="evenodd" d="M292.377 20.752H294.297C294.441 20.752 294.505 20.832 294.505 20.976V22.32C294.505 22.464 294.441 22.544 294.297 22.544H292.377V23.904H294.297C294.441 23.904 294.505 23.984 294.505 24.128V25.472C294.505 25.6 294.441 25.664 294.297 25.664H292.377V26.944C292.377 27.072 292.313 27.152 292.153 27.152H290.521C290.393 27.152 290.329 27.072 290.329 26.944V19.488C290.329 19.36 290.393 19.28 290.521 19.28H292.153C292.313 19.28 292.377 19.36 292.377 19.488V20.752ZM294.256 18.752C294.164 18.4798 294.005 18.1879 293.739 17.9218C293.196 17.3785 292.541 17.28 292.153 17.28H290.521C290.024 17.28 289.377 17.4506 288.882 18.0073C288.421 18.526 288.329 19.1165 288.329 19.488V22.1414C287.512 22.3195 286.497 22.422 285.577 22.4613V20.144C285.577 19.7727 285.484 19.1514 284.981 18.6188C284.458 18.0654 283.806 17.936 283.369 17.936H281.737C281.24 17.936 280.593 18.1066 280.098 18.6633C279.637 19.1819 279.545 19.7725 279.545 20.144V26.048C279.545 26.4193 279.638 27.0407 280.141 27.5733C280.568 28.0252 281.081 28.1944 281.493 28.2412C281.093 28.9074 280.873 29.6756 280.873 30.512C280.873 32.1061 281.68 33.4521 283 34.3156C284.248 35.1322 285.885 35.488 287.705 35.488C289.524 35.488 291.157 35.1257 292.401 34.3065C292.791 34.0494 293.137 33.7497 293.431 33.4137C293.9 33.8541 294.472 34 294.934 34H308.054C308.491 34 309.114 33.8721 309.626 33.3602C310.023 32.9631 310.188 32.4998 310.241 32.112H312.515C314.141 32.112 315.622 31.9832 316.947 31.7631V33.152C316.947 33.525 317.043 34.2034 317.626 34.7524C318.184 35.2776 318.832 35.344 319.155 35.344H320.771C321.055 35.344 321.701 35.298 322.272 34.7908C322.897 34.2353 322.995 33.5271 322.995 33.152V19.488C322.995 19.1157 322.9 18.4652 322.357 17.9218C321.814 17.3785 321.159 17.28 320.771 17.28H319.155C318.718 17.28 318.066 17.4094 317.543 17.9628C317.334 18.1839 317.196 18.4203 317.106 18.6478C316.889 18.5856 316.676 18.56 316.483 18.56H309.715C309.221 18.56 308.6 18.7271 308.115 19.2433C307.648 19.7391 307.523 20.3266 307.523 20.752V22.032C307.523 22.3225 307.577 22.8753 307.969 23.3894C307.812 23.6063 307.714 23.8268 307.653 24.0275C306.595 23.6432 305.749 23.118 305.193 22.6005C304.604 22.0517 304.54 21.7122 304.534 21.6819C304.534 21.6799 304.534 21.6793 304.534 21.68V20.464C304.534 20.0911 304.438 19.4127 303.855 18.8636C303.297 18.3385 302.649 18.272 302.326 18.272H300.662C300.29 18.272 299.643 18.3665 299.104 18.9058C298.564 19.4452 298.47 20.0917 298.47 20.464V21.68C298.47 21.6786 298.47 21.6795 298.469 21.6825C298.462 21.7181 298.392 22.0548 297.806 22.5972C297.456 22.9222 296.991 23.2499 296.432 23.544C296.406 23.4415 296.371 23.3339 296.324 23.224C296.477 22.8652 296.505 22.5305 296.505 22.32V20.976C296.505 20.6502 296.438 20.0266 295.945 19.4764C295.415 18.8836 294.735 18.752 294.297 18.752H294.256ZM296.063 25.8906C295.991 25.917 295.919 25.9428 295.846 25.968C295.718 26.016 295.686 26.112 295.734 26.224L296.342 27.504C296.36 27.5459 296.382 27.5788 296.41 27.602C296.428 27.617 296.448 27.6279 296.471 27.6344C296.507 27.6448 296.549 27.6443 296.598 27.632C296.791 27.5726 296.982 27.5085 297.168 27.4403C297.656 27.2619 298.119 27.055 298.552 26.8277C299.115 26.5325 299.626 26.2028 300.073 25.857C300.29 25.6887 300.493 25.5165 300.678 25.3425C300.734 25.2898 300.789 25.237 300.842 25.184C301.095 24.9306 301.313 24.6748 301.489 24.4231C301.491 24.4208 301.492 24.4184 301.494 24.416C301.498 24.4212 301.501 24.4264 301.505 24.4315C301.68 24.6805 301.895 24.9334 302.146 25.184C302.199 25.237 302.254 25.2898 302.31 25.3425C302.495 25.5165 302.697 25.6887 302.915 25.857C303.371 26.2102 303.895 26.5465 304.472 26.8466C304.894 27.0665 305.345 27.2669 305.82 27.4403C306.006 27.5085 306.196 27.5726 306.39 27.632C306.437 27.6437 306.479 27.6447 306.516 27.6359C306.537 27.6309 306.557 27.6229 306.574 27.6119C306.612 27.5887 306.641 27.5523 306.662 27.504L307.254 26.224C307.302 26.112 307.27 26.016 307.142 25.968C307.069 25.9428 306.997 25.917 306.925 25.8906C306.894 25.8794 306.864 25.8681 306.834 25.8566C306.659 25.7905 306.488 25.7207 306.32 25.6476C304.906 25.03 303.773 24.1752 303.127 23.2769C303.061 23.1841 302.999 23.0909 302.943 22.9973C302.678 22.5563 302.534 22.1098 302.534 21.68V20.464C302.534 20.336 302.47 20.272 302.326 20.272H300.662C300.534 20.272 300.47 20.336 300.47 20.464V21.68C300.47 22.0735 300.348 22.4812 300.123 22.8857C300.049 23.0185 299.964 23.1509 299.868 23.2824C299.218 24.1787 298.081 25.0312 296.669 25.6475C296.61 25.6731 296.551 25.6983 296.491 25.7231C296.38 25.7691 296.268 25.8136 296.154 25.8566C296.124 25.8681 296.094 25.8794 296.063 25.8906ZM302.534 27.376C302.534 27.248 302.47 27.184 302.31 27.184H300.678C300.55 27.184 300.486 27.248 300.486 27.376V30.192H294.934C294.806 30.192 294.742 30.272 294.742 30.4V31.808C294.742 31.92 294.806 32 294.934 32H308.054C308.198 32 308.262 31.92 308.262 31.808V30.4C308.262 30.272 308.198 30.192 308.054 30.192H302.534V27.376ZM309.555 29.904C309.555 29.9446 309.56 29.9804 309.571 30.0103C309.595 30.0747 309.649 30.112 309.747 30.112H312.515C312.617 30.112 312.718 30.1115 312.819 30.1104C314.187 30.0958 315.43 29.9833 316.541 29.8029C316.679 29.7806 316.814 29.7573 316.947 29.7331C317.116 29.7023 317.281 29.67 317.443 29.6362C317.475 29.6295 317.507 29.6228 317.539 29.616C317.564 29.6104 317.586 29.6042 317.605 29.5973C317.693 29.565 317.712 29.5162 317.699 29.424L317.491 28.16C317.459 28 317.363 27.952 317.235 27.968C317.22 27.9715 317.205 27.9749 317.189 27.9783C317.188 27.9787 317.186 27.9791 317.184 27.9794C317.181 27.9801 317.179 27.9807 317.176 27.9813C317.1 27.998 317.024 28.0142 316.947 28.0298C316.844 28.0508 316.739 28.0708 316.632 28.0899C316.505 28.1127 316.377 28.1342 316.247 28.1543C315.35 28.2938 314.396 28.372 313.571 28.4018C313.305 28.4114 313.052 28.416 312.819 28.416H311.571V26.096H316.467C316.517 26.096 316.56 26.0836 316.594 26.0606C316.623 26.0407 316.645 26.0129 316.659 25.9784C316.669 25.952 316.675 25.9217 316.675 25.888V20.752C316.675 20.7197 316.67 20.69 316.659 20.6642C316.633 20.6005 316.574 20.56 316.483 20.56H309.715C309.587 20.56 309.523 20.64 309.523 20.752V22.032C309.523 22.176 309.587 22.24 309.715 22.24H314.659V24.496H309.747C309.649 24.496 309.595 24.5333 309.571 24.5978C309.56 24.6277 309.555 24.6635 309.555 24.704V29.904ZM318.947 33.152C318.947 33.28 319.011 33.344 319.155 33.344H320.771C320.931 33.344 320.995 33.28 320.995 33.152V19.488C320.995 19.36 320.931 19.28 320.771 19.28H319.155C319.011 19.28 318.947 19.36 318.947 19.488V33.152ZM294.477 28.2391C294.318 28.272 294.154 28.3238 293.991 28.3994C293.972 28.3632 293.951 28.3272 293.931 28.2916C294.072 28.1073 294.17 27.9169 294.237 27.734L294.477 28.2391ZM288.329 25.9263C288.602 25.8762 288.86 25.8207 289.097 25.76C289.136 25.7484 289.168 25.735 289.194 25.7194C289.207 25.7116 289.218 25.7032 289.228 25.6943C289.249 25.6762 289.263 25.6557 289.272 25.6327C289.286 25.5965 289.285 25.5539 289.273 25.504L289.081 24.256C289.049 24.112 288.953 24.048 288.825 24.08C288.775 24.0912 288.725 24.1021 288.675 24.1127C288.652 24.1175 288.63 24.1221 288.607 24.1268C288.516 24.1454 288.423 24.1632 288.329 24.1802C288.167 24.2096 288.001 24.2365 287.833 24.2612C287.086 24.3709 286.296 24.4349 285.577 24.4629C285.279 24.4746 284.994 24.48 284.729 24.48H283.577V20.144C283.577 20.016 283.513 19.936 283.369 19.936H281.737C281.609 19.936 281.545 20.016 281.545 20.144V26.048C281.545 26.0994 281.555 26.1431 281.577 26.1769C281.609 26.2274 281.667 26.256 281.753 26.256H284.409C284.515 26.256 284.621 26.2553 284.729 26.2537C285.715 26.2397 286.768 26.162 287.705 26.0276C287.882 26.0023 288.054 25.9749 288.222 25.9455C288.258 25.9392 288.293 25.9328 288.329 25.9263ZM288.412 27.558C288.185 27.5435 287.95 27.536 287.705 27.536C286.307 27.536 285.205 27.7766 284.409 28.1927C284.369 28.2134 284.331 28.2345 284.292 28.256C283.732 28.5731 283.336 28.9823 283.107 29.4583C282.951 29.7814 282.873 30.1353 282.873 30.512C282.873 30.8725 282.946 31.2131 283.091 31.5263C283.635 32.7003 285.191 33.488 287.705 33.488C290.233 33.488 291.793 32.6731 292.32 31.4822C292.454 31.1805 292.521 30.8548 292.521 30.512C292.521 30.1385 292.444 29.7874 292.291 29.4665C292.24 29.3581 292.179 29.2532 292.111 29.152C291.779 28.6638 291.247 28.2626 290.521 27.9821C290.231 27.8702 289.911 27.7775 289.559 27.7061C289.207 27.6346 288.825 27.5845 288.412 27.558ZM284.942 30.2701C285.118 29.7041 285.949 29.248 287.705 29.248C289.461 29.248 290.28 29.7045 290.453 30.2707C290.477 30.3494 290.489 30.4301 290.489 30.512C290.489 30.5855 290.48 30.6579 290.46 30.7288C290.303 31.3063 289.486 31.776 287.705 31.776C285.936 31.776 285.106 31.3132 284.938 30.7414C284.916 30.6666 284.905 30.5898 284.905 30.512C284.905 30.4299 284.917 30.3489 284.942 30.2701Z" fill="#62CDAF"/>
</g>
<mask id="mask1_949_9863" style="mask-type:alpha" maskUnits="userSpaceOnUse" x="0" y="0" width="390" height="522">
<path d="M0 0H390V522H0V0Z" fill="white"/>
</mask>
<g mask="url(#mask1_949_9863)">
<path d="M188.4 9.66472C185.937 4.37926 180.635 1 174.804 1H16C7.71573 1 1 7.71572 1 16V523H389V58.9231C389 50.6388 382.284 43.9231 374 43.9231H215.196C208.588 43.9231 202.578 40.0932 199.787 34.1031L188.4 9.66472Z" fill="url(#paint2_linear_949_9863)" stroke="#46977A" stroke-width="2"/>
<path d="M181.922 13.7753C180.445 10.6041 177.263 8.57658 173.765 8.57646L17.5003 8.57111C12.5296 8.57094 8.5 12.6004 8.5 17.5711V522L381.5 522.006V60.5C381.5 55.5294 377.471 51.5 372.5 51.5L213.52 51.4997C204.968 51.4997 197.191 46.5435 193.579 38.7915L181.922 13.7753Z" fill="url(#paint3_linear_949_9863)"/>
<path d="M8.49997 524L6.5 524V522V17.5711C6.5 11.4958 11.4251 6.5709 17.5004 6.57111L173.765 6.57646C178.041 6.5766 181.929 9.0547 183.735 12.9306L195.391 37.9468C198.675 44.9941 205.745 49.4997 213.52 49.4997L372.5 49.5C378.575 49.5 383.5 54.4249 383.5 60.5V522.006V524.006L381.5 524.006L8.49997 524Z" stroke="#F1FFB9" stroke-opacity="0.5" stroke-width="4"/>
<path fill-rule="evenodd" clip-rule="evenodd" d="M91 27.672V25.656H90.186V24.234C90.186 24.09 90.114 24 89.934 24H88.098C87.954 24 87.882 24.09 87.882 24.234V32.622L87.882 32.6263C87.8835 32.7678 87.9554 32.856 88.098 32.856H89.934C90.114 32.856 90.186 32.766 90.186 32.622V31.182H91V29.202H90.186V27.672H91ZM92.9197 38.8165C92.4621 39.9198 91.6604 40.8496 90.6253 41.5312C89.0619 42.5605 87.0642 42.984 84.93 42.984C82.7965 42.984 80.7944 42.5687 79.2262 41.5426C77.5505 40.4462 76.494 38.706 76.494 36.636C76.494 35.8971 76.6276 35.1999 76.8758 34.5589C76.5344 34.4054 76.1892 34.1774 75.8752 33.8449C75.1335 33.0595 75 32.147 75 31.614V24.972C75 24.4388 75.1322 23.5724 75.8118 22.8079C76.542 21.9864 77.495 21.738 78.216 21.738H80.052C80.6803 21.738 81.6396 21.9246 82.4108 22.7411C83.1525 23.5265 83.286 24.439 83.286 24.972V26.7832C83.831 26.7417 84.379 26.6804 84.882 26.5979V24.234C84.882 23.7008 85.0142 22.8344 85.6938 22.0699C86.424 21.2484 87.377 21 88.098 21H89.934C90.4864 21 91.4473 21.1401 92.2488 21.9417C92.3414 22.0342 92.425 22.1288 92.5006 22.2246C93.0813 21.862 93.7066 21.738 94.216 21.738H96.052C96.6803 21.738 97.6396 21.9246 98.4108 22.7411C99.1525 23.5265 99.286 24.439 99.286 24.972V26.7832C99.831 26.7417 100.379 26.6804 100.882 26.5979V24.234C100.882 23.7008 101.014 22.8344 101.694 22.0699C102.424 21.2484 103.377 21 104.098 21H105.934C106.486 21 107.447 21.1401 108.249 21.9417C108.309 22.0019 108.365 22.0629 108.418 22.1246C108.84 21.9684 109.247 21.918 109.576 21.918H118.162C118.257 21.918 118.358 21.9222 118.465 21.9319C119.223 21.1757 120.144 21 120.754 21H122.572C123.124 21 124.085 21.1401 124.887 21.9417C125.478 22.5327 125.707 23.2079 125.786 23.736H125.943C126.083 23.2807 126.342 22.7941 126.795 22.3657C127.578 21.6263 128.493 21.486 129.049 21.486H130.867C131.584 21.486 132.496 21.7291 133.213 22.4907C133.33 22.6147 133.432 22.7425 133.521 22.8723C133.653 22.5818 133.84 22.2843 134.106 22.0031C134.877 21.1866 135.836 21 136.465 21H138.283C138.835 21 139.796 21.1401 140.597 21.9417C141.399 22.7432 141.535 23.6996 141.535 24.234V39.606C141.535 40.1445 141.393 41.1888 140.469 42.0102C139.627 42.7589 138.679 42.822 138.283 42.822H136.465C136.007 42.822 135.055 42.7283 134.231 41.9526C133.368 41.141 133.231 40.1414 133.231 39.606V39.5408C132.447 39.4674 131.866 39.1244 131.533 38.874L131.488 38.8407L131.445 38.8057C130.97 38.4215 130.505 38.0132 130.063 37.5856C129.533 38.1249 128.96 38.6374 128.358 39.1077L128.234 39.2046L128.101 39.288C127.671 39.5567 126.947 39.8343 126.144 39.8107C126.082 40.3396 125.876 41.0377 125.291 41.6569C124.52 42.4734 123.56 42.66 122.932 42.66H112.582C111.954 42.66 110.994 42.4734 110.223 41.6569C109.481 40.8715 109.348 39.959 109.348 39.426V36.636V35.802H109.29C109.328 36.0733 109.348 36.3515 109.348 36.636C109.348 38.7018 108.288 40.4366 106.625 41.5312C105.062 42.5605 103.064 42.984 100.93 42.984C98.7965 42.984 96.7944 42.5687 95.2262 41.5426C94.1812 40.8589 93.377 39.9248 92.9197 38.8165ZM95.4608 31.848H97.222C97.3409 31.848 97.461 31.8471 97.582 31.8454C98.3024 31.8352 99.0549 31.7947 99.7827 31.7262L99.8064 31.7239C99.9993 31.7056 100.19 31.6852 100.379 31.663C100.549 31.6429 100.717 31.6211 100.882 31.5979L100.93 31.591C101.502 31.509 102.035 31.4083 102.496 31.29C102.54 31.2769 102.576 31.2618 102.605 31.2443C102.62 31.2355 102.633 31.2261 102.644 31.216C102.703 31.1635 102.717 31.0937 102.694 31.002L102.478 29.598C102.442 29.436 102.334 29.364 102.19 29.4C102.134 29.4126 102.078 29.4248 102.021 29.4368L101.945 29.4526C101.605 29.522 101.247 29.5812 100.882 29.631C100.608 29.6685 100.329 29.7007 100.051 29.7279C99.7945 29.753 99.5384 29.7739 99.286 29.7909C98.6812 29.8316 98.0975 29.85 97.582 29.85H96.286V24.972C96.286 24.828 96.214 24.738 96.052 24.738H95.373C95.5472 25.2091 95.58 25.6367 95.58 25.908V27.42C95.58 27.6616 95.554 28.0272 95.4253 28.437C95.554 28.8468 95.58 29.2124 95.58 29.454V30.966C95.58 31.1931 95.5552 31.5037 95.4608 31.848ZM106.581 29.202C106.101 29.8868 106 30.6078 106 31.074V32.568C106 32.6538 106.003 32.7481 106.012 32.8493C105.989 32.8537 105.963 32.856 105.934 32.856H104.098C103.955 32.856 103.883 32.7678 103.882 32.6263L103.882 32.622V24.234C103.882 24.09 103.954 24 104.098 24H105.934C106.114 24 106.186 24.09 106.186 24.234V25.656H106.342V26.646C106.342 26.9043 106.374 27.2708 106.504 27.672H106.186V29.202H106.581ZM111.019 32.802H112.024C112.203 32.802 112.389 32.8005 112.582 32.7976C112.701 32.7958 112.821 32.7934 112.944 32.7905C113.181 32.7848 113.425 32.7771 113.674 32.7673C113.773 32.7634 113.873 32.7591 113.974 32.7546C114.121 32.7479 114.269 32.7405 114.418 32.7325C114.57 32.7242 114.722 32.7153 114.875 32.7056C115.298 32.6788 115.722 32.6464 116.137 32.6085L116.14 32.6082C116.341 32.5898 116.539 32.5701 116.734 32.5491C116.846 32.5371 116.956 32.5247 117.065 32.5118L117.08 32.51L117.15 32.5017C117.275 32.4865 117.399 32.4707 117.52 32.4543L117.617 32.4411L117.673 32.4332L117.76 32.4207C117.943 32.3942 118.119 32.3662 118.288 32.3369C118.486 32.3024 118.674 32.266 118.848 32.2276C118.878 32.2211 118.907 32.2146 118.936 32.208C118.94 32.207 118.943 32.2059 118.946 32.2048C118.95 32.2036 118.954 32.2024 118.957 32.2011C119.066 32.1614 119.097 32.0778 119.08 32.01L118.882 30.552C118.878 30.5324 118.874 30.5145 118.87 30.4979C118.828 30.3474 118.742 30.3198 118.612 30.336L118.511 30.3545L118.412 30.3723C118.371 30.3795 118.33 30.3867 118.288 30.3938C118.119 30.4229 117.942 30.4511 117.76 30.4772C117.681 30.4885 117.601 30.4994 117.52 30.5098C117.342 30.5327 117.16 30.5531 116.974 30.57V26.862H118.162C118.213 26.862 118.254 26.855 118.288 26.8409C118.362 26.81 118.396 26.745 118.396 26.646V25.134C118.396 25.0474 118.362 24.9777 118.288 24.9427C118.254 24.9268 118.213 24.918 118.162 24.918H111.434C111.555 25.3169 111.58 25.6717 111.58 25.908V27.42C111.58 27.6616 111.554 28.0272 111.425 28.437C111.554 28.8468 111.58 29.2124 111.58 29.454V30.966C111.58 31.393 111.492 32.1153 111.019 32.802ZM90.2361 35.8424C90.1671 35.6089 90.0663 35.3869 89.934 35.1784C89.5731 34.6095 88.9781 34.1408 88.1555 33.8125L88.1323 33.8032L88.098 33.7899C87.8126 33.6796 87.5006 33.5859 87.1621 33.5104C87.1282 33.5029 87.0941 33.4955 87.0597 33.4883C86.441 33.359 85.7369 33.2891 84.9489 33.288L84.93 33.288C83.3574 33.288 82.1178 33.5586 81.222 34.0268C80.7833 34.256 80.4271 34.5326 80.1545 34.848C79.7159 35.3555 79.494 35.9634 79.494 36.636C79.494 38.562 81.348 39.984 84.93 39.984C88.494 39.984 90.348 38.544 90.348 36.636C90.348 36.3597 90.3106 36.0944 90.2361 35.8424ZM84.2353 35.2375C82.4927 35.3618 81.78 35.9632 81.78 36.636C81.78 37.3088 82.4927 37.9102 84.2353 38.0345C84.4509 38.0499 84.6823 38.058 84.93 38.058C85.173 38.058 85.4001 38.0502 85.6118 38.0354C87.3602 37.9131 88.062 37.3103 88.062 36.636C88.062 36.3388 87.9257 36.0554 87.6234 35.821C87.3388 35.6002 86.9069 35.4229 86.3032 35.3181C86.0938 35.2818 85.8637 35.2542 85.6118 35.2366C85.4001 35.2218 85.173 35.214 84.93 35.214C84.6823 35.214 84.4509 35.2221 84.2353 35.2375ZM84.882 31.5979L84.93 31.591C85.5017 31.509 86.0348 31.4083 86.496 31.29C86.5395 31.2769 86.5757 31.2618 86.605 31.2443C86.6197 31.2355 86.6327 31.2261 86.644 31.216C86.7034 31.1635 86.7169 31.0937 86.694 31.002L86.478 29.598C86.442 29.436 86.334 29.364 86.19 29.4C86.1342 29.4126 86.0778 29.4248 86.0208 29.4368L85.9448 29.4526C85.6046 29.522 85.2469 29.5812 84.882 29.631C84.6076 29.6685 84.3291 29.7007 84.0509 29.7279C83.7945 29.753 83.5384 29.7739 83.286 29.7909C82.6812 29.8316 82.0975 29.85 81.582 29.85H80.286V24.972C80.286 24.828 80.214 24.738 80.052 24.738H78.216C78.072 24.738 78 24.828 78 24.972V31.614C78 31.758 78.072 31.848 78.234 31.848H81.222C81.3409 31.848 81.461 31.8471 81.582 31.8454C82.3024 31.8352 83.0549 31.7947 83.7827 31.7262L83.8064 31.7239C83.9993 31.7056 84.1904 31.6852 84.3787 31.663C84.549 31.6429 84.7171 31.6211 84.882 31.5979ZM120.52 29.508H118.288C118.237 29.508 118.196 29.501 118.162 29.4864L118.158 29.4845C118.102 29.4588 118.07 29.4112 118.059 29.3392L118.057 29.3286C118.055 29.3117 118.054 29.2935 118.054 29.274V27.798C118.054 27.726 118.072 27.6674 118.11 27.6269C118.125 27.6118 118.142 27.5991 118.162 27.5892C118.19 27.5753 118.225 27.5668 118.266 27.5646L118.272 27.5643L118.288 27.564H120.52V24.234C120.52 24.09 120.592 24 120.754 24H122.572C122.752 24 122.824 24.09 122.824 24.234V35.232C122.824 35.376 122.752 35.466 122.572 35.466H120.754C120.592 35.466 120.52 35.376 120.52 35.232V29.508ZM114.76 26.862H112.888V30.822L112.888 30.822C113.151 30.8145 113.413 30.807 113.674 30.7982C113.774 30.7948 113.874 30.7913 113.974 30.7874C114.238 30.7773 114.501 30.7652 114.76 30.75V26.862ZM126.133 36.744C126.17 36.7815 126.217 36.8034 126.27 36.8096C126.313 36.8149 126.361 36.8091 126.411 36.7923C126.443 36.7811 126.477 36.765 126.511 36.744C127.028 36.3394 127.512 35.9034 127.953 35.4528C128 35.4046 128.046 35.3563 128.093 35.3077C128.664 34.7059 129.157 34.0816 129.546 33.4743C129.72 33.2037 129.872 32.9364 130.003 32.676C130.127 32.9255 130.277 33.1802 130.448 33.438C130.826 34.0054 131.312 34.5878 131.879 35.1625C131.908 35.1925 131.938 35.2224 131.968 35.2523C132.355 35.6381 132.779 36.02 133.231 36.3909C133.264 36.4186 133.298 36.4464 133.333 36.474C133.369 36.5011 133.404 36.5215 133.438 36.535C133.459 36.5433 133.479 36.549 133.499 36.5521C133.576 36.5642 133.646 36.5382 133.711 36.474L134.791 35.214C134.899 35.106 134.917 34.962 134.773 34.854C134.759 34.8433 134.746 34.8327 134.732 34.8219C134.72 34.8119 134.707 34.8017 134.695 34.7916L134.632 34.7411C134.189 34.3806 133.759 33.9872 133.36 33.5604C133.316 33.514 133.273 33.4671 133.231 33.4199C132.775 32.9154 132.363 32.3657 132.026 31.77C132.01 31.7426 131.995 31.7152 131.979 31.6876C131.804 31.3696 131.65 31.0386 131.521 30.6946C131.405 30.3856 131.31 30.0661 131.238 29.736C131.18 29.468 131.137 29.193 131.112 28.9109C131.108 28.8641 131.104 28.8172 131.101 28.77H134.107L134.114 28.77C134.288 28.7676 134.341 28.6783 134.341 28.554V26.952C134.341 26.826 134.287 26.736 134.107 26.736H131.083V24.702C131.083 24.576 131.011 24.486 130.867 24.486H129.049C128.869 24.486 128.797 24.576 128.797 24.702V26.736H125.593C125.413 26.736 125.341 26.826 125.341 26.952V28.554C125.341 28.68 125.413 28.77 125.593 28.77H128.779C128.775 28.8239 128.772 28.8776 128.767 28.9309C128.745 29.2063 128.708 29.4745 128.657 29.736C128.591 30.0794 128.501 30.4111 128.39 30.7318C128.278 31.0556 128.144 31.3682 127.991 31.6704C127.975 31.7037 127.957 31.7369 127.94 31.77C127.551 32.5115 127.046 33.1897 126.457 33.816C126.255 34.0307 126.044 34.2393 125.824 34.4422C125.667 34.5876 125.505 34.73 125.339 34.8698C125.28 34.9194 125.221 34.9687 125.161 35.0177C125.125 35.0473 125.089 35.0767 125.053 35.106C125.007 35.1387 124.978 35.1833 124.964 35.232C124.957 35.2591 124.954 35.2875 124.957 35.3159C124.961 35.3766 124.988 35.4371 125.035 35.484L126.133 36.744ZM114.652 34.386C114.652 34.242 114.58 34.17 114.418 34.17H112.582C112.42 34.17 112.348 34.242 112.348 34.386V39.426C112.348 39.57 112.42 39.66 112.582 39.66H122.932C123.094 39.66 123.166 39.57 123.166 39.426V37.86C123.166 37.698 123.094 37.626 122.932 37.626H114.652V34.386ZM136.231 39.606C136.231 39.75 136.303 39.822 136.465 39.822H138.283C138.463 39.822 138.535 39.75 138.535 39.606V24.234C138.535 24.09 138.463 24 138.283 24H136.465C136.303 24 136.231 24.09 136.231 24.234V39.606ZM126.905 37.4658C126.914 37.4593 126.922 37.4526 126.93 37.4459L126.905 37.4658ZM105.934 35.1784C106.066 35.3869 106.167 35.6089 106.236 35.8424C106.311 36.0944 106.348 36.3597 106.348 36.636C106.348 38.544 104.494 39.984 100.93 39.984C97.348 39.984 95.494 38.562 95.494 36.636C95.494 35.9634 95.7159 35.3555 96.1545 34.848C96.4271 34.5326 96.7833 34.256 97.222 34.0268C98.1178 33.5586 99.3574 33.288 100.93 33.288L100.949 33.288C101.737 33.2891 102.441 33.359 103.06 33.4883C103.094 33.4955 103.128 33.5029 103.162 33.5104C103.501 33.5859 103.813 33.6796 104.098 33.7899C104.117 33.7973 104.136 33.8049 104.156 33.8125C104.978 34.1408 105.573 34.6095 105.934 35.1784ZM97.78 36.636C97.78 35.9632 98.4927 35.3618 100.235 35.2375C100.451 35.2221 100.682 35.214 100.93 35.214C101.173 35.214 101.4 35.2218 101.612 35.2366C101.864 35.2542 102.094 35.2818 102.303 35.3181C102.907 35.4229 103.339 35.6002 103.623 35.821C103.926 36.0554 104.062 36.3388 104.062 36.636C104.062 37.3103 103.36 37.9131 101.612 38.0354C101.4 38.0502 101.173 38.058 100.93 38.058C100.682 38.058 100.451 38.0499 100.235 38.0345C98.4927 37.9102 97.78 37.3088 97.78 36.636Z" fill="#46977A"/>
<path d="M92.346 27.672H90.186V29.202H92.346C92.508 29.202 92.58 29.292 92.58 29.454V30.966C92.58 31.11 92.508 31.182 92.346 31.182H90.186V32.622C90.186 32.766 90.114 32.856 89.934 32.856H88.098C87.954 32.856 87.882 32.766 87.882 32.622V24.234C87.882 24.09 87.954 24 88.098 24H89.934C90.114 24 90.186 24.09 90.186 24.234V25.656H92.346C92.508 25.656 92.58 25.746 92.58 25.908V27.42C92.58 27.582 92.508 27.672 92.346 27.672Z" fill="white"/>
<path d="M86.496 31.29C85.092 31.65 83.022 31.848 81.222 31.848H78.234C78.072 31.848 78 31.758 78 31.614V24.972C78 24.828 78.072 24.738 78.216 24.738H80.052C80.214 24.738 80.286 24.828 80.286 24.972V29.85H81.582C82.932 29.85 84.75 29.724 86.19 29.4C86.334 29.364 86.442 29.436 86.478 29.598L86.694 31.002C86.73 31.146 86.676 31.236 86.496 31.29Z" fill="white"/>
<path fill-rule="evenodd" clip-rule="evenodd" d="M84.93 33.288C88.494 33.288 90.348 34.692 90.348 36.636C90.348 38.544 88.494 39.984 84.93 39.984C81.348 39.984 79.494 38.562 79.494 36.636C79.494 34.692 81.348 33.288 84.93 33.288ZM84.93 38.058C87.18 38.058 88.062 37.392 88.062 36.636C88.062 35.88 87.18 35.214 84.93 35.214C82.68 35.214 81.78 35.88 81.78 36.636C81.78 37.392 82.68 38.058 84.93 38.058Z" fill="white"/>
<path d="M118.288 27.564H120.52V24.234C120.52 24.09 120.592 24 120.754 24H122.572C122.752 24 122.824 24.09 122.824 24.234V35.232C122.824 35.376 122.752 35.466 122.572 35.466H120.754C120.592 35.466 120.52 35.376 120.52 35.232V29.508H118.288C118.126 29.508 118.054 29.436 118.054 29.274V27.798C118.054 27.654 118.126 27.564 118.288 27.564Z" fill="white"/>
<path fill-rule="evenodd" clip-rule="evenodd" d="M118.882 30.552L119.08 32.01C119.098 32.082 119.062 32.172 118.936 32.208C117.208 32.604 114.094 32.802 112.024 32.802H109.216C109.072 32.802 109 32.712 109 32.568V31.074C109 30.93 109.072 30.84 109.216 30.84H110.674V26.862H109.576C109.414 26.862 109.342 26.79 109.342 26.646V25.134C109.342 25.008 109.414 24.918 109.576 24.918H118.162C118.324 24.918 118.396 25.008 118.396 25.134V26.646C118.396 26.79 118.324 26.862 118.162 26.862H116.974V30.57C117.568 30.516 118.126 30.426 118.612 30.336C118.756 30.318 118.846 30.354 118.882 30.552ZM114.76 30.75V26.862H112.888V30.822C113.518 30.804 114.148 30.786 114.76 30.75Z" fill="white"/>
<path d="M114.652 37.626H122.932C123.094 37.626 123.166 37.698 123.166 37.86V39.426C123.166 39.57 123.094 39.66 122.932 39.66H112.582C112.42 39.66 112.348 39.57 112.348 39.426V34.386C112.348 34.242 112.42 34.17 112.582 34.17H114.418C114.58 34.17 114.652 34.242 114.652 34.386V37.626Z" fill="white"/>
<path d="M136.465 24H138.283C138.463 24 138.535 24.09 138.535 24.234V39.606C138.535 39.75 138.463 39.822 138.283 39.822H136.465C136.303 39.822 136.231 39.75 136.231 39.606V24.234C136.231 24.09 136.303 24 136.465 24Z" fill="white"/>
<path d="M134.773 34.854C134.917 34.962 134.899 35.106 134.791 35.214L133.711 36.474C133.603 36.582 133.477 36.582 133.333 36.474C131.821 35.25 130.615 33.9 130.003 32.676C129.337 34.008 128.077 35.52 126.511 36.744C126.367 36.834 126.223 36.834 126.133 36.744L125.035 35.484C124.927 35.376 124.927 35.196 125.053 35.106C127.087 33.468 128.617 31.452 128.779 28.77H125.593C125.413 28.77 125.341 28.68 125.341 28.554V26.952C125.341 26.826 125.413 26.736 125.593 26.736H128.797V24.702C128.797 24.576 128.869 24.486 129.049 24.486H130.867C131.011 24.486 131.083 24.576 131.083 24.702V26.736H134.107C134.287 26.736 134.341 26.826 134.341 26.952V28.554C134.341 28.68 134.287 28.77 134.107 28.77H131.101C131.281 31.38 132.937 33.396 134.773 34.854Z" fill="white"/>
<path d="M106.186 27.672H108.346C108.508 27.672 108.58 27.582 108.58 27.42V25.908C108.58 25.746 108.508 25.656 108.346 25.656H106.186V24.234C106.186 24.09 106.114 24 105.934 24H104.098C103.954 24 103.882 24.09 103.882 24.234V32.622C103.882 32.766 103.954 32.856 104.098 32.856H105.934C106.114 32.856 106.186 32.766 106.186 32.622V31.182H108.346C108.508 31.182 108.58 31.11 108.58 30.966V29.454C108.58 29.292 108.508 29.202 108.346 29.202H106.186V27.672Z" fill="white"/>
<path d="M97.222 31.848C99.022 31.848 101.092 31.65 102.496 31.29C102.676 31.236 102.73 31.146 102.694 31.002L102.478 29.598C102.442 29.436 102.334 29.364 102.19 29.4C100.75 29.724 98.932 29.85 97.582 29.85H96.286V24.972C96.286 24.828 96.214 24.738 96.052 24.738H94.216C94.072 24.738 94 24.828 94 24.972V31.614C94 31.758 94.072 31.848 94.234 31.848H97.222Z" fill="white"/>
<path fill-rule="evenodd" clip-rule="evenodd" d="M106.348 36.636C106.348 34.692 104.494 33.288 100.93 33.288C97.348 33.288 95.494 34.692 95.494 36.636C95.494 38.562 97.348 39.984 100.93 39.984C104.494 39.984 106.348 38.544 106.348 36.636ZM104.062 36.636C104.062 37.392 103.18 38.058 100.93 38.058C98.68 38.058 97.78 37.392 97.78 36.636C97.78 35.88 98.68 35.214 100.93 35.214C103.18 35.214 104.062 35.88 104.062 36.636Z" fill="white"/>
<path d="M50.2734 31.6016C50.2734 31.0547 50.3646 30.5573 50.5469 30.1094C50.7344 29.6562 50.987 29.2969 51.3047 29.0312C51.6224 28.7656 51.9766 28.6328 52.3672 28.6328C52.7578 28.6328 53.112 28.7656 53.4297 29.0312C53.7526 29.2969 54.0052 29.6562 54.1875 30.1094C54.375 30.5573 54.4688 31.0547 54.4688 31.6016C54.4688 32.1536 54.375 32.6536 54.1875 33.1016C54.0052 33.5495 53.7526 33.9062 53.4297 34.1719C53.112 34.4375 52.7578 34.5703 52.3672 34.5703C51.9766 34.5703 51.6224 34.4375 51.3047 34.1719C50.987 33.9062 50.7344 33.5495 50.5469 33.1016C50.3646 32.6536 50.2734 32.1536 50.2734 31.6016ZM54.2422 26.8594C54.2422 26.3021 54.3359 25.7995 54.5234 25.3516C54.7109 24.9036 54.9635 24.5469 55.2812 24.2812C55.599 24.0156 55.9531 23.8828 56.3438 23.8828C56.7344 23.8828 57.0885 24.0156 57.4062 24.2812C57.724 24.5469 57.9766 24.9036 58.1641 25.3516C58.3516 25.7995 58.4453 26.3021 58.4453 26.8594C58.4453 27.4062 58.3516 27.9036 58.1641 28.3516C57.9766 28.7995 57.724 29.1562 57.4062 29.4219C57.0885 29.6875 56.7344 29.8203 56.3438 29.8203C55.9531 29.8203 55.599 29.6875 55.2812 29.4219C54.9635 29.1562 54.7109 28.7995 54.5234 28.3516C54.3359 27.9036 54.2422 27.4062 54.2422 26.8594ZM59.5547 26.8594C59.5547 26.3021 59.6458 25.7995 59.8281 25.3516C60.0156 24.9036 60.2682 24.5469 60.5859 24.2812C60.9089 24.0156 61.2656 23.8828 61.6562 23.8828C62.0469 23.8828 62.401 24.0156 62.7188 24.2812C63.0365 24.5469 63.2891 24.9036 63.4766 25.3516C63.6641 25.7995 63.7578 26.3021 63.7578 26.8594C63.7578 27.4062 63.6641 27.9036 63.4766 28.3516C63.2891 28.7995 63.0365 29.1562 62.7188 29.4219C62.401 29.6875 62.0469 29.8203 61.6562 29.8203C61.2656 29.8203 60.9089 29.6875 60.5859 29.4219C60.2682 29.1562 60.0156 28.7995 59.8281 28.3516C59.6458 27.9036 59.5547 27.4062 59.5547 26.8594ZM63.5312 31.6016C63.5312 31.0547 63.625 30.5573 63.8125 30.1094C64 29.6562 64.2526 29.2969 64.5703 29.0312C64.888 28.7656 65.2422 28.6328 65.6328 28.6328C66.0234 28.6328 66.3776 28.7656 66.6953 29.0312C67.013 29.2969 67.263 29.6562 67.4453 30.1094C67.6328 30.5573 67.7266 31.0547 67.7266 31.6016C67.7266 32.1536 67.6328 32.6536 67.4453 33.1016C67.263 33.5495 67.013 33.9062 66.6953 34.1719C66.3776 34.4375 66.0234 34.5703 65.6328 34.5703C65.2422 34.5703 64.888 34.4375 64.5703 34.1719C64.2526 33.9062 64 33.5495 63.8125 33.1016C63.625 32.6536 63.5312 32.1536 63.5312 31.6016ZM52.8438 37.8516C52.8438 37.3776 52.9245 36.9714 53.0859 36.6328C53.2526 36.2891 53.4609 35.9922 53.7109 35.7422C53.9661 35.4922 54.224 35.2604 54.4844 35.0469C54.7031 34.8698 54.9115 34.6953 55.1094 34.5234C55.3073 34.3464 55.4766 34.151 55.6172 33.9375C55.7266 33.7708 55.8307 33.5964 55.9297 33.4141C56.0286 33.2266 56.125 33.0312 56.2188 32.8281C56.4115 32.4219 56.612 32.0339 56.8203 31.6641C57.0286 31.2891 57.2995 30.9844 57.6328 30.75C57.9661 30.5104 58.4219 30.3906 59 30.3906C59.5781 30.3906 60.0339 30.5104 60.3672 30.75C60.7005 30.9844 60.9714 31.2891 61.1797 31.6641C61.388 32.0339 61.5885 32.4245 61.7812 32.8359C61.875 33.0391 61.9714 33.2318 62.0703 33.4141C62.1693 33.5964 62.2734 33.7734 62.3828 33.9453C62.5234 34.1589 62.6927 34.3516 62.8906 34.5234C63.0885 34.6953 63.2969 34.8698 63.5156 35.0469C63.7708 35.2604 64.026 35.4922 64.2812 35.7422C64.5365 35.9922 64.7448 36.2891 64.9062 36.6328C65.0729 36.9714 65.1562 37.3776 65.1562 37.8516C65.1562 38.4349 65.0365 38.9479 64.7969 39.3906C64.5573 39.8385 64.2214 40.1875 63.7891 40.4375C63.362 40.6927 62.8646 40.8203 62.2969 40.8203C61.8906 40.8203 61.5286 40.7734 61.2109 40.6797C60.8984 40.5911 60.6068 40.5 60.3359 40.4062C60.1172 40.3333 59.901 40.2682 59.6875 40.2109C59.4792 40.1536 59.25 40.125 59 40.125C58.75 40.125 58.5182 40.1536 58.3047 40.2109C58.0964 40.2682 57.8828 40.3333 57.6641 40.4062C57.388 40.5 57.0938 40.5911 56.7812 40.6797C56.4688 40.7734 56.1068 40.8203 55.6953 40.8203C55.1328 40.8203 54.6354 40.6927 54.2031 40.4375C53.776 40.1875 53.4427 39.8385 53.2031 39.3906C52.9635 38.9479 52.8438 38.4349 52.8438 37.8516Z" fill="#46977A"/>
</g>
<defs>
<linearGradient id="paint0_linear_949_9863" x1="-2.2386e-05" y1="-7.98361e-07" x2="390" y2="420" gradientUnits="userSpaceOnUse">
<stop stop-color="white"/>
<stop offset="0.307292" stop-color="#69CFA8"/>
<stop offset="0.94519" stop-color="#D6DD86"/>
</linearGradient>
<linearGradient id="paint1_linear_949_9863" x1="195" y1="8.5708" x2="195" y2="420" gradientUnits="userSpaceOnUse">
<stop stop-color="#FFF9D8"/>
<stop offset="0.11261" stop-color="#BEF199"/>
<stop offset="1" stop-color="#65CEA8"/>
</linearGradient>
<linearGradient id="paint2_linear_949_9863" x1="5.81145e-05" y1="-3.06538e-05" x2="390" y2="420" gradientUnits="userSpaceOnUse">
<stop stop-color="white"/>
<stop offset="0.176441" stop-color="#69CFA8"/>
<stop offset="0.94519" stop-color="#D6DD86"/>
</linearGradient>
<linearGradient id="paint3_linear_949_9863" x1="195" y1="8.5708" x2="195" y2="420" gradientUnits="userSpaceOnUse">
<stop stop-color="#FFF9D8"/>
<stop offset="0.11261" stop-color="#BEF199"/>
<stop offset="1" stop-color="#65CEA8"/>
</linearGradient>
</defs>
</svg>
