<svg width="364" height="116" viewBox="0 0 364 116" fill="none" xmlns="http://www.w3.org/2000/svg">
<rect x="3" y="30.5" width="358" height="84" rx="7" fill="#786565" stroke="#786565" stroke-width="2"/>
<path d="M8 1L68.8533 1.00001C71.7647 1.00001 74.3721 2.80206 75.4013 5.52546L82.4695 24.2291C83.2047 26.1744 85.0671 27.4615 87.1467 27.4615H356C359.866 27.4615 363 30.5956 363 34.4615V104.039C363 107.905 359.866 111.039 356 111.039H18C8.61115 111.039 1 103.428 1 94.0387V8C1 4.134 4.134 1 8 1Z" fill="#786565" stroke="#786565" stroke-width="2"/>
<path d="M35.2449 13.354C34.6149 14.166 33.6209 14.95 32.4309 15.538C32.3189 15.594 32.1789 15.566 32.1369 15.482L31.4369 14.418C31.3669 14.306 31.3669 14.194 31.4649 14.138C33.1029 13.298 34.3349 12.346 34.3349 11.17V11.142H31.9129C31.7869 11.142 31.7309 11.072 31.7309 10.96V9.798C31.7309 9.686 31.7869 9.616 31.9129 9.616H34.3349V8.454C34.3349 8.342 34.3909 8.272 34.5029 8.272H35.9449C36.0709 8.272 36.1269 8.342 36.1269 8.454V9.616H38.4789C38.6049 9.616 38.6609 9.686 38.6609 9.798V10.96C38.6609 11.072 38.6049 11.142 38.4789 11.142H36.1269V11.17C36.1269 12.276 37.0929 13.074 38.8009 13.914C38.8989 13.956 38.8989 14.068 38.8569 14.18L38.2129 15.258C38.1709 15.342 38.0309 15.342 37.9189 15.3C36.8969 14.838 35.9309 14.124 35.2449 13.354ZM41.5169 11.31H43.2949C43.4349 11.31 43.4909 11.38 43.4909 11.506V12.71C43.4909 12.836 43.4349 12.906 43.2949 12.906H41.5169V15.202C41.5169 15.3 41.4609 15.37 41.3209 15.37H39.8929C39.7809 15.37 39.7249 15.3 39.7249 15.202V8.552C39.7249 8.44 39.7809 8.37 39.8929 8.37H41.3209C41.4609 8.37 41.5169 8.44 41.5169 8.552V11.31ZM33.7609 15.986H41.3349C41.4609 15.986 41.5169 16.056 41.5169 16.168V20.494C41.5169 20.606 41.4609 20.676 41.3349 20.676H33.7609C33.6209 20.676 33.5649 20.606 33.5649 20.494V16.168C33.5649 16.056 33.6209 15.986 33.7609 15.986ZM35.3569 19.15H39.7249V17.498H35.3569V19.15ZM52.7283 8.37H54.1423C54.2823 8.37 54.3383 8.44 54.3383 8.552V20.508C54.3383 20.62 54.2823 20.676 54.1423 20.676H52.7283C52.6023 20.676 52.5463 20.62 52.5463 20.508V16.084H51.2023C51.0763 16.084 51.0203 16.014 51.0203 15.902L51.0483 14.74C51.0483 14.628 51.0903 14.558 51.2303 14.558H52.5463V12.402H51.2303C51.0903 12.402 51.0483 12.332 51.0483 12.22L51.0203 11.058C51.0203 10.932 51.0763 10.876 51.2023 10.876H52.5463V8.552C52.5463 8.44 52.6023 8.37 52.7283 8.37ZM47.4083 9.42C49.3963 9.42 50.8383 10.918 50.8383 13.69C50.8383 16.476 49.3963 17.974 47.4083 17.974C45.4203 17.974 43.9923 16.476 43.9923 13.69C43.9923 10.918 45.4203 9.42 47.4083 9.42ZM47.4083 16.378C48.3883 16.378 49.0603 15.468 49.0603 13.69C49.0603 11.926 48.3883 11.002 47.4083 11.002C46.4423 11.002 45.7563 11.926 45.7563 13.69C45.7563 15.468 46.4423 16.378 47.4083 16.378ZM65.9557 12.696H67.7337C67.8737 12.696 67.9297 12.766 67.9297 12.892V14.11C67.9297 14.222 67.8737 14.292 67.7337 14.292H65.9557V20.536C65.9557 20.648 65.8997 20.704 65.7597 20.704H64.3317C64.2197 20.704 64.1637 20.648 64.1637 20.536V8.58C64.1637 8.468 64.2197 8.398 64.3317 8.398H65.7597C65.8997 8.398 65.9557 8.468 65.9557 8.58V12.696ZM63.4357 16.546C63.5477 16.63 63.5337 16.742 63.4497 16.826L62.6097 17.806C62.5257 17.89 62.4137 17.89 62.3017 17.806C61.1257 16.868 60.2017 15.804 59.7257 14.852C59.2077 15.888 58.2137 17.064 56.9957 18.002C56.8977 18.086 56.7857 18.086 56.7017 18.002L55.8617 17.022C55.7777 16.952 55.7777 16.812 55.8757 16.742C57.5557 15.398 58.7877 13.718 58.7877 11.45V11.24H56.3937C56.2537 11.24 56.2117 11.17 56.2117 11.058V9.826C56.2117 9.714 56.2537 9.644 56.3937 9.644H62.8057C62.9457 9.644 62.9877 9.714 62.9877 9.826V11.058C62.9877 11.17 62.9457 11.24 62.8057 11.24H60.5657V11.45C60.5657 13.648 61.9237 15.328 63.4357 16.546Z" fill="white"/>
<rect x="1" y="27.5" width="362" height="84" rx="7" fill="white" stroke="#786565" stroke-width="2"/>
<path d="M4 34.5C4 32.2909 5.79086 30.5 8 30.5H356C358.209 30.5 360 32.2909 360 34.5V104.5C360 106.709 358.209 108.5 356 108.5H8C5.79086 108.5 4 106.709 4 104.5V34.5Z" fill="url(#paint0_linear_1321_5241)"/>
<path opacity="0.3" fill-rule="evenodd" clip-rule="evenodd" d="M4 91.4539V76.551L50.1039 30.5H65.0239L4 91.4539ZM16.7761 108.5H8C6.33978 108.5 4.9158 107.489 4.31065 106.048L79.9456 30.5H94.8657L16.7761 108.5ZM46.6178 108.5H31.6978L109.787 30.5H124.707L46.6178 108.5ZM76.4596 108.5H61.5396L139.629 30.5H154.549L76.4596 108.5ZM106.301 108.5H91.3813L169.471 30.5H184.391L106.301 108.5ZM136.143 108.5H121.223L199.313 30.5H214.233L136.143 108.5ZM165.984 108.5H151.064L229.154 30.5H244.074L165.984 108.5ZM195.826 108.5H180.906L258.995 30.5H273.915L195.826 108.5ZM225.667 108.5H210.747L288.837 30.5H303.757L225.667 108.5ZM255.509 108.5H240.589L318.679 30.5H333.599L255.509 108.5ZM285.351 108.5H270.431L348.521 30.5H356C358.03 30.5 359.707 32.012 359.965 33.9712L285.351 108.5ZM315.193 108.5H300.273L360 48.8412V63.7441L315.193 108.5ZM345.034 108.5H330.114L360 78.6487V93.5516L345.034 108.5ZM35.1818 30.5L4 61.6461V46.7435L20.2622 30.5H35.1818Z" fill="white"/>
<path d="M12.2476 19.1895C13.543 20.0715 15.2612 20.5 17.5 20.5C19.7388 20.5 21.457 20.071 22.7524 19.1895C24.1176 18.2599 25 16.6669 25 15.1312C25 14.0839 24.7493 13.1462 24.001 12.1866L23.8218 9.52553C23.7855 9.14736 23.5578 8.81465 23.2142 8.63493C22.87 8.4552 22.4593 8.4552 22.1151 8.63493L19.8587 10.008C19.1852 9.86038 18.3632 9.81598 17.5 9.81598C16.6368 9.81598 15.8148 9.86038 15.1413 10.008L12.8849 8.63439C12.5407 8.4552 12.13 8.4552 11.7858 8.63439C11.4416 8.81412 11.2145 9.14682 11.1782 9.525L10.999 12.1861C10.2507 13.1462 10 14.0839 10 15.1312C10 16.6669 10.8819 18.2599 12.2476 19.1895Z" fill="#EAD4AD"/>
<defs>
<linearGradient id="paint0_linear_1321_5241" x1="195.861" y1="30.5" x2="195.861" y2="108.5" gradientUnits="userSpaceOnUse">
<stop stop-color="#EEF2DB"/>
<stop offset="1" stop-color="#E6BA88"/>
</linearGradient>
</defs>
</svg>
