<svg width="346" height="78" viewBox="0 0 346 78" fill="none" xmlns="http://www.w3.org/2000/svg">
<path d="M50.8533 1.00001C53.7647 1.00001 56.3721 2.80206 57.4013 5.52546L64.4695 24.2291C65.2047 26.1744 67.0671 27.4615 69.1467 27.4615H106C109.866 27.4615 113 30.5956 113 34.4616V54.0387C113 57.9047 109.866 61.0387 106 61.0387H18C8.61116 61.0387 1 53.4276 1 44.0387V8C1 4.13401 4.13401 1 8 1L50.8533 1.00001Z" fill="#D652A1" stroke="#D652A1" stroke-width="2"/>
<path d="M21.416 10.544H23.194C23.334 10.544 23.39 10.614 23.39 10.74V11.944C23.39 12.07 23.334 12.126 23.194 12.126H21.416V14.646C21.416 14.758 21.36 14.814 21.22 14.814H19.792C19.68 14.814 19.624 14.758 19.624 14.646V8.052C19.624 7.94 19.68 7.87 19.792 7.87H21.22C21.36 7.87 21.416 7.94 21.416 8.052V10.544ZM18.098 8.696V14.086C18.098 14.184 18.056 14.254 17.93 14.254H11.994C11.854 14.254 11.798 14.184 11.798 14.086V8.696C11.798 8.584 11.854 8.514 11.994 8.514H13.38C13.506 8.514 13.562 8.584 13.562 8.696V10.026H16.362V8.696C16.362 8.584 16.404 8.514 16.53 8.514H17.93C18.056 8.514 18.098 8.584 18.098 8.696ZM13.562 11.468V12.756H16.362V11.468H13.562ZM17.328 15.136C20.1 15.136 21.542 16.214 21.542 17.726C21.542 19.21 20.1 20.302 17.328 20.302C14.542 20.302 13.1 19.224 13.1 17.726C13.1 16.214 14.542 15.136 17.328 15.136ZM17.328 18.804C19.078 18.804 19.764 18.314 19.764 17.726C19.764 17.138 19.078 16.648 17.328 16.648C15.578 16.648 14.878 17.138 14.878 17.726C14.878 18.314 15.578 18.804 17.328 18.804ZM36.0395 7.87H37.4535C37.5795 7.87 37.6215 7.94 37.6215 8.052V20.008C37.6215 20.12 37.5795 20.176 37.4535 20.176H36.0395C35.9275 20.176 35.8715 20.12 35.8715 20.008V8.052C35.8715 7.94 35.9275 7.87 36.0395 7.87ZM33.3795 8.136H34.7655C34.8915 8.136 34.9335 8.206 34.9335 8.318V19.63C34.9335 19.742 34.8915 19.812 34.7655 19.812H33.3795C33.2535 19.812 33.2115 19.742 33.2115 19.63V13.386H31.7695C31.6295 13.386 31.5735 13.316 31.5735 13.19V11.986C31.5735 11.86 31.6295 11.79 31.7695 11.79H33.2115V8.318C33.2115 8.206 33.2535 8.136 33.3795 8.136ZM30.4115 10.656V11.37C30.4115 13.288 31.2795 15.108 32.5675 16.284C32.6655 16.382 32.6655 16.48 32.5815 16.564L31.7275 17.39C31.6435 17.474 31.5315 17.488 31.4335 17.39C30.6495 16.606 29.9775 15.612 29.5435 14.576C29.1655 15.64 28.4515 16.732 27.5695 17.656C27.4715 17.768 27.3595 17.74 27.2755 17.656L26.4215 16.83C26.3375 16.76 26.3375 16.648 26.4355 16.55C27.8635 15.164 28.6615 13.288 28.6615 11.37V10.656H26.9115C26.7855 10.656 26.7295 10.586 26.7295 10.474V9.242C26.7295 9.13 26.7855 9.074 26.9115 9.074H32.0075C32.1475 9.074 32.2035 9.13 32.2035 9.242V10.474C32.2035 10.586 32.1475 10.656 32.0075 10.656H30.4115ZM45.4449 13.792H50.2889C50.4149 13.792 50.4709 13.876 50.4709 13.988V15.122C50.4709 15.22 50.4149 15.29 50.2889 15.29H38.8089C38.6969 15.29 38.6409 15.22 38.6409 15.122V13.988C38.6409 13.876 38.6969 13.792 38.8089 13.792H43.6529V12.784H40.5589C40.4329 12.784 40.3909 12.714 40.3909 12.602V8.472C40.3909 8.374 40.4329 8.304 40.5589 8.304H48.5249C48.6509 8.304 48.7069 8.374 48.7069 8.472V12.602C48.7069 12.714 48.6509 12.784 48.5249 12.784H45.4449V13.792ZM46.9289 9.774H42.1549V11.314H46.9289V9.774ZM40.3069 16.088H48.6929C48.8189 16.088 48.8609 16.144 48.8609 16.256V20.148C48.8609 20.246 48.8189 20.316 48.6929 20.316H47.2649C47.1389 20.316 47.0829 20.246 47.0829 20.148V17.572H40.3069C40.1809 17.572 40.1249 17.502 40.1249 17.404V16.256C40.1249 16.144 40.1809 16.088 40.3069 16.088Z" fill="white"/>
<rect x="2.15234" y="28.5" width="341.697" height="48" rx="7" fill="#D652A1" stroke="#D652A1" stroke-width="2"/>
<rect x="1" y="27.5" width="344" height="46" rx="7" fill="white" stroke="#D652A1" stroke-width="2"/>
</svg>
