<svg width="346" height="233" viewBox="0 0 346 233" fill="none" xmlns="http://www.w3.org/2000/svg">
<path d="M56 1.00001C52.134 1.00001 49 4.13402 49 8.00001V54C49 57.866 52.134 61 56 61H328C337.389 61 345 53.3888 345 44V8C345 4.13401 341.866 1 338 1L56 1.00001Z" fill="url(#paint0_linear_1894_18345)" stroke="url(#paint1_linear_1894_18345)" stroke-width="2"/>
<path d="M60.8533 1.00001C63.7647 1.00001 66.3721 2.80206 67.4013 5.52546L74.4695 24.2291C75.2047 26.1744 77.0671 27.4615 79.1467 27.4615H117C120.866 27.4615 124 30.5956 124 34.4616V54.0387C124 57.9047 120.866 61.0387 117 61.0387H18C8.61116 61.0387 1 53.4276 1 44.0387V8C1 4.13401 4.13401 1 8 1L60.8533 1.00001Z" fill="#D652A1" stroke="#D652A1" stroke-width="2"/>
<path d="M21.8359 20.1761H20.4079C20.2819 20.1761 20.2259 20.1201 20.2259 20.0081V8.05212C20.2259 7.94012 20.2819 7.87012 20.4079 7.87012H21.8359C21.9759 7.87012 22.0319 7.94012 22.0319 8.05212V20.0081C22.0319 20.1201 21.9759 20.1761 21.8359 20.1761ZM12.8899 17.5301C12.7639 17.5861 12.6939 17.5721 12.6239 17.4741L11.9659 16.3121C11.8959 16.2001 11.9239 16.1161 12.0359 16.0601C15.0599 14.5901 16.3059 13.1621 16.3059 11.0481V10.7681H12.3859C12.2739 10.7681 12.2179 10.7121 12.2179 10.6001V9.36812C12.2179 9.25612 12.2739 9.18612 12.3859 9.18612H17.9299C18.0699 9.18612 18.1119 9.25612 18.1119 9.36812V11.0481C18.1119 13.7501 16.4319 15.7801 12.8899 17.5301Z" fill="white"/>
<path d="M33.6353 10.4181H35.4133C35.5533 10.4181 35.6093 10.4741 35.6093 10.6001V11.8041C35.6093 11.9301 35.5533 12.0001 35.4133 12.0001H33.6353V14.6041C33.6353 14.7161 33.5793 14.7861 33.4393 14.7861H32.0113C31.8993 14.7861 31.8433 14.7161 31.8433 14.6041V8.05212C31.8433 7.94012 31.8993 7.87012 32.0113 7.87012H33.4393C33.5793 7.87012 33.6353 7.94012 33.6353 8.05212V10.4181ZM27.3633 12.1961C26.7893 13.1341 25.7533 14.1141 24.5913 14.7441C24.4793 14.8001 24.3533 14.8141 24.2833 14.7301L23.5553 13.6661C23.4853 13.5681 23.4573 13.4421 23.5693 13.3861C25.0253 12.6161 26.4673 11.0761 26.4673 9.70412V8.62612C26.4673 8.51412 26.5233 8.44412 26.6353 8.44412H28.0633C28.1893 8.44412 28.2453 8.51412 28.2453 8.62612V9.70412C28.2453 11.0061 29.3793 12.2801 30.9473 13.0781C31.0453 13.1201 31.0173 13.2321 30.9613 13.3441L30.2753 14.4361C30.2053 14.5201 30.0793 14.5061 29.9673 14.4641C28.9313 13.9041 27.9233 13.0501 27.3633 12.1961ZM29.5473 15.1221C32.3613 15.1221 33.7613 16.1581 33.7613 17.7121C33.7613 19.2521 32.3613 20.3161 29.5473 20.3161C26.7193 20.3161 25.3193 19.2521 25.3193 17.7121C25.3193 16.1581 26.7193 15.1221 29.5473 15.1221ZM29.5473 18.8181C31.3253 18.8181 31.9833 18.3421 31.9833 17.7121C31.9833 17.0821 31.3253 16.6201 29.5473 16.6201C27.7553 16.6201 27.0973 17.0821 27.0973 17.7121C27.0973 18.3421 27.7553 18.8181 29.5473 18.8181Z" fill="white"/>
<path d="M44.8466 7.87012H46.2606C46.4006 7.87012 46.4566 7.94012 46.4566 8.05212V20.0081C46.4566 20.1201 46.4006 20.1761 46.2606 20.1761H44.8466C44.7206 20.1761 44.6646 20.1201 44.6646 20.0081V8.05212C44.6646 7.94012 44.7206 7.87012 44.8466 7.87012ZM43.5306 15.8361C43.6426 15.9201 43.6286 16.0461 43.5446 16.1301L42.7046 17.1101C42.6206 17.1801 42.5226 17.1801 42.4106 17.1101C41.2346 16.1721 40.2966 15.0941 39.8206 14.1421C39.3026 15.1641 38.3366 16.3261 37.1046 17.3061C36.9926 17.3901 36.8806 17.3901 36.8106 17.3061L35.9566 16.3261C35.8726 16.2421 35.8726 16.1161 35.9706 16.0461C37.6506 14.7021 38.8826 13.0221 38.8826 10.6841V9.15812C38.8826 9.06012 38.9386 8.99012 39.0646 8.99012H40.4926C40.6046 8.99012 40.6606 9.06012 40.6606 9.15812V10.6841C40.6606 12.9521 42.0466 14.6601 43.5306 15.8361Z" fill="white"/>
<path d="M58.074 11.2161H59.852C59.992 11.2161 60.048 11.2861 60.048 11.4121V12.6161C60.048 12.7421 59.992 12.7981 59.852 12.7981H58.074V16.6761C58.074 16.7881 58.018 16.8441 57.878 16.8441H56.45C56.338 16.8441 56.282 16.7881 56.282 16.6761V8.05212C56.282 7.94012 56.338 7.87012 56.45 7.87012H57.878C58.018 7.87012 58.074 7.94012 58.074 8.05212V11.2161ZM54.406 8.89212V10.2781C54.406 12.7141 52.418 14.1981 48.988 15.2621C48.862 15.2901 48.764 15.2761 48.722 15.1641L48.288 14.0161C48.232 13.8901 48.302 13.7921 48.414 13.7781C51.186 12.8681 52.6 11.8321 52.6 10.3901V10.2781H48.904C48.778 10.2781 48.722 10.2081 48.722 10.0961V8.89212C48.722 8.78012 48.778 8.72412 48.904 8.72412H54.224C54.364 8.72412 54.406 8.78012 54.406 8.89212ZM52.054 18.4681H58.354C58.48 18.4681 58.536 18.5241 58.536 18.6501V19.8681C58.536 19.9801 58.48 20.0501 58.354 20.0501H50.444C50.318 20.0501 50.262 19.9801 50.262 19.8681V15.9761C50.262 15.8641 50.318 15.8081 50.444 15.8081H51.872C51.998 15.8081 52.054 15.8641 52.054 15.9761V18.4681Z" fill="white"/>
<path d="M179.955 19.092H178.629C178.512 19.092 178.46 19.04 178.46 18.936V7.83404C178.46 7.73004 178.512 7.66504 178.629 7.66504H179.955C180.085 7.66504 180.137 7.73004 180.137 7.83404V18.936C180.137 19.04 180.085 19.092 179.955 19.092ZM171.648 16.635C171.531 16.687 171.466 16.674 171.401 16.583L170.79 15.504C170.725 15.4 170.751 15.322 170.855 15.27C173.663 13.905 174.82 12.579 174.82 10.616V10.356H171.18C171.076 10.356 171.024 10.304 171.024 10.2V9.05604C171.024 8.95204 171.076 8.88704 171.18 8.88704H176.328C176.458 8.88704 176.497 8.95204 176.497 9.05604V10.616C176.497 13.125 174.937 15.01 171.648 16.635Z" fill="#BD5292"/>
<path d="M190.911 10.031H192.562C192.692 10.031 192.744 10.083 192.744 10.2V11.318C192.744 11.435 192.692 11.5 192.562 11.5H190.911V13.918C190.911 14.022 190.859 14.087 190.729 14.087H189.403C189.299 14.087 189.247 14.022 189.247 13.918V7.83404C189.247 7.73004 189.299 7.66504 189.403 7.66504H190.729C190.859 7.66504 190.911 7.73004 190.911 7.83404V10.031ZM185.087 11.682C184.554 12.553 183.592 13.463 182.513 14.048C182.409 14.1 182.292 14.113 182.227 14.035L181.551 13.047C181.486 12.956 181.46 12.839 181.564 12.787C182.916 12.072 184.255 10.642 184.255 9.36804V8.36704C184.255 8.26304 184.307 8.19804 184.411 8.19804H185.737C185.854 8.19804 185.906 8.26304 185.906 8.36704V9.36804C185.906 10.577 186.959 11.76 188.415 12.501C188.506 12.54 188.48 12.644 188.428 12.748L187.791 13.762C187.726 13.84 187.609 13.827 187.505 13.788C186.543 13.268 185.607 12.475 185.087 11.682ZM187.115 14.399C189.728 14.399 191.028 15.361 191.028 16.804C191.028 18.234 189.728 19.222 187.115 19.222C184.489 19.222 183.189 18.234 183.189 16.804C183.189 15.361 184.489 14.399 187.115 14.399ZM187.115 17.831C188.766 17.831 189.377 17.389 189.377 16.804C189.377 16.219 188.766 15.79 187.115 15.79C185.451 15.79 184.84 16.219 184.84 16.804C184.84 17.389 185.451 17.831 187.115 17.831Z" fill="#BD5292"/>
<path d="M201.322 7.66504H202.635C202.765 7.66504 202.817 7.73004 202.817 7.83404V18.936C202.817 19.04 202.765 19.092 202.635 19.092H201.322C201.205 19.092 201.153 19.04 201.153 18.936V7.83404C201.153 7.73004 201.205 7.66504 201.322 7.66504ZM200.1 15.062C200.204 15.14 200.191 15.257 200.113 15.335L199.333 16.245C199.255 16.31 199.164 16.31 199.06 16.245C197.968 15.374 197.097 14.373 196.655 13.489C196.174 14.438 195.277 15.517 194.133 16.427C194.029 16.505 193.925 16.505 193.86 16.427L193.067 15.517C192.989 15.439 192.989 15.322 193.08 15.257C194.64 14.009 195.784 12.449 195.784 10.278V8.86104C195.784 8.77004 195.836 8.70504 195.953 8.70504H197.279C197.383 8.70504 197.435 8.77004 197.435 8.86104V10.278C197.435 12.384 198.722 13.97 200.1 15.062Z" fill="#BD5292"/>
<path d="M213.605 10.772H215.256C215.386 10.772 215.438 10.837 215.438 10.954V12.072C215.438 12.189 215.386 12.241 215.256 12.241H213.605V15.842C213.605 15.946 213.553 15.998 213.423 15.998H212.097C211.993 15.998 211.941 15.946 211.941 15.842V7.83404C211.941 7.73004 211.993 7.66504 212.097 7.66504H213.423C213.553 7.66504 213.605 7.73004 213.605 7.83404V10.772ZM210.199 8.61404V9.90104C210.199 12.163 208.353 13.541 205.168 14.529C205.051 14.555 204.96 14.542 204.921 14.438L204.518 13.372C204.466 13.255 204.531 13.164 204.635 13.151C207.209 12.306 208.522 11.344 208.522 10.005V9.90104H205.09C204.973 9.90104 204.921 9.83604 204.921 9.73204V8.61404C204.921 8.51004 204.973 8.45804 205.09 8.45804H210.03C210.16 8.45804 210.199 8.51004 210.199 8.61404ZM208.015 17.506H213.865C213.982 17.506 214.034 17.558 214.034 17.675V18.806C214.034 18.91 213.982 18.975 213.865 18.975H206.52C206.403 18.975 206.351 18.91 206.351 18.806V15.192C206.351 15.088 206.403 15.036 206.52 15.036H207.846C207.963 15.036 208.015 15.088 208.015 15.192V17.506Z" fill="#BD5292"/>
<path d="M221.932 18.182C220.229 18.182 218.994 17.22 218.539 15.66C218.513 15.543 218.565 15.478 218.669 15.452L219.982 15.101C220.086 15.075 220.151 15.114 220.19 15.218C220.463 15.959 221.009 16.466 221.932 16.466C222.933 16.466 223.57 15.92 223.57 15.088C223.57 14.256 222.881 13.801 221.828 13.801H221.425C221.321 13.801 221.256 13.736 221.256 13.632V12.475C221.256 12.371 221.321 12.306 221.425 12.306H221.828C222.712 12.306 223.323 11.851 223.323 11.188C223.323 10.499 222.725 9.99204 221.893 9.99204C221.074 9.99204 220.541 10.499 220.268 11.24C220.229 11.344 220.164 11.383 220.06 11.357L218.747 11.006C218.643 10.98 218.591 10.915 218.617 10.798C219.072 9.23804 220.294 8.27604 221.932 8.27604C223.778 8.27604 225.143 9.36804 225.143 10.863C225.143 11.799 224.584 12.579 223.648 13.008C224.727 13.372 225.39 14.178 225.39 15.335C225.39 17.038 223.986 18.182 221.932 18.182Z" fill="#BD5292"/>
<path d="M235.337 12.592H227.953C227.823 12.592 227.784 12.54 227.784 12.436V8.17204C227.784 8.06804 227.823 8.00304 227.953 8.00304H229.266C229.37 8.00304 229.422 8.06804 229.422 8.17204V9.12104H233.855V8.17204C233.855 8.06804 233.907 8.00304 234.024 8.00304H235.337C235.454 8.00304 235.506 8.06804 235.506 8.17204V12.436C235.506 12.54 235.454 12.592 235.337 12.592ZM233.855 11.292V10.408H229.422V11.292H233.855ZM226.315 13.502H236.975C237.092 13.502 237.144 13.58 237.144 13.684V14.724C237.144 14.828 237.092 14.893 236.975 14.893H232.594V16.648C232.594 16.752 232.529 16.817 232.425 16.817H231.099C230.982 16.817 230.93 16.752 230.93 16.648V14.893H226.315C226.211 14.893 226.159 14.828 226.159 14.724V13.684C226.159 13.58 226.211 13.502 226.315 13.502ZM229.37 17.675H235.688C235.818 17.675 235.87 17.74 235.87 17.844V18.884C235.87 18.988 235.818 19.053 235.688 19.053H227.901C227.784 19.053 227.732 18.988 227.732 18.884V15.842C227.732 15.738 227.784 15.673 227.901 15.673H229.214C229.331 15.673 229.37 15.738 229.37 15.842V17.675Z" fill="#BD5292"/>
<path d="M246.628 10.447H248.552V7.83404C248.552 7.73004 248.604 7.66504 248.721 7.66504H250.034C250.164 7.66504 250.216 7.73004 250.216 7.83404V15.842C250.216 15.946 250.164 15.998 250.034 15.998H248.721C248.604 15.998 248.552 15.946 248.552 15.842V11.877H246.628C246.511 11.877 246.459 11.812 246.459 11.695V10.629C246.459 10.512 246.511 10.447 246.628 10.447ZM243.95 12.566C243.339 13.333 242.416 13.996 241.324 14.49C241.233 14.542 241.103 14.516 241.051 14.438L240.479 13.463C240.414 13.359 240.414 13.242 240.518 13.19C242.039 12.488 243.118 11.669 243.118 10.577V9.83604H240.986C240.869 9.83604 240.817 9.77104 240.817 9.68004V8.54904C240.817 8.45804 240.869 8.39304 240.986 8.39304H246.836C246.953 8.39304 247.005 8.45804 247.005 8.54904V9.68004C247.005 9.77104 246.953 9.83604 246.836 9.83604H244.769V10.577C244.769 11.604 245.64 12.241 247.187 12.917C247.291 12.956 247.291 13.073 247.239 13.164L246.719 14.165C246.667 14.256 246.55 14.243 246.446 14.204C245.51 13.84 244.587 13.268 243.95 12.566ZM244.314 17.506H250.294C250.411 17.506 250.463 17.558 250.463 17.675V18.806C250.463 18.91 250.411 18.975 250.294 18.975H242.819C242.702 18.975 242.65 18.91 242.65 18.806V15.231C242.65 15.127 242.702 15.062 242.819 15.062H244.08C244.197 15.062 244.314 15.127 244.314 15.231V17.506Z" fill="#BD5292"/>
<path d="M260.509 7.66504H261.822C261.939 7.66504 261.978 7.73004 261.978 7.83404V18.936C261.978 19.04 261.939 19.092 261.822 19.092H260.509C260.405 19.092 260.353 19.04 260.353 18.936V7.83404C260.353 7.73004 260.405 7.66504 260.509 7.66504ZM257.974 7.91204H259.261C259.378 7.91204 259.43 7.97704 259.43 8.08104V18.585C259.43 18.689 259.378 18.754 259.261 18.754H257.974C257.87 18.754 257.818 18.689 257.818 18.585V13.164H256.83C256.687 15.283 255.725 16.453 254.191 16.453C252.54 16.453 251.552 15.075 251.552 12.605C251.552 10.135 252.54 8.77004 254.191 8.77004C255.634 8.77004 256.57 9.79704 256.791 11.682H257.818V8.08104C257.818 7.97704 257.87 7.91204 257.974 7.91204ZM254.191 14.984C254.919 14.984 255.231 14.204 255.231 12.605C255.231 11.006 254.919 10.239 254.191 10.239C253.476 10.239 253.177 11.006 253.177 12.605C253.177 14.204 253.476 14.984 254.191 14.984Z" fill="#BD5292"/>
<path d="M275.076 10.148H276.727C276.857 10.148 276.909 10.213 276.909 10.33V11.448C276.909 11.565 276.857 11.617 276.727 11.617H275.076V13.957C275.076 14.061 275.024 14.113 274.894 14.113H273.568C273.464 14.113 273.412 14.061 273.412 13.957V7.83404C273.412 7.73004 273.464 7.66504 273.568 7.66504H274.894C275.024 7.66504 275.076 7.73004 275.076 7.83404V10.148ZM271.995 8.43204V13.437C271.995 13.528 271.956 13.593 271.839 13.593H266.327C266.197 13.593 266.145 13.528 266.145 13.437V8.43204C266.145 8.32804 266.197 8.26304 266.327 8.26304H267.614C267.731 8.26304 267.783 8.32804 267.783 8.43204V9.66704H270.383V8.43204C270.383 8.32804 270.422 8.26304 270.539 8.26304H271.839C271.956 8.26304 271.995 8.32804 271.995 8.43204ZM267.783 11.006V12.202H270.383V11.006H267.783ZM271.28 14.412C273.854 14.412 275.193 15.413 275.193 16.817C275.193 18.195 273.854 19.209 271.28 19.209C268.693 19.209 267.354 18.208 267.354 16.817C267.354 15.413 268.693 14.412 271.28 14.412ZM271.28 17.818C272.905 17.818 273.542 17.363 273.542 16.817C273.542 16.271 272.905 15.816 271.28 15.816C269.655 15.816 269.005 16.271 269.005 16.817C269.005 17.363 269.655 17.818 271.28 17.818Z" fill="#BD5292"/>
<path d="M286.8 19.092H285.487C285.37 19.092 285.318 19.04 285.318 18.936V7.83404C285.318 7.73004 285.37 7.66504 285.487 7.66504H286.8C286.93 7.66504 286.982 7.73004 286.982 7.83404V18.936C286.982 19.04 286.93 19.092 286.8 19.092ZM280.612 16.531C278.584 16.531 277.245 15.166 277.245 12.579C277.245 10.005 278.584 8.64004 280.612 8.64004C282.653 8.64004 283.979 10.005 283.979 12.579C283.979 15.166 282.653 16.531 280.612 16.531ZM280.612 15.049C281.704 15.049 282.341 14.23 282.341 12.579C282.341 10.941 281.704 10.109 280.612 10.109C279.533 10.109 278.896 10.941 278.896 12.579C278.896 14.23 279.533 15.049 280.612 15.049Z" fill="#BD5292"/>
<path d="M298.104 11.058H299.391V10.044H298.104C297.987 10.044 297.935 9.97904 297.935 9.86204L297.909 8.82204C297.909 8.71804 297.961 8.65304 298.078 8.65304H299.391V7.83404C299.391 7.73004 299.443 7.66504 299.56 7.66504H300.873C301.003 7.66504 301.055 7.73004 301.055 7.83404V13.099C301.055 13.19 301.003 13.255 300.873 13.255H299.56C299.443 13.255 299.391 13.19 299.391 13.099V12.449H298.078C297.961 12.449 297.909 12.384 297.909 12.267L297.935 11.24C297.935 11.123 297.987 11.058 298.104 11.058ZM297.753 10.655C297.753 12.163 296.557 13.346 294.633 13.346C292.722 13.346 291.526 12.163 291.526 10.655C291.526 9.13404 292.722 7.95104 294.633 7.95104C296.557 7.95104 297.753 9.13404 297.753 10.655ZM293.151 10.655C293.151 11.409 293.684 12.007 294.633 12.007C295.582 12.007 296.141 11.409 296.141 10.655C296.141 9.88804 295.582 9.29004 294.633 9.29004C293.684 9.29004 293.151 9.88804 293.151 10.655ZM295.205 17.805H301.185C301.302 17.805 301.367 17.857 301.367 17.974V18.975C301.367 19.079 301.302 19.131 301.185 19.131H293.71C293.606 19.131 293.554 19.079 293.554 18.975V15.985C293.554 15.894 293.606 15.816 293.71 15.816H299.404V15.14H293.684C293.58 15.14 293.528 15.075 293.528 14.971V13.996C293.528 13.892 293.58 13.827 293.684 13.827H300.886C301.003 13.827 301.055 13.892 301.055 13.996V16.934C301.055 17.038 300.99 17.116 300.873 17.116H295.205V17.805Z" fill="#BD5292"/>
<path d="M310.906 7.66504H312.219C312.349 7.66504 312.401 7.73004 312.401 7.83404V18.936C312.401 19.04 312.349 19.092 312.219 19.092H310.906C310.789 19.092 310.737 19.04 310.737 18.936V14.334H309.021C308.891 14.334 308.839 14.269 308.839 14.152V13.086C308.839 12.969 308.891 12.904 309.021 12.904H310.737V11.344H309.073C308.956 11.344 308.904 11.292 308.904 11.175V10.096C308.904 9.99204 308.956 9.92704 309.073 9.92704H310.737V7.83404C310.737 7.73004 310.789 7.66504 310.906 7.66504ZM308.748 14.88L308.917 15.907C308.93 15.998 308.904 16.037 308.774 16.063C307.63 16.31 306.252 16.466 304.692 16.466H303.197C303.093 16.466 303.041 16.401 303.041 16.297V12.072C303.041 11.968 303.093 11.903 303.197 11.903H306.512V10.07H303.171C303.067 10.07 303.015 10.018 303.015 9.90104V8.86104C303.015 8.77004 303.067 8.70504 303.171 8.70504H307.981C308.098 8.70504 308.137 8.77004 308.137 8.86104V13.034C308.137 13.138 308.085 13.203 307.968 13.203H304.692V15.088H304.952C305.94 15.088 307.396 14.984 308.527 14.724C308.644 14.711 308.722 14.75 308.748 14.88Z" fill="#BD5292"/>
<path d="M322.162 16.531H324.58C324.697 16.531 324.749 16.596 324.749 16.7V17.844C324.749 17.935 324.697 18 324.58 18H313.92C313.816 18 313.764 17.935 313.764 17.844V16.7C313.764 16.596 313.816 16.531 313.92 16.531H316.351V13.827C315.584 13.32 315.103 12.54 315.103 11.487C315.103 9.39404 317.001 8.40604 319.25 8.40604C321.499 8.40604 323.41 9.39404 323.41 11.487C323.41 12.54 322.929 13.307 322.162 13.814V16.531ZM319.25 9.86204C317.82 9.86204 316.754 10.356 316.754 11.487C316.754 12.605 317.82 13.112 319.25 13.112C320.693 13.112 321.746 12.592 321.746 11.487C321.746 10.356 320.693 9.86204 319.25 9.86204ZM318.002 14.451V16.531H320.498V14.464C320.108 14.529 319.679 14.568 319.25 14.568C318.821 14.568 318.392 14.529 318.002 14.451Z" fill="#BD5292"/>
<path d="M329.345 11.929C328.747 11.929 328.292 11.5 328.292 10.902C328.292 10.304 328.747 9.87504 329.345 9.87504C329.943 9.87504 330.398 10.304 330.398 10.902C330.398 11.5 329.943 11.929 329.345 11.929ZM329.345 16.895C328.747 16.895 328.292 16.466 328.292 15.868C328.292 15.27 328.747 14.841 329.345 14.841C329.943 14.841 330.398 15.27 330.398 15.868C330.398 16.466 329.943 16.895 329.345 16.895Z" fill="#BD5292"/>
<path d="M334.89 18.182C333.187 18.182 331.952 17.22 331.497 15.66C331.471 15.543 331.523 15.478 331.627 15.452L332.94 15.101C333.044 15.075 333.109 15.114 333.148 15.218C333.421 15.959 333.967 16.466 334.89 16.466C335.891 16.466 336.528 15.92 336.528 15.088C336.528 14.256 335.839 13.801 334.786 13.801H334.383C334.279 13.801 334.214 13.736 334.214 13.632V12.475C334.214 12.371 334.279 12.306 334.383 12.306H334.786C335.67 12.306 336.281 11.851 336.281 11.188C336.281 10.499 335.683 9.99204 334.851 9.99204C334.032 9.99204 333.499 10.499 333.226 11.24C333.187 11.344 333.122 11.383 333.018 11.357L331.705 11.006C331.601 10.98 331.549 10.915 331.575 10.798C332.03 9.23804 333.252 8.27604 334.89 8.27604C336.736 8.27604 338.101 9.36804 338.101 10.863C338.101 11.799 337.542 12.579 336.606 13.008C337.685 13.372 338.348 14.178 338.348 15.335C338.348 17.038 336.944 18.182 334.89 18.182Z" fill="#BD5292"/>
<rect x="2" y="77" width="342" height="155" rx="7" fill="#D652A1" stroke="#D652A1" stroke-width="2"/>
<rect x="1" y="27" width="344" height="202" rx="7" fill="white" stroke="#D652A1" stroke-width="2"/>
<defs>
<linearGradient id="paint0_linear_1894_18345" x1="50" y1="60" x2="344" y2="60" gradientUnits="userSpaceOnUse">
<stop stop-color="#FFB3D4"/>
<stop offset="1" stop-color="white"/>
</linearGradient>
<linearGradient id="paint1_linear_1894_18345" x1="50" y1="60" x2="344" y2="60" gradientUnits="userSpaceOnUse">
<stop stop-color="#FFB3D4"/>
<stop offset="1" stop-color="white"/>
</linearGradient>
</defs>
</svg>
