<svg width="42" height="12" viewBox="0 0 42 12" fill="none" xmlns="http://www.w3.org/2000/svg">
<path d="M1.8005 7.524L1.4045 6.588C1.3805 6.504 1.3925 6.408 1.4885 6.384C3.5525 5.832 4.9925 4.968 5.0165 4.056H1.7525C1.6565 4.056 1.6085 4.008 1.6085 3.912V2.88C1.6085 2.796 1.6565 2.724 1.7525 2.724H5.0165V1.56C5.0165 1.464 5.0645 1.416 5.1605 1.416H6.4085C6.5165 1.416 6.5645 1.464 6.5645 1.56V2.724H9.8165C9.9245 2.724 9.9725 2.796 9.9725 2.88V3.912C9.9725 4.008 9.9245 4.056 9.8165 4.056H6.5645C6.5885 4.968 8.0165 5.832 10.0805 6.384C10.1765 6.408 10.2005 6.504 10.1645 6.588L9.7685 7.524C9.7325 7.62 9.6725 7.656 9.5765 7.632C7.9205 7.212 6.4325 6.516 5.7845 5.832C5.1365 6.516 3.6485 7.212 1.9925 7.632C1.9085 7.656 1.8485 7.62 1.8005 7.524ZM6.5645 9.144H10.7045C10.8125 9.144 10.8605 9.204 10.8605 9.3V10.356C10.8605 10.44 10.8125 10.5 10.7045 10.5H0.8645C0.7685 10.5 0.7205 10.44 0.7205 10.356V9.3C0.7205 9.204 0.7685 9.144 0.8645 9.144H5.0285V7.476C5.0285 7.392 5.0765 7.332 5.1725 7.332H6.3965C6.5165 7.332 6.5645 7.392 6.5645 7.476V9.144ZM19.4383 0.96H20.6503C20.7583 0.96 20.7943 1.02 20.7943 1.116V11.364C20.7943 11.46 20.7583 11.508 20.6503 11.508H19.4383C19.3423 11.508 19.2943 11.46 19.2943 11.364V6.084H18.3223V11.04C18.3223 11.136 18.2743 11.196 18.1783 11.196H16.9903C16.8823 11.196 16.8343 11.136 16.8343 11.04V1.344C16.8343 1.248 16.8823 1.188 16.9903 1.188H18.1783C18.2743 1.188 18.3223 1.248 18.3223 1.344V4.728H19.2943V1.116C19.2943 1.02 19.3423 0.96 19.4383 0.96ZM16.1743 7.56L16.3183 8.58C16.3303 8.664 16.3063 8.7 16.1863 8.724C15.4543 8.916 14.1583 9.024 13.2103 9.024H11.6503C11.5423 9.024 11.4943 8.964 11.4943 8.88V2.292C11.4943 2.208 11.5423 2.148 11.6503 2.148H15.5983C15.6943 2.148 15.7423 2.208 15.7423 2.292V3.324C15.7423 3.42 15.6943 3.468 15.5983 3.468H12.9943V7.68H13.3783C14.1223 7.68 15.2263 7.584 15.9823 7.428C16.0903 7.404 16.1623 7.452 16.1743 7.56ZM30.368 5.028H31.892C32.012 5.028 32.06 5.088 32.06 5.184V6.24C32.06 6.324 32.012 6.384 31.892 6.384H30.368V11.364C30.368 11.46 30.32 11.508 30.2 11.508H28.976C28.88 11.508 28.832 11.46 28.832 11.364V1.116C28.832 1.02 28.88 0.96 28.976 0.96H30.2C30.32 0.96 30.368 1.02 30.368 1.116V5.028ZM25.676 2.664H27.92C28.028 2.664 28.076 2.724 28.076 2.82V3.84C28.076 3.936 28.028 3.996 27.92 3.996H21.884C21.776 3.996 21.74 3.936 21.74 3.84V2.82C21.74 2.724 21.776 2.664 21.884 2.664H24.14V1.428C24.14 1.344 24.188 1.284 24.308 1.284H25.52C25.628 1.284 25.676 1.344 25.676 1.428V2.664ZM24.92 4.608C26.612 4.608 27.692 5.592 27.692 7.188C27.692 8.772 26.612 9.744 24.92 9.744C23.24 9.744 22.172 8.772 22.172 7.188C22.172 5.592 23.24 4.608 24.92 4.608ZM24.932 8.484C25.724 8.484 26.192 7.932 26.192 7.188C26.192 6.42 25.724 5.868 24.932 5.868C24.14 5.868 23.672 6.42 23.672 7.188C23.672 7.932 24.14 8.484 24.932 8.484ZM41.2018 11.508H39.9778C39.8698 11.508 39.8218 11.46 39.8218 11.364V1.116C39.8218 1.02 39.8698 0.96 39.9778 0.96H41.2018C41.3218 0.96 41.3698 1.02 41.3698 1.116V11.364C41.3698 11.46 41.3218 11.508 41.2018 11.508ZM33.5337 9.24C33.4257 9.288 33.3657 9.276 33.3057 9.192L32.7417 8.196C32.6817 8.1 32.7057 8.028 32.8017 7.98C35.3937 6.72 36.4617 5.496 36.4617 3.684V3.444H33.1017C33.0057 3.444 32.9577 3.396 32.9577 3.3V2.244C32.9577 2.148 33.0057 2.088 33.1017 2.088H37.8538C37.9737 2.088 38.0097 2.148 38.0097 2.244V3.684C38.0097 6 36.5697 7.74 33.5337 9.24Z" fill="#32384F"/>
</svg>
