<svg width="49" height="49" viewBox="0 0 49 49" fill="none" xmlns="http://www.w3.org/2000/svg">
<path d="M12.0208 36.0618C5.3819 29.4229 5.3819 18.6591 12.0208 12.0202V12.0202C18.6597 5.38129 29.4235 5.38129 36.0624 12.0202V12.0202C42.7014 18.6591 42.7014 29.4229 36.0624 36.0618V36.0618C29.4235 42.7007 18.6597 42.7007 12.0208 36.0618V36.0618Z" fill="url(#paint0_radial_1321_5236)"/>
<path d="M28.2764 31.6191C28.641 31.6191 28.9535 31.4863 29.2139 31.2207C29.4743 30.9551 29.6045 30.5879 29.6045 30.1191V18.6973C29.6045 18.2285 29.4743 17.8639 29.2139 17.6035C28.9535 17.3379 28.641 17.2051 28.2764 17.2051C28.0941 17.2051 27.917 17.2337 27.7451 17.291C27.568 17.3483 27.3701 17.4395 27.1514 17.5645L17.7764 23.002C17.417 23.2103 17.1488 23.4212 16.9717 23.6348C16.7894 23.8483 16.6982 24.1061 16.6982 24.4082C16.6982 24.7103 16.7894 24.9681 16.9717 25.1816C17.1488 25.3952 17.417 25.6061 17.7764 25.8145L27.1514 31.252C27.3701 31.377 27.568 31.4681 27.7451 31.5254C27.917 31.5879 28.0941 31.6191 28.2764 31.6191Z" fill="url(#paint1_linear_1321_5236)"/>
<defs>
<radialGradient id="paint0_radial_1321_5236" cx="0" cy="0" r="1" gradientUnits="userSpaceOnUse" gradientTransform="translate(21.0416 21.041) rotate(45) scale(28.2843)">
<stop offset="0.40625" stop-color="white"/>
<stop offset="0.651042" stop-color="#CACCDC"/>
<stop offset="0.838542" stop-color="#F4F6FF"/>
</radialGradient>
<linearGradient id="paint1_linear_1321_5236" x1="24.042" y1="16.041" x2="24.042" y2="32.041" gradientUnits="userSpaceOnUse">
<stop stop-color="#AFAFAF"/>
<stop offset="1" stop-color="#676767"/>
</linearGradient>
</defs>
</svg>
