<svg width="211" height="159" viewBox="0 0 211 159" fill="none" xmlns="http://www.w3.org/2000/svg">
<ellipse cx="105.465" cy="60.7895" rx="90.0854" ry="54.1977" fill="white"/>
<path d="M128.414 130.368H82.0283C82.0283 138.628 87.1742 154.867 107.758 153.75C128.341 152.633 130.105 137.697 128.414 130.368Z" fill="#D7D7D7"/>
<path d="M172.847 112.34L147.213 125.889C155.636 138.34 163.692 138.34 176.875 131.016C187.422 125.157 178.584 116.124 172.847 112.34Z" fill="#D7D7D7"/>
<path d="M36.7497 112.34L62.3838 125.889C53.9612 138.34 45.9048 138.34 32.7215 131.016C22.175 125.157 31.0126 116.124 36.7497 112.34Z" fill="#D7D7D7"/>
<path d="M185.664 101.72L195.551 82.6774C199.213 81.2126 206.245 81.2858 205.073 93.2972C203.901 105.309 191.645 103.917 185.664 101.72Z" fill="#D7D7D7"/>
<path d="M23.9336 101.72L14.0462 82.6774C10.3842 81.2126 3.35312 81.2858 4.52496 93.2972C5.6968 105.309 17.9523 103.917 23.9336 101.72Z" fill="#D7D7D7"/>
<path fill-rule="evenodd" clip-rule="evenodd" d="M191.522 78.001L189.691 90.4518L184.198 99.6068L184.93 112.058L176.508 113.889L174.677 109.86L145.381 126.339L151.24 139.889L128.535 147.579V129.269L105.099 131.647V131.833L104.183 131.74L103.268 131.832V131.647L79.8312 129.269V147.579L57.1268 139.889L62.986 126.34L33.69 109.861L31.859 113.889L23.4363 112.058L24.1687 99.6069L18.6757 90.4519L16.8447 78.0011C31.3035 107.497 80.4911 117.06 104.182 118.241C127.873 117.06 177.063 107.498 191.522 78.001Z" fill="#F16969"/>
<path d="M105.139 108.82C59.7372 108.82 22.8096 87.3461 22.8096 60.9576C22.8096 34.5692 59.7446 13.0879 105.139 13.0879C150.533 13.0879 187.468 34.5619 187.468 60.9503C187.468 87.3387 150.533 108.813 105.139 108.813V108.82ZM105.139 15.2851C60.953 15.2851 25.0068 35.7704 25.0068 60.9503C25.0068 86.1303 60.953 106.616 105.139 106.616C149.325 106.616 185.271 86.1303 185.271 60.9503C185.271 35.7704 149.325 15.2851 105.139 15.2851Z" fill="#61647B"/>
<path d="M205.954 82.2047C204.467 80.6227 202.665 79.2898 200.659 78.2351V59.3245H200.622C199.978 43.263 189.834 28.3659 171.89 17.2261C153.997 6.11555 130.29 0 105.139 0C79.9882 0 56.2877 6.11555 38.3878 17.2261C20.444 28.3659 10.3002 43.263 9.65572 59.3245H9.6191V78.4109C3.07875 81.8971 -0.890863 88.2983 0.171119 94.824C1.35029 102.067 8.37401 107.187 16.8186 107.656C18.7009 111.23 20.9274 114.716 23.4908 118.085C23.3443 118.605 23.2198 119.132 23.1319 119.682C21.5792 129.203 30.1703 138.255 42.6797 140.291C44.3056 140.555 45.9242 140.687 47.5209 140.687C47.9823 140.687 48.4364 140.672 48.8905 140.65C60.7627 147.908 74.1949 152.764 88.3083 154.925C93.0323 157.378 98.8183 158.814 105.139 158.814C111.46 158.814 117.238 157.378 121.969 154.925C136.083 152.764 149.515 147.908 161.387 140.65C161.841 140.672 162.295 140.687 162.757 140.687C164.354 140.687 165.972 140.555 167.598 140.291C180.107 138.255 188.699 129.203 187.146 119.682C187.058 119.14 186.933 118.605 186.787 118.085C189.387 114.672 191.643 111.127 193.54 107.502C196.645 107.333 199.619 106.528 202.211 105.136C206.518 102.822 209.396 98.9987 210.099 94.6556C210.81 90.3124 209.294 85.7715 205.947 82.2121L205.954 82.2047ZM43.0239 24.6966C59.5469 14.443 81.6068 8.78882 105.139 8.78882C128.671 8.78882 150.731 14.4356 167.254 24.6966C183.125 34.5474 191.87 47.423 191.87 60.9578C191.87 74.4926 183.132 87.3682 167.254 97.219C150.731 107.473 128.671 113.127 105.139 113.127C81.6068 113.127 59.5469 107.48 43.0239 97.219C27.1528 87.3682 18.4079 74.4926 18.4079 60.9578C18.4079 47.423 27.1455 34.5474 43.0239 24.6966ZM20.4293 98.7204C14.7679 99.6359 9.46529 97.2116 8.85008 93.4178C8.36669 90.4443 10.8788 87.3608 14.7093 85.7203C16.0862 89.1992 17.8952 92.6415 20.1584 95.9885C20.7077 96.8015 21.2862 97.6071 21.8868 98.4055C21.4108 98.5373 20.9274 98.6472 20.4367 98.7277L20.4293 98.7204ZM59.0855 125.541C58.6607 128.134 56.2071 129.679 54.7863 130.367C51.8494 131.788 47.953 132.242 44.0932 131.613C36.8278 130.426 31.0858 125.512 31.8035 121.088C32.2796 118.173 35.4875 115.954 39.6988 115.112C40.9659 115.961 42.2622 116.781 43.5805 117.558C44.2397 117.953 44.9282 118.327 45.602 118.715V122.743C45.602 123.351 46.0927 123.842 46.7006 123.842C47.3085 123.842 47.7992 123.351 47.7992 122.743V119.938C51.4026 121.857 55.1818 123.593 59.1148 125.131C59.1075 125.263 59.1001 125.402 59.0782 125.534L59.0855 125.541ZM105.139 150.025C94.0796 150.025 84.7415 144.056 84.7415 136.996C84.7415 135.297 85.2908 133.671 86.2649 132.169C92.0802 133.004 98.0273 133.466 104.04 133.531V137.318C104.04 137.926 104.531 138.417 105.139 138.417C105.747 138.417 106.237 137.926 106.237 137.318V133.531C112.331 133.502 118.293 133.07 124.079 132.264C125.016 133.744 125.544 135.34 125.544 136.996C125.544 144.056 116.205 150.025 105.146 150.025H105.139ZM166.185 131.613C162.325 132.242 158.428 131.788 155.491 130.367C154.071 129.679 151.617 128.134 151.192 125.541C151.178 125.431 151.17 125.321 151.163 125.211C155.103 123.644 158.875 121.872 162.471 119.901V122.758C162.471 123.366 162.962 123.856 163.57 123.856C164.178 123.856 164.668 123.366 164.668 122.758V118.664C166.624 117.528 168.521 116.335 170.352 115.082C174.673 115.888 177.984 118.136 178.467 121.103C179.185 125.526 173.443 130.441 166.177 131.627L166.185 131.613ZM182.524 99.4894V106.704C182.803 106.389 183.074 106.074 183.345 105.759C183.645 105.883 183.953 106.008 184.26 106.125C183.396 107.59 182.466 109.033 181.47 110.461C181.001 110.095 180.503 109.743 179.99 109.421C180.195 109.208 180.408 109.003 180.613 108.791V101.482C170.015 112.27 155.653 119.433 140.961 123.695V132.33C142.001 132.015 143.026 131.678 144.051 131.334C145.296 133.597 147.201 135.575 149.618 137.12C144.337 139.742 138.785 141.888 133.043 143.529C133.878 141.471 134.325 139.281 134.325 136.988C134.325 136.029 134.245 135.084 134.091 134.169C135.153 133.92 136.207 133.663 137.262 133.378V124.706C135.123 125.255 132.977 125.753 130.846 126.185C117.568 128.793 103.828 129.342 90.381 127.863C84.7342 127.269 78.8676 126.229 73.0158 124.728V133.224C74.0704 133.509 75.1397 133.766 76.209 134.022C76.0406 134.989 75.9454 135.978 75.9454 136.988C75.9454 139.273 76.3921 141.471 77.2271 143.529C71.485 141.888 65.9334 139.75 60.6601 137.128C63.121 135.553 65.0472 133.517 66.2923 131.202C67.2957 131.539 68.2991 131.862 69.3171 132.169V123.717C54.5299 119.418 40.1163 112.116 29.6649 101.562V108.959C29.8407 109.142 30.0165 109.311 30.1923 109.494C29.7089 109.802 29.2475 110.131 28.808 110.475C27.8412 109.091 26.9404 107.692 26.1054 106.279C26.3911 106.176 26.6621 106.059 26.9404 105.942C27.2114 106.257 27.4824 106.579 27.7607 106.887V99.57C24.8384 96.3474 22.2823 92.8319 20.1803 89.038C24.8237 94.7874 30.932 100.068 38.3951 104.697C56.295 115.807 79.9955 121.923 105.146 121.923C130.297 121.923 153.997 115.807 171.897 104.697C179.309 100.097 185.381 94.8533 190.017 89.1552C187.878 92.9051 185.366 96.3474 182.524 99.4967H182.539L182.524 99.4894ZM201.428 93.242C201.061 95.4685 199.157 96.8015 198.051 97.3947C195.796 98.6105 192.8 99.028 189.848 98.5519C189.35 98.4714 188.867 98.3542 188.391 98.2297C188.955 97.5046 189.504 96.7649 190.032 96.0178L190.046 96.0032L190.061 95.9885C192.317 92.7 194.155 89.1699 195.532 85.5372C197.107 86.2036 198.498 87.1265 199.545 88.2397C200.402 89.1552 201.794 91.0228 201.428 93.2493V93.242Z" fill="#61647B"/>
</svg>
