<svg width="15" height="15" viewBox="0 0 15 15" fill="none" xmlns="http://www.w3.org/2000/svg">
<path opacity="0.6" d="M0.662109 14.501C0.515625 14.3545 0.418945 14.1846 0.37207 13.9912C0.325195 13.7979 0.325195 13.6045 0.37207 13.4111C0.418945 13.2178 0.512695 13.0508 0.65332 12.9102L5.8916 7.66309L0.65332 2.4248C0.512695 2.29004 0.418945 2.12598 0.37207 1.93262C0.331055 1.7334 0.331055 1.53711 0.37207 1.34375C0.418945 1.15039 0.515625 0.980469 0.662109 0.833984C0.802734 0.6875 0.969727 0.59082 1.16309 0.543945C1.3623 0.49707 1.55859 0.49707 1.75195 0.543945C1.95117 0.59082 2.12109 0.68457 2.26172 0.825195L7.5 6.06348L12.7383 0.825195C12.8789 0.68457 13.0459 0.59082 13.2393 0.543945C13.4326 0.49707 13.626 0.49707 13.8193 0.543945C14.0127 0.59082 14.1826 0.69043 14.3291 0.842773C14.4756 0.983398 14.5723 1.15039 14.6191 1.34375C14.6719 1.53711 14.6719 1.73047 14.6191 1.92383C14.5723 2.11719 14.4785 2.28418 14.3379 2.4248L9.1084 7.66309L14.3379 12.9102C14.4785 13.0508 14.5723 13.2178 14.6191 13.4111C14.666 13.6045 14.666 13.7979 14.6191 13.9912C14.5723 14.1846 14.4756 14.3545 14.3291 14.501C14.1826 14.6475 14.0127 14.7441 13.8193 14.791C13.626 14.8379 13.4326 14.8379 13.2393 14.791C13.0459 14.7441 12.8789 14.6504 12.7383 14.5098L7.5 9.27148L2.26172 14.5098C2.12109 14.6504 1.9541 14.7441 1.76074 14.791C1.56738 14.8379 1.37109 14.8379 1.17188 14.791C0.978516 14.7441 0.808594 14.6475 0.662109 14.501Z" fill="#2FA1A8"/>
</svg>
