<svg width="67" height="27" viewBox="0 0 67 27" fill="none" xmlns="http://www.w3.org/2000/svg">
<rect x="1" y="1" width="64.4101" height="25" rx="12.5" fill="url(#paint0_linear_1721_6208)"/>
<path d="M20.2004 19.0706H18.8744C18.7574 19.0706 18.7054 19.0186 18.7054 18.9146V7.81255C18.7054 7.70855 18.7574 7.64355 18.8744 7.64355H20.2004C20.3304 7.64355 20.3824 7.70855 20.3824 7.81255V18.9146C20.3824 19.0186 20.3304 19.0706 20.2004 19.0706ZM11.8934 16.6136C11.7764 16.6656 11.7114 16.6526 11.6464 16.5616L11.0354 15.4826C10.9704 15.3786 10.9964 15.3006 11.1004 15.2486C13.9084 13.8836 15.0654 12.5576 15.0654 10.5946V10.3346H11.4254C11.3214 10.3346 11.2694 10.2826 11.2694 10.1786V9.03455C11.2694 8.93055 11.3214 8.86555 11.4254 8.86555H16.5734C16.7034 8.86555 16.7424 8.93055 16.7424 9.03455V10.5946C16.7424 13.1036 15.1824 14.9886 11.8934 16.6136Z" fill="#1E8E95"/>
<path d="M30.91 12.5706H23.526C23.396 12.5706 23.357 12.5186 23.357 12.4146V8.15055C23.357 8.04655 23.396 7.98155 23.526 7.98155H24.839C24.943 7.98155 24.995 8.04655 24.995 8.15055V9.09955H29.428V8.15055C29.428 8.04655 29.48 7.98155 29.597 7.98155H30.91C31.027 7.98155 31.079 8.04655 31.079 8.15055V12.4146C31.079 12.5186 31.027 12.5706 30.91 12.5706ZM29.428 11.2706V10.3866H24.995V11.2706H29.428ZM21.888 13.4806H32.548C32.665 13.4806 32.717 13.5586 32.717 13.6626V14.7026C32.717 14.8066 32.665 14.8716 32.548 14.8716H28.167V16.6266C28.167 16.7306 28.102 16.7956 27.998 16.7956H26.672C26.555 16.7956 26.503 16.7306 26.503 16.6266V14.8716H21.888C21.784 14.8716 21.732 14.8066 21.732 14.7026V13.6626C21.732 13.5586 21.784 13.4806 21.888 13.4806ZM24.943 17.6536H31.261C31.391 17.6536 31.443 17.7186 31.443 17.8226V18.8626C31.443 18.9666 31.391 19.0316 31.261 19.0316H23.474C23.357 19.0316 23.305 18.9666 23.305 18.8626V15.8206C23.305 15.7166 23.357 15.6516 23.474 15.6516H24.787C24.904 15.6516 24.943 15.7166 24.943 15.8206V17.6536Z" fill="#1E8E95"/>
<path d="M34.3656 11.8166L34.0796 10.8156C34.0406 10.6986 34.0666 10.6206 34.1576 10.6076C36.1726 10.2826 37.4986 9.82755 37.7066 9.21655H34.6776C34.5606 9.21655 34.5086 9.15155 34.5086 9.06055V8.03355C34.5086 7.92955 34.5606 7.85155 34.6776 7.85155H42.4516C42.5556 7.85155 42.6076 7.92955 42.6076 8.03355V9.06055C42.6076 9.15155 42.5556 9.21655 42.4516 9.21655H39.4356C39.6436 9.82755 40.9436 10.2826 42.9586 10.6076C43.0626 10.6206 43.0756 10.6986 43.0496 10.8156L42.7896 11.8166C42.7636 11.9076 42.6726 11.9336 42.5686 11.9206C40.9046 11.7386 39.4616 11.2706 38.5646 10.5166C37.6806 11.2706 36.2246 11.7386 34.5736 11.9206C34.4696 11.9336 34.4046 11.9206 34.3656 11.8166ZM39.3966 12.5706H43.8946C44.0116 12.5706 44.0636 12.6356 44.0636 12.7396V13.7406C44.0636 13.8316 44.0116 13.8966 43.8946 13.8966H33.2346C33.1306 13.8966 33.0786 13.8316 33.0786 13.7406V12.7396C33.0786 12.6356 33.1306 12.5706 33.2346 12.5706H37.7326V11.6086C37.7326 11.5046 37.7846 11.4396 37.8886 11.4396H39.2146C39.3316 11.4396 39.3966 11.5046 39.3966 11.6086V12.5706ZM39.3966 15.3656H42.5296C42.6336 15.3656 42.6856 15.4306 42.6856 15.5346V16.5486C42.6856 16.6396 42.6336 16.7046 42.5296 16.7046H41.6196C41.7886 16.9386 41.9056 17.2116 41.9056 17.5366C41.9056 18.6676 40.7096 19.3566 38.5516 19.3566C36.3936 19.3566 35.2106 18.6676 35.2106 17.5106C35.2106 17.1986 35.3146 16.9256 35.4966 16.7046H34.6126C34.4956 16.7046 34.4436 16.6396 34.4436 16.5486V15.5346C34.4436 15.4306 34.4956 15.3656 34.6126 15.3656H37.7326V14.5336C37.7326 14.4296 37.7846 14.3776 37.8886 14.3776H39.2276C39.3446 14.3776 39.3966 14.4296 39.3966 14.5336V15.3656ZM38.5516 18.0566C39.7866 18.0566 40.2416 17.7836 40.2416 17.3936C40.2416 17.0296 39.7866 16.7566 38.5516 16.7566C37.3166 16.7566 36.8746 17.0296 36.8746 17.3936C36.8746 17.7836 37.3166 18.0566 38.5516 18.0566Z" fill="#1E8E95"/>
<path d="M49.9111 12.6486C47.2981 12.6486 46.1541 11.5696 46.1541 10.2826C46.1541 8.99555 47.2981 7.91655 49.9111 7.91655C52.5371 7.91655 53.6681 8.99555 53.6681 10.2826C53.6681 11.5696 52.5371 12.6486 49.9111 12.6486ZM49.9111 11.2966C51.4841 11.2966 52.0171 10.8416 52.0171 10.2826C52.0171 9.71055 51.4841 9.26855 49.9111 9.26855C48.3511 9.26855 47.8051 9.71055 47.8051 10.2826C47.8051 10.8416 48.3511 11.2966 49.9111 11.2966ZM55.2411 14.8456H44.5811C44.4771 14.8456 44.4251 14.7806 44.4251 14.6896V13.6366C44.4251 13.5326 44.4771 13.4546 44.5811 13.4546H55.2411C55.3581 13.4546 55.4101 13.5326 55.4101 13.6366V14.6896C55.4101 14.7806 55.3581 14.8456 55.2411 14.8456ZM53.9541 19.0316H46.2971C46.1671 19.0316 46.1151 18.9666 46.1151 18.8626V15.7946C46.1151 15.6906 46.1671 15.6386 46.2971 15.6386H47.6101C47.7141 15.6386 47.7661 15.6906 47.7661 15.7946V17.6536H53.9541C54.0841 17.6536 54.1361 17.7186 54.1361 17.8226V18.8626C54.1361 18.9666 54.0841 19.0316 53.9541 19.0316Z" fill="#1E8E95"/>
<rect x="1" y="1" width="64.4101" height="25" rx="12.5" stroke="url(#paint1_linear_1721_6208)" stroke-width="2"/>
<defs>
<linearGradient id="paint0_linear_1721_6208" x1="33.2051" y1="0" x2="33.2051" y2="27" gradientUnits="userSpaceOnUse">
<stop offset="0.135417" stop-color="#E8FFF8"/>
<stop offset="1" stop-color="#9ED1D2"/>
</linearGradient>
<linearGradient id="paint1_linear_1721_6208" x1="33.2051" y1="0" x2="33.2051" y2="27" gradientUnits="userSpaceOnUse">
<stop stop-color="white"/>
<stop offset="1" stop-color="#7DCCD1"/>
</linearGradient>
</defs>
</svg>
