<svg width="174" height="49" viewBox="0 0 174 49" fill="none" xmlns="http://www.w3.org/2000/svg">
<path fill-rule="evenodd" clip-rule="evenodd" d="M24.4713 3C12.0607 3 2 13.2975 2 26C2 38.7025 12.0607 49 24.4713 49C29.1847 49 33.5593 47.5146 37.1724 44.9763C40.7856 47.5146 45.1601 49 49.8736 49C54.3766 49 58.5702 47.6443 62.0862 45.31C65.6022 47.6443 69.7958 49 74.2989 49C79.0123 49 83.3869 47.5146 87 44.9763C90.6131 47.5146 94.9877 49 99.7011 49C104.629 49 109.187 47.3764 112.891 44.6233C116.595 47.3764 121.152 49 126.08 49C130.377 49 134.391 47.7659 137.805 45.6253C141.218 47.7659 145.232 49 149.529 49C161.939 49 172 38.7025 172 26C172 13.2975 161.939 3 149.529 3C145.232 3 141.218 4.23405 137.805 6.37474C134.391 4.23405 130.377 3 126.08 3C121.152 3 116.595 4.62363 112.891 7.37675C109.187 4.62363 104.629 3 99.7011 3C94.9877 3 90.6131 4.48536 87 7.0237C83.3869 4.48536 79.0123 3 74.2989 3C69.7958 3 65.6022 4.35568 62.0862 6.69002C58.5702 4.35568 54.3766 3 49.8736 3C45.1601 3 40.7856 4.48536 37.1724 7.0237C33.5593 4.48536 29.1847 3 24.4713 3Z" fill="#2FA1A8"/>
<path fill-rule="evenodd" clip-rule="evenodd" d="M23 0C10.2975 0 0 10.2975 0 23C0 35.7025 10.2975 46 23 46C27.8244 46 32.3018 44.5146 36 41.9763C39.6982 44.5146 44.1756 46 49 46C53.609 46 57.9013 44.6443 61.5 42.31C65.0987 44.6443 69.391 46 74 46C78.8244 46 83.3018 44.5146 87 41.9763C90.6982 44.5146 95.1756 46 100 46C105.044 46 109.709 44.3764 113.5 41.6233C117.291 44.3764 121.956 46 127 46C131.397 46 135.507 44.7659 139 42.6253C142.493 44.7659 146.603 46 151 46C163.703 46 174 35.7025 174 23C174 10.2975 163.703 0 151 0C146.603 0 142.493 1.23405 139 3.37474C135.507 1.23405 131.397 0 127 0C121.956 0 117.291 1.62363 113.5 4.37675C109.709 1.62363 105.044 0 100 0C95.1756 0 90.6982 1.48536 87 4.0237C83.3018 1.48536 78.8244 0 74 0C69.391 0 65.0987 1.35568 61.5 3.69002C57.9013 1.35568 53.609 0 49 0C44.1756 0 39.6982 1.48536 36 4.0237C32.3018 1.48536 27.8244 0 23 0Z" fill="white"/>
<path fill-rule="evenodd" clip-rule="evenodd" d="M36 39.5505L37.1318 40.3274C40.5075 42.6443 44.5924 44 49 44C53.2111 44 57.1272 42.7626 60.4116 40.6321L61.5 39.9261L62.5884 40.6321C65.8728 42.7626 69.7888 44 74 44C78.4076 44 82.4925 42.6443 85.8682 40.3274L87 39.5505L88.1318 40.3274C91.5075 42.6443 95.5924 44 100 44C104.608 44 108.864 42.5183 112.325 40.0049L113.5 39.1516L114.675 40.0049C118.136 42.5183 122.392 44 127 44C131.018 44 134.767 42.8734 137.955 40.92L139 40.2796L140.045 40.92C143.233 42.8734 146.982 44 151 44C162.598 44 172 34.598 172 23C172 11.402 162.598 2 151 2C146.982 2 143.233 3.12656 140.045 5.08004L139 5.72035L137.955 5.08004C134.767 3.12656 131.018 2 127 2C122.392 2 118.136 3.4817 114.675 5.99508L113.5 6.84843L112.325 5.99508C108.864 3.4817 104.608 2 100 2C95.5924 2 91.5075 3.35566 88.1318 5.67265L87 6.4495L85.8682 5.67265C82.4925 3.35566 78.4076 2 74 2C69.7888 2 65.8728 3.23744 62.5884 5.36793L61.5 6.07394L60.4116 5.36793C57.1272 3.23744 53.2111 2 49 2C44.5924 2 40.5075 3.35566 37.1318 5.67265L36 6.4495L34.8682 5.67265C31.4925 3.35566 27.4076 2 23 2C11.402 2 2 11.402 2 23C2 34.598 11.402 44 23 44C27.4076 44 31.4925 42.6443 34.8682 40.3274L36 39.5505ZM36 4.0237C39.6982 1.48536 44.1756 0 49 0C53.609 0 57.9013 1.35568 61.5 3.69002C65.0987 1.35568 69.391 0 74 0C78.8244 0 83.3018 1.48536 87 4.0237C90.6982 1.48536 95.1756 0 100 0C105.044 0 109.709 1.62363 113.5 4.37675C117.291 1.62363 121.956 0 127 0C131.397 0 135.507 1.23405 139 3.37474C142.493 1.23405 146.603 0 151 0C163.703 0 174 10.2975 174 23C174 35.7025 163.703 46 151 46C146.603 46 142.493 44.7659 139 42.6253C135.507 44.7659 131.397 46 127 46C121.956 46 117.291 44.3764 113.5 41.6233C109.709 44.3764 105.044 46 100 46C95.1756 46 90.6982 44.5146 87 41.9763C83.3018 44.5146 78.8244 46 74 46C69.391 46 65.0987 44.6443 61.5 42.31C57.9013 44.6443 53.609 46 49 46C44.1756 46 39.6982 44.5146 36 41.9763C32.3018 44.5146 27.8244 46 23 46C10.2975 46 0 35.7025 0 23C0 10.2975 10.2975 0 23 0C27.8244 0 32.3018 1.48536 36 4.0237Z" fill="#2FA1A8"/>
<path fill-rule="evenodd" clip-rule="evenodd" d="M23 4C12.5066 4 4 12.5066 4 23C4 33.4934 12.5066 42 23 42C28.0289 42 32.6014 40.0463 36 36.8565C39.3986 40.0463 43.9711 42 49 42C53.7862 42 58.1591 40.2303 61.5 37.3094C64.8409 40.2303 69.2138 42 74 42C79.0288 42 83.6014 40.0463 87 36.8565C90.3986 40.0463 94.9712 42 100 42C105.28 42 110.057 39.8464 113.5 36.3697C116.943 39.8464 121.72 42 127 42C131.551 42 135.728 40.3999 139 37.7317C142.272 40.3999 146.449 42 151 42C161.493 42 170 33.4934 170 23C170 12.5066 161.493 4 151 4C146.449 4 142.272 5.60006 139 8.26832C135.728 5.60006 131.551 4 127 4C121.72 4 116.943 6.15359 113.5 9.63026C110.057 6.15359 105.28 4 100 4C94.9712 4 90.3986 5.95371 87 9.14351C83.6014 5.95371 79.0288 4 74 4C69.2138 4 64.8409 5.76975 61.5 8.69056C58.1591 5.76975 53.7862 4 49 4C43.9711 4 39.3986 5.95371 36 9.14351C32.6014 5.95371 28.0289 4 23 4Z" fill="url(#paint0_linear_1190_7093)"/>
<path d="M59.7639 25.2659H48.6039C48.4419 25.2659 48.3699 25.1759 48.3699 25.0319V23.4659C48.3699 23.3219 48.4419 23.2499 48.6039 23.2499H50.3859V18.9839H48.6939C48.5139 18.9839 48.4419 18.9119 48.4419 18.7679V17.2019C48.4419 17.0579 48.5139 16.9679 48.6939 16.9679H59.6739C59.8539 16.9679 59.9259 17.0579 59.9259 17.2019V18.7679C59.9259 18.9119 59.8539 18.9839 59.6739 18.9839H57.9639V23.2499H59.7639C59.9439 23.2499 60.0159 23.3219 60.0159 23.4659V25.0319C60.0159 25.1759 59.9439 25.2659 59.7639 25.2659ZM55.7139 18.9839H52.6539V23.2499H55.7139V18.9839ZM46.8039 27.9659H61.5639C61.7259 27.9659 61.7979 28.0559 61.7979 28.1999V29.7839C61.7979 29.9099 61.7259 29.9999 61.5639 29.9999H46.8039C46.6599 29.9999 46.5879 29.9099 46.5879 29.7839V28.1999C46.5879 28.0559 46.6599 27.9659 46.8039 27.9659Z" fill="white"/>
<path d="M71.0465 27.9659H77.2745C77.4365 27.9659 77.5085 28.0559 77.5085 28.1999V29.7839C77.5085 29.9099 77.4365 29.9999 77.2745 29.9999H62.5145C62.3705 29.9999 62.2985 29.9099 62.2985 29.7839V28.1999C62.2985 28.0559 62.3705 27.9659 62.5145 27.9659H68.7605V25.6439H64.7645C64.6025 25.6439 64.5485 25.5539 64.5485 25.4279V20.5679C64.5485 20.4239 64.6025 20.3159 64.7645 20.3159H72.9545V18.8579H64.7285C64.5845 18.8579 64.5125 18.7679 64.5125 18.6059V17.1299C64.5125 16.9859 64.5845 16.8959 64.7285 16.8959H75.0245C75.1865 16.8959 75.2585 16.9859 75.2585 17.1299V21.9539C75.2585 22.0799 75.1685 22.1879 75.0065 22.1879H66.8345V23.7359H75.3845C75.5465 23.7359 75.6365 23.8079 75.6365 23.9699V25.4279C75.6365 25.5539 75.5465 25.6439 75.3845 25.6439H71.0465V27.9659Z" fill="white"/>
<path d="M91.5811 23.5379H89.7631C89.6011 23.5379 89.5291 23.4479 89.5291 23.3039V15.9239C89.5291 15.7799 89.6011 15.6899 89.7631 15.6899H91.5811C91.7611 15.6899 91.8331 15.7799 91.8331 15.9239V23.3039C91.8331 23.4479 91.7611 23.5379 91.5811 23.5379ZM88.1431 21.2879L88.3591 22.6559C88.3771 22.7459 88.3231 22.8359 88.1971 22.8719C86.4691 23.2679 83.3551 23.4479 81.2851 23.4479H78.3151C78.1531 23.4479 78.0991 23.3579 78.0991 23.2319V21.7199C78.0991 21.5759 78.1531 21.5759 78.3151 21.5759H79.9531V18.3899H78.6751C78.5131 18.3899 78.4411 18.2999 78.4411 18.1559V16.7519C78.4411 16.6079 78.5131 16.5179 78.6751 16.5179H87.4231C87.6031 16.5179 87.6571 16.6079 87.6571 16.7519V18.1559C87.6571 18.2999 87.6031 18.3899 87.4231 18.3899H86.2711V21.3239C86.8471 21.2519 87.3871 21.1799 87.8731 21.0899C88.0351 21.0539 88.1071 21.1079 88.1431 21.2879ZM84.0571 21.4859V18.3899H82.1671V21.5579C82.7971 21.5399 83.4271 21.5219 84.0571 21.4859ZM83.7331 29.7299H92.0131C92.1751 29.7299 92.2651 29.8019 92.2651 29.9639V31.3499C92.2651 31.4939 92.1751 31.5659 92.0131 31.5659H81.6631C81.5191 31.5659 81.4471 31.4939 81.4471 31.3499V27.2639C81.4471 27.1379 81.5191 27.0299 81.6631 27.0299H89.5471V26.1479H81.6271C81.4831 26.1479 81.4111 26.0579 81.4111 25.8959V24.5639C81.4111 24.4199 81.4831 24.3299 81.6271 24.3299H91.5991C91.7611 24.3299 91.8331 24.4199 91.8331 24.5639V28.5959C91.8331 28.7399 91.7431 28.8299 91.5811 28.8299H83.7331V29.7299Z" fill="white"/>
<path d="M99.2588 23.1059L98.6648 21.5759C98.6108 21.4679 98.6468 21.3239 98.7908 21.2879C101.905 20.4959 103.939 18.9479 103.939 17.5619V16.3379C103.939 16.1939 104.011 16.1039 104.155 16.1039H106.027C106.189 16.1039 106.261 16.1939 106.261 16.3379V17.5619C106.261 18.9479 108.295 20.4959 111.409 21.2879C111.535 21.3239 111.571 21.4679 111.517 21.5759L110.941 23.1059C110.869 23.2499 110.779 23.3039 110.635 23.2679C108.151 22.6199 106.081 21.4499 105.091 20.4059C104.119 21.4499 102.049 22.6199 99.5468 23.2679C99.4028 23.3039 99.3308 23.2499 99.2588 23.1059ZM97.7108 24.6359H112.471C112.633 24.6359 112.705 24.7259 112.705 24.8879V26.4539C112.705 26.5979 112.633 26.6879 112.471 26.6879H106.243V31.2959C106.243 31.4399 106.153 31.5119 105.991 31.5119H104.173C104.029 31.5119 103.957 31.4399 103.957 31.2959V26.6879H97.7108C97.5668 26.6879 97.4948 26.5979 97.4948 26.4539V24.8879C97.4948 24.7259 97.5668 24.6359 97.7108 24.6359Z" fill="white"/>
<path d="M122.061 19.2899H124.725V15.9239C124.725 15.7799 124.797 15.6899 124.959 15.6899H126.777C126.957 15.6899 127.029 15.7799 127.029 15.9239V24.4559C127.029 24.5999 126.957 24.6719 126.777 24.6719H124.959C124.797 24.6719 124.725 24.5999 124.725 24.4559V21.2159H122.061C121.899 21.2159 121.827 21.1439 121.827 20.9819V19.5239C121.827 19.3799 121.899 19.2899 122.061 19.2899ZM118.353 22.0439C117.507 23.1059 116.229 24.0239 114.717 24.7079C114.591 24.7799 114.411 24.7439 114.339 24.6359L113.547 23.2859C113.457 23.1419 113.457 22.9799 113.601 22.9079C115.707 21.9359 117.201 20.8019 117.201 19.2899V18.5519H114.249C114.087 18.5519 114.015 18.4799 114.015 18.3359V16.8239C114.015 16.6979 114.087 16.6079 114.249 16.6079H122.349C122.511 16.6079 122.583 16.6979 122.583 16.8239V18.3359C122.583 18.4799 122.511 18.5519 122.349 18.5519H119.487V19.2899C119.487 20.7119 120.693 21.5939 122.835 22.5299C122.979 22.5839 122.979 22.7459 122.907 22.8719L122.187 24.2579C122.115 24.3839 121.953 24.3659 121.809 24.3119C120.513 23.8079 119.235 23.0159 118.353 22.0439ZM121.683 25.1039C125.463 25.1039 127.191 26.4539 127.191 28.3979C127.191 30.3239 125.463 31.6919 121.683 31.6919C117.903 31.6919 116.175 30.3239 116.175 28.3979C116.175 26.4539 117.903 25.1039 121.683 25.1039ZM121.683 29.7659C123.933 29.7659 124.923 29.2079 124.923 28.3979C124.923 27.5879 123.933 27.0479 121.683 27.0479C119.433 27.0479 118.461 27.5879 118.461 28.3979C118.461 29.2079 119.433 29.7659 121.683 29.7659Z" fill="white"/>
<path fill-rule="evenodd" clip-rule="evenodd" d="M59.7639 25.2659C59.9439 25.2659 60.0159 25.1759 60.0159 25.0319V23.4659C60.0159 23.3219 59.9439 23.2499 59.7639 23.2499H57.9639V18.9839H59.6739C59.8539 18.9839 59.9259 18.9119 59.9259 18.7679V17.2019C59.9259 17.0579 59.8539 16.9679 59.6739 16.9679H48.6939C48.5139 16.9679 48.4419 17.0579 48.4419 17.2019V18.7679C48.4419 18.9119 48.5139 18.9839 48.6939 18.9839H50.3859V23.2499H48.6039C48.4419 23.2499 48.3699 23.3219 48.3699 23.4659V25.0319C48.3699 25.1759 48.4419 25.2659 48.6039 25.2659H59.7639ZM55.7139 23.2499V18.9839H52.6539V23.2499H55.7139ZM46.8039 27.9659C46.6599 27.9659 46.5879 28.0559 46.5879 28.1999V29.7839C46.5879 29.9099 46.6599 29.9999 46.8039 29.9999H61.5639C61.7259 29.9999 61.7979 29.9099 61.7979 29.7839V28.1999C61.7979 28.0559 61.7259 27.9659 61.5639 27.9659H46.8039ZM62.5145 27.9659C62.3705 27.9659 62.2985 28.0559 62.2985 28.1999V29.7839C62.2985 29.9099 62.3705 29.9999 62.5145 29.9999H77.2745C77.4365 29.9999 77.5085 29.9099 77.5085 29.7839V28.1999C77.5085 28.0904 77.4669 28.0122 77.3757 27.981C77.347 27.9711 77.3133 27.9659 77.2745 27.9659H71.0465V25.6439H75.3845C75.5465 25.6439 75.6365 25.5539 75.6365 25.4279V23.9699C75.6365 23.8079 75.5465 23.7359 75.3845 23.7359H66.8345V22.1879H75.0065C75.0406 22.1879 75.0716 22.1831 75.0991 22.1744C75.2024 22.1416 75.2585 22.0534 75.2585 21.9539V17.1299C75.2585 16.9859 75.1865 16.8959 75.0245 16.8959H64.7285C64.5845 16.8959 64.5125 16.9859 64.5125 17.1299V18.6059C64.5125 18.7679 64.5845 18.8579 64.7285 18.8579H72.9545V20.3159H64.7645C64.7519 20.3159 64.7399 20.3166 64.7285 20.3179C64.5944 20.333 64.5485 20.4352 64.5485 20.5679V25.4279C64.5485 25.5539 64.6025 25.6439 64.7645 25.6439H68.7605V27.9659H62.5145ZM62.1888 15.1287C62.2313 15.074 62.2764 15.0197 62.3243 14.9658C63.0545 14.1444 64.0075 13.8959 64.7285 13.8959H75.0245C75.4443 13.8959 76.0117 13.9792 76.5722 14.278C77.2909 13.6664 78.1147 13.5179 78.6751 13.5179H87.4231C87.4712 13.5179 87.5233 13.519 87.5788 13.5217C88.316 12.8499 89.1814 12.6899 89.7631 12.6899H91.5811C92.1336 12.6899 93.0944 12.8301 93.896 13.6316C94.6975 14.4332 94.8331 15.3895 94.8331 15.9239V23.3039C94.8331 23.3393 94.8326 23.3765 94.8312 23.4154C94.9369 23.2004 95.0748 22.9817 95.2541 22.7688C95.4091 22.5848 95.5751 22.4281 95.7474 22.2954C95.5876 21.6878 95.5977 21.01 95.8446 20.3516C96.2129 19.3693 97.0372 18.6374 98.0534 18.38C99.3391 18.0528 100.246 17.6049 100.757 17.2296C100.832 17.1746 100.892 17.126 100.939 17.0848V16.3379C100.939 15.8047 101.071 14.9383 101.751 14.1738C102.481 13.3524 103.434 13.1039 104.155 13.1039H106.027C106.655 13.1039 107.614 13.2905 108.386 14.1071C109.127 14.8925 109.261 15.805 109.261 16.3379V17.0848C109.308 17.126 109.368 17.1746 109.443 17.2296C109.788 17.4832 110.314 17.7699 111.015 18.0301V16.8239C111.015 16.2031 111.201 15.2966 111.95 14.5474C112.705 13.7923 113.621 13.6079 114.249 13.6079H122.349C122.449 13.6079 122.556 13.6126 122.668 13.6234C123.427 12.8658 124.349 12.6899 124.959 12.6899H126.777C127.33 12.6899 128.291 12.8301 129.092 13.6316C129.894 14.4332 130.029 15.3895 130.029 15.9239V24.4559C130.029 24.8092 129.969 25.3799 129.666 25.9627C130.011 26.7068 130.191 27.5291 130.191 28.3979C130.191 30.4106 129.216 32.1705 127.48 33.2891C125.897 34.3086 123.866 34.6919 121.683 34.6919C119.501 34.6919 117.47 34.3086 115.887 33.2891C114.502 32.3967 113.601 31.0963 113.293 29.585C112.991 29.6615 112.707 29.6879 112.471 29.6879H109.243V31.2959C109.243 32.0226 108.988 33.0134 108.11 33.7527C107.322 34.416 106.456 34.5119 105.991 34.5119H104.173C103.638 34.5119 102.687 34.3763 101.89 33.5793C101.092 32.7822 100.957 31.8304 100.957 31.2959V29.6879H97.7108C96.9899 29.6879 96.0368 29.4395 95.3066 28.618C95.1037 28.3897 94.9495 28.1523 94.8331 27.9174V28.327C95.1751 28.9203 95.2651 29.5299 95.2651 29.9639V31.3499C95.2651 32.0766 95.0102 33.0674 94.1323 33.8067C93.3446 34.47 92.4786 34.5659 92.0131 34.5659H81.6631C81.1287 34.5659 80.1769 34.4303 79.3798 33.6333C79.0709 33.3244 78.8614 32.9922 78.7206 32.6702C78.1991 32.924 77.6776 32.9999 77.2745 32.9999H62.5145C62.3643 32.9999 62.2055 32.9893 62.0416 32.9654C61.8707 32.99 61.7095 32.9999 61.5639 32.9999H46.8039C46.0869 32.9999 45.174 32.7568 44.4573 31.9953C43.7694 31.2644 43.5879 30.401 43.5879 29.7839V28.1999C43.5879 27.6667 43.7201 26.8003 44.3997 26.0359C44.6994 25.6986 45.0368 25.4579 45.3802 25.2914C45.3728 25.1977 45.3699 25.1107 45.3699 25.0319V23.4659C45.3699 22.9305 45.5078 21.9309 46.37 21.1193C46.3834 21.1068 46.3967 21.0944 46.4101 21.0822C45.5732 20.2759 45.4419 19.287 45.4419 18.7679V17.2019C45.4419 16.6675 45.5775 15.7112 46.3791 14.9096C47.1806 14.1081 48.1415 13.9679 48.6939 13.9679H59.6739C60.2263 13.9679 61.1872 14.1081 61.9887 14.9096C62.0606 14.9815 62.1272 15.0547 62.1888 15.1287ZM92.0131 31.5659C92.1751 31.5659 92.2651 31.4939 92.2651 31.3499V29.9639C92.2651 29.8019 92.1751 29.7299 92.0131 29.7299H83.7331V28.8299H91.5811C91.7431 28.8299 91.8331 28.7399 91.8331 28.5959V24.5639C91.8331 24.4199 91.7611 24.3299 91.5991 24.3299H81.6271C81.4831 24.3299 81.4111 24.4199 81.4111 24.5639V25.8959C81.4111 26.0579 81.4831 26.1479 81.6271 26.1479H89.5471V27.0299H81.6631C81.6506 27.0299 81.6386 27.0308 81.6271 27.0323C81.5071 27.0489 81.4471 27.1489 81.4471 27.2639V31.3499C81.4471 31.4939 81.5191 31.5659 81.6631 31.5659H92.0131ZM89.5291 23.3039C89.5291 23.345 89.535 23.3817 89.5471 23.4132C89.5776 23.492 89.6474 23.5379 89.7631 23.5379H91.5811C91.5873 23.5379 91.5933 23.5378 91.5991 23.5376C91.766 23.5318 91.8331 23.443 91.8331 23.3039V15.9239C91.8331 15.7799 91.7611 15.6899 91.5811 15.6899H89.7631C89.6011 15.6899 89.5291 15.7799 89.5291 15.9239V23.3039ZM88.3591 22.6559L88.1431 21.2879C88.1071 21.1079 88.0351 21.0539 87.8731 21.0899C87.8463 21.0949 87.8193 21.0998 87.7921 21.1047C87.7606 21.1103 87.7289 21.1159 87.697 21.1214C87.6073 21.1369 87.516 21.1518 87.4231 21.1663C87.3037 21.185 87.1816 21.203 87.0571 21.2206C86.8855 21.2448 86.7093 21.2682 86.5291 21.2913C86.444 21.3022 86.358 21.3131 86.2711 21.3239V18.3899H87.4231C87.6031 18.3899 87.6571 18.2999 87.6571 18.1559V16.7519C87.6571 16.6079 87.6031 16.5179 87.4231 16.5179H78.6751C78.5131 16.5179 78.4411 16.6079 78.4411 16.7519V18.1559C78.4411 18.2999 78.5131 18.3899 78.6751 18.3899H79.9531V21.5759H78.3151C78.2946 21.5759 78.2757 21.5759 78.2585 21.5762C78.1403 21.5783 78.0991 21.5942 78.0991 21.7199V23.2319C78.0991 23.3579 78.1531 23.4479 78.3151 23.4479H81.2851C81.3963 23.4479 81.5104 23.4474 81.6271 23.4464C81.8185 23.4447 82.017 23.4416 82.2208 23.437C82.4152 23.4327 82.6146 23.427 82.8174 23.4201C82.8625 23.4185 82.9077 23.4169 82.9531 23.4152C83.0584 23.4113 83.1644 23.4071 83.2711 23.4025C83.5652 23.3898 83.8642 23.3744 84.164 23.3563C84.7576 23.3204 85.3544 23.2736 85.9224 23.2156C86.1186 23.1955 86.3115 23.1741 86.4996 23.1514C86.509 23.1502 86.5183 23.1491 86.5277 23.1479C86.5282 23.1479 86.5287 23.1478 86.5291 23.1478C86.71 23.1257 86.8864 23.1023 87.0571 23.0776C87.4772 23.017 87.8631 22.9485 88.1971 22.8719C88.1991 22.8714 88.201 22.8708 88.2028 22.8703C88.2253 22.8634 88.2454 22.8549 88.2631 22.8449C88.3416 22.8005 88.3736 22.7282 88.3591 22.6559ZM84.0571 18.3899H82.1671V21.5579C82.4291 21.5505 82.6912 21.543 82.9531 21.5342C83.0591 21.5306 83.1651 21.5269 83.2711 21.5228C83.5331 21.5128 83.7951 21.5009 84.0571 21.4859V18.3899ZM103.957 31.2959C103.957 31.4399 104.029 31.5119 104.173 31.5119H105.991C106.153 31.5119 106.243 31.4399 106.243 31.2959V26.6879H112.471C112.633 26.6879 112.705 26.5979 112.705 26.4539V24.8879C112.705 24.7259 112.633 24.6359 112.471 24.6359H97.7108C97.5668 24.6359 97.4948 24.7259 97.4948 24.8879V26.4539C97.4948 26.5979 97.5668 26.6879 97.7108 26.6879H103.957V31.2959ZM99.2588 23.1059C99.3308 23.2499 99.4028 23.3039 99.5468 23.2679C100.186 23.1024 100.797 22.9028 101.368 22.68C102.169 22.3677 102.893 22.0098 103.509 21.6359C103.92 21.3868 104.283 21.1306 104.589 20.8762C104.607 20.8605 104.626 20.8449 104.644 20.8293C104.812 20.6869 104.961 20.5453 105.091 20.4059C105.228 20.5509 105.387 20.6982 105.564 20.8463C105.578 20.858 105.592 20.8698 105.606 20.8815C105.914 21.1342 106.276 21.3886 106.685 21.6359C107.301 22.0086 108.021 22.3653 108.815 22.6768C109.343 22.8837 109.904 23.0706 110.488 23.2289C110.537 23.2421 110.586 23.2551 110.635 23.2679C110.727 23.2911 110.798 23.277 110.855 23.2258C110.887 23.1973 110.915 23.1574 110.941 23.1059L111.517 21.5759C111.571 21.4679 111.535 21.3239 111.409 21.2879C111.328 21.2673 111.247 21.2462 111.168 21.2246C111.161 21.2227 111.154 21.2208 111.147 21.2189C111.131 21.2145 111.115 21.21 111.098 21.2055C110.805 21.1241 110.521 21.036 110.249 20.9419C109.95 20.8387 109.665 20.7283 109.395 20.6119C109.184 20.521 108.981 20.4264 108.789 20.3286C108.788 20.3283 108.787 20.328 108.787 20.3277C107.892 19.8736 107.202 19.3511 106.771 18.8123C106.77 18.8103 106.768 18.8082 106.767 18.8062C106.564 18.5519 106.419 18.2939 106.338 18.0379C106.287 17.8781 106.261 17.719 106.261 17.5619V16.3379C106.261 16.1939 106.189 16.1039 106.027 16.1039H104.155C104.011 16.1039 103.939 16.1939 103.939 16.3379V17.5619C103.939 17.7196 103.913 17.8793 103.861 18.0397C103.78 18.2952 103.635 18.5525 103.433 18.8062C103.425 18.8169 103.416 18.8277 103.407 18.8384C102.973 19.3708 102.285 19.8865 101.398 20.335C101.398 20.3353 101.397 20.3357 101.396 20.336C101.207 20.4319 101.008 20.5248 100.8 20.6141C100.514 20.7371 100.211 20.8534 99.8936 20.9616C99.6186 21.0552 99.3324 21.1428 99.0357 21.2235C99.03 21.2251 99.0243 21.2266 99.0186 21.2282C98.9433 21.2485 98.8674 21.2685 98.7908 21.2879C98.6468 21.3239 98.6108 21.4679 98.6648 21.5759L99.2588 23.1059ZM114.236 22.5998C114.126 22.6562 114.014 22.712 113.899 22.7673C113.883 22.7752 113.867 22.7831 113.85 22.791C113.791 22.8194 113.731 22.8477 113.671 22.8759C113.648 22.8866 113.625 22.8973 113.601 22.9079C113.457 22.9799 113.457 23.1419 113.547 23.2859L114.339 24.6359C114.362 24.6704 114.396 24.6975 114.436 24.7161C114.45 24.7228 114.465 24.7285 114.481 24.7329C114.493 24.7364 114.505 24.7392 114.518 24.7412C114.585 24.752 114.657 24.7422 114.717 24.7079C115.037 24.5632 115.347 24.4081 115.644 24.2433C115.905 24.0984 116.156 23.9461 116.397 23.7869C116.443 23.7566 116.489 23.7261 116.534 23.6953C116.983 23.3882 117.392 23.0567 117.753 22.7049C117.786 22.6729 117.818 22.6408 117.85 22.6085C118.032 22.4254 118.2 22.2371 118.353 22.0439C118.461 22.1625 118.574 22.2783 118.693 22.3913C118.792 22.485 118.894 22.5768 118.999 22.6665C119.208 22.8452 119.431 23.0155 119.663 23.1767C119.79 23.265 119.92 23.3506 120.052 23.4332C120.116 23.4733 120.181 23.5128 120.246 23.5515C120.556 23.7357 120.878 23.9041 121.205 24.0549C121.281 24.0901 121.357 24.1243 121.434 24.1576C121.517 24.1936 121.6 24.2284 121.683 24.262C121.697 24.2677 121.711 24.2733 121.725 24.2789C121.753 24.29 121.781 24.301 121.809 24.3119C121.887 24.3409 121.969 24.3594 122.04 24.3511C122.101 24.3439 122.154 24.3165 122.187 24.2579L122.907 22.8719C122.979 22.7459 122.979 22.5839 122.835 22.5299C122.739 22.4878 122.644 22.4457 122.552 22.4037C122.544 22.4002 122.536 22.3968 122.529 22.3934C122.453 22.3589 122.378 22.3244 122.305 22.2899C122.298 22.2866 122.291 22.2832 122.284 22.2799C122.208 22.2442 122.134 22.2086 122.061 22.1729C122.016 22.1504 121.971 22.128 121.926 22.1055C121.858 22.0712 121.791 22.0368 121.725 22.0023C121.448 21.8564 121.195 21.709 120.967 21.5581C120.964 21.556 120.961 21.554 120.958 21.5519C120.682 21.3687 120.442 21.18 120.241 20.9819C120.155 20.8967 120.076 20.8098 120.004 20.7207C119.977 20.6868 119.95 20.6526 119.925 20.618C119.7 20.3106 119.559 19.9781 119.509 19.6079C119.505 19.5802 119.502 19.5522 119.499 19.5239C119.491 19.4476 119.487 19.3696 119.487 19.2899V18.5519H122.349C122.511 18.5519 122.583 18.4799 122.583 18.3359V16.8239C122.583 16.6979 122.511 16.6079 122.349 16.6079H114.249C114.087 16.6079 114.015 16.6979 114.015 16.8239V18.3359C114.015 18.4799 114.087 18.5519 114.249 18.5519H117.201V19.2899C117.201 19.3978 117.194 19.5038 117.179 19.6079C117.122 20.0076 116.957 20.38 116.704 20.7296C116.699 20.7356 116.695 20.7416 116.69 20.7476C116.483 21.0298 116.217 21.2971 115.903 21.5519C115.759 21.668 115.606 21.7815 115.444 21.8927C115.182 22.0716 114.897 22.2444 114.591 22.412C114.516 22.4533 114.439 22.4944 114.361 22.5351C114.32 22.5567 114.278 22.5783 114.236 22.5998ZM122.061 19.2899C121.899 19.2899 121.827 19.3799 121.827 19.5239V20.9819C121.827 20.9886 121.828 20.9952 121.828 21.0016C121.834 21.1498 121.906 21.2159 122.061 21.2159H124.725V24.4559C124.725 24.5999 124.797 24.6719 124.959 24.6719H126.777C126.957 24.6719 127.029 24.5999 127.029 24.4559V15.9239C127.029 15.7799 126.957 15.6899 126.777 15.6899H124.959C124.797 15.6899 124.725 15.7799 124.725 15.9239V19.2899H122.061ZM124.892 25.5603C124.738 25.5061 124.577 25.4564 124.408 25.4114C124.295 25.3815 124.179 25.3536 124.06 25.3278C123.43 25.1921 122.701 25.115 121.87 25.1051C121.843 25.1047 121.816 25.1045 121.79 25.1043C121.763 25.1041 121.737 25.104 121.711 25.104C121.702 25.104 121.693 25.1039 121.683 25.1039C121.626 25.1039 121.569 25.1043 121.512 25.1049C121.508 25.1049 121.505 25.105 121.501 25.105C121.437 25.1058 121.373 25.1069 121.309 25.1085C121.291 25.1089 121.273 25.1094 121.255 25.1099C120.536 25.1304 119.897 25.203 119.336 25.3217C118.858 25.4229 118.436 25.5576 118.07 25.7221C117.257 26.0873 116.714 26.5995 116.425 27.2188C116.258 27.5784 116.175 27.974 116.175 28.3979C116.175 30.3239 117.903 31.6919 121.683 31.6919C125.463 31.6919 127.191 30.3239 127.191 28.3979C127.191 28.14 127.161 27.8926 127.099 27.6573C127.031 27.3958 126.924 27.1494 126.777 26.9206C126.417 26.3569 125.816 25.8996 124.959 25.5848C124.937 25.5765 124.914 25.5684 124.892 25.5603ZM124.531 27.6449C124.244 27.4195 123.794 27.249 123.165 27.149C123.158 27.148 123.152 27.147 123.146 27.146C122.92 27.1109 122.672 27.0848 122.4 27.0684C122.177 27.0549 121.938 27.0479 121.683 27.0479C121.434 27.0479 121.2 27.0546 120.981 27.0676C120.909 27.0718 120.839 27.0767 120.771 27.0823C120.757 27.0834 120.744 27.0845 120.731 27.0856C120.713 27.0872 120.695 27.0888 120.677 27.0904C119.141 27.2325 118.461 27.7209 118.461 28.3979C118.461 29.1164 119.226 29.6367 120.969 29.745C121.191 29.7588 121.429 29.7659 121.683 29.7659C121.943 29.7659 122.185 29.7585 122.412 29.7442C124.149 29.634 124.923 29.1146 124.923 28.3979C124.923 28.1083 124.797 27.8532 124.531 27.6449Z" fill="#2FA1A8"/>
<defs>
<linearGradient id="paint0_linear_1190_7093" x1="87" y1="4" x2="87" y2="42" gradientUnits="userSpaceOnUse">
<stop stop-color="#D5EAEA"/>
<stop offset="0.385417" stop-color="#B6EAEA"/>
<stop offset="1" stop-color="#59C5C5"/>
</linearGradient>
</defs>
</svg>
