<svg width="118" height="39" viewBox="0 0 118 39" fill="none" xmlns="http://www.w3.org/2000/svg">
<g filter="url(#filter0_d_1193_5830)">
<path fill-rule="evenodd" clip-rule="evenodd" d="M15 0C8.92487 0 4 4.92487 4 11C4 17.0751 8.92487 22 15 22H93L99 31V22H103C109.075 22 114 17.0751 114 11C114 4.92487 109.075 0 103 0H15Z" fill="white"/>
</g>
<path d="M16.8451 9.951C16.4601 10.787 15.7011 11.491 14.4471 12.107C14.3701 12.14 14.2931 12.129 14.2601 12.063L13.9521 11.579C13.9081 11.513 13.9191 11.436 13.9851 11.414C15.4811 10.666 16.3941 9.786 16.3941 8.477V8.235H14.2821C14.2051 8.235 14.1721 8.191 14.1721 8.125V7.575C14.1721 7.498 14.2051 7.465 14.2821 7.465H16.3941V6.42C16.3941 6.354 16.4271 6.31 16.5041 6.31H17.1531C17.2191 6.31 17.2631 6.354 17.2631 6.42V7.465H19.3201C19.4081 7.465 19.4411 7.498 19.4411 7.575V8.125C19.4411 8.191 19.4081 8.235 19.3201 8.235H17.2631V8.477C17.2631 9.742 18.2091 10.479 19.6061 11.172C19.6721 11.205 19.6831 11.26 19.6391 11.337L19.3641 11.832C19.3201 11.898 19.2541 11.909 19.1881 11.876C18.1101 11.359 17.2521 10.699 16.8451 9.951ZM21.7401 13.449H21.1131C21.0361 13.449 20.9921 13.405 20.9921 13.328V6.431C20.9921 6.365 21.0361 6.321 21.1131 6.321H21.7401C21.8281 6.321 21.8611 6.365 21.8611 6.431V13.328C21.8611 13.405 21.8281 13.449 21.7401 13.449ZM16.6801 14.978H22.0041C22.0921 14.978 22.1251 15.022 22.1251 15.099V15.649C22.1251 15.715 22.0921 15.759 22.0041 15.759H15.9321C15.8441 15.759 15.8221 15.715 15.8221 15.649V12.8C15.8221 12.734 15.8441 12.69 15.9321 12.69H16.5701C16.6361 12.69 16.6801 12.734 16.6801 12.8V14.978ZM30.56 11.073H32.298C32.364 11.073 32.397 11.117 32.397 11.183V11.744C32.397 11.821 32.364 11.865 32.298 11.865H28.261V15.748C28.261 15.825 28.217 15.869 28.14 15.869H27.513C27.436 15.869 27.392 15.825 27.392 15.748V11.865H23.388C23.322 11.865 23.278 11.821 23.278 11.744V11.183C23.278 11.117 23.322 11.073 23.388 11.073H29.746C29.977 10.061 30.087 8.895 30.076 8.059L30.065 7.608H24.73C24.653 7.608 24.631 7.564 24.631 7.498V6.948C24.631 6.871 24.653 6.827 24.73 6.827H30.813C30.89 6.827 30.934 6.871 30.934 6.948V7.938C30.934 8.873 30.802 10.05 30.56 11.073ZM40.645 10.083H34.485C34.408 10.083 34.364 10.039 34.364 9.973V8.048C34.364 7.982 34.408 7.938 34.485 7.938H39.644V7.135H34.441C34.364 7.135 34.331 7.091 34.331 7.014V6.574C34.331 6.497 34.364 6.453 34.441 6.453H40.392C40.469 6.453 40.502 6.497 40.502 6.574V8.477C40.502 8.543 40.458 8.587 40.381 8.587H35.222V9.423H40.645C40.722 9.423 40.766 9.467 40.766 9.544V9.973C40.766 10.039 40.722 10.083 40.645 10.083ZM41.899 11.513H32.989C32.923 11.513 32.879 11.469 32.879 11.414V10.93C32.879 10.875 32.923 10.831 32.989 10.831H41.899C41.965 10.831 41.998 10.875 41.998 10.93V11.414C41.998 11.469 41.965 11.513 41.899 11.513ZM40.821 15.979H34.386C34.309 15.979 34.276 15.935 34.276 15.869V13.911C34.276 13.845 34.309 13.801 34.386 13.801H39.754V12.987H34.364C34.287 12.987 34.254 12.943 34.254 12.866V12.437C34.254 12.371 34.287 12.327 34.364 12.327H40.491C40.568 12.327 40.601 12.371 40.601 12.437V14.34C40.601 14.406 40.568 14.461 40.491 14.461H35.134V15.308H40.821C40.887 15.308 40.931 15.352 40.931 15.418V15.869C40.931 15.935 40.887 15.979 40.821 15.979ZM45.6551 12.173L45.4461 11.667C45.4131 11.601 45.4351 11.546 45.5121 11.524C47.4481 11.04 48.9441 10.204 48.9441 9.038V8.829H45.7871C45.7101 8.829 45.6771 8.796 45.6771 8.719V8.169C45.6771 8.103 45.7101 8.048 45.7871 8.048H48.9441V6.882C48.9441 6.816 48.9771 6.772 49.0541 6.772H49.7031C49.7801 6.772 49.8131 6.816 49.8131 6.882V8.048H52.9701C53.0471 8.048 53.0691 8.103 53.0691 8.169V8.719C53.0691 8.796 53.0471 8.829 52.9701 8.829H49.8131V9.038C49.8131 10.193 51.3971 11.084 53.2231 11.502C53.3001 11.524 53.3111 11.59 53.3001 11.656L53.0801 12.173C53.0471 12.228 53.0141 12.25 52.9481 12.239C51.3421 11.865 49.9011 11.139 49.3841 10.325C48.8671 11.139 47.4701 11.832 45.7981 12.239C45.7211 12.25 45.6771 12.239 45.6551 12.173ZM49.8131 14.043H53.8391C53.9051 14.043 53.9381 14.076 53.9381 14.153V14.714C53.9381 14.791 53.9051 14.835 53.8391 14.835H44.9291C44.8631 14.835 44.8191 14.791 44.8191 14.714V14.153C44.8191 14.076 44.8631 14.043 44.9291 14.043H48.9441V12.25C48.9441 12.195 48.9881 12.151 49.0651 12.151H49.6921C49.7801 12.151 49.8131 12.195 49.8131 12.25V14.043ZM62.274 6.321H62.912C62.978 6.321 63.011 6.365 63.011 6.431V15.748C63.011 15.825 62.978 15.869 62.912 15.869H62.274C62.197 15.869 62.153 15.825 62.153 15.748V10.721H60.734V15.451C60.734 15.528 60.701 15.572 60.624 15.572H60.008C59.931 15.572 59.887 15.528 59.887 15.451V6.651C59.887 6.574 59.931 6.53 60.008 6.53H60.624C60.701 6.53 60.734 6.574 60.734 6.651V9.929H62.153V6.431C62.153 6.365 62.197 6.321 62.274 6.321ZM59.007 12.602L59.095 13.141C59.106 13.207 59.073 13.24 58.996 13.262C58.171 13.438 57.093 13.559 56.07 13.559H54.86C54.783 13.559 54.739 13.526 54.739 13.449V7.498C54.739 7.443 54.783 7.399 54.86 7.399H58.369C58.435 7.399 58.479 7.443 58.479 7.498V8.048C58.479 8.125 58.435 8.169 58.369 8.169H55.597V12.778H56.202C57.016 12.778 58.083 12.679 58.875 12.503C58.952 12.492 58.996 12.514 59.007 12.602ZM71.875 6.321H72.513C72.579 6.321 72.612 6.365 72.612 6.431V15.748C72.612 15.825 72.579 15.869 72.513 15.869H71.875C71.798 15.869 71.754 15.825 71.754 15.748V11.04H70.39V15.451C70.39 15.528 70.357 15.572 70.28 15.572H69.653C69.587 15.572 69.543 15.528 69.543 15.451V6.651C69.543 6.574 69.587 6.53 69.653 6.53H70.28C70.357 6.53 70.39 6.574 70.39 6.651V10.248H71.754V6.431C71.754 6.365 71.798 6.321 71.875 6.321ZM66.815 8.158H68.707C68.784 8.158 68.817 8.202 68.817 8.268V8.796C68.817 8.862 68.784 8.906 68.707 8.906H64.021C63.944 8.906 63.911 8.862 63.911 8.796V8.268C63.911 8.202 63.944 8.158 64.021 8.158H65.946V6.739C65.946 6.673 65.979 6.629 66.067 6.629H66.705C66.771 6.629 66.815 6.673 66.815 6.739V8.158ZM66.397 9.753C67.728 9.753 68.575 10.633 68.575 11.975C68.575 13.339 67.728 14.208 66.397 14.208C65.066 14.208 64.219 13.339 64.219 11.975C64.219 10.633 65.066 9.753 66.397 9.753ZM66.397 13.493C67.255 13.493 67.75 12.855 67.75 11.975C67.75 11.106 67.255 10.468 66.397 10.468C65.528 10.468 65.044 11.106 65.044 11.975C65.044 12.855 65.528 13.493 66.397 13.493ZM78.6159 14.076H82.6419C82.7079 14.076 82.7409 14.12 82.7409 14.197V14.758C82.7409 14.835 82.7079 14.868 82.6419 14.868H73.7319C73.6659 14.868 73.6219 14.835 73.6219 14.758V14.197C73.6219 14.12 73.6659 14.076 73.7319 14.076H77.7469V11.876H75.1069C75.0189 11.876 74.9859 11.832 74.9859 11.766V7.146C74.9859 7.08 75.0189 7.036 75.1069 7.036H75.7449C75.8109 7.036 75.8549 7.08 75.8549 7.146V8.697H80.5079V7.146C80.5079 7.08 80.5409 7.036 80.6179 7.036H81.2669C81.3329 7.036 81.3659 7.08 81.3659 7.146V11.766C81.3659 11.832 81.3329 11.876 81.2669 11.876H78.6159V14.076ZM80.5079 9.478H75.8549V11.095H80.5079V9.478ZM91.0769 6.321H91.7149C91.7809 6.321 91.8139 6.365 91.8139 6.431V15.748C91.8139 15.825 91.7809 15.869 91.7149 15.869H91.0769C90.9999 15.869 90.9559 15.825 90.9559 15.748V6.431C90.9559 6.365 90.9999 6.321 91.0769 6.321ZM88.9099 6.53H89.5369C89.6029 6.53 89.6359 6.574 89.6359 6.651V15.451C89.6359 15.528 89.6029 15.572 89.5369 15.572H88.9099C88.8329 15.572 88.7999 15.528 88.7999 15.451V10.193H87.2819C87.2159 10.193 87.1719 10.149 87.1719 10.083V9.522C87.1719 9.445 87.2159 9.401 87.2819 9.401H88.7999V6.651C88.7999 6.574 88.8329 6.53 88.9099 6.53ZM85.9839 8.653C85.9839 10.303 86.7099 11.722 87.8759 12.888C87.9309 12.954 87.9309 13.02 87.8759 13.064L87.4799 13.438C87.4249 13.493 87.3589 13.504 87.2929 13.438C86.4129 12.514 85.8409 11.491 85.5769 10.644C85.3459 11.579 84.8509 12.624 83.7949 13.647C83.7399 13.702 83.6739 13.702 83.6189 13.647L83.2229 13.273C83.1679 13.218 83.1679 13.152 83.2339 13.097C84.5759 11.832 85.1259 10.314 85.1259 8.653V7.3C85.1259 7.223 85.1699 7.19 85.2469 7.19H85.8739C85.9399 7.19 85.9839 7.223 85.9839 7.3V8.653ZM99.5778 14.043H101.844C101.91 14.043 101.943 14.076 101.943 14.153V14.714C101.943 14.791 101.91 14.835 101.844 14.835H92.9338C92.8678 14.835 92.8238 14.791 92.8238 14.714V14.153C92.8238 14.076 92.8678 14.043 92.9338 14.043H95.1888V11.458C94.4628 11.051 94.0008 10.391 94.0008 9.478C94.0008 7.795 95.5518 6.981 97.3778 6.981C99.2038 6.981 100.755 7.795 100.755 9.478C100.755 10.391 100.293 11.051 99.5778 11.458V14.043ZM97.3778 7.762C95.9808 7.762 94.8698 8.323 94.8698 9.478C94.8698 10.633 95.9808 11.183 97.3778 11.183C98.7748 11.183 99.8858 10.622 99.8858 9.478C99.8858 8.323 98.7748 7.762 97.3778 7.762ZM96.0468 11.799V14.043H98.7088V11.799C98.3018 11.909 97.8508 11.964 97.3778 11.964C96.9048 11.964 96.4538 11.909 96.0468 11.799ZM103.635 12.932H103.107C103.03 12.932 102.986 12.899 102.986 12.811L102.92 6.86C102.92 6.783 102.964 6.739 103.03 6.739H103.701C103.778 6.739 103.822 6.783 103.822 6.86L103.745 12.811C103.745 12.899 103.701 12.932 103.635 12.932ZM103.382 15.319C103.019 15.319 102.744 15.055 102.744 14.692C102.744 14.329 103.019 14.065 103.382 14.065C103.745 14.065 104.02 14.329 104.02 14.692C104.02 15.055 103.745 15.319 103.382 15.319Z" fill="#433940"/>
<defs>
<filter id="filter0_d_1193_5830" x="0" y="0" width="118" height="39" filterUnits="userSpaceOnUse" color-interpolation-filters="sRGB">
<feFlood flood-opacity="0" result="BackgroundImageFix"/>
<feColorMatrix in="SourceAlpha" type="matrix" values="0 0 0 0 0 0 0 0 0 0 0 0 0 0 0 0 0 0 127 0" result="hardAlpha"/>
<feOffset dy="4"/>
<feGaussianBlur stdDeviation="2"/>
<feComposite in2="hardAlpha" operator="out"/>
<feColorMatrix type="matrix" values="0 0 0 0 0.560784 0 0 0 0 0.109804 0 0 0 0 0.439216 0 0 0 0.1 0"/>
<feBlend mode="normal" in2="BackgroundImageFix" result="effect1_dropShadow_1193_5830"/>
<feBlend mode="normal" in="SourceGraphic" in2="effect1_dropShadow_1193_5830" result="shape"/>
</filter>
</defs>
</svg>
