<svg width="22" height="21" viewBox="0 0 22 21" fill="none" xmlns="http://www.w3.org/2000/svg">
<path d="M2 9.71875C2 9.17188 2.09115 8.67448 2.27344 8.22656C2.46094 7.77344 2.71354 7.41406 3.03125 7.14844C3.34896 6.88281 3.70312 6.75 4.09375 6.75C4.48438 6.75 4.83854 6.88281 5.15625 7.14844C5.47917 7.41406 5.73177 7.77344 5.91406 8.22656C6.10156 8.67448 6.19531 9.17188 6.19531 9.71875C6.19531 10.2708 6.10156 10.7708 5.91406 11.2188C5.73177 11.6667 5.47917 12.0234 5.15625 12.2891C4.83854 12.5547 4.48438 12.6875 4.09375 12.6875C3.70312 12.6875 3.34896 12.5547 3.03125 12.2891C2.71354 12.0234 2.46094 11.6667 2.27344 11.2188C2.09115 10.7708 2 10.2708 2 9.71875ZM5.96875 4.97656C5.96875 4.41927 6.0625 3.91667 6.25 3.46875C6.4375 3.02083 6.6901 2.66406 7.00781 2.39844C7.32552 2.13281 7.67969 2 8.07031 2C8.46094 2 8.8151 2.13281 9.13281 2.39844C9.45052 2.66406 9.70312 3.02083 9.89062 3.46875C10.0781 3.91667 10.1719 4.41927 10.1719 4.97656C10.1719 5.52344 10.0781 6.02083 9.89062 6.46875C9.70312 6.91667 9.45052 7.27344 9.13281 7.53906C8.8151 7.80469 8.46094 7.9375 8.07031 7.9375C7.67969 7.9375 7.32552 7.80469 7.00781 7.53906C6.6901 7.27344 6.4375 6.91667 6.25 6.46875C6.0625 6.02083 5.96875 5.52344 5.96875 4.97656ZM11.2812 4.97656C11.2812 4.41927 11.3724 3.91667 11.5547 3.46875C11.7422 3.02083 11.9948 2.66406 12.3125 2.39844C12.6354 2.13281 12.9922 2 13.3828 2C13.7734 2 14.1276 2.13281 14.4453 2.39844C14.763 2.66406 15.0156 3.02083 15.2031 3.46875C15.3906 3.91667 15.4844 4.41927 15.4844 4.97656C15.4844 5.52344 15.3906 6.02083 15.2031 6.46875C15.0156 6.91667 14.763 7.27344 14.4453 7.53906C14.1276 7.80469 13.7734 7.9375 13.3828 7.9375C12.9922 7.9375 12.6354 7.80469 12.3125 7.53906C11.9948 7.27344 11.7422 6.91667 11.5547 6.46875C11.3724 6.02083 11.2812 5.52344 11.2812 4.97656ZM15.2578 9.71875C15.2578 9.17188 15.3516 8.67448 15.5391 8.22656C15.7266 7.77344 15.9792 7.41406 16.2969 7.14844C16.6146 6.88281 16.9688 6.75 17.3594 6.75C17.75 6.75 18.1042 6.88281 18.4219 7.14844C18.7396 7.41406 18.9896 7.77344 19.1719 8.22656C19.3594 8.67448 19.4531 9.17188 19.4531 9.71875C19.4531 10.2708 19.3594 10.7708 19.1719 11.2188C18.9896 11.6667 18.7396 12.0234 18.4219 12.2891C18.1042 12.5547 17.75 12.6875 17.3594 12.6875C16.9688 12.6875 16.6146 12.5547 16.2969 12.2891C15.9792 12.0234 15.7266 11.6667 15.5391 11.2188C15.3516 10.7708 15.2578 10.2708 15.2578 9.71875ZM4.57031 15.9688C4.57031 15.4948 4.65104 15.0885 4.8125 14.75C4.97917 14.4062 5.1875 14.1094 5.4375 13.8594C5.69271 13.6094 5.95052 13.3776 6.21094 13.1641C6.42969 12.987 6.63802 12.8125 6.83594 12.6406C7.03385 12.4635 7.20312 12.2682 7.34375 12.0547C7.45312 11.888 7.55729 11.7135 7.65625 11.5312C7.75521 11.3438 7.85156 11.1484 7.94531 10.9453C8.13802 10.5391 8.33854 10.151 8.54688 9.78125C8.75521 9.40625 9.02604 9.10156 9.35938 8.86719C9.69271 8.6276 10.1484 8.50781 10.7266 8.50781C11.3047 8.50781 11.7604 8.6276 12.0938 8.86719C12.4271 9.10156 12.6979 9.40625 12.9062 9.78125C13.1146 10.151 13.3151 10.5417 13.5078 10.9531C13.6016 11.1562 13.6979 11.349 13.7969 11.5312C13.8958 11.7135 14 11.8906 14.1094 12.0625C14.25 12.276 14.4193 12.4688 14.6172 12.6406C14.8151 12.8125 15.0234 12.987 15.2422 13.1641C15.4974 13.3776 15.7526 13.6094 16.0078 13.8594C16.263 14.1094 16.4714 14.4062 16.6328 14.75C16.7995 15.0885 16.8828 15.4948 16.8828 15.9688C16.8828 16.5521 16.763 17.0651 16.5234 17.5078C16.2839 17.9557 15.9479 18.3047 15.5156 18.5547C15.0885 18.8099 14.5911 18.9375 14.0234 18.9375C13.6172 18.9375 13.2552 18.8906 12.9375 18.7969C12.625 18.7083 12.3333 18.6172 12.0625 18.5234C11.8438 18.4505 11.6276 18.3854 11.4141 18.3281C11.2057 18.2708 10.9766 18.2422 10.7266 18.2422C10.4766 18.2422 10.2448 18.2708 10.0312 18.3281C9.82292 18.3854 9.60938 18.4505 9.39062 18.5234C9.11458 18.6172 8.82031 18.7083 8.50781 18.7969C8.19531 18.8906 7.83333 18.9375 7.42188 18.9375C6.85938 18.9375 6.36198 18.8099 5.92969 18.5547C5.5026 18.3047 5.16927 17.9557 4.92969 17.5078C4.6901 17.0651 4.57031 16.5521 4.57031 15.9688Z" fill="#FFA0E5"/>
<path fill-rule="evenodd" clip-rule="evenodd" d="M0.425372 7.46185L0.425404 7.46186C0.713716 6.76511 1.1411 6.12181 1.74841 5.61406C2.37263 5.09217 3.13155 4.77946 3.97243 4.75198C3.99568 4.04589 4.1303 3.35297 4.40512 2.69647C4.69494 2.00413 5.12249 1.36778 5.72497 0.864059C6.37908 0.317183 7.18109 0 8.07031 0C8.95954 0 9.76155 0.317183 10.4157 0.864059C10.5235 0.954246 10.6258 1.04869 10.7227 1.14694C10.8195 1.04869 10.9218 0.954246 11.0297 0.864059L11.0358 0.858934L11.042 0.853858C11.6957 0.3161 12.4948 0 13.3828 0C14.272 0 15.074 0.317183 15.7282 0.864059C16.3306 1.36778 16.7582 2.00413 17.048 2.69647C17.3228 3.35297 17.4575 4.0459 17.4807 4.75198C18.3216 4.77946 19.0805 5.09217 19.7047 5.61406C20.3134 6.12295 20.7389 6.76815 21.0222 7.46728C21.3204 8.185 21.4531 8.94478 21.4531 9.71875C21.4531 10.4965 21.3209 11.2607 21.0206 11.9818C20.7358 12.678 20.3096 13.3177 19.7047 13.8234C19.3886 14.0877 19.038 14.2984 18.6596 14.4455C18.8189 14.9464 18.8828 15.4627 18.8828 15.9688C18.8828 16.8299 18.7043 17.6784 18.2845 18.4558C17.8747 19.22 17.2824 19.8403 16.5292 20.2789C15.7535 20.7391 14.8958 20.9375 14.0234 20.9375C13.4711 20.9375 12.9169 20.8746 12.3829 20.7185C12.0462 20.6229 11.7249 20.5227 11.42 20.4175C11.2409 20.358 11.0662 20.3055 10.8958 20.2598L10.8837 20.2566L10.8837 20.2565C10.8728 20.2535 10.8248 20.2422 10.7266 20.2422C10.6334 20.2422 10.5786 20.2524 10.5528 20.2589C10.3851 20.3052 10.2102 20.3585 10.0278 20.4192C9.72178 20.523 9.40097 20.6223 9.06614 20.7174C8.53098 20.8758 7.97403 20.9375 7.42188 20.9375C6.54709 20.9375 5.69154 20.7358 4.91623 20.2789C4.16487 19.8383 3.57665 19.2168 3.16851 18.4556C2.74883 17.6782 2.57031 16.8298 2.57031 15.9688C2.57031 15.4624 2.63287 14.9457 2.78987 14.4441C2.41292 14.297 2.0635 14.0869 1.74841 13.8234C1.14592 13.3197 0.718375 12.6834 0.428556 11.991L0.424719 11.9819L0.420974 11.9727C0.128432 11.2538 0 10.493 0 9.71875C0 8.94706 0.129317 8.1893 0.420974 7.47265L0.425372 7.46185ZM3.81699 12.6642C3.90711 12.6797 3.99937 12.6875 4.09375 12.6875C4.14911 12.6875 4.20373 12.6848 4.25762 12.6795C4.26491 12.6788 4.27218 12.678 4.27944 12.6772C4.59738 12.6413 4.88965 12.512 5.15625 12.2891C5.22326 12.2339 5.28724 12.1749 5.34819 12.1119C5.35019 12.1099 5.35219 12.1078 5.35418 12.1057C5.52535 11.9276 5.67248 11.7183 5.79558 11.4779C5.79936 11.4705 5.80312 11.4631 5.80686 11.4556C5.84495 11.3797 5.88068 11.3008 5.91406 11.2188C5.92527 11.192 5.93614 11.165 5.94668 11.1379C5.94701 11.137 5.94734 11.1362 5.94767 11.1353C6.0018 10.9955 6.04706 10.8508 6.08344 10.7012C6.08514 10.6942 6.08682 10.6872 6.08848 10.6802C6.13036 10.5034 6.15992 10.3197 6.17718 10.1293C6.17783 10.122 6.17847 10.1148 6.17909 10.1075C6.18257 10.0668 6.18549 10.0257 6.18785 9.9844C6.19282 9.89723 6.19531 9.80868 6.19531 9.71875C6.19531 9.61211 6.19175 9.50735 6.18462 9.40447C6.16678 9.14711 6.12664 8.90153 6.06418 8.66772C6.02358 8.51569 5.97354 8.36864 5.91406 8.22656C5.73177 7.77344 5.47917 7.41406 5.15625 7.14844C5.09368 7.09612 5.02969 7.04896 4.9643 7.00695C4.73628 6.86048 4.49107 6.77663 4.22868 6.7554C4.1842 6.7518 4.13922 6.75 4.09375 6.75C3.70312 6.75 3.34896 6.88281 3.03125 7.14844C2.71354 7.41406 2.46094 7.77344 2.27344 8.22656C2.09115 8.67448 2 9.17188 2 9.71875C2 10.2708 2.09115 10.7708 2.27344 11.2188C2.46094 11.6667 2.71354 12.0234 3.03125 12.2891C3.27219 12.4905 3.53411 12.6156 3.81699 12.6642ZM6.09462 6.00768C6.09584 6.01235 6.09706 6.01701 6.0983 6.02167C6.13919 6.1758 6.18975 6.32483 6.25 6.46875C6.4375 6.91667 6.6901 7.27344 7.00781 7.53906C7.07274 7.59334 7.13918 7.64208 7.20715 7.68527C7.21398 7.6896 7.22081 7.69388 7.22766 7.6981C7.31862 7.75416 7.41228 7.80037 7.50864 7.83673C7.64467 7.88807 7.78609 7.91979 7.93289 7.93189C7.97818 7.93563 8.02399 7.9375 8.07031 7.9375C8.26292 7.9375 8.44666 7.90521 8.62154 7.84063C8.62578 7.83907 8.63001 7.83748 8.63424 7.83588C8.80936 7.76948 8.97555 7.67054 9.13281 7.53906C9.31481 7.3869 9.47544 7.20483 9.61471 6.99285C9.69845 6.86538 9.77447 6.72711 9.84276 6.57801C9.85916 6.54222 9.87512 6.50579 9.89062 6.46875C10.0781 6.02083 10.1719 5.52344 10.1719 4.97656C10.1719 4.41927 10.0781 3.91667 9.89062 3.46875C9.81054 3.27744 9.71858 3.10277 9.61475 2.94471C9.47547 2.73271 9.31483 2.55061 9.13281 2.39844C8.8151 2.13281 8.46094 2 8.07031 2C7.67969 2 7.32552 2.13281 7.00781 2.39844C6.6901 2.66406 6.4375 3.02083 6.25 3.46875C6.0625 3.91667 5.96875 4.41927 5.96875 4.97656C5.96875 5.08039 5.97213 5.18243 5.97889 5.28269C5.99594 5.53571 6.03452 5.77737 6.09462 6.00768ZM11.6019 6.57661C11.6707 6.72686 11.7472 6.86615 11.8317 6.99445C11.9707 7.20575 12.131 7.38729 12.3125 7.53906C12.4728 7.67093 12.6415 7.77007 12.8185 7.83647C12.8227 7.83806 12.8269 7.83963 12.8312 7.84118C13.0069 7.90539 13.1908 7.9375 13.3828 7.9375C13.4291 7.9375 13.4749 7.93563 13.5202 7.93189C13.667 7.91979 13.8085 7.88807 13.9445 7.83673C14.046 7.79842 14.1445 7.74919 14.24 7.68903C14.242 7.68778 14.244 7.68653 14.246 7.68527C14.3139 7.64208 14.3804 7.59334 14.4453 7.53906C14.763 7.27344 15.0156 6.91667 15.2031 6.46875C15.2634 6.32483 15.3139 6.17581 15.3548 6.02167C15.417 5.78717 15.4568 5.54084 15.4742 5.28269C15.481 5.18243 15.4844 5.08039 15.4844 4.97656C15.4844 4.41927 15.3906 3.91667 15.2031 3.46875C15.0156 3.02083 14.763 2.66406 14.4453 2.39844C14.1276 2.13281 13.7734 2 13.3828 2C12.9922 2 12.6354 2.13281 12.3125 2.39844C12.1309 2.55023 11.9706 2.73179 11.8316 2.94312C11.7273 3.10159 11.635 3.2768 11.5547 3.46875C11.3724 3.91667 11.2812 4.41927 11.2812 4.97656C11.2812 5.52344 11.3724 6.02083 11.5547 6.46875C11.57 6.50531 11.5857 6.54126 11.6019 6.57661ZM12.9062 9.78125C12.6979 9.40625 12.4271 9.10156 12.0938 8.86719C11.915 8.73873 11.7011 8.64471 11.452 8.58513C11.4481 8.58419 11.4442 8.58326 11.4402 8.58234C11.2959 8.54859 11.1398 8.5263 10.972 8.51548C10.8928 8.51037 10.811 8.50781 10.7266 8.50781C10.6395 8.50781 10.5552 8.51053 10.4737 8.51596C10.3062 8.52713 10.1504 8.54976 10.0063 8.58388C9.75501 8.64339 9.53935 8.73783 9.35938 8.86719C9.02604 9.10156 8.75521 9.40625 8.54688 9.78125C8.5218 9.82575 8.49685 9.87052 8.472 9.91555C8.36038 10.1179 8.25104 10.3255 8.14399 10.5384C8.07687 10.672 8.01064 10.8076 7.94531 10.9453C7.85156 11.1484 7.75521 11.3438 7.65625 11.5312C7.59656 11.6412 7.53498 11.7483 7.4715 11.8526C7.46856 11.8574 7.46563 11.8622 7.46269 11.867C7.42375 11.9306 7.38411 11.9932 7.34375 12.0547C7.20312 12.2682 7.03385 12.4635 6.83594 12.6406C6.63802 12.8125 6.42969 12.987 6.21094 13.1641C6.14748 13.2161 6.08418 13.2692 6.02103 13.3234C6.01831 13.3258 6.01558 13.3281 6.01286 13.3304C5.81963 13.4966 5.62784 13.6729 5.4375 13.8594C5.22472 14.0722 5.04213 14.3189 4.88971 14.5996C4.86305 14.6487 4.83731 14.6988 4.8125 14.75C4.65104 15.0885 4.57031 15.4948 4.57031 15.9688C4.57031 16.5521 4.6901 17.0651 4.92969 17.5078C5.16927 17.9557 5.5026 18.3047 5.92969 18.5547C6.36198 18.8099 6.85938 18.9375 7.42188 18.9375C7.83333 18.9375 8.19531 18.8906 8.50781 18.7969C8.82031 18.7083 9.11458 18.6172 9.39062 18.5234C9.60938 18.4505 9.82292 18.3854 10.0312 18.3281C10.2448 18.2708 10.4766 18.2422 10.7266 18.2422C10.9766 18.2422 11.2057 18.2708 11.4141 18.3281C11.6276 18.3854 11.8438 18.4505 12.0625 18.5234C12.3333 18.6172 12.625 18.7083 12.9375 18.7969C13.2552 18.8906 13.6172 18.9375 14.0234 18.9375C14.5911 18.9375 15.0885 18.8099 15.5156 18.5547C15.9479 18.3047 16.2839 17.9557 16.5234 17.5078C16.763 17.0651 16.8828 16.5521 16.8828 15.9688C16.8828 15.4948 16.7995 15.0885 16.6328 14.75C16.6085 14.6983 16.5832 14.6477 16.5568 14.5981C16.4076 14.318 16.2246 14.0718 16.0078 13.8594C15.8154 13.6709 15.6231 13.4928 15.4307 13.3251C15.3679 13.2703 15.305 13.2166 15.2422 13.1641C15.0234 12.987 14.8151 12.8125 14.6172 12.6406C14.4193 12.4688 14.25 12.276 14.1094 12.0625C14.0685 11.9983 14.0284 11.9333 13.9889 11.8676C13.9229 11.7576 13.8589 11.6454 13.7969 11.5312C13.6979 11.349 13.6016 11.1562 13.5078 10.9531C13.4427 10.8141 13.3766 10.6774 13.3097 10.543C13.2025 10.3278 13.0929 10.1186 12.9811 9.91558C12.9562 9.8705 12.9313 9.82572 12.9062 9.78125ZM15.2657 9.99192C15.2683 10.0367 15.2716 10.0811 15.2756 10.1252C15.2759 10.129 15.2763 10.1329 15.2766 10.1367C15.294 10.3246 15.3233 10.5057 15.3646 10.6802C15.4024 10.8395 15.4501 10.9933 15.5079 11.1415C15.5111 11.1498 15.5144 11.1581 15.5176 11.1663C15.5246 11.1839 15.5318 11.2014 15.5391 11.2188C15.5731 11.3002 15.6094 11.3785 15.6477 11.4539C15.7749 11.7038 15.9257 11.9205 16.1002 12.1042C16.1053 12.1096 16.1104 12.115 16.1155 12.1203C16.1734 12.1801 16.2339 12.2364 16.2969 12.2891C16.5615 12.5103 16.8514 12.6394 17.1667 12.6764C17.2299 12.6838 17.2941 12.6875 17.3594 12.6875C17.4521 12.6875 17.5427 12.68 17.6313 12.6651C17.916 12.617 18.1796 12.4917 18.4219 12.2891C18.7396 12.0234 18.9896 11.6667 19.1719 11.2188C19.3594 10.7708 19.4531 10.2708 19.4531 9.71875C19.4531 9.17188 19.3594 8.67448 19.1719 8.22656C18.9896 7.77344 18.7396 7.41406 18.4219 7.14844C18.1042 6.88281 17.75 6.75 17.3594 6.75C17.3139 6.75 17.2689 6.7518 17.2244 6.7554C16.9621 6.77663 16.7168 6.86048 16.4888 7.00695C16.4234 7.04896 16.3594 7.09612 16.2969 7.14844C15.9792 7.41406 15.7266 7.77344 15.5391 8.22656C15.4796 8.36864 15.4295 8.51569 15.3889 8.66772C15.3265 8.90153 15.2863 9.14711 15.2685 9.40447C15.2614 9.50735 15.2578 9.61211 15.2578 9.71875C15.2578 9.81127 15.2604 9.90233 15.2657 9.99192Z" fill="white"/>
</svg>
