<svg width="36" height="36" viewBox="0 0 36 36" fill="none" xmlns="http://www.w3.org/2000/svg">
<path d="M8.83883 26.5166C3.95728 21.635 3.95728 13.7205 8.83883 8.8389C13.7204 3.95735 21.635 3.95735 26.5165 8.8389C31.3981 13.7205 31.3981 21.635 26.5165 26.5166C21.635 31.3981 13.7204 31.3981 8.83883 26.5166Z" fill="url(#paint0_radial_1720_1942)"/>
<path d="M16.8613 23.1426C16.6855 23.1426 16.5215 23.1074 16.3691 23.0371C16.2207 22.9668 16.0625 22.8516 15.8945 22.6914L13.5215 20.4648C13.4902 20.4375 13.4512 20.4238 13.4043 20.4238H11.7754C11.2949 20.4238 10.9258 20.291 10.668 20.0254C10.4102 19.7559 10.2812 19.3672 10.2812 18.8594V16.6914C10.2812 16.1875 10.4102 15.8027 10.668 15.5371C10.9258 15.2676 11.2949 15.1328 11.7754 15.1328H13.4102C13.4492 15.1328 13.4883 15.1172 13.5273 15.0859L15.8945 12.877C16.0781 12.709 16.2402 12.5879 16.3809 12.5137C16.5254 12.4395 16.6816 12.4023 16.8496 12.4023C17.1191 12.4023 17.3418 12.4941 17.5176 12.6777C17.6934 12.8574 17.7812 13.0781 17.7812 13.3398V22.2285C17.7812 22.4863 17.6934 22.7031 17.5176 22.8789C17.3418 23.0547 17.123 23.1426 16.8613 23.1426ZM19.8555 20.5527C19.6758 20.4355 19.5703 20.2754 19.5391 20.0723C19.5078 19.8691 19.5664 19.6465 19.7148 19.4043C19.8594 19.1777 19.9707 18.9238 20.0488 18.6426C20.1309 18.3613 20.1719 18.0703 20.1719 17.7695C20.1719 17.4648 20.1328 17.1719 20.0547 16.8906C19.9766 16.6094 19.8633 16.3574 19.7148 16.1348C19.5625 15.8926 19.502 15.6699 19.5332 15.4668C19.5684 15.2598 19.6758 15.0996 19.8555 14.9863C20.0234 14.8809 20.1992 14.8457 20.3828 14.8809C20.5664 14.916 20.7129 15.0078 20.8223 15.1562C21.0762 15.5078 21.2734 15.9082 21.4141 16.3574C21.5586 16.8066 21.6309 17.2773 21.6309 17.7695C21.6309 18.2578 21.5586 18.7266 21.4141 19.1758C21.2734 19.625 21.0762 20.0234 20.8223 20.3711C20.7129 20.5273 20.5664 20.623 20.3828 20.6582C20.1992 20.6895 20.0234 20.6543 19.8555 20.5527ZM22.498 22.1816C22.3066 22.0684 22.1973 21.9082 22.1699 21.7012C22.1465 21.4941 22.1992 21.2871 22.3281 21.0801C22.625 20.6152 22.8555 20.0996 23.0195 19.5332C23.1875 18.9668 23.2715 18.3789 23.2715 17.7695C23.2715 17.1562 23.1895 16.5664 23.0254 16C22.8613 15.4336 22.6289 14.918 22.3281 14.4531C22.1992 14.2461 22.1465 14.0391 22.1699 13.832C22.1973 13.625 22.3066 13.4648 22.498 13.3516C22.6699 13.25 22.8496 13.2188 23.0371 13.2578C23.2246 13.2969 23.375 13.4023 23.4883 13.5742C23.8828 14.1523 24.1855 14.8027 24.3965 15.5254C24.6113 16.248 24.7188 16.9961 24.7188 17.7695C24.7188 18.543 24.6113 19.291 24.3965 20.0137C24.1855 20.7324 23.8828 21.3809 23.4883 21.959C23.375 22.1309 23.2246 22.2363 23.0371 22.2754C22.8496 22.3145 22.6699 22.2832 22.498 22.1816Z" fill="url(#paint1_linear_1720_1942)"/>
<defs>
<radialGradient id="paint0_radial_1720_1942" cx="0" cy="0" r="1" gradientUnits="userSpaceOnUse" gradientTransform="translate(15.4718 15.4719) rotate(45) scale(20.7973)">
<stop offset="0.40625" stop-color="#EDFAF6"/>
<stop offset="0.651042" stop-color="#AFDDDC"/>
<stop offset="0.838542" stop-color="#F4F6FF"/>
</radialGradient>
<linearGradient id="paint1_linear_1720_1942" x1="17.5" y1="12" x2="17.5" y2="24" gradientUnits="userSpaceOnUse">
<stop stop-color="#A2E3E7"/>
<stop offset="1" stop-color="#2FA1A8"/>
</linearGradient>
</defs>
</svg>
