<svg width="263" height="259" viewBox="0 0 263 259" fill="none" xmlns="http://www.w3.org/2000/svg">
<g opacity="0.7">
<mask id="mask0_1190_6102" style="mask-type:alpha" maskUnits="userSpaceOnUse" x="131" y="151" width="132" height="108">
<path d="M150.681 247.205C162.023 255.144 177.067 259 196.67 259C216.273 259 231.317 255.139 242.659 247.205C254.613 238.838 262.339 224.502 262.339 210.681C262.339 201.255 260.144 192.815 253.592 184.179L252.023 160.229C251.705 156.825 249.712 153.831 246.703 152.213C243.689 150.596 240.093 150.596 237.08 152.213L217.322 164.571C211.425 163.242 204.228 162.843 196.67 162.843C189.112 162.843 181.915 163.242 176.017 164.571L156.26 152.213C153.247 150.6 149.65 150.6 146.637 152.213C143.623 153.831 141.635 156.825 141.317 160.229L139.748 184.179C133.196 192.815 131 201.255 131 210.681C131 224.502 138.722 238.838 150.681 247.205Z" fill="#D9D9D9"/>
</mask>
<g mask="url(#mask0_1190_6102)">
<path d="M150.681 247.205C162.023 255.144 177.067 259 196.67 259C216.273 259 231.318 255.139 242.66 247.205C254.613 238.838 262.34 224.502 262.34 210.681C262.34 201.255 260.145 192.815 253.593 184.179L252.023 160.229C251.705 156.825 249.712 153.831 246.704 152.213C243.69 150.596 240.094 150.596 237.08 152.213L217.323 164.571C211.426 163.242 204.229 162.843 196.67 162.843C189.112 162.843 181.915 163.242 176.018 164.571L156.261 152.213C153.247 150.6 149.651 150.6 146.637 152.213C143.624 153.831 141.635 156.825 141.318 160.229L139.748 184.179C133.196 192.815 131.001 201.255 131.001 210.681C131.001 224.502 138.723 238.838 150.681 247.205Z" fill="url(#paint0_radial_1190_6102)"/>
<g filter="url(#filter0_f_1190_6102)">
<path d="M218.651 226.721C209.855 215.177 205.999 209.727 195.427 209.727C184.855 209.727 180.999 215.177 172.199 226.721C167.419 232.994 156.37 240.557 148.374 241.886C149.188 242.545 150.02 243.181 150.882 243.782C162.224 251.721 177.268 255.577 196.871 255.577C216.475 255.577 231.519 251.716 242.861 243.782C243.636 243.243 244.392 242.675 245.128 242.083C237.132 242.328 223.989 233.721 218.655 226.721H218.651Z" fill="white"/>
</g>
<path d="M195.232 223C197.601 223 199.521 221.08 199.521 218.711C199.521 216.342 197.601 214.422 195.232 214.422C192.863 214.422 190.942 216.342 190.942 218.711C190.942 221.08 192.863 223 195.232 223Z" fill="#ACB3FF"/>
<path d="M206.496 225.994C206.496 225.994 205.201 229.066 201.07 229.239C197.195 229.398 195.452 226.832 195.25 226.509C195.24 226.495 195.221 226.495 195.212 226.509C195.009 226.832 193.267 229.398 189.391 229.239C185.256 229.07 183.966 225.994 183.966 225.994" stroke="#ACB3FF" stroke-width="4.65843" stroke-miterlimit="10" stroke-linecap="round"/>
<path d="M181.904 208.138C182.698 204.846 182.689 201.678 182.039 199.237C181.389 196.796 179.4 195.906 177.614 195.477C175.828 195.049 173.657 194.933 171.967 196.811C170.278 198.688 168.829 201.505 168.034 204.797C167.24 208.09 167.25 211.258 167.9 213.699C167.9 213.708 167.904 213.718 167.909 213.728C168.256 215.008 169.469 215.86 170.793 215.86H176.695C177.682 215.86 178.621 215.389 179.169 214.565C180.334 212.827 181.307 210.618 181.904 208.138Z" fill="#9899F3"/>
<path d="M225.31 208.138C226.104 204.846 226.094 201.678 225.444 199.237C224.794 196.796 222.806 195.906 221.02 195.477C219.234 195.049 217.063 194.933 215.373 196.811C213.683 198.688 212.234 201.505 211.44 204.797C210.646 208.09 210.655 211.258 211.305 213.699C211.305 213.708 211.31 213.718 211.315 213.728C211.662 215.008 212.875 215.86 214.199 215.86H220.101C221.088 215.86 222.026 215.389 222.575 214.565C223.74 212.827 224.713 210.618 225.31 208.138Z" fill="#9899F3"/>
<g filter="url(#filter1_f_1190_6102)">
<path d="M179.203 177.156C181.087 184.792 180.896 187.582 184.097 187.582H184.111C187.312 187.582 187.121 182.489 189.005 174.854C189.173 174.181 189.359 173.541 189.563 172.924C189.689 172.547 189.815 172.178 189.949 171.824C190.275 170.972 191.522 171.041 191.754 171.925C191.792 172.063 191.824 172.201 191.861 172.339C192.127 173.412 192.35 174.439 192.55 175.402C192.615 175.724 192.68 176.042 192.741 176.35C192.82 176.76 192.899 177.161 192.973 177.552C193.159 178.524 193.327 179.413 193.499 180.219C193.569 180.541 193.639 180.85 193.708 181.14C194.313 183.631 195.057 185.068 196.76 185.068H196.774C198.574 185.068 199.3 183.456 199.928 180.689C199.998 180.38 200.068 180.058 200.133 179.721C200.166 179.556 200.203 179.381 200.235 179.206C200.305 178.856 200.375 178.492 200.445 178.119C200.514 177.746 200.589 177.354 200.668 176.954C200.938 175.554 201.249 174.006 201.663 172.335C201.696 172.197 201.733 172.059 201.771 171.92C202.003 171.036 203.25 170.967 203.576 171.819C203.71 172.169 203.836 172.533 203.957 172.906C204.162 173.528 204.352 174.172 204.52 174.849C206.404 182.485 206.213 187.578 209.414 187.578H209.428C212.629 187.578 212.438 184.787 214.322 177.152C216.206 169.516 230.214 167.624 230.214 167.624L228.26 163.567L219.653 164.253C213.089 163.106 205.595 162.549 196.756 162.549C187.916 162.549 180.422 163.106 173.858 164.253L165.251 163.567L163.297 167.624C163.297 167.624 177.31 169.516 179.189 177.152L179.203 177.156Z" fill="#8382EE"/>
</g>
<g filter="url(#filter2_f_1190_6102)">
<path d="M257.331 192.878L253.337 192.398C253.337 192.398 251.407 198.268 248.675 198.653C241.596 199.645 236.982 198.532 236.607 201.336V201.35C236.226 204.154 240.845 204.632 247.516 207.241C248.337 207.566 249.112 207.918 249.83 208.289C250.67 208.724 250.421 209.966 249.478 210.059H249.449C242.333 210.75 237.757 209.943 237.381 212.743V212.757C237.001 215.561 241.62 216.038 248.29 218.647L248.328 218.661C249.205 219.004 249.097 220.27 248.173 220.46C247.389 220.622 246.553 220.747 245.68 220.835C238.564 221.521 233.987 220.715 233.612 223.519V223.533C233.232 226.337 236.963 227.06 239.357 229.423C245.68 235.667 243.488 236.686 243.488 236.686H248.68C255.782 228.765 260.063 218.453 260.063 208.423C260.063 203.153 259.114 197.846 257.335 192.882L257.331 192.878Z" fill="#8382EE"/>
</g>
<g filter="url(#filter3_f_1190_6102)">
<path d="M136.183 192.878L140.177 192.398C140.177 192.398 142.107 198.268 144.839 198.653C151.918 199.645 156.532 198.532 156.907 201.336V201.35C157.288 204.154 152.669 204.632 145.999 207.241C145.177 207.566 144.403 207.918 143.684 208.289C142.844 208.724 143.093 209.966 144.037 210.059H144.065C151.181 210.75 155.757 209.943 156.133 212.743V212.757C156.513 215.561 151.894 216.038 145.224 218.647L145.187 218.661C144.309 219.004 144.417 220.27 145.341 220.46C146.125 220.622 146.961 220.747 147.834 220.835C154.95 221.521 159.527 220.715 159.902 223.519V223.533C160.282 226.337 156.551 227.06 154.157 229.423C147.834 235.667 150.026 236.686 150.026 236.686H144.834C137.732 228.765 133.452 218.453 133.452 208.423C133.452 203.153 134.4 197.846 136.179 192.882L136.183 192.878Z" fill="#8382EE"/>
</g>
</g>
<path d="M253.592 184.179L252.022 160.229C251.704 156.825 249.711 153.831 246.703 152.213C243.689 150.596 240.093 150.596 237.079 152.213L217.322 164.571C211.425 163.242 204.228 162.843 196.669 162.843C189.111 162.843 181.914 163.242 176.017 164.571L156.26 152.213C153.246 150.6 149.65 150.6 146.636 152.213C143.623 153.831 141.634 156.825 141.317 160.229L139.747 184.179C133.195 192.815 131 201.255 131 210.681C131 224.502 138.722 238.838 150.68 247.205C162.022 255.144 177.066 259 196.669 259C216.273 259 231.317 255.139 242.659 247.205C254.612 238.838 262.339 224.502 262.339 210.681C262.339 201.255 260.144 192.815 253.592 184.179ZM239.072 242.078C228.818 249.256 214.949 252.742 196.669 252.742C178.39 252.742 164.521 249.251 154.267 242.078C143.936 234.848 137.258 222.523 137.258 210.681C137.258 202.232 139.959 193.581 144.672 186.957C144.672 186.957 145.028 186.437 145.158 186.273C146.208 184.915 148.427 182.22 152.009 179.423C152.009 179.423 148.201 180.26 145.413 181.907L147.546 160.821C147.671 159.492 148.417 158.366 149.597 157.735C150.762 157.109 152.095 157.104 153.26 157.711L172.223 168.769C170.466 169.823 168.001 170.786 165.922 172.866C165.922 172.866 171.121 171.239 178.121 170.281C185.799 169.231 188.948 169.101 196.665 169.101C204.382 169.101 207.53 169.226 215.209 170.281C222.208 171.239 227.408 172.866 227.408 172.866C225.328 170.786 222.863 169.823 221.106 168.769L240.069 157.711C241.239 157.099 242.572 157.109 243.732 157.735C244.912 158.366 245.658 159.492 245.783 160.821L247.916 181.907C245.128 180.265 241.32 179.423 241.32 179.423C244.902 182.22 247.121 184.92 248.171 186.273C248.301 186.437 248.657 186.957 248.657 186.957C253.365 193.586 256.071 202.232 256.071 210.681C256.071 222.523 249.394 234.848 239.063 242.078H239.072Z" fill="#ACB3FF"/>
</g>
<mask id="path-12-inside-1_1190_6102" fill="white">
<path fill-rule="evenodd" clip-rule="evenodd" d="M106.6 117.547C155.275 114.501 193.244 89.4193 193.244 58.9287C193.244 26.3833 149.985 0 96.6218 0C43.2591 0 0 26.3833 0 58.9287C0 90.36 40.348 116.044 91.1785 117.765C97.8711 127.09 108.83 136.595 124.812 143.125C119.548 139.154 110.794 128.617 106.6 117.547Z"/>
</mask>
<path fill-rule="evenodd" clip-rule="evenodd" d="M106.6 117.547C155.275 114.501 193.244 89.4193 193.244 58.9287C193.244 26.3833 149.985 0 96.6218 0C43.2591 0 0 26.3833 0 58.9287C0 90.36 40.348 116.044 91.1785 117.765C97.8711 127.09 108.83 136.595 124.812 143.125C119.548 139.154 110.794 128.617 106.6 117.547Z" fill="url(#paint1_radial_1190_6102)"/>
<path d="M106.6 117.547L106.468 115.428L103.594 115.607L104.614 118.299L106.6 117.547ZM91.1785 117.765L92.9037 116.527L92.2945 115.678L91.2504 115.643L91.1785 117.765ZM124.812 143.125L124.009 145.091L126.091 141.43L124.812 143.125ZM191.12 58.9287C191.12 73.2188 182.221 86.5369 166.991 96.7668C151.782 106.982 130.501 113.924 106.468 115.428L106.733 119.666C131.374 118.125 153.415 111.002 169.359 100.292C185.282 89.5973 195.367 75.1292 195.367 58.9287H191.12ZM96.6218 2.12356C122.978 2.12356 146.738 8.6434 163.838 19.0728C180.976 29.5248 191.12 43.6778 191.12 58.9287H195.367C195.367 41.6342 183.882 26.3228 166.049 15.4468C148.18 4.54824 123.628 -2.12356 96.6218 -2.12356V2.12356ZM2.12356 58.9287C2.12356 43.6778 12.2681 29.5248 29.4056 19.0728C46.506 8.6434 70.2653 2.12356 96.6218 2.12356V-2.12356C69.6156 -2.12356 45.0639 4.54824 27.1942 15.4468C9.36144 26.3228 -2.12356 41.6342 -2.12356 58.9287H2.12356ZM91.2504 115.643C66.1482 114.793 43.741 108.025 27.6758 97.7017C11.5825 87.3599 2.12356 73.6586 2.12356 58.9287H-2.12356C-2.12356 75.6301 8.59156 90.4864 25.3798 101.275C42.1963 112.081 65.3783 119.016 91.1066 119.888L91.2504 115.643ZM125.615 141.159C109.991 134.775 99.3558 125.517 92.9037 116.527L89.4533 119.004C96.3864 128.663 107.67 138.415 124.009 145.091L125.615 141.159ZM104.614 118.299C108.949 129.738 117.945 140.604 123.533 144.82L126.091 141.43C121.152 137.704 112.64 127.495 108.586 116.795L104.614 118.299Z" fill="#9D9CFF" mask="url(#path-12-inside-1_1190_6102)"/>
<path d="M50.5358 46.71H52.4408C52.5908 46.71 52.6508 46.785 52.6508 46.92V48.225C52.6508 48.345 52.5908 48.42 52.4408 48.42H50.5358V55.08C50.5358 55.2 50.4758 55.26 50.3258 55.26H48.7958C48.6758 55.26 48.6158 55.2 48.6158 55.08V42.27C48.6158 42.15 48.6758 42.075 48.7958 42.075H50.3258C50.4758 42.075 50.5358 42.15 50.5358 42.27V46.71ZM43.6208 43.2C45.8858 43.2 47.4308 44.775 47.4308 47.745C47.4308 50.73 45.8858 52.305 43.6208 52.305C41.3408 52.305 39.7958 50.73 39.7958 47.745C39.7958 44.775 41.3408 43.2 43.6208 43.2ZM43.6208 50.595C44.8058 50.595 45.5258 49.65 45.5258 47.745C45.5258 45.855 44.8058 44.895 43.6208 44.895C42.4358 44.895 41.7008 45.855 41.7008 47.745C41.7008 49.65 42.4358 50.595 43.6208 50.595ZM62.548 42.075H64.063C64.213 42.075 64.273 42.15 64.273 42.27V49.335C64.273 49.455 64.213 49.515 64.063 49.515H62.548C62.413 49.515 62.353 49.455 62.353 49.335V42.27C62.353 42.15 62.413 42.075 62.548 42.075ZM57.133 47.22C56.458 48.075 55.378 48.9 54.103 49.53C53.983 49.59 53.848 49.56 53.788 49.485L53.038 48.345C52.963 48.225 52.963 48.09 53.083 48.045C54.823 47.145 56.143 46.125 56.143 44.85V44.535H53.623C53.488 44.535 53.428 44.46 53.428 44.355V43.095C53.428 42.99 53.488 42.915 53.623 42.915H60.508C60.658 42.915 60.718 42.99 60.718 43.095V44.355C60.718 44.46 60.658 44.535 60.508 44.535H58.063V44.85C58.063 46.05 59.098 46.905 60.928 47.79C61.048 47.85 61.048 47.97 60.988 48.075L60.313 49.23C60.253 49.335 60.103 49.335 59.998 49.275C58.888 48.795 57.853 48.03 57.133 47.22ZM55.303 50.19H64.078C64.213 50.19 64.273 50.25 64.273 50.37V55.215C64.273 55.32 64.213 55.395 64.078 55.395H62.563C62.413 55.395 62.353 55.32 62.353 55.215V51.855H55.303C55.168 51.855 55.108 51.78 55.108 51.66V50.37C55.108 50.25 55.168 50.19 55.303 50.19ZM79.8661 44.94H81.7711C81.9211 44.94 81.9811 45.015 81.9811 45.15V46.44C81.9811 46.575 81.9211 46.635 81.7711 46.635H79.8661V49.335C79.8661 49.455 79.8061 49.515 79.6561 49.515H78.1261C78.0061 49.515 77.9461 49.455 77.9461 49.335V42.27C77.9461 42.15 78.0061 42.075 78.1261 42.075H79.6561C79.8061 42.075 79.8661 42.15 79.8661 42.27V44.94ZM76.3111 42.96V48.735C76.3111 48.84 76.2661 48.915 76.1311 48.915H69.7711C69.6211 48.915 69.5611 48.84 69.5611 48.735V42.96C69.5611 42.84 69.6211 42.765 69.7711 42.765H71.2561C71.3911 42.765 71.4511 42.84 71.4511 42.96V44.385H74.4511V42.96C74.4511 42.84 74.4961 42.765 74.6311 42.765H76.1311C76.2661 42.765 76.3111 42.84 76.3111 42.96ZM71.4511 45.93V47.31H74.4511V45.93H71.4511ZM75.4861 49.86C78.4561 49.86 80.0011 51.015 80.0011 52.635C80.0011 54.225 78.4561 55.395 75.4861 55.395C72.5011 55.395 70.9561 54.24 70.9561 52.635C70.9561 51.015 72.5011 49.86 75.4861 49.86ZM75.4861 53.79C77.3611 53.79 78.0961 53.265 78.0961 52.635C78.0961 52.005 77.3611 51.48 75.4861 51.48C73.6111 51.48 72.8611 52.005 72.8611 52.635C72.8611 53.265 73.6111 53.79 75.4861 53.79ZM93.3932 55.26H91.8782C91.7432 55.26 91.6832 55.2 91.6832 55.08V42.27C91.6832 42.15 91.7432 42.075 91.8782 42.075H93.3932C93.5432 42.075 93.6032 42.15 93.6032 42.27V55.08C93.6032 55.2 93.5432 55.26 93.3932 55.26ZM86.2532 52.305C83.9132 52.305 82.3682 50.73 82.3682 47.745C82.3682 44.775 83.9132 43.2 86.2532 43.2C88.6082 43.2 90.1382 44.775 90.1382 47.745C90.1382 50.73 88.6082 52.305 86.2532 52.305ZM86.2532 50.595C87.5132 50.595 88.2482 49.65 88.2482 47.745C88.2482 45.855 87.5132 44.895 86.2532 44.895C85.0082 44.895 84.2732 45.855 84.2732 47.745C84.2732 49.65 85.0082 50.595 86.2532 50.595ZM107.921 46.44H106.166C105.851 47.985 104.426 49.005 102.536 49.005C100.391 49.005 98.8463 47.685 98.8463 45.78C98.8463 43.89 100.391 42.555 102.536 42.555C104.291 42.555 105.641 43.44 106.076 44.805H107.921V42.27C107.921 42.15 107.981 42.075 108.116 42.075H109.631C109.781 42.075 109.841 42.15 109.841 42.27V49.05C109.841 49.155 109.781 49.23 109.631 49.23H108.116C107.981 49.23 107.921 49.155 107.921 49.05V46.44ZM100.721 45.78C100.721 46.725 101.531 47.385 102.536 47.385C103.541 47.385 104.351 46.725 104.351 45.78C104.351 44.82 103.541 44.16 102.536 44.16C101.531 44.16 100.721 44.82 100.721 45.78ZM103.151 49.83H104.621C104.756 49.83 104.816 49.89 104.816 50.01V55.065C104.816 55.185 104.756 55.26 104.621 55.26H100.301C100.166 55.26 100.106 55.185 100.106 55.065V50.01C100.106 49.89 100.166 49.83 100.301 49.83H101.741C101.876 49.83 101.936 49.89 101.936 50.01V51.06H102.971V50.01C102.971 49.89 103.031 49.83 103.151 49.83ZM110.756 54.015C110.876 54.09 110.846 54.195 110.771 54.3L109.931 55.32C109.856 55.425 109.721 55.41 109.601 55.32C108.791 54.66 108.221 53.97 107.846 53.235C107.486 53.985 106.856 54.72 106.046 55.365C105.926 55.47 105.806 55.455 105.716 55.365L104.906 54.42C104.816 54.33 104.816 54.18 104.906 54.12C106.376 53.07 106.871 51.63 106.871 50.325V50.01C106.871 49.89 106.931 49.83 107.066 49.83H108.521C108.656 49.83 108.716 49.89 108.716 50.01V50.325C108.716 51.63 109.331 53.07 110.756 54.015ZM101.936 52.605V53.7H102.971V52.605H101.936ZM122.289 46.71H124.194C124.344 46.71 124.404 46.785 124.404 46.92V48.225C124.404 48.345 124.344 48.42 124.194 48.42H122.289V55.08C122.289 55.2 122.229 55.26 122.079 55.26H120.549C120.429 55.26 120.369 55.2 120.369 55.08V42.27C120.369 42.15 120.429 42.075 120.549 42.075H122.079C122.229 42.075 122.289 42.15 122.289 42.27V46.71ZM119.214 50.19L119.424 51.45C119.439 51.57 119.409 51.6 119.259 51.645C117.939 51.93 116.349 52.08 114.549 52.08H112.254C112.119 52.08 112.059 52.02 112.059 51.9V43.605C112.059 43.485 112.119 43.41 112.254 43.41H118.479C118.614 43.41 118.674 43.485 118.674 43.605V44.88C118.674 45 118.614 45.075 118.479 45.075H113.964V50.43H114.834C115.989 50.43 117.654 50.295 118.974 50.01C119.094 49.98 119.184 50.04 119.214 50.19ZM137.181 46.635H135.381V48.615H137.181C137.316 48.615 137.376 48.69 137.376 48.81V50.1C137.376 50.22 137.316 50.28 137.181 50.28H135.381V55.08C135.381 55.2 135.321 55.26 135.171 55.26H133.641C133.521 55.26 133.461 55.2 133.461 55.08V42.27C133.461 42.15 133.521 42.075 133.641 42.075H135.171C135.321 42.075 135.381 42.15 135.381 42.27V44.97H137.181C137.316 44.97 137.376 45.045 137.376 45.18V46.44C137.376 46.575 137.316 46.635 137.181 46.635ZM132.306 50.07L132.516 51.36C132.531 51.48 132.486 51.525 132.351 51.555C131.031 51.84 129.441 52.02 127.641 52.02H125.421C125.286 52.02 125.226 51.945 125.226 51.825V43.455C125.226 43.35 125.286 43.275 125.406 43.275H126.951C127.086 43.275 127.131 43.35 127.131 43.455V50.31H127.926C129.081 50.31 130.746 50.19 132.066 49.89C132.186 49.86 132.291 49.935 132.306 50.07ZM142.484 46.995C141.794 46.995 141.269 46.5 141.269 45.81C141.269 45.12 141.794 44.625 142.484 44.625C143.174 44.625 143.699 45.12 143.699 45.81C143.699 46.5 143.174 46.995 142.484 46.995ZM142.484 52.725C141.794 52.725 141.269 52.23 141.269 51.54C141.269 50.85 141.794 50.355 142.484 50.355C143.174 50.355 143.699 50.85 143.699 51.54C143.699 52.23 143.174 52.725 142.484 52.725ZM148.882 54.21C146.917 54.21 145.492 53.1 144.967 51.3C144.937 51.165 144.997 51.09 145.117 51.06L146.632 50.655C146.752 50.625 146.827 50.67 146.872 50.79C147.187 51.645 147.817 52.23 148.882 52.23C150.037 52.23 150.772 51.6 150.772 50.64C150.772 49.68 149.977 49.155 148.762 49.155H148.297C148.177 49.155 148.102 49.08 148.102 48.96V47.625C148.102 47.505 148.177 47.43 148.297 47.43H148.762C149.782 47.43 150.487 46.905 150.487 46.14C150.487 45.345 149.797 44.76 148.837 44.76C147.892 44.76 147.277 45.345 146.962 46.2C146.917 46.32 146.842 46.365 146.722 46.335L145.207 45.93C145.087 45.9 145.027 45.825 145.057 45.69C145.582 43.89 146.992 42.78 148.882 42.78C151.012 42.78 152.587 44.04 152.587 45.765C152.587 46.845 151.942 47.745 150.862 48.24C152.107 48.66 152.872 49.59 152.872 50.925C152.872 52.89 151.252 54.21 148.882 54.21ZM34.5561 67.71H36.4611C36.6111 67.71 36.6711 67.785 36.6711 67.92V69.225C36.6711 69.345 36.6111 69.42 36.4611 69.42H34.5561V76.08C34.5561 76.2 34.4961 76.26 34.3461 76.26H32.8161C32.6961 76.26 32.6361 76.2 32.6361 76.08V63.27C32.6361 63.15 32.6961 63.075 32.8161 63.075H34.3461C34.4961 63.075 34.5561 63.15 34.5561 63.27V67.71ZM27.6411 64.2C29.9061 64.2 31.4511 65.775 31.4511 68.745C31.4511 71.73 29.9061 73.305 27.6411 73.305C25.3611 73.305 23.8161 71.73 23.8161 68.745C23.8161 65.775 25.3611 64.2 27.6411 64.2ZM27.6411 71.595C28.8261 71.595 29.5461 70.65 29.5461 68.745C29.5461 66.855 28.8261 65.895 27.6411 65.895C26.4561 65.895 25.7211 66.855 25.7211 68.745C25.7211 70.65 26.4561 71.595 27.6411 71.595ZM47.0783 63.075H48.5933C48.7283 63.075 48.7733 63.15 48.7733 63.27V76.08C48.7733 76.2 48.7283 76.26 48.5933 76.26H47.0783C46.9583 76.26 46.8983 76.2 46.8983 76.08V69.48H45.6833V75.675C45.6833 75.795 45.6233 75.87 45.5033 75.87H44.0183C43.8833 75.87 43.8233 75.795 43.8233 75.675V63.555C43.8233 63.435 43.8833 63.36 44.0183 63.36H45.5033C45.6233 63.36 45.6833 63.435 45.6833 63.555V67.785H46.8983V63.27C46.8983 63.15 46.9583 63.075 47.0783 63.075ZM42.9983 71.64L43.1783 72.81C43.1933 72.93 43.1633 72.975 43.0133 73.005C42.0983 73.23 40.4783 73.38 39.2933 73.38H37.2533C37.1333 73.38 37.0733 73.305 37.0733 73.185V68.31C37.0733 68.19 37.1333 68.1 37.2533 68.1H40.4633V66H37.2383C37.1033 66 37.0433 65.925 37.0433 65.805V64.605C37.0433 64.485 37.1033 64.41 37.2383 64.41H42.1283C42.2633 64.41 42.3083 64.485 42.3083 64.605V69.42C42.3083 69.525 42.2483 69.615 42.1133 69.615H38.9483V71.79H39.5033C40.4333 71.79 41.8133 71.67 42.7583 71.475C42.8933 71.445 42.9833 71.505 42.9983 71.64ZM61.1755 76.26H59.6755C59.5405 76.26 59.4805 76.2 59.4805 76.08V63.27C59.4805 63.15 59.5405 63.075 59.6755 63.075H61.1755C61.3255 63.075 61.3855 63.15 61.3855 63.27V76.08C61.3855 76.2 61.3255 76.26 61.1755 76.26ZM54.3505 70.71C52.1005 70.71 50.7655 69.285 50.7655 67.425C50.7655 65.565 52.1005 64.14 54.3505 64.14C56.6155 64.14 57.9355 65.565 57.9355 67.425C57.9355 69.285 56.6155 70.71 54.3505 70.71ZM54.3505 69.075C55.3255 69.075 56.0455 68.49 56.0455 67.425C56.0455 66.36 55.3255 65.775 54.3505 65.775C53.3905 65.775 52.6705 66.36 52.6705 67.425C52.6705 68.49 53.3905 69.075 54.3505 69.075ZM52.9405 73.83H50.2705C50.1355 73.83 50.0755 73.755 50.0755 73.65V72.39C50.0755 72.285 50.1355 72.21 50.2705 72.21H52.5655C54.9355 72.21 56.8705 72.09 58.5805 71.79C58.7155 71.76 58.7905 71.85 58.8055 71.955L58.9705 73.185C58.9705 73.305 58.9105 73.365 58.7755 73.38C57.1255 73.725 55.2655 73.83 52.9405 73.83ZM75.8986 63.075H77.4136C77.5636 63.075 77.6236 63.15 77.6236 63.27V76.08C77.6236 76.2 77.5636 76.26 77.4136 76.26H75.8986C75.7636 76.26 75.7036 76.2 75.7036 76.08V69.345H73.5736V72.825C73.5736 72.945 73.5136 73.02 73.3936 73.02H67.0186C66.8836 73.02 66.8236 72.945 66.8236 72.825V64.38C66.8236 64.275 66.8836 64.2 67.0186 64.2H68.5336C68.6686 64.2 68.7286 64.275 68.7286 64.38V67.11H71.6836V64.38C71.6836 64.275 71.7436 64.2 71.8786 64.2H73.3936C73.5136 64.2 73.5736 64.275 73.5736 64.38V67.635H75.7036V63.27C75.7036 63.15 75.7636 63.075 75.8986 63.075ZM68.7286 68.805V71.31H71.6836V68.805H68.7286ZM89.9807 69.435H81.2657C81.1307 69.435 81.0857 69.375 81.0857 69.255V63.675C81.0857 63.57 81.1307 63.48 81.2657 63.48H89.7407C89.8757 63.48 89.9357 63.555 89.9357 63.66V64.8C89.9357 64.935 89.8757 65.01 89.7407 65.01H82.9607V65.7H89.6657C89.7857 65.7 89.8607 65.775 89.8607 65.895V66.99C89.8607 67.11 89.7857 67.185 89.6657 67.185H82.9607V67.95H89.9807C90.1007 67.95 90.1757 68.01 90.1757 68.145V69.255C90.1757 69.375 90.1007 69.435 89.9807 69.435ZM79.3757 70.365H91.6757C91.8107 70.365 91.8707 70.44 91.8707 70.545V71.76C91.8707 71.88 91.8107 71.94 91.6757 71.94H79.3757C79.2557 71.94 79.1957 71.88 79.1957 71.76V70.545C79.1957 70.44 79.2557 70.365 79.3757 70.365ZM83.0507 74.64H90.1907C90.3407 74.64 90.4007 74.715 90.4007 74.835V76.02C90.4007 76.14 90.3407 76.215 90.1907 76.215H81.3557C81.2057 76.215 81.1457 76.14 81.1457 76.02V72.975C81.1457 72.855 81.2057 72.78 81.3557 72.78H82.8707C82.9907 72.78 83.0507 72.855 83.0507 72.975V74.64ZM98.6029 67.95C95.8429 67.95 94.3429 67.035 94.3429 65.58C94.3429 64.125 95.8429 63.24 98.6029 63.24C101.378 63.24 102.863 64.125 102.863 65.58C102.863 67.035 101.378 67.95 98.6029 67.95ZM98.6029 66.405C100.283 66.405 100.973 66.045 100.973 65.58C100.973 65.1 100.283 64.755 98.6029 64.755C96.9529 64.755 96.2479 65.1 96.2479 65.58C96.2479 66.045 96.9529 66.405 98.6029 66.405ZM104.768 70.08H92.4679C92.3479 70.08 92.2879 70.005 92.2879 69.885V68.715C92.2879 68.61 92.3479 68.52 92.4679 68.52H104.768C104.903 68.52 104.963 68.61 104.963 68.715V69.885C104.963 70.005 104.903 70.08 104.768 70.08ZM103.343 76.395H94.2829C94.1629 76.395 94.1029 76.32 94.1029 76.215V73.02C94.1029 72.915 94.1629 72.825 94.2829 72.825H101.258V72.3H94.2529C94.1329 72.3 94.0729 72.24 94.0729 72.105V71.01C94.0729 70.89 94.1329 70.83 94.2529 70.83H102.953C103.088 70.83 103.148 70.89 103.148 71.01V74.1C103.148 74.22 103.073 74.295 102.938 74.295H95.9929V74.88H103.343C103.478 74.88 103.553 74.955 103.553 75.09V76.215C103.553 76.32 103.478 76.395 103.343 76.395ZM119.251 67.62H110.596C110.446 67.62 110.401 67.545 110.401 67.425V63.525C110.401 63.405 110.446 63.33 110.596 63.33H112.096C112.231 63.33 112.276 63.405 112.276 63.525V66.075H119.251C119.401 66.075 119.446 66.15 119.446 66.27V67.425C119.446 67.545 119.401 67.62 119.251 67.62ZM108.706 68.385H121.006C121.141 68.385 121.201 68.475 121.201 68.595V69.765C121.201 69.87 121.141 69.945 121.006 69.945H115.816V70.83H119.236C119.371 70.83 119.431 70.89 119.431 71.01V74.1C119.431 74.22 119.356 74.295 119.221 74.295H112.201V74.88H119.626C119.761 74.88 119.821 74.955 119.821 75.09V76.215C119.821 76.32 119.761 76.395 119.626 76.395H110.476C110.356 76.395 110.296 76.32 110.296 76.215V73.02C110.296 72.915 110.356 72.825 110.476 72.825H117.541V72.3H110.446C110.326 72.3 110.266 72.24 110.266 72.105V71.01C110.266 70.89 110.326 70.83 110.446 70.83H113.911V69.945H108.706C108.586 69.945 108.526 69.87 108.526 69.765V68.595C108.526 68.475 108.586 68.385 108.706 68.385ZM131.413 63.075H132.928C133.078 63.075 133.138 63.15 133.138 63.27V76.08C133.138 76.2 133.078 76.26 132.928 76.26H131.413C131.278 76.26 131.218 76.2 131.218 76.08V69.42H129.283C129.133 69.42 129.073 69.345 129.073 69.21V67.92C129.073 67.785 129.133 67.71 129.283 67.71H131.218V63.27C131.218 63.15 131.278 63.075 131.413 63.075ZM129.208 71.4L129.403 72.585C129.418 72.69 129.388 72.735 129.253 72.765C127.918 73.05 126.343 73.23 124.543 73.23H122.518C122.398 73.23 122.338 73.155 122.338 73.035V68.16C122.338 68.04 122.398 67.965 122.518 67.965H126.478V65.85H122.488C122.368 65.85 122.308 65.79 122.308 65.655V64.455C122.308 64.35 122.368 64.275 122.488 64.275H128.188C128.308 64.275 128.368 64.35 128.368 64.455V69.27C128.368 69.39 128.293 69.465 128.173 69.465H124.243V71.64H124.828C125.983 71.64 127.648 71.52 128.953 71.22C129.088 71.205 129.178 71.25 129.208 71.4ZM145.585 67.995H147.49C147.64 67.995 147.7 68.07 147.7 68.205V69.51C147.7 69.63 147.64 69.705 147.49 69.705H145.585V76.08C145.585 76.2 145.525 76.26 145.375 76.26H143.845C143.725 76.26 143.665 76.2 143.665 76.08V63.27C143.665 63.15 143.725 63.075 143.845 63.075H145.375C145.525 63.075 145.585 63.15 145.585 63.27V67.995ZM142.87 72.12L143.035 73.35C143.05 73.455 142.975 73.515 142.84 73.545C141.19 73.875 139.405 73.995 137.08 73.995H134.68C134.545 73.995 134.485 73.92 134.485 73.8V72.555C134.485 72.435 134.545 72.36 134.68 72.36H136.705H137.71V70.35H135.55C135.415 70.35 135.355 70.275 135.355 70.155V64.245C135.355 64.125 135.415 64.05 135.55 64.05H137.05C137.185 64.05 137.245 64.125 137.245 64.245V65.805H140.095V64.245C140.095 64.125 140.155 64.05 140.275 64.05H141.775C141.91 64.05 141.97 64.125 141.97 64.245V70.155C141.97 70.275 141.91 70.35 141.775 70.35H139.615V72.285C140.71 72.225 141.7 72.12 142.645 71.94C142.78 71.925 142.855 72 142.87 72.12ZM140.095 67.35H137.245V68.73H140.095V67.35ZM160.478 67.635H158.678V69.615H160.478C160.613 69.615 160.673 69.69 160.673 69.81V71.1C160.673 71.22 160.613 71.28 160.478 71.28H158.678V76.08C158.678 76.2 158.618 76.26 158.468 76.26H156.938C156.818 76.26 156.758 76.2 156.758 76.08V63.27C156.758 63.15 156.818 63.075 156.938 63.075H158.468C158.618 63.075 158.678 63.15 158.678 63.27V65.97H160.478C160.613 65.97 160.673 66.045 160.673 66.18V67.44C160.673 67.575 160.613 67.635 160.478 67.635ZM155.603 71.07L155.813 72.36C155.828 72.48 155.783 72.525 155.648 72.555C154.328 72.84 152.738 73.02 150.938 73.02H148.718C148.583 73.02 148.523 72.945 148.523 72.825V64.455C148.523 64.35 148.583 64.275 148.703 64.275H150.248C150.383 64.275 150.428 64.35 150.428 64.455V71.31H151.223C152.378 71.31 154.043 71.19 155.363 70.89C155.483 70.86 155.588 70.935 155.603 71.07ZM166.76 70.98C165.2 70.98 164.54 69.945 163.67 69.945C163.19 69.945 162.92 70.245 162.575 70.875C162.53 70.95 162.44 70.965 162.35 70.92L161.075 70.41C161 70.38 160.925 70.32 160.97 70.2C161.48 68.91 162.515 68.175 163.475 68.175C165.035 68.175 165.695 69.21 166.565 69.21C167.045 69.21 167.315 68.91 167.66 68.28C167.705 68.205 167.795 68.19 167.885 68.235L169.16 68.745C169.235 68.775 169.31 68.835 169.265 68.955C168.755 70.245 167.72 70.98 166.76 70.98Z" fill="#5951AA"/>
<defs>
<filter id="filter0_f_1190_6102" x="141.386" y="202.74" width="110.73" height="59.825" filterUnits="userSpaceOnUse" color-interpolation-filters="sRGB">
<feFlood flood-opacity="0" result="BackgroundImageFix"/>
<feBlend mode="normal" in="SourceGraphic" in2="BackgroundImageFix" result="shape"/>
<feGaussianBlur stdDeviation="3.49383" result="effect1_foregroundBlur_1190_6102"/>
</filter>
<filter id="filter1_f_1190_6102" x="158.173" y="157.425" width="77.1651" height="35.282" filterUnits="userSpaceOnUse" color-interpolation-filters="sRGB">
<feFlood flood-opacity="0" result="BackgroundImageFix"/>
<feBlend mode="normal" in="SourceGraphic" in2="BackgroundImageFix" result="shape"/>
<feGaussianBlur stdDeviation="2.56214" result="effect1_foregroundBlur_1190_6102"/>
</filter>
<filter id="filter2_f_1190_6102" x="228.461" y="187.273" width="36.7261" height="54.5372" filterUnits="userSpaceOnUse" color-interpolation-filters="sRGB">
<feFlood flood-opacity="0" result="BackgroundImageFix"/>
<feBlend mode="normal" in="SourceGraphic" in2="BackgroundImageFix" result="shape"/>
<feGaussianBlur stdDeviation="2.56214" result="effect1_foregroundBlur_1190_6102"/>
</filter>
<filter id="filter3_f_1190_6102" x="128.327" y="187.273" width="36.7261" height="54.5372" filterUnits="userSpaceOnUse" color-interpolation-filters="sRGB">
<feFlood flood-opacity="0" result="BackgroundImageFix"/>
<feBlend mode="normal" in="SourceGraphic" in2="BackgroundImageFix" result="shape"/>
<feGaussianBlur stdDeviation="2.56214" result="effect1_foregroundBlur_1190_6102"/>
</filter>
<radialGradient id="paint0_radial_1190_6102" cx="0" cy="0" r="1" gradientUnits="userSpaceOnUse" gradientTransform="translate(196.67 205) rotate(90.1435) scale(61.5344 74.832)">
<stop offset="0.729929" stop-color="#C6C1FF"/>
<stop offset="0.888746" stop-color="#8981FF"/>
</radialGradient>
<radialGradient id="paint1_radial_1190_6102" cx="0" cy="0" r="1" gradientUnits="userSpaceOnUse" gradientTransform="translate(96.6218 28.668) rotate(90) scale(112.018 165.242)">
<stop offset="0.461764" stop-color="#C9C2FF"/>
<stop offset="0.679762" stop-color="#B5ABFF"/>
<stop offset="0.780143" stop-color="#E4E0FF"/>
<stop offset="0.823497" stop-color="#D7D1FF"/>
<stop offset="0.907134" stop-color="#9594FF"/>
</radialGradient>
</defs>
</svg>
