<svg width="68" height="14" viewBox="0 0 68 14" fill="none" xmlns="http://www.w3.org/2000/svg">
<path d="M10.32 2.805H12.225C12.375 2.805 12.435 2.865 12.435 3V4.29C12.435 4.425 12.375 4.5 12.225 4.5H10.32V6.975C10.32 7.095 10.26 7.155 10.11 7.155H8.57996C8.45996 7.155 8.39996 7.095 8.39996 6.975V0.269999C8.39996 0.15 8.45996 0.0749997 8.57996 0.0749997H10.11C10.26 0.0749997 10.32 0.15 10.32 0.269999V2.805ZM7.24496 6.15C6.07496 6.45 4.34996 6.615 2.84996 6.615H0.359962C0.224962 6.615 0.164962 6.54 0.164962 6.42V0.884999C0.164962 0.765 0.224962 0.69 0.344962 0.69H1.87496C2.00996 0.69 2.06996 0.765 2.06996 0.884999V4.95H3.14996C4.27496 4.95 5.78996 4.845 6.98996 4.575C7.10996 4.545 7.19996 4.605 7.22996 4.74L7.40996 5.91C7.43996 6.03 7.39496 6.105 7.24496 6.15ZM2.00996 7.83H10.125C10.26 7.83 10.32 7.89 10.32 8.01V13.065C10.32 13.185 10.26 13.26 10.125 13.26H2.00996C1.85996 13.26 1.79996 13.185 1.79996 13.065V8.01C1.79996 7.89 1.85996 7.83 2.00996 7.83ZM3.71996 11.625H8.39996V9.435H3.71996V11.625ZM23.4121 3.015H25.3172C25.4672 3.015 25.5272 3.09 25.5272 3.21V4.515C25.5272 4.635 25.4672 4.71 25.3172 4.71H23.4121V7.2C23.4121 7.32 23.3521 7.395 23.2021 7.395H21.6721C21.5521 7.395 21.4922 7.32 21.4922 7.2V0.269999C21.4922 0.15 21.5521 0.0749997 21.6721 0.0749997H23.2021C23.3521 0.0749997 23.4121 0.15 23.4121 0.269999V3.015ZM16.4671 7.035C14.2171 7.035 12.7771 5.7 12.7771 3.765C12.7771 1.83 14.2171 0.495 16.4671 0.495C18.7171 0.495 20.1571 1.83 20.1571 3.765C20.1571 5.7 18.7171 7.035 16.4671 7.035ZM16.4671 2.1C15.3421 2.1 14.6521 2.775 14.6521 3.765C14.6521 4.755 15.3421 5.415 16.4671 5.415C17.5921 5.415 18.2821 4.755 18.2821 3.765C18.2821 2.775 17.5921 2.1 16.4671 2.1ZM24.4772 11.895C24.5821 11.97 24.5672 12.105 24.4922 12.18L23.6372 13.26C23.5471 13.35 23.4422 13.335 23.3222 13.26C22.3621 12.585 21.6871 11.79 21.2822 10.995C20.8621 11.805 20.0971 12.615 19.0621 13.335C18.9421 13.425 18.8371 13.425 18.7321 13.35C17.6821 12.63 16.9471 11.805 16.5421 11.04C16.1671 11.79 15.5521 12.525 14.5021 13.335C14.3821 13.44 14.2771 13.425 14.1871 13.335L13.2871 12.3C13.1971 12.21 13.1971 12.075 13.3021 12C14.8021 10.935 15.5971 9.825 15.5971 8.58V8.265C15.5971 8.16 15.6571 8.085 15.7921 8.085H17.2771C17.3971 8.085 17.4571 8.16 17.4571 8.265V8.58C17.4571 9.66 18.0271 10.485 18.8822 11.28C19.7672 10.53 20.3372 9.66 20.3372 8.58V8.22C20.3372 8.115 20.3972 8.04 20.5322 8.04H22.0022C22.1222 8.04 22.1822 8.115 22.1822 8.22V8.58C22.1822 9.75 23.0822 10.89 24.4772 11.895ZM36.5043 4.71H38.4093C38.5593 4.71 38.6193 4.785 38.6193 4.92V6.225C38.6193 6.345 38.5593 6.42 38.4093 6.42H36.5043V13.08C36.5043 13.2 36.4443 13.26 36.2943 13.26H34.7643C34.6443 13.26 34.5843 13.2 34.5843 13.08V0.269999C34.5843 0.15 34.6443 0.0749997 34.7643 0.0749997H36.2943C36.4443 0.0749997 36.5043 0.15 36.5043 0.269999V4.71ZM33.4293 8.19L33.6393 9.45C33.6543 9.57 33.6243 9.6 33.4743 9.645C32.1543 9.93 30.5643 10.08 28.7643 10.08H26.4693C26.3343 10.08 26.2743 10.02 26.2743 9.9V1.605C26.2743 1.485 26.3343 1.41 26.4693 1.41H32.6943C32.8293 1.41 32.8893 1.485 32.8893 1.605V2.88C32.8893 3 32.8293 3.075 32.6943 3.075H28.1793V8.43H29.0493C30.2043 8.43 31.8693 8.295 33.1893 8.01C33.3093 7.98 33.3993 8.04 33.4293 8.19ZM51.3965 4.635H49.5965V6.615H51.3965C51.5315 6.615 51.5915 6.69 51.5915 6.81V8.1C51.5915 8.22 51.5315 8.28 51.3965 8.28H49.5965V13.08C49.5965 13.2 49.5365 13.26 49.3865 13.26H47.8565C47.7365 13.26 47.6765 13.2 47.6765 13.08V0.269999C47.6765 0.15 47.7365 0.0749997 47.8565 0.0749997H49.3865C49.5365 0.0749997 49.5965 0.15 49.5965 0.269999V2.97H51.3965C51.5315 2.97 51.5915 3.045 51.5915 3.18V4.44C51.5915 4.575 51.5315 4.635 51.3965 4.635ZM46.5215 8.07L46.7315 9.36C46.7465 9.48 46.7015 9.525 46.5665 9.555C45.2465 9.84 43.6565 10.02 41.8565 10.02H39.6365C39.5015 10.02 39.4415 9.945 39.4415 9.825V1.455C39.4415 1.35 39.5015 1.275 39.6215 1.275H41.1665C41.3015 1.275 41.3465 1.35 41.3465 1.455V8.31H42.1415C43.2965 8.31 44.9615 8.19 46.2815 7.89C46.4015 7.86 46.5065 7.935 46.5215 8.07ZM56.6996 4.995C56.0096 4.995 55.4846 4.5 55.4846 3.81C55.4846 3.12 56.0096 2.625 56.6996 2.625C57.3896 2.625 57.9146 3.12 57.9146 3.81C57.9146 4.5 57.3896 4.995 56.6996 4.995ZM56.6996 10.725C56.0096 10.725 55.4846 10.23 55.4846 9.54C55.4846 8.85 56.0096 8.355 56.6996 8.355C57.3896 8.355 57.9146 8.85 57.9146 9.54C57.9146 10.23 57.3896 10.725 56.6996 10.725ZM63.0976 12.21C61.1326 12.21 59.7076 11.1 59.1826 9.3C59.1526 9.165 59.2126 9.09 59.3326 9.06L60.8476 8.655C60.9676 8.625 61.0426 8.67 61.0876 8.79C61.4026 9.645 62.0326 10.23 63.0976 10.23C64.2526 10.23 64.9876 9.6 64.9876 8.64C64.9876 7.68 64.1926 7.155 62.9776 7.155H62.5126C62.3926 7.155 62.3176 7.08 62.3176 6.96V5.625C62.3176 5.505 62.3926 5.43 62.5126 5.43H62.9776C63.9976 5.43 64.7026 4.905 64.7026 4.14C64.7026 3.345 64.0126 2.76 63.0526 2.76C62.1076 2.76 61.4926 3.345 61.1776 4.2C61.1326 4.32 61.0576 4.365 60.9376 4.335L59.4226 3.93C59.3026 3.9 59.2426 3.825 59.2726 3.69C59.7976 1.89 61.2076 0.78 63.0976 0.78C65.2276 0.78 66.8026 2.04 66.8026 3.765C66.8026 4.845 66.1576 5.745 65.0776 6.24C66.3226 6.66 67.0876 7.59 67.0876 8.925C67.0876 10.89 65.4676 12.21 63.0976 12.21Z" fill="#4A4D66"/>
</svg>
