<svg width="187" height="28" viewBox="0 0 187 28" fill="none" xmlns="http://www.w3.org/2000/svg">
<path d="M8.43262 1.52C8.57262 1.46 8.66262 1.43 8.70262 1.43C8.75262 1.43 8.82762 1.46 8.92762 1.52C9.04762 1.59 9.13262 1.745 9.18262 1.985C9.21262 2.225 9.22762 2.82 9.22762 3.77C9.22762 4.57 9.23262 5.04 9.24262 5.18C9.26262 5.4 9.28762 5.525 9.31762 5.555C9.36762 5.605 9.61262 5.63 10.0526 5.63C10.4826 5.65 10.7626 5.67 10.8926 5.69C11.0726 5.72 11.1976 5.785 11.2676 5.885C11.3476 5.995 11.3876 6.105 11.3876 6.215C11.3876 6.335 11.3476 6.435 11.2676 6.515C11.0976 6.675 10.7426 6.755 10.2026 6.755C9.89262 6.755 9.64762 6.765 9.46762 6.785C9.33762 6.815 9.25762 6.865 9.22762 6.935C9.18762 7.025 9.16762 7.75 9.16762 9.11L9.15262 9.98C9.15262 10.46 9.14762 10.75 9.13762 10.85C9.12762 11.1 9.09762 11.255 9.04762 11.315C8.94762 11.475 8.80262 11.555 8.61262 11.555C8.57262 11.555 8.50262 11.545 8.40262 11.525C8.37262 11.525 8.34762 11.52 8.32762 11.51C8.14762 11.48 8.05262 11.3 8.04262 10.97C8.02262 10.73 8.01262 10.27 8.01262 9.59L8.02762 7.625C8.02762 7.155 8.03262 6.845 8.04262 6.695V6.29C8.06262 3.91 8.08762 2.565 8.11762 2.255C8.14762 1.865 8.24762 1.625 8.41762 1.535C8.42762 1.535 8.43262 1.53 8.43262 1.52ZM0.55762 5.525C0.55762 4.435 0.56262 3.81 0.57262 3.65C0.58262 3.42 0.61262 3.265 0.66262 3.185C0.73262 3.095 0.82762 3.035 0.94762 3.005C1.02762 2.975 1.85262 2.95 3.42262 2.93C3.80262 2.92 4.25762 2.915 4.78762 2.915C5.15762 2.915 5.37762 2.92 5.44762 2.93C5.65762 2.94 5.80762 2.97 5.89762 3.02C6.00762 3.1 6.06262 3.21 6.06262 3.35C6.04262 3.48 6.01762 3.57 5.98762 3.62C5.95762 3.68 5.88262 3.75 5.76262 3.83C5.68262 3.88 5.54262 3.91 5.34262 3.92C5.25262 3.93 4.98762 3.935 4.54762 3.935L3.76762 3.95C2.56762 3.96 1.90262 3.995 1.77262 4.055L1.60762 4.145L1.63762 5.18C1.65762 6.04 1.66762 6.695 1.66762 7.145C1.66762 7.765 1.69762 8.105 1.75762 8.165C1.80762 8.215 1.91262 8.24 2.07262 8.24C2.18262 8.25 2.30762 8.255 2.44762 8.255C2.59762 8.245 2.74762 8.24 2.89762 8.24C2.97762 8.23 3.10262 8.225 3.27262 8.225C4.20262 8.205 4.80262 8.175 5.07262 8.135C5.39262 8.095 5.66762 8.07 5.89762 8.06C6.12762 8.06 6.26262 8.065 6.30262 8.075C6.35262 8.085 6.41262 8.13 6.48262 8.21C6.57262 8.31 6.61762 8.42 6.61762 8.54C6.61762 8.75 6.51762 8.91 6.31762 9.02C6.17762 9.1 5.54262 9.195 4.41262 9.305C3.99262 9.345 3.58762 9.365 3.19762 9.365C3.01762 9.365 2.66762 9.355 2.14762 9.335C1.62762 9.325 1.29262 9.295 1.14262 9.245C0.98262 9.215 0.85762 9.14 0.76762 9.02C0.62762 8.82 0.55762 7.655 0.55762 5.525ZM19.3166 1.115C19.4266 1.035 19.5166 0.994999 19.5866 0.994999C19.6766 0.994999 19.7766 1.05 19.8866 1.16C19.9566 1.23 20.0016 1.31 20.0216 1.4C20.0316 1.43 20.0366 1.54 20.0366 1.73L20.0516 2.06L20.0666 2.795L20.7416 2.825L21.0566 2.84C21.2166 2.84 21.3166 2.845 21.3566 2.855C21.4366 2.865 21.5066 2.905 21.5666 2.975C21.6666 3.075 21.7166 3.195 21.7166 3.335C21.7166 3.405 21.7016 3.485 21.6716 3.575C21.6116 3.715 21.3016 3.81 20.7416 3.86C20.3616 3.87 20.1466 3.9 20.0966 3.95C20.0566 4 20.0316 4.14 20.0216 4.37C20.0116 4.43 20.0066 4.505 20.0066 4.595C20.0066 4.715 20.0266 4.79 20.0666 4.82C20.1266 4.88 20.3616 4.915 20.7716 4.925C21.1916 4.955 21.4516 5 21.5516 5.06C21.6616 5.12 21.7166 5.255 21.7166 5.465C21.7166 5.655 21.6716 5.775 21.5816 5.825C21.4516 5.885 21.1816 5.92 20.7716 5.93C20.3616 5.94 20.1166 5.98 20.0366 6.05C19.9666 6.12 19.9316 6.33 19.9316 6.68C19.9316 7.01 19.8916 7.23 19.8116 7.34C19.7416 7.44 19.6366 7.49 19.4966 7.49C19.2166 7.49 19.0266 7.38 18.9266 7.16C18.8766 7.08 18.8516 6.885 18.8516 6.575L18.8966 4.82L18.9266 3.86C18.9766 2.31 19.0216 1.485 19.0616 1.385C19.1116 1.275 19.1966 1.185 19.3166 1.115ZM11.6816 4.295C11.6816 3.735 11.7166 3.365 11.7866 3.185C11.9566 2.745 12.2066 2.38 12.5366 2.09C12.6866 1.96 12.8816 1.835 13.1216 1.715C13.4016 1.565 13.5966 1.485 13.7066 1.475C13.7466 1.465 13.8216 1.46 13.9316 1.46C14.1416 1.46 14.4016 1.49 14.7116 1.55C15.0716 1.61 15.3566 1.685 15.5666 1.775C15.7666 1.885 15.9416 2.02 16.0916 2.18C16.2416 2.36 16.3766 2.58 16.4966 2.84C16.6366 3.13 16.7266 3.365 16.7666 3.545C16.7966 3.675 16.8116 3.83 16.8116 4.01C16.8116 4.18 16.7966 4.37 16.7666 4.58C16.7066 4.99 16.5966 5.34 16.4366 5.63C16.2466 6.03 15.8466 6.345 15.2366 6.575C15.0566 6.645 14.7216 6.68 14.2316 6.68C13.9516 6.68 13.7216 6.655 13.5416 6.605C13.1716 6.495 12.8266 6.325 12.5066 6.095C12.1766 5.855 11.9416 5.605 11.8016 5.345C11.7516 5.235 11.7216 5.125 11.7116 5.015C11.6916 4.875 11.6816 4.635 11.6816 4.295ZM12.7466 4.34C12.7466 4.58 12.7766 4.76 12.8366 4.88C13.0966 5.36 13.6166 5.605 14.3966 5.615C14.6566 5.615 14.8466 5.595 14.9666 5.555C15.0866 5.505 15.2066 5.415 15.3266 5.285C15.4866 5.115 15.5866 4.965 15.6266 4.835C15.6666 4.715 15.6866 4.48 15.6866 4.13C15.6866 3.87 15.6766 3.68 15.6566 3.56C15.6366 3.46 15.5916 3.345 15.5216 3.215C15.3516 2.905 15.0966 2.67 14.7566 2.51C14.5766 2.42 14.4166 2.375 14.2766 2.375C14.0266 2.375 13.7616 2.485 13.4816 2.705C13.1916 2.935 12.9866 3.19 12.8666 3.47C12.7866 3.66 12.7466 3.95 12.7466 4.34ZM13.3166 10.1C13.3166 9.66 13.3766 9.315 13.4966 9.065C13.5966 8.875 13.7316 8.69 13.9016 8.51C14.0616 8.33 14.2366 8.165 14.4266 8.015C14.6066 7.885 14.8466 7.77 15.1466 7.67C15.4066 7.58 15.7066 7.51 16.0466 7.46C16.0966 7.45 16.2266 7.445 16.4366 7.445C16.7066 7.445 16.9366 7.45 17.1266 7.46C17.6666 7.48 18.0066 7.505 18.1466 7.535C18.3466 7.585 18.6216 7.695 18.9716 7.865C19.4916 8.105 19.8466 8.435 20.0366 8.855C20.1266 9.055 20.1766 9.185 20.1866 9.245C20.2066 9.365 20.2166 9.52 20.2166 9.71C20.2166 9.99 20.1966 10.195 20.1566 10.325C20.1166 10.455 20.0166 10.64 19.8566 10.88C19.7166 11.06 19.6366 11.16 19.6166 11.18C19.5466 11.25 19.4216 11.34 19.2416 11.45C18.9616 11.63 18.5866 11.78 18.1166 11.9C17.9066 11.96 17.6016 11.99 17.2016 11.99C16.5216 11.99 16.0266 11.95 15.7166 11.87L14.9816 11.705C14.7816 11.675 14.5616 11.595 14.3216 11.465C14.0716 11.335 13.8866 11.21 13.7666 11.09C13.6566 11 13.5466 10.84 13.4366 10.61C13.3866 10.5 13.3516 10.385 13.3316 10.265L13.3166 10.1ZM14.4416 9.98C14.4416 10.21 14.5766 10.395 14.8466 10.535C15.0266 10.615 15.4166 10.695 16.0166 10.775C16.4966 10.835 16.9066 10.865 17.2466 10.865C17.8366 10.865 18.2916 10.735 18.6116 10.475C18.7916 10.335 18.9216 10.155 19.0016 9.935C19.0216 9.875 19.0316 9.785 19.0316 9.665C19.0316 9.355 18.9166 9.105 18.6866 8.915C18.4566 8.715 18.1066 8.56 17.6366 8.45C17.3566 8.4 17.0866 8.375 16.8266 8.375C16.2266 8.375 15.7416 8.48 15.3716 8.69C15.1116 8.83 14.8816 9.05 14.6816 9.35C14.5216 9.57 14.4416 9.78 14.4416 9.98ZM23.4149 1.34C23.4749 1.28 23.5849 1.245 23.7449 1.235C23.8549 1.225 24.3099 1.22 25.1099 1.22H26.6849L26.8199 1.37C26.9099 1.46 26.9549 1.57 26.9549 1.7C26.9549 1.82 26.8999 1.945 26.7899 2.075L26.6249 2.255H25.2149C24.6149 2.255 24.2049 2.245 23.9849 2.225C23.8249 2.215 23.6949 2.18 23.5949 2.12C23.4649 2.06 23.3849 2 23.3549 1.94C23.3149 1.89 23.2949 1.79 23.2949 1.64C23.2949 1.52 23.3349 1.42 23.4149 1.34ZM22.0499 3.485C22.0299 3.425 22.0199 3.385 22.0199 3.365C22.0199 3.325 22.0399 3.265 22.0799 3.185C22.1599 3.035 22.2749 2.935 22.4249 2.885C22.5649 2.835 22.8899 2.805 23.3999 2.795C24.0199 2.765 24.6599 2.75 25.3199 2.75C25.6899 2.75 26.2749 2.76 27.0749 2.78C27.5449 2.79 27.8449 2.805 27.9749 2.825C28.0749 2.835 28.1849 2.87 28.3049 2.93C28.4949 3.05 28.5899 3.19 28.5899 3.35C28.5899 3.43 28.5649 3.52 28.5149 3.62C28.4549 3.72 28.2649 3.78 27.9449 3.8C27.6149 3.83 26.7249 3.845 25.2749 3.845C23.8449 3.845 23.0349 3.84 22.8449 3.83C22.5549 3.81 22.3649 3.78 22.2749 3.74C22.1549 3.66 22.0799 3.575 22.0499 3.485ZM22.6499 6.365C22.6699 6.085 22.6949 5.895 22.7249 5.795C22.7449 5.705 22.8299 5.52 22.9799 5.24C23.1199 5.01 23.3499 4.77 23.6699 4.52C23.9699 4.29 24.2599 4.135 24.5399 4.055C24.6399 4.035 24.7999 4.025 25.0199 4.025C25.6699 4.025 26.1949 4.125 26.5949 4.325C27.1349 4.605 27.4899 5.075 27.6599 5.735C27.6999 5.905 27.7199 6.095 27.7199 6.305C27.7199 6.755 27.5949 7.165 27.3449 7.535C27.2449 7.685 27.0899 7.835 26.8799 7.985C26.6999 8.125 26.5049 8.235 26.2949 8.315C26.1149 8.375 25.8699 8.405 25.5599 8.405C25.0399 8.405 24.6449 8.365 24.3749 8.285C23.5749 8.025 23.0549 7.66 22.8149 7.19C22.7449 7.06 22.6999 6.945 22.6799 6.845C22.6599 6.725 22.6499 6.565 22.6499 6.365ZM23.7449 6.395C23.7449 6.555 23.7799 6.68 23.8499 6.77C23.9899 6.98 24.3399 7.145 24.8999 7.265C25.0399 7.295 25.1749 7.31 25.3049 7.31C25.3849 7.31 25.4949 7.3 25.6349 7.28C26.2449 7.14 26.5499 6.815 26.5499 6.305C26.5499 6.125 26.4999 5.95 26.3999 5.78C26.2299 5.5 25.9949 5.31 25.6949 5.21C25.5149 5.15 25.3349 5.12 25.1549 5.12C24.9649 5.12 24.7649 5.16 24.5549 5.24C24.1849 5.4 23.9399 5.66 23.8199 6.02C23.7699 6.2 23.7449 6.325 23.7449 6.395ZM24.0149 10.205C24.0149 9.605 24.0299 9.24 24.0599 9.11C24.0899 8.98 24.1749 8.875 24.3149 8.795C24.3549 8.775 24.3999 8.765 24.4499 8.765C24.5199 8.765 24.5999 8.78 24.6899 8.81C24.8599 8.87 24.9649 8.95 25.0049 9.05C25.0349 9.11 25.0649 9.39 25.0949 9.89C25.1049 10.37 25.1249 10.635 25.1549 10.685C25.1749 10.715 25.5399 10.73 26.2499 10.73L27.8249 10.715L30.4499 10.7L30.5699 10.82C30.6599 10.91 30.7099 11.04 30.7199 11.21V11.27C30.7199 11.42 30.6849 11.53 30.6149 11.6C30.5549 11.67 30.4549 11.71 30.3149 11.72C30.2549 11.73 30.0549 11.735 29.7149 11.735L29.1149 11.75C28.7949 11.76 28.2999 11.765 27.6299 11.765C26.9499 11.765 26.4299 11.76 26.0699 11.75L24.3749 11.705L24.1949 11.525L24.0149 11.33V10.205ZM29.4599 7.19C29.4899 6.45 29.5049 5.665 29.5049 4.835C29.5149 3.055 29.5749 2.015 29.6849 1.715C29.7449 1.545 29.8799 1.43 30.0899 1.37C30.1399 1.35 30.2199 1.35 30.3299 1.37C30.4199 1.38 30.4749 1.395 30.4949 1.415L30.5849 1.565C30.6149 1.595 30.6399 1.705 30.6599 1.895C30.6699 2.015 30.6749 2.405 30.6749 3.065V3.32C30.6749 3.93 30.6999 4.295 30.7499 4.415C30.7899 4.515 30.9399 4.555 31.1999 4.535C31.2499 4.535 31.2849 4.53 31.3049 4.52C31.3849 4.51 31.4999 4.505 31.6499 4.505C32.3299 4.505 32.6699 4.715 32.6699 5.135C32.6699 5.295 32.6349 5.405 32.5649 5.465C32.4249 5.605 32.0149 5.66 31.3349 5.63C31.2849 5.63 31.2449 5.625 31.2149 5.615C30.8749 5.605 30.6799 5.655 30.6299 5.765C30.5699 5.865 30.5399 6.26 30.5399 6.95V7.19C30.5399 7.85 30.5349 8.235 30.5249 8.345C30.5149 8.475 30.4799 8.6 30.4199 8.72C30.3299 8.87 30.2049 8.945 30.0449 8.945C29.7649 8.945 29.5849 8.805 29.5049 8.525C29.4649 8.395 29.4449 8.15 29.4449 7.79C29.4449 7.54 29.4499 7.34 29.4599 7.19ZM44.3434 1.16C44.3834 1.14 44.4484 1.13 44.5384 1.13C44.6284 1.13 44.6984 1.135 44.7484 1.145C44.8884 1.175 44.9834 1.275 45.0334 1.445C45.0534 1.585 45.0634 1.76 45.0634 1.97L45.0484 2.585C45.0284 3.025 45.0284 3.305 45.0484 3.425C45.0484 3.555 45.0684 3.64 45.1084 3.68C45.1684 3.74 45.4284 3.77 45.8884 3.77C46.3584 3.77 46.6384 3.79 46.7284 3.83C46.8884 3.89 46.9684 4.03 46.9684 4.25C46.9684 4.53 46.8984 4.7 46.7584 4.76C46.6384 4.81 46.3584 4.835 45.9184 4.835C45.5284 4.835 45.3084 4.84 45.2584 4.85C45.1684 4.87 45.1084 4.905 45.0784 4.955C45.0184 5.045 44.9884 5.475 44.9884 6.245V7.4L44.8234 7.565C44.6934 7.675 44.5734 7.73 44.4634 7.73C44.3534 7.73 44.2284 7.675 44.0884 7.565L43.8934 7.4L43.9084 5.3C43.9384 2.79 44.0134 1.465 44.1334 1.325C44.2234 1.235 44.2934 1.18 44.3434 1.16ZM36.5734 4.4C36.5934 3.85 36.6284 3.5 36.6784 3.35C36.8284 2.95 37.0434 2.615 37.3234 2.345C37.3934 2.265 37.5234 2.155 37.7134 2.015C37.8834 1.895 37.9834 1.835 38.0134 1.835C38.0334 1.835 38.1034 1.81 38.2234 1.76C38.3634 1.69 38.4584 1.65 38.5084 1.64C38.5384 1.63 38.6184 1.625 38.7484 1.625C38.9484 1.625 39.1184 1.63 39.2584 1.64C39.9384 1.67 40.4484 1.81 40.7884 2.06C41.1384 2.32 41.4334 2.755 41.6734 3.365C41.7534 3.555 41.7934 3.78 41.7934 4.04C41.7934 4.21 41.7784 4.385 41.7484 4.565C41.6784 5.075 41.5434 5.48 41.3434 5.78C41.1334 6.1 40.8334 6.36 40.4434 6.56C40.0634 6.75 39.6484 6.845 39.1984 6.845C38.6584 6.845 38.1584 6.72 37.6984 6.47C37.2484 6.22 36.9234 5.9 36.7234 5.51C36.6634 5.39 36.6234 5.26 36.6034 5.12C36.5834 4.98 36.5734 4.74 36.5734 4.4ZM37.6534 4.43C37.6534 5.33 38.2034 5.78 39.3034 5.78C39.6634 5.78 39.9534 5.695 40.1734 5.525C40.3834 5.355 40.5334 5.095 40.6234 4.745C40.6734 4.515 40.6984 4.32 40.6984 4.16C40.6984 3.93 40.6634 3.725 40.5934 3.545C40.4634 3.185 40.2234 2.915 39.8734 2.735C39.6334 2.615 39.4084 2.555 39.1984 2.555C39.0084 2.555 38.8184 2.61 38.6284 2.72C38.2684 2.93 38.0184 3.165 37.8784 3.425C37.7284 3.675 37.6534 4.01 37.6534 4.43ZM37.9234 8.54C37.9234 8.47 37.9584 8.385 38.0284 8.285C38.0884 8.195 38.1534 8.13 38.2234 8.09C38.3134 8.05 38.6684 8.02 39.2884 8C39.5884 7.99 40.2434 7.985 41.2534 7.985H42.4234C43.6734 8.005 44.3884 8.025 44.5684 8.045C44.7884 8.095 44.9334 8.205 45.0034 8.375V8.39C45.0534 8.51 45.0784 8.91 45.0784 9.59V10.055C45.0684 10.855 45.0434 11.36 45.0034 11.57C44.9734 11.74 44.8734 11.835 44.7034 11.855C44.6634 11.865 44.6084 11.87 44.5384 11.87C44.3384 11.87 44.1834 11.795 44.0734 11.645C44.0134 11.575 43.9784 11.475 43.9684 11.345C43.9584 11.255 43.9534 10.895 43.9534 10.265C43.9534 9.675 43.9484 9.335 43.9384 9.245C43.9184 9.105 43.8934 9.03 43.8634 9.02C43.7834 9 42.8584 8.985 41.0884 8.975C39.2884 8.955 38.3534 8.935 38.2834 8.915C38.2134 8.885 38.1334 8.83 38.0434 8.75C37.9634 8.67 37.9234 8.6 37.9234 8.54ZM55.4383 1.595C55.5683 1.465 55.7033 1.4 55.8433 1.4C55.9833 1.41 56.0883 1.44 56.1583 1.49C56.2383 1.55 56.2983 1.66 56.3383 1.82C56.3983 2.01 56.4283 3.585 56.4283 6.545C56.4283 9.505 56.3983 11.055 56.3383 11.195C56.2683 11.355 56.1683 11.465 56.0383 11.525C55.9783 11.555 55.9033 11.57 55.8133 11.57C55.7433 11.57 55.6633 11.555 55.5733 11.525L55.5133 11.495C55.3733 11.445 55.2983 11.255 55.2883 10.925C55.2683 10.485 55.2583 9.32 55.2583 7.43V1.775L55.4383 1.595ZM47.2633 3.17C47.2633 3.05 47.2933 2.95 47.3533 2.87C47.4233 2.78 47.5133 2.72 47.6233 2.69C47.7233 2.67 48.5333 2.66 50.0533 2.66C51.6033 2.67 52.4433 2.685 52.5733 2.705C52.6833 2.715 52.7833 2.77 52.8733 2.87C52.9233 2.93 52.9533 2.99 52.9633 3.05C52.9733 3.07 52.9783 3.115 52.9783 3.185C52.9783 3.575 52.8883 3.97 52.7083 4.37C52.6083 4.6 52.3883 5.05 52.0483 5.72C51.7683 6.26 51.5333 6.685 51.3433 6.995C51.3033 7.055 51.1533 7.26 50.8933 7.61L50.5633 8.045C50.2333 8.495 49.9833 8.82 49.8133 9.02L49.4083 9.455C49.0583 9.845 48.7833 10.05 48.5833 10.07L48.4183 10.085C48.0883 10.085 47.8933 9.96 47.8333 9.71L47.8183 9.62C47.8183 9.54 47.8533 9.44 47.9233 9.32C48.0233 9.17 48.2333 8.935 48.5533 8.615C48.9933 8.155 49.2733 7.855 49.3933 7.715C49.5233 7.545 49.6183 7.43 49.6783 7.37C49.7183 7.34 49.9933 6.955 50.5033 6.215C50.6533 5.985 50.8233 5.67 51.0133 5.27C51.2333 4.82 51.3983 4.435 51.5083 4.115V4.1C51.5883 3.89 51.5933 3.765 51.5233 3.725C51.4533 3.695 51.1433 3.68 50.5933 3.68H50.5483C49.9583 3.68 49.2883 3.665 48.5383 3.635C48.1483 3.625 47.8583 3.605 47.6683 3.575C47.5583 3.565 47.4683 3.525 47.3983 3.455C47.3083 3.375 47.2633 3.28 47.2633 3.17ZM66.5171 1.415C66.5571 1.405 66.6121 1.4 66.6821 1.4C66.7921 1.4 66.8871 1.42 66.9671 1.46C67.1071 1.54 67.1921 1.635 67.2221 1.745C67.2421 1.825 67.2521 2.145 67.2521 2.705V3.44L67.2371 4.82C67.2371 5.01 67.2371 5.155 67.2371 5.255C67.2471 5.345 67.2521 5.41 67.2521 5.45V5.915H67.9271C68.2871 5.915 68.5571 5.94 68.7371 5.99C68.9071 6.04 69.0321 6.125 69.1121 6.245C69.1621 6.315 69.1871 6.41 69.1871 6.53C69.1871 6.62 69.1621 6.705 69.1121 6.785C68.9921 6.985 68.6821 7.06 68.1821 7.01C68.0921 7 67.9721 6.995 67.8221 6.995C67.5121 6.995 67.3221 7.045 67.2521 7.145C67.2221 7.185 67.2071 7.88 67.2071 9.23V11.24L67.0571 11.42C66.9471 11.53 66.8171 11.585 66.6671 11.585C66.5071 11.585 66.3921 11.565 66.3221 11.525C66.2321 11.465 66.1671 11.395 66.1271 11.315C66.0671 11.215 66.0371 9.83 66.0371 7.16C66.0371 4.54 66.0521 2.97 66.0821 2.45C66.1221 2.06 66.1671 1.795 66.2171 1.655C66.2571 1.525 66.3571 1.445 66.5171 1.415ZM58.0121 9.86C58.0021 9.83 57.9971 9.785 57.9971 9.725C57.9971 9.635 58.0121 9.555 58.0421 9.485C58.1021 9.365 58.2121 9.285 58.3721 9.245C58.5721 9.205 58.9421 9.18 59.4821 9.17C60.2121 9.14 60.5921 9.105 60.6221 9.065C60.6721 9.015 60.6971 8.74 60.6971 8.24V7.475L60.4421 7.355C59.7721 7.075 59.2871 6.745 58.9871 6.365C58.6771 5.995 58.5221 5.51 58.5221 4.91C58.5221 4.03 58.8221 3.29 59.4221 2.69C59.6121 2.5 59.7671 2.365 59.8871 2.285C60.0271 2.185 60.1971 2.1 60.3971 2.03C60.5371 1.96 60.8021 1.925 61.1921 1.925C61.5321 1.925 61.8521 1.95 62.1521 2C63.0221 2.19 63.6371 2.67 63.9971 3.44C64.1971 3.83 64.2971 4.265 64.2971 4.745C64.2971 5.485 64.0871 6.095 63.6671 6.575C63.4871 6.805 63.2421 7 62.9321 7.16C62.6121 7.33 62.3471 7.415 62.1371 7.415C61.9971 7.415 61.9121 7.46 61.8821 7.55C61.8521 7.63 61.8271 7.88 61.8071 8.3L61.7771 9.05L62.0921 9.095L62.6171 9.11L63.6821 9.095L64.5521 9.08C64.8521 9.08 65.0421 9.09 65.1221 9.11C65.2221 9.14 65.3171 9.2 65.4071 9.29C65.4971 9.38 65.5421 9.48 65.5421 9.59C65.5421 9.78 65.4421 9.92 65.2421 10.01C65.1821 10.04 64.9521 10.065 64.5521 10.085C63.8121 10.115 62.8521 10.135 61.6721 10.145L59.6321 10.16C58.7121 10.16 58.2271 10.145 58.1771 10.115C58.0971 10.085 58.0421 10 58.0121 9.86ZM59.7071 4.895C59.7071 5.235 59.7571 5.49 59.8571 5.66C59.9571 5.86 60.1771 6.045 60.5171 6.215C60.7971 6.355 61.0171 6.44 61.1771 6.47C61.2971 6.49 61.3821 6.5 61.4321 6.5C61.5021 6.5 61.5971 6.49 61.7171 6.47C62.1371 6.4 62.4771 6.22 62.7371 5.93C63.0171 5.65 63.1571 5.295 63.1571 4.865C63.1571 4.645 63.1221 4.425 63.0521 4.205C62.8821 3.605 62.5371 3.225 62.0171 3.065C61.8071 2.995 61.5971 2.96 61.3871 2.96C60.9371 2.96 60.5471 3.14 60.2171 3.5C60.0271 3.7 59.9021 3.885 59.8421 4.055C59.7521 4.245 59.7071 4.525 59.7071 4.895ZM74.8922 1.1C74.9322 1.06 75.1172 1.03 75.4472 1.01L78.1172 1.025L79.4822 1.04C80.2522 1.04 80.7072 1.045 80.8472 1.055C81.1472 1.075 81.3322 1.11 81.4022 1.16C81.5622 1.27 81.6472 1.405 81.6572 1.565C81.6672 1.615 81.6722 1.785 81.6722 2.075C81.6722 2.465 81.6672 2.8 81.6572 3.08C81.6472 4.11 81.6072 4.68 81.5372 4.79C81.4772 4.94 81.3522 5.03 81.1622 5.06C80.9922 5.1 80.5622 5.12 79.8722 5.12C79.0622 5.12 78.6372 5.14 78.5972 5.18C78.5472 5.23 78.5222 5.395 78.5222 5.675C78.5222 5.865 78.5322 5.99 78.5522 6.05C78.5722 6.1 78.6072 6.13 78.6572 6.14C78.7572 6.16 79.5072 6.185 80.9072 6.215L83.0372 6.26L83.1722 6.425C83.2622 6.525 83.3072 6.665 83.3072 6.845C83.3072 6.935 83.2972 7.01 83.2772 7.07C83.2572 7.13 83.2122 7.18 83.1422 7.22L82.9772 7.34L78.3422 7.31C75.2422 7.28 73.6372 7.245 73.5272 7.205C73.4072 7.165 73.3272 7.085 73.2872 6.965C73.2672 6.865 73.2572 6.795 73.2572 6.755C73.2572 6.705 73.2672 6.64 73.2872 6.56C73.3372 6.42 73.4022 6.33 73.4822 6.29C73.5622 6.25 74.2122 6.215 75.4322 6.185C76.6422 6.175 77.2572 6.15 77.2772 6.11C77.3072 6.06 77.3322 5.92 77.3522 5.69C77.3522 5.51 77.3422 5.37 77.3222 5.27L77.2472 5.12L76.2722 5.09C75.5722 5.06 75.1972 5.04 75.1472 5.03C75.0872 5.02 75.0072 4.95 74.9072 4.82C74.8572 4.75 74.8222 4.625 74.8022 4.445C74.7722 4.135 74.7522 3.675 74.7422 3.065L74.7272 2.09L74.7422 1.55C74.7622 1.35 74.8122 1.2 74.8922 1.1ZM74.5922 8.75C74.5722 8.69 74.5622 8.64 74.5622 8.6C74.5622 8.55 74.5722 8.485 74.5922 8.405C74.6322 8.275 74.7122 8.175 74.8322 8.105C74.9122 8.055 75.1072 8.025 75.4172 8.015C75.5172 8.005 75.8122 8 76.3022 8C76.9922 8 77.5772 8.005 78.0572 8.015L79.3472 8.03C80.0572 8.03 80.4872 8.035 80.6372 8.045C80.9872 8.055 81.2022 8.085 81.2822 8.135C81.5322 8.255 81.6572 8.47 81.6572 8.78C81.6572 8.99 81.6422 9.405 81.6122 10.025C81.5522 10.885 81.5022 11.38 81.4622 11.51C81.3922 11.82 81.2272 11.975 80.9672 11.975C80.8172 11.975 80.6822 11.91 80.5622 11.78L80.3972 11.585L80.4272 10.415L80.4422 9.695C80.4422 9.365 80.4272 9.195 80.3972 9.185C80.3572 9.135 79.4572 9.105 77.6972 9.095C76.3172 9.085 75.4672 9.06 75.1472 9.02C74.8872 8.99 74.7022 8.9 74.5922 8.75ZM75.8222 2.36C75.8122 2.47 75.8172 2.8 75.8372 3.35L75.8822 4.07L80.4422 4.085L80.4722 3.26C80.4822 2.71 80.5072 2.41 80.5472 2.36C80.5672 2.31 80.5622 2.28 80.5322 2.27C80.4422 2.24 80.3572 2.22 80.2772 2.21L79.7522 2.165L76.7822 2.03C76.4622 2.02 76.2122 2.025 76.0322 2.045C75.9322 2.055 75.8722 2.08 75.8522 2.12C75.8322 2.16 75.8222 2.24 75.8222 2.36ZM88.4331 1.97C88.5331 1.87 88.6581 1.82 88.8081 1.82C89.1181 1.82 89.2831 1.94 89.3031 2.18C89.3031 2.41 89.2931 2.845 89.2731 3.485C89.2731 3.575 89.2881 3.635 89.3181 3.665C89.3481 3.705 89.4331 3.765 89.5731 3.845C89.8931 4.015 90.5581 4.515 91.5681 5.345C91.7781 5.515 92.1031 5.765 92.5431 6.095C93.1931 6.565 93.5181 6.915 93.5181 7.145C93.5181 7.235 93.4531 7.345 93.3231 7.475C93.2031 7.595 93.0831 7.655 92.9631 7.655C92.8231 7.655 92.6381 7.555 92.4081 7.355L91.7931 6.86L90.4581 5.87C90.3481 5.79 90.2381 5.71 90.1281 5.63C90.0181 5.55 89.9131 5.47 89.8131 5.39C89.5031 5.15 89.3381 5.03 89.3181 5.03C89.2081 4.94 89.0831 4.855 88.9431 4.775L88.7331 4.64L88.1631 5.195L87.8931 5.465L87.6681 5.675L87.5781 5.765L87.5181 5.81L87.3831 5.945L87.2181 6.095C87.0481 6.245 86.7481 6.525 86.3181 6.935C86.2281 7.005 86.1531 7.08 86.0931 7.16L85.6131 7.595C85.5031 7.675 85.3831 7.715 85.2531 7.715C85.1231 7.715 85.0181 7.67 84.9381 7.58C84.8181 7.46 84.7581 7.33 84.7581 7.19C84.7581 7.11 84.7681 7.05 84.7881 7.01C84.8581 6.82 85.0731 6.57 85.4331 6.26C85.7831 5.98 86.2681 5.53 86.8881 4.91C87.4381 4.37 87.7981 3.975 87.9681 3.725C88.1081 3.495 88.1931 3.19 88.2231 2.81C88.2331 2.56 88.2531 2.365 88.2831 2.225C88.2931 2.155 88.3431 2.07 88.4331 1.97ZM83.9031 10.745C83.9231 10.485 84.0331 10.325 84.2331 10.265C84.3631 10.225 85.0481 10.185 86.2881 10.145C87.5581 10.095 88.1981 10.05 88.2081 10.01C88.2281 9.95 88.2381 9.56 88.2381 8.84C88.2581 8.22 88.2781 7.83 88.2981 7.67C88.3281 7.47 88.3931 7.305 88.4931 7.175C88.5831 7.065 88.6881 7 88.8081 6.98C88.9281 6.98 89.0331 7.03 89.1231 7.13C89.2031 7.21 89.2581 7.365 89.2881 7.595L89.3781 9.215C89.4081 9.685 89.4431 9.94 89.4831 9.98C89.5231 10.02 89.9731 10.04 90.8331 10.04H91.4481C92.4181 10.04 93.0731 10.05 93.4131 10.07C93.6831 10.1 93.8681 10.18 93.9681 10.31C94.0381 10.41 94.0731 10.52 94.0731 10.64C94.0731 10.8 94.0131 10.925 93.8931 11.015C93.8131 11.065 93.6681 11.1 93.4581 11.12C93.3181 11.13 93.1381 11.13 92.9181 11.12C92.6981 11.12 92.4631 11.12 92.2131 11.12C92.0931 11.11 91.8881 11.105 91.5981 11.105H90.6831C89.3831 11.105 88.2781 11.11 87.3681 11.12C86.8981 11.13 86.3031 11.135 85.5831 11.135C84.7031 11.135 84.2031 11.12 84.0831 11.09C83.9631 11 83.9031 10.885 83.9031 10.745ZM102.421 1.535C102.511 1.435 102.661 1.385 102.871 1.385C103.061 1.385 103.171 1.4 103.201 1.43C103.291 1.52 103.346 2.185 103.366 3.425C103.376 3.495 103.381 4 103.381 4.94L103.396 6.44C103.406 7.39 103.411 8.505 103.411 9.785C103.411 10.785 103.401 11.305 103.381 11.345C103.311 11.555 103.091 11.635 102.721 11.585L102.451 11.51C102.421 11.5 102.386 11.45 102.346 11.36C102.306 11.24 102.286 9.595 102.286 6.425V1.685L102.421 1.535ZM94.5312 7.58L94.5162 6.575C94.5162 6.225 94.5262 5.98 94.5462 5.84C94.5762 5.68 94.6762 5.56 94.8462 5.48L94.8612 5.465C94.9612 5.425 95.0612 5.405 95.1612 5.405C95.2012 5.405 95.2812 5.415 95.4012 5.435C95.6112 5.475 96.2112 5.495 97.2012 5.495H98.6412L98.7312 5.345C98.7812 5.255 98.8462 5.015 98.9262 4.625C98.9962 4.285 99.0312 4.01 99.0312 3.8V3.74V3.695C99.0312 3.565 98.9612 3.485 98.8212 3.455C98.6612 3.425 98.1162 3.41 97.1862 3.41H96.8562C95.7962 3.41 95.1962 3.405 95.0562 3.395C94.8462 3.375 94.7112 3.345 94.6512 3.305C94.5812 3.235 94.5462 3.145 94.5462 3.035C94.5462 2.875 94.5912 2.75 94.6812 2.66C94.7512 2.59 94.9562 2.54 95.2962 2.51C95.7162 2.47 96.4812 2.43 97.5912 2.39L98.9862 2.36C99.4862 2.36 99.8012 2.405 99.9312 2.495C100.041 2.575 100.121 2.655 100.171 2.735C100.211 2.835 100.231 3.025 100.231 3.305C100.231 3.795 100.186 4.29 100.096 4.79C100.026 5.21 99.9912 5.54 99.9912 5.78C99.9912 5.9 99.9812 5.99 99.9612 6.05C99.9512 6.09 99.9062 6.15 99.8262 6.23C99.7062 6.33 99.5312 6.39 99.3012 6.41C98.9812 6.43 98.3862 6.44 97.5162 6.44C96.6862 6.44 96.2162 6.445 96.1062 6.455C95.9562 6.465 95.8362 6.5 95.7462 6.56L95.5962 6.68L95.6262 7.355L95.6562 8.45C95.6562 8.72 95.6812 8.89 95.7312 8.96C95.7512 8.98 95.8862 8.99 96.1362 8.99C96.5262 8.99 97.2062 8.96 98.1762 8.9C98.7862 8.85 99.3612 8.825 99.9012 8.825C100.281 8.825 100.506 8.845 100.576 8.885C100.656 8.935 100.731 9.015 100.801 9.125C100.841 9.195 100.861 9.255 100.861 9.305C100.861 9.335 100.836 9.4 100.786 9.5C100.706 9.67 100.566 9.775 100.366 9.815C100.156 9.855 99.6312 9.9 98.7912 9.95L96.2562 10.04C95.7762 10.06 95.4662 10.06 95.3262 10.04C95.1662 10.04 95.0412 10.02 94.9512 9.98C94.7512 9.87 94.6362 9.725 94.6062 9.545C94.5762 9.395 94.5512 8.775 94.5312 7.685V7.58ZM107.056 2C107.396 1.98 108.466 1.97 110.266 1.97L113.011 2L113.191 2.165L113.356 2.345L113.341 3.395C113.341 4.095 113.301 4.565 113.221 4.805C113.151 5.035 112.981 5.19 112.711 5.27C112.671 5.28 112.501 5.285 112.201 5.285C111.761 5.285 111.376 5.28 111.046 5.27C109.986 5.24 109.166 5.225 108.586 5.225H108.406C107.896 5.225 107.601 5.255 107.521 5.315C107.431 5.375 107.386 5.58 107.386 5.93V6.035C107.386 6.435 107.411 6.67 107.461 6.74C107.511 6.79 107.701 6.83 108.031 6.86C108.291 6.88 108.761 6.89 109.441 6.89H110.371C111.551 6.89 112.361 6.88 112.801 6.86C113.001 6.84 113.136 6.84 113.206 6.86C113.286 6.88 113.366 6.915 113.446 6.965C113.576 7.055 113.666 7.17 113.716 7.31C113.736 7.36 113.746 7.43 113.746 7.52C113.746 7.6 113.736 7.66 113.716 7.7C113.656 7.8 113.581 7.89 113.491 7.97C113.411 8.02 113.331 8.045 113.251 8.045C113.161 8.055 112.931 8.04 112.561 8C111.831 7.94 111.296 7.91 110.956 7.91C110.716 7.91 110.576 7.92 110.536 7.94L110.386 8V8.915C110.386 9.525 110.411 9.84 110.461 9.86C110.531 9.87 110.656 9.875 110.836 9.875C111.026 9.865 111.246 9.86 111.496 9.86L112.381 9.845H113.146C113.716 9.845 114.101 9.855 114.301 9.875C114.521 9.905 114.666 10.025 114.736 10.235C114.776 10.325 114.796 10.395 114.796 10.445C114.796 10.505 114.776 10.57 114.736 10.64L114.721 10.67C114.651 10.83 114.431 10.925 114.061 10.955C113.691 10.985 112.431 11 110.281 11H109.861C107.691 11 106.451 10.995 106.141 10.985C105.661 10.965 105.391 10.94 105.331 10.91C105.161 10.82 105.101 10.63 105.151 10.34C105.171 10.25 105.196 10.19 105.226 10.16C105.256 10.12 105.356 10.085 105.526 10.055C105.646 10.035 105.856 10.015 106.156 9.995C106.246 9.985 106.441 9.98 106.741 9.98L107.326 9.965C108.206 9.945 108.726 9.93 108.886 9.92C109.056 9.9 109.146 9.865 109.156 9.815C109.186 9.735 109.216 9.475 109.246 9.035C109.256 8.625 109.276 8.355 109.306 8.225L109.321 8.15C109.321 8.05 109.266 7.985 109.156 7.955C109.016 7.925 108.636 7.895 108.016 7.865H107.791C107.631 7.855 107.466 7.85 107.296 7.85C107.196 7.85 107.076 7.835 106.936 7.805L106.666 7.76C106.626 7.74 106.566 7.695 106.486 7.625C106.426 7.565 106.386 7.505 106.366 7.445L106.321 7.175C106.301 6.995 106.291 6.875 106.291 6.815V6.065V5.525C106.291 5.135 106.301 4.86 106.321 4.7C106.331 4.54 106.426 4.405 106.606 4.295C106.686 4.245 106.806 4.21 106.966 4.19C107.056 4.18 107.461 4.175 108.181 4.175C109.041 4.175 109.896 4.19 110.746 4.22L111.631 4.25C111.841 4.25 111.946 4.24 111.946 4.22C111.966 4.19 112.001 3.99 112.051 3.62C112.101 3.27 112.111 3.085 112.081 3.065C112.041 3.035 110.951 3 108.811 2.96C107.961 2.95 107.341 2.93 106.951 2.9C106.741 2.89 106.596 2.86 106.516 2.81C106.386 2.71 106.321 2.605 106.321 2.495C106.321 2.395 106.366 2.295 106.456 2.195C106.526 2.125 106.596 2.075 106.666 2.045C106.726 2.035 106.856 2.02 107.056 2ZM127.371 1.28C127.411 1.26 127.476 1.25 127.566 1.25C127.646 1.25 127.706 1.255 127.746 1.265H127.761C127.931 1.295 128.031 1.46 128.061 1.76C128.081 2.08 128.096 3.135 128.106 4.925V5.075V6.515C128.106 7.895 128.086 8.625 128.046 8.705C127.976 8.895 127.821 8.99 127.581 8.99C127.391 8.99 127.236 8.915 127.116 8.765L126.966 8.6L126.981 5.105L126.996 3.575C126.996 2.695 127.001 2.185 127.011 2.045C127.031 1.725 127.066 1.53 127.116 1.46C127.186 1.36 127.271 1.3 127.371 1.28ZM118.866 3.845C118.856 3.825 118.851 3.79 118.851 3.74C118.851 3.64 118.906 3.525 119.016 3.395C119.096 3.295 119.166 3.24 119.226 3.23C119.346 3.2 119.486 3.18 119.646 3.17C119.946 3.14 120.846 3.125 122.346 3.125C122.676 3.115 123.081 3.11 123.561 3.11C123.921 3.11 124.146 3.115 124.236 3.125C124.506 3.135 124.686 3.165 124.776 3.215C124.946 3.285 125.041 3.415 125.061 3.605C125.061 3.775 124.971 3.93 124.791 4.07C124.711 4.12 124.616 4.15 124.506 4.16C124.416 4.17 124.101 4.175 123.561 4.175C122.821 4.175 122.426 4.195 122.376 4.235C122.336 4.275 122.316 4.395 122.316 4.595V4.73C122.316 4.85 122.331 4.94 122.361 5C122.411 5.08 122.611 5.245 122.961 5.495C123.021 5.555 123.236 5.715 123.606 5.975L123.981 6.245C124.491 6.585 124.791 6.8 124.881 6.89C124.981 6.99 125.031 7.11 125.031 7.25C125.031 7.35 125.006 7.44 124.956 7.52C124.916 7.59 124.826 7.65 124.686 7.7C124.596 7.74 124.521 7.76 124.461 7.76C124.411 7.76 124.331 7.73 124.221 7.67C124.071 7.61 123.936 7.535 123.816 7.445C123.616 7.285 123.266 7.03 122.766 6.68C122.296 6.36 122.036 6.19 121.986 6.17C121.866 6.11 121.791 6.08 121.761 6.08C121.731 6.08 121.676 6.105 121.596 6.155C121.376 6.315 120.991 6.715 120.441 7.355C120.091 7.765 119.791 7.97 119.541 7.97C119.391 7.97 119.256 7.9 119.136 7.76C119.056 7.65 119.006 7.56 118.986 7.49V7.46C118.986 7.41 119.011 7.325 119.061 7.205C119.111 7.065 119.181 6.95 119.271 6.86C119.361 6.76 119.526 6.615 119.766 6.425C120.046 6.225 120.346 5.965 120.666 5.645C120.896 5.415 121.046 5.24 121.116 5.12C121.156 5.02 121.186 4.815 121.206 4.505L121.221 4.31L120.276 4.28C119.666 4.26 119.306 4.23 119.196 4.19C119.006 4.12 118.896 4.005 118.866 3.845ZM119.976 1.88C119.976 1.7 120.086 1.53 120.306 1.37C120.356 1.34 120.476 1.315 120.666 1.295C120.786 1.285 121.206 1.28 121.926 1.28H123.411L123.516 1.43C123.596 1.53 123.636 1.635 123.636 1.745C123.636 1.805 123.621 1.875 123.591 1.955C123.511 2.155 123.381 2.285 123.201 2.345C123.071 2.375 122.586 2.39 121.746 2.39C120.896 2.39 120.426 2.375 120.336 2.345C120.096 2.255 119.976 2.1 119.976 1.88ZM120.471 8.66L120.621 8.465C120.671 8.385 120.721 8.335 120.771 8.315C120.831 8.295 120.901 8.285 120.981 8.285C121.131 8.285 121.261 8.325 121.371 8.405C121.481 8.495 121.541 8.605 121.551 8.735C121.581 8.995 121.601 9.325 121.611 9.725C121.621 10.235 121.641 10.515 121.671 10.565C121.691 10.595 122.091 10.61 122.871 10.61L124.611 10.595C124.681 10.585 124.816 10.58 125.016 10.58C125.476 10.57 126.021 10.565 126.651 10.565C127.091 10.565 127.351 10.57 127.431 10.58C127.671 10.61 127.811 10.715 127.851 10.895C127.851 10.925 127.856 10.945 127.866 10.955C127.886 11.015 127.896 11.09 127.896 11.18C127.896 11.44 127.756 11.605 127.476 11.675C127.346 11.715 126.486 11.745 124.896 11.765H123.741C122.921 11.765 122.251 11.755 121.731 11.735H121.716L121.296 11.72C121.126 11.69 121.031 11.67 121.011 11.66L120.786 11.6C120.756 11.59 120.706 11.54 120.636 11.45C120.576 11.36 120.546 11.29 120.546 11.24C120.536 11.2 120.521 11.09 120.501 10.91C120.481 10.69 120.471 10.545 120.471 10.475V8.66ZM131.038 1.445C131.118 1.395 131.323 1.365 131.653 1.355C131.873 1.345 132.748 1.34 134.278 1.34C135.768 1.34 136.638 1.345 136.888 1.355C137.278 1.375 137.513 1.4 137.593 1.43C137.723 1.48 137.833 1.55 137.923 1.64C137.983 1.71 138.028 1.835 138.058 2.015C138.068 2.075 138.073 2.185 138.073 2.345C138.073 2.765 138.033 3.275 137.953 3.875C137.793 5.165 137.658 5.985 137.548 6.335C137.538 6.345 137.533 6.36 137.533 6.38C137.533 6.39 137.528 6.4 137.518 6.41C137.448 6.63 137.438 6.76 137.488 6.8C137.528 6.84 137.723 6.86 138.073 6.86H138.208C138.718 6.86 139.048 6.88 139.198 6.92C139.418 6.96 139.568 7.085 139.648 7.295C139.668 7.375 139.678 7.43 139.678 7.46C139.678 7.59 139.618 7.715 139.498 7.835L139.333 8L138.283 7.97C138.113 7.97 137.988 7.965 137.908 7.955L136.498 7.94C135.728 7.94 135.318 7.965 135.268 8.015C135.218 8.065 135.183 8.575 135.163 9.545C135.153 10.715 135.123 11.345 135.073 11.435C135.033 11.505 134.953 11.565 134.833 11.615C134.763 11.645 134.698 11.66 134.638 11.66C134.418 11.66 134.248 11.525 134.128 11.255C134.048 11.075 134.008 10.915 134.008 10.775C134.008 10.695 134.013 10.64 134.023 10.61C134.063 10.47 134.083 9.96 134.083 9.08C134.083 8.62 134.078 8.335 134.068 8.225C134.048 8.065 134.023 7.98 133.993 7.97C133.943 7.95 133.643 7.93 133.093 7.91C132.653 7.91 132.018 7.895 131.188 7.865C130.558 7.855 130.168 7.82 130.018 7.76C129.898 7.71 129.838 7.6 129.838 7.43C129.838 7.24 129.898 7.1 130.018 7.01C130.088 6.96 130.263 6.925 130.543 6.905C130.813 6.885 131.683 6.87 133.153 6.86C135.143 6.85 136.163 6.825 136.213 6.785C136.253 6.755 136.273 6.68 136.273 6.56C136.273 6.41 136.338 6.11 136.468 5.66C136.568 5.32 136.688 4.635 136.828 3.605C136.878 3.275 136.903 2.99 136.903 2.75C136.903 2.63 136.893 2.565 136.873 2.555C136.823 2.525 136.698 2.5 136.498 2.48C135.988 2.44 135.373 2.41 134.653 2.39L132.223 2.33C131.673 2.31 131.338 2.285 131.218 2.255C131.058 2.225 130.938 2.15 130.858 2.03C130.818 1.95 130.798 1.89 130.798 1.85C130.798 1.82 130.808 1.775 130.828 1.715C130.878 1.585 130.948 1.495 131.038 1.445ZM142.619 1.07C142.989 1.04 144.009 1.015 145.679 0.994999H145.889C147.079 0.994999 147.784 1.01 148.004 1.04C148.214 1.07 148.369 1.18 148.469 1.37L148.484 1.4C148.564 1.58 148.604 1.84 148.604 2.18C148.594 2.73 148.499 3.125 148.319 3.365C148.149 3.555 147.839 3.67 147.389 3.71C147.089 3.74 146.624 3.755 145.994 3.755C145.504 3.755 145.114 3.75 144.824 3.74L143.249 3.725C143.069 3.745 142.959 3.78 142.919 3.83C142.849 3.89 142.814 3.955 142.814 4.025C142.814 4.085 142.834 4.135 142.874 4.175C142.904 4.225 143.054 4.25 143.324 4.25C143.534 4.26 144.299 4.25 145.619 4.22H145.784L147.644 4.19L148.244 4.205C148.484 4.225 148.644 4.325 148.724 4.505V4.52C148.774 4.62 148.799 4.705 148.799 4.775C148.799 4.935 148.709 5.075 148.529 5.195C148.389 5.285 148.134 5.335 147.764 5.345C147.574 5.355 147.009 5.36 146.069 5.36H144.854H144.719C143.329 5.34 142.534 5.32 142.334 5.3C142.094 5.29 141.934 5.21 141.854 5.06L141.839 5.045C141.769 4.945 141.734 4.605 141.734 4.025C141.734 3.445 141.769 3.1 141.839 2.99C141.909 2.83 142.079 2.735 142.349 2.705C142.609 2.675 143.399 2.66 144.719 2.66H147.134L147.269 2.525C147.359 2.435 147.404 2.36 147.404 2.3C147.404 2.26 147.379 2.215 147.329 2.165C147.289 2.125 146.379 2.095 144.599 2.075C142.819 2.055 141.904 2.04 141.854 2.03C141.794 1.99 141.739 1.925 141.689 1.835C141.619 1.735 141.584 1.655 141.584 1.595C141.584 1.545 141.634 1.455 141.734 1.325L141.899 1.13L142.619 1.07ZM140.324 6.83C140.294 6.77 140.279 6.71 140.279 6.65C140.279 6.51 140.359 6.375 140.519 6.245C140.589 6.185 140.689 6.15 140.819 6.14C140.959 6.12 141.264 6.105 141.734 6.095C142.634 6.075 143.359 6.065 143.909 6.065C144.979 6.065 146.144 6.08 147.404 6.11H147.419C148.789 6.14 149.594 6.17 149.834 6.2C150.074 6.24 150.214 6.35 150.254 6.53C150.274 6.63 150.284 6.7 150.284 6.74C150.284 6.94 150.189 7.085 149.999 7.175C149.879 7.225 149.719 7.25 149.519 7.25C149.349 7.26 148.704 7.25 147.584 7.22C146.054 7.17 144.539 7.145 143.039 7.145H142.904C141.704 7.145 140.999 7.13 140.789 7.1C140.569 7.09 140.419 7.005 140.339 6.845C140.339 6.835 140.334 6.83 140.324 6.83ZM141.914 8.195C141.914 8.135 141.949 8.055 142.019 7.955C142.059 7.885 142.114 7.815 142.184 7.745C142.224 7.705 142.319 7.675 142.469 7.655C142.529 7.645 143.029 7.64 143.969 7.64H145.319C146.809 7.66 147.659 7.68 147.869 7.7C148.109 7.73 148.284 7.82 148.394 7.97C148.464 8.07 148.499 8.435 148.499 9.065C148.499 9.615 148.474 9.955 148.424 10.085C148.384 10.195 148.239 10.275 147.989 10.325C147.799 10.355 146.964 10.37 145.484 10.37L143.264 10.385L143.204 10.535C143.154 10.625 143.159 10.7 143.219 10.76C143.249 10.79 143.419 10.815 143.729 10.835C143.919 10.845 144.624 10.85 145.844 10.85C147.534 10.85 148.419 10.875 148.499 10.925C148.719 11.045 148.829 11.205 148.829 11.405C148.829 11.645 148.664 11.815 148.334 11.915C148.244 11.945 148.024 11.97 147.674 11.99L145.394 11.975C143.614 11.965 142.654 11.935 142.514 11.885C142.324 11.825 142.204 11.725 142.154 11.585C142.104 11.435 142.079 11.13 142.079 10.67C142.079 10.11 142.114 9.76 142.184 9.62C142.254 9.47 142.329 9.37 142.409 9.32C142.489 9.28 142.854 9.26 143.504 9.26L145.034 9.275C145.144 9.285 145.309 9.29 145.529 9.29L147.119 9.335L147.269 9.2C147.369 9.1 147.419 9.025 147.419 8.975C147.399 8.895 147.344 8.84 147.254 8.81C147.064 8.77 146.259 8.745 144.839 8.735C143.179 8.715 142.319 8.69 142.259 8.66C142.189 8.61 142.114 8.535 142.034 8.435C141.954 8.325 141.914 8.245 141.914 8.195ZM163.96 1.91C164.08 1.79 164.21 1.73 164.35 1.73C164.55 1.73 164.685 1.81 164.755 1.97C164.785 2.04 164.8 2.85 164.8 4.4V6.17C164.79 8.68 164.77 10.145 164.74 10.565C164.73 10.795 164.665 10.97 164.545 11.09C164.445 11.19 164.33 11.24 164.2 11.24C164.04 11.24 163.895 11.16 163.765 11C163.725 10.96 163.695 10.815 163.675 10.565C163.665 10.405 163.66 9.815 163.66 8.795C163.66 7.395 163.64 6.68 163.6 6.65C163.55 6.63 163.335 6.615 162.955 6.605C162.555 6.605 162.335 6.64 162.295 6.71C162.245 6.79 162.215 7.425 162.205 8.615L162.19 9.395C162.19 9.835 162.185 10.1 162.175 10.19C162.165 10.38 162.13 10.55 162.07 10.7C161.98 10.9 161.85 11 161.68 11C161.59 11 161.505 10.98 161.425 10.94L161.23 10.835C161.19 10.825 161.16 10.745 161.14 10.595C161.11 10.455 161.095 10.305 161.095 10.145C161.085 10.035 161.08 9.745 161.08 9.275C161.08 7.815 161.1 6.34 161.14 4.85C161.17 3.17 161.2 2.295 161.23 2.225C161.32 2.025 161.47 1.925 161.68 1.925C161.93 1.925 162.095 2.055 162.175 2.315C162.205 2.435 162.22 2.985 162.22 3.965C162.22 4.945 162.245 5.46 162.295 5.51C162.325 5.54 162.43 5.555 162.61 5.555C163.27 5.555 163.625 5.52 163.675 5.45C163.705 5.4 163.72 5.32 163.72 5.21L163.765 3.56L163.795 2.075L163.96 1.91ZM154.33 3.92C154.33 3.82 154.365 3.72 154.435 3.62C154.485 3.52 154.555 3.455 154.645 3.425C154.685 3.415 155.53 3.4 157.18 3.38C158.77 3.38 159.655 3.39 159.835 3.41C159.915 3.41 159.99 3.455 160.06 3.545C160.14 3.645 160.195 3.745 160.225 3.845C160.235 3.875 160.24 3.93 160.24 4.01C160.24 4.16 160.22 4.32 160.18 4.49C160.1 5.01 160.05 5.345 160.03 5.495C159.94 6.135 159.825 6.745 159.685 7.325L159.55 8.015C159.49 8.355 159.405 8.695 159.295 9.035C159.195 9.345 159.1 9.555 159.01 9.665C158.96 9.715 158.91 9.75 158.86 9.77L158.77 9.785C158.6 9.785 158.455 9.755 158.335 9.695C158.225 9.625 158.145 9.53 158.095 9.41C158.085 9.39 158.08 9.345 158.08 9.275C158.08 9.185 158.09 9.105 158.11 9.035C158.14 8.855 158.185 8.69 158.245 8.54C158.305 8.43 158.335 8.34 158.335 8.27C158.335 8.23 158.36 8.11 158.41 7.91C158.58 7.35 158.665 7.035 158.665 6.965C158.665 6.905 158.69 6.765 158.74 6.545C158.89 5.855 158.985 5.285 159.025 4.835C159.035 4.685 159.035 4.59 159.025 4.55C159.005 4.5 158.97 4.47 158.92 4.46C158.89 4.44 158.8 4.43 158.65 4.43C158.49 4.43 158.355 4.435 158.245 4.445C157.965 4.455 157.78 4.49 157.69 4.55C157.62 4.61 157.555 4.775 157.495 5.045C157.365 5.685 157.26 6.14 157.18 6.41C157.13 6.61 157.105 6.71 157.105 6.71C157.125 6.66 157.1 6.765 157.03 7.025C156.91 7.475 156.77 7.905 156.61 8.315C156.42 8.775 156.265 9.07 156.145 9.2C156.005 9.36 155.855 9.44 155.695 9.44C155.485 9.44 155.335 9.345 155.245 9.155C155.205 9.075 155.185 9.005 155.185 8.945C155.185 8.875 155.205 8.775 155.245 8.645C155.295 8.445 155.34 8.3 155.38 8.21C155.57 7.8 155.665 7.57 155.665 7.52C155.665 7.49 155.685 7.44 155.725 7.37C155.795 7.23 155.905 6.92 156.055 6.44C156.215 5.94 156.31 5.6 156.34 5.42L156.43 4.82C156.45 4.72 156.46 4.655 156.46 4.625C156.46 4.555 156.44 4.5 156.4 4.46C156.36 4.43 156.265 4.415 156.115 4.415C155.845 4.415 155.655 4.42 155.545 4.43C155.225 4.43 155.02 4.425 154.93 4.415C154.75 4.405 154.605 4.345 154.495 4.235C154.385 4.125 154.33 4.02 154.33 3.92ZM170.853 1.355C171.123 1.275 171.323 1.235 171.453 1.235C171.573 1.235 171.798 1.265 172.128 1.325C172.538 1.445 172.783 1.52 172.863 1.55C173.153 1.66 173.438 1.845 173.718 2.105C173.978 2.365 174.198 2.66 174.378 2.99C174.448 3.15 174.523 3.385 174.603 3.695C174.683 4.045 174.723 4.295 174.723 4.445C174.723 4.595 174.673 4.86 174.573 5.24C174.483 5.62 174.393 5.88 174.303 6.02C174.043 6.49 173.633 6.865 173.073 7.145C172.713 7.325 172.443 7.435 172.263 7.475C172.033 7.525 171.753 7.55 171.423 7.55C171.093 7.55 170.818 7.525 170.598 7.475C170.408 7.435 170.138 7.32 169.788 7.13C169.388 6.91 169.073 6.68 168.843 6.44C168.603 6.2 168.418 5.905 168.288 5.555C168.178 5.255 168.123 4.96 168.123 4.67C168.123 4.19 168.248 3.695 168.498 3.185C168.778 2.665 169.073 2.275 169.383 2.015C169.703 1.775 170.193 1.555 170.853 1.355ZM166.533 8.735L166.563 8.54C166.593 8.44 166.663 8.365 166.773 8.315C166.993 8.225 169.283 8.16 173.643 8.12C174.733 8.12 175.353 8.115 175.503 8.105C176.073 8.085 176.438 8.155 176.598 8.315C176.698 8.415 176.748 8.515 176.748 8.615C176.738 8.715 176.673 8.825 176.553 8.945L176.358 9.14H174.288C173.268 9.14 172.683 9.145 172.533 9.155C172.283 9.175 172.138 9.205 172.098 9.245C172.038 9.285 172.003 9.365 171.993 9.485C171.983 9.535 171.978 9.67 171.978 9.89L171.963 10.31L171.933 11.375C171.923 11.805 171.908 12.04 171.888 12.08C171.848 12.2 171.703 12.26 171.453 12.26C171.283 12.26 171.143 12.215 171.033 12.125C170.923 12.045 170.868 11.925 170.868 11.765V10.25C170.868 9.77 170.863 9.49 170.853 9.41C170.833 9.3 170.803 9.23 170.763 9.2C170.693 9.16 170.018 9.14 168.738 9.14H166.818L166.668 9.005C166.608 8.945 166.568 8.885 166.548 8.825L166.533 8.735ZM169.293 5.135C169.363 5.465 169.583 5.76 169.953 6.02C170.353 6.29 170.833 6.425 171.393 6.425C171.793 6.425 172.183 6.345 172.563 6.185C172.743 6.125 172.908 5.99 173.058 5.78C173.208 5.62 173.333 5.41 173.433 5.15C173.493 4.94 173.523 4.7 173.523 4.43C173.523 4.01 173.473 3.69 173.373 3.47C173.153 3.02 172.718 2.67 172.068 2.42C171.868 2.37 171.633 2.345 171.363 2.345C171.043 2.365 170.808 2.405 170.658 2.465C170.498 2.505 170.283 2.66 170.013 2.93C169.723 3.25 169.548 3.49 169.488 3.65C169.328 4.03 169.248 4.385 169.248 4.715C169.248 4.855 169.263 4.995 169.293 5.135ZM185.724 1.52C185.784 1.49 185.899 1.475 186.069 1.475C186.249 1.495 186.349 1.52 186.369 1.55C186.389 1.57 186.399 2.61 186.399 4.67V7.355L186.384 11.24L186.249 11.375C186.149 11.465 186.024 11.51 185.874 11.51C185.584 11.51 185.399 11.38 185.319 11.12C185.279 10.96 185.254 10.425 185.244 9.515C185.224 8.565 185.199 8.08 185.169 8.06C185.129 8.02 184.839 7.995 184.299 7.985C183.779 7.975 183.424 7.94 183.234 7.88C183.074 7.82 182.974 7.82 182.934 7.88C182.894 7.95 182.859 8.15 182.829 8.48C182.799 8.78 182.754 9 182.694 9.14C182.624 9.27 182.519 9.36 182.379 9.41C182.289 9.44 181.464 9.465 179.904 9.485H179.034C178.384 9.485 177.939 9.475 177.699 9.455C177.429 9.425 177.274 9.345 177.234 9.215C177.214 9.135 177.204 8.575 177.204 7.535V6.155V5.855C177.224 4.385 177.244 3.545 177.264 3.335C177.274 3.085 177.359 2.905 177.519 2.795L177.549 2.78C177.629 2.72 177.749 2.685 177.909 2.675C177.989 2.665 178.204 2.66 178.554 2.66L179.214 2.645C180.404 2.625 181.169 2.61 181.509 2.6L181.929 2.585C182.309 2.585 182.564 2.625 182.694 2.705C182.844 2.805 182.929 3.085 182.949 3.545C182.949 3.845 182.959 4.065 182.979 4.205L183.024 4.37L184.074 4.355C184.774 4.345 185.144 4.325 185.184 4.295C185.264 4.215 185.324 3.72 185.364 2.81C185.374 2.39 185.409 2.075 185.469 1.865C185.509 1.705 185.594 1.59 185.724 1.52ZM178.359 7.91C178.359 8.17 178.379 8.32 178.419 8.36C178.499 8.4 179.039 8.43 180.039 8.45H180.534C181.214 8.45 181.574 8.43 181.614 8.39C181.644 8.34 181.659 8.03 181.659 7.46C181.659 6.86 181.679 6.1 181.719 5.18C181.729 4.9 181.734 4.565 181.734 4.175C181.734 3.885 181.724 3.735 181.704 3.725C181.664 3.695 181.119 3.68 180.069 3.68C179.029 3.68 178.489 3.7 178.449 3.74C178.399 3.8 178.369 4.57 178.359 6.05L178.344 7.25L178.359 7.91ZM182.889 6.545C182.889 6.885 182.919 7.07 182.979 7.1H183.024C183.094 7.1 183.179 7.075 183.279 7.025C183.389 6.955 183.724 6.92 184.284 6.92C184.834 6.92 185.124 6.895 185.154 6.845C185.194 6.805 185.214 6.6 185.214 6.23C185.214 5.87 185.199 5.67 185.169 5.63C185.119 5.56 184.804 5.49 184.224 5.42L183.174 5.255H183.129C183.049 5.255 182.994 5.285 182.964 5.345C182.914 5.475 182.889 5.875 182.889 6.545ZM22.5498 16.085C22.8398 16.075 23.3748 16.07 24.1548 16.07C24.5648 16.07 24.7998 16.075 24.8598 16.085C24.9298 16.095 24.9948 16.13 25.0548 16.19C25.1348 16.29 25.1748 16.39 25.1748 16.49C25.1748 16.55 25.1498 16.63 25.0998 16.73C25.0298 16.89 24.9198 16.985 24.7698 17.015C24.6398 17.055 24.2298 17.075 23.5398 17.075C22.8498 17.075 22.3898 17.055 22.1598 17.015C21.8898 16.985 21.7148 16.915 21.6348 16.805C21.5648 16.735 21.5298 16.65 21.5298 16.55C21.5298 16.42 21.5698 16.315 21.6498 16.235C21.7198 16.165 21.7998 16.125 21.8898 16.115C21.9298 16.105 22.0398 16.1 22.2198 16.1L22.5498 16.085ZM20.3598 17.945C20.3998 17.825 20.5098 17.735 20.6898 17.675C20.8798 17.625 21.1948 17.585 21.6348 17.555C22.1948 17.535 22.7798 17.525 23.3898 17.525H24.2748C25.5048 17.545 26.1898 17.58 26.3298 17.63C26.4498 17.7 26.5498 17.795 26.6298 17.915C26.6598 17.975 26.6748 18.035 26.6748 18.095C26.6748 18.135 26.6648 18.185 26.6448 18.245C26.5848 18.385 26.4798 18.47 26.3298 18.5C26.2098 18.52 25.8148 18.54 25.1448 18.56C24.3548 18.58 23.9448 18.605 23.9148 18.635C23.8948 18.655 23.9198 18.68 23.9898 18.71C24.1898 18.79 24.2898 18.83 24.2898 18.83C25.0098 19.04 25.4998 19.515 25.7598 20.255C25.8198 20.445 25.8498 20.66 25.8498 20.9C25.8498 21.41 25.7498 21.81 25.5498 22.1C25.3598 22.4 25.0898 22.64 24.7398 22.82C24.3998 23.01 24.0398 23.105 23.6598 23.105C23.4998 23.105 23.2548 23.075 22.9248 23.015C22.6348 22.965 22.3898 22.91 22.1898 22.85C21.6698 22.66 21.2898 22.33 21.0498 21.86C20.9098 21.6 20.8398 21.34 20.8398 21.08C20.8398 20.87 20.8848 20.66 20.9748 20.45C21.0448 20.26 21.1398 20.07 21.2598 19.88C21.4198 19.65 21.5348 19.5 21.6048 19.43C21.7448 19.3 21.9648 19.145 22.2648 18.965C22.5048 18.815 22.6848 18.73 22.8048 18.71L22.6548 18.65C22.4948 18.62 22.1048 18.605 21.4848 18.605C21.0248 18.605 20.7598 18.6 20.6898 18.59C20.5798 18.58 20.4998 18.55 20.4498 18.5C20.3598 18.41 20.3148 18.3 20.3148 18.17C20.3148 18.09 20.3298 18.015 20.3598 17.945ZM22.0548 21.05C22.0548 21.31 22.0898 21.475 22.1598 21.545C22.3498 21.765 22.7048 21.895 23.2248 21.935C23.8148 21.965 24.2398 21.835 24.4998 21.545C24.5998 21.405 24.6548 21.325 24.6648 21.305C24.6848 21.245 24.6948 21.155 24.6948 21.035C24.6948 20.815 24.6748 20.665 24.6348 20.585C24.5948 20.465 24.4998 20.33 24.3498 20.18C24.1998 20.04 24.0598 19.95 23.9298 19.91C23.7498 19.86 23.5498 19.835 23.3298 19.835C23.1998 19.835 23.0848 19.845 22.9848 19.865C22.8948 19.885 22.7848 19.945 22.6548 20.045C22.4248 20.185 22.2698 20.325 22.1898 20.465C22.0998 20.615 22.0548 20.81 22.0548 21.05ZM22.2948 25.025C22.2948 24.585 22.3048 24.265 22.3248 24.065C22.3448 23.885 22.3698 23.77 22.3998 23.72C22.4798 23.58 22.5598 23.49 22.6398 23.45C22.7098 23.42 23.3948 23.38 24.6948 23.33L26.9148 23.255C27.4948 23.225 27.8648 23.215 28.0248 23.225C28.2348 23.245 28.3848 23.285 28.4748 23.345C28.6448 23.445 28.7498 23.61 28.7898 23.84C28.8098 23.98 28.8198 24.15 28.8198 24.35C28.8198 24.46 28.8098 24.745 28.7898 25.205C28.7798 25.855 28.7498 26.28 28.6998 26.48C28.6598 26.66 28.5598 26.78 28.3998 26.84C28.3098 26.88 28.0998 26.9 27.7698 26.9L24.7248 26.855C23.7248 26.835 23.1298 26.82 22.9398 26.81C22.7498 26.8 22.6198 26.76 22.5498 26.69C22.4498 26.62 22.3848 26.48 22.3548 26.27C22.3348 26.1 22.3148 25.685 22.2948 25.025ZM23.5848 25.805C23.6848 25.825 23.8598 25.835 24.1098 25.835L24.8298 25.82H26.7348L27.2898 25.835C27.4898 25.835 27.5998 25.825 27.6198 25.805C27.6498 25.785 27.6648 25.64 27.6648 25.37L27.6498 24.755L27.6348 24.275L26.1198 24.29C24.4598 24.31 23.5798 24.345 23.4798 24.395C23.4298 24.445 23.4048 24.68 23.4048 25.1V25.76L23.5848 25.805ZM27.5148 21.905C27.5148 21.395 27.5348 20.835 27.5748 20.225C27.6048 19.525 27.6148 19 27.6048 18.65L27.5898 18.14C27.5898 18 27.5998 17.72 27.6198 17.3C27.6498 16.95 27.6748 16.72 27.6948 16.61C27.7148 16.53 27.7648 16.45 27.8448 16.37C27.9548 16.28 28.0848 16.225 28.2348 16.205C28.3848 16.205 28.4948 16.25 28.5648 16.34C28.6248 16.39 28.6598 16.485 28.6698 16.625C28.6798 16.685 28.6848 16.875 28.6848 17.195L28.6998 17.765L28.7148 18.305C28.7148 18.615 28.7198 18.8 28.7298 18.86C28.7498 19.02 28.7748 19.105 28.8048 19.115C28.8648 19.145 29.0898 19.15 29.4798 19.13C29.5598 19.12 29.6698 19.115 29.8098 19.115C30.1998 19.115 30.4598 19.18 30.5898 19.31C30.6598 19.37 30.6948 19.505 30.6948 19.715C30.6948 19.935 30.6598 20.065 30.5898 20.105C30.5298 20.155 30.2248 20.185 29.6748 20.195H29.4648C29.0548 20.205 28.8098 20.25 28.7298 20.33C28.6698 20.41 28.6298 20.71 28.6098 21.23V21.485C28.6098 22.185 28.5748 22.585 28.5048 22.685C28.3848 22.855 28.2548 22.94 28.1148 22.94C27.9848 22.94 27.8398 22.87 27.6798 22.73L27.5148 22.58V21.905ZM40.6353 16.82C40.7353 16.72 40.8503 16.665 40.9803 16.655C41.1103 16.655 41.2303 16.695 41.3403 16.775L41.4753 16.895V21.455C41.4753 23.845 41.4703 25.175 41.4603 25.445C41.4403 25.855 41.4053 26.095 41.3553 26.165C41.3153 26.245 41.2703 26.29 41.2203 26.3C41.1603 26.32 41.0753 26.33 40.9653 26.33C40.8553 26.33 40.7703 26.32 40.7103 26.3C40.6503 26.28 40.5803 26.225 40.5003 26.135L40.3053 25.925L40.3353 23.87C40.3453 22.66 40.3753 21.275 40.4253 19.715L40.4853 17.315C40.4853 17.195 40.4953 17.095 40.5153 17.015C40.5453 16.935 40.5853 16.87 40.6353 16.82ZM31.0353 18.665C31.1153 18.495 31.2453 18.395 31.4253 18.365C31.7853 18.335 32.4253 18.315 33.3453 18.305C34.4953 18.295 35.3153 18.275 35.8053 18.245L36.1053 18.23C36.2553 18.23 36.3753 18.245 36.4653 18.275C36.5953 18.315 36.7003 18.415 36.7803 18.575C36.8203 18.675 36.8403 18.78 36.8403 18.89C36.8403 18.94 36.8303 19.025 36.8103 19.145C36.7203 19.695 36.6753 20.09 36.6753 20.33C36.6753 20.5 36.6953 20.585 36.7353 20.585C36.7653 20.585 36.7853 20.58 36.7953 20.57C36.8453 20.55 37.1203 20.53 37.6203 20.51C38.1103 20.49 38.3703 20.465 38.4003 20.435C38.4503 20.385 38.4753 19.865 38.4753 18.875C38.4753 18.095 38.4903 17.61 38.5203 17.42C38.5403 17.22 38.6053 17.065 38.7153 16.955C38.7953 16.875 38.9003 16.835 39.0303 16.835C39.1703 16.835 39.2803 16.87 39.3603 16.94L39.5103 17.045L39.5403 20.375C39.5703 22.335 39.5953 23.735 39.6153 24.575C39.6253 24.705 39.6303 24.88 39.6303 25.1C39.6303 25.42 39.6103 25.625 39.5703 25.715C39.5103 25.895 39.4103 26.015 39.2703 26.075C39.2303 26.095 39.1653 26.105 39.0753 26.105C38.9653 26.105 38.8703 26.085 38.7903 26.045C38.6503 25.965 38.5653 25.815 38.5353 25.595C38.4953 25.365 38.4653 24.705 38.4453 23.615C38.4353 22.275 38.4153 21.59 38.3853 21.56C38.3553 21.53 38.1303 21.51 37.7103 21.5C37.3003 21.47 37.0253 21.43 36.8853 21.38C36.8353 21.36 36.7753 21.35 36.7053 21.35C36.6353 21.35 36.5853 21.37 36.5553 21.41C36.4953 21.49 36.4253 21.705 36.3453 22.055C36.0953 23.255 35.9553 23.895 35.9253 23.975L35.8203 24.32C35.7503 24.59 35.5953 24.725 35.3553 24.725C35.2153 24.725 35.0903 24.69 34.9803 24.62C34.8503 24.54 34.7653 24.455 34.7253 24.365C34.6953 24.305 34.6803 24.235 34.6803 24.155C34.6803 24.115 34.6903 24.035 34.7103 23.915C34.8503 23.465 34.9653 23.05 35.0553 22.67L35.2353 22.07C35.2853 21.9 35.3103 21.78 35.3103 21.71C35.3103 21.65 35.3353 21.51 35.3853 21.29C35.5353 20.7 35.6103 20.185 35.6103 19.745V19.37L35.4003 19.325C35.2803 19.295 35.0703 19.29 34.7703 19.31C34.5303 19.32 34.3803 19.365 34.3203 19.445C34.2603 19.515 34.1853 19.765 34.0953 20.195C33.9853 20.675 33.9003 21.015 33.8403 21.215C33.8703 21.125 33.8153 21.35 33.6753 21.89C33.6053 22.28 33.4703 22.73 33.2703 23.24C33.0803 23.74 32.9253 24.05 32.8053 24.17C32.7053 24.27 32.5903 24.32 32.4603 24.32H32.4153C32.3053 24.32 32.1953 24.285 32.0853 24.215C32.0353 24.175 32.0003 24.12 31.9803 24.05C31.9603 23.99 31.9503 23.88 31.9503 23.72C31.9703 23.37 32.0653 23.02 32.2353 22.67C32.2853 22.55 32.3103 22.475 32.3103 22.445C32.3103 22.385 32.3253 22.335 32.3553 22.295C32.4053 22.245 32.4653 22.09 32.5353 21.83L32.7903 21.02C32.9103 20.65 32.9953 20.3 33.0453 19.97L33.0753 19.58C33.0753 19.46 33.0603 19.395 33.0303 19.385C32.9903 19.365 32.8853 19.355 32.7153 19.355L32.1903 19.37L31.7853 19.385C31.5853 19.385 31.4453 19.37 31.3653 19.34C31.2353 19.29 31.1303 19.185 31.0503 19.025C31.0203 18.965 31.0053 18.9 31.0053 18.83C31.0053 18.8 31.0153 18.745 31.0353 18.665ZM48.3221 16.01C48.3721 15.98 48.8821 15.965 49.8521 15.965L51.9971 15.98L55.5371 15.995L55.7471 16.16C55.9071 16.29 55.9871 16.42 55.9871 16.55C55.9871 16.65 55.9271 16.755 55.8071 16.865L55.6271 17.015L54.0821 17C53.0721 17 52.5371 17.01 52.4771 17.03C52.4371 17.06 52.4171 17.095 52.4171 17.135C52.4171 17.185 52.4671 17.245 52.5671 17.315C52.6771 17.415 52.7671 17.47 52.8371 17.48C52.9171 17.49 53.1321 17.58 53.4821 17.75C54.0921 18.04 54.4221 18.185 54.4721 18.185C54.5121 18.185 54.5671 18.2 54.6371 18.23L55.0571 18.44C55.6371 18.68 55.9921 18.875 56.1221 19.025C56.2021 19.125 56.2421 19.22 56.2421 19.31C56.2421 19.38 56.2171 19.465 56.1671 19.565C56.0671 19.785 55.9071 19.895 55.6871 19.895C55.5871 19.895 55.2821 19.775 54.7721 19.535C54.1621 19.245 53.7371 19.05 53.4971 18.95L53.2871 18.86C53.1671 18.81 53.1071 18.785 53.1071 18.785C52.8471 18.665 52.5071 18.53 52.0871 18.38C52.0771 18.37 52.0621 18.365 52.0421 18.365C52.0221 18.355 51.9921 18.35 51.9521 18.35C51.8821 18.35 51.7871 18.375 51.6671 18.425C51.4871 18.495 50.9171 18.78 49.9571 19.28C49.8971 19.31 49.8371 19.34 49.7771 19.37C49.7171 19.39 49.6621 19.415 49.6121 19.445C49.1021 19.715 48.7571 19.865 48.5771 19.895C48.5471 19.905 48.5071 19.91 48.4571 19.91C48.3171 19.91 48.1921 19.855 48.0821 19.745C47.9821 19.635 47.9321 19.52 47.9321 19.4C47.9321 19.28 47.9821 19.165 48.0821 19.055C48.2221 18.905 48.4921 18.74 48.8921 18.56C49.2021 18.43 49.7021 18.185 50.3921 17.825C50.6421 17.695 50.7921 17.63 50.8421 17.63C50.8921 17.63 50.9771 17.56 51.0971 17.42C51.1971 17.29 51.2471 17.205 51.2471 17.165C51.2471 17.085 51.1371 17.03 50.9171 17C50.5571 16.97 50.0671 16.945 49.4471 16.925C48.9571 16.915 48.6021 16.895 48.3821 16.865C48.2521 16.845 48.1571 16.805 48.0971 16.745C48.0171 16.645 47.9771 16.57 47.9771 16.52C47.9771 16.46 48.0171 16.365 48.0971 16.235C48.1771 16.115 48.2521 16.04 48.3221 16.01ZM46.8071 21.155C46.8071 21.005 46.8571 20.88 46.9571 20.78C47.0271 20.71 47.1121 20.67 47.2121 20.66C47.3221 20.64 47.6121 20.625 48.0821 20.615C48.3821 20.605 49.2821 20.6 50.7821 20.6H52.6721C55.0521 20.61 56.3371 20.635 56.5271 20.675C56.7171 20.715 56.8471 20.8 56.9171 20.93C56.9471 20.99 56.9621 21.055 56.9621 21.125C56.9621 21.205 56.9371 21.295 56.8871 21.395C56.8171 21.525 56.7521 21.605 56.6921 21.635C56.6321 21.665 56.4721 21.69 56.2121 21.71C55.8921 21.73 55.5321 21.72 55.1321 21.68C54.1921 21.63 52.6321 21.6 50.4521 21.59L47.0771 21.575C47.0571 21.565 47.0071 21.52 46.9271 21.44C46.8471 21.38 46.8071 21.285 46.8071 21.155ZM48.5471 22.79C48.5471 22.74 48.5621 22.665 48.5921 22.565C48.6321 22.455 48.7321 22.36 48.8921 22.28C49.0021 22.23 49.1921 22.2 49.4621 22.19C49.6521 22.18 50.3621 22.175 51.5921 22.175C53.1121 22.175 54.0121 22.195 54.2921 22.235C54.5921 22.285 54.7971 22.43 54.9071 22.67C54.9371 22.77 54.9521 22.975 54.9521 23.285C54.9521 23.885 54.9221 24.29 54.8621 24.5C54.8121 24.69 54.7371 24.805 54.6371 24.845C54.5771 24.865 54.0921 24.9 53.1821 24.95C52.3821 24.99 51.6071 25.01 50.8571 25.01C50.2771 25.01 49.9421 25.03 49.8521 25.07C49.7521 25.11 49.7021 25.245 49.7021 25.475C49.7021 25.675 49.7371 25.81 49.8071 25.88C49.8771 25.93 49.9821 25.955 50.1221 25.955L51.4121 25.91C52.2421 25.87 53.0521 25.85 53.8421 25.85C54.5021 25.85 54.9171 25.885 55.0871 25.955C55.2671 26.035 55.3571 26.19 55.3571 26.42C55.3571 26.55 55.3171 26.67 55.2371 26.78L55.1021 26.93L53.8871 26.96C52.8971 26.99 51.8771 27.005 50.8271 27.005C49.7771 27.005 49.1921 26.99 49.0721 26.96C48.9321 26.91 48.8271 26.84 48.7571 26.75C48.7071 26.67 48.6771 26.575 48.6671 26.465C48.6471 26.305 48.6371 25.985 48.6371 25.505C48.6371 24.895 48.6621 24.49 48.7121 24.29C48.7621 24.12 48.8571 24.015 48.9971 23.975C49.1171 23.955 49.5671 23.945 50.3471 23.945H51.3671L53.5721 23.96L53.6921 23.81C53.7721 23.7 53.8121 23.59 53.8121 23.48C53.8121 23.35 53.7621 23.27 53.6621 23.24C53.5821 23.2 52.7521 23.18 51.1721 23.18H48.8321L48.6821 23.045C48.6121 22.975 48.5671 22.905 48.5471 22.835V22.79ZM66.1956 16.49C66.2956 16.48 66.4056 16.48 66.5256 16.49C66.6256 16.5 66.7156 16.535 66.7956 16.595C66.8456 16.635 66.8756 16.875 66.8856 17.315C66.8956 17.605 66.9006 18.92 66.9006 21.26C66.9006 24.3 66.8806 25.895 66.8406 26.045C66.8006 26.205 66.7356 26.33 66.6456 26.42C66.5556 26.48 66.4156 26.51 66.2256 26.51C66.0656 26.51 65.9706 26.505 65.9406 26.495C65.8806 26.475 65.8306 26.43 65.7906 26.36C65.7406 26.29 65.7056 26.155 65.6856 25.955C65.6756 25.805 65.6856 25.175 65.7156 24.065C65.7256 23.585 65.7306 23.035 65.7306 22.415C65.7306 22.015 65.7256 21.8 65.7156 21.77C65.6856 21.68 65.6056 21.62 65.4756 21.59C65.2956 21.57 64.9406 21.56 64.4106 21.56C63.7506 21.56 63.3556 21.54 63.2256 21.5C63.0356 21.45 62.9206 21.355 62.8806 21.215C62.8606 21.155 62.8506 21.105 62.8506 21.065C62.8506 20.965 62.8856 20.865 62.9556 20.765C63.0256 20.675 63.1806 20.605 63.4206 20.555C63.6206 20.515 64.0156 20.495 64.6056 20.495C65.2356 20.485 65.5906 20.465 65.6706 20.435C65.7106 20.405 65.7306 19.85 65.7306 18.77C65.7306 17.67 65.7506 17.065 65.7906 16.955C65.8806 16.695 66.0156 16.54 66.1956 16.49ZM57.4056 17.99C57.4056 17.92 57.4106 17.875 57.4206 17.855C57.4306 17.825 57.4806 17.765 57.5706 17.675L57.7506 17.51H60.0156C61.1356 17.51 61.8656 17.52 62.2056 17.54C62.4756 17.57 62.6756 17.65 62.8056 17.78C62.8856 17.85 62.9306 17.91 62.9406 17.96C62.9606 18.02 62.9606 18.165 62.9406 18.395C62.9106 18.955 62.6606 19.705 62.1906 20.645C61.8606 21.325 61.3556 22.135 60.6756 23.075C59.9856 24.015 59.4906 24.59 59.1906 24.8C59.0306 24.91 58.8806 24.965 58.7406 24.965C58.6306 24.965 58.5206 24.935 58.4106 24.875C58.2206 24.775 58.1256 24.64 58.1256 24.47C58.1256 24.28 58.2606 24.035 58.5306 23.735C59.4106 22.805 60.1356 21.88 60.7056 20.96C60.9256 20.59 61.1406 20.13 61.3506 19.58C61.5606 19.04 61.6356 18.73 61.5756 18.65C61.5256 18.59 60.8756 18.555 59.6256 18.545C58.5256 18.515 57.8906 18.48 57.7206 18.44C57.5306 18.39 57.4256 18.27 57.4056 18.08V17.99ZM73.0213 16.175C73.2713 16.125 73.4513 16.1 73.5613 16.1C73.7113 16.1 73.9563 16.135 74.2963 16.205L74.5963 16.265L75.1213 16.37C75.2513 16.41 75.4163 16.48 75.6163 16.58C76.2263 16.89 76.6363 17.43 76.8463 18.2L76.9363 18.62V18.695C76.9363 18.745 76.9263 18.85 76.9063 19.01C76.8263 19.43 76.6713 19.81 76.4413 20.15C76.1713 20.51 75.8763 20.76 75.5563 20.9C74.9763 21.16 74.3913 21.29 73.8013 21.29C73.4513 21.29 73.1213 21.245 72.8113 21.155C72.6713 21.125 72.3763 21 71.9263 20.78C71.0063 20.34 70.5463 19.705 70.5463 18.875C70.5463 18.505 70.6513 18.135 70.8613 17.765C71.1413 17.255 71.5213 16.86 72.0013 16.58C72.1713 16.48 72.3363 16.395 72.4963 16.325C72.5663 16.295 72.7413 16.245 73.0213 16.175ZM68.6263 22.28C68.6263 22.19 68.6763 22.095 68.7763 21.995C68.8563 21.895 68.9563 21.83 69.0763 21.8C69.1863 21.78 70.7363 21.76 73.7263 21.74H73.9963C76.0863 21.74 77.3813 21.75 77.8813 21.77C78.2513 21.78 78.4763 21.86 78.5563 22.01L78.5713 22.025C78.6013 22.095 78.6163 22.18 78.6163 22.28C78.6163 22.46 78.5563 22.6 78.4363 22.7C78.3663 22.76 78.2363 22.795 78.0463 22.805L77.4763 22.82L76.3363 22.805L74.6563 22.79C74.4563 22.8 74.3313 22.83 74.2813 22.88C74.2313 22.95 74.1963 23.22 74.1763 23.69C74.1663 24.12 74.1263 24.4 74.0563 24.53C73.9963 24.66 73.8513 24.725 73.6213 24.725C73.3313 24.725 73.1363 24.63 73.0363 24.44C72.9963 24.37 72.9763 24.225 72.9763 24.005C72.9763 23.855 72.9813 23.73 72.9913 23.63C73.0013 23.2 72.9863 22.95 72.9463 22.88C72.9063 22.82 72.7913 22.785 72.6013 22.775C72.5213 22.765 72.2363 22.76 71.7463 22.76L70.9063 22.745L68.9563 22.73L68.7913 22.565C68.6813 22.435 68.6263 22.34 68.6263 22.28ZM70.1863 25.535C70.1863 24.865 70.2013 24.395 70.2313 24.125C70.2513 24.015 70.2863 23.94 70.3363 23.9C70.4263 23.83 70.5213 23.795 70.6213 23.795C70.7013 23.795 70.8013 23.82 70.9213 23.87C71.0513 23.91 71.1463 24.02 71.2063 24.2C71.2663 24.41 71.3013 24.685 71.3113 25.025C71.3213 25.385 71.3413 25.605 71.3713 25.685C71.4013 25.715 72.3413 25.73 74.1913 25.73H76.9663L77.1313 25.91C77.2213 26 77.2763 26.12 77.2963 26.27V26.315C77.2963 26.425 77.2613 26.53 77.1913 26.63C77.0913 26.76 76.9063 26.84 76.6363 26.87C76.5463 26.88 76.2913 26.885 75.8713 26.885C75.3113 26.885 74.8313 26.88 74.4313 26.87C71.9313 26.85 70.6013 26.79 70.4413 26.69C70.3213 26.61 70.2463 26.48 70.2163 26.3C70.1963 26.1 70.1863 25.845 70.1863 25.535ZM71.6713 18.86C71.6713 19.09 71.7163 19.275 71.8063 19.415C71.8963 19.555 72.0663 19.705 72.3163 19.865C72.5163 19.985 72.7263 20.07 72.9463 20.12C73.0963 20.15 73.2863 20.165 73.5163 20.165C74.2463 20.165 74.8113 20.035 75.2113 19.775C75.5613 19.545 75.7363 19.215 75.7363 18.785C75.7363 18.365 75.6213 18.025 75.3913 17.765C75.1713 17.515 74.7963 17.33 74.2663 17.21C74.0463 17.16 73.8513 17.135 73.6813 17.135C73.4713 17.135 73.2663 17.165 73.0663 17.225C72.8563 17.295 72.6863 17.37 72.5563 17.45C72.4163 17.54 72.2863 17.65 72.1663 17.78C71.8563 18.12 71.6913 18.48 71.6713 18.86ZM90.8836 16.49C90.9936 16.47 91.0986 16.465 91.1986 16.475C91.1986 16.485 91.2036 16.49 91.2136 16.49C91.3836 16.51 91.4836 16.595 91.5136 16.745C91.5536 16.935 91.5786 17.5 91.5886 18.44V18.605C91.5986 19.885 91.6236 20.55 91.6636 20.6C91.6936 20.65 91.9486 20.675 92.4286 20.675C92.9286 20.675 93.2686 20.715 93.4486 20.795C93.6186 20.875 93.7036 21.035 93.7036 21.275C93.7036 21.495 93.6086 21.64 93.4186 21.71C93.2286 21.8 92.8936 21.845 92.4136 21.845C92.0336 21.845 91.8036 21.87 91.7236 21.92C91.6836 21.96 91.6536 22.08 91.6336 22.28C91.6236 22.49 91.6086 23.1 91.5886 24.11L91.5586 26.21L91.4236 26.36C91.3336 26.46 91.2086 26.51 91.0486 26.51C90.8786 26.51 90.7386 26.465 90.6286 26.375L90.4636 26.24L90.4186 25.415L90.4036 24.65C90.4036 24.42 90.4136 23.935 90.4336 23.195C90.4536 22.495 90.4636 21.94 90.4636 21.53L90.4486 20.225L90.4336 19.025C90.4336 18.635 90.4436 18.22 90.4636 17.78C90.4736 17.55 90.4936 17.295 90.5236 17.015C90.5336 16.895 90.5736 16.795 90.6436 16.715C90.7136 16.585 90.7936 16.51 90.8836 16.49ZM82.6636 21.215C82.6636 20.425 82.8186 19.735 83.1286 19.145C83.5686 18.335 84.1036 17.835 84.7336 17.645C84.8636 17.595 85.0486 17.57 85.2886 17.57C85.5186 17.57 85.7386 17.59 85.9486 17.63C86.4586 17.74 86.8586 17.895 87.1486 18.095C87.4686 18.325 87.7536 18.71 88.0036 19.25C88.2436 19.8 88.3636 20.325 88.3636 20.825C88.3636 21.635 88.2136 22.365 87.9136 23.015C87.6136 23.665 87.2086 24.11 86.6986 24.35C86.5486 24.43 86.4136 24.48 86.2936 24.5C86.1536 24.52 85.9386 24.53 85.6486 24.53C85.2786 24.53 84.9836 24.505 84.7636 24.455C84.5636 24.415 84.3186 24.31 84.0286 24.14C83.8486 24.05 83.6586 23.885 83.4586 23.645C83.2486 23.425 83.1036 23.23 83.0236 23.06C82.7836 22.53 82.6636 21.915 82.6636 21.215ZM83.8336 21.935C83.9236 22.425 84.1036 22.8 84.3736 23.06C84.6536 23.32 85.0536 23.45 85.5736 23.45C85.7536 23.45 85.8936 23.44 85.9936 23.42C86.0236 23.41 86.1236 23.36 86.2936 23.27C86.6136 23.04 86.8636 22.695 87.0436 22.235C87.1336 21.975 87.1786 21.555 87.1786 20.975C87.1786 20.605 87.1436 20.29 87.0736 20.03C86.9636 19.71 86.8036 19.42 86.5936 19.16C86.3736 18.91 86.1536 18.75 85.9336 18.68C85.8236 18.64 85.6986 18.62 85.5586 18.62C85.1786 18.62 84.7986 18.815 84.4186 19.205C84.1586 19.465 83.9786 19.82 83.8786 20.27C83.7986 20.57 83.7586 20.865 83.7586 21.155C83.7586 21.375 83.7836 21.635 83.8336 21.935ZM96.5479 16.1C97.3279 16.1 97.7929 16.095 97.9429 16.085H98.0929C98.2329 16.085 98.3329 16.1 98.3929 16.13C98.4929 16.18 98.5629 16.255 98.6029 16.355C98.6529 16.455 98.6779 16.535 98.6779 16.595C98.6779 16.625 98.6679 16.67 98.6479 16.73C98.5979 16.85 98.5129 16.95 98.3929 17.03C98.3229 17.08 98.2179 17.115 98.0779 17.135C98.0179 17.145 97.8279 17.15 97.5079 17.15L96.9529 17.165H96.4579C96.1179 17.165 95.8479 17.155 95.6479 17.135C95.4479 17.125 95.3079 17.06 95.2279 16.94C95.1779 16.88 95.1529 16.8 95.1529 16.7C95.1529 16.55 95.1979 16.415 95.2879 16.295L95.4229 16.115L96.5479 16.1ZM93.9979 18.545C93.9979 18.375 94.0329 18.255 94.1029 18.185C94.1529 18.115 94.2679 18.065 94.4479 18.035C94.6479 17.995 94.9829 17.97 95.4529 17.96C96.0129 17.93 96.8679 17.915 98.0179 17.915L99.8179 17.93L99.9529 18.08C100.043 18.18 100.088 18.3 100.088 18.44C100.088 18.57 100.038 18.68 99.9379 18.77C99.8379 18.85 99.7479 18.905 99.6679 18.935C99.6179 18.945 99.4229 18.95 99.0829 18.95L98.4829 18.965H98.3929C97.8329 18.985 97.5179 19.005 97.4479 19.025C97.3579 19.065 97.3129 19.18 97.3129 19.37V19.4C97.3129 19.55 97.3529 19.665 97.4329 19.745C97.5329 19.855 97.6929 19.985 97.9129 20.135C98.0329 20.205 98.2329 20.34 98.5129 20.54C98.7329 20.71 98.9329 20.85 99.1129 20.96C99.3429 21.09 99.5579 21.255 99.7579 21.455C99.9379 21.645 100.028 21.79 100.028 21.89C100.028 22.01 99.9729 22.115 99.8629 22.205C99.7429 22.295 99.6079 22.34 99.4579 22.34C99.3379 22.34 99.2429 22.32 99.1729 22.28C99.0229 22.19 98.8829 22.095 98.7529 21.995C97.5429 21.095 96.8579 20.695 96.6979 20.795C96.6379 20.825 96.4179 21.03 96.0379 21.41C95.6279 21.84 95.3829 22.11 95.3029 22.22C95.2029 22.35 95.0729 22.45 94.9129 22.52C94.7429 22.6 94.6079 22.625 94.5079 22.595C94.4279 22.575 94.3279 22.515 94.2079 22.415C94.0879 22.305 94.0279 22.19 94.0279 22.07C94.0279 21.83 94.2179 21.55 94.5979 21.23C95.5079 20.44 95.9929 19.98 96.0529 19.85C96.1129 19.72 96.1529 19.6 96.1729 19.49C96.1829 19.36 96.1829 19.26 96.1729 19.19C96.1529 19.14 96.0979 19.105 96.0079 19.085C95.9679 19.075 95.8329 19.07 95.6029 19.07L95.1979 19.055C94.7579 19.045 94.4829 19.03 94.3729 19.01C94.2729 18.99 94.1929 18.955 94.1329 18.905C94.0429 18.825 93.9979 18.705 93.9979 18.545ZM95.8579 24.23C95.8579 23.8 95.8679 23.505 95.8879 23.345C95.8979 23.185 95.9779 23.065 96.1279 22.985C96.1879 22.955 96.3979 22.93 96.7579 22.91H99.2329C99.2829 22.91 99.3279 22.915 99.3679 22.925C100.878 22.935 101.768 22.95 102.038 22.97C102.318 23 102.508 23.095 102.608 23.255C102.608 23.265 102.613 23.27 102.623 23.27C102.673 23.35 102.703 23.465 102.713 23.615C102.723 23.665 102.728 23.81 102.728 24.05C102.728 24.37 102.723 24.645 102.713 24.875C102.713 25.655 102.698 26.14 102.668 26.33C102.638 26.52 102.548 26.66 102.398 26.75C102.288 26.83 102.068 26.875 101.738 26.885C101.588 26.895 101.163 26.9 100.463 26.9L99.1729 26.915C97.8129 26.915 97.0429 26.91 96.8629 26.9C96.5829 26.89 96.3879 26.86 96.2779 26.81C96.1779 26.77 96.1029 26.725 96.0529 26.675C96.0029 26.625 95.9629 26.525 95.9329 26.375C95.9129 26.255 95.8929 26.075 95.8729 25.835C95.8629 25.705 95.8579 25.365 95.8579 24.815V24.23ZM96.9229 25.13C96.9229 25.52 96.9429 25.735 96.9829 25.775C97.0129 25.805 97.3129 25.82 97.8829 25.82L99.1579 25.805C100.588 25.785 101.338 25.77 101.408 25.76C101.458 25.75 101.493 25.705 101.513 25.625C101.523 25.575 101.528 25.335 101.528 24.905C101.528 24.355 101.513 24.065 101.483 24.035C101.403 24.005 100.658 23.985 99.2479 23.975H98.1529C97.4029 23.975 97.0179 23.98 96.9979 23.99C96.9479 24.01 96.9229 24.39 96.9229 25.13ZM101.948 22.13C101.938 22.06 101.933 21.76 101.933 21.23C101.933 20.44 101.938 19.755 101.948 19.175C101.978 17.415 102.008 16.505 102.038 16.445C102.068 16.385 102.143 16.315 102.263 16.235C102.333 16.185 102.413 16.145 102.503 16.115C102.543 16.115 102.613 16.14 102.713 16.19H102.743C102.883 16.27 102.968 16.435 102.998 16.685C103.018 17.025 103.028 17.905 103.028 19.325L103.043 19.475L103.058 22.46L102.908 22.595C102.808 22.685 102.678 22.73 102.518 22.73C102.198 22.73 102.008 22.53 101.948 22.13ZM108.889 15.905C109.069 15.855 109.259 15.83 109.459 15.83C109.859 15.83 110.384 15.915 111.034 16.085C111.244 16.145 111.449 16.23 111.649 16.34C111.899 16.49 112.074 16.615 112.174 16.715C112.564 17.105 112.759 17.605 112.759 18.215C112.759 18.885 112.549 19.43 112.129 19.85C111.839 20.13 111.384 20.345 110.764 20.495C110.404 20.585 110.069 20.63 109.759 20.63C109.229 20.63 108.689 20.495 108.139 20.225C107.559 19.955 107.149 19.61 106.909 19.19C106.749 18.94 106.669 18.68 106.669 18.41C106.669 18.24 106.699 18.075 106.759 17.915C106.949 17.375 107.209 16.95 107.539 16.64C107.859 16.33 108.309 16.085 108.889 15.905ZM104.779 21.56C104.779 21.4 104.859 21.27 105.019 21.17C105.079 21.14 105.384 21.115 105.934 21.095H109.774L111.739 21.11C112.859 21.11 113.519 21.115 113.719 21.125C114.169 21.135 114.434 21.165 114.514 21.215C114.604 21.275 114.664 21.37 114.694 21.5C114.704 21.54 114.709 21.6 114.709 21.68C114.709 21.77 114.699 21.835 114.679 21.875C114.669 21.885 114.664 21.9 114.664 21.92C114.624 22.05 114.424 22.125 114.064 22.145L113.179 22.16L110.404 22.13H109.804C106.734 22.08 105.154 22.04 105.064 22.01C104.874 21.95 104.779 21.8 104.779 21.56ZM106.519 22.805L106.744 22.73C106.914 22.67 107.884 22.64 109.654 22.64H112.324L112.489 22.775C112.609 22.885 112.684 23.015 112.714 23.165C112.734 23.285 112.744 23.435 112.744 23.615L112.729 24.11L112.714 24.47C112.714 24.68 112.709 24.805 112.699 24.845C112.679 24.945 112.634 25.03 112.564 25.1L112.399 25.28L111.574 25.325C110.794 25.345 110.024 25.355 109.264 25.355H108.514C108.014 25.355 107.759 25.36 107.749 25.37C107.729 25.39 107.709 25.475 107.689 25.625C107.679 25.755 107.679 25.86 107.689 25.94L107.734 26.09L110.194 26.075L111.649 26.06C111.859 26.06 112.014 26.06 112.114 26.06C112.224 26.07 112.304 26.075 112.354 26.075C112.594 26.095 112.749 26.13 112.819 26.18C112.969 26.27 113.044 26.405 113.044 26.585C113.044 26.785 112.954 26.935 112.774 27.035C112.704 27.075 112.514 27.105 112.204 27.125C111.994 27.135 111.189 27.14 109.789 27.14H109.549C108.139 27.14 107.314 27.125 107.074 27.095C106.824 27.065 106.669 26.96 106.609 26.78L106.594 26.75C106.554 26.61 106.534 26.37 106.534 26.03C106.534 25.38 106.559 24.945 106.609 24.725V24.695C106.669 24.485 106.799 24.365 106.999 24.335C107.159 24.315 107.439 24.305 107.839 24.305L109.024 24.32H109.129L110.569 24.335C111.069 24.335 111.359 24.325 111.439 24.305C111.529 24.265 111.579 24.23 111.589 24.2C111.609 24.16 111.619 24.085 111.619 23.975V23.705L110.599 23.675C109.739 23.655 108.929 23.645 108.169 23.645C107.219 23.645 106.704 23.615 106.624 23.555C106.484 23.465 106.414 23.34 106.414 23.18C106.414 23.14 106.424 23.08 106.444 23L106.519 22.805ZM107.824 18.11C107.804 18.18 107.794 18.28 107.794 18.41C107.794 18.56 107.824 18.69 107.884 18.8C107.994 18.98 108.194 19.145 108.484 19.295C108.614 19.355 108.749 19.395 108.889 19.415C109.029 19.435 109.324 19.445 109.774 19.445C110.334 19.445 110.689 19.425 110.839 19.385C110.989 19.345 111.149 19.24 111.319 19.07C111.439 18.94 111.519 18.825 111.559 18.725C111.599 18.635 111.619 18.48 111.619 18.26C111.619 17.88 111.539 17.595 111.379 17.405C111.219 17.215 110.939 17.065 110.539 16.955C110.289 16.895 110.004 16.865 109.684 16.865C109.354 16.865 109.119 16.9 108.979 16.97C108.309 17.24 107.924 17.62 107.824 18.11ZM125.913 16.175C126.033 16.155 126.108 16.145 126.138 16.145C126.288 16.145 126.398 16.19 126.468 16.28C126.538 16.34 126.583 16.425 126.603 16.535C126.613 16.605 126.618 16.955 126.618 17.585V18.74L126.738 18.8C126.858 18.83 127.153 18.845 127.623 18.845C127.923 18.845 128.153 18.88 128.313 18.95C128.493 19.06 128.598 19.19 128.628 19.34V19.385C128.628 19.545 128.563 19.675 128.433 19.775C128.353 19.825 128.273 19.855 128.193 19.865C128.133 19.875 128.068 19.88 127.998 19.88C127.928 19.87 127.858 19.865 127.788 19.865H127.308C126.968 19.865 126.763 19.89 126.693 19.94C126.653 19.97 126.623 20.045 126.603 20.165C126.593 20.285 126.578 20.585 126.558 21.065C126.548 21.745 126.528 22.11 126.498 22.16L126.483 22.19C126.483 22.23 126.533 22.3 126.633 22.4C126.763 22.52 126.848 22.65 126.888 22.79C126.918 22.88 126.933 22.96 126.933 23.03C126.933 23.06 126.923 23.105 126.903 23.165C126.853 23.265 126.773 23.35 126.663 23.42C126.573 23.46 126.458 23.49 126.318 23.51C126.218 23.52 125.858 23.525 125.238 23.525C124.458 23.525 124.018 23.535 123.918 23.555C123.868 23.575 123.843 23.695 123.843 23.915V24.02C123.843 24.17 123.863 24.285 123.903 24.365C123.953 24.415 124.068 24.485 124.248 24.575L124.893 24.875C125.133 24.985 125.448 25.11 125.838 25.25C125.868 25.26 126.043 25.325 126.363 25.445C126.563 25.525 126.713 25.58 126.813 25.61C127.083 25.68 127.273 25.82 127.383 26.03C127.433 26.13 127.458 26.21 127.458 26.27C127.458 26.37 127.418 26.47 127.338 26.57C127.238 26.7 127.103 26.765 126.933 26.765C126.703 26.765 126.413 26.68 126.063 26.51C125.763 26.37 125.503 26.255 125.283 26.165L123.783 25.49C123.533 25.37 123.353 25.31 123.243 25.31C123.173 25.31 122.918 25.47 122.478 25.79C121.918 26.2 121.418 26.51 120.978 26.72C120.748 26.82 120.553 26.87 120.393 26.87C120.113 26.87 119.938 26.76 119.868 26.54C119.858 26.51 119.853 26.47 119.853 26.42C119.853 26.32 119.893 26.23 119.973 26.15C120.063 26.05 120.328 25.865 120.768 25.595L121.638 25.07L121.728 24.995L121.923 24.86C122.023 24.78 122.098 24.725 122.148 24.695C122.358 24.555 122.488 24.45 122.538 24.38C122.588 24.31 122.628 24.225 122.658 24.125C122.688 24.005 122.703 23.905 122.703 23.825C122.703 23.665 122.648 23.575 122.538 23.555C122.498 23.545 122.083 23.525 121.293 23.495C120.643 23.475 120.263 23.45 120.153 23.42C120.003 23.39 119.903 23.305 119.853 23.165V23.105C119.853 23.015 119.873 22.925 119.913 22.835C119.973 22.705 120.048 22.61 120.138 22.55C120.218 22.5 120.388 22.47 120.648 22.46H122.718C124.348 22.46 125.208 22.44 125.298 22.4L125.448 22.325L125.478 20.27C125.518 17.8 125.593 16.49 125.703 16.34C125.773 16.24 125.843 16.185 125.913 16.175ZM118.773 19.22V19.205C118.793 18.065 118.813 17.41 118.833 17.24C118.843 17.03 118.928 16.865 119.088 16.745C119.168 16.695 119.268 16.665 119.388 16.655C119.438 16.645 119.593 16.64 119.853 16.64L120.333 16.625C121.073 16.625 121.658 16.61 122.088 16.58L122.448 16.55C122.598 16.55 122.708 16.545 122.778 16.535H122.958H123.033C123.143 16.535 123.258 16.56 123.378 16.61C123.508 16.68 123.603 16.77 123.663 16.88C123.713 16.95 123.748 17.095 123.768 17.315C123.778 17.455 123.783 18.045 123.783 19.085C123.783 20.175 123.768 20.82 123.738 21.02C123.708 21.21 123.618 21.36 123.468 21.47C123.388 21.52 123.243 21.55 123.033 21.56C122.883 21.57 122.278 21.575 121.218 21.575H119.118L118.938 21.425L118.758 21.26L118.773 19.22ZM119.898 20.45C119.948 20.5 120.403 20.525 121.263 20.525C122.133 20.525 122.573 20.51 122.583 20.48C122.603 20.44 122.613 19.97 122.613 19.07L122.628 17.72L121.578 17.645C120.938 17.605 120.508 17.585 120.288 17.585C120.138 17.585 120.033 17.615 119.973 17.675C119.923 17.725 119.898 17.765 119.898 17.795L119.868 19.73C119.868 20.15 119.878 20.39 119.898 20.45ZM137.515 16.475C137.635 16.425 137.705 16.4 137.725 16.4H137.755C137.795 16.4 137.865 16.425 137.965 16.475C138.075 16.545 138.135 16.605 138.145 16.655C138.175 16.685 138.2 18.315 138.22 21.545L138.235 26.33L138.115 26.45C138.025 26.54 137.88 26.585 137.68 26.585C137.48 26.585 137.34 26.54 137.26 26.45C137.16 26.32 137.11 24.71 137.11 21.62V20.225L137.125 18.8C137.125 17.99 137.13 17.51 137.14 17.36C137.16 17.02 137.19 16.815 137.23 16.745C137.31 16.625 137.405 16.535 137.515 16.475ZM128.935 21.275C128.935 20.605 129.005 20.145 129.145 19.895C129.195 19.775 129.22 19.7 129.22 19.67C129.22 19.61 129.355 19.32 129.625 18.8C129.775 18.51 130.02 18.24 130.36 17.99C130.69 17.73 131.01 17.58 131.32 17.54C131.36 17.53 131.43 17.525 131.53 17.525C132.25 17.525 132.85 17.66 133.33 17.93C133.72 18.15 134.035 18.49 134.275 18.95C134.485 19.36 134.615 19.675 134.665 19.895C134.715 20.175 134.74 20.57 134.74 21.08C134.74 21.57 134.735 21.86 134.725 21.95C134.715 22.05 134.665 22.235 134.575 22.505C134.365 23.135 134.075 23.635 133.705 24.005C133.495 24.235 133.235 24.405 132.925 24.515C132.655 24.615 132.275 24.665 131.785 24.665C131.575 24.665 131.325 24.625 131.035 24.545C130.805 24.485 130.57 24.39 130.33 24.26C129.67 23.83 129.225 23.065 128.995 21.965C128.955 21.795 128.935 21.565 128.935 21.275ZM130.06 21.365C130.12 22.115 130.325 22.695 130.675 23.105C130.945 23.425 131.355 23.585 131.905 23.585C132.175 23.585 132.44 23.52 132.7 23.39C132.9 23.3 133.08 23.115 133.24 22.835C133.4 22.555 133.51 22.245 133.57 21.905C133.62 21.675 133.645 21.415 133.645 21.125C133.645 20.645 133.555 20.18 133.375 19.73C133.305 19.54 133.16 19.33 132.94 19.1C132.72 18.88 132.52 18.735 132.34 18.665C132.16 18.595 131.995 18.56 131.845 18.56C131.655 18.56 131.43 18.645 131.17 18.815C130.9 18.995 130.69 19.205 130.54 19.445C130.38 19.705 130.25 20.04 130.15 20.45C130.08 20.76 130.05 21.065 130.06 21.365ZM149.31 16.61C149.43 16.59 149.51 16.58 149.55 16.58C149.8 16.58 149.955 16.675 150.015 16.865C150.075 17.015 150.11 18.555 150.12 21.485C150.13 22.425 150.135 23.465 150.135 24.605V25.235C150.115 25.755 150.09 26.045 150.06 26.105C149.96 26.315 149.815 26.42 149.625 26.42C149.535 26.42 149.43 26.39 149.31 26.33C149.18 26.26 149.1 26.11 149.07 25.88C149.04 25.71 149.015 25.125 148.995 24.125C148.985 23.005 148.965 22.38 148.935 22.25C148.925 22.2 148.895 22.165 148.845 22.145C148.805 22.135 148.63 22.13 148.32 22.13C147.92 22.13 147.68 22.155 147.6 22.205C147.55 22.255 147.52 22.355 147.51 22.505C147.5 22.575 147.495 22.805 147.495 23.195L147.48 23.885C147.46 24.845 147.44 25.44 147.42 25.67C147.37 25.97 147.29 26.165 147.18 26.255C147.12 26.305 147.04 26.33 146.94 26.33C146.76 26.33 146.61 26.27 146.49 26.15C146.41 26.09 146.365 26.02 146.355 25.94C146.325 25.8 146.305 25.61 146.295 25.37L146.28 24.71C146.28 24.52 146.29 24.055 146.31 23.315L146.415 19.565C146.465 18.255 146.5 17.505 146.52 17.315C146.55 17.075 146.63 16.91 146.76 16.82C146.85 16.76 146.94 16.73 147.03 16.73C147.14 16.73 147.245 16.775 147.345 16.865L147.495 17L147.51 18.965C147.53 20.275 147.56 20.945 147.6 20.975C147.63 21.015 147.855 21.035 148.275 21.035C148.685 21.035 148.905 21.02 148.935 20.99C148.955 20.93 148.965 20.265 148.965 18.995C148.965 18.155 148.975 17.595 148.995 17.315C149.005 17.115 149.035 16.96 149.085 16.85C149.165 16.7 149.24 16.62 149.31 16.61ZM139.815 19.22C139.815 18.98 139.915 18.83 140.115 18.77C140.145 18.76 141.085 18.755 142.935 18.755L145.65 18.77L145.815 18.95C145.895 19.05 145.945 19.13 145.965 19.19V19.22C145.965 19.27 145.93 19.35 145.86 19.46C145.75 19.6 145.56 19.685 145.29 19.715C145.01 19.745 144.175 19.76 142.785 19.76C141.465 19.76 140.72 19.755 140.55 19.745C140.31 19.735 140.135 19.705 140.025 19.655C139.945 19.605 139.895 19.555 139.875 19.505C139.835 19.425 139.815 19.33 139.815 19.22ZM140.31 22.715C140.31 22.575 140.35 22.36 140.43 22.07C140.51 21.8 140.6 21.58 140.7 21.41C140.86 21.14 141.105 20.885 141.435 20.645C141.765 20.405 142.085 20.25 142.395 20.18C142.615 20.14 142.795 20.12 142.935 20.12C143.155 20.12 143.385 20.15 143.625 20.21C144.065 20.32 144.415 20.495 144.675 20.735C145.015 21.055 145.25 21.445 145.38 21.905C145.45 22.115 145.485 22.345 145.485 22.595C145.485 22.825 145.45 23.04 145.38 23.24C145.25 23.7 145.065 24.08 144.825 24.38C144.705 24.53 144.51 24.675 144.24 24.815C144 24.935 143.735 25.02 143.445 25.07C143.375 25.08 143.275 25.085 143.145 25.085C142.765 25.085 142.395 25.02 142.035 24.89C141.545 24.72 141.165 24.485 140.895 24.185C140.735 24.005 140.6 23.77 140.49 23.48C140.37 23.19 140.31 22.935 140.31 22.715ZM140.85 17.285C140.92 17.125 141.045 17.015 141.225 16.955C141.365 16.925 141.885 16.91 142.785 16.91C143.485 16.91 143.945 16.92 144.165 16.94C144.325 16.97 144.45 17.065 144.54 17.225C144.6 17.315 144.63 17.375 144.63 17.405C144.63 17.425 144.605 17.495 144.555 17.615C144.475 17.795 144.36 17.89 144.21 17.9C144.16 17.91 143.995 17.915 143.715 17.915C143.335 17.915 143.005 17.91 142.725 17.9C142.015 17.87 141.56 17.84 141.36 17.81C141.18 17.8 141.03 17.75 140.91 17.66C140.84 17.6 140.805 17.535 140.805 17.465C140.805 17.405 140.82 17.345 140.85 17.285ZM141.495 22.685C141.495 22.955 141.54 23.16 141.63 23.3C141.82 23.62 142.16 23.85 142.65 23.99C142.85 24.04 142.97 24.065 143.01 24.065C143.06 24.065 143.16 24.04 143.31 23.99C143.72 23.86 144.01 23.615 144.18 23.255C144.26 23.065 144.3 22.855 144.3 22.625C144.3 22.465 144.285 22.295 144.255 22.115C144.225 22.035 144.165 21.93 144.075 21.8C143.955 21.61 143.81 21.475 143.64 21.395C143.5 21.315 143.315 21.27 143.085 21.26L142.83 21.245C142.71 21.245 142.605 21.26 142.515 21.29C142.365 21.34 142.2 21.44 142.02 21.59C141.82 21.76 141.69 21.905 141.63 22.025C141.54 22.185 141.495 22.405 141.495 22.685ZM156.176 16.91C156.216 16.9 156.321 16.895 156.491 16.895C156.741 16.895 156.951 16.9 157.121 16.91C157.671 16.93 158.031 16.97 158.201 17.03C159.011 17.33 159.616 17.89 160.016 18.71L160.256 19.19V19.94C160.256 20.36 160.236 20.65 160.196 20.81C160.156 20.98 160.051 21.24 159.881 21.59C159.791 21.8 159.621 22.03 159.371 22.28C159.151 22.5 158.896 22.68 158.606 22.82C158.416 22.92 158.261 22.98 158.141 23C158.021 23.04 157.801 23.065 157.481 23.075C157.371 23.085 157.216 23.09 157.016 23.09C156.706 23.09 156.456 23.07 156.266 23.03C155.946 22.97 155.626 22.85 155.306 22.67C154.766 22.36 154.381 22.075 154.151 21.815C153.921 21.565 153.751 21.24 153.641 20.84C153.591 20.62 153.566 20.415 153.566 20.225C153.566 19.935 153.611 19.635 153.701 19.325C153.851 18.765 154.101 18.295 154.451 17.915C154.661 17.685 154.931 17.475 155.261 17.285C155.561 17.105 155.866 16.98 156.176 16.91ZM151.871 25.655C151.861 25.615 151.856 25.56 151.856 25.49C151.856 25.4 151.866 25.335 151.886 25.295C151.916 25.175 152.031 25.09 152.231 25.04C152.421 25 152.866 24.97 153.566 24.95L154.751 24.905L154.796 24.635C154.816 24.315 154.826 24.03 154.826 23.78C154.846 23.44 154.856 23.27 154.856 23.27C154.876 23.18 154.911 23.11 154.961 23.06C155.031 22.98 155.126 22.94 155.246 22.94C155.426 22.94 155.561 23.01 155.651 23.15C155.781 23.34 155.866 23.845 155.906 24.665L155.921 24.905L156.701 24.92C157.231 24.94 157.511 24.925 157.541 24.875C157.571 24.845 157.611 24.63 157.661 24.23C157.671 23.99 157.696 23.815 157.736 23.705C157.756 23.625 157.801 23.54 157.871 23.45C158.011 23.3 158.146 23.225 158.276 23.225C158.606 23.225 158.741 23.565 158.681 24.245V24.485C158.681 24.705 158.701 24.83 158.741 24.86C158.791 24.9 159.241 24.93 160.091 24.95C160.841 24.97 161.286 24.99 161.426 25.01C161.596 25.06 161.701 25.155 161.741 25.295C161.771 25.385 161.776 25.52 161.756 25.7L161.741 25.76C161.721 25.93 161.546 26.03 161.216 26.06L160.346 26.075L157.631 26.045H156.776C153.676 25.995 152.091 25.95 152.021 25.91C151.951 25.87 151.901 25.785 151.871 25.655ZM154.736 20.33C154.736 20.56 154.761 20.735 154.811 20.855C154.861 20.975 154.981 21.12 155.171 21.29C155.351 21.45 155.531 21.57 155.711 21.65L156.071 21.83C156.201 21.89 156.406 21.925 156.686 21.935C156.786 21.945 156.926 21.95 157.106 21.95C157.266 21.95 157.381 21.945 157.451 21.935C157.671 21.905 157.826 21.87 157.916 21.83C158.006 21.78 158.156 21.69 158.366 21.56C158.556 21.42 158.671 21.325 158.711 21.275C158.781 21.185 158.856 21.055 158.936 20.885C159.016 20.745 159.061 20.625 159.071 20.525C159.081 20.455 159.086 20.27 159.086 19.97C159.086 19.62 159.056 19.355 158.996 19.175C158.936 18.995 158.806 18.805 158.606 18.605C158.506 18.495 158.316 18.365 158.036 18.215C157.766 18.075 157.521 17.985 157.301 17.945C157.141 17.905 156.971 17.885 156.791 17.885C156.251 17.885 155.791 18.09 155.411 18.5C155.321 18.6 155.211 18.74 155.081 18.92C154.981 19.08 154.901 19.25 154.841 19.43C154.771 19.6 154.736 19.9 154.736 20.33ZM166.345 16.73C166.475 16.62 166.585 16.565 166.675 16.565C166.795 16.565 166.9 16.62 166.99 16.73C167.08 16.82 167.13 16.905 167.14 16.985C167.16 17.075 167.175 17.345 167.185 17.795C167.205 18.315 167.225 19.405 167.245 21.065C167.245 22.585 167.235 23.375 167.215 23.435C167.185 23.505 167.12 23.575 167.02 23.645C166.92 23.715 166.825 23.75 166.735 23.75C166.645 23.75 166.55 23.715 166.45 23.645C166.33 23.555 166.25 23.48 166.21 23.42C166.17 23.31 166.14 22.26 166.12 20.27V18.77C166.12 17.72 166.125 17.16 166.135 17.09C166.165 16.96 166.235 16.84 166.345 16.73ZM165.895 25.16C166.005 24.91 166.18 24.75 166.42 24.68L166.75 24.575C166.81 24.575 166.905 24.595 167.035 24.635C167.205 24.675 167.355 24.76 167.485 24.89C167.585 24.98 167.64 25.05 167.65 25.1C167.66 25.14 167.665 25.255 167.665 25.445C167.665 25.675 167.635 25.845 167.575 25.955C167.515 26.065 167.395 26.17 167.215 26.27C167.065 26.36 166.92 26.405 166.78 26.405C166.67 26.405 166.545 26.37 166.405 26.3C166.295 26.25 166.19 26.185 166.09 26.105C166.02 26.035 165.965 25.955 165.925 25.865C165.855 25.725 165.82 25.6 165.82 25.49C165.82 25.39 165.845 25.28 165.895 25.16Z" fill="#564141"/>
</svg>
