<svg width="360" height="330" viewBox="0 0 360 330" fill="none" xmlns="http://www.w3.org/2000/svg">
<rect width="360" height="330" rx="6" fill="url(#paint0_radial_1195_5284)"/>
<g filter="url(#filter0_d_1195_5284)">
<path fill-rule="evenodd" clip-rule="evenodd" d="M156.432 47.9258C155.828 47.975 155.299 48.0185 154.847 48.0558C153.624 48.1564 152.951 48.2118 152.818 48.2118C152.35 48.2638 152.038 48.3418 151.908 48.4978C151.778 48.6538 151.752 48.9398 151.804 49.3818C151.908 50.1098 151.96 50.8898 151.986 51.7478C151.986 52.6058 151.986 53.3078 151.96 53.8538C151.934 54.4258 151.882 55.2318 151.804 56.2718C151.7 57.3378 151.648 58.0658 151.648 58.4818V59.9898L143.874 60.8998C143.914 59.2053 143.956 57.5219 144 55.8509C144.02 55.0954 144.04 54.3424 144.06 53.5922C144.068 53.2906 144.076 52.9895 144.084 52.6889C144.129 51.0001 144.172 49.3253 144.212 47.6658L138.934 48.0558C138.933 48.0429 138.932 48.0302 138.932 48.0174C138.83 46.6385 138.804 45.9228 138.804 45.8198C138.768 45.2178 138.744 44.4366 138.715 43.4853C138.711 43.3469 138.707 43.2049 138.702 43.0593C138.694 42.7793 138.685 42.486 138.674 42.1798C138.622 40.6198 138.596 39.5278 138.596 38.9038C138.544 37.9678 138.986 37.4998 139.922 37.4998C140.068 37.5071 140.243 37.5164 140.445 37.5272C140.963 37.555 141.662 37.5924 142.522 37.6298C143.718 37.7078 144.628 37.7598 145.252 37.7598C145.98 37.7858 147.15 37.7858 148.788 37.7858C150.426 37.7858 151.622 37.7858 152.35 37.8118C153.182 37.8378 154.352 37.9678 155.912 38.2018C156.302 38.2538 156.562 38.3838 156.692 38.5398C156.822 38.6958 156.874 38.9818 156.874 39.3978C156.874 39.7098 156.848 40.1518 156.796 40.7238C156.779 40.9144 156.762 41.0878 156.746 41.2418C156.715 41.55 156.692 41.7811 156.692 41.9198C156.666 42.0758 156.64 42.8298 156.64 44.2078C156.614 45.3518 156.614 45.9758 156.614 46.0278C156.614 46.0578 156.603 46.169 156.583 46.3629C156.55 46.6718 156.496 47.1908 156.432 47.9258ZM156.625 33.2527C157.627 33.3938 159.289 33.8453 160.533 35.3388C160.703 35.5425 160.85 35.7484 160.976 35.9517C162.159 34.2319 163.967 33.3696 165.789 33.2624C165.815 33.2609 165.842 33.2595 165.868 33.2584C168.237 33.1565 170.297 33.0303 172.058 32.8815C172.087 32.879 172.117 32.8768 172.146 32.8748C173.474 32.7863 175.095 32.914 176.638 33.7308C176.676 33.7507 176.713 33.7711 176.75 33.7919C178.194 34.6039 179.131 35.8242 179.715 37.018C180.166 35.2457 181.57 33.8209 183.415 33.3867L183.427 33.3837L183.481 33.371C183.53 33.3593 183.605 33.3412 183.707 33.3165C183.91 33.2672 184.217 33.1921 184.621 33.0911C184.713 33.0682 184.805 33.0451 184.896 33.0221C185.181 32.9505 185.459 32.8809 185.676 32.8294C185.823 32.7946 186.011 32.7516 186.202 32.7152C186.3 32.6967 186.434 32.6729 186.589 32.6526C186.701 32.6377 186.908 32.6132 187.167 32.6059C190.709 32.4778 193.214 32.4192 194.528 32.4491C194.552 32.4496 194.575 32.4503 194.599 32.4512C197.326 32.5522 199.977 33.1702 202.309 34.5441C202.468 34.638 202.622 34.7407 202.77 34.8518C203.006 35.029 203.481 35.388 203.956 35.8622C204.025 35.9315 204.092 36.0028 204.157 36.0759C204.184 36.1062 204.214 36.1393 204.26 36.1892L204.276 36.2067C204.315 36.2494 204.374 36.3136 204.429 36.3753C204.495 36.4487 204.589 36.5551 204.69 36.6793C204.788 36.7981 204.921 36.9681 205.061 37.177C205.065 37.1822 205.071 37.1912 205.081 37.2052L205.099 37.2298C205.126 37.2684 205.172 37.3317 205.213 37.3908C205.331 37.5587 205.491 37.7916 205.666 38.0773C205.688 38.1129 205.711 38.1495 205.733 38.1862C205.806 38.3036 205.879 38.4225 205.938 38.519C205.978 38.586 206.026 38.6664 206.075 38.75C206.078 38.7566 206.083 38.7637 206.087 38.7713C206.58 39.5396 207.01 40.35 207.353 41.1974C207.6 39.4312 208.157 37.7131 209.122 36.1247C209.133 36.107 209.144 36.0893 209.155 36.0718C209.787 35.0607 210.744 34.0126 212.142 33.3393C213.576 32.6491 215.059 32.5525 216.37 32.7839C216.421 32.7929 216.473 32.8028 216.524 32.8136C216.578 32.8198 216.675 32.829 216.825 32.8389C217.155 32.8607 217.619 32.8783 218.251 32.8907C218.425 32.8942 218.6 32.9067 218.773 32.9284C219.634 33.036 220.308 33.2864 220.831 33.5476C221.311 33.788 221.75 34.1042 222.13 34.4842C223.477 35.8306 223.725 37.4571 223.725 38.4358C223.725 38.4196 223.725 38.4234 223.726 38.4496C223.727 38.5052 223.732 38.6616 223.745 38.9427C223.763 39.3193 223.793 39.8675 223.843 40.5878C223.861 40.8578 223.858 41.129 223.833 41.3985C223.793 41.8189 223.757 42.2053 223.724 42.5583C223.658 43.2593 223.605 43.8285 223.564 44.2705C223.533 44.6034 223.511 44.8488 223.497 45.0159C223.49 45.099 223.486 45.1481 223.484 45.1722C223.487 45.1292 223.491 45.0402 223.491 44.9358C223.491 45.2501 223.339 47.6726 223.091 51.5956C223.037 52.4492 222.979 53.1023 222.935 53.4642C222.88 53.9232 222.776 54.3427 222.637 54.7248C223.469 56.2862 223.457 57.9072 223.402 58.7364L223.4 58.76C223.333 59.6939 223.205 60.6383 223.059 61.5138C223.037 61.645 223.01 61.7753 222.977 61.9044C222.7 63.0127 222.133 63.7637 221.986 63.9572C221.98 63.9649 221.975 63.9718 221.971 63.9778C221.829 64.167 221.674 64.346 221.506 64.5133C221.337 64.6828 221.029 64.9739 220.608 65.255C220.374 65.4109 219.635 65.893 218.547 66.0688C218.022 66.1629 217.058 66.2997 215.783 66.4592C215.258 66.5248 214.731 66.5061 214.222 66.4085C214.033 66.4014 213.837 66.3901 213.643 66.3719C213.412 66.3503 213.07 66.3092 212.686 66.2174C212.354 66.1383 211.65 65.9452 210.907 65.45C209.694 64.641 209.135 63.5432 208.939 63.1349C208.679 62.593 208.508 62.0526 208.389 61.6174L208.377 61.5742C208.206 60.9236 208.097 60.3829 208.021 59.9278C207.822 58.7365 207.971 57.6614 208.164 56.8426C208.169 56.82 208.174 56.7975 208.18 56.7751C208.241 56.5308 208.318 56.2714 208.415 56.0026C207.737 55.048 207.447 54.016 207.356 53.1552C207.355 53.1423 207.354 53.1293 207.352 53.1163C207.351 53.1057 207.35 53.0951 207.349 53.0844C207.252 52.0102 207.171 51.0518 207.113 50.2469C206.975 50.5175 206.827 50.781 206.672 51.0373C205.711 52.6228 204.286 54.0381 202.328 54.8049C201.093 55.3136 199.876 55.7373 198.676 56.0763C198.803 57.6715 198.904 58.8807 198.979 59.7323C198.981 59.76 198.983 59.7878 198.985 59.8155C199.016 60.2384 199.038 60.9845 198.826 61.8329C198.598 62.7461 198.008 64.0886 196.59 65.034L193.816 60.8738C193.972 60.7698 194.024 60.5358 193.998 60.1718C193.92 59.2878 193.816 58.0398 193.686 56.4018C193.601 55.3274 193.538 54.4543 193.49 53.79C193.465 53.4415 193.444 53.1504 193.426 52.9178C193.374 52.6058 193.426 52.3718 193.53 52.2158C193.634 52.0598 193.816 51.9818 194.128 51.9298C196.104 51.6698 198.21 51.0978 200.472 50.1618C201.226 49.8758 201.876 49.3038 202.396 48.4458C202.916 47.5878 203.202 46.7558 203.254 45.9238C203.306 44.4158 202.812 42.8818 201.798 41.3478C201.753 41.2574 201.649 41.0886 201.486 40.8243C201.461 40.7843 201.435 40.7422 201.408 40.6978C201.266 40.4673 201.136 40.2851 201.035 40.1431C200.988 40.0769 200.947 40.0194 200.914 39.9698C200.84 39.8582 200.725 39.7333 200.59 39.5857C200.536 39.5268 200.479 39.4644 200.42 39.3978C200.212 39.1898 199.978 39.0078 199.77 38.8518C198.314 37.9938 196.52 37.5258 194.414 37.4478C193.27 37.4218 190.904 37.4738 187.316 37.6038C187.181 37.6038 186.791 37.7017 186.146 37.8635C186.048 37.8882 185.944 37.9143 185.834 37.9418C185.002 38.1498 184.56 38.2538 184.56 38.2538C184.56 38.2648 184.559 38.3145 184.557 38.4033C184.549 38.7329 184.529 39.602 184.508 41.0358L184.507 41.0738C184.455 42.6595 184.378 45.013 184.326 48.1598C184.302 49.6216 184.278 50.9177 184.254 52.0482C184.236 52.9101 184.218 53.6758 184.199 54.3451C184.196 54.4567 184.193 54.5656 184.19 54.6719C184.184 54.9062 184.177 55.1275 184.17 55.3358C184.166 55.4787 184.161 55.6353 184.155 55.8056C184.151 55.9357 184.146 56.0738 184.141 56.2199C184.14 56.2563 184.138 56.2932 184.137 56.3306C184.121 56.7613 184.101 57.2584 184.075 57.823C184.072 57.8786 184.07 57.9347 184.067 57.9916C184.067 57.9916 184.067 57.9916 184.067 57.9916C184.061 58.1227 184.055 58.2573 184.048 58.3953C184.045 58.4554 184.042 58.5162 184.039 58.5776C184.035 58.6568 184.031 58.737 184.027 58.8183C184.023 58.8966 184.019 58.976 184.015 59.0563C184.012 59.1241 184.008 59.1926 184.005 59.2618C183.999 59.3642 183.994 59.4682 183.988 59.5738C183.988 59.6848 183.95 59.8338 183.907 60.0045C183.899 60.0337 183.892 60.0634 183.884 60.0938C183.88 60.1115 183.876 60.1289 183.872 60.1458C183.869 60.1607 183.865 60.1753 183.862 60.1896C183.852 60.2299 183.843 60.2676 183.834 60.3028C183.803 60.426 183.78 60.5184 183.78 60.5878C183.754 60.6918 183.78 60.7438 183.832 60.7958C184.169 60.8123 184.492 60.828 184.8 60.8428C185.308 60.8672 185.778 60.8891 186.21 60.9087C186.622 60.9274 186.999 60.9439 187.342 60.9583C187.529 60.9661 187.705 60.9733 187.871 60.9798C188.208 60.993 188.503 61.0036 188.757 61.0116C188.758 61.0116 188.759 61.0116 188.761 61.0117C188.761 61.0117 188.762 61.0117 188.762 61.0117C188.778 61.0122 188.793 61.0127 188.808 61.0131C189.169 61.0242 189.443 61.0298 189.63 61.0298C190.618 61.0818 191.788 61.0818 193.14 61.0558C193.452 61.0558 193.66 60.9778 193.816 60.8738L196.59 65.034C195.584 65.7043 194.423 66.0442 193.203 66.0555C191.878 66.0806 190.62 66.0838 189.491 66.0291C188.562 66.0208 186.544 65.9352 183.586 65.7897C182.832 65.7527 182.103 65.5458 181.45 65.1919C181.383 65.1951 181.33 65.1963 181.296 65.1969C181.263 65.1975 181.235 65.1976 181.219 65.1977L181.189 65.1978H181.186C180.757 65.1978 180.073 65.1978 179.139 65.1695C178.846 65.1606 178.595 65.1525 178.38 65.1455C177.892 65.1297 177.585 65.1198 177.367 65.1198C176.717 65.1198 176.146 65.1379 175.632 65.1714C174.82 65.2771 173.419 65.2987 172.029 64.4775C170.991 63.8885 170.365 63.062 170.021 62.4533C169.911 62.2591 169.819 62.0689 169.742 61.8881C169.634 62.1545 169.351 62.7905 168.843 63.4253C168.64 63.6786 168.297 64.0702 167.802 64.4415C167.426 64.724 166.435 65.397 164.986 65.4761C163.365 65.5831 161.765 65.6378 160.163 65.6397C158.793 65.6707 156.735 65.2243 155.411 63.2826C154.62 64.1869 153.504 64.8067 152.23 64.9559L144.456 65.8659C143.018 66.0342 141.578 65.5711 140.508 64.5965C139.438 63.6219 138.842 62.2313 138.876 60.7842C138.932 58.3372 138.998 55.8675 139.062 53.4365C139.066 53.3089 139.069 53.1814 139.072 53.054C136.417 53.1293 134.146 51.1015 133.948 48.4251C133.862 47.2611 133.82 46.4466 133.808 46.0268C133.77 45.3569 133.743 44.4914 133.715 43.5432C133.703 43.1555 133.691 42.7539 133.677 42.3463C133.628 40.8634 133.599 39.7336 133.597 39.01C133.558 37.7952 133.8 35.9568 135.254 34.4177C136.779 32.8027 138.709 32.4998 139.922 32.4998C140.006 32.4998 140.089 32.5018 140.172 32.506C140.341 32.5145 140.53 32.5246 140.743 32.536C141.256 32.5634 141.906 32.5982 142.74 32.6345C142.776 32.6361 142.812 32.638 142.848 32.6404C144.082 32.7209 144.822 32.7598 145.252 32.7598C145.312 32.7598 145.371 32.7608 145.431 32.763C146.046 32.7849 147.099 32.7858 148.788 32.7858L148.918 32.7858C150.439 32.7857 151.699 32.7857 152.518 32.8146C153.645 32.8506 155.038 33.0152 156.625 33.2527ZM159.505 60.4058C159.609 60.5878 159.817 60.6658 160.077 60.6398C160.914 60.6398 161.752 60.6243 162.593 60.5933C162.833 60.5844 163.074 60.5743 163.315 60.563C163.66 60.5467 164.005 60.5279 164.351 60.5065C164.359 60.506 164.367 60.5055 164.374 60.505C164.484 60.4982 164.595 60.4911 164.705 60.4838C164.757 60.4838 164.835 60.4318 164.939 60.3018C165.043 60.1718 165.095 60.0418 165.147 59.9118C165.198 59.7082 165.254 59.4742 165.318 59.2097C165.45 58.6636 165.613 57.9876 165.823 57.1818C165.945 56.7125 166.052 56.2953 166.145 55.9286C166.29 55.3606 166.404 54.9136 166.499 54.5818C166.538 54.4431 166.589 54.3196 166.652 54.2111C166.753 54.0348 166.884 53.8984 167.045 53.8018C167.305 53.6458 167.643 53.6198 168.007 53.6978C168.209 53.7517 168.418 53.7986 168.631 53.8313C168.828 53.8617 169.029 53.8798 169.229 53.8798C169.52 53.9213 170.49 53.9794 172.141 54.0674C172.557 54.0895 173.016 54.1136 173.519 54.1398C173.531 54.2259 173.543 54.3055 173.554 54.3786C173.584 54.5839 173.609 54.7383 173.626 54.8418C173.641 54.9354 173.649 54.9874 173.649 54.9978C173.545 56.2458 173.753 57.8318 174.273 59.7038C174.325 59.9378 174.403 60.0938 174.533 60.1458C174.637 60.2238 174.819 60.2498 175.079 60.1978C175.372 60.176 175.675 60.1588 175.988 60.1462C175.993 60.146 175.998 60.1458 176.003 60.1456C176.09 60.1421 176.178 60.139 176.267 60.1362C176.619 60.1253 176.985 60.1198 177.367 60.1198C177.495 60.1198 177.645 60.1222 177.816 60.1264C178.009 60.1311 178.228 60.1379 178.473 60.1458C178.53 60.1476 178.587 60.1495 178.647 60.1514C178.695 60.1529 178.744 60.1545 178.795 60.1562C178.796 60.1562 178.797 60.1562 178.798 60.1563C178.953 60.1613 179.118 60.1665 179.291 60.1718C179.428 60.1759 179.56 60.1794 179.686 60.1824C179.686 60.1824 179.686 60.1824 179.686 60.1824C179.766 60.1843 179.844 60.1859 179.92 60.1874C180.138 60.1916 180.337 60.1941 180.516 60.1956C180.543 60.1958 180.57 60.196 180.596 60.1962C180.667 60.1967 180.735 60.197 180.8 60.1972C180.945 60.1978 181.075 60.1978 181.189 60.1978C181.241 60.1978 181.267 60.1978 181.267 60.1458C181.267 60.1297 181.257 60.1037 181.243 60.0678C181.235 60.0456 181.225 60.0196 181.215 59.9898C181.208 59.9753 181.2 59.9589 181.193 59.941C181.192 59.9374 181.19 59.9338 181.189 59.9301C181.172 59.8858 181.154 59.8338 181.137 59.7818C181.103 59.7314 181.081 59.681 181.055 59.6237C181.047 59.6076 181.04 59.5911 181.032 59.5738C181.024 59.5571 181.016 59.5398 181.007 59.5218C180.994 59.4952 180.982 59.4703 180.972 59.4466C180.967 59.4349 180.963 59.4234 180.959 59.4122C180.952 59.3935 180.946 59.3756 180.942 59.3581C180.933 59.3249 180.929 59.2933 180.929 59.2618C180.799 58.7938 180.617 58.0918 180.409 57.2078C180.175 56.3238 180.019 55.7258 179.967 55.4398L178.407 49.4078C178.005 47.8821 177.693 46.6939 177.471 45.8469C177.453 45.7781 177.435 45.7115 177.419 45.6472C177.306 45.2173 177.219 44.8881 177.159 44.6601C177.124 44.5265 177.098 44.4277 177.081 44.3638C176.943 43.9267 176.793 43.4695 176.629 42.9905C176.538 42.7234 176.443 42.4496 176.343 42.1688C176.338 42.1539 176.333 42.1389 176.327 42.124C176.035 41.3033 175.707 40.4228 175.339 39.4758C175.079 38.8258 174.715 38.3838 174.299 38.1498C173.857 37.9158 173.259 37.8118 172.479 37.8638C170.633 38.0198 168.501 38.1498 166.083 38.2538C165.641 38.2798 165.303 38.4618 165.069 38.8258C164.445 39.7618 163.951 40.9318 163.613 42.3878C163.483 42.8818 163.275 43.6098 162.989 44.5458C162.703 45.5078 162.521 46.2098 162.417 46.6518C162.105 47.8998 161.507 50.4478 160.649 54.2438C160.572 54.5839 160.496 54.9232 160.419 55.2618C160.391 55.3877 160.362 55.5135 160.334 55.6392C160.332 55.6459 160.331 55.6526 160.329 55.6592C160.245 56.0333 160.161 56.4066 160.077 56.7793C159.987 57.1779 159.898 57.5759 159.81 57.9735C159.68 58.5595 159.552 59.1446 159.427 59.7298C159.349 60.0158 159.375 60.2498 159.505 60.4058ZM168.113 49.3831C168.162 49.4278 168.222 49.4626 168.293 49.4878C168.387 49.5213 168.5 49.5378 168.631 49.5378H172.141C172.401 49.5378 172.557 49.4858 172.661 49.3818C172.681 49.3611 172.699 49.3375 172.714 49.3107C172.718 49.303 172.722 49.2951 172.726 49.2869C172.75 49.2333 172.765 49.1689 172.771 49.0937C172.777 49.0186 172.775 48.9326 172.765 48.8358C172.691 48.2049 172.625 47.6546 172.568 47.1842C172.542 46.9687 172.518 46.7701 172.496 46.5881C172.472 46.3886 172.45 46.2092 172.431 46.0498C172.421 45.974 172.413 45.9027 172.405 45.8359C172.395 45.7569 172.386 45.6842 172.378 45.6178C172.349 45.3774 172.33 45.2196 172.323 45.1438C172.319 45.1369 172.315 45.1295 172.311 45.1218C172.283 45.0711 172.238 45.0034 172.193 44.9358C172.175 44.9183 172.158 44.9022 172.141 44.8877C172.081 44.8371 172.025 44.8058 171.985 44.8058C171.979 44.8058 171.972 44.8058 171.965 44.8058C171.812 44.8055 171.582 44.8028 171.276 44.7992C171.125 44.7975 170.956 44.7955 170.768 44.7934C170.538 44.791 170.281 44.7885 169.996 44.7863C169.595 44.7832 169.139 44.7808 168.631 44.78C168.521 44.7799 168.408 44.7798 168.293 44.7798C168.27 45.0514 168.248 45.3092 168.227 45.5533C168.17 46.2275 168.123 46.7968 168.085 47.2629C168.079 47.3357 168.073 47.4059 168.067 47.4737C168.099 47.3905 168.134 47.3052 168.174 47.2183L168.293 47.1587V47.5358L168.049 47.6986C168.048 47.7088 168.047 47.7189 168.046 47.7289C168.046 47.7287 168.046 47.7291 168.046 47.7289C168.045 47.745 168.043 47.7616 168.042 47.7773C168.008 48.1947 167.983 48.49 167.968 48.6652C167.962 48.7296 167.958 48.7778 167.955 48.8098C167.932 49.0238 167.963 49.1891 168.046 49.3076C168.066 49.3353 168.088 49.3605 168.113 49.3831ZM170.411 44.9601C170.405 44.9569 170.398 44.9537 170.391 44.9505C170.387 44.9527 170.382 44.9549 170.377 44.9572L170.411 44.9601ZM191.658 45.9786C191.658 46.0532 191.658 46.1302 191.658 46.2097L191.744 46.1669L191.658 46.3918H194.232H194.239C194.468 46.2529 194.666 46.0884 194.83 45.9238C194.883 45.8708 194.941 45.8078 195.004 45.7347C195.02 45.7164 195.036 45.6975 195.052 45.678C195.189 45.5148 195.348 45.3077 195.529 45.0565C195.58 44.9852 195.633 44.9102 195.688 44.8318C195.796 44.6931 195.858 44.5544 195.869 44.4158C195.877 44.3204 195.86 44.2251 195.818 44.1298C195.714 43.9218 195.48 43.7918 195.168 43.7658C194.885 43.7486 194.591 43.74 194.284 43.7398C194.233 43.7397 194.181 43.74 194.129 43.7404C193.846 43.7428 193.552 43.7523 193.248 43.7688C193.072 43.7784 192.893 43.7902 192.711 43.8044C192.709 43.8046 192.707 43.8047 192.705 43.8049M192.368 44.5278L191.848 45.8945L191.658 45.9786M192.642 43.8099C192.592 43.8139 192.541 43.8181 192.491 43.8225C192.413 43.8292 192.335 43.8363 192.256 43.8438M193.162 44.9726L193.138 45.298ZM193.162 44.9726L193.138 45.298ZM194.05 46.4958C194.114 46.4639 194.175 46.43 194.235 46.3942ZM212.271 51.9836C212.101 50.0621 212.017 48.8007 212.017 48.2378C212.017 47.6918 212.043 46.8858 212.095 45.8198C212.109 45.5411 212.123 45.2811 212.136 45.0398C212.171 44.3804 212.199 43.8604 212.199 43.4798C212.199 41.6338 212.589 40.0478 213.395 38.7218C213.915 37.8898 214.617 37.5518 215.501 37.7078C215.943 37.8118 216.827 37.8638 218.153 37.8898C218.361 37.9158 218.491 37.9678 218.595 38.0198C218.673 38.0978 218.725 38.2278 218.725 38.4358C218.725 38.5918 218.751 39.4238 218.855 40.9318C218.816 41.3474 218.78 41.7314 218.747 42.0834C218.581 43.8449 218.491 44.8057 218.491 44.9358C218.491 45.0398 218.361 47.1718 218.101 51.2798C218.095 51.3688 218.09 51.4546 218.084 51.537C218.038 52.2248 217.994 52.68 217.971 52.8658C217.945 53.0998 217.789 53.3078 217.477 53.5158C217.165 53.7238 216.879 53.8018 216.567 53.7758C216.361 53.7672 216.098 53.7501 215.78 53.7245C215.724 53.72 215.667 53.7152 215.607 53.7102C215.484 53.6997 215.353 53.6881 215.215 53.6753C214.947 53.6505 214.652 53.6215 214.331 53.5881C214.179 53.5724 214.022 53.5557 213.858 53.538C213.644 53.5149 213.42 53.4902 213.187 53.4638C212.667 53.4118 212.381 53.1258 212.329 52.6318C212.308 52.408 212.289 52.1919 212.271 51.9836ZM212.945 58.4679C212.918 58.704 212.921 58.9147 212.953 59.1058C213.005 59.4178 213.083 59.8078 213.213 60.3018C213.369 60.8738 213.525 61.1858 213.681 61.2898C213.784 61.3585 214 61.3932 214.331 61.4088C214.5 61.4168 214.699 61.4198 214.929 61.4198H215.163V61.4978C215.18 61.4956 215.197 61.4934 215.215 61.4913C215.299 61.4807 215.382 61.4703 215.462 61.4601C215.57 61.4463 215.674 61.4329 215.775 61.4198C215.941 61.3982 216.097 61.3777 216.242 61.3581C216.533 61.3189 216.784 61.2838 216.994 61.2531C217.097 61.2381 217.191 61.2241 217.274 61.2113C217.496 61.1773 217.65 61.1512 217.737 61.1338C217.789 61.1338 217.867 61.0818 217.971 60.9778C218.049 60.8738 218.101 60.7958 218.127 60.6918C218.249 59.9599 218.348 59.228 218.403 58.5391C218.406 58.4938 218.41 58.4487 218.413 58.4038C218.433 58.0998 218.426 57.8314 218.388 57.5986C218.328 57.2338 218.193 56.9562 217.971 56.7658C217.901 56.7056 217.823 56.6541 217.737 56.6112C217.491 56.4881 217.18 56.435 216.799 56.4473C216.69 56.4509 216.575 56.4599 216.454 56.4741C216.417 56.4785 216.379 56.4834 216.341 56.4888C216.304 56.494 216.267 56.4997 216.229 56.5058C216.207 56.5106 216.185 56.5151 216.161 56.5195C216.038 56.5425 215.89 56.5593 215.717 56.57C215.601 56.5772 215.473 56.5815 215.334 56.5831C215.295 56.5835 215.255 56.5838 215.215 56.5838C215.197 56.5838 215.18 56.5838 215.163 56.5839C215.079 56.5843 215.001 56.5856 214.929 56.5874C214.783 56.5911 214.661 56.5969 214.561 56.6016C214.557 56.6018 214.554 56.6019 214.551 56.6021C214.46 56.6064 214.387 56.6098 214.331 56.6098C213.993 56.6618 213.759 56.7398 213.629 56.8698C213.317 57.1818 213.135 57.5718 213.031 57.9878C212.99 58.159 212.962 58.3186 212.945 58.4679ZM223.484 45.1722C223.484 45.1727 223.484 45.1732 223.484 45.1737C223.483 45.192 223.483 45.2001 223.483 45.1997C223.483 45.1993 223.483 45.1895 223.484 45.1722ZM193.184 44.6657L193.201 44.4158Z" fill="url(#paint1_linear_1195_5284)"/>
</g>
<path d="M144.213 47.6659L138.935 48.0559C138.831 46.6519 138.805 45.9239 138.805 45.8199C138.753 44.9619 138.727 43.7399 138.675 42.1799C138.623 40.6199 138.597 39.5279 138.597 38.9039C138.545 37.9679 138.987 37.4999 139.923 37.4999C140.443 37.5259 141.327 37.5779 142.523 37.6299C143.719 37.7079 144.629 37.7599 145.253 37.7599C145.981 37.7859 147.151 37.7859 148.789 37.7859C150.427 37.7859 151.623 37.7859 152.351 37.8119C153.183 37.8379 154.353 37.9679 155.913 38.2019C156.303 38.2539 156.563 38.3839 156.693 38.5399C156.823 38.6959 156.875 38.9819 156.875 39.3979C156.875 39.7099 156.849 40.1519 156.797 40.7239C156.745 41.2959 156.693 41.7119 156.693 41.9199C156.667 42.0759 156.641 42.8299 156.641 44.2079C156.615 45.3519 156.615 45.9759 156.615 46.0279C156.615 46.1059 156.537 46.7299 156.433 47.9259C154.197 48.1079 153.001 48.2119 152.819 48.2119C152.351 48.2639 152.039 48.3419 151.909 48.4979C151.779 48.6539 151.753 48.9399 151.805 49.3819C151.909 50.1099 151.961 50.8899 151.987 51.7479C151.987 52.6059 151.987 53.3079 151.961 53.8539C151.935 54.4259 151.883 55.2319 151.805 56.2719C151.701 57.3379 151.649 58.0659 151.649 58.4819V59.9899L143.875 60.8999C143.979 56.4019 144.109 51.9819 144.213 47.6659Z" fill="url(#paint2_linear_1195_5284)"/>
<path d="M181.189 60.1979C180.773 60.1979 180.149 60.1979 179.291 60.1719C178.433 60.1459 177.783 60.1199 177.367 60.1199C176.535 60.1199 175.781 60.1459 175.079 60.1979C174.819 60.2499 174.637 60.2239 174.533 60.1459C174.403 60.0939 174.325 59.9379 174.273 59.7039C173.753 57.8319 173.545 56.2459 173.649 54.9979C173.649 54.9719 173.597 54.6859 173.519 54.1399C171.023 54.0099 169.593 53.9319 169.229 53.8799C168.813 53.8799 168.397 53.8019 168.007 53.6979C167.643 53.6199 167.305 53.6459 167.045 53.8019C166.785 53.9579 166.603 54.2179 166.499 54.5819C166.343 55.1279 166.135 55.9859 165.823 57.1819C165.511 58.3779 165.303 59.2879 165.147 59.9119C165.095 60.0419 165.043 60.1719 164.939 60.3019C164.835 60.4319 164.757 60.4839 164.705 60.4839C163.145 60.5879 161.611 60.6399 160.077 60.6399C159.817 60.6659 159.609 60.5879 159.505 60.4059C159.375 60.2499 159.349 60.0159 159.427 59.7299C159.817 57.9099 160.233 56.0899 160.649 54.2439C161.507 50.4479 162.105 47.8999 162.417 46.6519C162.521 46.2099 162.703 45.5079 162.989 44.5459C163.275 43.6099 163.483 42.8819 163.613 42.3879C163.951 40.9319 164.445 39.7619 165.069 38.8259C165.303 38.4619 165.641 38.2799 166.083 38.2539C168.501 38.1499 170.633 38.0199 172.479 37.8639C173.259 37.8119 173.857 37.9159 174.299 38.1499C174.715 38.3839 175.079 38.8259 175.339 39.4759C176.067 41.3479 176.639 42.9599 177.081 44.3639C177.185 44.7539 177.627 46.4439 178.407 49.4079L179.967 55.4399C180.019 55.7259 180.175 56.3239 180.409 57.2079C180.617 58.0919 180.799 58.7939 180.929 59.2619C180.929 59.3399 180.955 59.4179 181.007 59.5219C181.059 59.6259 181.085 59.7039 181.137 59.7819C181.163 59.8599 181.189 59.9379 181.215 59.9899C181.241 60.0679 181.267 60.1199 181.267 60.1459C181.267 60.1979 181.241 60.1979 181.189 60.1979ZM168.293 44.7799C168.085 47.2239 167.981 48.5499 167.955 48.8099C167.903 49.3039 168.137 49.5379 168.631 49.5379C170.555 49.5379 171.725 49.5379 172.141 49.5379C172.401 49.5379 172.557 49.4859 172.661 49.3819C172.765 49.2779 172.791 49.0959 172.765 48.8359C172.505 46.6259 172.349 45.4039 172.323 45.1439C172.297 45.0919 172.245 45.0139 172.193 44.9359C172.115 44.8579 172.037 44.8059 171.985 44.8059C171.517 44.8059 170.269 44.7799 168.293 44.7799Z" fill="url(#paint3_linear_1195_5284)"/>
<path d="M184.561 38.2539C184.561 38.2539 185.003 38.1499 185.835 37.9419C186.667 37.7339 187.161 37.6039 187.317 37.6039C190.905 37.4739 193.271 37.4219 194.415 37.4479C196.521 37.5259 198.315 37.9939 199.771 38.8519C199.979 39.0079 200.213 39.1899 200.421 39.3979C200.629 39.6319 200.811 39.8139 200.915 39.9699C201.019 40.1259 201.201 40.3599 201.409 40.6979C201.617 41.0359 201.747 41.2439 201.799 41.3479C202.813 42.8819 203.307 44.4159 203.255 45.9239C203.203 46.7559 202.917 47.5879 202.397 48.4459C201.877 49.3039 201.227 49.8759 200.473 50.1619C198.211 51.0979 196.105 51.6699 194.129 51.9299C193.817 51.9819 193.635 52.0599 193.531 52.2159C193.427 52.3719 193.375 52.6059 193.427 52.9179C193.479 53.5939 193.557 54.7639 193.687 56.4019C193.817 58.0399 193.921 59.2879 193.999 60.1719C194.025 60.5359 193.973 60.7699 193.817 60.8739C193.661 60.9779 193.453 61.0559 193.141 61.0559C191.789 61.0819 190.619 61.0819 189.631 61.0299C188.929 61.0299 187.005 60.9519 183.833 60.7959C183.781 60.7439 183.755 60.6919 183.781 60.5879C183.781 60.4839 183.833 60.3279 183.885 60.0939C183.937 59.8859 183.989 59.7039 183.989 59.5739C184.093 57.6239 184.145 56.2199 184.171 55.3359C184.223 53.7239 184.275 51.3319 184.327 48.1599C184.379 44.9879 184.457 42.6219 184.509 41.0359C184.535 39.2159 184.561 38.3059 184.561 38.2539ZM191.659 46.3919C192.205 46.5999 192.673 46.7039 193.037 46.7299C193.401 46.7559 193.739 46.6779 194.051 46.4959C194.363 46.3399 194.623 46.1319 194.831 45.9239C195.039 45.7159 195.325 45.3519 195.689 44.8319C195.871 44.5979 195.923 44.3639 195.819 44.1299C195.715 43.9219 195.481 43.7919 195.169 43.7659C194.311 43.7139 193.349 43.7399 192.257 43.8439C192.153 43.8439 192.023 43.9219 191.893 44.0519C191.763 44.1819 191.685 44.3119 191.685 44.4159C191.659 44.5719 191.659 45.2479 191.659 46.3919Z" fill="url(#paint4_linear_1195_5284)"/>
<path d="M218.855 40.9319C218.621 43.4279 218.491 44.7799 218.491 44.9359C218.491 45.0399 218.361 47.1719 218.101 51.2799C218.049 52.1119 217.997 52.6579 217.971 52.8659C217.945 53.0999 217.789 53.3079 217.477 53.5159C217.165 53.7239 216.879 53.8019 216.567 53.7759C215.943 53.7499 214.799 53.6459 213.187 53.4639C212.667 53.4119 212.381 53.1259 212.329 52.6319C212.121 50.3439 212.017 48.8619 212.017 48.2379C212.017 47.6919 212.043 46.8859 212.095 45.8199C212.147 44.7799 212.199 43.9999 212.199 43.4799C212.199 41.6339 212.589 40.0479 213.395 38.7219C213.915 37.8899 214.617 37.5519 215.501 37.7079C215.943 37.8119 216.827 37.8639 218.153 37.8899C218.361 37.9159 218.491 37.9679 218.595 38.0199C218.673 38.0979 218.725 38.2279 218.725 38.4359C218.725 38.5919 218.751 39.4239 218.855 40.9319ZM215.163 61.4199H214.929C214.253 61.4199 213.837 61.3939 213.681 61.2899C213.525 61.1859 213.369 60.8739 213.213 60.3019C213.083 59.8079 213.005 59.4179 212.953 59.1059C212.901 58.7939 212.927 58.4299 213.031 57.9879C213.135 57.5719 213.317 57.1819 213.629 56.8699C213.759 56.7399 213.993 56.6619 214.331 56.6099C214.487 56.6099 214.773 56.5839 215.215 56.5839C215.657 56.5839 215.995 56.5579 216.229 56.5059C217.035 56.3759 217.607 56.4539 217.971 56.7659C218.335 57.0779 218.465 57.6239 218.413 58.4039C218.361 59.1319 218.257 59.9119 218.127 60.6919C218.101 60.7959 218.049 60.8739 217.971 60.9779C217.867 61.0819 217.789 61.1339 217.737 61.1339C217.477 61.1859 216.619 61.3159 215.163 61.4979V61.4199Z" fill="url(#paint5_linear_1195_5284)"/>
<defs>
<filter id="filter0_d_1195_5284" x="123.593" y="22.4414" width="110.262" height="54.0566" filterUnits="userSpaceOnUse" color-interpolation-filters="sRGB">
<feFlood flood-opacity="0" result="BackgroundImageFix"/>
<feColorMatrix in="SourceAlpha" type="matrix" values="0 0 0 0 0 0 0 0 0 0 0 0 0 0 0 0 0 0 127 0" result="hardAlpha"/>
<feOffset/>
<feGaussianBlur stdDeviation="5"/>
<feComposite in2="hardAlpha" operator="out"/>
<feColorMatrix type="matrix" values="0 0 0 0 1 0 0 0 0 0.320833 0 0 0 0 0.809833 0 0 0 0.3 0"/>
<feBlend mode="normal" in2="BackgroundImageFix" result="effect1_dropShadow_1195_5284"/>
<feBlend mode="normal" in="SourceGraphic" in2="effect1_dropShadow_1195_5284" result="shape"/>
</filter>
<radialGradient id="paint0_radial_1195_5284" cx="0" cy="0" r="1" gradientUnits="userSpaceOnUse" gradientTransform="translate(180 165) rotate(90) scale(182.5 199.091)">
<stop offset="0.739583" stop-color="#FFFCEC"/>
<stop offset="1" stop-color="#FFDBE1"/>
</radialGradient>
<linearGradient id="paint1_linear_1195_5284" x1="180" y1="34.9998" x2="180" y2="60.9998" gradientUnits="userSpaceOnUse">
<stop stop-color="#FF439D"/>
<stop offset="1" stop-color="#FF91C6"/>
</linearGradient>
<linearGradient id="paint2_linear_1195_5284" x1="180" y1="34.9999" x2="180" y2="60.9999" gradientUnits="userSpaceOnUse">
<stop stop-color="#FFC5EB"/>
<stop offset="0.449799" stop-color="white"/>
</linearGradient>
<linearGradient id="paint3_linear_1195_5284" x1="180" y1="34.9999" x2="180" y2="60.9999" gradientUnits="userSpaceOnUse">
<stop stop-color="#FFC5EB"/>
<stop offset="0.449799" stop-color="white"/>
</linearGradient>
<linearGradient id="paint4_linear_1195_5284" x1="180" y1="34.9999" x2="180" y2="60.9999" gradientUnits="userSpaceOnUse">
<stop stop-color="#FFC5EB"/>
<stop offset="0.449799" stop-color="white"/>
</linearGradient>
<linearGradient id="paint5_linear_1195_5284" x1="180" y1="34.9999" x2="180" y2="60.9999" gradientUnits="userSpaceOnUse">
<stop stop-color="#FFC5EB"/>
<stop offset="0.449799" stop-color="white"/>
</linearGradient>
</defs>
</svg>
