<svg width="174" height="49" viewBox="0 0 174 49" fill="none" xmlns="http://www.w3.org/2000/svg">
<path fill-rule="evenodd" clip-rule="evenodd" d="M24.4713 3C12.0607 3 2 13.2975 2 26C2 38.7025 12.0607 49 24.4713 49C29.1847 49 33.5593 47.5146 37.1724 44.9763C40.7856 47.5146 45.1601 49 49.8736 49C54.3766 49 58.5702 47.6443 62.0862 45.31C65.6022 47.6443 69.7958 49 74.2989 49C79.0123 49 83.3869 47.5146 87 44.9763C90.6131 47.5146 94.9877 49 99.7011 49C104.629 49 109.187 47.3764 112.891 44.6233C116.595 47.3764 121.152 49 126.08 49C130.377 49 134.391 47.7659 137.805 45.6253C141.218 47.7659 145.232 49 149.529 49C161.939 49 172 38.7025 172 26C172 13.2975 161.939 3 149.529 3C145.232 3 141.218 4.23405 137.805 6.37474C134.391 4.23405 130.377 3 126.08 3C121.152 3 116.595 4.62363 112.891 7.37675C109.187 4.62363 104.629 3 99.7011 3C94.9877 3 90.6131 4.48536 87 7.0237C83.3869 4.48536 79.0123 3 74.2989 3C69.7958 3 65.6022 4.35568 62.0862 6.69002C58.5702 4.35568 54.3766 3 49.8736 3C45.1601 3 40.7856 4.48536 37.1724 7.0237C33.5593 4.48536 29.1847 3 24.4713 3Z" fill="#B22D7D"/>
<path fill-rule="evenodd" clip-rule="evenodd" d="M23 0C10.2975 0 0 10.2975 0 23C0 35.7025 10.2975 46 23 46C27.8244 46 32.3018 44.5146 36 41.9763C39.6982 44.5146 44.1756 46 49 46C53.609 46 57.9013 44.6443 61.5 42.31C65.0987 44.6443 69.391 46 74 46C78.8244 46 83.3018 44.5146 87 41.9763C90.6982 44.5146 95.1756 46 100 46C105.044 46 109.709 44.3764 113.5 41.6233C117.291 44.3764 121.956 46 127 46C131.397 46 135.507 44.7659 139 42.6253C142.493 44.7659 146.603 46 151 46C163.703 46 174 35.7025 174 23C174 10.2975 163.703 0 151 0C146.603 0 142.493 1.23405 139 3.37474C135.507 1.23405 131.397 0 127 0C121.956 0 117.291 1.62363 113.5 4.37675C109.709 1.62363 105.044 0 100 0C95.1756 0 90.6982 1.48536 87 4.0237C83.3018 1.48536 78.8244 0 74 0C69.391 0 65.0987 1.35568 61.5 3.69002C57.9013 1.35568 53.609 0 49 0C44.1756 0 39.6982 1.48536 36 4.0237C32.3018 1.48536 27.8244 0 23 0Z" fill="white"/>
<path fill-rule="evenodd" clip-rule="evenodd" d="M36 39.5505L37.1318 40.3274C40.5075 42.6443 44.5924 44 49 44C53.2111 44 57.1272 42.7626 60.4116 40.6321L61.5 39.9261L62.5884 40.6321C65.8728 42.7626 69.7888 44 74 44C78.4076 44 82.4925 42.6443 85.8682 40.3274L87 39.5505L88.1318 40.3274C91.5075 42.6443 95.5924 44 100 44C104.608 44 108.864 42.5183 112.325 40.0049L113.5 39.1516L114.675 40.0049C118.136 42.5183 122.392 44 127 44C131.018 44 134.767 42.8734 137.955 40.92L139 40.2796L140.045 40.92C143.233 42.8734 146.982 44 151 44C162.598 44 172 34.598 172 23C172 11.402 162.598 2 151 2C146.982 2 143.233 3.12656 140.045 5.08004L139 5.72035L137.955 5.08004C134.767 3.12656 131.018 2 127 2C122.392 2 118.136 3.4817 114.675 5.99508L113.5 6.84843L112.325 5.99508C108.864 3.4817 104.608 2 100 2C95.5924 2 91.5075 3.35566 88.1318 5.67265L87 6.4495L85.8682 5.67265C82.4925 3.35566 78.4076 2 74 2C69.7888 2 65.8728 3.23744 62.5884 5.36793L61.5 6.07394L60.4116 5.36793C57.1272 3.23744 53.2111 2 49 2C44.5924 2 40.5075 3.35566 37.1318 5.67265L36 6.4495L34.8682 5.67265C31.4925 3.35566 27.4076 2 23 2C11.402 2 2 11.402 2 23C2 34.598 11.402 44 23 44C27.4076 44 31.4925 42.6443 34.8682 40.3274L36 39.5505ZM36 4.0237C39.6982 1.48536 44.1756 0 49 0C53.609 0 57.9013 1.35568 61.5 3.69002C65.0987 1.35568 69.391 0 74 0C78.8244 0 83.3018 1.48536 87 4.0237C90.6982 1.48536 95.1756 0 100 0C105.044 0 109.709 1.62363 113.5 4.37675C117.291 1.62363 121.956 0 127 0C131.397 0 135.507 1.23405 139 3.37474C142.493 1.23405 146.603 0 151 0C163.703 0 174 10.2975 174 23C174 35.7025 163.703 46 151 46C146.603 46 142.493 44.7659 139 42.6253C135.507 44.7659 131.397 46 127 46C121.956 46 117.291 44.3764 113.5 41.6233C109.709 44.3764 105.044 46 100 46C95.1756 46 90.6982 44.5146 87 41.9763C83.3018 44.5146 78.8244 46 74 46C69.391 46 65.0987 44.6443 61.5 42.31C57.9013 44.6443 53.609 46 49 46C44.1756 46 39.6982 44.5146 36 41.9763C32.3018 44.5146 27.8244 46 23 46C10.2975 46 0 35.7025 0 23C0 10.2975 10.2975 0 23 0C27.8244 0 32.3018 1.48536 36 4.0237Z" fill="#B32D7D"/>
<path fill-rule="evenodd" clip-rule="evenodd" d="M23 4C12.5066 4 4 12.5066 4 23C4 33.4934 12.5066 42 23 42C28.0289 42 32.6014 40.0463 36 36.8565C39.3986 40.0463 43.9711 42 49 42C53.7862 42 58.1591 40.2303 61.5 37.3094C64.8409 40.2303 69.2138 42 74 42C79.0288 42 83.6014 40.0463 87 36.8565C90.3986 40.0463 94.9712 42 100 42C105.28 42 110.057 39.8464 113.5 36.3697C116.943 39.8464 121.72 42 127 42C131.551 42 135.728 40.3999 139 37.7317C142.272 40.3999 146.449 42 151 42C161.493 42 170 33.4934 170 23C170 12.5066 161.493 4 151 4C146.449 4 142.272 5.60006 139 8.26832C135.728 5.60006 131.551 4 127 4C121.72 4 116.943 6.15359 113.5 9.63026C110.057 6.15359 105.28 4 100 4C94.9712 4 90.3986 5.95371 87 9.14351C83.6014 5.95371 79.0288 4 74 4C69.2138 4 64.8409 5.76975 61.5 8.69056C58.1591 5.76975 53.7862 4 49 4C43.9711 4 39.3986 5.95371 36 9.14351C32.6014 5.95371 28.0289 4 23 4Z" fill="url(#paint0_linear_1188_6634)"/>
<path d="M67.4934 19.1279H69.7794C69.9594 19.1279 70.0314 19.2179 70.0314 19.3799V20.9279C70.0314 21.0899 69.9594 21.1619 69.7794 21.1619H67.4934V24.4019C67.4934 24.5459 67.4214 24.6179 67.2414 24.6179H65.4054C65.2614 24.6179 65.1894 24.5459 65.1894 24.4019V15.9239C65.1894 15.7799 65.2614 15.6899 65.4054 15.6899H67.2414C67.4214 15.6899 67.4934 15.7799 67.4934 15.9239V19.1279ZM63.2274 16.7519V23.6819C63.2274 23.8079 63.1734 23.8979 63.0114 23.8979H55.3794C55.1994 23.8979 55.1274 23.8079 55.1274 23.6819V16.7519C55.1274 16.6079 55.1994 16.5179 55.3794 16.5179H57.1614C57.3234 16.5179 57.3954 16.6079 57.3954 16.7519V18.4619H60.9954V16.7519C60.9954 16.6079 61.0494 16.5179 61.2114 16.5179H63.0114C63.1734 16.5179 63.2274 16.6079 63.2274 16.7519ZM57.3954 20.3159V21.9719H60.9954V20.3159H57.3954ZM62.2374 25.0319C65.8014 25.0319 67.6554 26.4179 67.6554 28.3619C67.6554 30.2699 65.8014 31.6739 62.2374 31.6739C58.6554 31.6739 56.8014 30.2879 56.8014 28.3619C56.8014 26.4179 58.6554 25.0319 62.2374 25.0319ZM62.2374 29.7479C64.4874 29.7479 65.3694 29.1179 65.3694 28.3619C65.3694 27.6059 64.4874 26.9759 62.2374 26.9759C59.9874 26.9759 59.0874 27.6059 59.0874 28.3619C59.0874 29.1179 59.9874 29.7479 62.2374 29.7479Z" fill="white"/>
<path d="M86.9791 19.9919H89.2651C89.4451 19.9919 89.5171 20.0819 89.5171 20.2439V21.7919C89.5171 21.9539 89.4451 22.0259 89.2651 22.0259H86.9791V27.0119C86.9791 27.1559 86.9071 27.2279 86.7271 27.2279H84.8911C84.7471 27.2279 84.6751 27.1559 84.6751 27.0119V15.9239C84.6751 15.7799 84.7471 15.6899 84.8911 15.6899H86.7271C86.9071 15.6899 86.9791 15.7799 86.9791 15.9239V19.9919ZM82.7131 17.0219V23.9339C82.7131 24.0779 82.6591 24.1679 82.4971 24.1679H74.8651C74.6851 24.1679 74.6131 24.0779 74.6131 23.9339V17.0219C74.6131 16.8599 74.6851 16.7879 74.8651 16.7879H82.4971C82.6591 16.7879 82.7131 16.8599 82.7131 17.0219ZM76.8991 22.2239H80.4631V18.7319H76.8991V22.2239ZM79.2391 29.3159H87.3391C87.5011 29.3159 87.5731 29.3879 87.5731 29.5499V31.1159C87.5731 31.2599 87.5011 31.3499 87.3391 31.3499H77.1691C77.0071 31.3499 76.9351 31.2599 76.9351 31.1159V25.8959C76.9351 25.7699 77.0071 25.6799 77.1691 25.6799H79.0051C79.1671 25.6799 79.2391 25.7699 79.2391 25.8959V29.3159Z" fill="white"/>
<path d="M102.384 21.3239H92.1778C92.0158 21.3239 91.9438 21.2339 91.9438 21.1079V16.2119C91.9438 16.0679 92.0158 15.9779 92.1958 15.9779H102.222C102.366 15.9779 102.438 16.0679 102.438 16.2119V17.6339C102.438 17.7599 102.366 17.8499 102.222 17.8499H94.2298V19.4699H102.384C102.546 19.4699 102.618 19.5599 102.618 19.7039V21.1079C102.618 21.2339 102.546 21.3239 102.384 21.3239ZM104.616 24.0419H89.8558C89.7118 24.0419 89.6398 23.9519 89.6398 23.8079V22.4039C89.6398 22.2599 89.7118 22.1699 89.8558 22.1699H104.616C104.778 22.1699 104.85 22.2599 104.85 22.4039V23.8079C104.85 23.9519 104.778 24.0419 104.616 24.0419ZM102.906 31.6739H92.0338C91.8898 31.6739 91.8178 31.5839 91.8178 31.4579V27.6239C91.8178 27.4979 91.8898 27.3899 92.0338 27.3899H100.404V26.7059H91.9978C91.8538 26.7059 91.7818 26.6159 91.7818 26.4539V25.1399C91.7818 25.0139 91.8538 24.9239 91.9978 24.9239H102.438C102.6 24.9239 102.672 25.0139 102.672 25.1399V28.9199C102.672 29.0639 102.582 29.1539 102.42 29.1539H94.0858V29.8559H102.906C103.068 29.8559 103.158 29.9459 103.158 30.1079V31.4579C103.158 31.5839 103.068 31.6739 102.906 31.6739Z" fill="white"/>
<path d="M118.94 31.5119H117.104C116.942 31.5119 116.87 31.4399 116.87 31.2959V15.9239C116.87 15.7799 116.942 15.6899 117.104 15.6899H118.94C119.12 15.6899 119.192 15.7799 119.192 15.9239V31.2959C119.192 31.4399 119.12 31.5119 118.94 31.5119ZM107.438 28.1099C107.276 28.1819 107.186 28.1639 107.096 28.0379L106.25 26.5439C106.16 26.3999 106.196 26.2919 106.34 26.2199C110.228 24.3299 111.83 22.4939 111.83 19.7759V19.4159H106.79C106.646 19.4159 106.574 19.3439 106.574 19.1999V17.6159C106.574 17.4719 106.646 17.3819 106.79 17.3819H113.918C114.098 17.3819 114.152 17.4719 114.152 17.6159V19.7759C114.152 23.2499 111.992 25.8599 107.438 28.1099Z" fill="white"/>
<path fill-rule="evenodd" clip-rule="evenodd" d="M65.1894 24.4019C65.1894 24.5459 65.2614 24.6179 65.4054 24.6179H67.2414C67.4214 24.6179 67.4934 24.5459 67.4934 24.4019V21.1619H69.7794C69.9594 21.1619 70.0314 21.0899 70.0314 20.9279V19.3799C70.0314 19.2179 69.9594 19.1279 69.7794 19.1279H67.4934V15.9239C67.4934 15.7799 67.4214 15.6899 67.2414 15.6899H65.4054C65.2614 15.6899 65.1894 15.7799 65.1894 15.9239V24.4019ZM70.4934 16.2038V15.9239C70.4934 15.3895 70.3578 14.4332 69.5563 13.6316C68.7547 12.8301 67.7939 12.6899 67.2414 12.6899H65.4054C64.7582 12.6899 63.9238 12.8902 63.2316 13.5256C63.1538 13.5202 63.0802 13.5179 63.0114 13.5179H61.2114C60.6943 13.5179 59.8956 13.648 59.1892 14.2159C58.4888 13.6563 57.7024 13.5179 57.1614 13.5179H55.3794C54.827 13.5179 53.8662 13.6581 53.0646 14.4596C52.2631 15.2612 52.1274 16.2175 52.1274 16.7519V23.6819C52.1274 24.3083 52.3184 25.2555 53.1261 26.0182C53.4278 26.3032 53.7492 26.4992 54.062 26.6325C53.8918 27.1751 53.8014 27.7542 53.8014 28.3619C53.8014 30.4402 54.8664 32.1762 56.5511 33.2619C58.1195 34.2726 60.1171 34.6739 62.2374 34.6739C64.3584 34.6739 66.3517 34.2645 67.9153 33.2505C69.5866 32.1666 70.6554 30.436 70.6554 28.3619C70.6554 27.4826 70.4663 26.6632 70.1201 25.9277C70.4313 25.3384 70.4934 24.759 70.4934 24.4019V24.0884C70.8277 24.0181 71.2222 23.8822 71.6131 23.6214V23.9339C71.6131 24.4684 71.7488 25.4247 72.5503 26.2263C72.9952 26.6711 73.4892 26.9123 73.9351 27.0388V31.1159C73.9351 31.6489 74.0686 32.5614 74.8104 33.3468C75.5815 34.1633 76.5408 34.3499 77.1691 34.3499H87.3391C87.9254 34.3499 88.7998 34.1875 89.5406 33.5025C89.5867 33.5588 89.6355 33.6144 89.6872 33.6693C90.4039 34.4308 91.3168 34.6739 92.0338 34.6739H102.906C103.529 34.6739 104.37 34.4957 105.093 33.8489C105.846 33.1751 106.158 32.2694 106.158 31.4579V30.9491C106.304 31.0038 106.46 31.0501 106.629 31.0851C107.614 31.2905 108.391 30.9694 108.657 30.8514L108.713 30.8266L108.767 30.7996C110.762 29.8138 112.501 28.6779 113.87 27.3412V31.2959C113.87 31.8313 114.008 32.831 114.871 33.6425C115.695 34.4182 116.647 34.5119 117.104 34.5119H118.94C119.337 34.5119 120.285 34.4488 121.127 33.7002C122.051 32.8788 122.192 31.8345 122.192 31.2959V15.9239C122.192 15.3895 122.057 14.4332 121.255 13.6316C120.454 12.8301 119.493 12.6899 118.94 12.6899H117.104C116.476 12.6899 115.517 12.8765 114.746 13.6931C114.53 13.9213 114.366 14.1604 114.241 14.3977C114.121 14.3861 114.012 14.3819 113.918 14.3819H106.79C106.299 14.3819 105.701 14.4971 105.138 14.83C105.018 14.5687 104.852 14.3026 104.626 14.0479C103.896 13.2264 102.943 12.9779 102.222 12.9779H92.1958C91.6433 12.9779 90.6825 13.1181 89.8809 13.9196C89.7569 14.0437 89.6487 14.1715 89.5546 14.3009C89.425 14.0741 89.2576 13.8472 89.042 13.6316C88.2404 12.8301 87.2796 12.6899 86.7271 12.6899H84.8911C84.1702 12.6899 83.2171 12.9384 82.4869 13.7599C82.4786 13.7692 82.4704 13.7786 82.4622 13.7879H74.8651C74.475 13.7879 73.4744 13.8484 72.6118 14.6632C71.8873 15.3474 71.6828 16.1571 71.63 16.6856C71.2435 16.4224 70.8456 16.279 70.4934 16.2038ZM84.8911 15.6899C84.7471 15.6899 84.6751 15.7799 84.6751 15.9239V27.0119C84.6751 27.1559 84.7471 27.2279 84.8911 27.2279H86.7271C86.9071 27.2279 86.9791 27.1559 86.9791 27.0119V22.0259H89.2651C89.4451 22.0259 89.5171 21.9539 89.5171 21.7919V20.2439C89.5171 20.0819 89.4451 19.9919 89.2651 19.9919H86.9791V15.9239C86.9791 15.7799 86.9071 15.6899 86.7271 15.6899H84.8911ZM91.9438 21.1079C91.9438 21.2339 92.0158 21.3239 92.1778 21.3239H102.384C102.546 21.3239 102.618 21.2339 102.618 21.1079V19.7039C102.618 19.5599 102.546 19.4699 102.384 19.4699H94.2298V17.8499H102.222C102.294 17.8499 102.348 17.8274 102.384 17.7892C102.42 17.7509 102.438 17.6969 102.438 17.6339V16.2119C102.438 16.0679 102.366 15.9779 102.222 15.9779H92.1958C92.0158 15.9779 91.9438 16.0679 91.9438 16.2119V21.1079ZM89.8558 22.1699C89.7118 22.1699 89.6398 22.2599 89.6398 22.4039V23.8079C89.6398 23.9519 89.7118 24.0419 89.8558 24.0419H104.616C104.778 24.0419 104.85 23.9519 104.85 23.8079V22.4039C104.85 22.2599 104.778 22.1699 104.616 22.1699H89.8558ZM102.672 25.1399C102.672 25.0139 102.6 24.9239 102.438 24.9239H91.9978C91.8538 24.9239 91.7818 25.0139 91.7818 25.1399V26.4539C91.7818 26.6159 91.8538 26.7059 91.9978 26.7059H100.404V27.3899H92.0338C92.0212 27.3899 92.0092 27.3908 91.9978 27.3923C91.8778 27.4089 91.8178 27.5089 91.8178 27.6239V31.4579C91.8178 31.5839 91.8898 31.6739 92.0338 31.6739H102.906C103.068 31.6739 103.158 31.5839 103.158 31.4579V30.1079C103.158 29.9459 103.068 29.8559 102.906 29.8559H94.0858V29.1539H102.42C102.582 29.1539 102.672 29.0639 102.672 28.9199V25.1399ZM107.096 28.0379C107.152 28.1156 107.207 28.1522 107.28 28.1521C107.288 28.152 107.297 28.1515 107.306 28.1505C107.344 28.1461 107.388 28.1324 107.438 28.1099C108.025 27.8201 108.572 27.5242 109.08 27.2213C111.694 25.6617 113.268 23.9152 113.87 21.8345C114.059 21.1826 114.152 20.498 114.152 19.7759V17.6159C114.152 17.4719 114.098 17.3819 113.918 17.3819H106.79C106.646 17.3819 106.574 17.4719 106.574 17.6159V19.1999C106.574 19.3439 106.646 19.4159 106.79 19.4159H111.83V19.7759C111.83 19.9829 111.821 20.1848 111.802 20.3819C111.732 21.1183 111.527 21.7892 111.173 22.4159C110.586 23.4573 109.585 24.377 108.099 25.274C107.813 25.4465 107.509 25.6182 107.187 25.7898C106.983 25.8985 106.771 26.0071 106.552 26.1159C106.526 26.129 106.499 26.1421 106.473 26.1552C106.429 26.1768 106.385 26.1984 106.34 26.2199C106.196 26.2919 106.16 26.3999 106.25 26.5439L107.096 28.0379ZM87.5731 29.5499C87.5731 29.3879 87.5011 29.3159 87.3391 29.3159H79.2391V25.8959C79.2391 25.7699 79.1671 25.6799 79.0051 25.6799H77.1691C77.0071 25.6799 76.9351 25.7699 76.9351 25.8959V31.1159C76.9351 31.2599 77.0071 31.3499 77.1691 31.3499H87.3391C87.5011 31.3499 87.5731 31.2599 87.5731 31.1159V29.5499ZM82.4971 24.1679C82.6591 24.1679 82.7131 24.0779 82.7131 23.9339V17.0219C82.7131 16.8599 82.6591 16.7879 82.4971 16.7879H74.8651C74.6851 16.7879 74.6131 16.8599 74.6131 17.0219V23.9339C74.6131 24.0779 74.6851 24.1679 74.8651 24.1679H82.4971ZM80.4631 18.7319H76.8991V22.2239H80.4631V18.7319ZM116.87 31.2959C116.87 31.4399 116.942 31.5119 117.104 31.5119H118.94C119.12 31.5119 119.192 31.4399 119.192 31.2959V15.9239C119.192 15.7799 119.12 15.6899 118.94 15.6899H117.104C116.942 15.6899 116.87 15.7799 116.87 15.9239V31.2959ZM57.222 26.8979C56.9425 27.3319 56.8014 27.8257 56.8014 28.3619C56.8014 30.2879 58.6554 31.6739 62.2374 31.6739C65.8014 31.6739 67.6554 30.2699 67.6554 28.3619C67.6554 28.0984 67.6214 27.8452 67.5536 27.6042C67.4845 27.3585 67.3803 27.1256 67.2414 26.9076C66.9013 26.3739 66.3532 25.9301 65.6026 25.6084C65.5384 25.5809 65.4726 25.5542 65.4054 25.5285C64.748 25.2769 63.9489 25.1127 63.0114 25.055C62.7669 25.04 62.513 25.0322 62.2498 25.0319C62.2457 25.0319 62.2416 25.0319 62.2374 25.0319C59.6435 25.0319 57.9558 25.7587 57.222 26.8979ZM61.5795 26.9958C59.8102 27.1082 59.0874 27.6845 59.0874 28.3619C59.0874 29.0394 59.8102 29.6157 61.5795 29.7281C61.7846 29.7411 62.0037 29.7479 62.2374 29.7479C62.4662 29.7479 62.6808 29.7414 62.8818 29.7289C64.6577 29.6185 65.3694 29.0411 65.3694 28.3619C65.3694 28.0775 65.2446 27.8108 64.9689 27.5889C64.682 27.3579 64.2318 27.1754 63.5891 27.0715C63.3751 27.0369 63.1397 27.011 62.8818 26.9949C62.6808 26.9825 62.4662 26.9759 62.2374 26.9759C62.0037 26.9759 61.7846 26.9827 61.5795 26.9958ZM63.2274 16.7519C63.2274 16.6079 63.1734 16.5179 63.0114 16.5179H61.2114C61.0494 16.5179 60.9954 16.6079 60.9954 16.7519V18.4619H57.3954V16.7519C57.3954 16.6079 57.3234 16.5179 57.1614 16.5179H55.3794C55.1994 16.5179 55.1274 16.6079 55.1274 16.7519V23.6819C55.1274 23.8079 55.1994 23.8979 55.3794 23.8979H63.0114C63.1734 23.8979 63.2274 23.8079 63.2274 23.6819V16.7519ZM60.9954 20.3159H57.3954V21.9719H60.9954V20.3159Z" fill="#B32D7D"/>
<defs>
<linearGradient id="paint0_linear_1188_6634" x1="87" y1="4" x2="87" y2="42" gradientUnits="userSpaceOnUse">
<stop stop-color="#FFE1FB"/>
<stop offset="0.385417" stop-color="#FFB8DE"/>
<stop offset="1" stop-color="#FF6581"/>
</linearGradient>
</defs>
</svg>
