<svg width="210" height="214" viewBox="0 0 210 214" fill="none" xmlns="http://www.w3.org/2000/svg">
<path d="M23.9354 24.4983C24.7995 24.2152 25.6636 23.9992 26.5277 23.8353C26.5277 23.8353 31.8167 22.3678 39.631 27.6493C39.631 27.6493 34.0068 22.3231 28.0623 21.0791C29.9395 18.375 32.6808 16.237 36.0553 15.142C39.4447 14.0395 42.9384 14.1736 46.0671 15.2612C46.0671 15.2612 49.2629 15.9242 55.2298 20.0883C55.2298 20.0883 52.0191 15.3804 47.7358 13.3542C49.397 11.7377 51.4381 10.4564 53.792 9.68913C58.4478 8.17693 63.2899 8.96655 67.1113 11.4248C68.1617 12.1474 70.24 13.8607 73.406 17.6673C73.406 17.6673 72.4152 14.628 70.2549 11.4993C79.857 9.89771 88.5503 17.347 95.1206 24.1109C155.75 86.5358 197.19 173.126 197.19 173.126L94.0628 206.67C78.248 128.348 52.6821 86.6847 35.519 66.3184C24.6654 68.8214 13.5138 62.6609 9.99779 51.8743C6.28806 40.4695 12.5231 28.2155 23.9354 24.5057V24.4983Z" fill="url(#paint0_radial_1001_4969)"/>
<mask id="mask0_1001_4969" style="mask-type:alpha" maskUnits="userSpaceOnUse" x="8" y="8" width="190" height="199">
<path d="M23.9354 24.4983C24.7995 24.2152 25.6636 23.9992 26.5277 23.8353C26.5277 23.8353 31.8167 22.3678 39.631 27.6493C39.631 27.6493 34.0068 22.3231 28.0623 21.0791C29.9395 18.375 32.6808 16.237 36.0553 15.142C39.4447 14.0395 42.9384 14.1736 46.0671 15.2612C46.0671 15.2612 49.2629 15.9242 55.2298 20.0883C55.2298 20.0883 52.0191 15.3804 47.7358 13.3542C49.397 11.7377 51.4381 10.4564 53.792 9.68913C58.4478 8.17693 63.2899 8.96655 67.1113 11.4248C68.1617 12.1474 70.24 13.8607 73.406 17.6673C73.406 17.6673 72.4152 14.628 70.2549 11.4993C79.857 9.89771 88.5503 17.347 95.1206 24.1109C155.75 86.5358 197.19 173.126 197.19 173.126L94.0628 206.67C78.248 128.348 52.6821 86.6847 35.519 66.3184C24.6654 68.8214 13.5138 62.6609 9.99779 51.8743C6.28806 40.4695 12.5231 28.2155 23.9354 24.5057V24.4983Z" fill="#D9D9D9"/>
</mask>
<g mask="url(#mask0_1001_4969)">
<g filter="url(#filter0_f_1001_4969)">
<path d="M177.307 191.823C155.801 199.913 149.208 204.813 144.596 197.741L144.576 197.71C139.964 190.637 152.773 182.885 168.849 166.468C170.263 165.019 171.57 163.581 172.793 162.138C173.542 161.254 174.268 160.386 174.946 159.518C176.573 157.432 174.607 154.787 172.095 155.692C171.702 155.832 171.315 155.982 170.921 156.121C167.899 157.257 165.049 158.412 162.392 159.514C161.505 159.888 160.629 160.254 159.783 160.615C158.66 161.098 157.56 161.566 156.49 162.03C153.83 163.178 151.402 164.234 149.17 165.147C148.276 165.51 147.416 165.851 146.602 166.163C139.599 168.824 134.99 169.485 132.537 165.723L132.517 165.692C129.923 161.714 132.844 157.523 138.75 151.694C139.409 151.045 140.102 150.373 140.835 149.69C141.196 149.352 141.573 148.989 141.957 148.636C142.718 147.92 143.512 147.182 144.33 146.429C145.147 145.676 146.003 144.884 146.875 144.066C149.932 141.223 153.291 138.051 156.808 134.453C157.101 134.16 157.388 133.856 157.674 133.552C159.515 131.619 157.888 128.753 155.323 129.401C154.267 129.664 153.19 129.97 152.098 130.302C150.273 130.847 148.412 131.46 146.504 132.176C124.999 140.266 112.739 148.861 108.127 141.789L108.107 141.758C103.495 134.685 110.637 130.628 126.713 114.211C142.789 97.7948 127.263 63.8039 127.263 63.8039L140.063 61.6107L146.95 84.1534C159.23 96.8185 168.67 119.767 181.407 139.299C194.144 158.831 203.69 161.962 210.326 178.307L230.855 200.845L219.862 201.218C219.862 201.218 198.837 183.747 177.338 191.847L177.307 191.823Z" fill="#EEBB37"/>
</g>
</g>
<path d="M20.5753 16.1996C21.9087 14.2405 23.5103 12.4899 25.3279 11C25.5887 10.784 25.8494 10.5829 26.1176 10.3743C26.9221 9.77089 27.7638 9.2122 28.6429 8.70565C30.1029 7.86388 31.6598 7.1711 33.2912 6.6422C33.6935 6.51556 34.0957 6.38893 34.498 6.28464C34.9002 6.18035 35.3025 6.07605 35.7122 5.98666C36.1145 5.89727 36.5242 5.82278 36.9339 5.75574C38.975 5.42052 41.0384 5.34602 43.087 5.53226C45.426 3.61779 48.1078 2.14284 51.0353 1.19679C51.4227 1.07015 51.8101 0.958406 52.1974 0.854117C58.0228 -0.725128 64.2206 -0.091938 69.584 2.56745C72.4147 2.18009 75.1337 2.30672 77.7261 2.79838C79.0222 3.0442 80.2812 3.37942 81.5029 3.78913C82.7245 4.19884 83.9164 4.68304 85.0636 5.21939C85.8309 5.57695 86.5758 5.95686 87.2984 6.35912C88.021 6.76138 88.7361 7.17855 89.4214 7.61805C89.7641 7.83408 90.1068 8.05756 90.442 8.28104C95.4479 11.6258 99.2991 15.5888 101.549 17.9055C113.505 30.2191 124.709 43.4565 134.914 56.6268C137.462 59.9194 139.957 63.2119 142.378 66.4747C145.611 70.8325 148.725 75.1606 151.705 79.4141C153.195 81.5446 154.662 83.6527 156.092 85.7385C158.953 89.9101 161.679 93.9997 164.272 97.9553C165.568 99.9368 166.827 101.881 168.048 103.796C168.659 104.749 169.263 105.695 169.859 106.634C172.235 110.381 174.462 113.979 176.541 117.39C194.508 146.882 204.833 168.381 205.265 169.282L209.667 178.482L86.4268 214L85.3094 208.45C78.3891 174.176 68.9285 143.925 57.1884 118.523C55.2591 114.344 53.2776 110.314 51.2439 106.44C50.2308 104.503 49.2028 102.604 48.1599 100.741C47.117 98.879 46.0667 97.054 45.0014 95.2736C43.9362 93.4932 42.8635 91.7501 41.7759 90.0442C40.6883 88.3383 39.5933 86.6771 38.4833 85.0532C36.2709 81.8053 34.0063 78.7213 31.7119 75.8086C29.6187 75.8831 27.5329 75.7416 25.4769 75.3915C24.7916 75.2723 24.1137 75.1308 23.4358 74.9669C20.7317 74.3113 18.1021 73.2833 15.629 71.8903C13.5283 70.7133 11.5915 69.298 9.85579 67.6964C9.16301 67.0557 8.49255 66.3853 7.86682 65.6776C5.02119 62.5191 2.84604 58.7796 1.50516 54.6527C-3.65718 38.7783 4.88713 21.6748 20.5827 16.2145L20.5753 16.1996ZM9.99733 51.8741C13.5059 62.6681 24.6649 68.8287 35.5185 66.3183C52.406 86.3568 77.4281 127.007 93.295 202.908L197.13 172.977C195.32 169.222 154.394 85.1277 95.1425 24.1182C88.5722 17.3542 79.8789 9.90498 70.2768 11.5066C72.4371 14.6353 73.4278 17.6746 73.4278 17.6746C70.2619 13.868 68.1836 12.1547 67.1332 11.4321C63.3117 8.98126 58.4697 8.1842 53.8139 9.6964C51.4599 10.4637 49.4189 11.7375 47.7577 13.3614C52.0336 15.3876 55.2516 20.0956 55.2516 20.0956C49.2848 15.9314 46.089 15.2685 46.089 15.2685C42.9603 14.1734 39.4741 14.0468 36.0772 15.1493C32.7027 16.2443 29.9688 18.3822 28.0842 21.0863C34.0212 22.3304 39.6529 27.6566 39.6529 27.6566C31.8386 22.375 26.5496 23.8426 26.5496 23.8426C25.6855 24.0139 24.8139 24.2299 23.9573 24.5055C12.5524 28.2153 6.30994 40.4693 10.0197 51.8741H9.99733Z" fill="#786565"/>
<defs>
<filter id="filter0_f_1001_4969" x="97.1725" y="52.0553" width="143.238" height="158.718" filterUnits="userSpaceOnUse" color-interpolation-filters="sRGB">
<feFlood flood-opacity="0" result="BackgroundImageFix"/>
<feBlend mode="normal" in="SourceGraphic" in2="BackgroundImageFix" result="shape"/>
<feGaussianBlur stdDeviation="4.7775" result="effect1_foregroundBlur_1001_4969"/>
</filter>
<radialGradient id="paint0_radial_1001_4969" cx="0" cy="0" r="1" gradientUnits="userSpaceOnUse" gradientTransform="translate(57.0158 17.7697) rotate(61.9146) scale(226.944 216.057)">
<stop offset="0.260699" stop-color="white"/>
<stop offset="0.411862" stop-color="#FFDA7B"/>
</radialGradient>
</defs>
</svg>
