<svg width="346" height="60" viewBox="0 0 346 60" fill="none" xmlns="http://www.w3.org/2000/svg">
<rect x="1" y="1" width="344" height="58" rx="29" fill="url(#paint0_linear_1321_5304)" stroke="url(#paint1_linear_1321_5304)" stroke-width="2"/>
<path d="M169.295 20.69H171.113C171.293 20.69 171.365 20.78 171.365 20.924V36.296C171.365 36.44 171.293 36.512 171.113 36.512H169.295C169.133 36.512 169.061 36.44 169.061 36.296V27.944H166.307C166.145 27.944 166.073 27.872 166.073 27.71V26.144C166.073 26 166.145 25.91 166.307 25.91H169.061V20.924C169.061 20.78 169.133 20.69 169.295 20.69ZM167.387 31.292C167.531 31.382 167.513 31.544 167.405 31.652L166.307 32.912C166.217 33.02 166.073 33.02 165.929 32.912C164.453 31.706 163.337 30.338 162.743 29.078C162.095 30.41 160.889 31.94 159.341 33.164C159.197 33.272 159.053 33.272 158.963 33.164L157.865 31.904C157.757 31.796 157.757 31.634 157.883 31.544C160.043 29.816 161.555 27.656 161.555 24.74V24.344H158.549C158.387 24.344 158.315 24.254 158.315 24.11V22.526C158.315 22.382 158.387 22.292 158.549 22.292H166.631C166.793 22.292 166.865 22.382 166.865 22.526V24.11C166.865 24.254 166.793 24.344 166.631 24.344H163.823V24.74C163.823 27.566 165.407 29.726 167.387 31.292ZM186.302 24.038H188.588C188.768 24.038 188.84 24.128 188.84 24.29V25.838C188.84 26 188.768 26.09 188.588 26.09H186.302V29.456C186.302 29.6 186.23 29.672 186.05 29.672H184.214C184.07 29.672 183.998 29.6 183.998 29.456V20.924C183.998 20.78 184.07 20.69 184.214 20.69H186.05C186.23 20.69 186.302 20.78 186.302 20.924V24.038ZM178.256 26.774C177.428 27.836 176.15 28.862 174.62 29.636C174.476 29.708 174.296 29.672 174.242 29.582L173.342 28.214C173.252 28.07 173.252 27.908 173.378 27.854C175.502 26.774 177.068 25.46 177.068 23.948V23.552H174.044C173.864 23.552 173.81 23.48 173.81 23.336V21.824C173.81 21.698 173.864 21.608 174.044 21.608H182.306C182.468 21.608 182.54 21.698 182.54 21.824V23.336C182.54 23.48 182.468 23.552 182.306 23.552H179.372V23.948C179.372 25.37 180.614 26.396 182.81 27.458C182.936 27.53 182.936 27.674 182.882 27.818L182.054 29.186C182 29.312 181.82 29.312 181.676 29.24C180.362 28.664 179.12 27.746 178.256 26.774ZM181.046 30.104C184.664 30.104 186.464 31.418 186.464 33.398C186.464 35.36 184.664 36.692 181.046 36.692C177.41 36.692 175.61 35.36 175.61 33.398C175.61 31.418 177.41 30.104 181.046 30.104ZM181.046 34.766C183.332 34.766 184.178 34.19 184.178 33.398C184.178 32.606 183.332 32.048 181.046 32.048C178.742 32.048 177.896 32.606 177.896 33.398C177.896 34.19 178.742 34.766 181.046 34.766Z" fill="white"/>
<defs>
<linearGradient id="paint0_linear_1321_5304" x1="173" y1="2" x2="173" y2="59.6154" gradientUnits="userSpaceOnUse">
<stop stop-color="#FDDAED"/>
<stop offset="0.275531" stop-color="#F787A1"/>
<stop offset="0.529509" stop-color="#F046AC"/>
<stop offset="0.770833" stop-color="#D33D97"/>
<stop offset="1" stop-color="#F096D7"/>
</linearGradient>
<linearGradient id="paint1_linear_1321_5304" x1="2" y1="2" x2="345.068" y2="50.4365" gradientUnits="userSpaceOnUse">
<stop stop-color="#F268BB"/>
<stop offset="1" stop-color="#EDBBD9"/>
</linearGradient>
</defs>
</svg>
