<svg width="16" height="15" viewBox="0 0 16 15" fill="none" xmlns="http://www.w3.org/2000/svg">
<path d="M1.10059 14.5537C0.930664 14.3838 0.816406 14.1846 0.757812 13.9561C0.705078 13.7217 0.708008 13.4932 0.766602 13.2705C0.825195 13.042 0.933594 12.8486 1.0918 12.6904L6.11035 7.66309L1.0918 2.64453C0.933594 2.48633 0.825195 2.29297 0.766602 2.06445C0.713867 1.83594 0.713867 1.60742 0.766602 1.37891C0.825195 1.15039 0.936523 0.951172 1.10059 0.78125C1.27051 0.605469 1.46973 0.491211 1.69824 0.438477C1.93262 0.385742 2.16406 0.385742 2.39258 0.438477C2.62109 0.491211 2.81738 0.599609 2.98145 0.763672L8 5.77344L13.0098 0.763672C13.1738 0.599609 13.3701 0.491211 13.5986 0.438477C13.8271 0.379883 14.0527 0.379883 14.2754 0.438477C14.5039 0.49707 14.7061 0.611328 14.8818 0.78125C15.0518 0.951172 15.166 1.15039 15.2246 1.37891C15.2832 1.60742 15.2832 1.83594 15.2246 2.06445C15.1719 2.28711 15.0635 2.4834 14.8994 2.65332L9.88965 7.66309L14.8994 12.6816C15.0635 12.8457 15.1719 13.042 15.2246 13.2705C15.2773 13.499 15.2744 13.7275 15.2158 13.9561C15.1631 14.1846 15.0518 14.3838 14.8818 14.5537C14.7119 14.7236 14.5127 14.835 14.2842 14.8877C14.0557 14.9463 13.8271 14.9492 13.5986 14.8965C13.3701 14.8438 13.1738 14.7324 13.0098 14.5625L8 9.55273L2.98145 14.5713C2.81738 14.7295 2.62109 14.835 2.39258 14.8877C2.16992 14.9463 1.94141 14.9463 1.70703 14.8877C1.47852 14.835 1.27637 14.7236 1.10059 14.5537Z" fill="#D955A4"/>
</svg>
