<svg width="346" height="60" viewBox="0 0 346 60" fill="none" xmlns="http://www.w3.org/2000/svg">
<path d="M2 30C2 14.536 14.536 2 30 2H316C331.464 2 344 14.536 344 30C344 45.464 331.464 58 316 58H30C14.536 58 2 45.464 2 30Z" fill="url(#paint0_linear_1543_2528)"/>
<path fill-rule="evenodd" clip-rule="evenodd" d="M30 0H316C332.569 0 346 13.4315 346 30C346 46.5685 332.569 60 316 60H30C13.4315 60 0 46.5685 0 30C0 13.4315 13.4315 0 30 0ZM30 2C14.536 2 2 14.536 2 30C2 45.464 14.536 58 30 58H316C331.464 58 344 45.464 344 30C344 14.536 331.464 2 316 2H30Z" fill="url(#paint1_linear_1543_2528)"/>
<path d="M169.296 20.6899H171.114C171.294 20.6899 171.366 20.7799 171.366 20.9239V36.2959C171.366 36.4399 171.294 36.5119 171.114 36.5119H169.296C169.134 36.5119 169.062 36.4399 169.062 36.2959V27.9439H166.308C166.146 27.9439 166.074 27.8719 166.074 27.7099V26.1439C166.074 25.9999 166.146 25.9099 166.308 25.9099H169.062V20.9239C169.062 20.7799 169.134 20.6899 169.296 20.6899ZM167.388 31.2919C167.532 31.3819 167.514 31.5439 167.406 31.6519L166.308 32.9119C166.218 33.0199 166.074 33.0199 165.93 32.9119C164.454 31.7059 163.338 30.3379 162.744 29.0779C162.096 30.4099 160.89 31.9399 159.342 33.1639C159.198 33.2719 159.054 33.2719 158.964 33.1639L157.866 31.9039C157.758 31.7959 157.758 31.6339 157.884 31.5439C160.044 29.8159 161.556 27.6559 161.556 24.7399V24.3439H158.55C158.388 24.3439 158.316 24.2539 158.316 24.1099V22.5259C158.316 22.3819 158.388 22.2919 158.55 22.2919H166.632C166.794 22.2919 166.866 22.3819 166.866 22.5259V24.1099C166.866 24.2539 166.794 24.3439 166.632 24.3439H163.824V24.7399C163.824 27.5659 165.408 29.7259 167.388 31.2919Z" fill="#EB80B8"/>
<path d="M186.302 24.0379H188.588C188.768 24.0379 188.84 24.1279 188.84 24.2899V25.8379C188.84 25.9999 188.768 26.0899 188.588 26.0899H186.302V29.4559C186.302 29.5999 186.23 29.6719 186.05 29.6719H184.214C184.07 29.6719 183.998 29.5999 183.998 29.4559V20.9239C183.998 20.7799 184.07 20.6899 184.214 20.6899H186.05C186.23 20.6899 186.302 20.7799 186.302 20.9239V24.0379ZM178.256 26.7739C177.428 27.8359 176.15 28.8619 174.62 29.6359C174.476 29.7079 174.296 29.6719 174.242 29.5819L173.342 28.2139C173.252 28.0699 173.252 27.9079 173.378 27.8539C175.502 26.7739 177.068 25.4599 177.068 23.9479V23.5519H174.044C173.864 23.5519 173.81 23.4799 173.81 23.3359V21.8239C173.81 21.6979 173.864 21.6079 174.044 21.6079H182.306C182.468 21.6079 182.54 21.6979 182.54 21.8239V23.3359C182.54 23.4799 182.468 23.5519 182.306 23.5519H179.372V23.9479C179.372 25.3699 180.614 26.3959 182.81 27.4579C182.936 27.5299 182.936 27.6739 182.882 27.8179L182.054 29.1859C182 29.3119 181.82 29.3119 181.676 29.2399C180.362 28.6639 179.12 27.7459 178.256 26.7739ZM181.046 30.1039C184.664 30.1039 186.464 31.4179 186.464 33.3979C186.464 35.3599 184.664 36.6919 181.046 36.6919C177.41 36.6919 175.61 35.3599 175.61 33.3979C175.61 31.4179 177.41 30.1039 181.046 30.1039ZM181.046 34.7659C183.332 34.7659 184.178 34.1899 184.178 33.3979C184.178 32.6059 183.332 32.0479 181.046 32.0479C178.742 32.0479 177.896 32.6059 177.896 33.3979C177.896 34.1899 178.742 34.7659 181.046 34.7659Z" fill="#EB80B8"/>
<defs>
<linearGradient id="paint0_linear_1543_2528" x1="173" y1="2" x2="173" y2="59.6154" gradientUnits="userSpaceOnUse">
<stop stop-color="white"/>
<stop offset="0.275531" stop-color="#FCD6E8"/>
<stop offset="0.529509" stop-color="#FBBBE1"/>
<stop offset="0.770833" stop-color="#FFA8D2"/>
<stop offset="1" stop-color="#FFD7EF"/>
</linearGradient>
<linearGradient id="paint1_linear_1543_2528" x1="2" y1="1.99997" x2="345.068" y2="50.4365" gradientUnits="userSpaceOnUse">
<stop stop-color="#E17CB0"/>
<stop offset="1" stop-color="#FFD2E7"/>
</linearGradient>
</defs>
</svg>
