<svg width="194" height="131" viewBox="0 0 194 131" fill="none" xmlns="http://www.w3.org/2000/svg">
<mask id="path-1-inside-1_1273_5383" fill="white">
<path fill-rule="evenodd" clip-rule="evenodd" d="M118.819 116.295C161.483 110.178 193.244 86.8154 193.244 58.9287C193.244 26.3833 149.985 0 96.6218 0C43.2591 0 0 26.3833 0 58.9287C0 91.4741 43.2591 117.857 96.6218 117.857C97.4535 117.857 98.2828 117.851 99.1094 117.838C108.892 125.053 123.815 130.953 143.193 131C137.361 129.443 126.747 123.885 118.819 116.295Z"/>
</mask>
<path fill-rule="evenodd" clip-rule="evenodd" d="M118.819 116.295C161.483 110.178 193.244 86.8154 193.244 58.9287C193.244 26.3833 149.985 0 96.6218 0C43.2591 0 0 26.3833 0 58.9287C0 91.4741 43.2591 117.857 96.6218 117.857C97.4535 117.857 98.2828 117.851 99.1094 117.838C108.892 125.053 123.815 130.953 143.193 131C137.361 129.443 126.747 123.885 118.819 116.295Z" fill="url(#paint0_radial_1273_5383)"/>
<path d="M118.819 116.295L118.518 114.193L114.199 114.812L117.35 117.829L118.819 116.295ZM99.1094 117.838L100.37 116.129L99.7932 115.704L99.0767 115.715L99.1094 117.838ZM143.193 131L143.188 133.124L143.741 128.948L143.193 131ZM191.12 58.9287C191.12 72.0018 183.68 84.2512 170.745 94.085C157.816 103.914 139.57 111.174 118.518 114.193L119.12 118.397C140.731 115.298 159.697 107.819 173.315 97.466C186.927 87.1176 195.367 73.7423 195.367 58.9287H191.12ZM96.6218 2.12356C122.978 2.12356 146.738 8.6434 163.838 19.0728C180.976 29.5248 191.12 43.6778 191.12 58.9287H195.367C195.367 41.6342 183.882 26.3228 166.049 15.4468C148.18 4.54824 123.628 -2.12356 96.6218 -2.12356V2.12356ZM2.12356 58.9287C2.12356 43.6778 12.2681 29.5248 29.4056 19.0728C46.506 8.6434 70.2653 2.12356 96.6218 2.12356V-2.12356C69.6156 -2.12356 45.0639 4.54824 27.1942 15.4468C9.36144 26.3228 -2.12356 41.6342 -2.12356 58.9287H2.12356ZM96.6218 115.734C70.2653 115.734 46.506 109.214 29.4056 98.7846C12.2681 88.3326 2.12356 74.1796 2.12356 58.9287H-2.12356C-2.12356 76.2232 9.36144 91.5345 27.1942 102.411C45.0639 113.309 69.6156 119.981 96.6218 119.981V115.734ZM99.0767 115.715C98.2609 115.727 97.4426 115.734 96.6218 115.734V119.981C97.4644 119.981 98.3046 119.974 99.1421 119.962L99.0767 115.715ZM143.198 128.876C124.253 128.83 109.773 123.065 100.37 116.129L97.8489 119.547C108.01 127.042 123.378 133.075 143.188 133.124L143.198 128.876ZM117.35 117.829C125.509 125.64 136.432 131.393 142.645 133.052L143.741 128.948C138.289 127.493 127.984 122.13 120.288 114.761L117.35 117.829Z" fill="#61647B" mask="url(#path-1-inside-1_1273_5383)"/>
<path d="M47.3625 42.1352H45.5625V43.4102H47.3625C47.4975 43.4102 47.5575 43.4852 47.5575 43.6202V44.8802C47.5575 45.0002 47.4975 45.0602 47.3625 45.0602H45.5625V46.2602C45.5625 46.3802 45.5025 46.4552 45.3525 46.4552H43.8225C43.7025 46.4552 43.6425 46.3802 43.6425 46.2602V39.2702C43.6425 39.1502 43.7025 39.0752 43.8225 39.0752H45.3525C45.5025 39.0752 45.5625 39.1502 45.5625 39.2702V40.4552H47.3625C47.4975 40.4552 47.5575 40.5302 47.5575 40.6652V41.9252C47.5575 42.0602 47.4975 42.1352 47.3625 42.1352ZM42.4875 45.1502C41.3175 45.4502 39.5925 45.6152 38.0925 45.6152H35.6025C35.4675 45.6152 35.4075 45.5402 35.4075 45.4202V39.8852C35.4075 39.7652 35.4675 39.6902 35.5875 39.6902H37.1175C37.2525 39.6902 37.3125 39.7652 37.3125 39.8852V43.9502H38.3925C39.5175 43.9502 41.0325 43.8452 42.2325 43.5752C42.3525 43.5452 42.4425 43.6052 42.4725 43.7402L42.6525 44.9102C42.6825 45.0302 42.6375 45.1052 42.4875 45.1502ZM41.1825 46.8152C44.1525 46.8152 45.6975 47.9852 45.6975 49.6052C45.6975 51.1952 44.1525 52.3952 41.1825 52.3952C38.1975 52.3952 36.6525 51.2102 36.6525 49.6052C36.6525 47.9852 38.1975 46.8152 41.1825 46.8152ZM41.1825 50.7902C43.0575 50.7902 43.7925 50.2352 43.7925 49.6052C43.7925 48.9752 43.0575 48.4202 41.1825 48.4202C39.3075 48.4202 38.5575 48.9752 38.5575 49.6052C38.5575 50.2352 39.3075 50.7902 41.1825 50.7902Z" fill="#1DCF90"/>
<path d="M49.2796 46.7852L48.7096 45.5852C48.6646 45.4802 48.6946 45.3902 48.8146 45.3452C51.3346 44.4752 53.1496 42.7952 53.1496 41.3252V40.1852C53.1496 40.0652 53.2096 40.0052 53.3296 40.0052H54.8896C55.0246 40.0052 55.0847 40.0652 55.0847 40.1852V41.3252C55.0847 42.7952 56.8847 44.4752 59.4047 45.3452C59.5247 45.3902 59.5547 45.4802 59.5097 45.5852L58.9547 46.7852C58.9097 46.8902 58.8197 46.9352 58.6996 46.9052C56.5996 46.2602 54.9046 45.0302 54.1096 43.8902C53.3146 45.0302 51.6196 46.2602 49.5196 46.9052C49.3996 46.9352 49.3246 46.8902 49.2796 46.7852ZM55.0847 49.3052H60.2597C60.3947 49.3052 60.4547 49.3802 60.4547 49.5002V50.8202C60.4547 50.9252 60.3947 51.0002 60.2597 51.0002H47.9596C47.8396 51.0002 47.7796 50.9252 47.7796 50.8202V49.5002C47.7796 49.3802 47.8396 49.3052 47.9596 49.3052H53.1646V46.6652C53.1646 46.5452 53.2246 46.4852 53.3446 46.4852H54.8746C55.0246 46.4852 55.0847 46.5452 55.0847 46.6652V49.3052Z" fill="#1DCF90"/>
<path d="M72.1818 52.2602H70.6668C70.5318 52.2602 70.4718 52.2002 70.4718 52.0802V39.2702C70.4718 39.1502 70.5318 39.0752 70.6668 39.0752H72.1818C72.3318 39.0752 72.3918 39.1502 72.3918 39.2702V52.0802C72.3918 52.2002 72.3318 52.2602 72.1818 52.2602ZM64.4418 49.2302H61.8468C61.7118 49.2302 61.6668 49.1552 61.6668 49.0352V44.1602C61.6668 44.0402 61.7118 43.9652 61.8468 43.9652H66.4518V41.8502H61.8168C61.6968 41.8502 61.6368 41.7902 61.6368 41.6552V40.4552C61.6368 40.3502 61.6968 40.2752 61.8168 40.2752H68.1618C68.2818 40.2752 68.3418 40.3502 68.3418 40.4552V45.2702C68.3418 45.3902 68.2668 45.4652 68.1468 45.4652H63.5568V47.6402H64.7268C65.8818 47.6402 67.5468 47.5202 68.8668 47.2202C68.9868 47.2052 69.0768 47.2502 69.1068 47.4002L69.3018 48.5852C69.3168 48.6902 69.2868 48.7352 69.1518 48.7652C67.8168 49.0502 66.2418 49.2302 64.4418 49.2302Z" fill="#1DCF90"/>
<path d="M84.794 44.4902H76.109C75.974 44.4902 75.914 44.4152 75.914 44.3102V41.4002C75.914 41.2802 75.974 41.1902 76.109 41.1902H82.784V40.6802H76.079C75.944 40.6802 75.884 40.6052 75.884 40.4702V39.4502C75.884 39.3302 75.944 39.2702 76.079 39.2702H84.494C84.614 39.2702 84.674 39.3302 84.674 39.4502V42.3602C84.674 42.4802 84.599 42.5552 84.479 42.5552H77.804V43.1102H84.794C84.914 43.1102 84.989 43.1852 84.989 43.3052V44.3102C84.989 44.4152 84.914 44.4902 84.794 44.4902ZM86.444 46.5602H74.144C74.024 46.5602 73.964 46.5002 73.964 46.3802V45.3002C73.964 45.1802 74.024 45.1052 74.144 45.1052H86.444C86.579 45.1052 86.639 45.1802 86.639 45.3002V46.3802C86.639 46.5002 86.579 46.5602 86.444 46.5602ZM85.019 52.4852H75.959C75.839 52.4852 75.779 52.4102 75.779 52.2902V49.3502C75.779 49.2302 75.839 49.1402 75.959 49.1402H82.934V48.6302H75.929C75.809 48.6302 75.749 48.5552 75.749 48.4202V47.4302C75.749 47.3102 75.809 47.2352 75.929 47.2352H84.629C84.764 47.2352 84.824 47.3102 84.824 47.4302V50.3102C84.824 50.4302 84.749 50.5052 84.614 50.5052H77.669V51.0752H85.019C85.154 51.0752 85.229 51.1502 85.229 51.2702V52.2902C85.229 52.4102 85.154 52.4852 85.019 52.4852Z" fill="#4A4D66"/>
<path d="M100.012 39.0752H101.512C101.662 39.0752 101.722 39.1502 101.722 39.2702V52.0802C101.722 52.2002 101.662 52.2602 101.512 52.2602H100.012C99.8771 52.2602 99.8171 52.2002 99.8171 52.0802V39.2702C99.8171 39.1502 99.8771 39.0752 100.012 39.0752ZM98.9171 47.9402C99.0521 47.9252 99.1271 48.0002 99.1421 48.1202L99.3071 49.3502C99.3071 49.4552 99.2471 49.5152 99.1121 49.5452C97.4621 49.8752 95.6021 49.9952 93.2771 49.9952H90.6071C90.4721 49.9952 90.4121 49.9202 90.4121 49.8002V48.5552C90.4121 48.4352 90.4721 48.3602 90.6071 48.3602H92.9021H93.7871V46.5302C92.0921 46.1852 91.1021 44.9252 91.1021 43.3802C91.1021 41.5652 92.4671 40.1402 94.7321 40.1402C97.0121 40.1402 98.3621 41.5652 98.3621 43.3802C98.3621 44.9252 97.3871 46.1852 95.6921 46.5302V48.3002C96.8621 48.2402 97.9271 48.1202 98.9171 47.9402ZM93.0071 43.3802C93.0071 44.3402 93.7571 44.9702 94.7321 44.9702C95.7071 44.9702 96.4571 44.3402 96.4571 43.3802C96.4571 42.4352 95.7071 41.8052 94.7321 41.8052C93.7571 41.8052 93.0071 42.4352 93.0071 43.3802Z" fill="#4A4D66"/>
<path d="M113.089 39.0752H114.604C114.754 39.0752 114.814 39.1502 114.814 39.2702V52.0802C114.814 52.2002 114.754 52.2602 114.604 52.2602H113.089C112.954 52.2602 112.894 52.2002 112.894 52.0802V47.2202H110.764C110.614 47.2202 110.569 47.1602 110.569 47.0252V45.7802C110.569 45.6602 110.614 45.5852 110.764 45.5852H112.894V44.3702H110.749C110.599 44.3702 110.554 44.3102 110.554 44.1752V42.9902H108.469C108.544 45.2552 109.774 46.9802 111.424 48.2552C111.544 48.3302 111.529 48.4652 111.439 48.5552L110.539 49.6052C110.449 49.6952 110.329 49.6952 110.224 49.6052C108.949 48.5852 108.109 47.5052 107.584 46.4702C107.059 47.5802 106.099 48.7952 104.794 49.8152C104.674 49.9052 104.554 49.9052 104.479 49.8152L103.564 48.7652C103.474 48.6752 103.474 48.5402 103.579 48.4652C105.409 47.0702 106.519 45.3152 106.579 42.9902H104.029C103.879 42.9902 103.819 42.9152 103.819 42.8102V41.4752C103.819 41.3702 103.879 41.2952 104.029 41.2952H106.579V39.6452C106.579 39.5252 106.639 39.4502 106.774 39.4502H108.289C108.424 39.4502 108.469 39.5252 108.469 39.6452V41.2952H110.839C110.974 41.2952 111.034 41.3702 111.034 41.4752V42.7352H112.894V39.2702C112.894 39.1502 112.954 39.0752 113.089 39.0752Z" fill="#4A4D66"/>
<path d="M127.261 43.9952H129.166C129.316 43.9952 129.376 44.0702 129.376 44.2052V45.5102C129.376 45.6302 129.316 45.7052 129.166 45.7052H127.261V52.0802C127.261 52.2002 127.201 52.2602 127.051 52.2602H125.521C125.401 52.2602 125.341 52.2002 125.341 52.0802V39.2702C125.341 39.1502 125.401 39.0752 125.521 39.0752H127.051C127.201 39.0752 127.261 39.1502 127.261 39.2702V43.9952ZM124.546 48.1202L124.711 49.3502C124.726 49.4552 124.651 49.5152 124.516 49.5452C122.866 49.8752 121.081 49.9952 118.756 49.9952H116.356C116.221 49.9952 116.161 49.9202 116.161 49.8002V48.5552C116.161 48.4352 116.221 48.3602 116.356 48.3602H118.381H119.386V46.3502H117.226C117.091 46.3502 117.031 46.2752 117.031 46.1552V40.2452C117.031 40.1252 117.091 40.0502 117.226 40.0502H118.726C118.861 40.0502 118.921 40.1252 118.921 40.2452V41.8052H121.771V40.2452C121.771 40.1252 121.831 40.0502 121.951 40.0502H123.451C123.586 40.0502 123.646 40.1252 123.646 40.2452V46.1552C123.646 46.2752 123.586 46.3502 123.451 46.3502H121.291V48.2852C122.386 48.2252 123.376 48.1202 124.321 47.9402C124.456 47.9252 124.531 48.0002 124.546 48.1202ZM121.771 43.3502H118.921V44.7302H121.771V43.3502Z" fill="#4A4D66"/>
<path d="M142.154 43.6352H140.354V45.6152H142.154C142.289 45.6152 142.349 45.6902 142.349 45.8102V47.1002C142.349 47.2202 142.289 47.2802 142.154 47.2802H140.354V52.0802C140.354 52.2002 140.294 52.2602 140.144 52.2602H138.614C138.494 52.2602 138.434 52.2002 138.434 52.0802V39.2702C138.434 39.1502 138.494 39.0752 138.614 39.0752H140.144C140.294 39.0752 140.354 39.1502 140.354 39.2702V41.9702H142.154C142.289 41.9702 142.349 42.0452 142.349 42.1802V43.4402C142.349 43.5752 142.289 43.6352 142.154 43.6352ZM137.279 47.0702L137.489 48.3602C137.504 48.4802 137.459 48.5252 137.324 48.5552C136.004 48.8402 134.414 49.0202 132.614 49.0202H130.394C130.259 49.0202 130.199 48.9452 130.199 48.8252V40.4552C130.199 40.3502 130.259 40.2752 130.379 40.2752H131.924C132.059 40.2752 132.104 40.3502 132.104 40.4552V47.3102H132.899C134.054 47.3102 135.719 47.1902 137.039 46.8902C137.159 46.8602 137.264 46.9352 137.279 47.0702Z" fill="#4A4D66"/>
<path d="M147.457 43.9952C146.767 43.9952 146.242 43.5002 146.242 42.8102C146.242 42.1202 146.767 41.6252 147.457 41.6252C148.147 41.6252 148.672 42.1202 148.672 42.8102C148.672 43.5002 148.147 43.9952 147.457 43.9952ZM147.457 49.7252C146.767 49.7252 146.242 49.2302 146.242 48.5402C146.242 47.8502 146.767 47.3552 147.457 47.3552C148.147 47.3552 148.672 47.8502 148.672 48.5402C148.672 49.2302 148.147 49.7252 147.457 49.7252Z" fill="#4A4D66"/>
<path d="M153.855 51.2102C151.89 51.2102 150.465 50.1002 149.94 48.3002C149.91 48.1652 149.97 48.0902 150.09 48.0602L151.605 47.6552C151.725 47.6252 151.8 47.6702 151.845 47.7902C152.16 48.6452 152.79 49.2302 153.855 49.2302C155.01 49.2302 155.745 48.6002 155.745 47.6402C155.745 46.6802 154.95 46.1552 153.735 46.1552H153.27C153.15 46.1552 153.075 46.0802 153.075 45.9602V44.6252C153.075 44.5052 153.15 44.4302 153.27 44.4302H153.735C154.755 44.4302 155.46 43.9052 155.46 43.1402C155.46 42.3452 154.77 41.7602 153.81 41.7602C152.865 41.7602 152.25 42.3452 151.935 43.2002C151.89 43.3202 151.815 43.3652 151.695 43.3352L150.18 42.9302C150.06 42.9002 150 42.8252 150.03 42.6902C150.555 40.8902 151.965 39.7802 153.855 39.7802C155.985 39.7802 157.56 41.0402 157.56 42.7652C157.56 43.8452 156.915 44.7452 155.835 45.2402C157.08 45.6602 157.845 46.5902 157.845 47.9252C157.845 49.8902 156.225 51.2102 153.855 51.2102Z" fill="#4A4D66"/>
<path d="M34.5559 64.7102H36.4609C36.6109 64.7102 36.6709 64.7852 36.6709 64.9202V66.2252C36.6709 66.3452 36.6109 66.4202 36.4609 66.4202H34.5559V73.0802C34.5559 73.2002 34.4959 73.2602 34.3459 73.2602H32.8159C32.6959 73.2602 32.6359 73.2002 32.6359 73.0802V60.2702C32.6359 60.1502 32.6959 60.0752 32.8159 60.0752H34.3459C34.4959 60.0752 34.5559 60.1502 34.5559 60.2702V64.7102ZM27.6409 61.2002C29.9059 61.2002 31.4509 62.7752 31.4509 65.7452C31.4509 68.7302 29.9059 70.3052 27.6409 70.3052C25.3609 70.3052 23.8159 68.7302 23.8159 65.7452C23.8159 62.7752 25.3609 61.2002 27.6409 61.2002ZM27.6409 68.5952C28.8259 68.5952 29.5459 67.6502 29.5459 65.7452C29.5459 63.8552 28.8259 62.8952 27.6409 62.8952C26.4559 62.8952 25.7209 63.8552 25.7209 65.7452C25.7209 67.6502 26.4559 68.5952 27.6409 68.5952Z" fill="#4A4D66"/>
<path d="M41.1531 65.4302C40.4781 66.2852 39.3981 67.1252 38.1231 67.7552C38.0031 67.8152 37.8681 67.7852 37.8081 67.6952L37.0581 66.5552C36.9831 66.4352 36.9831 66.3152 37.1031 66.2552C38.8431 65.3552 40.1631 64.3352 40.1631 63.0752V63.0452H37.5831C37.4331 63.0452 37.3731 62.9702 37.3731 62.8502V61.6052C37.3731 61.4852 37.4331 61.4102 37.5831 61.4102H40.1631V60.1652C40.1631 60.0452 40.2231 59.9702 40.3581 59.9702H41.9031C42.0231 59.9702 42.0831 60.0452 42.0831 60.1652V61.4102H44.6031C44.7531 61.4102 44.7981 61.4852 44.7981 61.6052V62.8502C44.7981 62.9702 44.7531 63.0452 44.6031 63.0452H42.0831V63.0752C42.0831 64.2602 43.1181 65.1152 44.9481 66.0152C45.0681 66.0602 45.0681 66.1802 45.0081 66.3002L44.3331 67.4552C44.2731 67.5452 44.1231 67.5452 44.0181 67.5002C42.9081 67.0052 41.8731 66.2402 41.1531 65.4302ZM46.5681 60.0752H48.0831C48.2331 60.0752 48.2931 60.1502 48.2931 60.2702V67.3952C48.2931 67.5002 48.2331 67.5752 48.0831 67.5752H46.5681C46.4331 67.5752 46.3731 67.5002 46.3731 67.3952V60.2702C46.3731 60.1502 46.4331 60.0752 46.5681 60.0752ZM39.8331 68.2352H48.0981C48.2331 68.2352 48.2931 68.3102 48.2931 68.4302V73.0652C48.2931 73.1852 48.2331 73.2602 48.0981 73.2602H39.8331C39.6981 73.2602 39.6381 73.1852 39.6381 73.0652V68.4302C39.6381 68.3102 39.6981 68.2352 39.8331 68.2352ZM41.5581 71.6252H46.3731V69.8552H41.5581V71.6252Z" fill="#4A4D66"/>
<path d="M61.1753 69.6902H59.6603C59.5253 69.6902 59.4653 69.6302 59.4653 69.5102V60.2702C59.4653 60.1502 59.5253 60.0752 59.6603 60.0752H61.1753C61.3253 60.0752 61.3853 60.1502 61.3853 60.2702V69.5102C61.3853 69.6302 61.3253 69.6902 61.1753 69.6902ZM54.0503 67.3652C51.9053 67.3652 50.3903 65.9702 50.3903 63.9902C50.3903 62.0252 51.9053 60.6302 54.0503 60.6302C56.1953 60.6302 57.7103 62.0252 57.7103 63.9902C57.7103 65.9702 56.1953 67.3652 54.0503 67.3652ZM54.0503 65.7452C55.1003 65.7452 55.8353 65.0402 55.8353 63.9902C55.8353 62.9402 55.1003 62.2352 54.0503 62.2352C53.0003 62.2352 52.2653 62.9402 52.2653 63.9902C52.2653 65.0402 53.0003 65.7452 54.0503 65.7452ZM61.4753 73.1252H52.8503C52.7153 73.1252 52.6553 73.0502 52.6553 72.9302V68.6552C52.6553 68.5502 52.7153 68.4752 52.8503 68.4752H54.3803C54.5153 68.4752 54.5753 68.5502 54.5753 68.6552V71.4302H61.4753C61.6103 71.4302 61.6703 71.4902 61.6703 71.6252V72.9302C61.6703 73.0502 61.6103 73.1252 61.4753 73.1252Z" fill="#4A4D66"/>
<path d="M73.8325 64.5752H75.7375C75.8875 64.5752 75.9475 64.6352 75.9475 64.7702V66.0752C75.9475 66.1952 75.8875 66.2702 75.7375 66.2702H73.8325V73.0802C73.8325 73.2002 73.7725 73.2602 73.6225 73.2602H72.0925C71.9725 73.2602 71.9125 73.2002 71.9125 73.0802V60.2702C71.9125 60.1502 71.9725 60.0752 72.0925 60.0752H73.6225C73.7725 60.0752 73.8325 60.1502 73.8325 60.2702V64.5752ZM71.1325 68.5502C71.2525 68.6252 71.2375 68.7602 71.1475 68.8502L70.2475 69.9002C70.1575 69.9902 70.0375 69.9902 69.9175 69.9002C68.6575 68.8952 67.6525 67.7552 67.1575 66.7352C66.6025 67.8302 65.5525 69.0602 64.2325 70.1102C64.1275 70.2002 64.0075 70.2002 63.9175 70.1102L63.0175 69.0602C62.9275 68.9702 62.9275 68.8352 63.0325 68.7602C64.8325 67.3202 66.1525 65.5202 66.1525 63.0152V61.4552C66.1525 61.3502 66.2125 61.2752 66.3325 61.2752H67.8625C67.9975 61.2752 68.0575 61.3502 68.0575 61.4552V63.0152C68.0575 65.4452 69.5425 67.2752 71.1325 68.5502Z" fill="#4A4D66"/>
<path d="M86.8797 65.4902H78.1947C78.0597 65.4902 77.9997 65.4152 77.9997 65.3102V62.4002C77.9997 62.2802 78.0597 62.1902 78.1947 62.1902H84.8697V61.6802H78.1647C78.0297 61.6802 77.9697 61.6052 77.9697 61.4702V60.4502C77.9697 60.3302 78.0297 60.2702 78.1647 60.2702H86.5797C86.6997 60.2702 86.7597 60.3302 86.7597 60.4502V63.3602C86.7597 63.4802 86.6847 63.5552 86.5647 63.5552H79.8897V64.1102H86.8797C86.9997 64.1102 87.0747 64.1852 87.0747 64.3052V65.3102C87.0747 65.4152 86.9997 65.4902 86.8797 65.4902ZM88.5297 67.5602H76.2297C76.1097 67.5602 76.0497 67.5002 76.0497 67.3802V66.3002C76.0497 66.1802 76.1097 66.1052 76.2297 66.1052H88.5297C88.6647 66.1052 88.7247 66.1802 88.7247 66.3002V67.3802C88.7247 67.5002 88.6647 67.5602 88.5297 67.5602ZM87.1047 73.4852H78.0447C77.9247 73.4852 77.8647 73.4102 77.8647 73.2902V70.3502C77.8647 70.2302 77.9247 70.1402 78.0447 70.1402H85.0197V69.6302H78.0147C77.8947 69.6302 77.8347 69.5552 77.8347 69.4202V68.4302C77.8347 68.3102 77.8947 68.2352 78.0147 68.2352H86.7147C86.8497 68.2352 86.9097 68.3102 86.9097 68.4302V71.3102C86.9097 71.4302 86.8347 71.5052 86.6997 71.5052H79.7547V72.0752H87.1047C87.2397 72.0752 87.3147 72.1502 87.3147 72.2702V73.2902C87.3147 73.4102 87.2397 73.4852 87.1047 73.4852Z" fill="#4A4D66"/>
<path d="M102.593 60.0752H104.108C104.243 60.0752 104.288 60.1502 104.288 60.2702V73.0802C104.288 73.2002 104.243 73.2602 104.108 73.2602H102.593C102.473 73.2602 102.413 73.2002 102.413 73.0802V66.9152H101.273V72.6752C101.273 72.7952 101.213 72.8702 101.078 72.8702H99.5928C99.4728 72.8702 99.4128 72.7952 99.4128 72.6752V60.5552C99.4128 60.4352 99.4728 60.3602 99.5928 60.3602H101.078C101.213 60.3602 101.273 60.4352 101.273 60.5552V65.2202H102.413V60.2702C102.413 60.1502 102.473 60.0752 102.593 60.0752ZM96.5478 62.3852H98.7678C98.8878 62.3852 98.9478 62.4602 98.9478 62.5652V63.8252C98.9478 63.9302 98.8878 64.0052 98.7678 64.0052H92.3028C92.1678 64.0052 92.1078 63.9302 92.1078 63.8252V62.5652C92.1078 62.4602 92.1678 62.3852 92.3028 62.3852H94.6278V60.6602C94.6278 60.5552 94.6878 60.4802 94.8378 60.4802H96.3528C96.4878 60.4802 96.5478 60.5552 96.5478 60.6602V62.3852ZM95.5878 64.7852C97.5528 64.7852 98.6628 66.0302 98.6628 67.9202C98.6628 69.8252 97.5528 71.0552 95.5878 71.0552C93.6228 71.0552 92.5278 69.8252 92.5278 67.9202C92.5278 66.0302 93.6228 64.7852 95.5878 64.7852ZM95.6028 69.4952C96.4578 69.4952 96.8328 68.8652 96.8328 67.9202C96.8328 66.9752 96.4578 66.3452 95.6028 66.3452C94.7328 66.3452 94.3578 66.9752 94.3578 67.9202C94.3578 68.8652 94.7328 69.4952 95.6028 69.4952Z" fill="#4A4D66"/>
<path d="M112.67 70.3052H117.86C117.995 70.3052 118.055 70.3802 118.055 70.5002V71.8202C118.055 71.9252 117.995 72.0002 117.86 72.0002H105.56C105.44 72.0002 105.38 71.9252 105.38 71.8202V70.5002C105.38 70.3802 105.44 70.3052 105.56 70.3052H110.765V67.6952H107.36C107.24 67.6952 107.18 67.6202 107.18 67.5002V61.3352C107.18 61.2152 107.24 61.1402 107.375 61.1402H116C116.135 61.1402 116.195 61.2152 116.195 61.3352V62.6402C116.195 62.7602 116.135 62.8202 116 62.8202H109.085V66.0152H116.15C116.285 66.0152 116.33 66.0752 116.33 66.1952V67.5002C116.33 67.6202 116.285 67.6952 116.15 67.6952H112.67V70.3052Z" fill="#4A4D66"/>
<path d="M123.103 64.8902L122.773 63.7352C122.728 63.6002 122.758 63.5102 122.863 63.4952C125.188 63.1202 126.718 62.5952 126.958 61.8902H123.463C123.328 61.8902 123.268 61.8152 123.268 61.7102V60.5252C123.268 60.4052 123.328 60.3152 123.463 60.3152H132.433C132.553 60.3152 132.613 60.4052 132.613 60.5252V61.7102C132.613 61.8152 132.553 61.8902 132.433 61.8902H128.953C129.193 62.5952 130.693 63.1202 133.018 63.4952C133.138 63.5102 133.153 63.6002 133.123 63.7352L132.823 64.8902C132.793 64.9952 132.688 65.0252 132.568 65.0102C130.648 64.8002 128.983 64.2602 127.948 63.3902C126.928 64.2602 125.248 64.8002 123.343 65.0102C123.223 65.0252 123.148 65.0102 123.103 64.8902ZM128.908 65.7602H134.098C134.233 65.7602 134.293 65.8352 134.293 65.9552V67.1102C134.293 67.2152 134.233 67.2902 134.098 67.2902H121.798C121.678 67.2902 121.618 67.2152 121.618 67.1102V65.9552C121.618 65.8352 121.678 65.7602 121.798 65.7602H126.988V64.6502C126.988 64.5302 127.048 64.4552 127.168 64.4552H128.698C128.833 64.4552 128.908 64.5302 128.908 64.6502V65.7602ZM128.908 68.9852H132.523C132.643 68.9852 132.703 69.0602 132.703 69.1802V70.3502C132.703 70.4552 132.643 70.5302 132.523 70.5302H131.473C131.668 70.8002 131.803 71.1152 131.803 71.4902C131.803 72.7952 130.423 73.5902 127.933 73.5902C125.443 73.5902 124.078 72.7952 124.078 71.4602C124.078 71.1002 124.198 70.7852 124.408 70.5302H123.388C123.253 70.5302 123.193 70.4552 123.193 70.3502V69.1802C123.193 69.0602 123.253 68.9852 123.388 68.9852H126.988V68.0252C126.988 67.9052 127.048 67.8452 127.168 67.8452H128.713C128.848 67.8452 128.908 67.9052 128.908 68.0252V68.9852ZM127.933 72.0902C129.358 72.0902 129.883 71.7752 129.883 71.3252C129.883 70.9052 129.358 70.5902 127.933 70.5902C126.508 70.5902 125.998 70.9052 125.998 71.3252C125.998 71.7752 126.508 72.0902 127.933 72.0902Z" fill="#4A4D66"/>
<path d="M145.585 64.7102H147.49C147.64 64.7102 147.7 64.7852 147.7 64.9202V66.2252C147.7 66.3452 147.64 66.4202 147.49 66.4202H145.585V73.1102C145.585 73.2302 145.525 73.2902 145.375 73.2902H143.845C143.725 73.2902 143.665 73.2302 143.665 73.1102V60.3002C143.665 60.1802 143.725 60.1052 143.845 60.1052H145.375C145.525 60.1052 145.585 60.1802 145.585 60.3002V64.7102ZM142.885 68.8352C143.005 68.9252 142.99 69.0452 142.9 69.1352L142 70.1852C141.91 70.2752 141.79 70.2752 141.67 70.1852C140.41 69.1802 139.42 68.0402 138.91 67.0202C138.355 68.1302 137.29 69.3902 135.985 70.3952C135.88 70.4852 135.76 70.4852 135.67 70.3952L134.77 69.3452C134.68 69.2702 134.68 69.1202 134.785 69.0452C136.585 67.6052 137.905 65.8052 137.905 63.3752V63.1502H135.34C135.19 63.1502 135.145 63.0752 135.145 62.9552V61.6352C135.145 61.5152 135.19 61.4402 135.34 61.4402H142.21C142.36 61.4402 142.405 61.5152 142.405 61.6352V62.9552C142.405 63.0752 142.36 63.1502 142.21 63.1502H139.81V63.3752C139.81 65.7302 141.265 67.5302 142.885 68.8352Z" fill="#4A4D66"/>
<path d="M160.477 64.6352H158.677V66.6152H160.477C160.612 66.6152 160.672 66.6902 160.672 66.8102V68.1002C160.672 68.2202 160.612 68.2802 160.477 68.2802H158.677V73.0802C158.677 73.2002 158.617 73.2602 158.467 73.2602H156.937C156.817 73.2602 156.757 73.2002 156.757 73.0802V60.2702C156.757 60.1502 156.817 60.0752 156.937 60.0752H158.467C158.617 60.0752 158.677 60.1502 158.677 60.2702V62.9702H160.477C160.612 62.9702 160.672 63.0452 160.672 63.1802V64.4402C160.672 64.5752 160.612 64.6352 160.477 64.6352ZM155.602 68.0702L155.812 69.3602C155.827 69.4802 155.782 69.5252 155.647 69.5552C154.327 69.8402 152.737 70.0202 150.937 70.0202H148.717C148.582 70.0202 148.522 69.9452 148.522 69.8252V61.4552C148.522 61.3502 148.582 61.2752 148.702 61.2752H150.247C150.382 61.2752 150.427 61.3502 150.427 61.4552V68.3102H151.222C152.377 68.3102 154.042 68.1902 155.362 67.8902C155.482 67.8602 155.587 67.9352 155.602 68.0702Z" fill="#4A4D66"/>
<path d="M166.76 67.9802C165.2 67.9802 164.54 66.9452 163.67 66.9452C163.19 66.9452 162.92 67.2452 162.575 67.8752C162.53 67.9502 162.44 67.9652 162.35 67.9202L161.075 67.4102C161 67.3802 160.925 67.3202 160.97 67.2002C161.48 65.9102 162.515 65.1752 163.475 65.1752C165.035 65.1752 165.695 66.2102 166.565 66.2102C167.045 66.2102 167.315 65.9102 167.66 65.2802C167.705 65.2052 167.795 65.1902 167.885 65.2352L169.16 65.7452C169.235 65.7752 169.31 65.8352 169.265 65.9552C168.755 67.2452 167.72 67.9802 166.76 67.9802Z" fill="#4A4D66"/>
<defs>
<radialGradient id="paint0_radial_1273_5383" cx="0" cy="0" r="1" gradientUnits="userSpaceOnUse" gradientTransform="translate(96.6218 28.668) rotate(90) scale(112.018 165.242)">
<stop offset="0.571032" stop-color="white"/>
<stop offset="0.711981" stop-color="#D0D6FF"/>
<stop offset="0.767739" stop-color="white"/>
<stop offset="0.823497" stop-color="#D2D7FF"/>
<stop offset="0.907134" stop-color="#8D9AFF"/>
</radialGradient>
</defs>
</svg>
