<svg width="368" height="82" viewBox="0 0 368 82" fill="none" xmlns="http://www.w3.org/2000/svg">
<g filter="url(#filter0_d_1218_5794)">
<path d="M13 37C13 21.536 25.536 9 41 9H327C342.464 9 355 21.536 355 37C355 52.464 342.464 65 327 65H41C25.536 65 13 52.464 13 37Z" fill="url(#paint0_linear_1218_5794)"/>
</g>
<g filter="url(#filter1_d_1218_5794)">
<path fill-rule="evenodd" clip-rule="evenodd" d="M41 7H327C343.569 7 357 20.4315 357 37C357 53.5685 343.569 67 327 67H41C24.4315 67 11 53.5685 11 37C11 20.4315 24.4315 7 41 7ZM41 9C25.536 9 13 21.536 13 37C13 52.464 25.536 65 41 65H327C342.464 65 355 52.464 355 37C355 21.536 342.464 9 327 9H41Z" fill="url(#paint1_linear_1218_5794)"/>
</g>
<path d="M181.591 32.2259H183.877C184.057 32.2259 184.129 32.2979 184.129 32.4599V34.0259C184.129 34.1699 184.057 34.2599 183.877 34.2599H181.591V39.4439C181.591 39.5879 181.519 39.6599 181.339 39.6599H179.503C179.359 39.6599 179.287 39.5879 179.287 39.4439V27.9239C179.287 27.7799 179.359 27.6899 179.503 27.6899H181.339C181.519 27.6899 181.591 27.7799 181.591 27.9239V32.2259ZM178.369 37.3199C176.389 37.6979 174.175 37.8599 171.385 37.8599H168.505C168.343 37.8599 168.271 37.7699 168.271 37.6259V36.1679C168.271 36.0419 168.343 35.9519 168.505 35.9519H170.935C171.403 35.9519 171.871 35.9519 172.321 35.9339V34.6199C170.377 34.2599 169.315 32.9639 169.315 31.4339C169.315 29.6519 170.791 28.1759 173.419 28.1759C176.065 28.1759 177.559 29.6519 177.559 31.4339C177.559 32.9459 176.515 34.2239 174.625 34.6019V35.8439C175.903 35.7539 177.073 35.6279 178.153 35.4479C178.315 35.4119 178.405 35.5199 178.423 35.6639L178.603 37.0679C178.603 37.2119 178.531 37.2839 178.369 37.3199ZM171.565 31.4339C171.565 32.2439 172.177 32.9099 173.419 32.9099C174.679 32.9099 175.309 32.2439 175.309 31.4339C175.309 30.6419 174.679 29.9759 173.419 29.9759C172.177 29.9759 171.565 30.6419 171.565 31.4339ZM173.419 41.4059H181.951C182.113 41.4059 182.185 41.4959 182.185 41.6579V43.2239C182.185 43.3679 182.113 43.4579 181.951 43.4579H171.367C171.205 43.4579 171.133 43.3679 171.133 43.2239V38.9759C171.133 38.8319 171.205 38.7599 171.367 38.7599H173.203C173.365 38.7599 173.419 38.8319 173.419 38.9759V41.4059Z" fill="white"/>
<path d="M195.61 39.9659H199.228C199.39 39.9659 199.462 40.0559 199.462 40.1999V41.7839C199.462 41.9099 199.39 41.9999 199.228 41.9999H184.468C184.324 41.9999 184.252 41.9099 184.252 41.7839V40.1999C184.252 40.0559 184.324 39.9659 184.468 39.9659H188.086V37.6439H186.664C186.52 37.6439 186.448 37.5539 186.448 37.4279V32.5679C186.448 32.4239 186.52 32.3159 186.664 32.3159H194.962V30.8579H186.628C186.484 30.8579 186.412 30.7679 186.412 30.6059V29.1299C186.412 28.9859 186.484 28.8959 186.628 28.8959H197.032C197.194 28.8959 197.266 28.9859 197.266 29.1299V33.9539C197.266 34.0799 197.176 34.1879 197.014 34.1879H188.734V35.7359H197.392C197.554 35.7359 197.644 35.8079 197.644 35.9699V37.4279C197.644 37.5539 197.554 37.6439 197.392 37.6439H195.61V39.9659ZM193.324 37.6439H190.39V39.9659H193.324V37.6439Z" fill="white"/>
<defs>
<filter id="filter0_d_1218_5794" x="2" y="2" width="364" height="78" filterUnits="userSpaceOnUse" color-interpolation-filters="sRGB">
<feFlood flood-opacity="0" result="BackgroundImageFix"/>
<feColorMatrix in="SourceAlpha" type="matrix" values="0 0 0 0 0 0 0 0 0 0 0 0 0 0 0 0 0 0 127 0" result="hardAlpha"/>
<feOffset dy="4"/>
<feGaussianBlur stdDeviation="5.5"/>
<feComposite in2="hardAlpha" operator="out"/>
<feColorMatrix type="matrix" values="0 0 0 0 0 0 0 0 0 0 0 0 0 0 0 0 0 0 0.15 0"/>
<feBlend mode="normal" in2="BackgroundImageFix" result="effect1_dropShadow_1218_5794"/>
<feBlend mode="normal" in="SourceGraphic" in2="effect1_dropShadow_1218_5794" result="shape"/>
</filter>
<filter id="filter1_d_1218_5794" x="0" y="0" width="368" height="82" filterUnits="userSpaceOnUse" color-interpolation-filters="sRGB">
<feFlood flood-opacity="0" result="BackgroundImageFix"/>
<feColorMatrix in="SourceAlpha" type="matrix" values="0 0 0 0 0 0 0 0 0 0 0 0 0 0 0 0 0 0 127 0" result="hardAlpha"/>
<feOffset dy="4"/>
<feGaussianBlur stdDeviation="5.5"/>
<feComposite in2="hardAlpha" operator="out"/>
<feColorMatrix type="matrix" values="0 0 0 0 0 0 0 0 0 0 0 0 0 0 0 0 0 0 0.15 0"/>
<feBlend mode="normal" in2="BackgroundImageFix" result="effect1_dropShadow_1218_5794"/>
<feBlend mode="normal" in="SourceGraphic" in2="effect1_dropShadow_1218_5794" result="shape"/>
</filter>
<linearGradient id="paint0_linear_1218_5794" x1="184" y1="9" x2="184" y2="66.6154" gradientUnits="userSpaceOnUse">
<stop stop-color="white"/>
<stop offset="0.275531" stop-color="#43DAE3"/>
<stop offset="0.529509" stop-color="#16A3FD"/>
<stop offset="0.770833" stop-color="#4E8DFF"/>
<stop offset="1" stop-color="#91AFFF"/>
</linearGradient>
<linearGradient id="paint1_linear_1218_5794" x1="13" y1="8.99997" x2="356.068" y2="57.4365" gradientUnits="userSpaceOnUse">
<stop stop-color="#67A5FD"/>
<stop offset="1" stop-color="#A4DADD"/>
</linearGradient>
</defs>
</svg>
